<?xml version="1.0" encoding="UTF-8"?>
<svg id="a" data-name="レイヤー 1" xmlns="http://www.w3.org/2000/svg" xmlns:xlink="http://www.w3.org/1999/xlink" viewBox="0 0 1025 769">
  <defs>
    <style>
      .al, .am, .an, .ao {
        fill: none;
      }

      .am {
        stroke-width: 3px;
      }

      .am, .ap, .aq, .ar, .as {
        stroke-miterlimit: 10;
      }

      .am, .aq, .ar, .as {
        stroke: #000;
      }

      .at {
        fill: #007cbe;
      }

      .au {
        fill: #fff;
      }

      .an {
        stroke-width: 1.62px;
      }

      .an, .ao {
        stroke: #fff;
      }

      .ap {
        fill: #3fa9f5;
        stroke: #231815;
        stroke-width: 2px;
      }

      .aq {
        fill: #ffb48a;
      }

      .aq, .ar, .as {
        stroke-width: .5px;
      }

      .ar {
        fill: #fff1bf;
      }

      .as {
        fill: #d4eeff;
      }

      .ao {
        stroke-width: 3.17px;
      }

      .av {
        clip-path: url(#q);
      }

      .aw {
        clip-path: url(#n);
      }

      .ax {
        clip-path: url(#k);
      }

      .ay {
        clip-path: url(#l);
      }

      .az {
        clip-path: url(#p);
      }

      .ba {
        clip-path: url(#r);
      }

      .bb {
        clip-path: url(#o);
      }

      .bc {
        clip-path: url(#i);
      }

      .bd {
        clip-path: url(#h);
      }

      .be {
        clip-path: url(#j);
      }

      .bf {
        clip-path: url(#g);
      }

      .bg {
        clip-path: url(#e);
      }

      .bh {
        clip-path: url(#s);
      }

      .bi {
        clip-path: url(#v);
      }

      .bj {
        clip-path: url(#u);
      }

      .bk {
        clip-path: url(#z);
      }

      .bl {
        clip-path: url(#y);
      }

      .bm {
        clip-path: url(#w);
      }

      .bn {
        clip-path: url(#x);
      }

      .bo {
        clip-path: url(#f);
      }

      .bp {
        clip-path: url(#d);
      }

      .bq {
        clip-path: url(#b);
      }

      .br {
        clip-path: url(#c);
      }

      .bs {
        clip-path: url(#ak);
      }

      .bt {
        clip-path: url(#aj);
      }

      .bu {
        clip-path: url(#ae);
      }

      .bv {
        clip-path: url(#ai);
      }

      .bw {
        clip-path: url(#ab);
      }

      .bx {
        clip-path: url(#ag);
      }

      .by {
        clip-path: url(#af);
      }

      .bz {
        clip-path: url(#aa);
      }

      .ca {
        clip-path: url(#ah);
      }

      .cb {
        clip-path: url(#ac);
      }

      .cc {
        clip-path: url(#ad);
      }

      .cd {
        isolation: isolate;
      }
    </style>
    <clipPath id="b">
      <rect class="al" x="14.32" y="149.66" width="150" height="133.75"/>
    </clipPath>
    <clipPath id="c">
      <rect class="al" x="14.32" y="149.66" width="150" height="133.75"/>
    </clipPath>
    <clipPath id="d">
      <rect class="al" x="14.32" y="149.66" width="150" height="133.75"/>
    </clipPath>
    <clipPath id="e">
      <rect class="al" x="14.32" y="149.66" width="150" height="133.75"/>
    </clipPath>
    <clipPath id="f">
      <rect class="al" x="14.32" y="149.66" width="150" height="133.75"/>
    </clipPath>
    <clipPath id="g">
      <rect class="al" x="14.32" y="149.66" width="150" height="133.75"/>
    </clipPath>
    <clipPath id="h">
      <rect class="al" x="14.32" y="149.66" width="150" height="133.75"/>
    </clipPath>
    <clipPath id="i">
      <rect class="al" x="14.32" y="149.66" width="150" height="133.75"/>
    </clipPath>
    <clipPath id="j">
      <rect class="al" x="14.32" y="149.66" width="150" height="133.75"/>
    </clipPath>
    <clipPath id="k">
      <rect class="al" x="14.32" y="149.66" width="150" height="133.75"/>
    </clipPath>
    <clipPath id="l">
      <rect class="al" x="14.32" y="149.66" width="150" height="133.75"/>
    </clipPath>
    <clipPath id="n">
      <rect class="al" x="600" y="181.78" width="150" height="101.63"/>
    </clipPath>
    <clipPath id="o">
      <rect class="al" x="600" y="181.78" width="150" height="101.63"/>
    </clipPath>
    <clipPath id="p">
      <rect class="al" x="600" y="181.78" width="149.34" height="100.91"/>
    </clipPath>
    <clipPath id="q">
      <rect class="al" x="600" y="181.78" width="150" height="101.63"/>
    </clipPath>
    <clipPath id="r">
      <rect class="al" x="600" y="181.78" width="149.34" height="100.91"/>
    </clipPath>
    <clipPath id="s">
      <rect class="al" x="600" y="181.78" width="150" height="101.63"/>
    </clipPath>
    <clipPath id="u">
      <rect class="al" x="288" y="181.78" width="150" height="101.63"/>
    </clipPath>
    <clipPath id="v">
      <rect class="al" x="288" y="181.78" width="150" height="101.63"/>
    </clipPath>
    <clipPath id="w">
      <rect class="al" x="288" y="181.78" width="149.34" height="100.91"/>
    </clipPath>
    <clipPath id="x">
      <rect class="al" x="288" y="181.78" width="150" height="101.63"/>
    </clipPath>
    <clipPath id="y">
      <rect class="al" x="288" y="181.78" width="149.34" height="100.91"/>
    </clipPath>
    <clipPath id="z">
      <rect class="al" x="288" y="181.78" width="150" height="101.63"/>
    </clipPath>
    <clipPath id="aa">
      <rect class="al" x="860.18" y="149.66" width="150" height="133.75"/>
    </clipPath>
    <clipPath id="ab">
      <rect class="al" x="860.18" y="149.66" width="150" height="133.75"/>
    </clipPath>
    <clipPath id="ac">
      <rect class="al" x="860.18" y="149.66" width="150" height="133.75"/>
    </clipPath>
    <clipPath id="ad">
      <rect class="al" x="860.18" y="149.66" width="150" height="133.75"/>
    </clipPath>
    <clipPath id="ae">
      <rect class="al" x="860.18" y="149.66" width="150" height="133.75"/>
    </clipPath>
    <clipPath id="af">
      <rect class="al" x="860.18" y="149.66" width="150" height="133.75"/>
    </clipPath>
    <clipPath id="ag">
      <rect class="al" x="860.18" y="149.66" width="150" height="133.75"/>
    </clipPath>
    <clipPath id="ah">
      <rect class="al" x="860.18" y="149.66" width="150" height="133.75"/>
    </clipPath>
    <clipPath id="ai">
      <rect class="al" x="860.18" y="149.66" width="150" height="133.75"/>
    </clipPath>
    <clipPath id="aj">
      <rect class="al" x="860.18" y="149.66" width="150" height="133.75"/>
    </clipPath>
    <clipPath id="ak">
      <rect class="al" x="860.18" y="149.66" width="150" height="133.75"/>
    </clipPath>
  </defs>
  <g>
    <rect class="as" x="425.63" y="344.96" width="173.68" height="59.26"/>
    <path class="as" d="M599.14,345.17v58.85h-173.33v-58.85h173.33m.35-.41h-174.03v59.67h174.03v-59.67h0Z"/>
  </g>
  <g>
    <rect class="as" x="183.15" y="343.2" width="173.68" height="59.26"/>
    <path class="as" d="M356.65,343.41v58.85H183.32v-58.85h173.33m.35-.41H182.97v59.67h174.03v-59.67h0Z"/>
  </g>
  <g class="cd">
    <path d="M269.38,40.54c-.09,.15-.27,.24-.54,.27-1.92,2.4-4.5,4.98-7.26,7.11l.48,.12c-.06,.15-.27,.39-.66,.42v11.43h-2.13v-10.41c-3.06,2.1-7.02,4.23-10.71,5.7-.15-.21-1.14-1.44-1.38-1.68,7.26-2.7,14.16-7.17,18.27-11.97h-15.18v-1.95h17.19l.33-.21,1.59,1.17Zm-4.95-2.34c-2.61-1.38-6.69-2.73-9.87-3.63l.99-1.74c3.21,.78,7.26,2.22,9.99,3.54l-1.11,1.83Zm.21,9.63c3,1.56,6.6,3.81,8.76,5.52l-1.53,1.62c-2.01-1.68-5.73-4.11-8.61-5.64l1.38-1.5Z"/>
    <path d="M279.49,41.55c.9,1.83,1.89,4.71,2.25,6.45l-1.68,.45c-.36-1.74-1.29-4.47-2.19-6.39l1.62-.51Zm17.91,.21c-.06,.27-.36,.33-.63,.3-2.34,8.76-6.75,14.13-14.01,17.07-.24-.36-.78-1.05-1.17-1.38,7.17-2.82,11.28-7.74,13.47-16.68l2.34,.69Zm-10.62-1.65c.63,2.01,1.2,4.89,1.41,6.81l-1.77,.33c-.18-1.92-.75-4.68-1.41-6.75l1.77-.39Z"/>
    <path d="M319.27,49.47c-3.06-1.65-7.26-3.6-10.53-4.89v15h-2.25v-26.07l3.03,.18c-.03,.33-.27,.54-.78,.63v8.76l.45-.63c3.51,1.29,8.16,3.36,11.28,5.01l-1.2,2.01Z"/>
    <path d="M348.67,36.84c-.09,.12-.24,.24-.39,.3-1.17,11.73-5.16,18.03-15.18,22.08-.39-.51-.99-1.17-1.5-1.62,9.57-3.9,13.32-9.6,14.31-19.44h-17.13v8.28h-2.07v-10.32h19.89l.33-.24,1.74,.96Z"/>
    <path d="M353.32,45h25.05v2.13h-23.91c-.18,.3-.57,.51-.96,.57l-.18-2.7Z"/>
    <path d="M404.08,39.21c-.12,.15-.27,.3-.45,.42-3.15,9.72-8.07,15.96-16.35,20.16-.36-.51-.93-1.2-1.53-1.65,7.86-3.81,12.72-9.81,15.21-17.76h-10.71c-1.74,2.7-4.05,5.31-6.72,7.41-.42-.42-1.11-.99-1.71-1.38,4.08-3.15,7.53-7.74,9.57-13.02l2.85,.81c-.12,.3-.48,.39-.87,.39-.6,1.32-1.23,2.58-1.92,3.78h10.56l.36-.18,1.71,1.02Z"/>
    <path d="M432.94,34.12v6.03h-3.93l.96,.42c-.09,.18-.33,.24-.6,.21-.36,.42-.87,.99-1.38,1.5h4.89v7.95h-18.87v-7.95h4.11c-.39-.63-.93-1.32-1.47-1.83l.6-.3h-4.89v2.82c0,5.13-.42,12.48-3.57,17.43-.36-.33-1.23-.84-1.74-1.05,3.03-4.77,3.3-11.49,3.3-16.38v-8.85h22.59Zm-2.04,4.38v-2.7h-18.54v2.7h18.54Zm-15.39,22.05v-8.88h16.08v8.82h-1.92v-.9h-12.3v.96h-1.86Zm.39-16.92v1.95h6.45v-1.95h-6.45Zm0,3.27v2.01h6.45v-2.01h-6.45Zm13.77,6.18h-12.3v1.83h12.3v-1.83Zm-12.3,5.07h12.3v-1.92h-12.3v1.92Zm1.17-18c.66,.66,1.26,1.47,1.56,2.13h5.88c.54-.63,1.17-1.44,1.62-2.13h-9.06Zm12.36,5.43v-1.95h-6.66v1.95h6.66Zm0,3.33v-2.01h-6.66v2.01h6.66Z"/>
    <path d="M458.32,43.33c-.06,.03-.15,.03-.24,.03-.21,0-.45-.06-.63-.18-8.91,2.61-16.98,6.54-16.95,10.56,0,2.88,3.18,3.87,8.04,3.87s8.52-.36,10.62-.69l.18,2.19c-2.76,.36-7.23,.54-10.74,.54-5.94,0-10.26-1.38-10.29-5.79-.03-3.21,3.18-6.03,7.89-8.46-1.02-1.83-1.38-5.31-1.38-12.09l3.3,.27c-.03,.39-.33,.63-.93,.72-.03,5.25,.15,8.52,.99,10.14,2.82-1.32,6.06-2.52,9.36-3.6l.78,2.49Z"/>
    <path d="M487.78,45.3h-9.9l.51,.15c-.03,.18-.27,.33-.6,.36-.78,5.43-3.24,10.83-9.27,13.86-.33-.39-1.11-1.08-1.62-1.47,5.91-2.94,7.98-7.5,8.67-12.9h-11.46v-2.01h23.67v2.01Zm-4.41-8.19h-16.65v-2.01h16.65v2.01Zm.39-4.41c1.23,1.29,2.61,3.33,3.3,4.74l-1.2,.81c-.63-1.38-2.07-3.51-3.27-4.74l1.17-.81Zm3.54-1.02c1.23,1.29,2.67,3.33,3.39,4.71l-1.23,.75c-.63-1.32-2.13-3.45-3.3-4.68l1.14-.78Z"/>
    <path d="M492.82,45h25.05v2.13h-23.91c-.18,.3-.57,.51-.96,.57l-.18-2.7Z"/>
    <path d="M543.64,38.58c-.03,.15-.18,.27-.36,.33-1.11,3.72-2.61,7.14-4.41,9.93,1.29,.75,2.76,1.68,3.87,2.49l-1.26,1.98c-1.08-.84-2.61-1.83-3.87-2.61-2.76,3.84-6.3,6.93-10.83,9.12-.33-.51-1.11-1.23-1.65-1.56,4.38-2.04,7.89-5.07,10.62-8.64-2.22-1.23-4.41-2.28-6.63-3.12l1.14-1.68c2.19,.78,4.44,1.8,6.75,3.03,1.56-2.46,2.79-5.07,3.63-7.95h-10.17c-1.83,3.06-4.29,6.09-6.93,8.25-.39-.36-1.2-1.02-1.71-1.35,3.93-3,7.65-8.4,9.45-13.53l2.85,.66c-.12,.33-.42,.42-.81,.39-.42,.99-1.11,2.46-1.68,3.57h9.96l.42-.12,1.62,.81Z"/>
    <path d="M551.42,50.1v-14.58l2.85,.18c-.03,.27-.24,.48-.72,.54v13.86h-2.13Zm16.71-15.75c-.03,.3-.24,.45-.72,.51v9.54c0,6.3-2.16,12.06-10.77,15.39-.3-.45-1.05-1.23-1.56-1.62,8.31-3.09,10.17-8.22,10.17-13.77v-10.23l2.88,.18Z"/>
    <path d="M574.97,35.95c3.12,.99,6.72,2.55,8.94,4.08l-1.14,1.89c-2.16-1.53-5.7-3.12-8.76-4.17l.96-1.8Zm-.12,20.79c10.65-3.3,17.73-9.27,21.33-17.58,.63,.51,1.32,.9,1.95,1.23-3.75,8.22-11.07,14.61-21.24,18-.03,.27-.21,.57-.42,.69l-1.62-2.34Z"/>
    <path d="M622.48,39.21c-.12,.15-.27,.3-.45,.42-3.15,9.72-8.07,15.96-16.35,20.16-.36-.51-.93-1.2-1.53-1.65,7.86-3.81,12.72-9.81,15.21-17.76h-10.71c-1.74,2.7-4.05,5.31-6.72,7.41-.42-.42-1.11-.99-1.71-1.38,4.08-3.15,7.53-7.74,9.57-13.02l2.85,.81c-.12,.3-.48,.39-.87,.39-.6,1.32-1.23,2.58-1.92,3.78h10.56l.36-.18,1.71,1.02Z"/>
    <path d="M651.35,34.12v6.03h-3.93l.96,.42c-.09,.18-.33,.24-.6,.21-.36,.42-.87,.99-1.38,1.5h4.89v7.95h-18.87v-7.95h4.11c-.39-.63-.93-1.32-1.47-1.83l.6-.3h-4.89v2.82c0,5.13-.42,12.48-3.57,17.43-.36-.33-1.23-.84-1.74-1.05,3.03-4.77,3.3-11.49,3.3-16.38v-8.85h22.59Zm-2.04,4.38v-2.7h-18.54v2.7h18.54Zm-15.39,22.05v-8.88h16.08v8.82h-1.92v-.9h-12.3v.96h-1.86Zm.39-16.92v1.95h6.45v-1.95h-6.45Zm0,3.27v2.01h6.45v-2.01h-6.45Zm13.77,6.18h-12.3v1.83h12.3v-1.83Zm-12.3,5.07h12.3v-1.92h-12.3v1.92Zm1.17-18c.66,.66,1.26,1.47,1.56,2.13h5.88c.54-.63,1.17-1.44,1.62-2.13h-9.06Zm12.36,5.43v-1.95h-6.66v1.95h6.66Zm0,3.33v-2.01h-6.66v2.01h6.66Z"/>
    <path d="M671.36,38.13c-.12,.27-.36,.48-.75,.48-1.08,9.33-4.2,17.46-9.18,17.46-2.52,0-4.8-2.52-4.8-7.26,0-7.2,5.61-13.23,13.5-13.23,8.67,0,12.42,5.49,12.42,11.34,0,7.14-4.14,10.59-11.4,12.27-.27-.48-.78-1.29-1.26-1.83,6.9-1.32,10.44-4.68,10.44-10.35,0-4.95-3.18-9.45-10.2-9.45-.3,0-.63,.03-.9,.06l2.13,.51Zm-2.88-.39c-6.06,.75-9.81,5.76-9.81,11.01,0,3.21,1.38,5.22,2.82,5.22,3.63,0,6.24-8.01,6.99-16.23Z"/>
    <path d="M691.76,44.67v9.87c2.34,3.57,6.72,3.57,12.36,3.57,3.3,0,7.14-.06,9.48-.21-.24,.45-.57,1.38-.63,1.98-2.07,.06-5.37,.12-8.34,.12-6.6,0-10.74,0-13.71-3.72-1.38,1.35-2.79,2.67-3.96,3.69,.03,.24-.03,.36-.24,.48l-1.17-2.13c1.29-.96,2.85-2.28,4.26-3.57v-8.16h-3.96v-1.92h5.91Zm-4.02-11.22c1.74,1.38,3.72,3.36,4.59,4.8l-1.68,1.2c-.84-1.44-2.76-3.48-4.47-4.92l1.56-1.08Zm16.29,23.61v-2.67h-10.89v-1.53h3.87v-2.4h-2.97v-1.53h9.99v-1.77h-8.31v-5.25h14.04v5.25h-4.47v.03l1.23,.06c-.03,.21-.18,.33-.6,.39v1.29h6.39v1.53h-6.39v2.4h7.2v1.53h-7.2v2.67h-1.89Zm9.09-18.27v1.53h-19.95v-1.53h5.82c.27-.69,.54-1.47,.81-2.28h-4.68v-1.5h5.16c.27-.81,.51-1.62,.72-2.37l2.46,.33c-.06,.24-.27,.36-.66,.36l-.51,1.68h7.14v3.78h3.69Zm-15.54,4.5v2.49h10.23v-2.49h-10.23Zm1.29,9.57h5.16v-2.4h-5.16v2.4Zm8.67-16.35h-5.73c-.24,.81-.51,1.59-.78,2.28h6.51v-2.28Z"/>
    <path d="M720.8,36.72c-.06,.27-.39,.45-.81,.48-.36,2.25-.57,4.95-.57,7.47,0,1.11,.06,2.19,.12,3.15,.36,5.1,2.43,8.19,4.74,8.16,1.2,0,2.76-3.06,3.84-6.42,.42,.42,1.23,.99,1.74,1.29-1.38,4.05-3.12,7.35-5.61,7.41-3.81,.06-6.45-4.56-6.87-10.32-.09-1.14-.12-2.4-.12-3.75,0-2.64,.15-5.52,.45-8.07l3.09,.6Zm19.89,13.95c-.84-5.25-3.51-9.03-7.56-11.28l1.32-1.62c4.38,2.34,7.59,6.66,8.46,12.21l-2.22,.69Z"/>
  </g>
  <g>
    <polyline class="at" points="38.45 266.54 38.45 247.16 146.71 247.16 146.71 266.54 38.45 266.54"/>
    <polygon class="ao" points="38.77 266.23 38.77 246.85 147.03 246.85 147.03 266.23 38.77 266.23"/>
    <g>
      <g class="bq">
        <polyline class="at" points="164.97 229.66 164.97 249.04 146.71 266.73 146.71 247.16 39.1 247.16"/>
      </g>
      <g class="br">
        <polyline class="ao" points="165.29 229.04 165.29 248.73 147.03 266.41 147.03 246.85 39.1 246.85"/>
      </g>
      <g class="bp">
        <line class="ao" x1="39.1" y1="229.35" x2="164.97" y2="229.35"/>
      </g>
      <g class="bg">
        <line class="al" x1="146.88" y1="247.14" x2="165.27" y2="229.33"/>
      </g>
      <g class="bo">
        <line class="ao" x1="146.88" y1="247.14" x2="165.27" y2="229.33"/>
      </g>
    </g>
    <polyline class="at" points="146.71 246.54 146.71 168.41 38.45 168.41 38.45 246.54 146.71 246.54"/>
    <polygon class="ao" points="146.38 246.85 146.38 168.73 38.12 168.73 38.12 246.85 146.38 246.85"/>
    <g>
      <g class="bf">
        <polyline class="at" points="146.71 245.9 164.97 228.4 164.97 150.91 58.1 150.91 39.84 168.41 146.71 168.41 146.71 245.91"/>
      </g>
      <g class="bd">
        <polygon class="ao" points="147.03 245.58 165.29 228.08 165.29 150.6 58.43 150.6 40.17 168.1 147.03 168.1 147.03 245.58"/>
      </g>
    </g>
    <polyline class="at" points="137.58 237.79 137.58 177.79 48.23 177.79 48.23 237.79 137.58 237.79"/>
    <polygon class="ao" points="137.25 237.48 137.25 177.48 47.9 177.48 47.9 237.48 137.25 237.48"/>
    <g>
      <g class="bc">
        <line class="al" x1="146.75" y1="168.39" x2="165.27" y2="150.71"/>
      </g>
      <g class="be">
        <line class="ao" x1="146.75" y1="168.39" x2="165.27" y2="150.71"/>
      </g>
    </g>
    <polyline class="at" points="141.49 280.91 141.49 269.04 15.65 269.04 29.93 255.29 155.84 255.29 155.84 266.96 141.49 280.64"/>
    <g class="ax">
      <polygon class="ao" points="141.16 280.96 141.16 269.35 15.32 269.35 29.61 255.6 155.51 255.6 155.51 267.27 141.16 280.96"/>
    </g>
    <polyline class="at" points="141.49 269.04 141.49 280.29 16.92 280.29 16.92 269.04 141.49 269.04"/>
    <g class="ay">
      <polygon class="ao" points="141.16 269.35 141.16 280.6 16.6 280.6 16.6 269.35 141.16 269.35"/>
    </g>
    <line class="al" x1="141.53" y1="269.21" x2="155.75" y2="255.58"/>
    <line class="ao" x1="141.53" y1="269.21" x2="155.75" y2="255.58"/>
  </g>
  <g id="m" data-name="アートワーク 1">
    <g class="aw">
      <g class="bb">
        <path class="at" d="M749.28,211.46c0,15.94-33.24,28.87-74.24,28.87s-74.24-12.93-74.24-28.87v42.29c0,15.94,33.24,28.87,74.24,28.87s74.24-12.93,74.24-28.87v-42.29Z"/>
      </g>
      <g class="az">
        <path class="an" d="M749.28,211.46c0,15.94-33.24,28.87-74.24,28.87s-74.24-12.93-74.24-28.87v42.29c0,15.94,33.24,28.87,74.24,28.87s74.24-12.93,74.24-28.87v-42.29Z"/>
      </g>
      <g class="av">
        <path class="at" d="M675.05,240.32c41,0,74.24-12.93,74.24-28.87s-33.24-28.87-74.24-28.87-74.24,12.92-74.24,28.87,33.24,28.87,74.24,28.87"/>
      </g>
      <g class="ba">
        <ellipse class="an" cx="675.05" cy="211.46" rx="74.24" ry="28.87"/>
      </g>
      <g class="bh">
        <polygon class="au" points="658.09 200.17 664.22 209.36 641.04 214.72 646.11 210.5 610.29 204.38 619.27 197.64 653.84 203.5 658.09 200.17"/>
        <polygon class="au" points="690.71 222.46 686.52 212.98 707.43 208.81 703.8 212.05 738.65 218.01 730.29 224.7 695.65 218.19 690.71 222.46"/>
        <polygon class="au" points="679.27 195.14 702.69 188.74 702.97 198.77 697.11 197.66 685.69 207.13 674.78 205.54 686.58 196.27 679.27 195.14"/>
        <polygon class="au" points="669.24 231.11 646.94 235.29 646.11 224.98 652.51 226.37 664.79 215.89 675.65 217.72 662.55 229.15 669.24 231.11"/>
      </g>
    </g>
  </g>
  <g id="t" data-name="アートワーク 1">
    <g class="bj">
      <g class="bi">
        <path class="at" d="M437.28,211.46c0,15.94-33.24,28.87-74.24,28.87s-74.24-12.93-74.24-28.87v42.29c0,15.94,33.24,28.87,74.24,28.87s74.24-12.93,74.24-28.87v-42.29Z"/>
      </g>
      <g class="bm">
        <path class="an" d="M437.28,211.46c0,15.94-33.24,28.87-74.24,28.87s-74.24-12.93-74.24-28.87v42.29c0,15.94,33.24,28.87,74.24,28.87s74.24-12.93,74.24-28.87v-42.29Z"/>
      </g>
      <g class="bn">
        <path class="at" d="M363.05,240.32c41,0,74.24-12.93,74.24-28.87s-33.24-28.87-74.24-28.87-74.24,12.92-74.24,28.87,33.24,28.87,74.24,28.87"/>
      </g>
      <g class="bl">
        <ellipse class="an" cx="363.05" cy="211.46" rx="74.24" ry="28.87"/>
      </g>
      <g class="bk">
        <polygon class="au" points="346.09 200.17 352.22 209.36 329.04 214.72 334.11 210.5 298.29 204.38 307.27 197.64 341.84 203.5 346.09 200.17"/>
        <polygon class="au" points="378.71 222.46 374.52 212.98 395.43 208.81 391.8 212.05 426.65 218.01 418.29 224.7 383.65 218.19 378.71 222.46"/>
        <polygon class="au" points="367.27 195.14 390.69 188.74 390.97 198.77 385.11 197.66 373.69 207.13 362.78 205.54 374.58 196.27 367.27 195.14"/>
        <polygon class="au" points="357.24 231.11 334.94 235.29 334.11 224.98 340.51 226.37 352.79 215.89 363.65 217.72 350.55 229.15 357.24 231.11"/>
      </g>
    </g>
  </g>
  <g>
    <polyline class="at" points="884.31 266.54 884.31 247.16 992.57 247.16 992.57 266.54 884.31 266.54"/>
    <polygon class="ao" points="884.64 266.23 884.64 246.85 992.9 246.85 992.9 266.23 884.64 266.23"/>
    <g>
      <g class="bz">
        <polyline class="at" points="1010.83 229.66 1010.83 249.04 992.57 266.73 992.57 247.16 884.96 247.16"/>
      </g>
      <g class="bw">
        <polyline class="ao" points="1011.16 229.04 1011.16 248.73 992.9 266.41 992.9 246.85 884.96 246.85"/>
      </g>
      <g class="cb">
        <line class="ao" x1="884.96" y1="229.35" x2="1010.83" y2="229.35"/>
      </g>
      <g class="cc">
        <line class="al" x1="992.75" y1="247.14" x2="1011.14" y2="229.33"/>
      </g>
      <g class="bu">
        <line class="ao" x1="992.75" y1="247.14" x2="1011.14" y2="229.33"/>
      </g>
    </g>
    <polyline class="at" points="992.57 246.54 992.57 168.41 884.31 168.41 884.31 246.54 992.57 246.54"/>
    <polygon class="ao" points="992.25 246.85 992.25 168.73 883.99 168.73 883.99 246.85 992.25 246.85"/>
    <g>
      <g class="by">
        <polyline class="at" points="992.57 245.9 1010.83 228.4 1010.83 150.91 903.97 150.91 885.71 168.41 992.57 168.41 992.57 245.91"/>
      </g>
      <g class="bx">
        <polygon class="ao" points="992.9 245.58 1011.16 228.08 1011.16 150.6 904.29 150.6 886.03 168.1 992.9 168.1 992.9 245.58"/>
      </g>
    </g>
    <polyline class="at" points="983.44 237.79 983.44 177.79 894.09 177.79 894.09 237.79 983.44 237.79"/>
    <polygon class="ao" points="983.12 237.48 983.12 177.48 893.77 177.48 893.77 237.48 983.12 237.48"/>
    <g>
      <g class="ca">
        <line class="al" x1="992.62" y1="168.39" x2="1011.14" y2="150.71"/>
      </g>
      <g class="bv">
        <line class="ao" x1="992.62" y1="168.39" x2="1011.14" y2="150.71"/>
      </g>
    </g>
    <polyline class="at" points="987.35 280.91 987.35 269.04 861.52 269.04 875.8 255.29 1001.7 255.29 1001.7 266.96 987.35 280.64"/>
    <g class="bt">
      <polygon class="ao" points="987.03 280.96 987.03 269.35 861.19 269.35 875.47 255.6 1001.38 255.6 1001.38 267.27 987.03 280.96"/>
    </g>
    <polyline class="at" points="987.35 269.04 987.35 280.29 862.79 280.29 862.79 269.04 987.35 269.04"/>
    <g class="bs">
      <polygon class="ao" points="987.03 269.35 987.03 280.6 862.46 280.6 862.46 269.35 987.03 269.35"/>
    </g>
    <line class="al" x1="987.4" y1="269.21" x2="1001.62" y2="255.58"/>
    <line class="ao" x1="987.4" y1="269.21" x2="1001.62" y2="255.58"/>
  </g>
  <g class="cd">
    <path d="M57.3,313.19c-1.29,3.28-3.14,6.22-5.29,8.32l-1.62-1.06c2.02-1.93,3.95-4.62,5.07-7.92l1.85,.67Zm5.96-4.37v13.33c0,3.14-2.46,3.11-6.64,3.05-.11-.5-.34-1.29-.62-1.85,.64,.03,3.78,0,4.09,0,.78,0,1.15-.5,1.15-1.18v-13.36h-9.52v-1.88h9.52v-5.74l2.66,.14c-.03,.28-.22,.5-.64,.53v5.07h9.46v1.88h-9.46Zm5.01,3.53c2.04,2.27,4.4,5.54,5.91,8.15l-1.79,1.04c-1.37-2.58-3.84-6.16-5.71-8.29l1.6-.9Z"/>
    <path d="M96.7,303.89c-.06,.14-.2,.25-.36,.31-1.51,3.56-3.3,6.64-5.6,9.63,3.05,2.44,7.64,6.61,10.25,9.49l-1.71,1.48c-2.46-2.86-6.97-7.11-9.83-9.41-2.46,3-6.72,7.08-10.78,9.41-.31-.42-.98-1.12-1.46-1.51,7.76-4.26,13.89-12.21,16.41-18.28h-13.75v-1.9h14.84l.36-.14,1.62,.92Z"/>
    <path d="M120.56,315.9c-2.86-1.54-6.78-3.36-9.83-4.56v14h-2.1v-24.33l2.83,.17c-.03,.31-.25,.5-.73,.59v8.18l.42-.59c3.28,1.2,7.62,3.14,10.53,4.68l-1.12,1.88Z"/>
    <path d="M142.34,323.85h-2.46l-2.3-6.92h-7.42l-2.24,6.92h-2.38l7.06-21.34h2.69l7.06,21.34Zm-5.24-8.76l-2.1-6.33c-.45-1.46-.81-2.8-1.09-4.06h-.08c-.28,1.29-.67,2.63-1.06,3.98l-2.13,6.41h6.47Z"/>
  </g>
  <g class="cd">
    <path d="M894.37,302.19c-1.29,3.28-3.14,6.22-5.29,8.32l-1.62-1.06c2.02-1.93,3.95-4.62,5.07-7.92l1.85,.67Zm5.96-4.37v13.33c0,3.14-2.46,3.11-6.63,3.05-.11-.5-.34-1.29-.62-1.85,.64,.03,3.78,0,4.09,0,.79,0,1.15-.5,1.15-1.18v-13.36h-9.52v-1.88h9.52v-5.74l2.66,.14c-.03,.28-.22,.5-.64,.53v5.07h9.46v1.88h-9.46Zm5.01,3.53c2.04,2.27,4.4,5.54,5.91,8.15l-1.79,1.04c-1.37-2.58-3.84-6.16-5.71-8.29l1.6-.9Z"/>
    <path d="M933.76,292.89c-.06,.14-.2,.25-.37,.31-1.51,3.56-3.3,6.64-5.6,9.63,3.05,2.44,7.64,6.61,10.25,9.49l-1.71,1.48c-2.46-2.86-6.97-7.11-9.83-9.41-2.46,3-6.72,7.08-10.78,9.41-.31-.42-.98-1.12-1.46-1.51,7.76-4.26,13.89-12.21,16.41-18.28h-13.75v-1.9h14.84l.36-.14,1.62,.92Z"/>
    <path d="M957.62,304.9c-2.86-1.54-6.78-3.36-9.83-4.56v14h-2.1v-24.33l2.83,.17c-.03,.31-.25,.5-.73,.59v8.18l.42-.59c3.28,1.2,7.62,3.14,10.53,4.68l-1.12,1.88Z"/>
    <path d="M972.35,301.43c2.02,.48,4.4,2.16,4.4,5.38,0,1.9-.73,3.25-1.71,4.2-1.43,1.4-3.72,2.02-6.94,2.02-1.76,0-3.08-.14-3.95-.22v-20.97c1.18-.25,2.86-.45,4.59-.45,2.63,0,4.37,.5,5.63,1.57,1.01,.87,1.6,2.1,1.6,3.7,0,2.1-1.43,3.92-3.61,4.7v.08Zm-3.39-.78c2.83,0,4.65-1.62,4.65-3.81v-.03c0-2.52-1.85-3.61-4.76-3.61-1.23,0-1.96,.08-2.38,.2v7.25h2.49Zm-2.49,10.39c.53,.11,1.29,.14,2.27,.14,2.94,0,5.57-1.15,5.57-4.37s-2.77-4.37-5.6-4.37h-2.24v8.6Z"/>
  </g>
  <g class="cd">
    <path d="M321.59,294.4c-.03,.25-.28,.42-.64,.48-.17,7.53-.78,14.39-5.1,19.4-.45-.34-1.12-.76-1.68-1.06,4.17-4.54,4.68-11.54,4.76-19.07l2.66,.25Zm7.25,16.13c4.68-2.27,7.7-6.36,9.32-11.26,.42,.36,1.26,.84,1.74,1.09-1.99,5.66-5.46,9.83-11.42,12.66-.08,.22-.28,.45-.48,.56l-1.46-1.85,.31-.42v-20.55l2.6,.14c-.03,.25-.22,.48-.62,.53v19.1Z"/>
    <path d="M343.17,300.73h23.38v1.99h-22.32c-.17,.28-.53,.48-.9,.53l-.17-2.52Z"/>
    <path d="M390.61,294.74c-.03,.14-.17,.25-.34,.31-1.04,3.47-2.44,6.66-4.12,9.27,1.21,.7,2.58,1.57,3.61,2.32l-1.18,1.85c-1.01-.78-2.44-1.71-3.61-2.44-2.58,3.58-5.88,6.47-10.11,8.51-.31-.48-1.04-1.15-1.54-1.46,4.09-1.9,7.36-4.73,9.91-8.06-2.07-1.15-4.12-2.13-6.19-2.91l1.06-1.57c2.04,.73,4.14,1.68,6.3,2.83,1.46-2.3,2.6-4.73,3.39-7.42h-9.49c-1.71,2.86-4,5.68-6.47,7.7-.36-.34-1.12-.95-1.6-1.26,3.67-2.8,7.14-7.84,8.82-12.63l2.66,.62c-.11,.31-.39,.39-.76,.36-.39,.92-1.04,2.3-1.57,3.33h9.3l.39-.11,1.51,.76Z"/>
    <path d="M411.58,312.85h-2.46l-2.3-6.92h-7.42l-2.24,6.92h-2.38l7.06-21.34h2.69l7.06,21.34Zm-5.24-8.76l-2.1-6.33c-.45-1.46-.81-2.8-1.09-4.06h-.08c-.28,1.29-.67,2.63-1.06,3.98l-2.13,6.41h6.47Z"/>
  </g>
  <g class="cd">
    <path d="M640.65,294.4c-.03,.25-.28,.42-.64,.48-.17,7.53-.78,14.39-5.1,19.4-.45-.34-1.12-.76-1.68-1.06,4.17-4.54,4.68-11.54,4.76-19.07l2.66,.25Zm7.25,16.13c4.68-2.27,7.7-6.36,9.32-11.26,.42,.36,1.26,.84,1.74,1.09-1.99,5.66-5.46,9.83-11.42,12.66-.08,.22-.28,.45-.48,.56l-1.46-1.85,.31-.42v-20.55l2.6,.14c-.03,.25-.22,.48-.62,.53v19.1Z"/>
    <path d="M662.24,300.73h23.38v1.99h-22.32c-.17,.28-.53,.48-.9,.53l-.17-2.52Z"/>
    <path d="M709.67,294.74c-.03,.14-.17,.25-.34,.31-1.04,3.47-2.44,6.66-4.12,9.27,1.21,.7,2.58,1.57,3.61,2.32l-1.18,1.85c-1.01-.78-2.44-1.71-3.61-2.44-2.58,3.58-5.88,6.47-10.11,8.51-.31-.48-1.04-1.15-1.54-1.46,4.09-1.9,7.36-4.73,9.91-8.06-2.07-1.15-4.12-2.13-6.19-2.91l1.06-1.57c2.04,.73,4.14,1.68,6.3,2.83,1.46-2.3,2.6-4.73,3.39-7.42h-9.49c-1.71,2.86-4,5.68-6.47,7.7-.36-.34-1.12-.95-1.6-1.26,3.67-2.8,7.14-7.84,8.82-12.63l2.66,.62c-.11,.31-.39,.39-.76,.36-.39,.92-1.04,2.3-1.57,3.33h9.3l.39-.11,1.51,.76Z"/>
    <path d="M723.59,301.43c2.02,.48,4.4,2.16,4.4,5.38,0,1.9-.73,3.25-1.71,4.2-1.43,1.4-3.72,2.02-6.94,2.02-1.76,0-3.08-.14-3.95-.22v-20.97c1.18-.25,2.86-.45,4.59-.45,2.63,0,4.37,.5,5.63,1.57,1.01,.87,1.6,2.1,1.6,3.7,0,2.1-1.43,3.92-3.61,4.7v.08Zm-3.39-.78c2.83,0,4.65-1.62,4.65-3.81v-.03c0-2.52-1.85-3.61-4.76-3.61-1.23,0-1.96,.08-2.38,.2v7.25h2.49Zm-2.49,10.39c.53,.11,1.29,.14,2.27,.14,2.94,0,5.57-1.15,5.57-4.37s-2.77-4.37-5.6-4.37h-2.24v8.6Z"/>
  </g>
  <line class="am" x1="164.5" y1="220.5" x2="288" y2="220"/>
  <line class="am" x1="438.5" y1="220.5" x2="600.5" y2="219.5"/>
  <line class="am" x1="745.37" y1="223.53" x2="791.5" y2="223.5"/>
  <line class="am" x1="840.05" y1="223.29" x2="886.18" y2="223.26"/>
  <path class="ap" d="M233.45,168.47v12.2h-19.39c-.23,0-.36,.45-.36,1.06v20.61c0,.57,.18,1.06,.36,1.06h19.39v12.2l13.69-12.2h.27c.14,0,.27-.23,.32-.53l12.16-10.84-12.16-10.84c-.05-.3-.18-.53-.32-.53h-.27l-13.69-12.2Z"/>
  <path class="ap" d="M516.2,164.72v12.2h-19.39c-.23,0-.36,.45-.36,1.06v20.61c0,.57,.18,1.06,.36,1.06h19.39v12.2l13.69-12.2h.27c.14,0,.27-.23,.32-.53l12.16-10.84-12.16-10.84c-.05-.3-.18-.53-.32-.53h-.27l-13.69-12.2Z"/>
  <g class="cd">
    <path d="M39.64,572.82c-.09,.15-.27,.24-.54,.27-1.92,2.4-4.5,4.98-7.26,7.11l.48,.12c-.06,.15-.27,.39-.66,.42v11.43h-2.13v-10.41c-3.06,2.1-7.02,4.23-10.71,5.7-.15-.21-1.14-1.44-1.38-1.68,7.26-2.7,14.16-7.17,18.27-11.97h-15.18v-1.95h17.19l.33-.21,1.59,1.17Zm-4.95-2.34c-2.61-1.38-6.69-2.73-9.87-3.63l.99-1.74c3.21,.78,7.26,2.22,9.99,3.54l-1.11,1.83Zm.21,9.63c3,1.56,6.6,3.81,8.76,5.52l-1.53,1.62c-2.01-1.68-5.73-4.11-8.61-5.64l1.38-1.5Z"/>
    <path d="M49.75,573.84c.9,1.83,1.89,4.71,2.25,6.45l-1.68,.45c-.36-1.74-1.29-4.47-2.19-6.39l1.62-.51Zm17.91,.21c-.06,.27-.36,.33-.63,.3-2.34,8.76-6.75,14.13-14.01,17.07-.24-.36-.78-1.05-1.17-1.38,7.17-2.82,11.28-7.74,13.47-16.68l2.34,.69Zm-10.62-1.65c.63,2.01,1.2,4.89,1.41,6.81l-1.77,.33c-.18-1.92-.75-4.68-1.41-6.75l1.77-.39Z"/>
    <path d="M89.53,581.76c-3.06-1.65-7.26-3.6-10.53-4.89v15h-2.25v-26.07l3.03,.18c-.03,.33-.27,.54-.78,.63v8.76l.45-.63c3.51,1.29,8.16,3.36,11.28,5.01l-1.2,2.01Z"/>
    <path d="M118.93,569.13c-.09,.12-.24,.24-.39,.3-1.17,11.73-5.16,18.03-15.18,22.08-.39-.51-.99-1.17-1.5-1.62,9.57-3.9,13.32-9.6,14.31-19.44h-17.13v8.28h-2.07v-10.32h19.89l.33-.24,1.74,.96Z"/>
    <path d="M123.58,577.29h25.05v2.13h-23.91c-.18,.3-.57,.51-.96,.57l-.18-2.7Z"/>
    <path d="M174.34,571.5c-.12,.15-.27,.3-.45,.42-3.15,9.72-8.07,15.96-16.35,20.16-.36-.51-.93-1.2-1.53-1.65,7.86-3.81,12.72-9.81,15.21-17.76h-10.71c-1.74,2.7-4.05,5.31-6.72,7.41-.42-.42-1.11-.99-1.71-1.38,4.08-3.15,7.53-7.74,9.57-13.02l2.85,.81c-.12,.3-.48,.39-.87,.39-.6,1.32-1.23,2.58-1.92,3.78h10.56l.36-.18,1.71,1.02Z"/>
  </g>
  <g class="cd">
    <path d="M40.01,415.16h-9.9l.51,.15c-.03,.18-.27,.33-.6,.36-.78,5.43-3.24,10.83-9.27,13.86-.33-.39-1.11-1.08-1.62-1.47,5.91-2.94,7.98-7.5,8.67-12.9h-11.46v-2.01h23.67v2.01Zm-4.41-8.19H18.95v-2.01h16.65v2.01Zm.39-4.41c1.23,1.29,2.61,3.33,3.3,4.74l-1.2,.81c-.63-1.38-2.07-3.51-3.27-4.74l1.17-.81Zm3.54-1.02c1.23,1.29,2.67,3.33,3.39,4.71l-1.23,.75c-.63-1.32-2.13-3.45-3.3-4.68l1.14-.78Z"/>
    <path d="M45.05,414.86h25.05v2.13h-23.91c-.18,.3-.57,.51-.96,.57l-.18-2.7Z"/>
    <path d="M95.87,408.44c-.03,.15-.18,.27-.36,.33-1.11,3.72-2.61,7.14-4.41,9.93,1.29,.75,2.76,1.68,3.87,2.49l-1.26,1.98c-1.08-.84-2.61-1.83-3.87-2.61-2.76,3.84-6.3,6.93-10.83,9.12-.33-.51-1.11-1.23-1.65-1.56,4.38-2.04,7.89-5.07,10.62-8.64-2.22-1.23-4.41-2.28-6.63-3.12l1.14-1.68c2.19,.78,4.44,1.8,6.75,3.03,1.56-2.46,2.79-5.07,3.63-7.95h-10.17c-1.83,3.06-4.29,6.09-6.93,8.25-.39-.36-1.2-1.02-1.71-1.35,3.93-3,7.65-8.4,9.45-13.53l2.85,.66c-.12,.33-.42,.42-.81,.39-.42,.99-1.11,2.46-1.68,3.57h9.96l.42-.12,1.62,.81Z"/>
    <path d="M103.64,419.96v-14.58l2.85,.18c-.03,.27-.24,.48-.72,.54v13.86h-2.13Zm16.71-15.75c-.03,.3-.24,.45-.72,.51v9.54c0,6.3-2.16,12.06-10.77,15.39-.3-.45-1.05-1.23-1.56-1.62,8.31-3.09,10.17-8.22,10.17-13.77v-10.23l2.88,.18Z"/>
    <path d="M127.19,405.8c3.12,.99,6.72,2.55,8.94,4.08l-1.14,1.89c-2.16-1.53-5.7-3.12-8.76-4.17l.96-1.8Zm-.12,20.79c10.65-3.3,17.73-9.27,21.33-17.58,.63,.51,1.32,.9,1.95,1.23-3.75,8.22-11.07,14.61-21.24,18-.03,.27-.21,.57-.42,.69l-1.62-2.34Z"/>
    <path d="M174.71,409.07c-.12,.15-.27,.3-.45,.42-3.15,9.72-8.07,15.96-16.35,20.16-.36-.51-.93-1.2-1.53-1.65,7.86-3.81,12.72-9.81,15.21-17.76h-10.71c-1.74,2.7-4.05,5.31-6.72,7.41-.42-.42-1.11-.99-1.71-1.38,4.08-3.15,7.53-7.74,9.57-13.02l2.85,.81c-.12,.3-.48,.39-.87,.39-.6,1.32-1.23,2.58-1.92,3.78h10.56l.36-.18,1.71,1.02Z"/>
  </g>
  <line class="am" x1="178.5" y1="419.5" x2="362.5" y2="418.5"/>
  <line class="am" x1="178.97" y1="442.03" x2="178.94" y2="395.9"/>
  <line class="am" x1="362.97" y1="444.03" x2="362.94" y2="397.9"/>
  <line class="am" x1="418.97" y1="444.03" x2="418.94" y2="397.9"/>
  <line class="am" x1="607.97" y1="444.03" x2="607.94" y2="397.9"/>
  <line class="am" x1="421.5" y1="421.5" x2="607.5" y2="420.5"/>
  <line class="am" x1="707.5" y1="421.5" x2="893.5" y2="420.5"/>
  <line class="am" x1="703.97" y1="444.03" x2="703.94" y2="397.9"/>
  <line class="am" x1="893.97" y1="444.03" x2="893.94" y2="397.9"/>
  <line class="am" x1="183.97" y1="610.03" x2="183.94" y2="563.9"/>
  <line class="am" x1="894" y1="615.03" x2="893.97" y2="568.9"/>
  <line class="am" x1="185.2" y1="587.22" x2="892.5" y2="587.5"/>
  <g class="cd">
    <path d="M217.83,365.6c-.11,.14-.28,.22-.53,.22-.08,0-.17,0-.28-.03-2.16,2.18-5.26,4.73-7.98,6.69,.22,.08,.56,.25,.67,.31-.06,.17-.31,.34-.62,.36v15.04h-2.04v-14.39c-2.97,2.1-6.83,4.37-10.67,6.24-.28-.45-.78-1.15-1.18-1.54,7.64-3.53,16.02-9.52,20.52-14.48l2.1,1.57Z"/>
    <path d="M221.52,374.53h23.38v1.99h-22.32c-.17,.28-.53,.48-.9,.53l-.17-2.52Z"/>
    <path d="M272.96,372.2h-5.85v1.93c0,5.35-1.65,10.78-8.96,14.08-.36-.45-.95-1.01-1.46-1.4,7.11-3.08,8.43-8.06,8.43-12.66v-1.96h-9.04v6.97h-1.99v-6.97h-5.49v-1.9h5.49v-6.08l2.69,.17c-.03,.28-.28,.53-.7,.59v5.32h9.04v-6.44l2.69,.17c-.03,.25-.25,.48-.7,.53v5.74h5.85v1.9Z"/>
    <path d="M296.9,370.36c-.08,.14-.25,.22-.5,.25-1.79,2.24-4.2,4.65-6.78,6.64l.45,.11c-.06,.14-.25,.36-.62,.39v10.67h-1.99v-9.72c-2.86,1.96-6.55,3.95-10,5.32-.14-.2-1.06-1.34-1.29-1.57,6.78-2.52,13.22-6.69,17.05-11.17h-14.17v-1.82h16.04l.31-.2,1.48,1.09Zm-4.62-2.18c-2.44-1.29-6.24-2.55-9.21-3.39l.92-1.62c3,.73,6.78,2.07,9.32,3.3l-1.04,1.71Zm.2,8.99c2.8,1.46,6.16,3.56,8.18,5.15l-1.43,1.51c-1.88-1.57-5.35-3.84-8.04-5.26l1.29-1.4Z"/>
    <path d="M306.33,371.31c.84,1.71,1.76,4.4,2.1,6.02l-1.57,.42c-.34-1.62-1.2-4.17-2.04-5.96l1.51-.48Zm16.72,.2c-.06,.25-.34,.31-.59,.28-2.18,8.18-6.3,13.19-13.08,15.93-.22-.34-.73-.98-1.09-1.29,6.69-2.63,10.53-7.22,12.57-15.57l2.18,.64Zm-9.91-1.54c.59,1.88,1.12,4.56,1.32,6.36l-1.65,.31c-.17-1.79-.7-4.37-1.32-6.3l1.65-.36Z"/>
    <path d="M343.46,378.7c-2.86-1.54-6.78-3.36-9.83-4.56v14h-2.1v-24.33l2.83,.17c-.03,.31-.25,.5-.73,.59v8.18l.42-.59c3.28,1.2,7.62,3.14,10.53,4.68l-1.12,1.88Z"/>
  </g>
  <g class="cd">
    <path d="M461.72,364.49c-.11,.14-.28,.22-.53,.22-.08,0-.17,0-.28-.03-2.16,2.18-5.26,4.73-7.98,6.69,.22,.08,.56,.25,.67,.31-.06,.17-.31,.34-.62,.36v15.04h-2.04v-14.39c-2.97,2.1-6.83,4.37-10.67,6.24-.28-.45-.78-1.15-1.18-1.54,7.64-3.53,16.02-9.52,20.52-14.48l2.1,1.57Z"/>
    <path d="M465.41,373.42h23.38v1.99h-22.32c-.17,.28-.53,.48-.9,.53l-.17-2.52Z"/>
    <path d="M516.85,371.09h-5.85v1.93c0,5.35-1.65,10.78-8.96,14.08-.36-.45-.95-1.01-1.46-1.4,7.11-3.08,8.43-8.06,8.43-12.66v-1.96h-9.04v6.97h-1.99v-6.97h-5.49v-1.9h5.49v-6.08l2.69,.17c-.03,.28-.28,.53-.7,.59v5.32h9.04v-6.44l2.69,.17c-.03,.25-.25,.48-.7,.53v5.74h5.85v1.9Z"/>
    <path d="M540.79,369.25c-.08,.14-.25,.22-.5,.25-1.79,2.24-4.2,4.65-6.78,6.64l.45,.11c-.06,.14-.25,.36-.62,.39v10.67h-1.99v-9.72c-2.86,1.96-6.55,3.95-10,5.32-.14-.2-1.06-1.34-1.29-1.57,6.78-2.52,13.22-6.69,17.05-11.17h-14.17v-1.82h16.04l.31-.2,1.48,1.09Zm-4.62-2.18c-2.44-1.29-6.24-2.55-9.21-3.39l.92-1.62c3,.73,6.78,2.07,9.32,3.3l-1.04,1.71Zm.2,8.99c2.8,1.46,6.16,3.56,8.18,5.15l-1.43,1.51c-1.88-1.57-5.35-3.84-8.04-5.26l1.29-1.4Z"/>
    <path d="M550.23,370.2c.84,1.71,1.76,4.4,2.1,6.02l-1.57,.42c-.34-1.62-1.2-4.17-2.04-5.96l1.51-.48Zm16.72,.2c-.06,.25-.34,.31-.59,.28-2.18,8.18-6.3,13.19-13.08,15.93-.22-.34-.73-.98-1.09-1.29,6.69-2.63,10.53-7.22,12.57-15.57l2.18,.64Zm-9.91-1.54c.59,1.88,1.12,4.56,1.32,6.36l-1.65,.31c-.17-1.79-.7-4.37-1.32-6.3l1.65-.36Z"/>
    <path d="M587.35,377.59c-2.86-1.54-6.78-3.36-9.83-4.56v14h-2.1v-24.33l2.83,.17c-.03,.31-.25,.5-.73,.59v8.18l.42-.59c3.28,1.2,7.62,3.14,10.53,4.68l-1.12,1.88Z"/>
  </g>
  <g>
    <rect class="ar" x="313.21" y="91.41" width="74.71" height="64.73"/>
    <path class="ar" d="M387.85,91.63v64.29h-74.56V91.63h74.56m.15-.45h-74.86v65.18h74.86V91.19h0Z"/>
  </g>
  <g class="cd">
    <path d="M338.25,122.28h-7.09l.37,.11c-.02,.13-.19,.24-.43,.26-.56,3.89-2.32,7.76-6.64,9.93-.24-.28-.79-.77-1.16-1.05,4.23-2.11,5.71-5.37,6.21-9.24h-8.21v-1.44h16.95v1.44Zm-3.16-5.87h-11.92v-1.44h11.92v1.44Zm.28-3.16c.88,.92,1.87,2.38,2.36,3.39l-.86,.58c-.45-.99-1.48-2.51-2.34-3.39l.84-.58Zm2.54-.73c.88,.92,1.91,2.38,2.43,3.37l-.88,.54c-.45-.95-1.53-2.47-2.36-3.35l.82-.56Z"/>
    <path d="M341.86,122.07h17.94v1.53h-17.12c-.13,.21-.41,.37-.69,.41l-.13-1.93Z"/>
    <path d="M378.25,117.47c-.02,.11-.13,.19-.26,.24-.79,2.66-1.87,5.11-3.16,7.11,.92,.54,1.98,1.2,2.77,1.78l-.9,1.42c-.77-.6-1.87-1.31-2.77-1.87-1.98,2.75-4.51,4.96-7.76,6.53-.24-.37-.79-.88-1.18-1.12,3.14-1.46,5.65-3.63,7.61-6.19-1.59-.88-3.16-1.63-4.75-2.23l.82-1.2c1.57,.56,3.18,1.29,4.83,2.17,1.12-1.76,2-3.63,2.6-5.69h-7.28c-1.31,2.19-3.07,4.36-4.96,5.91-.28-.26-.86-.73-1.22-.97,2.81-2.15,5.48-6.02,6.77-9.69l2.04,.47c-.09,.24-.3,.3-.58,.28-.3,.71-.79,1.76-1.2,2.56h7.13l.3-.09,1.16,.58Z"/>
  </g>
  <g>
    <rect class="as" x="157.39" y="91.39" width="73.5" height="65.52"/>
    <path class="as" d="M230.81,91.61v65.07h-73.35V91.61h73.35m.15-.45h-73.64v65.97h73.64V91.16h0Z"/>
  </g>
  <g class="cd">
    <path d="M183.99,96.52c-.07,.09-.18,.14-.33,.14-.05,0-.11,0-.18-.02-1.36,1.38-3.32,2.98-5.03,4.21,.14,.05,.35,.16,.42,.19-.04,.11-.19,.21-.39,.23v9.47h-1.29v-9.07c-1.87,1.32-4.3,2.75-6.72,3.93-.18-.28-.49-.72-.74-.97,4.82-2.22,10.09-6,12.93-9.12l1.32,.99Z"/>
    <path d="M186.32,102.15h14.73v1.25h-14.06c-.11,.18-.33,.3-.56,.33l-.11-1.59Z"/>
    <path d="M218.73,100.68h-3.69v1.22c0,3.37-1.04,6.79-5.64,8.87-.23-.28-.6-.64-.92-.88,4.48-1.94,5.31-5.08,5.31-7.97v-1.23h-5.7v4.39h-1.25v-4.39h-3.46v-1.2h3.46v-3.83l1.69,.11c-.02,.18-.18,.34-.44,.37v3.35h5.7v-4.06l1.69,.11c-.02,.16-.16,.3-.44,.33v3.62h3.69v1.2Z"/>
    <path d="M185.29,120.69c-.05,.09-.16,.14-.32,.16-1.13,1.41-2.65,2.93-4.27,4.18l.28,.07c-.04,.09-.16,.23-.39,.25v6.72h-1.25v-6.12c-1.8,1.23-4.13,2.49-6.3,3.35-.09-.12-.67-.85-.81-.99,4.27-1.59,8.33-4.22,10.74-7.04h-8.93v-1.15h10.11l.19-.12,.93,.69Zm-2.91-1.38c-1.54-.81-3.93-1.6-5.8-2.13l.58-1.02c1.89,.46,4.27,1.3,5.87,2.08l-.65,1.08Zm.12,5.66c1.76,.92,3.88,2.24,5.15,3.25l-.9,.95c-1.18-.99-3.37-2.42-5.06-3.32l.81-.88Z"/>
    <path d="M191.24,121.29c.53,1.08,1.11,2.77,1.32,3.79l-.99,.26c-.21-1.02-.76-2.63-1.29-3.76l.95-.3Zm10.53,.12c-.04,.16-.21,.2-.37,.18-1.38,5.15-3.97,8.31-8.24,10.04-.14-.21-.46-.62-.69-.81,4.21-1.66,6.63-4.55,7.92-9.81l1.38,.41Zm-6.24-.97c.37,1.18,.71,2.88,.83,4l-1.04,.19c-.11-1.13-.44-2.75-.83-3.97l1.04-.23Z"/>
    <path d="M214.63,125.95c-1.8-.97-4.27-2.12-6.19-2.88v8.82h-1.32v-15.33l1.78,.11c-.02,.19-.16,.32-.46,.37v5.15l.26-.37c2.06,.76,4.8,1.98,6.63,2.95l-.71,1.18Z"/>
    <path d="M170.44,146.45c1.34-1.41,3.93-4.32,4.94-5.4,.58-.58,1.04-.87,1.57-.87,.6,0,1.01,.32,1.69,.94,2.08,1.89,5.57,5.75,8.33,9.21l-1.06,.97c-2.61-3.44-6.14-7.48-7.9-9.1-.42-.42-.67-.69-1.01-.69-.23,0-.53,.26-.92,.63-.83,.9-3.21,3.67-4.39,4.94,.02,.04,.02,.09,.02,.12,0,.14-.07,.28-.18,.37l-1.09-1.13Z"/>
    <path d="M190.09,142.46c.53,1.08,1.11,2.77,1.32,3.79l-.99,.26c-.21-1.02-.76-2.63-1.29-3.76l.95-.3Zm10.53,.12c-.04,.16-.21,.19-.37,.18-1.38,5.15-3.97,8.31-8.24,10.04-.14-.21-.46-.62-.69-.81,4.22-1.66,6.63-4.55,7.92-9.81l1.38,.41Zm-6.24-.97c.37,1.18,.71,2.88,.83,4l-1.04,.19c-.11-1.13-.44-2.75-.83-3.97l1.04-.23Z"/>
    <path d="M215.67,140.81c-.02,.11-.11,.14-.21,.19-.63,2.13-1.48,4.13-2.56,5.82,.76,.44,1.69,.99,2.35,1.45l-.74,1.15c-.63-.49-1.6-1.08-2.35-1.52-1.62,2.24-3.65,4.04-6.33,5.29-.18-.3-.63-.72-.95-.93,2.58-1.16,4.59-2.88,6.19-4.99-1.3-.72-2.66-1.38-3.95-1.85l.69-.97c1.29,.48,2.66,1.09,4,1.8,.9-1.38,1.64-3.07,2.12-4.67h-5.82c-1.13,1.9-2.52,3.63-3.97,4.81-.21-.21-.71-.6-.99-.79,2.29-1.76,4.32-4.85,5.38-7.87l1.64,.48c-.07,.19-.28,.25-.49,.23-.25,.63-.56,1.32-.9,1.96h5.71l.16-.05,1.02,.48Zm-1.62-3.51c.83,.65,1.82,1.71,2.35,2.47l-.67,.55c-.49-.71-1.54-1.85-2.31-2.47l.63-.55Zm2.26-.65c.83,.65,1.87,1.69,2.4,2.43l-.69,.53c-.48-.72-1.57-1.82-2.33-2.42l.62-.55Z"/>
  </g>
  <g>
    <rect class="aq" x="230.85" y="91.68" width="83.07" height="65.09"/>
    <path class="aq" d="M313.83,91.91v64.64h-82.9V91.91h82.9m.17-.45h-83.23v65.54h83.23V91.46h0Z"/>
  </g>
  <g class="cd">
    <path d="M264.54,98.59h2.08s.01,19.04,.01,19.04h-2.07s-.01-19.04-.01-19.04Z"/>
    <path d="M270.89,98.83c1.1-.2,2.55-.38,4.32-.38,6.15,0,6.65,3.94,6.65,5.44,0,4.47-3.57,6.08-6.94,6.08-.72,0-1.38-.02-1.95-.17v7.82s-2.07,0-2.07,0v-18.79Zm2.07,9.25c.52,.15,1.2,.2,2,.2,3,0,4.82-1.5,4.82-4.23,0-2.72-1.95-3.92-4.55-3.92-1.05,0-1.82,.1-2.28,.2v7.75Z"/>
    <path d="M238.92,139.6c1.9-2,5.57-6.13,6.99-7.65,.83-.83,1.47-1.23,2.22-1.23,.85,0,1.43,.45,2.4,1.32,2.95,2.67,7.9,8.14,11.81,13.04l-1.5,1.38c-3.7-4.87-8.7-10.59-11.21-12.89-.6-.6-.95-.97-1.43-.97-.32,0-.75,.38-1.3,.9-1.17,1.28-4.54,5.2-6.22,7,.03,.05,.03,.12,.03,.17,0,.2-.1,.4-.25,.53l-1.55-1.6Z"/>
    <path d="M266.77,133.93c.75,1.52,1.58,3.92,1.88,5.37l-1.4,.38c-.3-1.45-1.08-3.72-1.83-5.32l1.35-.43Zm14.92,.17c-.05,.22-.3,.28-.53,.25-1.94,7.3-5.62,11.77-11.66,14.23-.2-.3-.65-.87-.98-1.15,5.97-2.35,9.39-6.45,11.21-13.9l1.95,.57Zm-8.85-1.37c.53,1.67,1,4.07,1.18,5.67l-1.47,.28c-.15-1.6-.63-3.9-1.18-5.62l1.47-.33Z"/>
    <path d="M303.01,131.56c-.02,.15-.15,.2-.3,.28-.9,3.02-2.1,5.85-3.62,8.25,1.08,.62,2.4,1.4,3.33,2.05l-1.05,1.63c-.9-.7-2.28-1.52-3.33-2.15-2.3,3.17-5.17,5.73-8.97,7.5-.25-.42-.9-1.03-1.35-1.33,3.65-1.65,6.5-4.08,8.77-7.08-1.85-1.02-3.78-1.95-5.6-2.62l.97-1.38c1.82,.67,3.78,1.55,5.67,2.55,1.27-1.95,2.32-4.35,3-6.63h-8.25c-1.6,2.71-3.57,5.16-5.62,6.83-.3-.3-1-.85-1.4-1.12,3.25-2.5,6.12-6.88,7.62-11.15l2.33,.67c-.1,.27-.4,.35-.7,.33-.35,.9-.8,1.88-1.27,2.78h8.1s.22-.08,.22-.08l1.45,.67Zm-2.3-4.97c1.17,.92,2.58,2.42,3.33,3.5l-.95,.77c-.7-1-2.18-2.62-3.28-3.5l.9-.78Zm3.2-.93c1.18,.92,2.65,2.4,3.4,3.45l-.97,.75c-.68-1.02-2.23-2.57-3.3-3.42l.87-.77Z"/>
  </g>
  <g>
    <rect class="ar" x="574.3" y="91.36" width="74.71" height="64.73"/>
    <path class="ar" d="M648.94,91.59v64.29h-74.56V91.59h74.56m.15-.45h-74.86v65.18h74.86V91.14h0Z"/>
  </g>
  <g class="cd">
    <path d="M599.34,122.24h-7.09l.37,.11c-.02,.13-.19,.24-.43,.26-.56,3.89-2.32,7.76-6.64,9.93-.24-.28-.79-.77-1.16-1.05,4.23-2.11,5.71-5.37,6.21-9.24h-8.21v-1.44h16.95v1.44Zm-3.16-5.87h-11.92v-1.44h11.92v1.44Zm.28-3.16c.88,.92,1.87,2.38,2.36,3.39l-.86,.58c-.45-.99-1.48-2.51-2.34-3.39l.84-.58Zm2.54-.73c.88,.92,1.91,2.38,2.43,3.37l-.88,.54c-.45-.95-1.53-2.47-2.36-3.35l.82-.56Z"/>
    <path d="M602.95,122.02h17.94v1.53h-17.12c-.13,.21-.41,.37-.69,.41l-.13-1.93Z"/>
    <path d="M639.34,117.42c-.02,.11-.13,.19-.26,.24-.79,2.66-1.87,5.11-3.16,7.11,.92,.54,1.98,1.2,2.77,1.78l-.9,1.42c-.77-.6-1.87-1.31-2.77-1.87-1.98,2.75-4.51,4.96-7.76,6.53-.24-.37-.79-.88-1.18-1.12,3.14-1.46,5.65-3.63,7.61-6.19-1.59-.88-3.16-1.63-4.75-2.23l.82-1.2c1.57,.56,3.18,1.29,4.83,2.17,1.12-1.76,2-3.63,2.6-5.69h-7.28c-1.31,2.19-3.07,4.36-4.96,5.91-.28-.26-.86-.73-1.22-.97,2.81-2.15,5.48-6.02,6.77-9.69l2.04,.47c-.09,.24-.3,.3-.58,.28-.3,.71-.79,1.76-1.2,2.56h7.13l.3-.09,1.16,.58Z"/>
  </g>
  <g>
    <rect class="as" x="418.47" y="91.34" width="73.5" height="65.52"/>
    <path class="as" d="M491.9,91.57v65.07h-73.35V91.57h73.35m.15-.45h-73.64v65.97h73.64V91.12h0Z"/>
  </g>
  <g class="cd">
    <path d="M445.07,96.47c-.07,.09-.18,.14-.33,.14-.05,0-.11,0-.18-.02-1.36,1.38-3.32,2.98-5.03,4.22,.14,.05,.35,.16,.42,.19-.04,.11-.19,.21-.39,.23v9.47h-1.29v-9.07c-1.87,1.32-4.3,2.75-6.72,3.93-.18-.28-.49-.72-.74-.97,4.82-2.22,10.09-6,12.93-9.12l1.32,.99Z"/>
    <path d="M447.41,102.1h14.73v1.25h-14.06c-.11,.18-.33,.3-.56,.33l-.11-1.59Z"/>
    <path d="M479.81,100.64h-3.69v1.22c0,3.37-1.04,6.79-5.64,8.87-.23-.28-.6-.63-.92-.88,4.48-1.94,5.31-5.08,5.31-7.97v-1.23h-5.7v4.39h-1.25v-4.39h-3.46v-1.2h3.46v-3.83l1.69,.11c-.02,.18-.18,.33-.44,.37v3.35h5.7v-4.06l1.69,.11c-.02,.16-.16,.3-.44,.33v3.62h3.69v1.2Z"/>
    <path d="M446.38,120.64c-.05,.09-.16,.14-.32,.16-1.13,1.41-2.65,2.93-4.27,4.18l.28,.07c-.04,.09-.16,.23-.39,.25v6.72h-1.25v-6.12c-1.8,1.23-4.13,2.49-6.3,3.35-.09-.12-.67-.85-.81-.99,4.27-1.59,8.33-4.22,10.74-7.04h-8.93v-1.15h10.11l.19-.12,.93,.69Zm-2.91-1.38c-1.54-.81-3.93-1.61-5.8-2.13l.58-1.02c1.89,.46,4.27,1.3,5.87,2.08l-.65,1.08Zm.12,5.66c1.76,.92,3.88,2.24,5.15,3.25l-.9,.95c-1.18-.99-3.37-2.42-5.06-3.32l.81-.88Z"/>
    <path d="M452.33,121.24c.53,1.08,1.11,2.77,1.32,3.79l-.99,.26c-.21-1.02-.76-2.63-1.29-3.76l.95-.3Zm10.53,.12c-.04,.16-.21,.19-.37,.18-1.38,5.15-3.97,8.31-8.24,10.04-.14-.21-.46-.62-.69-.81,4.21-1.66,6.63-4.55,7.92-9.81l1.38,.41Zm-6.24-.97c.37,1.18,.71,2.88,.83,4l-1.04,.19c-.11-1.13-.44-2.75-.83-3.97l1.04-.23Z"/>
    <path d="M475.72,125.9c-1.8-.97-4.27-2.12-6.19-2.88v8.82h-1.32v-15.33l1.78,.11c-.02,.19-.16,.32-.46,.37v5.15l.26-.37c2.06,.76,4.8,1.98,6.63,2.95l-.71,1.18Z"/>
    <path d="M431.53,146.4c1.34-1.41,3.93-4.32,4.94-5.4,.58-.58,1.04-.87,1.57-.87,.6,0,1.01,.32,1.69,.94,2.08,1.89,5.57,5.75,8.33,9.21l-1.06,.97c-2.61-3.44-6.14-7.48-7.9-9.1-.42-.42-.67-.69-1.01-.69-.23,0-.53,.26-.92,.63-.83,.9-3.21,3.67-4.39,4.94,.02,.04,.02,.09,.02,.12,0,.14-.07,.28-.18,.37l-1.09-1.13Z"/>
    <path d="M451.18,142.42c.53,1.08,1.11,2.77,1.32,3.79l-.99,.26c-.21-1.02-.76-2.63-1.29-3.76l.95-.3Zm10.53,.12c-.04,.16-.21,.19-.37,.18-1.38,5.15-3.97,8.31-8.24,10.04-.14-.21-.46-.62-.69-.81,4.22-1.66,6.63-4.55,7.92-9.81l1.38,.41Zm-6.24-.97c.37,1.18,.71,2.88,.83,4l-1.04,.19c-.11-1.13-.44-2.75-.83-3.97l1.04-.23Z"/>
    <path d="M476.76,140.76c-.02,.11-.11,.14-.21,.19-.63,2.13-1.48,4.13-2.56,5.82,.76,.44,1.69,.99,2.35,1.45l-.74,1.15c-.63-.49-1.6-1.08-2.35-1.52-1.62,2.24-3.65,4.04-6.33,5.29-.18-.3-.63-.72-.95-.94,2.58-1.16,4.59-2.88,6.19-4.99-1.3-.72-2.66-1.38-3.95-1.85l.69-.97c1.29,.48,2.66,1.09,4,1.8,.9-1.38,1.64-3.07,2.12-4.67h-5.82c-1.13,1.91-2.52,3.63-3.97,4.82-.21-.21-.71-.6-.99-.79,2.29-1.76,4.32-4.85,5.38-7.87l1.64,.48c-.07,.19-.28,.25-.49,.23-.25,.63-.56,1.32-.9,1.96h5.71l.16-.05,1.02,.48Zm-1.62-3.51c.83,.65,1.82,1.71,2.35,2.47l-.67,.55c-.49-.71-1.54-1.85-2.31-2.47l.63-.55Zm2.26-.65c.83,.65,1.87,1.69,2.4,2.43l-.69,.53c-.48-.72-1.57-1.82-2.33-2.42l.62-.55Z"/>
  </g>
  <g>
    <rect class="aq" x="491.94" y="91.64" width="83.07" height="65.09"/>
    <path class="aq" d="M574.92,91.86v64.64h-82.9V91.86h82.9m.17-.45h-83.23v65.54h83.23V91.41h0Z"/>
  </g>
  <g class="cd">
    <path d="M525.63,98.54h2.08s.01,19.04,.01,19.04h-2.07s-.01-19.04-.01-19.04Z"/>
    <path d="M531.98,98.79c1.1-.2,2.55-.38,4.32-.38,6.15,0,6.65,3.94,6.65,5.44,0,4.47-3.57,6.08-6.94,6.08-.72,0-1.38-.02-1.95-.17v7.82s-2.07,0-2.07,0v-18.79Zm2.07,9.25c.52,.15,1.2,.2,2,.2,3,0,4.82-1.5,4.82-4.23,0-2.72-1.95-3.92-4.55-3.92-1.05,0-1.82,.1-2.28,.2v7.75Z"/>
    <path d="M500.01,139.55c1.9-2,5.57-6.13,6.99-7.65,.83-.83,1.47-1.23,2.22-1.23,.85,0,1.43,.45,2.4,1.32,2.95,2.67,7.9,8.14,11.81,13.04l-1.5,1.38c-3.7-4.87-8.7-10.59-11.21-12.89-.6-.6-.95-.97-1.43-.97-.32,0-.75,.38-1.3,.9-1.17,1.28-4.54,5.2-6.22,7,.03,.05,.03,.12,.03,.17,0,.2-.1,.4-.25,.53l-1.55-1.6Z"/>
    <path d="M527.85,133.89c.75,1.52,1.58,3.92,1.88,5.37l-1.4,.38c-.3-1.45-1.08-3.72-1.83-5.32l1.35-.43Zm14.92,.17c-.05,.22-.3,.28-.53,.25-1.94,7.3-5.62,11.77-11.66,14.23-.2-.3-.65-.87-.98-1.15,5.97-2.35,9.39-6.45,11.21-13.9l1.95,.57Zm-8.85-1.37c.53,1.67,1,4.07,1.18,5.67l-1.47,.28c-.15-1.6-.63-3.9-1.18-5.62l1.47-.33Z"/>
    <path d="M564.1,131.51c-.02,.15-.15,.2-.3,.28-.9,3.02-2.1,5.85-3.62,8.25,1.08,.62,2.4,1.4,3.33,2.05l-1.05,1.63c-.9-.7-2.28-1.52-3.33-2.15-2.3,3.17-5.17,5.73-8.97,7.5-.25-.42-.9-1.03-1.35-1.33,3.65-1.65,6.5-4.08,8.77-7.08-1.85-1.02-3.78-1.95-5.6-2.62l.97-1.38c1.82,.67,3.78,1.55,5.67,2.55,1.27-1.95,2.32-4.35,3-6.63h-8.25c-1.6,2.71-3.57,5.16-5.62,6.83-.3-.3-1-.85-1.4-1.12,3.25-2.5,6.12-6.88,7.62-11.15l2.33,.67c-.1,.27-.4,.35-.7,.33-.35,.9-.8,1.88-1.27,2.78h8.1s.22-.08,.22-.08l1.45,.67Zm-2.3-4.97c1.17,.92,2.58,2.42,3.33,3.5l-.95,.77c-.7-1-2.18-2.62-3.28-3.5l.9-.78Zm3.2-.93c1.18,.92,2.65,2.4,3.4,3.45l-.97,.75c-.68-1.02-2.23-2.57-3.3-3.42l.87-.77Z"/>
  </g>
  <g class="cd">
    <path d="M31.42,464.73h4.45c.11-.76,.22-1.6,.34-2.46h-11.48v-1.76h11.68c.08-.98,.17-1.93,.2-2.74l2.58,.25c-.08,.2-.28,.34-.64,.39-.06,.64-.11,1.34-.2,2.1h11.31v1.76h-11.54c-.11,.87-.22,1.71-.36,2.46h8.65v13.27h-14.98v-13.27Zm18.42,15.85v1.76H28.12v1.54h-1.88v-18.34l2.44,.14c-.03,.2-.2,.34-.56,.39v14.5h21.73Zm-5.32-11.9v-2.46h-11.31v2.46h11.31Zm0,3.92v-2.52h-11.31v2.52h11.31Zm0,3.95v-2.55h-11.31v2.55h11.31Z"/>
    <path d="M61.55,472.13l-3.5,1.06v8.34c0,2.21-1.09,2.35-4.84,2.35-.05-.5-.31-1.29-.59-1.82,.62,.03,1.18,.03,1.68,.03,1.96,0,1.96-.03,1.96-.59v-7.78c-1.23,.36-2.32,.67-3.22,.92,0,.25-.17,.36-.36,.45l-.67-2.18c1.18-.28,2.66-.64,4.26-1.06v-6.38h-3.98v-1.76h3.98v-5.85l2.35,.14c-.03,.22-.17,.34-.56,.39v5.32h3.42v1.76h-3.42v5.91c1.09-.28,2.18-.59,3.3-.9l.2,1.65Zm16.63-2.24h-8.88c-.08,.2-.25,.28-.59,.25-.36,.81-.78,1.76-1.26,2.72h10.45v1.65h-3.47c-.59,2.1-1.54,3.78-2.94,5.12,2.21,.92,4.2,1.93,5.57,2.88l-1.23,1.48c-1.4-1.01-3.5-2.13-5.85-3.14-2.18,1.46-5.18,2.41-9.24,2.97-.17-.5-.5-1.18-.81-1.57,3.47-.39,6.13-1.09,8.12-2.18-1.2-.48-2.41-.87-3.56-1.23l-.39,.73-1.65-.56c.67-1.2,1.48-2.83,2.27-4.51h-4.03v-1.65h4.79c.48-1.04,.92-2.04,1.32-2.97h-6.38v-1.65h17.78v1.65Zm-1.18-8.88v1.65h-15.29v-1.65h6.5v-3.16l2.44,.14c-.03,.2-.17,.34-.53,.39v2.63h6.89Zm-11.03,1.99c.56,1.51,1.04,3.44,1.12,4.62l-1.76,.42c-.08-1.2-.5-3.16-1.04-4.68l1.68-.36Zm.7,11.51c-.48,1.01-.98,2.02-1.46,2.94,1.43,.42,2.97,.92,4.48,1.48,1.32-1.15,2.21-2.6,2.8-4.42h-5.82Zm8.26-11.2c-.06,.2-.25,.28-.59,.31-.45,1.32-1.15,3.3-1.82,4.59l-1.57-.42c.62-1.37,1.32-3.53,1.68-4.98l2.3,.5Z"/>
    <path d="M89.55,472.13l-3.5,1.06v8.34c0,2.21-1.09,2.35-4.84,2.35-.05-.5-.31-1.29-.59-1.82,.62,.03,1.18,.03,1.68,.03,1.96,0,1.96-.03,1.96-.59v-7.78c-1.23,.36-2.32,.67-3.22,.92,0,.25-.17,.36-.36,.45l-.67-2.18c1.18-.28,2.66-.64,4.26-1.06v-6.38h-3.98v-1.76h3.98v-5.85l2.35,.14c-.03,.22-.17,.34-.56,.39v5.32h3.42v1.76h-3.42v5.91c1.09-.28,2.18-.59,3.3-.9l.2,1.65Zm16.63-2.24h-8.88c-.08,.2-.25,.28-.59,.25-.36,.81-.78,1.76-1.26,2.72h10.45v1.65h-3.47c-.59,2.1-1.54,3.78-2.94,5.12,2.21,.92,4.2,1.93,5.57,2.88l-1.23,1.48c-1.4-1.01-3.5-2.13-5.85-3.14-2.18,1.46-5.18,2.41-9.24,2.97-.17-.5-.5-1.18-.81-1.57,3.47-.39,6.13-1.09,8.12-2.18-1.2-.48-2.41-.87-3.56-1.23l-.39,.73-1.65-.56c.67-1.2,1.48-2.83,2.27-4.51h-4.03v-1.65h4.79c.48-1.04,.92-2.04,1.32-2.97h-6.38v-1.65h17.78v1.65Zm-1.18-8.88v1.65h-15.29v-1.65h6.5v-3.16l2.44,.14c-.03,.2-.17,.34-.53,.39v2.63h6.89Zm-11.03,1.99c.56,1.51,1.04,3.44,1.12,4.62l-1.76,.42c-.08-1.2-.5-3.16-1.04-4.68l1.68-.36Zm.7,11.51c-.48,1.01-.98,2.02-1.46,2.94,1.43,.42,2.97,.92,4.48,1.48,1.32-1.15,2.21-2.6,2.8-4.42h-5.82Zm8.26-11.2c-.06,.2-.25,.28-.59,.31-.45,1.32-1.15,3.3-1.82,4.59l-1.57-.42c.62-1.37,1.32-3.53,1.68-4.98l2.3,.5Z"/>
    <path d="M117.13,473.47c-.14-.5-.34-1.09-.59-1.74l-2.24,.14v11.98h-1.68v-11.9c-1.51,.06-2.86,.11-3.92,.17-.05,.2-.22,.31-.42,.36l-.5-2.1h1.9c.62-.78,1.29-1.68,1.96-2.63-.84-1.29-2.3-2.97-3.61-4.2,.62-.59,.81-.9,1.01-1.2,.31,.28,.62,.56,.92,.87,.92-1.62,1.93-3.81,2.55-5.38l1.99,.84c-.11,.2-.34,.25-.59,.22-.73,1.6-1.9,3.84-2.91,5.4,.62,.67,1.2,1.37,1.62,1.99,1.15-1.82,2.27-3.7,3.05-5.26l1.96,.92c-.08,.14-.31,.25-.62,.25-1.4,2.38-3.64,5.71-5.57,8.15l4.42-.08c-.45-.95-1.01-1.93-1.54-2.77l1.4-.59c1.23,1.85,2.46,4.28,2.88,5.85l-1.48,.7Zm-5.57,1.01c-.06,.2-.2,.31-.5,.31-.36,2.35-.98,5.04-1.79,6.69-.34-.22-.98-.5-1.4-.7,.79-1.57,1.34-4.26,1.68-6.8l2.02,.5Zm5.29-.56c.78,1.71,1.51,3.95,1.76,5.4l-1.51,.5c-.25-1.48-.95-3.75-1.68-5.46l1.43-.45Zm7.84-1.34c0,.22-.17,.34-.5,.39-.31,5.54-2.04,9.27-6.19,10.98-.28-.39-.81-1.04-1.18-1.34,3.86-1.51,5.38-4.84,5.52-10.16l2.35,.14Zm.59-7.64v-2.72h-6.72v-1.62h6.72v-2.77l2.41,.14c-.03,.2-.17,.34-.56,.39v2.24h6.83v1.62h-6.83v2.72h5.68v1.62h-13.19v-1.62h5.66Zm8.54,8.93h-1.74v-3.61h-11.56v3.61h-1.68v-5.18h14.98v5.18Zm-4.68,7.36c0,.67,.08,.78,.7,.78h1.85c.59,0,.7-.45,.76-3.5,.36,.34,1.09,.62,1.57,.76-.14,3.5-.62,4.4-2.13,4.4h-2.3c-1.76,0-2.18-.53-2.18-2.44v-8.85l2.27,.17c-.03,.17-.17,.31-.53,.36v8.32Z"/>
    <path d="M159.61,464.29c-2.55,.73-5.96,1.23-9.32,1.54,1.09,3.81,2.27,6.08,5.29,7.39l-1.37,1.71c-1.29-.98-2.6-1.74-6.24-1.93l-.34-1.65c1.37,.11,2.41,.28,3.11,.42-.98-1.18-1.74-2.97-2.49-5.8-1.26,.11-2.97,.17-4.65,.17-1.82,0-4.79-.03-6.58-.08v-1.9c1.68,.08,4.06,.08,6.61,.08,1.43,0,3.05-.03,4.17-.14-.34-1.51-.64-3.58-.98-5.74l3,.06c-.03,.34-.28,.53-.73,.64,.17,1.6,.45,3.36,.76,4.9,3.22-.28,6.86-.87,9.32-1.65l.45,1.99Zm-5.01,18.42c-1.34,.06-2.77,.08-5.21,.08-5.85,0-10-1.79-10-5.54,0-1.6,.98-3.22,2.52-4.7l1.51,1.2c-1.26,1.01-2.02,2.38-2.02,3.44,0,2.77,3.58,3.67,8.04,3.67,2.44,0,3.86-.06,5.29-.14l-.14,1.99Z"/>
    <path d="M163.19,464.26c2.27,0,4.34-.2,5.26-.42,.06-1.68,.08-2.6,.2-5.15l2.88,.22c-.06,.31-.31,.5-.78,.56-.11,1.23-.22,2.97-.28,4l.87,.34c-.67,1.34-.95,3-1.12,4,3.08-2.88,6.5-4.93,8.82-4.93,2.63,0,3.95,1.85,3.95,5.1,0,.36-.03,.73-.06,1.09-.2,2.46-.48,5.96-.48,8.2,0,1.68,.2,2.58,1.37,2.58,.84,0,2.52-.84,3.72-1.88,.06,.56,.28,1.71,.39,2.13-1.43,1.04-3.11,1.82-4.4,1.82-2.35,0-3.14-1.4-3.14-4.31,0-1.46,.5-9.16,.5-9.18,0-2.44-.84-3.53-2.21-3.53-2.1,0-5.63,2.27-8.54,5.35,0,4.06,0,9.04,.03,12.85h-1.96c.03-1.62,0-9.6,.03-11.4-.98,1.96-2.88,4.51-5.1,6.75l-1.01-1.76c2.32-2.18,4.93-5.57,6.16-8.46,0-.81,.03-1.57,.06-2.46-.98,.22-3.02,.45-5.15,.48l-.03-1.99Z"/>
    <path d="M207.18,463.98c-2.38,.84-5.54,1.37-8.6,1.6-1.18,6.41-2.88,12.8-5.12,17.5l-2.02-.76c2.3-4.51,3.98-10.3,5.07-16.66-.56,.03-4.31,.06-5.15,.03l-.03-1.9c.45,.03,1.04,.03,1.68,.03,.25,0,3.05,0,3.78-.03,.28-1.79,.56-3.75,.73-5.46l2.88,.28c-.03,.31-.42,.53-.81,.56-.17,1.23-.45,2.74-.7,4.45,2.74-.25,5.52-.73,7.84-1.57l.45,1.93Zm7.45,18.65c-.84,.03-1.71,.06-2.58,.06-2.63,0-5.12-.2-6.64-.62-1.99-.56-3.14-2.02-3.11-3.86,.03-1.23,.56-2.63,1.74-4.06l1.68,.73c-.98,1.15-1.46,2.24-1.46,3.11,0,2.21,2.13,2.77,7.22,2.77,1.04,0,2.1-.03,3.14-.11v1.99Zm-10.92-13.5c2.88-.92,6.86-1.51,10.16-1.43v1.9c-3.16-.08-6.83,.36-9.69,1.26l-.48-1.74Z"/>
    <path d="M223.64,468.07c.73,1.04,2.69,4.14,3.11,4.9l-1.01,1.4c-.36-.9-1.32-2.72-2.1-4.12v13.55h-1.74v-13.64c-.9,3.19-2.07,6.27-3.3,8.18-.22-.48-.67-1.18-.95-1.57,1.62-2.41,3.28-7.03,4.03-10.98h-3.47v-1.74h3.7v-6.24l2.27,.17c-.03,.17-.17,.31-.53,.36v5.71h3.05v1.74h-3.05v2.27Zm13.1,5.85c.31,1.57,.67,2.97,1.09,4.14,1.01-1.09,1.82-2.3,2.38-3.58l1.96,.67c-.06,.17-.22,.25-.5,.25-.76,1.54-1.82,2.97-3.16,4.26,.84,1.65,1.82,2.58,3,2.58,.84,0,1.15-.7,1.32-3.36,.36,.39,.92,.76,1.32,.9-.34,3.19-.95,4.14-2.77,4.14-1.74-.03-3.08-1.15-4.14-3.11-1.48,1.15-3.19,2.18-5.1,2.97-.22-.34-.7-.92-1.04-1.23,2.07-.81,3.92-1.9,5.43-3.22-.59-1.48-1.06-3.33-1.46-5.4h-4.71c-.05,.59-.11,1.18-.2,1.76,1.46,.87,3.16,2.02,4.06,2.83l-1.06,1.32c-.73-.7-2.02-1.65-3.28-2.49-.56,2.52-1.57,4.87-3.72,6.44-.25-.39-.76-.95-1.15-1.23,2.6-1.85,3.39-5.15,3.67-8.62h-1.9v-1.57h8.04c-.64-4.17-.92-9.16-.95-14.5l2.27,.14c-.03,.2-.17,.34-.56,.39-.03,5.18,.28,10.02,.92,13.97h4.14c-.73-.59-1.74-1.29-2.63-1.76l.92-.92c1.09,.56,2.44,1.4,3.11,2.04l-.59,.64h2.27v1.57h-6.97Zm-10.36-5.38l.98-.06c.64-.81,1.32-1.82,1.99-2.88-.73-.92-1.99-2.07-3.05-2.91l.81-1.01c.22,.17,.45,.34,.7,.5,.64-1.23,1.4-2.88,1.79-4.06l1.79,.78c-.08,.17-.28,.22-.56,.22-.5,1.09-1.34,2.72-2.07,3.86,.5,.45,.98,.92,1.34,1.34,.7-1.2,1.37-2.41,1.85-3.42l1.74,.87c-.08,.14-.31,.22-.59,.22-1.04,1.85-2.66,4.42-4.09,6.38l3.05-.2c-.25-.64-.56-1.32-.87-1.88l1.2-.45c.78,1.29,1.48,3,1.68,4.09l-1.29,.56c-.06-.31-.14-.67-.25-1.06-2.02,.22-3.89,.42-5.21,.53-.03,.2-.17,.31-.34,.36l-.62-1.82Zm10.72-.34c.56-.73,1.18-1.65,1.79-2.6-.73-.92-1.99-2.07-3.05-2.91l.81-1.01,.67,.5c.67-1.23,1.43-2.88,1.82-4.06l1.79,.78c-.08,.17-.28,.22-.56,.22-.5,1.09-1.34,2.69-2.1,3.84,.53,.48,1.01,.95,1.37,1.37,.73-1.2,1.37-2.41,1.85-3.42l1.71,.87c-.06,.14-.28,.22-.56,.22-1.01,1.76-2.55,4.23-3.92,6.1,1.04-.06,2.13-.11,3.3-.2-.28-.62-.59-1.2-.9-1.74l1.2-.48c.78,1.29,1.6,2.97,1.82,4.06l-1.26,.62c-.08-.36-.22-.81-.39-1.29-2.04,.25-4,.45-5.32,.56-.03,.22-.2,.34-.39,.36l-.62-1.76,.92-.06Z"/>
    <path d="M271.61,470.84h-8.18c2.21,2.04,5.63,3.72,8.96,4.54-.42,.39-.92,1.06-1.21,1.54-.67-.2-1.32-.39-1.99-.64v7.56h-1.74v-1.01h-5.52v1.12h-1.68v-9.24h5.63c-1.88-1.06-3.56-2.41-4.82-3.86h-4.37c-1.34,1.48-3,2.77-4.93,3.86h5.71v9.13h-1.76v-1.01h-5.4v1.12h-1.68v-7.73c-.62,.25-1.23,.5-1.88,.73-.22-.39-.81-1.09-1.18-1.4,3.42-1.15,6.36-2.72,8.57-4.7h-7.95v-1.71h9.58c.59-.7,1.06-1.46,1.48-2.24h-9.02v-7.76h9.1v7.59l.25-.56,2.24,.64c-.06,.17-.28,.28-.64,.31-.34,.7-.7,1.37-1.15,2.02h13.55v1.71Zm-16.07-5.52v-4.62h-5.54v4.62h5.54Zm.2,15.85v-4.82h-5.4v4.82h5.4Zm13.97-22.04v7.76h-9.16v-7.76h9.16Zm-7.76,22.04h5.52v-4.82h-5.52v4.82Zm5.94-15.85v-4.62h-5.6v4.62h5.6Z"/>
    <path d="M298.66,459.33v22.06c0,2.41-1.23,2.49-5.82,2.49-.11-.5-.39-1.34-.7-1.85,1.09,.03,2.1,.06,2.86,.06,1.62,0,1.82,0,1.82-.7v-20.27h-19.71v22.79h-1.82v-24.58h23.38Zm-4.45,4.93v1.65h-14.45v-1.65h14.45Zm-1.62,13.69h-9.6v2.13h-1.76v-11.06h11.37v8.93Zm-1.79-7.28h-7.81v5.66h7.81v-5.66Z"/>
    <path d="M327.61,468.88h-11.79v11.76h10.28v1.88h-22.26v-1.88h10.02v-11.76h-11.62v-1.88h11.62v-9.07l2.55,.17c-.03,.2-.2,.34-.59,.39v8.51h11.79v1.88Z"/>
    <path d="M344.52,462.94c-.11,.25-.34,.45-.7,.45-1.01,8.71-3.92,16.3-8.57,16.3-2.35,0-4.48-2.35-4.48-6.78,0-6.72,5.24-12.35,12.6-12.35,8.09,0,11.59,5.12,11.59,10.58,0,6.66-3.86,9.88-10.64,11.45-.25-.45-.73-1.2-1.18-1.71,6.44-1.23,9.74-4.37,9.74-9.66,0-4.62-2.97-8.82-9.52-8.82-.28,0-.59,.03-.84,.06l1.99,.48Zm-2.69-.36c-5.66,.7-9.16,5.38-9.16,10.28,0,3,1.29,4.87,2.63,4.87,3.39,0,5.82-7.48,6.52-15.15Z"/>
    <path d="M363.98,469.05v9.21c2.16,3.33,6.13,3.33,11.45,3.33,3.05,0,6.64-.06,8.82-.2-.22,.42-.5,1.29-.62,1.85-1.9,.06-4.93,.11-7.73,.11-6.13,0-9.97,0-12.74-3.5-1.48,1.29-3.02,2.52-4.28,3.47,0,.25-.06,.36-.25,.45l-1.06-2.02c1.37-.9,3.08-2.13,4.59-3.36v-7.56h-4.23v-1.79h6.05Zm-4.23-10.56c1.82,1.29,3.92,3.22,4.82,4.65l-1.4,1.29c-.9-1.43-2.94-3.44-4.76-4.79l1.34-1.15Zm15.74,6.47c-1.76-.87-3.92-1.82-5.74-2.49l1.23-1.09c1.23,.45,2.66,1.01,4.03,1.62,1.48-.67,3.05-1.54,4.26-2.41h-12.26v-1.54h14.2l.31-.08,1.43,.92c-.08,.11-.28,.2-.45,.22-1.43,1.23-3.58,2.63-5.74,3.67,.87,.39,1.65,.81,2.3,1.18h3.61v12.74c0,1.85-.59,2.04-4.76,2.04-.08-.5-.31-1.15-.53-1.6,.81,.03,1.6,.06,2.16,.06,1.21,0,1.34,0,1.34-.5v-2.86h-5.26v4.73h-1.71v-4.73h-5.07v4.84h-1.79v-14.73h8.46Zm-1.6,1.51h-5.07v2.66h5.07v-2.66Zm-5.07,6.89h5.07v-2.77h-5.07v2.77Zm12.04-4.23v-2.66h-5.26v2.66h5.26Zm-5.26,4.23h5.26v-2.77h-5.26v2.77Z"/>
    <path d="M389.68,467.73c-1.06,1.76-2.24,3.33-3.42,4.68-.2-.45-.67-1.32-.98-1.76,2.69-2.91,5.38-7.76,7-12.6l2.24,.76c-.11,.2-.31,.28-.64,.25-.73,1.96-1.6,3.92-2.58,5.8l.76,.2c-.06,.17-.2,.31-.56,.34v18.56h-1.82v-16.21Zm3.75-4.59h18.48v1.6h-18.48v-1.6Zm2.07,20.72v-8.99h14.48v8.9h-1.9v-1.32h-10.75v1.4h-1.82Zm14.22-16.8v1.57h-13.94v-1.57h13.94Zm-13.94,5.49v-1.57h13.92v1.57h-13.92Zm13.44-13.33v1.57h-13.13v-1.57h13.13Zm-1.15,17.22h-10.75v4.45h10.75v-4.45Z"/>
    <path d="M428.52,462.94c-.11,.25-.34,.45-.7,.45-1.01,8.71-3.92,16.3-8.57,16.3-2.35,0-4.48-2.35-4.48-6.78,0-6.72,5.24-12.35,12.6-12.35,8.09,0,11.59,5.12,11.59,10.58,0,6.66-3.86,9.88-10.64,11.45-.25-.45-.73-1.2-1.18-1.71,6.44-1.23,9.74-4.37,9.74-9.66,0-4.62-2.97-8.82-9.52-8.82-.28,0-.59,.03-.84,.06l1.99,.48Zm-2.69-.36c-5.66,.7-9.16,5.38-9.16,10.28,0,3,1.29,4.87,2.63,4.87,3.39,0,5.82-7.48,6.52-15.15Z"/>
    <path d="M467.44,476.35h-10.44c2.02,3.19,5.77,5.12,10.78,5.85-.39,.42-.9,1.18-1.15,1.68-5.54-1.04-9.49-3.42-11.62-7.53h-.42c-1.43,2.86-4.56,5.52-11.23,7.53-.22-.42-.76-1.15-1.15-1.54,5.85-1.65,8.76-3.75,10.22-5.99h-10v-1.65h10.84c.31-.87,.45-1.74,.53-2.58h-7.92v-1.62h7.98v-2.41h-8.74v-1.6h8.74v-2.8l2.44,.17c-.03,.2-.17,.34-.53,.39v2.24h8.93v-3.56h-19.66v3.7h-1.85v-5.38h10.67v-3.44l2.49,.17c-.03,.2-.2,.34-.56,.36v2.91h10.84v5.38h-1.79v1.46h-9.07v2.41h8.43v1.62h-8.48c-.08,.87-.2,1.71-.48,2.58h12.21v1.65Z"/>
    <path d="M480.04,474.67l.22,1.62c-3.44,1.06-7.11,2.16-9.41,2.8-.03,.22-.17,.39-.34,.45l-.87-2.07c1.23-.31,2.8-.7,4.54-1.18v-7.22h-3.7v-1.74h3.7v-6.27h-4.06v-1.76h9.72v1.76h-3.84v6.27h3.61v1.74h-3.61v6.72l4.03-1.12Zm5.88,.95c-.06,.17-.22,.34-.56,.36-.7,3.61-2.16,6.36-7.56,7.87-.2-.45-.73-1.23-1.09-1.57,4.96-1.18,6.36-3.47,6.86-6.92l2.35,.25Zm4.62,5.57c0,.67,.11,.81,.87,.81h2.41c.67,0,.81-.45,.87-3.39,.39,.31,1.12,.62,1.62,.73-.17,3.44-.64,4.28-2.3,4.28h-2.88c-1.93,0-2.41-.53-2.41-2.44v-6.5h-7.5v-15.6h13.24v15.6h-3.92v6.5Zm-7.53-20.47v3.05h9.6v-3.05h-9.6Zm0,4.59v3.08h9.6v-3.08h-9.6Zm0,4.65v3.11h9.6v-3.11h-9.6Z"/>
    <path d="M23.14,484.98v-1.4H496.9v1.4H23.14Z"/>
  </g>
</svg>