<?xml version="1.0" encoding="UTF-8"?>
<svg id="a" data-name="レイヤー 1" xmlns="http://www.w3.org/2000/svg" viewBox="0 0 1025 769">
  <defs>
    <style>
      .b {
        fill: none;
        stroke: #000;
        stroke-miterlimit: 10;
        stroke-width: 2px;
      }

      .c {
        isolation: isolate;
      }
    </style>
  </defs>
  <g class="c">
    <path d="M278.82,413.84h-4.5v13.82h-1.66v-13.82h-4.48v-1.4h10.64v1.4Z"/>
    <path d="M290.48,427.21c-.7,.34-2.06,.68-3.8,.68-3.92,0-7.08-2.54-7.08-7.7s3.06-7.98,7.52-7.98c1.82,0,2.88,.38,3.36,.62l-.44,1.4c-.7-.34-1.68-.62-2.88-.62-3.46,0-5.82,2.32-5.82,6.52s2.16,6.36,5.72,6.36c1.16,0,2.3-.26,3.06-.62l.36,1.34Z"/>
    <path d="M292.9,412.62c.88-.16,2.04-.3,3.46-.3,4.92,0,5.32,3.16,5.32,4.36,0,3.58-2.86,4.86-5.56,4.86-.58,0-1.1-.02-1.56-.14v6.26h-1.66v-15.04Zm1.66,7.4c.42,.12,.96,.16,1.6,.16,2.4,0,3.86-1.2,3.86-3.38s-1.56-3.14-3.64-3.14c-.84,0-1.46,.08-1.82,.16v6.2Z"/>
    <path d="M303.24,421.22c1.52-1.6,4.46-4.9,5.6-6.12,.66-.66,1.18-.98,1.78-.98,.68,0,1.14,.36,1.92,1.06,2.36,2.14,6.32,6.52,9.44,10.44l-1.2,1.1c-2.96-3.9-6.96-8.48-8.96-10.32-.48-.48-.76-.78-1.14-.78-.26,0-.6,.3-1.04,.72-.94,1.02-3.64,4.16-4.98,5.6,.02,.04,.02,.1,.02,.14,0,.16-.08,.32-.2,.42l-1.24-1.28Z"/>
    <path d="M325.52,416.7c.6,1.22,1.26,3.14,1.5,4.3l-1.12,.3c-.24-1.16-.86-2.98-1.46-4.26l1.08-.34Zm11.94,.14c-.04,.18-.24,.22-.42,.2-1.56,5.84-4.5,9.42-9.34,11.38-.16-.24-.52-.7-.78-.92,4.78-1.88,7.52-5.16,8.98-11.12l1.56,.46Zm-7.08-1.1c.42,1.34,.8,3.26,.94,4.54l-1.18,.22c-.12-1.28-.5-3.12-.94-4.5l1.18-.26Z"/>
    <path d="M354.52,414.82c-.02,.12-.12,.16-.24,.22-.72,2.42-1.68,4.68-2.9,6.6,.86,.5,1.92,1.12,2.66,1.64l-.84,1.3c-.72-.56-1.82-1.22-2.66-1.72-1.84,2.54-4.14,4.58-7.18,6-.2-.34-.72-.82-1.08-1.06,2.92-1.32,5.2-3.26,7.02-5.66-1.48-.82-3.02-1.56-4.48-2.1l.78-1.1c1.46,.54,3.02,1.24,4.54,2.04,1.02-1.56,1.86-3.48,2.4-5.3h-6.6c-1.28,2.16-2.86,4.12-4.5,5.46-.24-.24-.8-.68-1.12-.9,2.6-2,4.9-5.5,6.1-8.92l1.86,.54c-.08,.22-.32,.28-.56,.26-.28,.72-.64,1.5-1.02,2.22h6.48l.18-.06,1.16,.54Zm-1.84-3.98c.94,.74,2.06,1.94,2.66,2.8l-.76,.62c-.56-.8-1.74-2.1-2.62-2.8l.72-.62Zm2.56-.74c.94,.74,2.12,1.92,2.72,2.76l-.78,.6c-.54-.82-1.78-2.06-2.64-2.74l.7-.62Z"/>
    <path d="M366.46,411.74c-.04,.24-.28,.34-.66,.36-.22,1.12-.58,3.06-.82,4.26,.9-.1,1.72-.18,2.22-.18,3.04-.04,4.08,1.98,4.08,4.98,0,1.5-.28,3.28-.68,4.48-.62,2.04-1.9,3.02-3.56,3.02-.82,0-1.9-.34-3.62-1.74,.22-.36,.38-.8,.54-1.22,1.6,1.24,2.44,1.52,3.06,1.52,1.14,0,1.82-.72,2.22-2,.42-1.24,.64-3.08,.64-4.1-.02-2.28-.76-3.64-2.76-3.62-.6,0-1.42,.08-2.44,.2-1,4.08-2.18,7.58-4.1,10.8l-1.32-.64c1.94-3.1,3.04-6.2,3.98-10-1.02,.12-2.48,.3-3.56,.48l-.12-1.4c.98-.12,2.62-.3,3.96-.46,.3-1.46,.62-3.26,.86-5.02l2.08,.28Zm9.26,9.62c-.64-2.92-2.54-5.4-4.5-6.84l1.08-.84c2.12,1.5,4.22,4.26,4.86,7.12l-1.44,.56Z"/>
    <path d="M382.76,415.08c-.08,.2-.24,.3-.52,.34-.16,2.96-.54,5.48-.82,5.9h.02c1.96-1.46,5.02-2.46,7.36-2.46,3.08,0,5,1.58,4.96,4.38-.06,3.68-3.1,5.32-10.84,5.64-.1-.38-.28-.94-.5-1.32,6.98-.3,9.78-1.44,9.84-4.3,.02-1.92-1.32-3.08-3.66-3.08-3.7,0-7.04,2.22-7.6,3.2l-1.36-.66c.4-.38,1.1-3.96,1.14-7.88l1.98,.24Zm.34-3.88c2.72,.32,5.8,.94,7.76,1.76l-.5,1.38c-2.06-.88-5.04-1.46-7.68-1.82l.42-1.32Z"/>
    <path d="M403.7,423.38c-.02,.14-.18,.24-.42,.26-.54,2.86-1.7,4.8-6.42,5.76-.12-.32-.46-.9-.74-1.18,4.32-.78,5.4-2.34,5.8-5.02l1.78,.18Zm4.44,3.86c0,.58,.16,.7,1.08,.7h3.18c.84,0,1-.38,1.08-2.9,.3,.24,.88,.46,1.24,.56-.16,2.9-.54,3.62-2.22,3.62h-3.4c-1.84,0-2.32-.42-2.32-1.98v-4.6h-7.72v-11.14h12.74v11.14h-3.66v4.6Zm-7.78-14.56v2.18h10.08v-2.18h-10.08Zm0,3.28v2.2h10.08v-2.2h-10.08Zm0,3.3v2.24h10.08v-2.24h-10.08Z"/>
    <path d="M421.72,419.56c1.32-.68,3.38-1.16,4.96-1.16,3.18,0,5.18,1.86,5.18,4.8,0,3.62-3.18,5.62-7.2,5.62-2.6,0-4.38-1.04-4.38-2.8,0-1.48,1.46-2.68,3.28-2.68,2.26,0,3.78,1.8,4.08,3.62,1.6-.6,2.76-1.88,2.76-3.74,0-2.16-1.6-3.54-4.12-3.54-3,0-5.94,1.34-7.26,2.62-.6,.56-1.38,1.4-1.92,2.02l-1.02-1.02c1.8-1.88,7.52-7.34,10.24-9.88-1.16,.16-5.16,.32-7.44,.4-.06,.14-.26,.26-.42,.3l-.16-1.7c2.7-.02,7.86-.22,9.32-.44l.3-.14,1.06,1.3c-.1,.08-.28,.16-.48,.18-1.42,1.16-5.22,4.72-6.78,6.22v.02Zm2.76,8c.6,0,1.3-.08,1.82-.2-.22-1.54-1.36-2.84-2.84-2.84-1.04,0-1.96,.56-1.96,1.48,0,1.22,1.66,1.56,2.98,1.56Z"/>
    <path d="M448.15,417.88s-.1,.02-.16,.02c-.14,0-.3-.04-.42-.12-5.94,1.74-11.32,4.36-11.3,7.04,0,1.92,2.12,2.58,5.36,2.58s5.68-.24,7.08-.46l.12,1.46c-1.84,.24-4.82,.36-7.16,.36-3.96,0-6.84-.92-6.86-3.86-.02-2.14,2.12-4.02,5.26-5.64-.68-1.22-.92-3.54-.92-8.06l2.2,.18c-.02,.26-.22,.42-.62,.48-.02,3.5,.1,5.68,.66,6.76,1.88-.88,4.04-1.68,6.24-2.4l.52,1.66Z"/>
    <path d="M467.79,419.2h-6.6l.34,.1c-.02,.12-.18,.22-.4,.24-.52,3.62-2.16,7.22-6.18,9.24-.22-.26-.74-.72-1.08-.98,3.94-1.96,5.32-5,5.78-8.6h-7.64v-1.34h15.78v1.34Zm-2.94-5.46h-11.1v-1.34h11.1v1.34Zm.26-2.94c.82,.86,1.74,2.22,2.2,3.16l-.8,.54c-.42-.92-1.38-2.34-2.18-3.16l.78-.54Zm2.36-.68c.82,.86,1.78,2.22,2.26,3.14l-.82,.5c-.42-.88-1.42-2.3-2.2-3.12l.76-.52Z"/>
    <path d="M471.14,419h16.7v1.42h-15.94c-.12,.2-.38,.34-.64,.38l-.12-1.8Z"/>
    <path d="M505.03,414.72c-.02,.1-.12,.18-.24,.22-.74,2.48-1.74,4.76-2.94,6.62,.86,.5,1.84,1.12,2.58,1.66l-.84,1.32c-.72-.56-1.74-1.22-2.58-1.74-1.84,2.56-4.2,4.62-7.22,6.08-.22-.34-.74-.82-1.1-1.04,2.92-1.36,5.26-3.38,7.08-5.76-1.48-.82-2.94-1.52-4.42-2.08l.76-1.12c1.46,.52,2.96,1.2,4.5,2.02,1.04-1.64,1.86-3.38,2.42-5.3h-6.78c-1.22,2.04-2.86,4.06-4.62,5.5-.26-.24-.8-.68-1.14-.9,2.62-2,5.1-5.6,6.3-9.02l1.9,.44c-.08,.22-.28,.28-.54,.26-.28,.66-.74,1.64-1.12,2.38h6.64l.28-.08,1.08,.54Z"/>
  </g>
  <line class="b" x1="371" y1="401" x2="370.69" y2="380.19"/>
  <line class="b" x1="502" y1="402" x2="501.68" y2="382.19"/>
  <line class="b" x1="371" y1="388" x2="501" y2="388"/>
  <g>
    <path class="b" d="M325,381.69c3.71,4.7,19.62,26.75,46.25,26.77,46.25,.03,65.12-14.26,66.25-15.97"/>
    <line class="b" x1="437.5" y1="393.5" x2="435.5" y2="403.5"/>
    <line class="b" x1="437" y1="393" x2="425" y2="393"/>
  </g>
</svg>