<?xml version="1.0" encoding="UTF-8"?>
<svg id="a" data-name="レイヤー 1" xmlns="http://www.w3.org/2000/svg" viewBox="0 0 1025 769">
  <defs>
    <style>
      .b, .c {
        fill: #ffb48a;
      }

      .d {
        fill: #fbb03b;
        stroke: #231815;
      }

      .d, .c, .e, .f, .g, .h {
        stroke-miterlimit: 10;
      }

      .d, .h {
        stroke-width: 2px;
      }

      .c, .e, .f, .g {
        stroke-width: .5px;
      }

      .c, .e, .f, .g, .h {
        stroke: #000;
      }

      .e {
        fill: #fff1bf;
      }

      .f {
        fill: #d4eeff;
      }

      .g {
        fill: #e1ffc9;
      }

      .h {
        fill: none;
      }

      .i {
        isolation: isolate;
      }
    </style>
  </defs>
  <g>
    <g>
      <rect class="b" x="19.44" y="439.12" width="441.11" height="128.69"/>
      <path d="M460.11,439.56v127.81H19.89v-127.81H460.11m.89-.89H19v129.58H461v-129.58h0Z"/>
    </g>
    <g>
      <rect class="g" x="19.44" y="309.12" width="441.11" height="128.69"/>
      <path class="g" d="M460.11,309.56v127.81H19.89v-127.81H460.11m.89-.89H19v129.58H461v-129.58h0Z"/>
    </g>
    <g>
      <rect class="e" x="19.44" y="246.21" width="441.11" height="61.83"/>
      <path class="e" d="M460.11,246.43v61.41H19.89v-61.41H460.11m.89-.43H19v62.26H461v-62.26h0Z"/>
    </g>
    <g>
      <rect class="e" x="19.76" y="183.95" width="441.11" height="61.83"/>
      <path class="e" d="M460.42,184.16v61.41H20.2v-61.41H460.42m.89-.43H19.31v62.26H461.31v-62.26h0Z"/>
    </g>
    <g>
      <rect class="e" x="19.76" y="121.95" width="441.11" height="61.83"/>
      <path class="e" d="M460.42,122.16v61.41H20.2v-61.41H460.42m.89-.43H19.31v62.26H461.31v-62.26h0Z"/>
    </g>
    <g class="i">
      <path d="M132.79,143.45c-.06,.12-.24,.21-.39,.27-1.62,3.84-4.2,7.17-7.11,9.6-.45-.39-1.29-.93-1.83-1.23,2.76-2.01,4.98-4.92,5.97-7.44h-21.48v-2.04h22.62l.33-.15,1.89,.99Zm-11.7,5.46c-.03,.24-.3,.45-.69,.51-.87,7.08-3.3,13.83-9.48,17.4-.42-.36-1.2-1.05-1.77-1.38,6.12-3.36,8.31-9.63,9.03-16.86l2.91,.33Z"/>
      <path d="M136.24,144.35h19.08l.18-.09,2.04,1.56c-.09,.12-.18,.21-.36,.27-2.43,11.28-7.65,17.16-16.83,20.64-.33-.54-.93-1.32-1.35-1.77,8.73-3.21,13.77-8.79,15.72-18.54h-18.48v-2.07Zm22.86-5.37c1.8,0,3.27,1.47,3.27,3.3s-1.47,3.27-3.27,3.27-3.3-1.47-3.3-3.27c0-1.89,1.53-3.3,3.3-3.3Zm2.28,3.3c0-1.29-1.02-2.31-2.28-2.31s-2.31,1.02-2.31,2.31,1.05,2.31,2.31,2.31,2.28-1.11,2.28-2.31Z"/>
      <path d="M166.63,157.31v-14.58l2.85,.18c-.03,.27-.24,.48-.72,.54v13.86h-2.13Zm16.71-15.75c-.03,.3-.24,.45-.72,.51v9.54c0,6.3-2.16,12.06-10.77,15.39-.3-.45-1.05-1.23-1.56-1.62,8.31-3.09,10.17-8.22,10.17-13.77v-10.23l2.88,.18Z"/>
      <path d="M213.79,147.86v2.04h-7.44c-.09,.18-.27,.33-.54,.36-.9,6.96-3.72,13.02-10.05,16.68-.48-.45-1.29-.99-1.86-1.35,6.15-3.33,9-8.97,9.75-15.69h-8.34c-1.38,2.46-3.12,4.68-4.74,6.18-.45-.33-1.29-.78-1.89-1.05,3.24-2.79,6.72-8.64,8.16-14.22l2.88,.66c-.06,.21-.33,.45-.81,.45-.63,1.86-1.65,4.14-2.55,5.94h17.43Z"/>
      <path d="M217.54,152.21h25.05v2.13h-23.91c-.18,.3-.57,.51-.96,.57l-.18-2.7Z"/>
      <path d="M247.25,149.33c2.7,.6,6.06,1.74,8.07,2.7l-.9,1.89c-1.98-.96-5.43-2.16-8.07-2.76l.9-1.83Zm1.8,14.67c9.75-3.27,16.41-8.46,20.4-17.46,.45,.39,1.38,1.02,1.83,1.32-4.02,8.91-11.01,14.46-20.19,17.73,.06,.27-.09,.63-.36,.75l-1.68-2.34Zm1.5-22.11c2.7,.72,6,1.92,8.04,2.94l-.99,1.83c-2.13-1.08-5.25-2.28-7.95-3.03l.9-1.74Z"/>
      <path d="M290.57,148.55v18.24h-1.8v-1.32h-13.47v-1.68h13.47v-6.09h-12.27v-1.68h12.27v-5.82h-12.72v-1.65h14.52Z"/>
      <path d="M298.49,143.15c3.12,.99,6.72,2.55,8.94,4.08l-1.14,1.89c-2.16-1.53-5.7-3.12-8.76-4.17l.96-1.8Zm-.12,20.79c10.65-3.3,17.73-9.27,21.33-17.58,.63,.51,1.32,.9,1.95,1.23-3.75,8.22-11.07,14.61-21.24,18-.03,.27-.21,.57-.42,.69l-1.62-2.34Z"/>
      <path d="M349.97,141.32v6.03h-3.93l.96,.42c-.09,.18-.33,.24-.6,.21-.36,.42-.87,.99-1.38,1.5h4.89v7.95h-18.87v-7.95h4.11c-.39-.63-.93-1.32-1.47-1.83l.6-.3h-4.89v2.82c0,5.13-.42,12.48-3.57,17.43-.36-.33-1.23-.84-1.74-1.05,3.03-4.77,3.3-11.49,3.3-16.38v-8.85h22.59Zm-2.04,4.38v-2.7h-18.54v2.7h18.54Zm-15.39,22.05v-8.88h16.08v8.82h-1.92v-.9h-12.3v.96h-1.86Zm.39-16.92v1.95h6.45v-1.95h-6.45Zm0,3.27v2.01h6.45v-2.01h-6.45Zm13.77,6.18h-12.3v1.83h12.3v-1.83Zm-12.3,5.07h12.3v-1.92h-12.3v1.92Zm1.17-18c.66,.66,1.26,1.47,1.56,2.13h5.88c.54-.63,1.17-1.44,1.62-2.13h-9.06Zm12.36,5.43v-1.95h-6.66v1.95h6.66Zm0,3.33v-2.01h-6.66v2.01h6.66Z"/>
    </g>
    <g class="i">
      <path d="M94.64,204.35h19.08l.18-.09,2.04,1.56c-.09,.12-.18,.21-.36,.27-2.43,11.28-7.65,17.16-16.83,20.64-.33-.54-.93-1.32-1.35-1.77,8.73-3.21,13.77-8.79,15.72-18.54h-18.48v-2.07Zm22.86-5.37c1.8,0,3.27,1.47,3.27,3.3s-1.47,3.27-3.27,3.27-3.3-1.47-3.3-3.27c0-1.89,1.53-3.3,3.3-3.3Zm2.28,3.3c0-1.29-1.02-2.31-2.28-2.31s-2.31,1.02-2.31,2.31,1.05,2.31,2.31,2.31,2.28-1.11,2.28-2.31Z"/>
      <path d="M127.82,223.43c7.62-2.13,13.68-5.79,17.37-12.33,.39,.51,1.14,1.14,1.59,1.5-4.05,6.9-10.74,10.92-19.77,13.29-.06,.24-.24,.51-.48,.6l-1.26-2.1,.36-.57v-22.11l3.09,.15c-.03,.33-.3,.6-.9,.66v20.91Z"/>
      <path d="M175.79,207.59c-.09,.15-.27,.27-.48,.33-1.35,3.27-3.72,7.35-6.27,9.81-.45-.33-1.23-.78-1.8-1.08,2.28-2.04,4.14-5.04,5.13-7.44l-11.52,3v7.68c0,2.97,1.8,3.93,4.2,3.93h4.89c1.23,0,3.3-.15,4.47-.3,0,.63,.03,1.47,.06,2.1-1.2,.12-3.3,.21-4.44,.21h-5.01c-3.78,0-6.3-1.74-6.3-5.88v-7.2l-7.56,1.95-.51-2.01,8.07-2.01v-9.21l2.88,.15c-.03,.36-.33,.51-.75,.57v7.95l12.72-3.3,.33-.24,1.89,.99Zm-6.39-7.11c1.26,1.17,2.88,3.06,3.75,4.41l-1.11,.87c-.9-1.32-2.43-3.18-3.75-4.38l1.11-.9Zm4.32-1.38c1.41,1.23,2.94,3.03,3.81,4.38l-1.14,.87c-.87-1.32-2.43-3.18-3.75-4.35l1.08-.9Z"/>
      <path d="M182.48,203.15c3.12,.99,6.72,2.55,8.94,4.08l-1.14,1.89c-2.16-1.53-5.7-3.12-8.76-4.17l.96-1.8Zm-.12,20.79c10.65-3.3,17.73-9.27,21.33-17.58,.63,.51,1.32,.9,1.95,1.23-3.75,8.22-11.07,14.61-21.24,18-.03,.27-.21,.57-.42,.69l-1.62-2.34Z"/>
      <path d="M233.42,212.51h-10.14l.51,.15c-.06,.18-.27,.33-.6,.36-.81,5.58-2.85,10.56-9.27,13.71-.36-.39-1.11-1.11-1.62-1.5,6.24-3,7.98-7.2,8.67-12.72h-11.67v-2.01h24.12v2.01Zm-2.97-8.46h-18.42v-2.01h18.42v2.01Z"/>
      <path d="M237.75,212.21h25.05v2.13h-23.91c-.18,.3-.57,.51-.96,.57l-.18-2.7Z"/>
      <path d="M267.45,209.33c2.7,.6,6.06,1.74,8.07,2.7l-.9,1.89c-1.98-.96-5.43-2.16-8.07-2.76l.9-1.83Zm1.8,14.67c9.75-3.27,16.41-8.46,20.4-17.46,.45,.39,1.38,1.02,1.83,1.32-4.02,8.91-11.01,14.46-20.19,17.73,.06,.27-.09,.63-.36,.75l-1.68-2.34Zm1.5-22.11c2.7,.72,6,1.92,8.04,2.94l-.99,1.83c-2.13-1.08-5.25-2.28-7.95-3.03l.9-1.74Z"/>
      <path d="M310.76,208.55v18.24h-1.8v-1.32h-13.47v-1.68h13.47v-6.09h-12.27v-1.68h12.27v-5.82h-12.72v-1.65h14.52Z"/>
      <path d="M318.69,203.15c3.12,.99,6.72,2.55,8.94,4.08l-1.14,1.89c-2.16-1.53-5.7-3.12-8.76-4.17l.96-1.8Zm-.12,20.79c10.65-3.3,17.73-9.27,21.33-17.58,.63,.51,1.32,.9,1.95,1.23-3.75,8.22-11.07,14.61-21.24,18-.03,.27-.21,.57-.42,.69l-1.62-2.34Z"/>
      <path d="M370.17,201.32v6.03h-3.93l.96,.42c-.09,.18-.33,.24-.6,.21-.36,.42-.87,.99-1.38,1.5h4.89v7.95h-18.87v-7.95h4.11c-.39-.63-.93-1.32-1.47-1.83l.6-.3h-4.89v2.82c0,5.13-.42,12.48-3.57,17.43-.36-.33-1.23-.84-1.74-1.05,3.03-4.77,3.3-11.49,3.3-16.38v-8.85h22.59Zm-2.04,4.38v-2.7h-18.54v2.7h18.54Zm-15.39,22.05v-8.88h16.08v8.82h-1.92v-.9h-12.3v.96h-1.86Zm.39-16.92v1.95h6.45v-1.95h-6.45Zm0,3.27v2.01h6.45v-2.01h-6.45Zm13.77,6.18h-12.3v1.83h12.3v-1.83Zm-12.3,5.07h12.3v-1.92h-12.3v1.92Zm1.17-18c.66,.66,1.26,1.47,1.56,2.13h5.88c.54-.63,1.17-1.44,1.62-2.13h-9.06Zm12.36,5.43v-1.95h-6.66v1.95h6.66Zm0,3.33v-2.01h-6.66v2.01h6.66Z"/>
    </g>
    <g class="i">
      <path d="M188.29,269.56c-.09,.15-.27,.27-.48,.36-1.35,3.24-3.72,7.32-6.27,9.78-.45-.33-1.23-.78-1.8-1.08,2.28-2.04,4.14-5.04,5.13-7.44l-11.49,3v7.77c0,2.94,1.77,3.93,4.17,3.93h4.89c1.23,0,3.3-.18,4.47-.33,0,.66,.03,1.47,.06,2.1-1.2,.15-3.3,.24-4.44,.24h-5.01c-3.78,0-6.3-1.77-6.3-5.91v-7.26l-7.56,1.95-.51-2.01,8.07-2.01v-9.12l2.91,.12c-.06,.36-.33,.54-.75,.6v7.83l12.69-3.27,.33-.24,1.89,.99Z"/>
      <path d="M195.01,270.76c.9,1.83,1.89,4.71,2.25,6.45l-1.68,.45c-.36-1.74-1.29-4.47-2.19-6.39l1.62-.51Zm17.91,.21c-.06,.27-.36,.33-.63,.3-2.34,8.76-6.75,14.13-14.01,17.07-.24-.36-.78-1.05-1.17-1.38,7.17-2.82,11.28-7.74,13.47-16.68l2.34,.69Zm-10.62-1.65c.63,2.01,1.2,4.89,1.41,6.81l-1.77,.33c-.18-1.92-.75-4.68-1.41-6.75l1.77-.39Z"/>
      <path d="M218.14,271.33c2.7,.6,6.06,1.74,8.07,2.7l-.9,1.89c-1.98-.96-5.43-2.16-8.07-2.76l.9-1.83Zm1.8,14.67c9.75-3.27,16.41-8.46,20.4-17.46,.45,.39,1.38,1.02,1.83,1.32-4.02,8.91-11.01,14.46-20.19,17.73,.06,.27-.09,.63-.36,.75l-1.68-2.34Zm1.5-22.11c2.7,.72,6,1.92,8.04,2.94l-.99,1.83c-2.13-1.08-5.25-2.28-7.95-3.03l.9-1.74Z"/>
      <path d="M261.46,270.55v18.24h-1.8v-1.32h-13.47v-1.68h13.47v-6.09h-12.27v-1.68h12.27v-5.82h-12.72v-1.65h14.52Z"/>
      <path d="M269.39,265.15c3.12,.99,6.72,2.55,8.94,4.08l-1.14,1.89c-2.16-1.53-5.7-3.12-8.76-4.17l.96-1.8Zm-.12,20.79c10.65-3.3,17.73-9.27,21.33-17.58,.63,.51,1.32,.9,1.95,1.23-3.75,8.22-11.07,14.61-21.24,18-.03,.27-.21,.57-.42,.69l-1.62-2.34Z"/>
      <path d="M320.86,263.32v6.03h-3.93l.96,.42c-.09,.18-.33,.24-.6,.21-.36,.42-.87,.99-1.38,1.5h4.89v7.95h-18.87v-7.95h4.11c-.39-.63-.93-1.32-1.47-1.83l.6-.3h-4.89v2.82c0,5.13-.42,12.48-3.57,17.43-.36-.33-1.23-.84-1.74-1.05,3.03-4.77,3.3-11.49,3.3-16.38v-8.85h22.59Zm-2.04,4.38v-2.7h-18.54v2.7h18.54Zm-15.39,22.05v-8.88h16.08v8.82h-1.92v-.9h-12.3v.96h-1.86Zm.39-16.92v1.95h6.45v-1.95h-6.45Zm0,3.27v2.01h6.45v-2.01h-6.45Zm13.77,6.18h-12.3v1.83h12.3v-1.83Zm-12.3,5.07h12.3v-1.92h-12.3v1.92Zm1.17-18c.66,.66,1.26,1.47,1.56,2.13h5.88c.54-.63,1.17-1.44,1.62-2.13h-9.06Zm12.36,5.43v-1.95h-6.66v1.95h6.66Zm0,3.33v-2.01h-6.66v2.01h6.66Z"/>
    </g>
    <g class="i">
      <path d="M155.49,379.68c-3.06-1.65-7.26-3.6-10.53-4.89v15h-2.25v-26.07l3.03,.18c-.03,.33-.27,.54-.78,.63v8.76l.45-.63c3.51,1.29,8.16,3.36,11.28,5.01l-1.2,2.01Z"/>
      <path d="M184.65,373.47c-.06,.12-.21,.24-.39,.3-2.46,9.06-7.47,13.47-16.44,15.96-.27-.54-.84-1.29-1.26-1.74,8.16-2.04,13.23-6.24,15.12-13.2h-19.86v-2.04h20.76l.3-.18,1.77,.9Zm-2.82-6.42h-17.1v-1.98h17.1v1.98Z"/>
      <path d="M190.08,366.15c3.12,.99,6.72,2.55,8.94,4.08l-1.14,1.89c-2.16-1.53-5.7-3.12-8.76-4.17l.96-1.8Zm-.12,20.79c10.65-3.3,17.73-9.27,21.33-17.58,.63,.51,1.32,.9,1.95,1.23-3.75,8.22-11.07,14.61-21.24,18-.03,.27-.21,.57-.42,.69l-1.62-2.34Z"/>
      <path d="M236.13,366.81c-.06,.15-.21,.27-.39,.33-1.62,3.81-3.54,7.11-6,10.32,3.27,2.61,8.19,7.08,10.98,10.17l-1.83,1.59c-2.64-3.06-7.47-7.62-10.53-10.08-2.64,3.21-7.2,7.59-11.55,10.08-.33-.45-1.05-1.2-1.56-1.62,8.31-4.56,14.88-13.08,17.58-19.59h-14.73v-2.04h15.9l.39-.15,1.74,.99Z"/>
      <path d="M252.09,377.01c-1.35,3.51-3.33,6.6-5.64,8.85l-1.74-1.14c2.25-2.1,4.2-4.95,5.43-8.46l1.95,.75Zm6.42-4.62v14.07c0,3.27-2.34,3.27-7.14,3.27-.12-.54-.36-1.38-.63-2.01,.87,.03,1.83,.03,2.64,.03h1.74c.84,0,1.23-.54,1.23-1.26v-14.1h-10.2v-2.04h10.2v-6.33l2.85,.15c-.03,.3-.24,.51-.69,.57v5.61h10.14v2.04h-10.14Zm5.37,3.66c2.19,2.43,4.71,5.97,6.33,8.73l-1.92,1.11c-1.47-2.73-4.11-6.6-6.12-8.88l1.71-.96Zm3.9-13.83c1.83,0,3.33,1.5,3.33,3.36s-1.5,3.36-3.33,3.36-3.39-1.5-3.39-3.36,1.56-3.36,3.39-3.36Zm2.34,3.36c0-1.32-1.05-2.4-2.34-2.4s-2.4,1.08-2.4,2.4,1.08,2.37,2.4,2.37,2.34-1.14,2.34-2.37Z"/>
      <path d="M274.45,375.21h25.05v2.13h-23.91c-.18,.3-.57,.51-.96,.57l-.18-2.7Z"/>
      <path d="M321.09,379.68c-3.06-1.65-7.26-3.6-10.53-4.89v15h-2.25v-26.07l3.03,.18c-.03,.33-.27,.54-.78,.63v8.76l.45-.63c3.51,1.29,8.16,3.36,11.28,5.01l-1.2,2.01Z"/>
      <path d="M352.26,364.32v6.03h-3.93l.96,.42c-.09,.18-.33,.24-.6,.21-.36,.42-.87,.99-1.38,1.5h4.89v7.95h-18.87v-7.95h4.11c-.39-.63-.93-1.32-1.47-1.83l.6-.3h-4.89v2.82c0,5.13-.42,12.48-3.57,17.43-.36-.33-1.23-.84-1.74-1.05,3.03-4.77,3.3-11.49,3.3-16.38v-8.85h22.59Zm-2.04,4.38v-2.7h-18.54v2.7h18.54Zm-15.39,22.05v-8.88h16.08v8.82h-1.92v-.9h-12.3v.96h-1.86Zm.39-16.92v1.95h6.45v-1.95h-6.45Zm0,3.27v2.01h6.45v-2.01h-6.45Zm13.77,6.18h-12.3v1.83h12.3v-1.83Zm-12.3,5.07h12.3v-1.92h-12.3v1.92Zm1.17-18c.66,.66,1.26,1.47,1.56,2.13h5.88c.54-.63,1.17-1.44,1.62-2.13h-9.06Zm12.36,5.43v-1.95h-6.66v1.95h6.66Zm0,3.33v-2.01h-6.66v2.01h6.66Z"/>
    </g>
    <g class="i">
      <path d="M166.8,500.74c-.09,.15-.27,.24-.54,.27-1.92,2.4-4.5,4.98-7.26,7.11l.48,.12c-.06,.15-.27,.39-.66,.42v11.43h-2.13v-10.41c-3.06,2.1-7.02,4.23-10.71,5.7-.15-.21-1.14-1.44-1.38-1.68,7.26-2.7,14.16-7.17,18.27-11.97h-15.18v-1.95h17.19l.33-.21,1.59,1.17Zm-4.95-2.34c-2.61-1.38-6.69-2.73-9.87-3.63l.99-1.74c3.21,.78,7.26,2.22,9.99,3.54l-1.11,1.83Zm.21,9.63c3,1.56,6.6,3.81,8.76,5.52l-1.53,1.62c-2.01-1.68-5.73-4.11-8.61-5.64l1.38-1.5Z"/>
      <path d="M176.92,501.76c.9,1.83,1.89,4.71,2.25,6.45l-1.68,.45c-.36-1.74-1.29-4.47-2.19-6.39l1.62-.51Zm17.91,.21c-.06,.27-.36,.33-.63,.3-2.34,8.76-6.75,14.13-14.01,17.07-.24-.36-.78-1.05-1.17-1.38,7.17-2.82,11.28-7.74,13.47-16.68l2.34,.69Zm-10.62-1.65c.63,2.01,1.2,4.89,1.41,6.81l-1.77,.33c-.18-1.92-.75-4.68-1.41-6.75l1.77-.39Z"/>
      <path d="M216.69,509.68c-3.06-1.65-7.26-3.6-10.53-4.89v15h-2.25v-26.07l3.03,.18c-.03,.33-.27,.54-.78,.63v8.76l.45-.63c3.51,1.29,8.16,3.36,11.28,5.01l-1.2,2.01Z"/>
      <path d="M246.09,497.05c-.09,.12-.24,.24-.39,.3-1.17,11.73-5.16,18.03-15.18,22.08-.39-.51-.99-1.17-1.5-1.62,9.57-3.9,13.32-9.6,14.31-19.44h-17.13v8.28h-2.07v-10.32h19.89l.33-.24,1.74,.96Z"/>
      <path d="M250.75,505.21h25.05v2.13h-23.91c-.18,.3-.57,.51-.96,.57l-.18-2.7Z"/>
      <path d="M301.5,499.42c-.12,.15-.27,.3-.45,.42-3.15,9.72-8.07,15.96-16.35,20.16-.36-.51-.93-1.2-1.53-1.65,7.86-3.81,12.72-9.81,15.21-17.76h-10.71c-1.74,2.7-4.05,5.31-6.72,7.41-.42-.42-1.11-.99-1.71-1.38,4.08-3.15,7.53-7.74,9.57-13.02l2.85,.81c-.12,.3-.48,.39-.87,.39-.6,1.32-1.23,2.58-1.92,3.78h10.56l.36-.18,1.71,1.02Z"/>
      <path d="M330.36,494.32v6.03h-3.93l.96,.42c-.09,.18-.33,.24-.6,.21-.36,.42-.87,.99-1.38,1.5h4.89v7.95h-18.87v-7.95h4.11c-.39-.63-.93-1.32-1.47-1.83l.6-.3h-4.89v2.82c0,5.13-.42,12.48-3.57,17.43-.36-.33-1.23-.84-1.74-1.05,3.03-4.77,3.3-11.49,3.3-16.38v-8.85h22.59Zm-2.04,4.38v-2.7h-18.54v2.7h18.54Zm-15.39,22.05v-8.88h16.08v8.82h-1.92v-.9h-12.3v.96h-1.86Zm.39-16.92v1.95h6.45v-1.95h-6.45Zm0,3.27v2.01h6.45v-2.01h-6.45Zm13.77,6.18h-12.3v1.83h12.3v-1.83Zm-12.3,5.07h12.3v-1.92h-12.3v1.92Zm1.17-18c.66,.66,1.26,1.47,1.56,2.13h5.88c.54-.63,1.17-1.44,1.62-2.13h-9.06Zm12.36,5.43v-1.95h-6.66v1.95h6.66Zm0,3.33v-2.01h-6.66v2.01h6.66Z"/>
    </g>
    <g>
      <rect class="f" x="19.78" y="568.27" width="441.48" height="78.46"/>
      <path class="f" d="M460.81,568.54v77.92H20.22v-77.92H460.81m.89-.54H19.33v79H461.7v-79h0Z"/>
    </g>
    <g>
      <rect class="f" x="19.78" y="645.22" width="441.48" height="63.78"/>
      <path class="f" d="M460.81,645.44v63.34H20.22v-63.34H460.81m.89-.44H19.33v64.22H461.7v-64.22h0Z"/>
    </g>
    <g class="i">
      <path d="M167.9,600.51h-9.9l.51,.15c-.03,.18-.27,.33-.6,.36-.78,5.43-3.24,10.83-9.27,13.86-.33-.39-1.11-1.08-1.62-1.47,5.91-2.94,7.98-7.5,8.67-12.9h-11.46v-2.01h23.67v2.01Zm-4.41-8.19h-16.65v-2.01h16.65v2.01Zm.39-4.41c1.23,1.29,2.61,3.33,3.3,4.74l-1.2,.81c-.63-1.38-2.07-3.51-3.27-4.74l1.17-.81Zm3.54-1.02c1.23,1.29,2.67,3.33,3.39,4.71l-1.23,.75c-.63-1.32-2.13-3.45-3.3-4.68l1.14-.78Z"/>
      <path d="M172.95,600.21h25.05v2.13h-23.91c-.18,.3-.57,.51-.96,.57l-.18-2.7Z"/>
      <path d="M223.76,593.79c-.03,.15-.18,.27-.36,.33-1.11,3.72-2.61,7.14-4.41,9.93,1.29,.75,2.76,1.68,3.87,2.49l-1.26,1.98c-1.08-.84-2.61-1.83-3.87-2.61-2.76,3.84-6.3,6.93-10.83,9.12-.33-.51-1.11-1.23-1.65-1.56,4.38-2.04,7.89-5.07,10.62-8.64-2.22-1.23-4.41-2.28-6.63-3.12l1.14-1.68c2.19,.78,4.44,1.8,6.75,3.03,1.56-2.46,2.79-5.07,3.63-7.95h-10.17c-1.83,3.06-4.29,6.09-6.93,8.25-.39-.36-1.2-1.02-1.71-1.35,3.93-3,7.65-8.4,9.45-13.53l2.85,.66c-.12,.33-.42,.42-.81,.39-.42,.99-1.11,2.46-1.68,3.57h9.96l.42-.12,1.62,.81Z"/>
      <path d="M231.54,605.31v-14.58l2.85,.18c-.03,.27-.24,.48-.72,.54v13.86h-2.13Zm16.71-15.75c-.03,.3-.24,.45-.72,.51v9.54c0,6.3-2.16,12.06-10.77,15.39-.3-.45-1.05-1.23-1.56-1.62,8.31-3.09,10.17-8.22,10.17-13.77v-10.23l2.88,.18Z"/>
      <path d="M255.09,591.15c3.12,.99,6.72,2.55,8.94,4.08l-1.14,1.89c-2.16-1.53-5.7-3.12-8.76-4.17l.96-1.8Zm-.12,20.79c10.65-3.3,17.73-9.27,21.33-17.58,.63,.51,1.32,.9,1.95,1.23-3.75,8.22-11.07,14.61-21.24,18-.03,.27-.21,.57-.42,.69l-1.62-2.34Z"/>
      <path d="M302.61,594.42c-.12,.15-.27,.3-.45,.42-3.15,9.72-8.07,15.96-16.35,20.16-.36-.51-.93-1.2-1.53-1.65,7.86-3.81,12.72-9.81,15.21-17.76h-10.71c-1.74,2.7-4.05,5.31-6.72,7.41-.42-.42-1.11-.99-1.71-1.38,4.08-3.15,7.53-7.74,9.57-13.02l2.85,.81c-.12,.3-.48,.39-.87,.39-.6,1.32-1.23,2.58-1.92,3.78h10.56l.36-.18,1.71,1.02Z"/>
      <path d="M331.47,589.32v6.03h-3.93l.96,.42c-.09,.18-.33,.24-.6,.21-.36,.42-.87,.99-1.38,1.5h4.89v7.95h-18.87v-7.95h4.11c-.39-.63-.93-1.32-1.47-1.83l.6-.3h-4.89v2.82c0,5.13-.42,12.48-3.57,17.43-.36-.33-1.23-.84-1.74-1.05,3.03-4.77,3.3-11.49,3.3-16.38v-8.85h22.59Zm-2.04,4.38v-2.7h-18.54v2.7h18.54Zm-15.39,22.05v-8.88h16.08v8.82h-1.92v-.9h-12.3v.96h-1.86Zm.39-16.92v1.95h6.45v-1.95h-6.45Zm0,3.27v2.01h6.45v-2.01h-6.45Zm13.77,6.18h-12.3v1.83h12.3v-1.83Zm-12.3,5.07h12.3v-1.92h-12.3v1.92Zm1.17-18c.66,.66,1.26,1.47,1.56,2.13h5.88c.54-.63,1.17-1.44,1.62-2.13h-9.06Zm12.36,5.43v-1.95h-6.66v1.95h6.66Zm0,3.33v-2.01h-6.66v2.01h6.66Z"/>
    </g>
    <g class="i">
      <path d="M201.34,675.53l-4.23,.93v10.29h-1.98v-9.84c-1.65,.36-3.15,.69-4.35,.93-.03,.21-.18,.39-.39,.45l-.78-2.31c1.5-.24,3.42-.6,5.52-1.02v-7.74h-2.97c-.3,1.8-.66,3.45-1.11,4.71-.39-.27-1.05-.63-1.5-.84,.84-2.43,1.29-6.63,1.59-10.56l2.34,.51c-.06,.21-.27,.3-.63,.33-.09,1.26-.24,2.61-.39,3.9h2.67v-6.36l2.55,.15c-.03,.21-.18,.36-.57,.42v5.79h3.81v1.95h-3.81v7.38l4.05-.81,.18,1.74Zm14.31-10.74l1.08,.09c0,.18-.03,.48-.06,.69-.57,14.04-1.08,18.66-2.22,20.07-.57,.81-1.2,1.14-3.18,1.14-.66,0-1.41-.03-2.16-.06-.03-.6-.24-1.47-.57-2.01,1.35,.09,2.55,.12,3.09,.12,.51,0,.78-.09,1.08-.51,.87-1.02,1.47-5.4,1.95-17.61h-2.34c-.87,7.26-2.94,15.81-6.15,20.07-.42-.33-1.17-.78-1.74-.99,3.3-3.96,5.31-12,6.21-19.08h-2.58c-1.14,6.15-3.45,13.44-6.45,17.16-.45-.36-1.2-.75-1.8-.99,3.03-3.42,5.34-10.17,6.48-16.17h-2.4c-.78,2.55-1.77,4.86-2.94,6.6-.33-.33-1.08-.84-1.53-1.14,2.07-2.97,3.51-8.16,4.29-13.38l2.49,.54c-.06,.21-.27,.33-.66,.33-.3,1.74-.66,3.48-1.11,5.16h10.74l.48-.03Z"/>
      <path d="M225.76,671.36v7.44l4.08-1.2c.03,.18,.06,.36,.24,1.74-3.48,1.11-7.17,2.31-9.48,3-.03,.24-.21,.39-.39,.45l-.81-2.22c1.23-.3,2.73-.72,4.41-1.2v-8.01h-3.72v-1.89h3.72v-6.75h-4.02v-1.92h9.9v1.92h-3.93v6.75h3.63v1.89h-3.63Zm13.62,12.57h8.4v1.86h-19.29v-1.86h9v-4.65h-7.02v-1.83h7.02v-3.51h-6.84v-13.32h15.75v13.32h-7.02v3.51h7.44v1.83h-7.44v4.65Zm-6.9-21.54v4.02h5.01v-4.02h-5.01Zm0,9.78h5.01v-4.08h-5.01v4.08Zm12.03-5.76v-4.02h-5.13v4.02h5.13Zm0,5.76v-4.08h-5.13v4.08h5.13Z"/>
      <path d="M275.26,660.32v6.03h-3.93l.96,.42c-.09,.18-.33,.24-.6,.21-.36,.42-.87,.99-1.38,1.5h4.89v7.95h-18.87v-7.95h4.11c-.39-.63-.93-1.32-1.47-1.83l.6-.3h-4.89v2.82c0,5.13-.42,12.48-3.57,17.43-.36-.33-1.23-.84-1.74-1.05,3.03-4.77,3.3-11.49,3.3-16.38v-8.85h22.59Zm-2.04,4.38v-2.7h-18.54v2.7h18.54Zm-15.39,22.05v-8.88h16.08v8.82h-1.92v-.9h-12.3v.96h-1.86Zm.39-16.92v1.95h6.45v-1.95h-6.45Zm0,3.27v2.01h6.45v-2.01h-6.45Zm13.77,6.18h-12.3v1.83h12.3v-1.83Zm-12.3,5.07h12.3v-1.92h-12.3v1.92Zm1.17-18c.66,.66,1.26,1.47,1.56,2.13h5.88c.54-.63,1.17-1.44,1.62-2.13h-9.06Zm12.36,5.43v-1.95h-6.66v1.95h6.66Zm0,3.33v-2.01h-6.66v2.01h6.66Z"/>
    </g>
    <g class="i">
      <path d="M163.21,94.18c0,8.04-4.5,12-9.9,12-5.67,0-9.69-4.47-9.69-11.61s4.23-11.97,9.96-11.97,9.63,4.68,9.63,11.58Zm-16.98,.33c0,4.86,2.52,9.6,7.17,9.6s7.2-4.59,7.2-9.81c0-4.59-2.25-9.63-7.14-9.63s-7.23,4.98-7.23,9.84Z"/>
      <path d="M177.19,85.78c-.66-.42-2.1-1.05-4.02-1.05-3.18,0-4.38,1.95-4.38,3.6,0,2.25,1.38,3.39,4.44,4.68,3.69,1.56,5.58,3.45,5.58,6.72,0,3.63-2.64,6.42-7.56,6.42-2.07,0-4.32-.63-5.46-1.44l.69-2.07c1.23,.81,3.06,1.41,4.92,1.41,3.06,0,4.86-1.65,4.86-4.11,0-2.25-1.23-3.63-4.2-4.83-3.45-1.29-5.79-3.3-5.79-6.45,0-3.48,2.82-6.03,6.99-6.03,2.16,0,3.81,.54,4.68,1.08l-.75,2.07Z"/>
      <path d="M182.8,82.96h2.49v22.86h-2.49v-22.86Z"/>
      <path d="M216.49,92.14h-7.86c2.13,2.55,5.43,4.86,8.52,6.03-.48,.39-1.05,1.11-1.35,1.59-3.45-1.5-7.14-4.44-9.45-7.62h-6.84c-2.43,3.36-5.79,5.97-9.6,7.71-.33-.39-.96-1.08-1.41-1.47,3.33-1.38,6.3-3.48,8.58-6.24h-7.77v-1.77h9.06c.6-.9,1.14-1.89,1.59-2.91-3.18,.12-6.06,.18-8.31,.24-.03,.24-.21,.36-.42,.42l-.84-2.28c1.47,0,3.21-.03,5.19-.06,1.23-1.59,2.64-3.75,3.42-5.31l2.46,.84c-.09,.18-.33,.27-.66,.27-.78,1.23-1.89,2.82-3,4.17,3.75-.06,7.98-.15,12.18-.27-1.23-.96-2.55-1.89-3.78-2.67l1.56-1.02c2.82,1.71,6.21,4.32,7.86,6.21-.87,.69-1.26,.9-1.68,1.14-.54-.63-1.26-1.35-2.1-2.1l-9.39,.36,.24,.06c-.09,.21-.33,.3-.69,.3-.39,.9-.84,1.77-1.32,2.61h15.81v1.77Zm-3.24,9.48c-.12,.21-.36,.27-.6,.24-3.57,3.51-10.5,5.67-18.24,6.69-.18-.51-.57-1.23-.96-1.68,7.47-.84,14.28-2.79,17.64-6.12l2.16,.87Zm-4.17-3.48c-.15,.18-.33,.24-.57,.21-2.76,2.1-7.74,3.99-12.24,5.01-.24-.42-.69-1.05-1.14-1.44,4.32-.9,9.27-2.61,11.94-4.65l2.01,.87Zm-3.27-3.6c-.06,.15-.27,.24-.54,.24-2.07,1.44-5.76,2.97-8.79,3.84-.3-.36-.78-.93-1.23-1.26,2.97-.78,6.6-2.19,8.58-3.66l1.98,.84Z"/>
      <path d="M224.86,102.28c-.75,2.25-2.07,4.68-3.69,6.12l-1.83-.81c1.53-1.29,2.91-3.6,3.63-5.79l1.89,.48Zm-2.28-3.9v1.89h-1.89v-18.45h8.64v16.56h-6.75Zm4.86-14.73h-4.86v5.43h4.86v-5.43Zm-4.86,12.9h4.86v-5.64h-4.86v5.64Zm6.3,11.55c-.03-1.41-.27-3.75-.63-5.55l1.83-.18c.42,1.77,.75,4.08,.78,5.43l-1.98,.3Zm16.8-26.19c0,.18-.03,.39-.09,.6-.45,7.74-.87,7.74-4.23,7.74-.63,0-1.41-.03-2.16-.09-.06-.48-.24-1.2-.54-1.68,1.38,.12,2.67,.15,3.15,.15,.45,0,.72-.06,.93-.27,.39-.39,.66-1.68,.87-4.77h-5.52c-.66,3.51-2.16,6.18-7.05,7.65-.21-.45-.72-1.17-1.14-1.53,4.11-1.14,5.58-3.15,6.18-6.12h-5.04v-1.8h13.11l.45-.06,1.08,.18Zm-.9,9.96v8.31h-12.84v-8.31h12.84Zm-1.98,6.6v-4.89h-8.94v4.89h8.94Zm-6.45,9.66c-.27-1.44-1.08-3.81-1.89-5.58l1.89-.36c.84,1.74,1.68,4.08,1.98,5.49l-1.98,.45Zm8.43,.3c-.75-1.62-2.52-4.23-4.05-6.09l1.86-.66c1.56,1.83,3.36,4.35,4.17,6l-1.98,.75Z"/>
      <path d="M260.92,94.72v6.78c0,1.59,.75,2.67,2.94,2.67h5.52c1.05,0,2.64-.06,3.63-.21,.03,.57,.06,1.59,.06,2.04-.96,.15-2.67,.18-3.69,.18h-5.67c-3.66,0-4.95-1.92-4.95-4.68v-6.78h-8.58v-1.98h8.58v-7.41h-6.42v-1.98h19.32v1.98h-10.74v7.41h13.59v1.98h-13.59Z"/>
      <path d="M303.64,93.13h-9.9l.51,.15c-.03,.18-.27,.33-.6,.36-.78,5.43-3.24,10.83-9.27,13.86-.33-.39-1.11-1.08-1.62-1.47,5.91-2.94,7.98-7.5,8.67-12.9h-11.46v-2.01h23.67v2.01Zm-4.41-8.19h-16.65v-2.01h16.65v2.01Zm.39-4.41c1.23,1.29,2.61,3.33,3.3,4.74l-1.2,.81c-.63-1.38-2.07-3.51-3.27-4.74l1.17-.81Zm3.54-1.02c1.23,1.29,2.67,3.33,3.39,4.71l-1.23,.75c-.63-1.32-2.13-3.45-3.3-4.68l1.14-.78Z"/>
      <path d="M315.55,86.05c-.03,.27-.3,.45-.69,.51-.18,8.07-.84,15.42-5.46,20.79-.48-.36-1.2-.81-1.8-1.14,4.47-4.86,5.01-12.36,5.1-20.43l2.85,.27Zm7.77,17.28c5.01-2.43,8.25-6.81,9.99-12.06,.45,.39,1.35,.9,1.86,1.17-2.13,6.06-5.85,10.53-12.24,13.56-.09,.24-.3,.48-.51,.6l-1.56-1.98,.33-.45v-22.02l2.79,.15c-.03,.27-.24,.51-.66,.57v20.46Z"/>
    </g>
  </g>
  <g>
    <rect class="f" x="496.17" y="592.11" width="172.65" height="73.64"/>
    <path class="f" d="M668.65,592.36v73.13h-172.31v-73.13h172.31m.35-.51h-173v74.15h173v-74.15h0Z"/>
  </g>
  <g class="i">
    <path d="M529.47,603.97c-.11,.14-.28,.22-.53,.22-.08,0-.17,0-.28-.03-2.16,2.19-5.26,4.73-7.98,6.69,.22,.08,.56,.25,.67,.31-.06,.17-.31,.34-.62,.37v15.04h-2.04v-14.39c-2.97,2.1-6.83,4.37-10.67,6.24-.28-.45-.78-1.15-1.18-1.54,7.64-3.53,16.02-9.52,20.52-14.48l2.1,1.57Z"/>
    <path d="M533.17,612.9h23.38v1.99h-22.32c-.17,.28-.53,.48-.9,.53l-.17-2.52Z"/>
    <path d="M584.6,610.58h-5.85v1.93c0,5.35-1.65,10.78-8.96,14.08-.36-.45-.95-1.01-1.46-1.4,7.11-3.08,8.43-8.06,8.43-12.66v-1.96h-9.04v6.97h-1.99v-6.97h-5.49v-1.9h5.49v-6.08l2.69,.17c-.03,.28-.28,.53-.7,.59v5.32h9.04v-6.44l2.69,.17c-.03,.25-.25,.48-.7,.53v5.74h5.85v1.9Z"/>
    <path d="M608.54,608.73c-.08,.14-.25,.22-.5,.25-1.79,2.24-4.2,4.65-6.78,6.64l.45,.11c-.06,.14-.25,.37-.62,.39v10.67h-1.99v-9.72c-2.86,1.96-6.55,3.95-10,5.32-.14-.2-1.06-1.34-1.29-1.57,6.78-2.52,13.22-6.69,17.05-11.17h-14.17v-1.82h16.04l.31-.2,1.48,1.09Zm-4.62-2.18c-2.44-1.29-6.24-2.55-9.21-3.39l.92-1.62c3,.73,6.78,2.07,9.32,3.3l-1.04,1.71Zm.2,8.99c2.8,1.46,6.16,3.56,8.18,5.15l-1.43,1.51c-1.88-1.57-5.35-3.84-8.04-5.26l1.29-1.4Z"/>
    <path d="M617.98,609.68c.84,1.71,1.76,4.39,2.1,6.02l-1.57,.42c-.34-1.62-1.2-4.17-2.04-5.96l1.51-.47Zm16.72,.2c-.06,.25-.34,.31-.59,.28-2.18,8.18-6.3,13.19-13.08,15.93-.22-.34-.73-.98-1.09-1.29,6.69-2.63,10.53-7.22,12.57-15.57l2.18,.64Zm-9.91-1.54c.59,1.88,1.12,4.56,1.32,6.36l-1.65,.31c-.17-1.79-.7-4.37-1.32-6.3l1.65-.36Z"/>
    <path d="M655.11,617.07c-2.86-1.54-6.78-3.36-9.83-4.56v14h-2.1v-24.33l2.83,.17c-.03,.31-.25,.5-.73,.59v8.18l.42-.59c3.28,1.2,7.62,3.13,10.53,4.68l-1.12,1.88Z"/>
    <path d="M544.37,649.61c2.13-2.24,6.24-6.86,7.84-8.57,.92-.92,1.65-1.37,2.49-1.37,.95,0,1.6,.5,2.69,1.48,3.3,3,8.85,9.13,13.22,14.62l-1.68,1.54c-4.14-5.46-9.74-11.87-12.54-14.45-.67-.67-1.06-1.09-1.6-1.09-.36,0-.84,.42-1.46,1.01-1.32,1.43-5.1,5.82-6.97,7.84,.03,.05,.03,.14,.03,.2,0,.22-.11,.45-.28,.59l-1.74-1.79Z"/>
    <path d="M575.56,643.28c.84,1.71,1.76,4.39,2.1,6.02l-1.57,.42c-.34-1.62-1.21-4.17-2.04-5.96l1.51-.47Zm16.72,.2c-.06,.25-.34,.31-.59,.28-2.18,8.18-6.3,13.19-13.08,15.93-.22-.34-.73-.98-1.09-1.29,6.69-2.63,10.53-7.22,12.57-15.57l2.18,.64Zm-9.91-1.54c.59,1.88,1.12,4.56,1.32,6.36l-1.65,.31c-.17-1.79-.7-4.37-1.32-6.3l1.65-.36Z"/>
    <path d="M616.16,640.65c-.03,.17-.17,.22-.34,.31-1.01,3.39-2.35,6.55-4.06,9.24,1.2,.7,2.69,1.57,3.72,2.29l-1.18,1.82c-1.01-.78-2.55-1.71-3.72-2.41-2.58,3.56-5.8,6.41-10.05,8.4-.28-.48-1.01-1.15-1.51-1.48,4.09-1.85,7.28-4.56,9.83-7.92-2.07-1.15-4.23-2.18-6.27-2.94l1.09-1.54c2.04,.76,4.23,1.74,6.36,2.86,1.43-2.19,2.6-4.87,3.36-7.42h-9.24c-1.79,3.02-4,5.77-6.3,7.64-.34-.34-1.12-.95-1.57-1.26,3.64-2.8,6.86-7.7,8.54-12.49l2.6,.76c-.11,.31-.45,.39-.78,.37-.39,1.01-.9,2.1-1.43,3.11h9.07l.25-.08,1.62,.76Zm-2.58-5.57c1.32,1.04,2.88,2.72,3.72,3.92l-1.06,.87c-.79-1.12-2.44-2.94-3.67-3.92l1.01-.87Zm3.58-1.04c1.32,1.04,2.97,2.69,3.81,3.86l-1.09,.84c-.76-1.15-2.49-2.88-3.7-3.84l.98-.87Z"/>
  </g>
  <g>
    <rect class="g" x="761.1" y="592.25" width="99.8" height="73.6"/>
    <path class="g" d="M860.8,592.51v73.1h-99.6v-73.1h99.6m.2-.51h-100v74.11h100v-74.11h0Z"/>
  </g>
  <g class="i">
    <path d="M801.95,605.68h-6.3v19.35h-2.32v-19.35h-6.27v-1.96h14.9v1.96Z"/>
    <path d="M818.27,624.38c-.98,.48-2.88,.95-5.32,.95-5.49,0-9.91-3.56-9.91-10.78s4.28-11.17,10.53-11.17c2.55,0,4.03,.53,4.7,.87l-.62,1.96c-.98-.48-2.35-.87-4.03-.87-4.84,0-8.15,3.25-8.15,9.13s3.02,8.9,8.01,8.9c1.62,0,3.22-.36,4.28-.87l.5,1.88Z"/>
    <path d="M821.66,603.97c1.23-.22,2.86-.42,4.84-.42,6.89,0,7.45,4.42,7.45,6.1,0,5.01-4,6.8-7.78,6.8-.81,0-1.54-.03-2.18-.2v8.76h-2.32v-21.06Zm2.32,10.36c.59,.17,1.34,.22,2.24,.22,3.36,0,5.4-1.68,5.4-4.73s-2.18-4.4-5.1-4.4c-1.18,0-2.04,.11-2.55,.22v8.68Z"/>
    <path d="M773.28,649.61c2.13-2.24,6.24-6.86,7.84-8.57,.92-.92,1.65-1.37,2.49-1.37,.95,0,1.6,.5,2.69,1.48,3.3,3,8.85,9.13,13.22,14.62l-1.68,1.54c-4.14-5.46-9.74-11.87-12.54-14.45-.67-.67-1.06-1.09-1.6-1.09-.36,0-.84,.42-1.46,1.01-1.32,1.43-5.1,5.82-6.97,7.84,.03,.06,.03,.14,.03,.2,0,.22-.11,.45-.28,.59l-1.74-1.79Z"/>
    <path d="M804.47,643.28c.84,1.71,1.76,4.4,2.1,6.02l-1.57,.42c-.34-1.62-1.2-4.17-2.04-5.96l1.51-.48Zm16.71,.2c-.06,.25-.34,.31-.59,.28-2.18,8.18-6.3,13.19-13.08,15.93-.22-.34-.73-.98-1.09-1.29,6.69-2.63,10.53-7.22,12.57-15.57l2.18,.64Zm-9.91-1.54c.59,1.88,1.12,4.56,1.32,6.36l-1.65,.31c-.17-1.79-.7-4.37-1.32-6.3l1.65-.36Z"/>
    <path d="M845.07,640.65c-.03,.17-.17,.22-.34,.31-1.01,3.39-2.35,6.55-4.06,9.24,1.21,.7,2.69,1.57,3.72,2.3l-1.18,1.82c-1.01-.78-2.55-1.71-3.72-2.41-2.58,3.56-5.8,6.41-10.05,8.4-.28-.48-1.01-1.15-1.51-1.48,4.09-1.85,7.28-4.56,9.83-7.92-2.07-1.15-4.23-2.18-6.27-2.94l1.09-1.54c2.04,.76,4.23,1.74,6.36,2.86,1.43-2.18,2.6-4.87,3.36-7.42h-9.24c-1.79,3.02-4,5.77-6.3,7.64-.34-.34-1.12-.95-1.57-1.26,3.64-2.8,6.86-7.7,8.54-12.49l2.6,.76c-.11,.31-.45,.39-.78,.36-.39,1.01-.9,2.1-1.43,3.11h9.07l.25-.08,1.62,.76Zm-2.58-5.57c1.32,1.04,2.88,2.72,3.72,3.92l-1.06,.87c-.78-1.12-2.44-2.94-3.67-3.92l1.01-.87Zm3.58-1.04c1.32,1.04,2.97,2.69,3.81,3.86l-1.09,.84c-.76-1.15-2.49-2.88-3.7-3.84l.98-.87Z"/>
  </g>
  <g>
    <rect class="c" x="668.89" y="592.25" width="92.02" height="73.6"/>
    <path class="c" d="M760.81,592.51v73.1h-91.84v-73.1h91.84m.19-.51h-92.21v74.11h92.21v-74.11h0Z"/>
  </g>
  <g class="i">
    <path d="M702.61,603.83h2.32v21.34h-2.32v-21.34Z"/>
    <path d="M709.72,604.11c1.23-.22,2.86-.42,4.84-.42,6.89,0,7.45,4.42,7.45,6.1,0,5.01-4,6.8-7.78,6.8-.81,0-1.54-.03-2.18-.2v8.76h-2.32v-21.06Zm2.32,10.36c.59,.17,1.34,.22,2.24,.22,3.36,0,5.4-1.68,5.4-4.73s-2.18-4.4-5.1-4.4c-1.18,0-2.04,.11-2.55,.22v8.68Z"/>
    <path d="M673.88,649.75c2.13-2.24,6.24-6.86,7.84-8.57,.92-.92,1.65-1.37,2.49-1.37,.95,0,1.6,.5,2.69,1.48,3.3,3,8.85,9.13,13.22,14.62l-1.68,1.54c-4.14-5.46-9.74-11.87-12.54-14.45-.67-.67-1.06-1.09-1.6-1.09-.36,0-.84,.42-1.46,1.01-1.32,1.43-5.1,5.82-6.97,7.84,.03,.06,.03,.14,.03,.2,0,.22-.11,.45-.28,.59l-1.74-1.79Z"/>
    <path d="M705.07,643.42c.84,1.71,1.76,4.4,2.1,6.02l-1.57,.42c-.34-1.62-1.2-4.17-2.04-5.96l1.51-.48Zm16.71,.2c-.06,.25-.34,.31-.59,.28-2.18,8.18-6.3,13.19-13.08,15.93-.22-.34-.73-.98-1.09-1.29,6.69-2.63,10.53-7.22,12.57-15.57l2.18,.64Zm-9.91-1.54c.59,1.88,1.12,4.56,1.32,6.36l-1.65,.31c-.17-1.79-.7-4.37-1.32-6.3l1.65-.36Z"/>
    <path d="M745.67,640.79c-.03,.17-.17,.22-.34,.31-1.01,3.39-2.35,6.55-4.06,9.24,1.21,.7,2.69,1.57,3.72,2.3l-1.18,1.82c-1.01-.78-2.55-1.71-3.72-2.41-2.58,3.56-5.8,6.41-10.05,8.4-.28-.48-1.01-1.15-1.51-1.48,4.09-1.85,7.28-4.56,9.83-7.92-2.07-1.15-4.23-2.18-6.27-2.94l1.09-1.54c2.04,.76,4.23,1.74,6.36,2.86,1.43-2.18,2.6-4.87,3.36-7.42h-9.24c-1.79,3.02-4,5.77-6.3,7.64-.34-.34-1.12-.95-1.57-1.26,3.64-2.8,6.86-7.7,8.54-12.49l2.6,.76c-.11,.31-.45,.39-.78,.36-.39,1.01-.9,2.1-1.43,3.11h9.07l.25-.08,1.62,.76Zm-2.58-5.57c1.32,1.04,2.88,2.72,3.72,3.92l-1.06,.87c-.78-1.12-2.44-2.94-3.67-3.92l1.01-.87Zm3.58-1.04c1.32,1.04,2.97,2.69,3.81,3.86l-1.09,.84c-.76-1.15-2.49-2.88-3.7-3.84l.98-.87Z"/>
  </g>
  <g>
    <rect class="e" x="861.13" y="592.25" width="130.33" height="73.49"/>
    <path class="e" d="M991.33,592.51v72.99h-130.06v-72.99h130.06m.26-.51h-130.59v74h130.59v-74h0Z"/>
  </g>
  <g class="i">
    <path d="M910.68,626.84h-9.24l.47,.14c-.03,.17-.25,.31-.56,.34-.73,5.07-3.03,10.11-8.65,12.94-.31-.36-1.04-1.01-1.51-1.37,5.52-2.74,7.45-7,8.09-12.04h-10.7v-1.88h22.09v1.88Zm-4.12-7.64h-15.54v-1.88h15.54v1.88Zm.36-4.12c1.15,1.2,2.44,3.11,3.08,4.42l-1.12,.76c-.59-1.29-1.93-3.28-3.05-4.42l1.09-.76Zm3.3-.95c1.15,1.2,2.49,3.11,3.16,4.4l-1.15,.7c-.59-1.23-1.99-3.22-3.08-4.37l1.06-.73Z"/>
    <path d="M915.39,626.56h23.38v1.99h-22.32c-.17,.28-.53,.48-.9,.53l-.17-2.52Z"/>
    <path d="M962.82,620.57c-.03,.14-.17,.25-.34,.31-1.04,3.47-2.44,6.66-4.12,9.27,1.2,.7,2.58,1.57,3.61,2.32l-1.18,1.85c-1.01-.78-2.44-1.71-3.61-2.44-2.58,3.58-5.88,6.47-10.11,8.51-.31-.48-1.04-1.15-1.54-1.46,4.09-1.9,7.36-4.73,9.91-8.06-2.07-1.15-4.12-2.13-6.19-2.91l1.06-1.57c2.04,.73,4.14,1.68,6.3,2.83,1.46-2.3,2.6-4.73,3.39-7.42h-9.49c-1.71,2.86-4,5.68-6.47,7.7-.36-.34-1.12-.95-1.6-1.26,3.67-2.8,7.14-7.84,8.82-12.63l2.66,.62c-.11,.31-.39,.39-.76,.36-.39,.92-1.04,2.3-1.57,3.33h9.3l.39-.11,1.51,.76Z"/>
  </g>
  <path class="d" d="M656,564.44h12.2v19.39c0,.23,.45,.36,1.06,.36h20.61c.57,0,1.06-.18,1.06-.36v-19.39h12.2l-12.2-13.69v-.27c0-.14-.23-.27-.53-.32l-10.84-12.16-10.84,12.16c-.3,.05-.53,.18-.53,.32v.27l-12.2,13.69Z"/>
  <line class="h" x1="668.33" y1="685.37" x2="668.02" y2="664.56"/>
  <line class="h" x1="991.33" y1="687.37" x2="991" y2="667.56"/>
  <line class="h" x1="668" y1="675" x2="992" y2="675"/>
  <path class="h" d="M576,666.69c3.71,4.7,44.74,16.89,70,25.31,45,15,67,0,80-16"/>
  <g>
    <line class="h" x1="724.71" y1="675.08" x2="726.6" y2="685.1"/>
    <line class="h" x1="725.29" y1="675.85" x2="714.16" y2="680.35"/>
  </g>
  <g class="i">
    <path d="M560.03,714.87l.24-.04,.82,.32c0,.1-.08,.16-.14,.22-1.08,5.68-4.1,9.12-7.92,10.78-.16-.32-.52-.82-.8-1.1,1.88-.72,3.58-2,4.92-3.82-.64-.74-1.72-1.68-2.68-2.34l.9-.78c.88,.56,1.84,1.34,2.52,2.02,.68-1.16,1.22-2.52,1.58-4.04h-3.52c-.88,1.64-1.98,3.1-3.22,4.1-.22-.22-.68-.64-.96-.84,1.9-1.48,3.48-4.12,4.32-6.98l1.58,.46c-.04,.14-.18,.2-.42,.2-.2,.62-.44,1.24-.7,1.84h3.48Zm-6-3.58v2.66h-1.3v-3.9h7.62v-2.48l1.78,.12c-.02,.14-.14,.24-.4,.26v2.1h7.74v3.9h-1.36v-2.66h-14.08Zm9.28,12.38c0,.74,.18,.88,1.18,.88h3.52c.86,0,1.02-.42,1.1-2.68,.32,.24,.86,.46,1.24,.56-.18,2.64-.6,3.4-2.26,3.4h-3.72c-1.84,0-2.38-.42-2.38-2.16v-9.22h5.96l.68,.02c0,5.9-.28,6.26-.46,6.52-.38,.46-.74,.52-1.86,.52-.34,0-.72,0-1.1-.02-.02-.38-.16-.9-.36-1.22,.76,.08,1.46,.08,1.7,.08,.26,0,.42-.02,.54-.2,.18-.26,.24-1.36,.26-4.48h-4.04v8Z"/>
    <path d="M579.39,718.13c-.02,.14-.16,.24-.42,.26-.52,3.52-1.5,6.3-6.18,7.78-.16-.34-.52-.86-.82-1.14,4.36-1.24,5.32-3.72,5.66-7.1l1.76,.2Zm5,5.72c0,.6,.14,.7,.94,.7h2.72c.78,0,.92-.42,1-3.1,.28,.24,.86,.46,1.24,.56-.16,3.06-.54,3.82-2.12,3.82h-2.98c-1.72,0-2.16-.42-2.16-2v-6.14h-10.82v-1.32h8.2v-4.24h-4.34c-.52,1.16-1.12,2.28-1.82,3.16-.3-.2-.82-.5-1.16-.64,1.4-1.72,2.44-4.44,2.94-6.56l1.7,.4c-.06,.14-.18,.2-.44,.2-.18,.64-.4,1.38-.7,2.14h3.82v-3.24l1.76,.1c-.02,.16-.14,.26-.4,.28v2.86h6.78v1.3h-6.78v4.24h8.22v1.32h-5.6v6.16Z"/>
    <path d="M599.55,708.54c-.04,.24-.28,.34-.66,.36-.22,1.12-.58,3.06-.82,4.26,.9-.1,1.72-.18,2.22-.18,3.04-.04,4.08,1.98,4.08,4.98,0,1.5-.28,3.28-.68,4.48-.62,2.04-1.9,3.02-3.56,3.02-.82,0-1.9-.34-3.62-1.74,.22-.36,.38-.8,.54-1.22,1.6,1.24,2.44,1.52,3.06,1.52,1.14,0,1.82-.72,2.22-2,.42-1.24,.64-3.08,.64-4.1-.02-2.28-.76-3.64-2.76-3.62-.6,0-1.42,.08-2.44,.2-1,4.08-2.18,7.58-4.1,10.8l-1.32-.64c1.94-3.1,3.04-6.2,3.98-10-1.02,.12-2.48,.3-3.56,.48l-.12-1.4c.98-.12,2.62-.3,3.96-.46,.3-1.46,.62-3.26,.86-5.02l2.08,.28Zm4.64-.62c.96,.74,2.1,1.94,2.68,2.8l-.78,.56c-.56-.86-1.76-2.12-2.64-2.78l.74-.58Zm4.48,11.64c-.66-2.88-2.24-5.3-4.08-6.82l1.16-.78c1.98,1.66,3.7,4.16,4.36,7.06l-1.44,.54Zm-1.46-12.42c.98,.72,2.12,1.92,2.7,2.78l-.78,.58c-.56-.86-1.76-2.14-2.64-2.8l.72-.56Z"/>
    <path d="M621.53,707.91c-.06,.12-.2,.2-.44,.22-.22,.64-.56,1.5-.88,2.24h7.26v15.72h-1.4v-1.06h-10.9v1.18h-1.34v-15.84h4.96c.36-.88,.72-2.02,.9-2.82l1.84,.36Zm4.54,3.78h-10.9v3.2h10.9v-3.2Zm0,4.46h-10.9v3.16h10.9v-3.16Zm-10.9,7.6h10.9v-3.18h-10.9v3.18Z"/>
    <path d="M638.11,708.61c-.08,.14-.22,.2-.48,.18-1.4,3.16-3.72,6.12-6.26,7.92-.24-.26-.72-.72-1.06-.96,2.48-1.68,4.78-4.58,6.08-7.72l1.72,.58Zm7,6.68l.32-.02,.76,.08c0,.14-.02,.32-.02,.48-.32,6.46-.62,8.78-1.32,9.54-.56,.64-1.16,.7-2.38,.7-.68,0-1.54-.02-2.4-.08-.02-.4-.2-.96-.44-1.34,1.36,.12,2.66,.14,3.14,.14,.42,0,.66-.04,.86-.26,.52-.52,.84-2.6,1.1-7.92h-5.5c-.54,3.84-1.66,7.72-7.02,9.64-.18-.34-.54-.86-.86-1.14,4.84-1.62,5.98-4.98,6.46-8.5h-4.3v-1.32h11.6Zm-1.76-7.3c1.32,2.76,3.94,5.86,6.16,7.38-.36,.28-.86,.82-1.12,1.2-2.24-1.78-4.82-5.06-6.32-8.06l1.28-.52Z"/>
    <path d="M650.93,710.29c1.5-.06,13.82-.94,16.42-.96l.02,1.5c-.26-.02-.5-.02-.74-.02-1.16,0-2.14,.2-3.42,1.02-3,1.8-5.9,5.02-5.9,7.6,0,2.8,1.96,4.46,6.92,5.1l-.66,1.4c-5.68-.82-7.8-2.94-7.8-6.5,0-2.82,2.78-6.24,6.44-8.54-2.2,.16-8.1,.6-10.68,.84-.06,.16-.28,.3-.44,.32l-.16-1.76Zm12.96,3.94c.96,.72,2.1,1.9,2.72,2.76l-.76,.62c-.56-.88-1.78-2.12-2.64-2.78l.68-.6Zm2.16-1.76c.98,.72,2.14,1.88,2.72,2.76l-.76,.6c-.54-.8-1.7-2.04-2.64-2.76l.68-.6Z"/>
    <path d="M682.49,714.15c-.06,.26-.12,.52-.2,.76,3.52,.62,4.82,2.82,4.82,5.18,0,3.18-2.72,5.1-7.72,5.66-.08-.28-.36-.88-.54-1.2,4.14-.4,6.8-1.84,6.8-4.42v-.14c-.1-2.32-1.66-3.46-3.8-3.82-.86,2.26-2.32,4.36-3.98,5.88,.14,.42,.32,.78,.52,1.08l-1.18,.74c-.18-.28-.34-.62-.48-1-1.6,1.18-2.88,1.5-3.78,1.5-1.6,0-2.42-1.18-2.42-2.66,0-2.76,2.28-4.96,5.18-6.12-.04-1.04-.04-2.18-.02-3.36-3.38,0-3.74,0-4.4-.04l-.04-1.32c1.02,.06,2.76,.06,4.48,.06,.02-.92,.06-2.04,.1-2.98l2,.14c-.02,.2-.22,.36-.52,.4-.06,.74-.1,1.66-.16,2.4,2.18-.06,6-.32,8.02-.84l.18,1.36c-2.12,.52-5.98,.72-8.26,.78-.04,1.04-.06,2.04-.04,2.98,1.4-.44,2.66-.46,3-.46,.3,0,.56,0,.82,.02,.08-.32,.14-.62,.2-.94l1.42,.36Zm-6.14,7.46c-.32-1.24-.5-2.82-.58-4.68-2.18,.96-3.88,2.62-3.88,4.56,0,1.18,.66,1.58,1.38,1.54,.94-.02,2.02-.56,3.08-1.42Zm4.1-5.62c-.32-.02-1.88-.06-3.38,.48,.04,1.62,.18,3,.46,4.12,1.2-1.22,2.28-2.84,2.92-4.6Z"/>
    <path d="M695.01,716.37c1.32-.68,3.38-1.16,4.96-1.16,3.18,0,5.18,1.86,5.18,4.8,0,3.62-3.18,5.62-7.2,5.62-2.6,0-4.38-1.04-4.38-2.8,0-1.48,1.46-2.68,3.28-2.68,2.26,0,3.78,1.8,4.08,3.62,1.6-.6,2.76-1.88,2.76-3.74,0-2.16-1.6-3.54-4.12-3.54-3,0-5.94,1.34-7.26,2.62-.6,.56-1.38,1.4-1.92,2.02l-1.02-1.02c1.8-1.88,7.52-7.34,10.24-9.88-1.16,.16-5.16,.32-7.44,.4-.06,.14-.26,.26-.42,.3l-.16-1.7c2.7-.02,7.86-.22,9.32-.44l.3-.14,1.06,1.3c-.1,.08-.28,.16-.48,.18-1.42,1.16-5.22,4.72-6.78,6.22v.02Zm2.76,8c.6,0,1.3-.08,1.82-.2-.22-1.54-1.36-2.84-2.84-2.84-1.04,0-1.96,.56-1.96,1.48,0,1.22,1.66,1.56,2.98,1.56Z"/>
    <path d="M721.96,724.11c-1.76,.32-4.08,.46-6.08,.46-1.68,0-3.14-.1-3.92-.26-2.42-.54-3.46-2.06-3.46-3.82,0-1.54,.86-3.08,2.04-4.28l1.16,.6c-1.12,1.16-1.76,2.44-1.76,3.56s.78,2.22,2.5,2.6c.7,.16,1.88,.24,3.26,.24,1.94,0,4.26-.16,6.16-.54l.1,1.44Zm-8.98-10.1c1.04-.8,2.46-1.78,3.54-2.32v-.02c-1.52,.18-5,.26-7.22,.24,0-.38,0-1.04-.02-1.4,.44,.02,8.12,.14,11.4-.64l.16,1.48c-2.38,.28-5.44,2.36-6.72,3.38l-1.14-.72Z"/>
    <path d="M738.24,714.69s-.1,.02-.16,.02c-.14,0-.3-.04-.42-.12-5.94,1.74-11.32,4.36-11.3,7.04,0,1.92,2.12,2.58,5.36,2.58s5.68-.24,7.08-.46l.12,1.46c-1.84,.24-4.82,.36-7.16,.36-3.96,0-6.84-.92-6.86-3.86-.02-2.14,2.12-4.02,5.26-5.64-.68-1.22-.92-3.54-.92-8.06l2.2,.18c-.02,.26-.22,.42-.62,.48-.02,3.5,.1,5.68,.66,6.76,1.88-.88,4.04-1.68,6.24-2.4l.52,1.66Z"/>
    <path d="M741.65,720.65c1.48,1.18,3.44,3.16,4.52,4.42l-1.2,1.1c-1-1.28-3.04-3.38-4.38-4.58l1.06-.94Z"/>
    <path d="M760.31,723.85h9.08v1.36h-18.18v-1.36h7.7v-15.94l1.82,.12c-.02,.14-.14,.24-.42,.28v5.92h7.68v1.36h-7.68v8.26Z"/>
    <path d="M773.71,714.65c-.76,1.26-1.6,2.38-2.44,3.34-.14-.32-.48-.94-.7-1.26,1.92-2.08,3.84-5.54,5-9l1.6,.54c-.08,.14-.22,.2-.46,.18-.52,1.4-1.14,2.8-1.84,4.14l.54,.14c-.04,.12-.14,.22-.4,.24v13.26h-1.3v-11.58Zm2.54,9.26h13.42v1.3h-13.42v-1.3Zm.5-12.28h5.38v-4l1.74,.1c-.02,.16-.12,.24-.4,.28v3.62h5.68v1.3h-12.4v-1.3Zm2.78,2.66c.8,2.72,1.52,6.2,1.7,8.24l-1.34,.28c-.16-2.02-.82-5.6-1.58-8.3l1.22-.22Zm8.4,.34c-.04,.14-.22,.24-.46,.24-.52,2.42-1.44,5.92-2.24,8.06,0,0-1.16-.36-1.16-.38,.78-2.16,1.68-5.8,2.14-8.38l1.72,.46Z"/>
    <path d="M798.75,708.54c-.04,.24-.28,.34-.66,.36-.22,1.12-.58,3.06-.82,4.26,.9-.1,1.72-.18,2.22-.18,3.04-.04,4.08,1.98,4.08,4.98,0,1.5-.28,3.28-.68,4.48-.62,2.04-1.9,3.02-3.56,3.02-.82,0-1.9-.34-3.62-1.74,.22-.36,.38-.8,.54-1.22,1.6,1.24,2.44,1.52,3.06,1.52,1.14,0,1.82-.72,2.22-2,.42-1.24,.64-3.08,.64-4.1-.02-2.28-.76-3.64-2.76-3.62-.6,0-1.42,.08-2.44,.2-1,4.08-2.18,7.58-4.1,10.8l-1.32-.64c1.94-3.1,3.04-6.2,3.98-10-1.02,.12-2.48,.3-3.56,.48l-.12-1.4c.98-.12,2.62-.3,3.96-.46,.3-1.46,.62-3.26,.86-5.02l2.08,.28Zm4.64-.62c.96,.74,2.1,1.94,2.68,2.8l-.78,.56c-.56-.86-1.76-2.12-2.64-2.78l.74-.58Zm4.48,11.64c-.66-2.88-2.24-5.3-4.08-6.82l1.16-.78c1.98,1.66,3.7,4.16,4.36,7.06l-1.44,.54Zm-1.46-12.42c.98,.72,2.12,1.92,2.7,2.78l-.78,.58c-.56-.86-1.76-2.14-2.64-2.8l.72-.56Z"/>
    <path d="M811.99,709.23h1.66v15.24h-1.66v-15.24Z"/>
    <path d="M817.07,709.43c.88-.16,2.04-.3,3.46-.3,4.92,0,5.32,3.16,5.32,4.36,0,3.58-2.86,4.86-5.56,4.86-.58,0-1.1-.02-1.56-.14v6.26h-1.66v-15.04Zm1.66,7.4c.42,.12,.96,.16,1.6,.16,2.4,0,3.86-1.2,3.86-3.38s-1.56-3.14-3.64-3.14c-.84,0-1.46,.08-1.82,.16v6.2Z"/>
    <path d="M827.81,710.29c1.5-.06,13.82-.94,16.42-.96l.02,1.5c-.26-.02-.5-.02-.74-.02-1.16,0-2.14,.2-3.42,1.02-3,1.8-5.9,5.02-5.9,7.6,0,2.8,1.96,4.46,6.92,5.1l-.66,1.4c-5.68-.82-7.8-2.94-7.8-6.5,0-2.82,2.78-6.24,6.44-8.54-2.2,.16-8.1,.6-10.68,.84-.06,.16-.28,.3-.44,.32l-.16-1.76Zm12.96,3.94c.96,.72,2.1,1.9,2.72,2.76l-.76,.62c-.56-.88-1.78-2.12-2.64-2.78l.68-.6Zm2.16-1.76c.98,.72,2.14,1.88,2.72,2.76l-.76,.6c-.54-.8-1.7-2.04-2.64-2.76l.68-.6Z"/>
    <path d="M859.38,714.15c-.06,.26-.12,.52-.2,.76,3.52,.62,4.82,2.82,4.82,5.18,0,3.18-2.72,5.1-7.72,5.66-.08-.28-.36-.88-.54-1.2,4.14-.4,6.8-1.84,6.8-4.42v-.14c-.1-2.32-1.66-3.46-3.8-3.82-.86,2.26-2.32,4.36-3.98,5.88,.14,.42,.32,.78,.52,1.08l-1.18,.74c-.18-.28-.34-.62-.48-1-1.6,1.18-2.88,1.5-3.78,1.5-1.6,0-2.42-1.18-2.42-2.66,0-2.76,2.28-4.96,5.18-6.12-.04-1.04-.04-2.18-.02-3.36-3.38,0-3.74,0-4.4-.04l-.04-1.32c1.02,.06,2.76,.06,4.48,.06,.02-.92,.06-2.04,.1-2.98l2,.14c-.02,.2-.22,.36-.52,.4-.06,.74-.1,1.66-.16,2.4,2.18-.06,6-.32,8.02-.84l.18,1.36c-2.12,.52-5.98,.72-8.26,.78-.04,1.04-.06,2.04-.04,2.98,1.4-.44,2.66-.46,3-.46,.3,0,.56,0,.82,.02,.08-.32,.14-.62,.2-.94l1.42,.36Zm-6.14,7.46c-.32-1.24-.5-2.82-.58-4.68-2.18,.96-3.88,2.62-3.88,4.56,0,1.18,.66,1.58,1.38,1.54,.94-.02,2.02-.56,3.08-1.42Zm4.1-5.62c-.32-.02-1.88-.06-3.38,.48,.04,1.62,.18,3,.46,4.12,1.2-1.22,2.28-2.84,2.92-4.6Z"/>
    <path d="M871.89,716.37c1.32-.68,3.38-1.16,4.96-1.16,3.18,0,5.18,1.86,5.18,4.8,0,3.62-3.18,5.62-7.2,5.62-2.6,0-4.38-1.04-4.38-2.8,0-1.48,1.46-2.68,3.28-2.68,2.26,0,3.78,1.8,4.08,3.62,1.6-.6,2.76-1.88,2.76-3.74,0-2.16-1.6-3.54-4.12-3.54-3,0-5.94,1.34-7.26,2.62-.6,.56-1.38,1.4-1.92,2.02l-1.02-1.02c1.8-1.88,7.52-7.34,10.24-9.88-1.16,.16-5.16,.32-7.44,.4-.06,.14-.26,.26-.42,.3l-.16-1.7c2.7-.02,7.86-.22,9.32-.44l.3-.14,1.06,1.3c-.1,.08-.28,.16-.48,.18-1.42,1.16-5.22,4.72-6.78,6.22v.02Zm2.76,8c.6,0,1.3-.08,1.82-.2-.22-1.54-1.36-2.84-2.84-2.84-1.04,0-1.96,.56-1.96,1.48,0,1.22,1.66,1.56,2.98,1.56Z"/>
    <path d="M898.84,724.11c-1.76,.32-4.08,.46-6.08,.46-1.68,0-3.14-.1-3.92-.26-2.42-.54-3.46-2.06-3.46-3.82,0-1.54,.86-3.08,2.04-4.28l1.16,.6c-1.12,1.16-1.76,2.44-1.76,3.56s.78,2.22,2.5,2.6c.7,.16,1.88,.24,3.26,.24,1.94,0,4.26-.16,6.16-.54l.1,1.44Zm-8.98-10.1c1.04-.8,2.46-1.78,3.54-2.32v-.02c-1.52,.18-5,.26-7.22,.24,0-.38,0-1.04-.02-1.4,.44,.02,8.12,.14,11.4-.64l.16,1.48c-2.38,.28-5.44,2.36-6.72,3.38l-1.14-.72Z"/>
    <path d="M915.12,714.69s-.1,.02-.16,.02c-.14,0-.3-.04-.42-.12-5.94,1.74-11.32,4.36-11.3,7.04,0,1.92,2.12,2.58,5.36,2.58s5.68-.24,7.08-.46l.12,1.46c-1.84,.24-4.82,.36-7.16,.36-3.96,0-6.84-.92-6.86-3.86-.02-2.14,2.12-4.02,5.26-5.64-.68-1.22-.92-3.54-.92-8.06l2.2,.18c-.02,.26-.22,.42-.62,.48-.02,3.5,.1,5.68,.66,6.76,1.88-.88,4.04-1.68,6.24-2.4l.52,1.66Z"/>
    <path d="M935.12,716.15s-.08,.04-.12,.04c-.12,0-.22-.06-.3-.12-1.52,.5-3.74,1.32-5.4,2.04,.04,.46,.06,.98,.06,1.56,0,.64-.02,1.36-.06,2.14l-1.46,.08c.06-.72,.1-1.64,.1-2.42,0-.3,0-.58-.02-.8-2.26,1.1-4.1,2.44-4.1,3.64s1.38,1.72,4.14,1.72c1.94,0,3.74-.04,5.02-.2l.02,1.34c-1.18,.12-2.98,.16-5.04,.16-3.84,0-5.54-.92-5.54-2.96,0-1.76,2.32-3.46,5.32-4.96-.12-1.26-.68-1.88-1.48-1.88-1.46,0-2.98,.82-4.78,2.82-.56,.62-1.34,1.4-2.2,2.18l-.98-.98c2-1.76,3.88-3.44,5.04-7.38l-1.12,.02h-3.34v-1.3c1.22,.02,2.64,.02,3.46,.02l1.36-.02c.22-.92,.4-1.78,.54-2.86l1.96,.24c-.04,.2-.2,.32-.5,.36-.14,.8-.32,1.5-.5,2.22,1.36-.02,4.28-.34,6.88-1.16l.24,1.34c-2.5,.78-5.52,1.06-7.5,1.12-.48,1.5-.98,2.7-1.44,3.38h.02c.88-.78,2.2-1.3,3.22-1.3,1.36,0,2.22,.98,2.48,2.6,1.68-.76,3.8-1.58,5.4-2.2l.62,1.52Z"/>
    <path d="M944.25,710.97v1.12h-7.2v-1.12h7.2Zm-.56,8.16v5.88h-4.6v.94h-1.16v-6.82h5.76Zm-.02-5.44v1.1h-5.72v-1.1h5.72Zm-5.72,3.82v-1.1h5.72v1.1h-5.72Zm5.64-9.2v1.1h-5.54v-1.1h5.54Zm-1.08,11.96h-3.42v3.6h3.42v-3.6Zm4.16-.06c-.24,1.74-.68,3.64-1.76,4.76l-1.02-.68c.98-.98,1.46-2.74,1.66-4.38l1.12,.3Zm3.5-10.68c-.16,.86-.36,1.78-.66,2.68,.96,.48,1.84,.98,2.46,1.42l-.68,1.06c-.56-.42-1.36-.9-2.24-1.38-.72,1.52-1.84,2.9-3.72,3.84-.16-.28-.56-.74-.84-.96,1.72-.82,2.78-2.06,3.46-3.44-.9-.44-1.84-.84-2.7-1.14l.66-.96c.8,.28,1.64,.62,2.48,1,.24-.7,.4-1.42,.52-2.12h-3.5v-1.16h8.42l.58-.02,.72,.08c-.12,.78-.12,6.74-.94,7.66-.48,.58-.98,.58-1.92,.58-.5,0-1.12-.02-1.74-.06-.02-.36-.14-.86-.36-1.18,1.06,.08,1.5,.08,2.4,.08,.24,0,.38-.04,.52-.2,.34-.4,.54-1.86,.7-5.78h-3.62Zm-1.36,14.58c0,.46,.08,.54,.66,.54h1.96c.52,0,.62-.26,.66-2.26,.28,.2,.8,.4,1.14,.5-.12,2.38-.48,2.96-1.68,2.96h-2.24c-1.42,0-1.76-.38-1.76-1.74v-4.8l1.64,.12c-.02,.12-.14,.22-.38,.26v4.42Zm2.52-4.06c-.72-.86-2.24-2.06-3.56-2.84l.86-.78c1.3,.76,2.86,1.9,3.6,2.76l-.9,.86Zm3.42,4.88c-.26-1.36-1.16-3.38-2.22-4.86l1.1-.44c1.1,1.46,2.02,3.44,2.34,4.8l-1.22,.5Z"/>
    <path d="M963.27,710.97v1.12h-6.22v-1.12h6.22Zm-.48,8.16v5.86h-3.86v.96h-1.1v-6.82h4.96Zm-.04-5.44v1.1h-4.88v-1.1h4.88Zm-4.88,3.82v-1.1h4.88v1.1h-4.88Zm4.84-9.2v1.1h-4.74v-1.1h4.74Zm-1.06,11.94h-2.72v3.6h2.72v-3.6Zm10.42-4.56c.06,1.64,.16,3.14,.3,4.42,.6-1.08,1.08-2.26,1.44-3.56l1.3,.64c-.04,.12-.16,.16-.34,.16-.5,1.64-1.24,3.16-2.14,4.48,.36,1.82,.98,3.12,1.7,3.12,.34,0,.6-1.3,.78-2.94,.24,.28,.6,.56,.84,.68-.26,2.36-.74,3.54-1.66,3.54-1.24,0-2.08-1.2-2.58-3.16-1,1.2-2.18,2.22-3.44,3-.16-.22-.52-.58-.78-.78,1.48-.88,2.82-2.1,3.92-3.64-.28-1.64-.44-3.68-.54-5.96h-7.9v-1.12h7.86c-.06-2.14-.1-4.5-.12-6.96l1.66,.06c0,.16-.12,.28-.4,.32-.02,2.34,0,4.56,.06,6.58h3.44v1.12h-3.4Zm-1.88-5.84v1.08h-6.66v-1.08h2.76v-2.26l1.62,.1c-.02,.14-.12,.24-.38,.28v1.88h2.66Zm-.54,13.74h-4.46v1.14h-1.1v-7.86h5.56v6.72Zm-4.26-12.4c.36,.94,.62,2.18,.66,2.98l-1.06,.22c-.02-.8-.26-2.02-.6-2.98l1-.22Zm3.1,6.72h-3.3v1.78h3.3v-1.78Zm-3.3,4.64h3.3v-1.86h-3.3v1.86Zm4.48-11.14c-.04,.12-.18,.2-.4,.2-.2,.82-.56,2.12-.88,2.92l-.92-.28c.28-.88,.62-2.28,.76-3.2l1.44,.36Zm3.8-2.92c.92,1.06,1.8,2.54,2.16,3.56l-1.12,.5c-.32-1.04-1.18-2.54-2.08-3.64l1.04-.42Z"/>
  </g>
  <g class="i">
    <path d="M641.99,78.81c-.1,.26-.35,.45-.83,.48-1.28,7.68-3.94,15.78-7.68,20.51-.58-.45-1.44-.86-2.14-1.15,3.58-4.35,6.4-12.48,7.42-20.51l3.23,.67Zm16.09,20.8c-1.5-5.6-5.22-14.69-8.51-20.61l2.08-.99c3.36,5.73,7.1,14.75,8.77,20.67l-2.34,.93Zm-.42-27.2c1.98,0,3.58,1.6,3.58,3.62s-1.6,3.58-3.58,3.58-3.58-1.63-3.58-3.58c0-2.08,1.66-3.62,3.58-3.62Zm2.53,3.62c0-1.44-1.15-2.56-2.53-2.56s-2.53,1.12-2.53,2.56,1.12,2.53,2.53,2.53,2.53-1.22,2.53-2.53Z"/>
    <path d="M690.5,81.43v2.18h-7.93c-.1,.19-.29,.35-.58,.38-.96,7.42-3.97,13.89-10.72,17.79-.51-.48-1.38-1.06-1.98-1.44,6.56-3.55,9.6-9.57,10.4-16.73h-8.89c-1.47,2.62-3.33,4.99-5.06,6.59-.48-.35-1.38-.83-2.02-1.12,3.46-2.98,7.17-9.21,8.7-15.17l3.07,.7c-.06,.22-.35,.48-.86,.48-.67,1.98-1.76,4.42-2.72,6.33h18.59Z"/>
    <path d="M697.03,82.39c.96,1.95,2.02,5.02,2.4,6.88l-1.79,.48c-.38-1.86-1.38-4.77-2.34-6.82l1.73-.54Zm19.1,.22c-.06,.29-.38,.35-.67,.32-2.5,9.34-7.2,15.07-14.94,18.21-.26-.38-.83-1.12-1.25-1.47,7.65-3.01,12.03-8.26,14.37-17.79l2.5,.74Zm-11.33-1.76c.67,2.14,1.28,5.21,1.5,7.26l-1.89,.35c-.19-2.05-.8-4.99-1.5-7.2l1.89-.42Z"/>
    <path d="M739.46,90.84c-3.26-1.76-7.74-3.84-11.23-5.22v16h-2.4v-27.81l3.23,.19c-.03,.35-.29,.58-.83,.67v9.34l.48-.67c3.74,1.38,8.7,3.58,12.03,5.34l-1.28,2.14Z"/>
    <path d="M762.05,78.74c-.13,.29-.38,.51-.8,.51-1.15,9.95-4.48,18.62-9.79,18.62-2.69,0-5.12-2.69-5.12-7.74,0-7.68,5.98-14.11,14.4-14.11,9.25,0,13.25,5.86,13.25,12.09,0,7.62-4.42,11.3-12.16,13.09-.29-.51-.83-1.38-1.34-1.95,7.36-1.41,11.13-4.99,11.13-11.04,0-5.28-3.39-10.08-10.88-10.08-.32,0-.67,.03-.96,.06l2.27,.54Zm-3.07-.42c-6.46,.8-10.46,6.14-10.46,11.74,0,3.42,1.47,5.57,3.01,5.57,3.87,0,6.66-8.54,7.46-17.31Z"/>
    <path d="M800.74,88.02l1.6,.93c-.06,.16-.26,.26-.45,.32-1.7,3.36-4.29,6.02-7.42,8.06,3.52,1.63,7.68,2.75,12.25,3.33-.48,.51-1.06,1.44-1.38,2.08-4.93-.74-9.34-2.11-13.05-4.13-3.78,1.98-8.16,3.29-12.74,4.13-.26-.58-.83-1.54-1.28-2.02,4.26-.64,8.38-1.73,11.9-3.39-2.66-1.79-4.83-3.97-6.46-6.59l1.7-.7h-3.26v-1.92h18.17l.42-.1Zm-20.32-3.81v4.83h-2.05v-6.75h5.22c-.42-1.22-1.34-2.94-2.21-4.26l1.92-.58c.96,1.38,1.98,3.23,2.37,4.42l-1.22,.42h13.57c1.12-1.63,2.46-4.03,3.23-5.7l2.56,.96c-.1,.19-.35,.26-.67,.26-.7,1.31-1.82,3.04-2.85,4.48h5.79v6.75h-2.11v-4.83h-23.55Zm23.77-9.41c-.1,.06-.19,.1-.35,.1-.1,0-.19-.03-.32-.06-5.86,1.18-15.9,2.05-24.32,2.4-.03-.54-.32-1.34-.51-1.86,8.35-.35,18.37-1.25,23.87-2.43l1.63,1.86Zm-18.49,15.23c1.57,2.46,3.84,4.51,6.66,6.18,2.72-1.6,4.99-3.65,6.53-6.18h-13.18Zm6.08-13.09c.77,1.5,1.57,3.55,1.79,4.77l-2.08,.54c-.19-1.28-.93-3.33-1.66-4.9l1.95-.42Z"/>
    <path d="M813.67,84.21c-1.22,2.02-2.56,3.81-3.9,5.34-.22-.51-.77-1.5-1.12-2.02,3.07-3.33,6.14-8.86,8-14.4l2.56,.86c-.13,.22-.35,.32-.74,.29-.83,2.24-1.82,4.48-2.94,6.62l.86,.22c-.06,.19-.22,.35-.64,.38v21.21h-2.08v-18.53Zm4.29-5.25h21.12v1.82h-21.12v-1.82Zm2.37,23.68v-10.27h16.54v10.18h-2.18v-1.5h-12.29v1.6h-2.08Zm16.26-19.2v1.79h-15.94v-1.79h15.94Zm-15.94,6.27v-1.79h15.9v1.79h-15.9Zm15.36-15.23v1.79h-15.01v-1.79h15.01Zm-1.31,19.68h-12.29v5.09h12.29v-5.09Z"/>
    <path d="M854.5,78.74c0,.16-.06,.32-.13,.45-.51,6.53-1.7,11.49-3.58,15.29,3.68,4.45,8.61,5.34,13.89,5.34h6.27c-.35,.51-.7,1.5-.83,2.08h-5.54c-5.73,0-10.94-1.02-14.81-5.57-1.73,2.78-3.94,4.86-6.59,6.37-.32-.51-.9-1.31-1.34-1.73,2.66-1.38,4.86-3.49,6.59-6.5-1.34-2.05-2.43-4.61-3.3-7.87-.67,1.82-1.44,3.42-2.3,4.77-.32-.38-1.06-1.12-1.5-1.47,2.43-3.71,3.84-10.27,4.64-16.99l2.72,.51c-.1,.26-.29,.38-.71,.38-.22,1.57-.45,3.14-.74,4.67h5.7l.38-.06,1.18,.32Zm-7.65,1.63c-.22,1.06-.48,2.08-.74,3.1,.8,3.81,1.92,6.75,3.3,9.02,1.41-3.17,2.37-7.2,2.82-12.13h-5.38Zm12.29-3.26v4.51c0,4.38-.51,10.62-3.62,14.91-.38-.35-1.25-.93-1.73-1.15,2.98-4.1,3.33-9.73,3.33-13.79v-6.37h9.66v17.31c0,1.57,.03,1.82,.67,1.82,1.09,0,1.22,0,1.38-.26,.38-.32,.38-3.49,.38-5.47,.42,.35,1.06,.67,1.6,.83-.1,5.28-.19,6.75-2.5,6.75h-1.38c-2.24,0-2.24-1.5-2.24-3.9v-15.2h-5.57Z"/>
    <path d="M879.91,86.23v7.94l4.35-1.28c.03,.19,.06,.38,.26,1.86-3.71,1.18-7.65,2.46-10.11,3.2-.03,.26-.22,.42-.42,.48l-.87-2.37c1.31-.32,2.91-.77,4.7-1.28v-8.54h-3.97v-2.02h3.97v-7.2h-4.29v-2.05h10.56v2.05h-4.19v7.2h3.87v2.02h-3.87Zm14.53,13.41h8.96v1.98h-20.58v-1.98h9.6v-4.96h-7.49v-1.95h7.49v-3.74h-7.29v-14.21h16.8v14.21h-7.49v3.74h7.94v1.95h-7.94v4.96Zm-7.36-22.97v4.29h5.34v-4.29h-5.34Zm0,10.43h5.34v-4.35h-5.34v4.35Zm12.83-6.14v-4.29h-5.47v4.29h5.47Zm0,6.14v-4.35h-5.47v4.35h5.47Z"/>
    <path d="M691.78,128.02c2.43-2.56,7.13-7.84,8.96-9.79,1.06-1.06,1.89-1.57,2.85-1.57,1.09,0,1.82,.58,3.07,1.7,3.78,3.42,10.11,10.43,15.1,16.7l-1.92,1.76c-4.74-6.24-11.14-13.57-14.33-16.51-.77-.77-1.22-1.25-1.82-1.25-.42,0-.96,.48-1.66,1.15-1.5,1.63-5.82,6.66-7.97,8.96,.03,.06,.03,.16,.03,.22,0,.26-.13,.51-.32,.67l-1.98-2.05Z"/>
    <path d="M727.43,120.79c.96,1.95,2.02,5.02,2.4,6.88l-1.79,.48c-.38-1.86-1.38-4.77-2.34-6.82l1.73-.54Zm19.1,.22c-.06,.29-.38,.35-.67,.32-2.5,9.34-7.2,15.07-14.94,18.21-.26-.38-.83-1.12-1.25-1.47,7.65-3.01,12.03-8.26,14.37-17.79l2.5,.74Zm-11.33-1.76c.67,2.14,1.28,5.21,1.5,7.26l-1.89,.35c-.19-2.05-.8-4.99-1.5-7.2l1.89-.42Z"/>
    <path d="M773.83,117.78c-.03,.19-.19,.26-.38,.35-1.15,3.87-2.69,7.49-4.64,10.56,1.38,.8,3.07,1.79,4.26,2.62l-1.34,2.08c-1.15-.9-2.91-1.95-4.26-2.75-2.94,4.06-6.62,7.33-11.49,9.6-.32-.54-1.15-1.31-1.73-1.7,4.67-2.11,8.32-5.21,11.23-9.05-2.37-1.31-4.83-2.5-7.17-3.36l1.25-1.76c2.34,.86,4.83,1.98,7.26,3.26,1.63-2.5,2.98-5.57,3.84-8.48h-10.56c-2.05,3.46-4.58,6.59-7.2,8.74-.38-.38-1.28-1.09-1.79-1.44,4.16-3.2,7.84-8.8,9.76-14.27l2.97,.86c-.13,.35-.51,.45-.9,.42-.45,1.15-1.02,2.4-1.63,3.55h10.37l.29-.1,1.86,.86Zm-2.94-6.37c1.5,1.18,3.3,3.1,4.26,4.48l-1.22,.99c-.9-1.28-2.78-3.36-4.19-4.48l1.15-.99Zm4.1-1.18c1.5,1.18,3.39,3.07,4.35,4.42l-1.25,.96c-.86-1.31-2.85-3.29-4.22-4.38l1.12-.99Z"/>
    <path d="M794.05,119.57v19.07c0,2.4-1.34,2.4-5.41,2.4-.1-.51-.42-1.34-.7-1.86,1.02,.03,1.95,.06,2.62,.06,1.47,0,1.63,0,1.63-.64v-6.18h-7.78c-.26,3.04-.96,6.3-2.5,8.7-.32-.29-1.15-.8-1.57-.99,2.21-3.46,2.43-8.29,2.43-11.94v-6.5c-.32,.42-.64,.83-.96,1.18-.35-.32-1.06-.9-1.54-1.18,2.14-2.34,4-6.37,5.09-10.4l2.46,.67c-.06,.22-.26,.32-.64,.32-.19,.64-.38,1.25-.61,1.89h4.1l.32-.1,1.47,.96c-.06,.13-.26,.19-.42,.26-.51,1.25-1.34,2.88-2.11,4.25h4.1Zm-6.08,0c.61-1.02,1.22-2.37,1.7-3.62h-3.74c-.54,1.28-1.12,2.5-1.76,3.62h3.81Zm-3.36,7.2v1.44c0,.77,0,1.63-.06,2.5h2.98v-3.94h-2.91Zm0-5.47v3.78h2.91v-3.78h-2.91Zm4.54,0v3.78h3.04v-3.78h-3.04Zm0,9.41h3.04v-3.94h-3.04v3.94Zm20.35-17.66c0,.22-.03,.45-.06,.67-.29,5.44-.54,7.46-1.25,8.22-.42,.51-.93,.77-2.4,.77-.74,0-1.73-.03-2.72-.06-.03-.54-.22-1.31-.51-1.82,1.34,.16,2.59,.16,3.04,.16,.48,0,.77-.03,.96-.29,.38-.45,.64-1.98,.86-5.86h-5.5c-.67,3.55-2.08,7.01-6.34,8.96-.26-.45-.8-1.15-1.25-1.5,3.58-1.5,4.96-4.29,5.57-7.46h-4.54v-1.86h12.61l.42-.03,1.12,.1Zm.8,20.13v1.92h-6.53v5.98h-2.08v-5.98h-6.78v-1.92h6.78v-4.19h-3.68c-.45,1.18-1.02,2.24-1.63,3.07-.35-.29-1.02-.77-1.47-1.02,1.25-1.63,2.14-4.48,2.66-7.29l2.37,.58c-.06,.19-.26,.32-.61,.32-.19,.8-.38,1.63-.64,2.46h3.01v-3.9l2.69,.16c-.03,.22-.19,.38-.61,.45v3.3h5.34v1.89h-5.34v4.19h6.53Z"/>
    <path d="M820.13,123.54c1.09,1.18,3.94,4.61,4.58,5.47l-1.38,1.76c-.61-1.06-2.02-3.14-3.2-4.74v14.94h-2.08v-16.1c-1.25,3.9-2.98,7.71-4.74,10.02-.26-.61-.8-1.44-1.18-1.95,2.24-2.78,4.51-8,5.6-12.58h-4.83v-2.05h5.15v-7.04l2.69,.19c-.03,.22-.19,.35-.61,.42v6.43h4.51v2.05h-4.51v3.17Zm22.17-1.09v2.05h-4.93v16.54h-2.11v-16.54h-6.21c-.13,5.02-.9,11.55-4.51,16.42-.29-.48-1.09-1.15-1.63-1.44,3.65-4.86,4.03-11.42,4.03-16.35v-9.09l1.86,.54c3.74-.74,7.78-1.82,10.14-2.91l2.02,1.79c-.13,.13-.19,.13-.64,.13-2.72,1.06-7.2,2.14-11.26,2.88v5.98h13.25Z"/>
  </g>
</svg>