<?xml version="1.0" encoding="UTF-8"?>
<svg id="a" data-name="レイヤー 1" xmlns="http://www.w3.org/2000/svg" viewBox="0 0 1025 769">
  <defs>
    <style>
      .b {
        fill: none;
        stroke: #000;
        stroke-miterlimit: 10;
        stroke-width: 2px;
      }

      .c {
        isolation: isolate;
      }
    </style>
  </defs>
  <line class="b" x1="767.03" y1="546.31" x2="766.72" y2="525.5"/>
  <line class="b" x1="989.03" y1="548.31" x2="988.71" y2="528.5"/>
  <line class="b" x1="767" y1="535" x2="988.79" y2="533.89"/>
  <g class="c">
    <path d="M743.34,577.97h9.08v1.36h-18.18v-1.36h7.7v-15.94l1.82,.12c-.02,.14-.14,.24-.42,.28v5.92h7.68v1.36h-7.68v8.26Z"/>
    <path d="M756.74,568.77c-.76,1.26-1.6,2.38-2.44,3.34-.14-.32-.48-.94-.7-1.26,1.92-2.08,3.84-5.54,5-9l1.6,.54c-.08,.14-.22,.2-.46,.18-.52,1.4-1.14,2.8-1.84,4.14l.54,.14c-.04,.12-.14,.22-.4,.24v13.26h-1.3v-11.58Zm2.54,9.26h13.42v1.3h-13.42v-1.3Zm.5-12.28h5.38v-4l1.74,.1c-.02,.16-.12,.24-.4,.28v3.62h5.68v1.3h-12.4v-1.3Zm2.78,2.66c.8,2.72,1.52,6.2,1.7,8.24l-1.34,.28c-.16-2.02-.82-5.6-1.58-8.3l1.22-.22Zm8.4,.34c-.04,.14-.22,.24-.46,.24-.52,2.42-1.44,5.92-2.24,8.06,0,0-1.16-.36-1.16-.38,.78-2.16,1.68-5.8,2.14-8.38l1.72,.46Z"/>
    <path d="M781.78,562.67c-.04,.24-.28,.34-.66,.36-.22,1.12-.58,3.06-.82,4.26,.9-.1,1.72-.18,2.22-.18,3.04-.04,4.08,1.98,4.08,4.98,0,1.5-.28,3.28-.68,4.48-.62,2.04-1.9,3.02-3.56,3.02-.82,0-1.9-.34-3.62-1.74,.22-.36,.38-.8,.54-1.22,1.6,1.24,2.44,1.52,3.06,1.52,1.14,0,1.82-.72,2.22-2,.42-1.24,.64-3.08,.64-4.1-.02-2.28-.76-3.64-2.76-3.62-.6,0-1.42,.08-2.44,.2-1,4.08-2.18,7.58-4.1,10.8l-1.32-.64c1.94-3.1,3.04-6.2,3.98-10-1.02,.12-2.48,.3-3.56,.48l-.12-1.4c.98-.12,2.62-.3,3.96-.46,.3-1.46,.62-3.26,.86-5.02l2.08,.28Zm4.64-.62c.96,.74,2.1,1.94,2.68,2.8l-.78,.56c-.56-.86-1.76-2.12-2.64-2.78l.74-.58Zm4.48,11.64c-.66-2.88-2.24-5.3-4.08-6.82l1.16-.78c1.98,1.66,3.7,4.16,4.36,7.06l-1.44,.54Zm-1.46-12.42c.98,.72,2.12,1.92,2.7,2.78l-.78,.58c-.56-.86-1.76-2.14-2.64-2.8l.72-.56Z"/>
    <path d="M803.94,564.77h-4.5v13.82h-1.66v-13.82h-4.48v-1.4h10.64v1.4Z"/>
    <path d="M815.6,578.13c-.7,.34-2.06,.68-3.8,.68-3.92,0-7.08-2.54-7.08-7.7s3.06-7.98,7.52-7.98c1.82,0,2.88,.38,3.36,.62l-.44,1.4c-.7-.34-1.68-.62-2.88-.62-3.46,0-5.82,2.32-5.82,6.52s2.16,6.36,5.72,6.36c1.16,0,2.3-.26,3.06-.62l.36,1.34Z"/>
    <path d="M818.01,563.55c.88-.16,2.04-.3,3.46-.3,4.92,0,5.32,3.16,5.32,4.36,0,3.58-2.86,4.86-5.56,4.86-.58,0-1.1-.02-1.56-.14v6.26h-1.66v-15.04Zm1.66,7.4c.42,.12,.96,.16,1.6,.16,2.4,0,3.86-1.2,3.86-3.38s-1.56-3.14-3.64-3.14c-.84,0-1.46,.08-1.82,.16v6.2Z"/>
    <path d="M828.75,564.41c1.5-.06,13.82-.94,16.42-.96l.02,1.5c-.26-.02-.5-.02-.74-.02-1.16,0-2.14,.2-3.42,1.02-3,1.8-5.9,5.02-5.9,7.6,0,2.8,1.96,4.46,6.92,5.1l-.66,1.4c-5.68-.82-7.8-2.94-7.8-6.5,0-2.82,2.78-6.24,6.44-8.54-2.2,.16-8.1,.6-10.68,.84-.06,.16-.28,.3-.44,.32l-.16-1.76Zm12.96,3.94c.96,.72,2.1,1.9,2.72,2.76l-.76,.62c-.56-.88-1.78-2.12-2.64-2.78l.68-.6Zm2.16-1.76c.98,.72,2.14,1.88,2.72,2.76l-.76,.6c-.54-.8-1.7-2.04-2.64-2.76l.68-.6Z"/>
    <path d="M860.32,568.27c-.06,.26-.12,.52-.2,.76,3.52,.62,4.82,2.82,4.82,5.18,0,3.18-2.72,5.1-7.72,5.66-.08-.28-.36-.88-.54-1.2,4.14-.4,6.8-1.84,6.8-4.42v-.14c-.1-2.32-1.66-3.46-3.8-3.82-.86,2.26-2.32,4.36-3.98,5.88,.14,.42,.32,.78,.52,1.08l-1.18,.74c-.18-.28-.34-.62-.48-1-1.6,1.18-2.88,1.5-3.78,1.5-1.6,0-2.42-1.18-2.42-2.66,0-2.76,2.28-4.96,5.18-6.12-.04-1.04-.04-2.18-.02-3.36-3.38,0-3.74,0-4.4-.04l-.04-1.32c1.02,.06,2.76,.06,4.48,.06,.02-.92,.06-2.04,.1-2.98l2,.14c-.02,.2-.22,.36-.52,.4-.06,.74-.1,1.66-.16,2.4,2.18-.06,6-.32,8.02-.84l.18,1.36c-2.12,.52-5.98,.72-8.26,.78-.04,1.04-.06,2.04-.04,2.98,1.4-.44,2.66-.46,3-.46,.3,0,.56,0,.82,.02,.08-.32,.14-.62,.2-.94l1.42,.36Zm-6.14,7.46c-.32-1.24-.5-2.82-.58-4.68-2.18,.96-3.88,2.62-3.88,4.56,0,1.18,.66,1.58,1.38,1.54,.94-.02,2.02-.56,3.08-1.42Zm4.1-5.62c-.32-.02-1.88-.06-3.38,.48,.04,1.62,.18,3,.46,4.12,1.2-1.22,2.28-2.84,2.92-4.6Z"/>
    <path d="M872.83,570.49c1.32-.68,3.38-1.16,4.96-1.16,3.18,0,5.18,1.86,5.18,4.8,0,3.62-3.18,5.62-7.2,5.62-2.6,0-4.38-1.04-4.38-2.8,0-1.48,1.46-2.68,3.28-2.68,2.26,0,3.78,1.8,4.08,3.62,1.6-.6,2.76-1.88,2.76-3.74,0-2.16-1.6-3.54-4.12-3.54-3,0-5.94,1.34-7.26,2.62-.6,.56-1.38,1.4-1.92,2.02l-1.02-1.02c1.8-1.88,7.52-7.34,10.24-9.88-1.16,.16-5.16,.32-7.44,.4-.06,.14-.26,.26-.42,.3l-.16-1.7c2.7-.02,7.86-.22,9.32-.44l.3-.14,1.06,1.3c-.1,.08-.28,.16-.48,.18-1.42,1.16-5.22,4.72-6.78,6.22v.02Zm2.76,8c.6,0,1.3-.08,1.82-.2-.22-1.54-1.36-2.84-2.84-2.84-1.04,0-1.96,.56-1.96,1.48,0,1.22,1.66,1.56,2.98,1.56Z"/>
    <path d="M899.78,578.23c-1.76,.32-4.08,.46-6.08,.46-1.68,0-3.14-.1-3.92-.26-2.42-.54-3.46-2.06-3.46-3.82,0-1.54,.86-3.08,2.04-4.28l1.16,.6c-1.12,1.16-1.76,2.44-1.76,3.56s.78,2.22,2.5,2.6c.7,.16,1.88,.24,3.26,.24,1.94,0,4.26-.16,6.16-.54l.1,1.44Zm-8.98-10.1c1.04-.8,2.46-1.78,3.54-2.32v-.02c-1.52,.18-5,.26-7.22,.24,0-.38,0-1.04-.02-1.4,.44,.02,8.12,.14,11.4-.64l.16,1.48c-2.38,.28-5.44,2.36-6.72,3.38l-1.14-.72Z"/>
    <path d="M916.06,568.81s-.1,.02-.16,.02c-.14,0-.3-.04-.42-.12-5.94,1.74-11.32,4.36-11.3,7.04,0,1.92,2.12,2.58,5.36,2.58s5.68-.24,7.08-.46l.12,1.46c-1.84,.24-4.82,.36-7.16,.36-3.96,0-6.84-.92-6.86-3.86-.02-2.14,2.12-4.02,5.26-5.64-.68-1.22-.92-3.54-.92-8.06l2.2,.18c-.02,.26-.22,.42-.62,.48-.02,3.5,.1,5.68,.66,6.76,1.88-.88,4.04-1.68,6.24-2.4l.52,1.66Z"/>
    <path d="M936.06,570.27s-.08,.04-.12,.04c-.12,0-.22-.06-.3-.12-1.52,.5-3.74,1.32-5.4,2.04,.04,.46,.06,.98,.06,1.56,0,.64-.02,1.36-.06,2.14l-1.46,.08c.06-.72,.1-1.64,.1-2.42,0-.3,0-.58-.02-.8-2.26,1.1-4.1,2.44-4.1,3.64s1.38,1.72,4.14,1.72c1.94,0,3.74-.04,5.02-.2l.02,1.34c-1.18,.12-2.98,.16-5.04,.16-3.84,0-5.54-.92-5.54-2.96,0-1.76,2.32-3.46,5.32-4.96-.12-1.26-.68-1.88-1.48-1.88-1.46,0-2.98,.82-4.78,2.82-.56,.62-1.34,1.4-2.2,2.18l-.98-.98c2-1.76,3.88-3.44,5.04-7.38l-1.12,.02h-3.34v-1.3c1.22,.02,2.64,.02,3.46,.02l1.36-.02c.22-.92,.4-1.78,.54-2.86l1.96,.24c-.04,.2-.2,.32-.5,.36-.14,.8-.32,1.5-.5,2.22,1.36-.02,4.28-.34,6.88-1.16l.24,1.34c-2.5,.78-5.52,1.06-7.5,1.12-.48,1.5-.98,2.7-1.44,3.38h.02c.88-.78,2.2-1.3,3.22-1.3,1.36,0,2.22,.98,2.48,2.6,1.68-.76,3.8-1.58,5.4-2.2l.62,1.52Z"/>
    <path d="M945.2,565.09v1.12h-7.2v-1.12h7.2Zm-.56,8.16v5.88h-4.6v.94h-1.16v-6.82h5.76Zm-.02-5.44v1.1h-5.72v-1.1h5.72Zm-5.72,3.82v-1.1h5.72v1.1h-5.72Zm5.64-9.2v1.1h-5.54v-1.1h5.54Zm-1.08,11.96h-3.42v3.6h3.42v-3.6Zm4.16-.06c-.24,1.74-.68,3.64-1.76,4.76l-1.02-.68c.98-.98,1.46-2.74,1.66-4.38l1.12,.3Zm3.5-10.68c-.16,.86-.36,1.78-.66,2.68,.96,.48,1.84,.98,2.46,1.42l-.68,1.06c-.56-.42-1.36-.9-2.24-1.38-.72,1.52-1.84,2.9-3.72,3.84-.16-.28-.56-.74-.84-.96,1.72-.82,2.78-2.06,3.46-3.44-.9-.44-1.84-.84-2.7-1.14l.66-.96c.8,.28,1.64,.62,2.48,1,.24-.7,.4-1.42,.52-2.12h-3.5v-1.16h8.42l.58-.02,.72,.08c-.12,.78-.12,6.74-.94,7.66-.48,.58-.98,.58-1.92,.58-.5,0-1.12-.02-1.74-.06-.02-.36-.14-.86-.36-1.18,1.06,.08,1.5,.08,2.4,.08,.24,0,.38-.04,.52-.2,.34-.4,.54-1.86,.7-5.78h-3.62Zm-1.36,14.58c0,.46,.08,.54,.66,.54h1.96c.52,0,.62-.26,.66-2.26,.28,.2,.8,.4,1.14,.5-.12,2.38-.48,2.96-1.68,2.96h-2.24c-1.42,0-1.76-.38-1.76-1.74v-4.8l1.64,.12c-.02,.12-.14,.22-.38,.26v4.42Zm2.52-4.06c-.72-.86-2.24-2.06-3.56-2.84l.86-.78c1.3,.76,2.86,1.9,3.6,2.76l-.9,.86Zm3.42,4.88c-.26-1.36-1.16-3.38-2.22-4.86l1.1-.44c1.1,1.46,2.02,3.44,2.34,4.8l-1.22,.5Z"/>
    <path d="M964.22,565.09v1.12h-6.22v-1.12h6.22Zm-.48,8.16v5.86h-3.86v.96h-1.1v-6.82h4.96Zm-.04-5.44v1.1h-4.88v-1.1h4.88Zm-4.88,3.82v-1.1h4.88v1.1h-4.88Zm4.84-9.2v1.1h-4.74v-1.1h4.74Zm-1.06,11.94h-2.72v3.6h2.72v-3.6Zm10.42-4.56c.06,1.64,.16,3.14,.3,4.42,.6-1.08,1.08-2.26,1.44-3.56l1.3,.64c-.04,.12-.16,.16-.34,.16-.5,1.64-1.24,3.16-2.14,4.48,.36,1.82,.98,3.12,1.7,3.12,.34,0,.6-1.3,.78-2.94,.24,.28,.6,.56,.84,.68-.26,2.36-.74,3.54-1.66,3.54-1.24,0-2.08-1.2-2.58-3.16-1,1.2-2.18,2.22-3.44,3-.16-.22-.52-.58-.78-.78,1.48-.88,2.82-2.1,3.92-3.64-.28-1.64-.44-3.68-.54-5.96h-7.9v-1.12h7.86c-.06-2.14-.1-4.5-.12-6.96l1.66,.06c0,.16-.12,.28-.4,.32-.02,2.34,0,4.56,.06,6.58h3.44v1.12h-3.4Zm-1.88-5.84v1.08h-6.66v-1.08h2.76v-2.26l1.62,.1c-.02,.14-.12,.24-.38,.28v1.88h2.66Zm-.54,13.74h-4.46v1.14h-1.1v-7.86h5.56v6.72Zm-4.26-12.4c.36,.94,.62,2.18,.66,2.98l-1.06,.22c-.02-.8-.26-2.02-.6-2.98l1-.22Zm3.1,6.72h-3.3v1.78h3.3v-1.78Zm-3.3,4.64h3.3v-1.86h-3.3v1.86Zm4.48-11.14c-.04,.12-.18,.2-.4,.2-.2,.82-.56,2.12-.88,2.92l-.92-.28c.28-.88,.62-2.28,.76-3.2l1.44,.36Zm3.8-2.92c.92,1.06,1.8,2.54,2.16,3.56l-1.12,.5c-.32-1.04-1.18-2.54-2.08-3.64l1.04-.42Z"/>
  </g>
  <path class="b" d="M711,529.69c3.71,4.7,19.64,27.61,46.25,26.77,46.75-1.47,56.62-19.76,57.75-21.47"/>
  <line class="b" x1="814.5" y1="536.5" x2="812.5" y2="546.5"/>
  <line class="b" x1="812" y1="536" x2="803" y2="540"/>
</svg>