<?xml version="1.0" encoding="UTF-8"?>
<svg id="a" data-name="レイヤー 1" xmlns="http://www.w3.org/2000/svg" viewBox="0 0 1025 769">
  <defs>
    <style>
      .b {
        fill: none;
        stroke: #000;
        stroke-miterlimit: 10;
        stroke-width: 2px;
      }

      .c {
        isolation: isolate;
      }
    </style>
  </defs>
  <g class="c">
    <path d="M720.02,437.05h9.08v1.36h-18.18v-1.36h7.7v-15.94l1.82,.12c-.02,.14-.14,.24-.42,.28v5.92h7.68v1.36h-7.68v8.26Z"/>
    <path d="M733.42,427.84c-.76,1.26-1.6,2.38-2.44,3.34-.14-.32-.48-.94-.7-1.26,1.92-2.08,3.84-5.54,5-9l1.6,.54c-.08,.14-.22,.2-.46,.18-.52,1.4-1.14,2.8-1.84,4.14l.54,.14c-.04,.12-.14,.22-.4,.24v13.26h-1.3v-11.58Zm2.54,9.26h13.42v1.3h-13.42v-1.3Zm.5-12.28h5.38v-4l1.74,.1c-.02,.16-.12,.24-.4,.28v3.62h5.68v1.3h-12.4v-1.3Zm2.78,2.66c.8,2.72,1.52,6.2,1.7,8.24l-1.34,.28c-.16-2.02-.82-5.6-1.58-8.3l1.22-.22Zm8.4,.34c-.04,.14-.22,.24-.46,.24-.52,2.42-1.44,5.92-2.24,8.06,0,0-1.16-.36-1.16-.38,.78-2.16,1.68-5.8,2.14-8.38l1.72,.46Z"/>
    <path d="M751.04,423.48c1.5-.06,13.82-.94,16.42-.96l.02,1.5c-.26-.02-.5-.02-.74-.02-1.16,0-2.14,.2-3.42,1.02-3,1.8-5.9,5.02-5.9,7.6,0,2.8,1.96,4.46,6.92,5.1l-.66,1.4c-5.68-.82-7.8-2.94-7.8-6.5,0-2.82,2.78-6.24,6.44-8.54-2.2,.16-8.1,.6-10.68,.84-.06,.16-.28,.3-.44,.32l-.16-1.76Zm12.96,3.94c.96,.72,2.1,1.9,2.72,2.76l-.76,.62c-.56-.88-1.78-2.12-2.64-2.78l.68-.6Zm2.16-1.76c.98,.72,2.14,1.88,2.72,2.76l-.76,.6c-.54-.8-1.7-2.04-2.64-2.76l.68-.6Z"/>
    <path d="M772.82,427.84c-.76,1.26-1.6,2.38-2.44,3.34-.14-.32-.48-.94-.7-1.26,1.92-2.08,3.84-5.54,5-9l1.6,.54c-.08,.14-.22,.2-.46,.18-.52,1.4-1.14,2.8-1.84,4.14l.54,.14c-.04,.12-.14,.22-.4,.24v13.26h-1.3v-11.58Zm15.22,4.12h-5.38c-.14,1.32-.46,2.6-1.2,3.76,1.92,1.28,4.48,2.06,7.54,2.4-.3,.3-.66,.86-.86,1.26-3.02-.42-5.54-1.28-7.48-2.64-1.04,1.08-2.58,2-4.86,2.68-.14-.3-.54-.84-.82-1.12,2.22-.58,3.68-1.4,4.64-2.38-.96-.84-1.74-1.86-2.32-3.04l1.22-.4c.46,.92,1.1,1.74,1.9,2.44,.56-.92,.82-1.92,.92-2.96h-4.98v-5.54h5.08v-2.1h-5.72v-1.24h5.72v-2.14l1.72,.1c-.02,.14-.12,.24-.4,.28v1.76h5.98v1.24h-5.98v2.1h5.28v5.54Zm-10.44-1.16h3.82c.02-.34,.02-.66,.02-1v-2.24h-3.84v3.24Zm9.14-3.24h-3.98v2.24c0,.34,0,.66-.02,1h4v-3.24Z"/>
    <path d="M790.84,428.14c3-.82,6.78-1.64,8.28-1.64,3,0,4.76,1.6,4.76,4.56v.16c-.04,3.64-2.9,6.3-8.64,7.84-.18-.34-.6-.88-.9-1.22,5.12-1.22,8.02-3.62,8.02-6.66,0-1.92-.92-3.3-3.3-3.3-1.6,0-4.78,.72-7.24,1.58,.02,.16-.18,.36-.38,.46l-.6-1.78Zm2.8-6.92c2.74,.24,5.9,.82,8.04,1.56l-.42,1.4c-2.12-.72-5.36-1.38-7.96-1.6l.34-1.36Z"/>
    <path d="M812.24,430.2c-.9,2.34-2.22,4.4-3.76,5.9l-1.16-.76c1.5-1.4,2.8-3.3,3.62-5.64l1.3,.5Zm4.28-3.08v9.38c0,2.18-1.56,2.18-4.76,2.18-.08-.36-.24-.92-.42-1.34,.58,.02,1.22,.02,1.76,.02h1.16c.56,0,.82-.36,.82-.84v-9.4h-6.8v-1.36h6.8v-4.22l1.9,.1c-.02,.2-.16,.34-.46,.38v3.74h6.76v1.36h-6.76Zm3.58,2.44c1.46,1.62,3.14,3.98,4.22,5.82l-1.28,.74c-.98-1.82-2.74-4.4-4.08-5.92l1.14-.64Zm2.6-9.22c1.22,0,2.22,1,2.22,2.24s-1,2.24-2.22,2.24-2.26-1-2.26-2.24,1.04-2.24,2.26-2.24Zm1.56,2.24c0-.88-.7-1.6-1.56-1.6s-1.6,.72-1.6,1.6,.72,1.58,1.6,1.58,1.56-.76,1.56-1.58Z"/>
    <path d="M827.14,429h16.7v1.42h-15.94c-.12,.2-.38,.34-.64,.38l-.12-1.8Z"/>
    <path d="M858.25,431.98c-2.04-1.1-4.84-2.4-7.02-3.26v10h-1.5v-17.38l2.02,.12c-.02,.22-.18,.36-.52,.42v5.84l.3-.42c2.34,.86,5.44,2.24,7.52,3.34l-.8,1.34Z"/>
    <path d="M880.12,427.62h-6.82c1.88,1.66,4.8,3.16,7.34,3.88-.32,.28-.7,.8-.92,1.14-.62-.22-1.28-.48-1.94-.78v7.44h-1.34v-.64h-10.22v.72h-1.3v-7.56c-.76,.4-1.52,.74-2.24,1-.2-.3-.58-.8-.88-1.06,2.48-.8,5.34-2.4,7.2-4.14h-6.68v-1.16h4.52c-.3-.76-.92-1.84-1.52-2.62l1.16-.44c.68,.84,1.38,1.98,1.64,2.76l-.76,.3h3.12v-3.38c-2.24,.18-4.58,.32-6.74,.4-.04-.28-.18-.78-.3-1.04,4.82-.22,10.68-.72,13.84-1.4l.98,1.08s-.1,.04-.18,.04c-.06,0-.14,0-.22-.02-1.58,.32-3.72,.6-6.04,.82v3.5h2.84c-.22-.1-.44-.18-.58-.24,.62-.86,1.4-2.24,1.8-3.2l1.62,.6c-.06,.12-.2,.18-.42,.18-.44,.76-1.12,1.86-1.72,2.66h4.76v1.16Zm-9.64,.2c-1.34,1.4-3.2,2.74-5.1,3.76h11.82c-2-1-4-2.38-5.38-3.82v3.44h-1.34v-3.38Zm.04,6.74v-1.9h-4.3v1.9h4.3Zm-4.3,1v2h4.3v-2h-4.3Zm10.22-1v-1.9h-4.64v1.9h4.64Zm-4.64,3h4.64v-2h-4.64v2Z"/>
    <path d="M900.39,430.4h-12.24c-.18,.6-.42,1.26-.64,1.94h9.04l.32-.06,.86,.28c-.02,.1-.06,.24-.12,.36-.54,3.68-1.06,5.26-1.82,5.92-.5,.46-.96,.56-2.32,.56-.72,0-1.74-.04-2.8-.12-.02-.38-.2-.92-.46-1.26,1.46,.12,2.94,.14,3.48,.14,.5,0,.74-.02,.98-.18,.58-.44,1-1.7,1.42-4.38h-9.04c-.2,.54-.38,1.04-.56,1.46-.76-.16-1.1-.22-1.44-.26,.52-1.14,1.14-2.88,1.62-4.4h-4.64v-1.24h18.36v1.24Zm-2.82-8.6v5.78h-12.52v-5.78h12.52Zm-1.38,4.56v-3.34h-9.82v3.34h9.82Z"/>
    <path d="M909.66,421.36c-.06,.16-.26,.32-.62,.34-.14,.88-.32,1.92-.5,2.7,1.96-.12,4.14-.46,5.88-.98l.22,1.36c-1.86,.46-4.06,.78-6.36,.96-.96,3.84-2.28,6.96-4.24,9.84l-1.34-.54c1.82-2.62,3.2-5.62,4.06-9.26h-3.98v-1.3h2.38c.62,0,1.26-.02,1.84-.02,.24-1.06,.42-2.2,.56-3.38l2.1,.28Zm5.32,8.52c.02,1.62,.14,2.72,.26,4.1,1.28,.5,2.94,1.36,4.26,2.32l-.72,1.28c-1.1-.84-2.46-1.62-3.54-2.1,0,2-.8,3.56-3.74,3.56-2.22,0-3.92-1-3.9-2.88,0-2,2.1-2.96,3.94-2.96,.72,0,1.46,.14,2.26,.36-.08-1.28-.18-2.58-.18-3.52l1.36-.16Zm-1.1,5c-.82-.32-1.66-.46-2.38-.46-1.2,0-2.62,.48-2.64,1.72,0,1.14,1.12,1.68,2.68,1.68,1.44,0,2.36-.7,2.36-2.02,0-.32,0-.62-.02-.92Zm5.48-7.06c-2.26,.02-5,.38-7.08,.98l-.22-1.26c2.28-.66,5.04-1.08,7.22-1.08l.08,1.36Z"/>
    <path d="M935.95,427.88s-.1,.02-.16,.02c-.14,0-.3-.04-.42-.12-5.94,1.74-11.32,4.36-11.3,7.04,0,1.92,2.12,2.58,5.36,2.58s5.68-.24,7.08-.46l.12,1.46c-1.84,.24-4.82,.36-7.16,.36-3.96,0-6.84-.92-6.86-3.86-.02-2.14,2.12-4.02,5.26-5.64-.68-1.22-.92-3.54-.92-8.06l2.2,.18c-.02,.26-.22,.42-.62,.48-.02,3.5,.1,5.68,.66,6.76,1.88-.88,4.04-1.68,6.24-2.4l.52,1.66Zm-2.56-6.24c1.04,.9,2,2.04,2.54,2.98l-.86,.58c-.52-.92-1.44-2.1-2.46-2.98l.78-.58Zm2.68-1.14c1.04,.92,1.94,1.96,2.5,2.96l-.82,.56c-.56-.96-1.46-2.06-2.44-2.92l.76-.6Z"/>
    <path d="M956.35,429.34s-.08,.04-.12,.04c-.12,0-.22-.06-.3-.12-1.52,.5-3.74,1.32-5.4,2.04,.04,.46,.06,.98,.06,1.56,0,.64-.02,1.36-.06,2.14l-1.46,.08c.06-.72,.1-1.64,.1-2.42,0-.3,0-.58-.02-.8-2.26,1.1-4.1,2.44-4.1,3.64s1.38,1.72,4.14,1.72c1.94,0,3.74-.04,5.02-.2l.02,1.34c-1.18,.12-2.98,.16-5.04,.16-3.84,0-5.54-.92-5.54-2.96,0-1.76,2.32-3.46,5.32-4.96-.12-1.26-.68-1.88-1.48-1.88-1.46,0-2.98,.82-4.78,2.82-.56,.62-1.34,1.4-2.2,2.18l-.98-.98c2-1.76,3.88-3.44,5.04-7.38l-1.12,.02h-3.34v-1.3c1.22,.02,2.64,.02,3.46,.02l1.36-.02c.22-.92,.4-1.78,.54-2.86l1.96,.24c-.04,.2-.2,.32-.5,.36-.14,.8-.32,1.5-.5,2.22,1.36-.02,4.28-.34,6.88-1.16l.24,1.34c-2.5,.78-5.52,1.06-7.5,1.12-.48,1.5-.98,2.7-1.44,3.38h.02c.88-.78,2.2-1.3,3.22-1.3,1.36,0,2.22,.98,2.48,2.6,1.68-.76,3.8-1.58,5.4-2.2l.62,1.52Z"/>
    <path d="M965.48,424.16v1.12h-7.2v-1.12h7.2Zm-.56,8.16v5.88h-4.6v.94h-1.16v-6.82h5.76Zm-.02-5.44v1.1h-5.72v-1.1h5.72Zm-5.72,3.82v-1.1h5.72v1.1h-5.72Zm5.64-9.2v1.1h-5.54v-1.1h5.54Zm-1.08,11.96h-3.42v3.6h3.42v-3.6Zm4.16-.06c-.24,1.74-.68,3.64-1.76,4.76l-1.02-.68c.98-.98,1.46-2.74,1.66-4.38l1.12,.3Zm3.5-10.68c-.16,.86-.36,1.78-.66,2.68,.96,.48,1.84,.98,2.46,1.42l-.68,1.06c-.56-.42-1.36-.9-2.24-1.38-.72,1.52-1.84,2.9-3.72,3.84-.16-.28-.56-.74-.84-.96,1.72-.82,2.78-2.06,3.46-3.44-.9-.44-1.84-.84-2.7-1.14l.66-.96c.8,.28,1.64,.62,2.48,1,.24-.7,.4-1.42,.52-2.12h-3.5v-1.16h8.42l.58-.02,.72,.08c-.12,.78-.12,6.74-.94,7.66-.48,.58-.98,.58-1.92,.58-.5,0-1.12-.02-1.74-.06-.02-.36-.14-.86-.36-1.18,1.06,.08,1.5,.08,2.4,.08,.24,0,.38-.04,.52-.2,.34-.4,.54-1.86,.7-5.78h-3.62Zm-1.36,14.58c0,.46,.08,.54,.66,.54h1.96c.52,0,.62-.26,.66-2.26,.28,.2,.8,.4,1.14,.5-.12,2.38-.48,2.96-1.68,2.96h-2.24c-1.42,0-1.76-.38-1.76-1.74v-4.8l1.64,.12c-.02,.12-.14,.22-.38,.26v4.42Zm2.52-4.06c-.72-.86-2.24-2.06-3.56-2.84l.86-.78c1.3,.76,2.86,1.9,3.6,2.76l-.9,.86Zm3.42,4.88c-.26-1.36-1.16-3.38-2.22-4.86l1.1-.44c1.1,1.46,2.02,3.44,2.34,4.8l-1.22,.5Z"/>
    <path d="M984.5,424.16v1.12h-6.22v-1.12h6.22Zm-.48,8.16v5.86h-3.86v.96h-1.1v-6.82h4.96Zm-.04-5.44v1.1h-4.88v-1.1h4.88Zm-4.88,3.82v-1.1h4.88v1.1h-4.88Zm4.84-9.2v1.1h-4.74v-1.1h4.74Zm-1.06,11.94h-2.72v3.6h2.72v-3.6Zm10.42-4.56c.06,1.64,.16,3.14,.3,4.42,.6-1.08,1.08-2.26,1.44-3.56l1.3,.64c-.04,.12-.16,.16-.34,.16-.5,1.64-1.24,3.16-2.14,4.48,.36,1.82,.98,3.12,1.7,3.12,.34,0,.6-1.3,.78-2.94,.24,.28,.6,.56,.84,.68-.26,2.36-.74,3.54-1.66,3.54-1.24,0-2.08-1.2-2.58-3.16-1,1.2-2.18,2.22-3.44,3-.16-.22-.52-.58-.78-.78,1.48-.88,2.82-2.1,3.92-3.64-.28-1.64-.44-3.68-.54-5.96h-7.9v-1.12h7.86c-.06-2.14-.1-4.5-.12-6.96l1.66,.06c0,.16-.12,.28-.4,.32-.02,2.34,0,4.56,.06,6.58h3.44v1.12h-3.4Zm-1.88-5.84v1.08h-6.66v-1.08h2.76v-2.26l1.62,.1c-.02,.14-.12,.24-.38,.28v1.88h2.66Zm-.54,13.74h-4.46v1.14h-1.1v-7.86h5.56v6.72Zm-4.26-12.4c.36,.94,.62,2.18,.66,2.98l-1.06,.22c-.02-.8-.26-2.02-.6-2.98l1-.22Zm3.1,6.72h-3.3v1.78h3.3v-1.78Zm-3.3,4.64h3.3v-1.86h-3.3v1.86Zm4.48-11.14c-.04,.12-.18,.2-.4,.2-.2,.82-.56,2.12-.88,2.92l-.92-.28c.28-.88,.62-2.28,.76-3.2l1.44,.36Zm3.8-2.92c.92,1.06,1.8,2.54,2.16,3.56l-1.12,.5c-.32-1.04-1.18-2.54-2.08-3.64l1.04-.42Z"/>
  </g>
  <line class="b" x1="861" y1="411" x2="860.69" y2="390.19"/>
  <line class="b" x1="992" y1="412" x2="991.68" y2="392.19"/>
  <line class="b" x1="861" y1="398" x2="991" y2="398"/>
  <g>
    <path class="b" d="M815,391.69c3.71,4.7,19.62,26.75,46.25,26.77,46.25,.03,65.12-14.26,66.25-15.97"/>
    <line class="b" x1="927.5" y1="403.5" x2="925.5" y2="413.5"/>
    <line class="b" x1="927" y1="403" x2="915" y2="403"/>
  </g>
</svg>