<?xml version="1.0" encoding="UTF-8"?><svg id="a" xmlns="http://www.w3.org/2000/svg" width="1025" height="769" viewBox="0 0 1025 769"><defs><style>.d,.e,.f{stroke:#000;stroke-miterlimit:10;}.d,.g{fill:#e1ffc9;}.d,.f{stroke-width:.5px;}.e,.f{fill:#d4eeff;}.h{fill:#ffb48a;}.i{isolation:isolate;}</style></defs><g id="b"><g><rect class="g" x="71.44" y="309.55" width="441.11" height="128.69"/><path d="M512.11,310v127.81H71.89v-127.81h440.22m.89-.89H71v129.58h442v-129.58h0Z"/></g><g><path d="M200.49,383.47c-2.89-1.56-6.87-3.41-9.97-4.63v14.2h-2.13v-24.68l2.87,.17c-.03,.31-.26,.51-.74,.59v8.29l.43-.59c3.32,1.22,7.72,3.18,10.68,4.74l-1.14,1.9v.02Z"/><path d="M231.51,377.59c-.05,.12-.2,.23-.37,.28-2.33,8.57-7.07,12.75-15.56,15.11-.26-.51-.8-1.22-1.19-1.65,7.72-1.93,12.52-5.91,14.32-12.5h-18.8v-1.93h19.65l.28-.17,1.68,.85h0Zm-2.67-6.07h-16.19v-1.87h16.19v1.87Z"/><path d="M239.49,370.66c2.96,.94,6.36,2.41,8.47,3.86l-1.08,1.79c-2.04-1.45-5.4-2.96-8.29-3.95l.91-1.7Zm-.12,19.68c10.08-3.12,16.78-8.78,20.19-16.64,.59,.48,1.25,.85,1.85,1.16-3.55,7.78-10.48,13.83-20.1,17.04-.03,.26-.2,.54-.4,.66l-1.54-2.22h0Z"/><path d="M285.36,371.28c-.05,.14-.2,.26-.37,.31-1.54,3.6-3.35,6.73-5.68,9.77,3.1,2.47,7.76,6.7,10.39,9.63l-1.73,1.51c-2.5-2.89-7.07-7.22-9.97-9.54-2.5,3.04-6.82,7.19-10.93,9.54-.31-.43-.99-1.14-1.47-1.54,7.86-4.31,14.09-12.38,16.64-18.54h-13.94v-1.93h15.05l.37-.14,1.65,.94h0Z"/><path d="M301.04,380.94c-1.28,3.32-3.15,6.25-5.34,8.38l-1.65-1.08c2.13-1.99,3.98-4.69,5.14-8.01l1.85,.71h0Zm6.08-4.38v13.32c0,3.1-2.22,3.1-6.76,3.1-.12-.51-.34-1.3-.59-1.9,.83,.03,1.73,.03,2.5,.03h1.65c.8,0,1.16-.51,1.16-1.19v-13.35h-9.66v-1.93h9.66v-5.99l2.7,.14c-.03,.28-.23,.48-.66,.54v5.31h9.59v1.93h-9.59Zm5.09,3.45c2.08,2.3,4.46,5.65,5.99,8.26l-1.82,1.05c-1.39-2.58-3.89-6.25-5.8-8.41l1.62-.91h0Zm3.69-13.09c1.73,0,3.15,1.42,3.15,3.18s-1.42,3.18-3.15,3.18-3.21-1.42-3.21-3.18,1.47-3.18,3.21-3.18Zm2.22,3.18c0-1.25-.99-2.27-2.22-2.27s-2.27,1.02-2.27,2.27,1.02,2.25,2.27,2.25,2.22-1.08,2.22-2.25Z"/><path d="M322.49,379.23h23.72v2.01h-22.63c-.17,.28-.54,.48-.91,.54l-.17-2.56h0Z"/><path d="M370.9,383.47c-2.89-1.56-6.87-3.41-9.97-4.63v14.2h-2.13v-24.68l2.87,.17c-.03,.31-.26,.51-.74,.59v8.29l.43-.59c3.32,1.22,7.72,3.18,10.68,4.74l-1.14,1.9v.02Z"/><path d="M402.4,368.93v5.71h-3.72l.91,.4c-.09,.17-.31,.23-.57,.2-.34,.4-.83,.94-1.3,1.42h4.63v7.53h-17.87v-7.53h3.89c-.37-.59-.88-1.25-1.39-1.73l.57-.28h-4.63v2.67c0,4.85-.4,11.81-3.38,16.5-.34-.31-1.16-.8-1.65-.99,2.87-4.52,3.12-10.88,3.12-15.51v-8.38h21.4Zm-1.93,4.14v-2.56h-17.55v2.56h17.55Zm-14.56,20.88v-8.41h15.22v8.35h-1.82v-.85h-11.64v.91h-1.76Zm.37-16.02v1.85h6.11v-1.85h-6.11Zm0,3.1v1.9h6.11v-1.9h-6.11Zm13.04,5.85h-11.64v1.73h11.64v-1.73Zm-11.64,4.8h11.64v-1.82h-11.64v1.82Zm1.11-17.04c.62,.62,1.19,1.39,1.47,2.01h5.56c.51-.59,1.11-1.37,1.54-2.01h-8.57Zm11.7,5.14v-1.85h-6.3v1.85h6.3Zm0,3.15v-1.9h-6.3v1.9h6.3Z"/></g></g><rect class="e" x="72.44" y="568.28" width="440.11" height="128.69"/><g><path d="M114.9,627.64c-.09,.14-.26,.23-.51,.26-1.82,2.27-4.25,4.71-6.85,6.73l.45,.12c-.05,.14-.26,.37-.62,.4v10.82h-2.01v-9.85c-2.89,1.99-6.63,4-10.11,5.4-.14-.2-1.08-1.37-1.3-1.59,6.85-2.56,13.37-6.79,17.26-11.33h-14.35v-1.85h16.23l.31-.2,1.51,1.11h0Zm-4.68-2.23c-2.46-1.3-6.32-2.58-9.32-3.43l.94-1.65c3.03,.74,6.85,2.1,9.43,3.35l-1.04,1.73Zm.19,9.12c2.83,1.47,6.23,3.6,8.27,5.23l-1.44,1.54c-1.9-1.59-5.41-3.89-8.13-5.34,0,0,1.3-1.42,1.3-1.42Z"/><path d="M126.99,628.6c.85,1.73,1.79,4.46,2.13,6.11l-1.59,.43c-.34-1.65-1.22-4.23-2.07-6.05,0,0,1.53-.48,1.53-.48Zm16.91,.2c-.05,.26-.34,.31-.59,.28-2.21,8.29-6.38,13.38-13.23,16.16-.23-.34-.74-.99-1.11-1.3,6.77-2.67,10.65-7.33,12.73-15.79l2.21,.66h0Zm-10.03-1.57c.59,1.9,1.13,4.63,1.33,6.44l-1.67,.31c-.17-1.82-.71-4.43-1.33-6.39l1.67-.37h0Z"/><path d="M171.08,636.1c-2.89-1.56-6.85-3.41-9.94-4.62v14.2h-2.13v-24.68l2.86,.17c-.03,.31-.26,.51-.74,.59v8.29l.43-.59c3.31,1.22,7.7,3.18,10.65,4.74l-1.13,1.9h0Z"/><path d="M201.97,624.14c-.09,.12-.23,.23-.37,.28-1.11,11.1-4.87,17.07-14.34,20.9-.37-.48-.94-1.11-1.42-1.54,9.04-3.69,12.58-9.09,13.51-18.4h-16.18v7.84h-1.96v-9.77h18.78l.31-.23,1.65,.91h0Z"/><path d="M207.78,631.86h23.66v2.01h-22.58c-.17,.28-.54,.48-.9,.54l-.17-2.56h0Z"/><path d="M258,626.39c-.12,.14-.26,.28-.43,.4-2.98,9.2-7.62,15.11-15.44,19.08-.34-.48-.88-1.14-1.44-1.56,7.42-3.6,12.02-9.28,14.36-16.81h-10.11c-1.65,2.56-3.83,5.02-6.35,7.01-.4-.4-1.04-.94-1.61-1.3,3.85-2.98,7.11-7.32,9.04-12.33l2.69,.76c-.12,.28-.45,.37-.82,.37-.57,1.25-1.16,2.44-1.82,3.58h9.97l.34-.17,1.61,.97h0Z"/><path d="M287.36,622.81c-.12,.14-.28,.23-.54,.23-.09,0-.17,0-.28-.03-2.18,2.22-5.33,4.8-8.08,6.79,.23,.09,.57,.26,.68,.31-.05,.17-.31,.34-.62,.37v15.25h-2.07v-14.6c-3,2.13-6.92,4.43-10.79,6.34-.28-.45-.8-1.16-1.19-1.56,7.74-3.58,16.21-9.66,20.77-14.68l2.13,1.59h0Z"/><path d="M295.01,623.29c2.95,.94,6.35,2.41,8.45,3.86l-1.08,1.79c-2.04-1.45-5.38-2.96-8.27-3.95,0,0,.9-1.7,.9-1.7Zm-.12,19.68c10.06-3.12,16.75-8.78,20.15-16.64,.59,.48,1.25,.85,1.84,1.16-3.54,7.78-10.46,13.83-20.06,17.04-.03,.26-.19,.54-.4,.66l-1.53-2.22h0Z"/><path d="M342.5,625.79c-.03,.14-.17,.26-.34,.31-1.04,3.52-2.46,6.76-4.16,9.4,1.22,.71,2.6,1.59,3.66,2.36l-1.19,1.87c-1.02-.8-2.46-1.73-3.66-2.47-2.6,3.64-5.95,6.56-10.23,8.64-.31-.48-1.04-1.16-1.56-1.47,4.14-1.93,7.46-4.8,10.03-8.18-2.1-1.16-4.16-2.16-6.26-2.96l1.08-1.59c2.07,.74,4.2,1.7,6.38,2.87,1.47-2.33,2.64-4.8,3.43-7.53h-9.61c-1.73,2.89-4.06,5.77-6.54,7.81-.37-.34-1.13-.97-1.61-1.28,3.71-2.84,7.23-7.95,8.93-12.81l2.69,.62c-.12,.31-.4,.4-.76,.37-.4,.94-1.04,2.33-1.59,3.38h9.4l.4-.12,1.53,.76h-.03Z"/><path d="M372.25,624.62c-.09,.14-.19,.26-.37,.31-2.24,10.77-7.79,17.16-17.06,20.42-.31-.48-.94-1.25-1.3-1.65,8.78-2.87,14.17-9.2,15.87-17.8h-18.53v-1.9h19.27l.4-.26,1.73,.88h0Z"/><path d="M397.5,628.97v1.65h-6.97v11.16h8.55v1.65h-18.92v-1.65h8.55v-11.16h-6.92v-1.65h15.7Z"/><path d="M406.14,631.86h23.66v2.01h-22.58c-.17,.28-.54,.48-.9,.54l-.17-2.56h0Z"/><path d="M454.12,623.91c-.05,.14-.19,.26-.37,.31-1.53,3.6-3.35,6.73-5.67,9.77,3.09,2.47,7.74,6.7,10.37,9.63l-1.73,1.51c-2.5-2.89-7.06-7.22-9.94-9.54-2.5,3.04-6.8,7.18-10.91,9.54-.31-.43-.99-1.14-1.47-1.54,7.85-4.31,14.05-12.38,16.6-18.54h-13.91v-1.93h15.02l.37-.14,1.65,.94h0Z"/><path d="M485.89,621.56v5.71h-3.71l.9,.4c-.09,.17-.31,.23-.57,.2-.34,.4-.82,.94-1.3,1.42h4.62v7.53h-17.83v-7.53h3.88c-.37-.59-.88-1.25-1.39-1.73l.57-.28h-4.62v2.67c0,4.85-.4,11.81-3.37,16.5-.34-.31-1.16-.8-1.65-.99,2.86-4.52,3.12-10.87,3.12-15.51v-8.38h21.35Zm-1.93,4.14v-2.56h-17.51v2.56h17.51Zm-14.53,20.88v-8.41h15.19v8.35h-1.82v-.85h-11.62v.91h-1.75Zm.37-16.02v1.85h6.09v-1.85h-6.09Zm0,3.1v1.9h6.09v-1.9h-6.09Zm13.01,5.85h-11.62v1.73h11.62v-1.73Zm-11.62,4.8h11.62v-1.82h-11.62v1.82Zm1.11-17.04c.62,.62,1.19,1.39,1.47,2.01h5.55c.51-.59,1.11-1.37,1.53-2.01h-8.55Zm11.67,5.14v-1.85h-6.29v1.85h6.29Zm0,3.15v-1.9h-6.29v1.9h6.29Z"/></g><g id="c"><g><rect class="h" x="71.44" y="439.14" width="441.11" height="128.69"/><path d="M512.11,439.58v127.81H71.89v-127.81h440.22m.89-.89H71v129.58h442v-129.58h0Z"/></g><g><path d="M203.42,496.21c-.12,.14-.28,.23-.54,.23-.09,0-.17,0-.28-.03-2.18,2.22-5.34,4.8-8.09,6.79,.23,.09,.57,.26,.68,.31-.05,.17-.31,.34-.62,.37v15.25h-2.08v-14.6c-3.01,2.13-6.93,4.43-10.82,6.34-.28-.45-.8-1.16-1.19-1.56,7.76-3.58,16.24-9.66,20.81-14.68l2.13,1.59h0Z"/><path d="M211.09,496.69c2.96,.94,6.36,2.41,8.47,3.86l-1.08,1.79c-2.04-1.45-5.4-2.96-8.29-3.95l.91-1.7Zm-.12,19.68c10.08-3.12,16.78-8.78,20.19-16.64,.59,.48,1.25,.85,1.85,1.16-3.55,7.78-10.48,13.83-20.1,17.04-.03,.26-.2,.54-.4,.66l-1.54-2.22h0Z"/><path d="M258.69,499.2c-.03,.14-.17,.26-.34,.31-1.05,3.52-2.47,6.76-4.17,9.4,1.22,.71,2.61,1.59,3.67,2.36l-1.19,1.87c-1.02-.8-2.47-1.73-3.67-2.47-2.61,3.64-5.96,6.56-10.25,8.64-.31-.48-1.05-1.16-1.56-1.47,4.14-1.93,7.47-4.8,10.06-8.18-2.1-1.16-4.17-2.16-6.27-2.96l1.08-1.59c2.08,.74,4.21,1.7,6.39,2.87,1.47-2.33,2.64-4.8,3.43-7.53h-9.63c-1.73,2.89-4.06,5.77-6.56,7.81-.37-.34-1.14-.97-1.62-1.28,3.72-2.84,7.24-7.95,8.95-12.81l2.7,.62c-.12,.31-.4,.4-.76,.37-.4,.94-1.05,2.33-1.59,3.38h9.43l.4-.12,1.54,.76h-.03Z"/><path d="M265.68,505.27h23.72v2.01h-22.63c-.17,.28-.54,.48-.91,.54l-.17-2.56h0Z"/><path d="M314.59,501.04c-.09,.14-.26,.23-.51,.26-1.82,2.27-4.26,4.71-6.87,6.73l.45,.12c-.05,.14-.26,.37-.62,.4v10.82h-2.01v-9.85c-2.89,1.99-6.65,4-10.14,5.4-.14-.2-1.08-1.37-1.3-1.59,6.87-2.56,13.4-6.79,17.3-11.33h-14.37v-1.85h16.27l.31-.2,1.51,1.11h0Zm-4.69-2.23c-2.47-1.3-6.34-2.58-9.35-3.43l.94-1.65c3.04,.74,6.87,2.1,9.45,3.35l-1.05,1.73Zm.2,9.12c2.84,1.47,6.25,3.6,8.29,5.23l-1.45,1.54c-1.9-1.59-5.42-3.89-8.15-5.34,0,0,1.3-1.42,1.3-1.42Z"/><path d="M326.71,502c.85,1.73,1.79,4.46,2.13,6.11l-1.59,.43c-.34-1.65-1.22-4.23-2.08-6.05l1.54-.48Zm16.95,.2c-.05,.26-.34,.31-.59,.28-2.22,8.29-6.39,13.38-13.26,16.16-.23-.34-.74-.99-1.11-1.3,6.79-2.67,10.68-7.33,12.75-15.79l2.22,.66h0Zm-10.06-1.57c.59,1.9,1.14,4.63,1.33,6.44l-1.68,.31c-.17-1.82-.71-4.43-1.33-6.39l1.68-.37h0Z"/><path d="M370.9,509.5c-2.89-1.56-6.87-3.41-9.97-4.63v14.2h-2.13v-24.68l2.87,.17c-.03,.31-.26,.51-.74,.59v8.29l.43-.59c3.32,1.22,7.72,3.18,10.68,4.74l-1.14,1.9v.02Z"/><path d="M402.4,494.96v5.71h-3.72l.91,.4c-.09,.17-.31,.23-.57,.2-.34,.4-.83,.94-1.3,1.42h4.63v7.53h-17.87v-7.53h3.89c-.37-.59-.88-1.25-1.39-1.73l.57-.28h-4.63v2.67c0,4.85-.4,11.81-3.38,16.5-.34-.31-1.16-.8-1.65-.99,2.87-4.52,3.12-10.88,3.12-15.51v-8.38h21.4Zm-1.93,4.14v-2.56h-17.55v2.56h17.55Zm-14.56,20.88v-8.41h15.22v8.35h-1.82v-.85h-11.64v.91h-1.76Zm.37-16.02v1.85h6.11v-1.85h-6.11Zm0,3.1v1.9h6.11v-1.9h-6.11Zm13.04,5.85h-11.64v1.73h11.64v-1.73Zm-11.64,4.8h11.64v-1.82h-11.64v1.82Zm1.11-17.04c.62,.62,1.19,1.39,1.47,2.01h5.56c.51-.59,1.11-1.37,1.54-2.01h-8.57Zm11.7,5.14v-1.85h-6.3v1.85h6.3Zm0,3.15v-1.9h-6.3v1.9h6.3Z"/></g></g><g><rect class="h" x="512.11" y="439.12" width="441.11" height="128.69"/><path d="M952.78,439.56v127.81h-440.22v-127.81h440.22m.89-.89H511.67v129.58h442v-129.58h0Z"/></g><g><rect class="d" x="512.11" y="309.12" width="441.11" height="128.69"/><path class="d" d="M952.78,309.56v127.81h-440.22v-127.81h440.22m.89-.89H511.67v129.58h442v-129.58h0Z"/></g><g class="i"><path d="M648.16,379.68c-3.06-1.65-7.26-3.6-10.53-4.89v15h-2.25v-26.07l3.03,.18c-.03,.33-.27,.54-.78,.63v8.76l.45-.63c3.51,1.29,8.16,3.36,11.28,5.01l-1.2,2.01Z"/><path d="M677.32,373.47c-.06,.12-.21,.24-.39,.3-2.46,9.06-7.47,13.47-16.44,15.96-.27-.54-.84-1.29-1.26-1.74,8.16-2.04,13.23-6.24,15.12-13.2h-19.86v-2.04h20.76l.3-.18,1.77,.9Zm-2.82-6.42h-17.1v-1.98h17.1v1.98Z"/><path d="M682.75,366.15c3.12,.99,6.72,2.55,8.94,4.08l-1.14,1.89c-2.16-1.53-5.7-3.12-8.76-4.17l.96-1.8Zm-.12,20.79c10.65-3.3,17.73-9.27,21.33-17.58,.63,.51,1.32,.9,1.95,1.23-3.75,8.22-11.07,14.61-21.24,18-.03,.27-.21,.57-.42,.69l-1.62-2.34Z"/><path d="M728.8,366.81c-.06,.15-.21,.27-.39,.33-1.62,3.81-3.54,7.11-6,10.32,3.27,2.61,8.19,7.08,10.98,10.17l-1.83,1.59c-2.64-3.06-7.47-7.62-10.53-10.08-2.64,3.21-7.2,7.59-11.55,10.08-.33-.45-1.05-1.2-1.56-1.62,8.31-4.56,14.88-13.08,17.58-19.59h-14.73v-2.04h15.9l.39-.15,1.74,.99Z"/><path d="M744.76,377.01c-1.35,3.51-3.33,6.6-5.64,8.85l-1.74-1.14c2.25-2.1,4.2-4.95,5.43-8.46l1.95,.75Zm6.42-4.62v14.07c0,3.27-2.34,3.27-7.14,3.27-.12-.54-.36-1.38-.63-2.01,.87,.03,1.83,.03,2.64,.03h1.74c.84,0,1.23-.54,1.23-1.26v-14.1h-10.2v-2.04h10.2v-6.33l2.85,.15c-.03,.3-.24,.51-.69,.57v5.61h10.14v2.04h-10.14Zm5.37,3.66c2.19,2.43,4.71,5.97,6.33,8.73l-1.92,1.11c-1.47-2.73-4.11-6.6-6.12-8.88l1.71-.96Zm3.9-13.83c1.83,0,3.33,1.5,3.33,3.36s-1.5,3.36-3.33,3.36-3.39-1.5-3.39-3.36,1.56-3.36,3.39-3.36Zm2.34,3.36c0-1.32-1.05-2.4-2.34-2.4s-2.4,1.08-2.4,2.4,1.08,2.37,2.4,2.37,2.34-1.14,2.34-2.37Z"/><path d="M767.11,375.21h25.05v2.13h-23.91c-.18,.3-.57,.51-.96,.57l-.18-2.7Z"/><path d="M813.76,379.68c-3.06-1.65-7.26-3.6-10.53-4.89v15h-2.25v-26.07l3.03,.18c-.03,.33-.27,.54-.78,.63v8.76l.45-.63c3.51,1.29,8.16,3.36,11.28,5.01l-1.2,2.01Z"/><path d="M844.93,364.32v6.03h-3.93l.96,.42c-.09,.18-.33,.24-.6,.21-.36,.42-.87,.99-1.38,1.5h4.89v7.95h-18.87v-7.95h4.11c-.39-.63-.93-1.32-1.47-1.83l.6-.3h-4.89v2.82c0,5.13-.42,12.48-3.57,17.43-.36-.33-1.23-.84-1.74-1.05,3.03-4.77,3.3-11.49,3.3-16.38v-8.85h22.59Zm-2.04,4.38v-2.7h-18.54v2.7h18.54Zm-15.39,22.05v-8.88h16.08v8.82h-1.92v-.9h-12.3v.96h-1.86Zm.39-16.92v1.95h6.45v-1.95h-6.45Zm0,3.27v2.01h6.45v-2.01h-6.45Zm13.77,6.18h-12.3v1.83h12.3v-1.83Zm-12.3,5.07h12.3v-1.92h-12.3v1.92Zm1.17-18c.66,.66,1.26,1.47,1.56,2.13h5.88c.54-.63,1.17-1.44,1.62-2.13h-9.06Zm12.36,5.43v-1.95h-6.66v1.95h6.66Zm0,3.33v-2.01h-6.66v2.01h6.66Z"/></g><g class="i"><path d="M659.47,500.74c-.09,.15-.27,.24-.54,.27-1.92,2.4-4.5,4.98-7.26,7.11l.48,.12c-.06,.15-.27,.39-.66,.42v11.43h-2.13v-10.41c-3.06,2.1-7.02,4.23-10.71,5.7-.15-.21-1.14-1.44-1.38-1.68,7.26-2.7,14.16-7.17,18.27-11.97h-15.18v-1.95h17.19l.33-.21,1.59,1.17Zm-4.95-2.34c-2.61-1.38-6.69-2.73-9.87-3.63l.99-1.74c3.21,.78,7.26,2.22,9.99,3.54l-1.11,1.83Zm.21,9.63c3,1.56,6.6,3.81,8.76,5.52l-1.53,1.62c-2.01-1.68-5.73-4.11-8.61-5.64l1.38-1.5Z"/><path d="M669.58,501.76c.9,1.83,1.89,4.71,2.25,6.45l-1.68,.45c-.36-1.74-1.29-4.47-2.19-6.39l1.62-.51Zm17.91,.21c-.06,.27-.36,.33-.63,.3-2.34,8.76-6.75,14.13-14.01,17.07-.24-.36-.78-1.05-1.17-1.38,7.17-2.82,11.28-7.74,13.47-16.68l2.34,.69Zm-10.62-1.65c.63,2.01,1.2,4.89,1.41,6.81l-1.77,.33c-.18-1.92-.75-4.68-1.41-6.75l1.77-.39Z"/><path d="M709.36,509.68c-3.06-1.65-7.26-3.6-10.53-4.89v15h-2.25v-26.07l3.03,.18c-.03,.33-.27,.54-.78,.63v8.76l.45-.63c3.51,1.29,8.16,3.36,11.28,5.01l-1.2,2.01Z"/><path d="M738.76,497.05c-.09,.12-.24,.24-.39,.3-1.17,11.73-5.16,18.03-15.18,22.08-.39-.51-.99-1.17-1.5-1.62,9.57-3.9,13.32-9.6,14.31-19.44h-17.13v8.28h-2.07v-10.32h19.89l.33-.24,1.74,.96Z"/><path d="M743.41,505.21h25.05v2.13h-23.91c-.18,.3-.57,.51-.96,.57l-.18-2.7Z"/><path d="M794.17,499.42c-.12,.15-.27,.3-.45,.42-3.15,9.72-8.07,15.96-16.35,20.16-.36-.51-.93-1.2-1.53-1.65,7.86-3.81,12.72-9.81,15.21-17.76h-10.71c-1.74,2.7-4.05,5.31-6.72,7.41-.42-.42-1.11-.99-1.71-1.38,4.08-3.15,7.53-7.74,9.57-13.02l2.85,.81c-.12,.3-.48,.39-.87,.39-.6,1.32-1.23,2.58-1.92,3.78h10.56l.36-.18,1.71,1.02Z"/><path d="M823.03,494.32v6.03h-3.93l.96,.42c-.09,.18-.33,.24-.6,.21-.36,.42-.87,.99-1.38,1.5h4.89v7.95h-18.87v-7.95h4.11c-.39-.63-.93-1.32-1.47-1.83l.6-.3h-4.89v2.82c0,5.13-.42,12.48-3.57,17.43-.36-.33-1.23-.84-1.74-1.05,3.03-4.77,3.3-11.49,3.3-16.38v-8.85h22.59Zm-2.04,4.38v-2.7h-18.54v2.7h18.54Zm-15.39,22.05v-8.88h16.08v8.82h-1.92v-.9h-12.3v.96h-1.86Zm.39-16.92v1.95h6.45v-1.95h-6.45Zm0,3.27v2.01h6.45v-2.01h-6.45Zm13.77,6.18h-12.3v1.83h12.3v-1.83Zm-12.3,5.07h12.3v-1.92h-12.3v1.92Zm1.17-18c.66,.66,1.26,1.47,1.56,2.13h5.88c.54-.63,1.17-1.44,1.62-2.13h-9.06Zm12.36,5.43v-1.95h-6.66v1.95h6.66Zm0,3.33v-2.01h-6.66v2.01h6.66Z"/></g><g><rect class="f" x="512.44" y="569.18" width="441.48" height="64.6"/><path class="f" d="M953.48,569.4v64.15h-440.59v-64.15h440.59m.89-.45h-442.37v65.04h442.37v-65.04h0Z"/></g><g><rect class="f" x="512.44" y="634.22" width="441.48" height="63.78"/><path class="f" d="M953.48,634.44v63.34h-440.59v-63.34h440.59m.89-.44h-442.37v64.22h442.37v-64.22h0Z"/></g><g class="i"><path d="M661.57,596.51h-9.9l.51,.15c-.03,.18-.27,.33-.6,.36-.78,5.43-3.24,10.83-9.27,13.86-.33-.39-1.11-1.08-1.62-1.47,5.91-2.94,7.98-7.5,8.67-12.9h-11.46v-2.01h23.67v2.01Zm-4.41-8.19h-16.65v-2.01h16.65v2.01Zm.39-4.41c1.23,1.29,2.61,3.33,3.3,4.74l-1.2,.81c-.63-1.38-2.07-3.51-3.27-4.74l1.17-.81Zm3.54-1.02c1.23,1.29,2.67,3.33,3.39,4.71l-1.23,.75c-.63-1.32-2.13-3.45-3.3-4.68l1.14-.78Z"/><path d="M666.61,596.21h25.05v2.13h-23.91c-.18,.3-.57,.51-.96,.57l-.18-2.7Z"/><path d="M717.43,589.79c-.03,.15-.18,.27-.36,.33-1.11,3.72-2.61,7.14-4.41,9.93,1.29,.75,2.76,1.68,3.87,2.49l-1.26,1.98c-1.08-.84-2.61-1.83-3.87-2.61-2.76,3.84-6.3,6.93-10.83,9.12-.33-.51-1.11-1.23-1.65-1.56,4.38-2.04,7.89-5.07,10.62-8.64-2.22-1.23-4.41-2.28-6.63-3.12l1.14-1.68c2.19,.78,4.44,1.8,6.75,3.03,1.56-2.46,2.79-5.07,3.63-7.95h-10.17c-1.83,3.06-4.29,6.09-6.93,8.25-.39-.36-1.2-1.02-1.71-1.35,3.93-3,7.65-8.4,9.45-13.53l2.85,.66c-.12,.33-.42,.42-.81,.39-.42,.99-1.11,2.46-1.68,3.57h9.96l.42-.12,1.62,.81Z"/><path d="M725.2,601.31v-14.58l2.85,.18c-.03,.27-.24,.48-.72,.54v13.86h-2.13Zm16.71-15.75c-.03,.3-.24,.45-.72,.51v9.54c0,6.3-2.16,12.06-10.77,15.39-.3-.45-1.05-1.23-1.56-1.62,8.31-3.09,10.17-8.22,10.17-13.77v-10.23l2.88,.18Z"/><path d="M748.75,587.15c3.12,.99,6.72,2.55,8.94,4.08l-1.14,1.89c-2.16-1.53-5.7-3.12-8.76-4.17l.96-1.8Zm-.12,20.79c10.65-3.3,17.73-9.27,21.33-17.58,.63,.51,1.32,.9,1.95,1.23-3.75,8.22-11.07,14.61-21.24,18-.03,.27-.21,.57-.42,.69l-1.62-2.34Z"/><path d="M796.27,590.42c-.12,.15-.27,.3-.45,.42-3.15,9.72-8.07,15.96-16.35,20.16-.36-.51-.93-1.2-1.53-1.65,7.86-3.81,12.72-9.81,15.21-17.76h-10.71c-1.74,2.7-4.05,5.31-6.72,7.41-.42-.42-1.11-.99-1.71-1.38,4.08-3.15,7.53-7.74,9.57-13.02l2.85,.81c-.12,.3-.48,.39-.87,.39-.6,1.32-1.23,2.58-1.92,3.78h10.56l.36-.18,1.71,1.02Z"/><path d="M825.13,585.32v6.03h-3.93l.96,.42c-.09,.18-.33,.24-.6,.21-.36,.42-.87,.99-1.38,1.5h4.89v7.95h-18.87v-7.95h4.11c-.39-.63-.93-1.32-1.47-1.83l.6-.3h-4.89v2.82c0,5.13-.42,12.48-3.57,17.43-.36-.33-1.23-.84-1.74-1.05,3.03-4.77,3.3-11.49,3.3-16.38v-8.85h22.59Zm-2.04,4.38v-2.7h-18.54v2.7h18.54Zm-15.39,22.05v-8.88h16.08v8.82h-1.92v-.9h-12.3v.96h-1.86Zm.39-16.92v1.95h6.45v-1.95h-6.45Zm0,3.27v2.01h6.45v-2.01h-6.45Zm13.77,6.18h-12.3v1.83h12.3v-1.83Zm-12.3,5.07h12.3v-1.92h-12.3v1.92Zm1.17-18c.66,.66,1.26,1.47,1.56,2.13h5.88c.54-.63,1.17-1.44,1.62-2.13h-9.06Zm12.36,5.43v-1.95h-6.66v1.95h6.66Zm0,3.33v-2.01h-6.66v2.01h6.66Z"/></g><g class="i"><path d="M698.01,665.53l-4.23,.93v10.29h-1.98v-9.84c-1.65,.36-3.15,.69-4.35,.93-.03,.21-.18,.39-.39,.45l-.78-2.31c1.5-.24,3.42-.6,5.52-1.02v-7.74h-2.97c-.3,1.8-.66,3.45-1.11,4.71-.39-.27-1.05-.63-1.5-.84,.84-2.43,1.29-6.63,1.59-10.56l2.34,.51c-.06,.21-.27,.3-.63,.33-.09,1.26-.24,2.61-.39,3.9h2.67v-6.36l2.55,.15c-.03,.21-.18,.36-.57,.42v5.79h3.81v1.95h-3.81v7.38l4.05-.81,.18,1.74Zm14.31-10.74l1.08,.09c0,.18-.03,.48-.06,.69-.57,14.04-1.08,18.66-2.22,20.07-.57,.81-1.2,1.14-3.18,1.14-.66,0-1.41-.03-2.16-.06-.03-.6-.24-1.47-.57-2.01,1.35,.09,2.55,.12,3.09,.12,.51,0,.78-.09,1.08-.51,.87-1.02,1.47-5.4,1.95-17.61h-2.34c-.87,7.26-2.94,15.81-6.15,20.07-.42-.33-1.17-.78-1.74-.99,3.3-3.96,5.31-12,6.21-19.08h-2.58c-1.14,6.15-3.45,13.44-6.45,17.16-.45-.36-1.2-.75-1.8-.99,3.03-3.42,5.34-10.17,6.48-16.17h-2.4c-.78,2.55-1.77,4.86-2.94,6.6-.33-.33-1.08-.84-1.53-1.14,2.07-2.97,3.51-8.16,4.29-13.38l2.49,.54c-.06,.21-.27,.33-.66,.33-.3,1.74-.66,3.48-1.11,5.16h10.74l.48-.03Z"/><path d="M722.43,661.36v7.44l4.08-1.2c.03,.18,.06,.36,.24,1.74-3.48,1.11-7.17,2.31-9.48,3-.03,.24-.21,.39-.39,.45l-.81-2.22c1.23-.3,2.73-.72,4.41-1.2v-8.01h-3.72v-1.89h3.72v-6.75h-4.02v-1.92h9.9v1.92h-3.93v6.75h3.63v1.89h-3.63Zm13.62,12.57h8.4v1.86h-19.29v-1.86h9v-4.65h-7.02v-1.83h7.02v-3.51h-6.84v-13.32h15.75v13.32h-7.02v3.51h7.44v1.83h-7.44v4.65Zm-6.9-21.54v4.02h5.01v-4.02h-5.01Zm0,9.78h5.01v-4.08h-5.01v4.08Zm12.03-5.76v-4.02h-5.13v4.02h5.13Zm0,5.76v-4.08h-5.13v4.08h5.13Z"/><path d="M771.93,650.32v6.03h-3.93l.96,.42c-.09,.18-.33,.24-.6,.21-.36,.42-.87,.99-1.38,1.5h4.89v7.95h-18.87v-7.95h4.11c-.39-.63-.93-1.32-1.47-1.83l.6-.3h-4.89v2.82c0,5.13-.42,12.48-3.57,17.43-.36-.33-1.23-.84-1.74-1.05,3.03-4.77,3.3-11.49,3.3-16.38v-8.85h22.59Zm-2.04,4.38v-2.7h-18.54v2.7h18.54Zm-15.39,22.05v-8.88h16.08v8.82h-1.92v-.9h-12.3v.96h-1.86Zm.39-16.92v1.95h6.45v-1.95h-6.45Zm0,3.27v2.01h6.45v-2.01h-6.45Zm13.77,6.18h-12.3v1.83h12.3v-1.83Zm-12.3,5.07h12.3v-1.92h-12.3v1.92Zm1.17-18c.66,.66,1.26,1.47,1.56,2.13h5.88c.54-.63,1.17-1.44,1.62-2.13h-9.06Zm12.36,5.43v-1.95h-6.66v1.95h6.66Zm0,3.33v-2.01h-6.66v2.01h6.66Z"/></g><g class="i"><path d="M182.1,82.09h-6.75v20.73h-2.49v-20.73h-6.72v-2.1h15.96v2.1Z"/><path d="M199.59,102.13c-1.05,.51-3.09,1.02-5.7,1.02-5.88,0-10.62-3.81-10.62-11.55s4.59-11.97,11.28-11.97c2.73,0,4.32,.57,5.04,.93l-.66,2.1c-1.05-.51-2.52-.93-4.32-.93-5.19,0-8.73,3.48-8.73,9.78s3.24,9.54,8.58,9.54c1.74,0,3.45-.39,4.59-.93l.54,2.01Z"/><path d="M203.22,80.26c1.32-.24,3.06-.45,5.19-.45,7.38,0,7.98,4.74,7.98,6.54,0,5.37-4.29,7.29-8.34,7.29-.87,0-1.65-.03-2.34-.21v9.39h-2.49v-22.56Zm2.49,11.1c.63,.18,1.44,.24,2.4,.24,3.6,0,5.79-1.8,5.79-5.07s-2.34-4.71-5.46-4.71c-1.26,0-2.19,.12-2.73,.24v9.3Z"/><path d="M219.72,104.17h-2.01l9.51-24.57h2.07l-9.57,24.57Z"/><path d="M231.75,79.96h2.49v22.86h-2.49v-22.86Z"/><path d="M239.37,80.26c1.32-.24,3.06-.45,5.19-.45,7.38,0,7.98,4.74,7.98,6.54,0,5.37-4.29,7.29-8.34,7.29-.87,0-1.65-.03-2.34-.21v9.39h-2.49v-22.56Zm2.49,11.1c.63,.18,1.44,.24,2.4,.24,3.6,0,5.79-1.8,5.79-5.07s-2.34-4.71-5.46-4.71c-1.26,0-2.19,.12-2.73,.24v9.3Z"/><path d="M270.66,82.96c-.12,.27-.36,.48-.75,.48-1.08,9.33-4.2,17.46-9.18,17.46-2.52,0-4.8-2.52-4.8-7.26,0-7.2,5.61-13.23,13.5-13.23,8.67,0,12.42,5.49,12.42,11.34,0,7.14-4.14,10.59-11.4,12.27-.27-.48-.78-1.29-1.26-1.83,6.9-1.32,10.44-4.68,10.44-10.35,0-4.95-3.18-9.45-10.2-9.45-.3,0-.63,.03-.9,.06l2.13,.51Zm-2.88-.39c-6.06,.75-9.81,5.76-9.81,11.01,0,3.21,1.38,5.22,2.82,5.22,3.63,0,6.24-8.01,6.99-16.23Z"/><path d="M293.22,78.73l1.29,.75c-.03,.12-.15,.24-.24,.3-.72,2.25-1.74,5.31-2.73,7.8,2.13,2.49,2.88,4.59,2.88,6.51,0,4.26-2.49,4.17-4.65,4.08-.03-.51-.24-1.29-.51-1.77,.42,.06,.81,.09,1.17,.09,1.17,0,2.13,0,2.13-2.55-.03-1.68-.75-3.69-2.88-6.12,.87-2.28,1.71-5.07,2.34-7.17h-3.96v24.75h-1.83v-26.58h6.66l.33-.09Zm4.86,9.18c1.59-.36,3.33-.78,5.07-1.17l.18,1.53c-2.94,.81-5.97,1.62-7.89,2.1-.03,.21-.15,.39-.33,.48l-.99-2.1c.63-.12,1.35-.27,2.13-.45v-10.47l2.43,.15c-.03,.21-.21,.33-.6,.39v3.36h4.8v1.71h-4.8v4.47Zm3.03,4.92c.42-1.05,.87-2.37,1.11-3.3l2.49,.69c-.09,.18-.3,.27-.63,.27-.27,.69-.66,1.56-1.05,2.34h7.8v12.42h-1.95v-1.11h-10.29v1.23h-1.89v-12.54h4.41Zm7.77,4.77v-3.03h-10.29v3.03h10.29Zm-10.29,4.8h10.29v-3.15h-10.29v3.15Zm7.23-14.97c0,.78,.15,.93,1.08,.93h3.27c.81,0,.96-.39,1.02-2.94,.42,.33,1.17,.6,1.71,.75-.21,3.12-.72,3.93-2.52,3.93h-3.66c-2.22,0-2.76-.54-2.76-2.64v-9.66l2.43,.18c-.03,.18-.18,.33-.57,.39v4.2c1.86-.81,3.75-1.8,4.86-2.7l1.62,1.47c-.06,.09-.15,.12-.3,.12-.06,0-.15,0-.24-.03-1.41,.96-3.75,1.98-5.94,2.79v3.21Z"/><path d="M340.64,78.94v6.03h-3.93l.96,.42c-.09,.18-.33,.24-.6,.21-.36,.42-.87,.99-1.38,1.5h4.89v7.95h-18.87v-7.95h4.11c-.39-.63-.93-1.32-1.47-1.83l.6-.3h-4.89v2.82c0,5.13-.42,12.48-3.57,17.43-.36-.33-1.23-.84-1.74-1.05,3.03-4.77,3.3-11.49,3.3-16.38v-8.85h22.59Zm-2.04,4.38v-2.7h-18.54v2.7h18.54Zm-15.39,22.05v-8.88h16.08v8.82h-1.92v-.9h-12.3v.96h-1.86Zm.39-16.92v1.95h6.45v-1.95h-6.45Zm0,3.27v2.01h6.45v-2.01h-6.45Zm13.77,6.18h-12.3v1.83h12.3v-1.83Zm-12.3,5.07h12.3v-1.92h-12.3v1.92Zm1.17-18c.66,.66,1.26,1.47,1.56,2.13h5.88c.54-.63,1.17-1.44,1.62-2.13h-9.06Zm12.36,5.43v-1.95h-6.66v1.95h6.66Zm0,3.33v-2.01h-6.66v2.01h6.66Z"/><path d="M356.97,91.72v6.78c0,1.59,.75,2.67,2.94,2.67h5.52c1.05,0,2.64-.06,3.63-.21,.03,.57,.06,1.59,.06,2.04-.96,.15-2.67,.18-3.69,.18h-5.67c-3.66,0-4.95-1.92-4.95-4.68v-6.78h-8.58v-1.98h8.58v-7.41h-6.42v-1.98h19.32v1.98h-10.74v7.41h13.59v1.98h-13.59Z"/><path d="M399.69,90.13h-9.9l.51,.15c-.03,.18-.27,.33-.6,.36-.78,5.43-3.24,10.83-9.27,13.86-.33-.39-1.11-1.08-1.62-1.47,5.91-2.94,7.98-7.5,8.67-12.9h-11.46v-2.01h23.67v2.01Zm-4.41-8.19h-16.65v-2.01h16.65v2.01Zm.39-4.41c1.23,1.29,2.61,3.33,3.3,4.74l-1.2,.81c-.63-1.38-2.07-3.51-3.27-4.74l1.17-.81Zm3.54-1.02c1.23,1.29,2.67,3.33,3.39,4.71l-1.23,.75c-.63-1.32-2.13-3.45-3.3-4.68l1.14-.78Z"/><path d="M411.6,83.05c-.03,.27-.3,.45-.69,.51-.18,8.07-.84,15.42-5.46,20.79-.48-.36-1.2-.81-1.8-1.14,4.47-4.86,5.01-12.36,5.1-20.43l2.85,.27Zm7.77,17.28c5.01-2.43,8.25-6.81,9.99-12.06,.45,.39,1.35,.9,1.86,1.17-2.13,6.06-5.85,10.53-12.24,13.56-.09,.24-.3,.48-.51,.6l-1.56-1.98,.33-.45v-22.02l2.79,.15c-.03,.27-.24,.51-.66,.57v20.46Z"/></g><g class="i"><path d="M655.88,94.18c0,8.04-4.5,12-9.9,12-5.67,0-9.69-4.47-9.69-11.61s4.23-11.97,9.96-11.97,9.63,4.68,9.63,11.58Zm-16.98,.33c0,4.86,2.52,9.6,7.17,9.6s7.2-4.59,7.2-9.81c0-4.59-2.25-9.63-7.14-9.63s-7.23,4.98-7.23,9.84Z"/><path d="M669.86,85.78c-.66-.42-2.1-1.05-4.02-1.05-3.18,0-4.38,1.95-4.38,3.6,0,2.25,1.38,3.39,4.44,4.68,3.69,1.56,5.58,3.45,5.58,6.72,0,3.63-2.64,6.42-7.56,6.42-2.07,0-4.32-.63-5.46-1.44l.69-2.07c1.23,.81,3.06,1.41,4.92,1.41,3.06,0,4.86-1.65,4.86-4.11,0-2.25-1.23-3.63-4.2-4.83-3.45-1.29-5.79-3.3-5.79-6.45,0-3.48,2.82-6.03,6.99-6.03,2.16,0,3.81,.54,4.68,1.08l-.75,2.07Z"/><path d="M675.47,82.96h2.49v22.86h-2.49v-22.86Z"/><path d="M709.16,92.14h-7.86c2.13,2.55,5.43,4.86,8.52,6.03-.48,.39-1.05,1.11-1.35,1.59-3.45-1.5-7.14-4.44-9.45-7.62h-6.84c-2.43,3.36-5.79,5.97-9.6,7.71-.33-.39-.96-1.08-1.41-1.47,3.33-1.38,6.3-3.48,8.58-6.24h-7.77v-1.77h9.06c.6-.9,1.14-1.89,1.59-2.91-3.18,.12-6.06,.18-8.31,.24-.03,.24-.21,.36-.42,.42l-.84-2.28c1.47,0,3.21-.03,5.19-.06,1.23-1.59,2.64-3.75,3.42-5.31l2.46,.84c-.09,.18-.33,.27-.66,.27-.78,1.23-1.89,2.82-3,4.17,3.75-.06,7.98-.15,12.18-.27-1.23-.96-2.55-1.89-3.78-2.67l1.56-1.02c2.82,1.71,6.21,4.32,7.86,6.21-.87,.69-1.26,.9-1.68,1.14-.54-.63-1.26-1.35-2.1-2.1l-9.39,.36,.24,.06c-.09,.21-.33,.3-.69,.3-.39,.9-.84,1.77-1.32,2.61h15.81v1.77Zm-3.24,9.48c-.12,.21-.36,.27-.6,.24-3.57,3.51-10.5,5.67-18.24,6.69-.18-.51-.57-1.23-.96-1.68,7.47-.84,14.28-2.79,17.64-6.12l2.16,.87Zm-4.17-3.48c-.15,.18-.33,.24-.57,.21-2.76,2.1-7.74,3.99-12.24,5.01-.24-.42-.69-1.05-1.14-1.44,4.32-.9,9.27-2.61,11.94-4.65l2.01,.87Zm-3.27-3.6c-.06,.15-.27,.24-.54,.24-2.07,1.44-5.76,2.97-8.79,3.84-.3-.36-.78-.93-1.23-1.26,2.97-.78,6.6-2.19,8.58-3.66l1.98,.84Z"/><path d="M717.53,102.28c-.75,2.25-2.07,4.68-3.69,6.12l-1.83-.81c1.53-1.29,2.91-3.6,3.63-5.79l1.89,.48Zm-2.28-3.9v1.89h-1.89v-18.45h8.64v16.56h-6.75Zm4.86-14.73h-4.86v5.43h4.86v-5.43Zm-4.86,12.9h4.86v-5.64h-4.86v5.64Zm6.3,11.55c-.03-1.41-.27-3.75-.63-5.55l1.83-.18c.42,1.77,.75,4.08,.78,5.43l-1.98,.3Zm16.8-26.19c0,.18-.03,.39-.09,.6-.45,7.74-.87,7.74-4.23,7.74-.63,0-1.41-.03-2.16-.09-.06-.48-.24-1.2-.54-1.68,1.38,.12,2.67,.15,3.15,.15,.45,0,.72-.06,.93-.27,.39-.39,.66-1.68,.87-4.77h-5.52c-.66,3.51-2.16,6.18-7.05,7.65-.21-.45-.72-1.17-1.14-1.53,4.11-1.14,5.58-3.15,6.18-6.12h-5.04v-1.8h13.11l.45-.06,1.08,.18Zm-.9,9.96v8.31h-12.84v-8.31h12.84Zm-1.98,6.6v-4.89h-8.94v4.89h8.94Zm-6.45,9.66c-.27-1.44-1.08-3.81-1.89-5.58l1.89-.36c.84,1.74,1.68,4.08,1.98,5.49l-1.98,.45Zm8.43,.3c-.75-1.62-2.52-4.23-4.05-6.09l1.86-.66c1.56,1.83,3.36,4.35,4.17,6l-1.98,.75Z"/><path d="M753.59,94.72v6.78c0,1.59,.75,2.67,2.94,2.67h5.52c1.05,0,2.64-.06,3.63-.21,.03,.57,.06,1.59,.06,2.04-.96,.15-2.67,.18-3.69,.18h-5.67c-3.66,0-4.95-1.92-4.95-4.68v-6.78h-8.58v-1.98h8.58v-7.41h-6.42v-1.98h19.32v1.98h-10.74v7.41h13.59v1.98h-13.59Z"/><path d="M796.31,93.13h-9.9l.51,.15c-.03,.18-.27,.33-.6,.36-.78,5.43-3.24,10.83-9.27,13.86-.33-.39-1.11-1.08-1.62-1.47,5.91-2.94,7.98-7.5,8.67-12.9h-11.46v-2.01h23.67v2.01Zm-4.41-8.19h-16.65v-2.01h16.65v2.01Zm.39-4.41c1.23,1.29,2.61,3.33,3.3,4.74l-1.2,.81c-.63-1.38-2.07-3.51-3.27-4.74l1.17-.81Zm3.54-1.02c1.23,1.29,2.67,3.33,3.39,4.71l-1.23,.75c-.63-1.32-2.13-3.45-3.3-4.68l1.14-.78Z"/><path d="M808.22,86.05c-.03,.27-.3,.45-.69,.51-.18,8.07-.84,15.42-5.46,20.79-.48-.36-1.2-.81-1.8-1.14,4.47-4.86,5.01-12.36,5.1-20.43l2.85,.27Zm7.77,17.28c5.01-2.43,8.25-6.81,9.99-12.06,.45,.39,1.35,.9,1.86,1.17-2.13,6.06-5.85,10.53-12.24,13.56-.09,.24-.3,.48-.51,.6l-1.56-1.98,.33-.45v-22.02l2.79,.15c-.03,.27-.24,.51-.66,.57v20.46Z"/></g></svg>