<?xml version="1.0" encoding="UTF-8"?><svg id="a" xmlns="http://www.w3.org/2000/svg" width="1025" height="769" xmlns:xlink="http://www.w3.org/1999/xlink" viewBox="0 0 1025 769"><defs><style>.x{clip-path:url(#j);}.y{clip-path:url(#t);}.z{clip-path:url(#g);}.aa{clip-path:url(#r);}.ab{isolation:isolate;}.ac{clip-path:url(#p);}.ad{clip-path:url(#d);}.ae{clip-path:url(#v);}.af{clip-path:url(#m);}.ag{clip-path:url(#i);}.ah{clip-path:url(#a);}.ai{fill:#f39b69;stroke:#231815;stroke-width:2px;}.ai,.aj{stroke-miterlimit:10;}.ak{clip-path:url(#e);}.al{clip-path:url(#f);}.am{clip-path:url(#l);}.aj{stroke:#8cbfe8;stroke-width:6px;}.aj,.an,.ao{fill:none;}.ap{fill:#007cbe;}.aq{clip-path:url(#o);}.ar{clip-path:url(#n);}.as{clip-path:url(#q);}.at{clip-path:url(#k);}.au{clip-path:url(#c);}.av{clip-path:url(#u);}.ao{stroke:#fff;stroke-width:3.17px;}.aw{clip-path:url(#s);}.ax{clip-path:url(#h);}.ay{clip-path:url(#w);}</style><clipPath id="b"><rect class="an" x="129.8" y="52.6" width="230" height="213.5"/></clipPath><clipPath id="c"><rect class="an" x="129.8" y="52.6" width="230" height="213.5"/></clipPath><clipPath id="d"><rect class="an" x="129.8" y="52.6" width="230" height="213.5"/></clipPath><clipPath id="e"><rect class="an" x="129.8" y="52.6" width="230" height="213.5"/></clipPath><clipPath id="f"><rect class="an" x="129.8" y="52.6" width="230" height="213.5"/></clipPath><clipPath id="g"><rect class="an" x="129.8" y="52.6" width="230" height="213.5"/></clipPath><clipPath id="h"><rect class="an" x="129.8" y="52.6" width="230" height="213.5"/></clipPath><clipPath id="i"><rect class="an" x="129.8" y="52.6" width="230" height="213.5"/></clipPath><clipPath id="j"><rect class="an" x="129.8" y="52.6" width="230" height="213.5"/></clipPath><clipPath id="k"><rect class="an" x="129.8" y="52.6" width="230" height="213.5"/></clipPath><clipPath id="l"><rect class="an" x="129.8" y="52.6" width="230" height="213.5"/></clipPath><clipPath id="m"><rect class="an" x="646" y="54.59" width="230" height="213.5"/></clipPath><clipPath id="n"><rect class="an" x="646" y="54.59" width="230" height="213.5"/></clipPath><clipPath id="o"><rect class="an" x="646" y="54.59" width="230" height="213.5"/></clipPath><clipPath id="p"><rect class="an" x="646" y="54.59" width="230" height="213.5"/></clipPath><clipPath id="q"><rect class="an" x="646" y="54.59" width="230" height="213.5"/></clipPath><clipPath id="r"><rect class="an" x="646" y="54.59" width="230" height="213.5"/></clipPath><clipPath id="s"><rect class="an" x="646" y="54.59" width="230" height="213.5"/></clipPath><clipPath id="t"><rect class="an" x="646" y="54.59" width="230" height="213.5"/></clipPath><clipPath id="u"><rect class="an" x="646" y="54.59" width="230" height="213.5"/></clipPath><clipPath id="v"><rect class="an" x="646" y="54.59" width="230" height="213.5"/></clipPath><clipPath id="w"><rect class="an" x="646" y="54.59" width="230" height="213.5"/></clipPath></defs><g><polyline class="ap" points="166.8 239.6 166.8 208.5 333.1 208.5 333.1 239.6 166.8 239.6"/><polygon class="ao" points="166.8 239.6 166.8 208.5 333.1 208.5 333.1 239.6 166.8 239.6"/><g><g class="ah"><polyline class="ap" points="361.2 180.1 361.2 211.6 333.1 239.9 333.1 208.5 166.7 208.5"/></g><g class="au"><polyline class="ao" points="361.2 180.1 361.2 211.6 333.1 239.9 333.1 208.5 166.7 208.5"/></g><g class="ad"><line class="ao" x1="168" y1="180.1" x2="361.2" y2="180.1"/></g><g class="ak"><line class="an" x1="333.1" y1="208.5" x2="361.2" y2="180.1"/></g><g class="al"><line class="ao" x1="333.1" y1="208.5" x2="361.2" y2="180.1"/></g></g><polyline class="ap" points="332.9 207.9 332.9 82.6 166.7 82.6 166.7 207.9 332.9 207.9"/><polygon class="ao" points="332.9 207.9 332.9 82.6 166.7 82.6 166.7 207.9 332.9 207.9"/><g><g class="z"><polyline class="ap" points="332.9 207.9 361.2 179.5 361.2 54.2 195 54.2 166.7 82.6 332.9 82.6 332.9 207.9"/></g><g class="ax"><polygon class="ao" points="332.9 207.9 361.2 179.5 361.2 54.2 195 54.2 166.7 82.6 332.9 82.6 332.9 207.9"/></g></g><polyline class="ap" points="318.3 193.3 318.3 97.1 181.2 97.1 181.2 193.3 318.3 193.3"/><polygon class="ao" points="318.3 193.3 318.3 97.1 181.2 97.1 181.2 193.3 318.3 193.3"/><g><g class="ag"><line class="an" x1="332.9" y1="82.6" x2="361.2" y2="54.2"/></g><g class="x"><line class="ao" x1="332.9" y1="82.6" x2="361.2" y2="54.2"/></g></g><polyline class="ap" points="324.9 262.3 324.9 243.9 133.6 243.9 155.4 222.1 346.6 222.1 346.6 240.6 324.9 262.3"/><g class="at"><polygon class="ao" points="324.9 262.3 324.9 243.9 133.6 243.9 155.4 222.1 346.6 222.1 346.6 240.6 324.9 262.3"/></g><polyline class="ap" points="324.9 243.9 324.9 262.3 133.6 262.3 133.6 243.9 324.9 243.9"/><g class="am"><polygon class="ao" points="324.9 243.9 324.9 262.3 133.6 262.3 133.6 243.9 324.9 243.9"/></g><line class="an" x1="324.9" y1="243.9" x2="346.6" y2="222.1"/><line class="ao" x1="324.9" y1="243.9" x2="346.6" y2="222.1"/></g><g><polyline class="ap" points="683.1 241.59 683.1 210.49 849.3 210.49 849.3 241.59 683.1 241.59"/><polygon class="ao" points="683.1 241.59 683.1 210.49 849.3 210.49 849.3 241.59 683.1 241.59"/><g><g class="af"><polyline class="ap" points="877.4 182.09 877.4 213.59 849.3 241.89 849.3 210.49 682.9 210.49"/></g><g class="ar"><polyline class="ao" points="877.4 182.09 877.4 213.59 849.3 241.89 849.3 210.49 682.9 210.49"/></g><g class="aq"><line class="ao" x1="684.2" y1="182.09" x2="877.4" y2="182.09"/></g><g class="ac"><line class="an" x1="849.3" y1="210.49" x2="877.4" y2="182.09"/></g><g class="as"><line class="ao" x1="849.3" y1="210.49" x2="877.4" y2="182.09"/></g></g><polyline class="ap" points="849.1 209.89 849.1 84.59 682.9 84.59 682.9 209.89 849.1 209.89"/><polygon class="ao" points="849.1 209.89 849.1 84.59 682.9 84.59 682.9 209.89 849.1 209.89"/><g><g class="aa"><polyline class="ap" points="849.1 209.89 877.4 181.49 877.4 56.19 711.3 56.19 682.9 84.59 849.1 84.59 849.1 209.89"/></g><g class="aw"><polygon class="ao" points="849.1 209.89 877.4 181.49 877.4 56.19 711.3 56.19 682.9 84.59 849.1 84.59 849.1 209.89"/></g></g><polyline class="ap" points="834.6 195.29 834.6 99.09 697.4 99.09 697.4 195.29 834.6 195.29"/><polygon class="ao" points="834.6 195.29 834.6 99.09 697.4 99.09 697.4 195.29 834.6 195.29"/><g><g class="y"><line class="an" x1="849.1" y1="84.59" x2="877.4" y2="56.19"/></g><g class="av"><line class="ao" x1="849.1" y1="84.59" x2="877.4" y2="56.19"/></g></g><polyline class="ap" points="841.1 264.29 841.1 245.89 649.9 245.89 671.6 224.09 862.8 224.09 862.8 242.59 841.1 264.29"/><g class="ae"><polygon class="ao" points="841.1 264.29 841.1 245.89 649.9 245.89 671.6 224.09 862.8 224.09 862.8 242.59 841.1 264.29"/></g><polyline class="ap" points="841.1 245.89 841.1 264.29 649.9 264.29 649.9 245.89 841.1 245.89"/><g class="ay"><polygon class="ao" points="841.1 245.89 841.1 264.29 649.9 264.29 649.9 245.89 841.1 245.89"/></g><line class="an" x1="841.1" y1="245.89" x2="862.8" y2="224.09"/><line class="ao" x1="841.1" y1="245.89" x2="862.8" y2="224.09"/></g><g class="ab"><path d="M440.01,33.93c-.06,.16-.22,.29-.42,.35-1.73,4.06-3.78,7.58-6.4,11.01,3.49,2.78,8.74,7.55,11.71,10.85l-1.95,1.7c-2.82-3.26-7.97-8.13-11.23-10.75-2.82,3.42-7.68,8.09-12.32,10.75-.35-.48-1.12-1.28-1.66-1.73,8.86-4.86,15.87-13.95,18.75-20.89h-15.71v-2.18h16.96l.42-.16,1.86,1.06Z"/><path d="M471.41,36.04c-.03,.16-.19,.29-.38,.35-1.18,3.97-2.78,7.62-4.7,10.59,1.38,.8,2.94,1.79,4.13,2.66l-1.34,2.11c-1.15-.9-2.78-1.95-4.13-2.78-2.94,4.1-6.72,7.39-11.55,9.73-.35-.54-1.18-1.31-1.76-1.66,4.67-2.18,8.42-5.41,11.33-9.22-2.37-1.31-4.7-2.43-7.07-3.33l1.22-1.79c2.34,.83,4.74,1.92,7.2,3.23,1.66-2.62,2.98-5.41,3.87-8.48h-10.85c-1.95,3.26-4.58,6.5-7.39,8.8-.42-.38-1.28-1.09-1.82-1.44,4.19-3.2,8.16-8.96,10.08-14.43l3.04,.7c-.13,.35-.45,.45-.86,.42-.45,1.06-1.18,2.62-1.79,3.81h10.62l.45-.13,1.73,.86Z"/><path d="M478.58,33.23c3.33,1.06,7.17,2.72,9.54,4.35l-1.22,2.02c-2.3-1.63-6.08-3.33-9.34-4.45l1.02-1.92Zm-.13,22.17c11.36-3.52,18.91-9.89,22.75-18.75,.67,.54,1.41,.96,2.08,1.31-4,8.77-11.81,15.58-22.65,19.2-.03,.29-.22,.61-.45,.74l-1.73-2.5Z"/><path d="M526.16,47.69c-3.26-1.76-7.74-3.84-11.23-5.21v15.97h-2.4V30.64l3.23,.19c-.03,.35-.29,.58-.83,.67v9.41l.48-.7c3.74,1.38,8.7,3.58,12.03,5.34l-1.28,2.14Zm-3.36-15.07c1.47,1.22,3.39,3.23,4.42,4.7l-1.22,.99c-.96-1.38-2.91-3.52-4.35-4.67l1.15-1.02Zm4.29-2.75c1.5,1.25,3.42,3.26,4.38,4.67l-1.15,.99c-.99-1.38-2.94-3.49-4.38-4.67l1.15-.99Z"/><path d="M560.72,33.55c-.06,.13-.26,.22-.42,.29-1.73,4.1-4.48,7.65-7.58,10.24-.48-.42-1.38-.99-1.95-1.31,2.94-2.14,5.31-5.25,6.37-7.93h-22.91v-2.18h24.13l.35-.16,2.02,1.06Zm-12.48,5.82c-.03,.26-.32,.48-.74,.54-.93,7.55-3.52,14.75-10.11,18.56-.45-.38-1.28-1.12-1.89-1.47,6.53-3.58,8.86-10.27,9.63-17.98l3.1,.35Z"/><path d="M588.37,35.02v21.12h-2.3v-2.02h-17.63v2.08h-2.24v-21.18h22.17Zm-2.3,16.96v-14.82h-17.63v14.82h17.63Z"/><path d="M596.02,33.23c3.33,1.06,7.17,2.72,9.54,4.35l-1.22,2.02c-2.3-1.63-6.08-3.33-9.34-4.45l1.02-1.92Zm-.13,22.17c11.36-3.52,18.91-9.89,22.75-18.75,.67,.54,1.41,.96,2.08,1.31-4,8.77-11.81,15.58-22.65,19.2-.03,.29-.22,.61-.45,.74l-1.73-2.5Z"/></g><g class="ab"><path d="M419.53,155.61c-.54,5.41-1.41,12.61-2.08,17.12h8.1v2.02h-29.05v-2.02h18.62c.29-1.63,.58-3.65,.86-5.76h-12.22c-.13,.61-.29,1.18-.42,1.73l-2.3-.22c1.22-4.48,2.88-12.16,3.87-17.82h-7.29v-2.02h26.94v2.02h-17.38c-.29,1.57-.64,3.23-.96,4.96h13.31Zm-13.73,1.98c-.51,2.59-1.09,5.15-1.6,7.42h12.03c.32-2.5,.64-5.09,.86-7.42h-11.29Z"/><path d="M433.58,150.81c-.06,.29-.42,.48-.86,.51-.38,2.4-.61,5.28-.61,7.97,0,1.18,.06,2.34,.13,3.36,.38,5.44,2.59,8.74,5.06,8.7,1.28,0,2.94-3.26,4.1-6.85,.45,.45,1.31,1.06,1.86,1.38-1.47,4.32-3.33,7.84-5.98,7.9-4.06,.06-6.88-4.86-7.33-11.01-.1-1.22-.13-2.56-.13-4,0-2.82,.16-5.89,.48-8.61l3.29,.64Zm21.21,14.88c-.9-5.6-3.74-9.63-8.06-12.03l1.41-1.73c4.67,2.5,8.1,7.1,9.02,13.02l-2.37,.74Z"/><path d="M467.4,148.86c-.1,.35-.42,.54-1.06,.51-1.12,5.22-1.7,10.94-1.7,14.4,0,2.4,.1,4.83,.42,6.34,.61-1.57,1.98-4.93,2.43-6.05l1.34,1.41c-1.31,3.23-2.27,5.06-2.72,6.5-.16,.54-.26,1.06-.26,1.5,0,.35,.06,.67,.16,.99l-2.27,.42c-1.02-3.04-1.41-6.75-1.41-11.01s.67-10.05,1.7-15.58l3.36,.58Zm20.38,23.39c-1.15,.06-2.34,.1-3.52,.1-2.27,0-4.42-.13-5.95-.35-3.94-.58-5.76-2.75-5.76-5.31,0-2.21,1.22-4.06,3.01-6.18l2.08,.9c-1.6,1.66-2.72,3.2-2.72,5.02,0,3.71,5.44,3.71,8.77,3.71,1.34,0,2.78-.06,4.13-.16l-.03,2.27Zm-14.82-19.55c4.13-.1,9.7-.48,13.95-1.22l.19,2.24c-3.97,.67-10.4,1.09-14.08,1.18l-.06-2.21Z"/><path d="M498.76,159.29v10.53c2.46,3.81,7.01,3.81,13.09,3.81,3.49,0,7.58-.06,10.08-.22-.26,.48-.58,1.47-.7,2.11-2.18,.06-5.63,.13-8.83,.13-7.01,0-11.39,0-14.56-4-1.7,1.47-3.46,2.88-4.9,3.97,0,.29-.06,.42-.29,.51l-1.22-2.3c1.57-1.02,3.52-2.43,5.25-3.84v-8.64h-4.83v-2.05h6.91Zm-4.83-12.06c2.08,1.47,4.48,3.68,5.5,5.31l-1.6,1.47c-1.02-1.63-3.36-3.94-5.44-5.47l1.54-1.31Zm17.98,7.39c-2.02-.99-4.48-2.08-6.56-2.85l1.41-1.25c1.41,.51,3.04,1.15,4.61,1.86,1.7-.77,3.49-1.76,4.86-2.75h-14.01v-1.76h16.22l.35-.1,1.63,1.06c-.1,.13-.32,.22-.51,.26-1.63,1.41-4.1,3.01-6.56,4.19,.99,.45,1.89,.93,2.62,1.34h4.13v14.56c0,2.11-.67,2.34-5.44,2.34-.1-.58-.35-1.31-.61-1.82,.93,.03,1.82,.06,2.46,.06,1.38,0,1.54,0,1.54-.58v-3.26h-6.02v5.41h-1.95v-5.41h-5.79v5.54h-2.05v-16.83h9.66Zm-1.82,1.73h-5.79v3.04h5.79v-3.04Zm-5.79,7.87h5.79v-3.17h-5.79v3.17Zm13.76-4.83v-3.04h-6.02v3.04h6.02Zm-6.02,4.83h6.02v-3.17h-6.02v3.17Z"/><path d="M528.14,157.79c-1.22,2.02-2.56,3.81-3.9,5.34-.22-.51-.77-1.5-1.12-2.02,3.07-3.33,6.14-8.86,8-14.4l2.56,.86c-.13,.22-.35,.32-.74,.29-.83,2.24-1.82,4.48-2.94,6.62l.86,.22c-.06,.19-.22,.35-.64,.38v21.21h-2.08v-18.53Zm4.29-5.25h21.12v1.82h-21.12v-1.82Zm2.37,23.68v-10.27h16.54v10.18h-2.18v-1.5h-12.29v1.6h-2.08Zm16.25-19.2v1.79h-15.93v-1.79h15.93Zm-15.93,6.27v-1.79h15.9v1.79h-15.9Zm15.36-15.23v1.79h-15.01v-1.79h15.01Zm-1.31,19.68h-12.29v5.09h12.29v-5.09Z"/><path d="M563.08,147.87c-.06,.38-.35,.61-.99,.7-.26,3.71-.58,12.19-.58,16.93s2.37,7.07,6.4,7.07,7.87-1.95,11.52-6.08c.32,.51,1.06,1.54,1.44,1.89-3.74,4.25-8.29,6.5-12.99,6.5-5.82,0-8.8-3.36-8.8-9.41,0-4.03,.29-13.95,.51-17.89l3.49,.29Z"/><path d="M595.4,147.42c-.1,.26-.42,.51-.99,.54-.22,1.41-.51,3.07-.8,4.32,3.14-.19,6.62-.74,9.41-1.57l.35,2.18c-2.98,.74-6.5,1.25-10.18,1.54-1.54,6.14-3.65,11.13-6.78,15.74l-2.14-.86c2.91-4.19,5.12-8.99,6.5-14.82h-6.37v-2.08h3.81c.99,0,2.02-.03,2.94-.03,.38-1.7,.67-3.52,.9-5.41l3.36,.45Zm8.51,13.63c.03,2.59,.22,4.35,.42,6.56,2.05,.8,4.7,2.18,6.82,3.71l-1.15,2.05c-1.76-1.34-3.94-2.59-5.66-3.36,0,3.2-1.28,5.7-5.98,5.7-3.55,0-6.27-1.6-6.24-4.61,0-3.2,3.36-4.74,6.3-4.74,1.15,0,2.34,.22,3.62,.58-.13-2.05-.29-4.13-.29-5.63l2.18-.26Zm-1.76,8c-1.31-.51-2.66-.74-3.81-.74-1.92,0-4.19,.77-4.22,2.75,0,1.82,1.79,2.69,4.29,2.69,2.3,0,3.78-1.12,3.78-3.23,0-.51,0-.99-.03-1.47Zm8.77-11.3c-3.62,.03-8,.61-11.33,1.57l-.35-2.02c3.65-1.06,8.06-1.73,11.55-1.73l.13,2.18Z"/><path d="M620.46,150.81c-.06,.29-.42,.48-.86,.51-.38,2.4-.61,5.28-.61,7.97,0,1.18,.06,2.34,.13,3.36,.38,5.44,2.59,8.74,5.06,8.7,1.28,0,2.94-3.26,4.1-6.85,.45,.45,1.31,1.06,1.86,1.38-1.47,4.32-3.33,7.84-5.98,7.9-4.06,.06-6.88-4.86-7.33-11.01-.1-1.22-.13-2.56-.13-4,0-2.82,.16-5.89,.48-8.61l3.3,.64Zm21.21,14.88c-.9-5.6-3.74-9.63-8.06-12.03l1.41-1.73c4.67,2.5,8.1,7.1,9.02,13.02l-2.37,.74Z"/></g><rect class="aj" x="7.8" y="7" width="1005.7" height="282.2"/><path class="ai" d="M567.93,336.19h-31.01v-35.43c0-.41-1.15-.66-2.69-.66h-52.43c-1.44,0-2.69,.33-2.69,.66v35.43h-31.01l31.01,25.02v.5c0,.25,.58,.5,1.34,.58l27.56,22.21,27.56-22.21c.77-.08,1.34-.33,1.34-.58v-.5l31.01-25.02Z"/></svg>