<?xml version="1.0" encoding="UTF-8"?><svg id="b" xmlns="http://www.w3.org/2000/svg" width="782.44" height="219.7" xmlns:xlink="http://www.w3.org/1999/xlink" viewBox="0 0 782.44 219.7"><defs><clipPath id="d"><rect x="147.5" y="0" width="341.32" height="202.97" style="fill:none;"/></clipPath><clipPath id="e"><rect x="549.44" y="6.18" width="230.04" height="213.52" style="fill:none;"/></clipPath><clipPath id="f"><rect x="549.44" y="6.18" width="230.04" height="213.52" style="fill:none;"/></clipPath><clipPath id="g"><rect x="549.44" y="6.18" width="230.04" height="213.52" style="fill:none;"/></clipPath><clipPath id="h"><rect x="549.44" y="6.18" width="230.04" height="213.52" style="fill:none;"/></clipPath><clipPath id="i"><rect x="549.44" y="6.18" width="230.04" height="213.52" style="fill:none;"/></clipPath></defs><g id="c"><g><g style="clip-path:url(#d);"><path d="M266.45,24.03c-59.94-12.19-91.57,19.08-86.58,46.12l.4,1.47c-46.71,8.1-34.47,64.25-12.06,64.25l2.21-.07c-5.64,26.39,48.94,53.24,79.38,39.82l1.96-2.18c10.85,23.73,49.41,27.7,87.54,28.69,33.04,.86,52.33-1.8,66.5-16.56l2.18,.65c52.89,4.33,76.98-32.88,65.42-59.61l2.85-.82c18.03-4.86,20.11-47.26-10.82-53.54l.59-1.64c13.43-27.59-18.24-53.6-62.2-48.71l-3.04-1.62c-31.46-29.02-122.02-24.29-132.51,4.41l-1.81-.67" style="fill:#fff;"/><path d="M266.45,24.03c-59.94-12.19-91.57,19.08-86.58,46.12l.4,1.47c-46.71,8.1-34.47,64.25-12.06,64.25l2.21-.07c-5.64,26.39,48.94,53.24,79.38,39.82l1.96-2.18c10.85,23.73,49.41,27.7,87.54,28.69,33.04,.86,52.33-1.8,66.5-16.56l2.18,.65c52.89,4.33,76.98-32.88,65.42-59.61l2.85-.82c18.03-4.86,20.11-47.26-10.82-53.54l.59-1.64c13.43-27.59-18.24-53.6-62.2-48.71l-3.04-1.62c-31.46-29.02-122.02-24.29-132.51,4.41l-1.81-.67h0Z" style="fill:none; stroke:#007cbe; stroke-width:1.68px;"/></g><text transform="translate(210.23 110.64) scale(.98 1)" style="font-family:KozGoPr6N-Regular-90ms-RKSJ-H, &apos;Kozuka Gothic Pr6N&apos;; font-size:36.61px;"><tspan x="0" y="0" style="letter-spacing:-.1em;">イ</tspan><tspan x="32.95" y="0" style="letter-spacing:-.09em;">ン</tspan><tspan x="66.26" y="0" style="letter-spacing:-.06em;">タ</tspan><tspan x="100.67" y="0" style="letter-spacing:-.02em;">ー</tspan><tspan x="136.55" y="0" style="letter-spacing:-.09em;">ネ</tspan><tspan x="169.87" y="0" style="letter-spacing:-.23em;">ッ</tspan><tspan x="198.05" y="0" style="letter-spacing:-.07em;">ト</tspan></text></g><g><polyline points="586.45 193.15 586.45 162.04 752.71 162.04 752.71 193.15 586.45 193.15" style="fill:#007cbe;"/><polygon points="586.45 193.15 586.45 162.04 752.71 162.04 752.71 193.15 586.45 193.15 586.45 193.15" style="fill:none; stroke:#fff; stroke-width:3.17px;"/><g style="clip-path:url(#e);"><polyline points="780.85 133.69 780.85 165.1 752.71 193.46 752.71 162.04 586.32 162.04" style="fill:#007cbe;"/><polyline points="780.85 133.69 780.85 165.1 752.71 193.46 752.71 162.04 586.32 162.04" style="fill:none; stroke:#fff; stroke-width:3.17px;"/><line x1="587.65" y1="133.69" x2="780.85" y2="133.69" style="fill:none; stroke:#fff; stroke-width:3.17px;"/><line x1="752.71" y1="162.04" x2="780.85" y2="133.69" style="fill:#007cbe;"/><line x1="752.71" y1="162.04" x2="780.85" y2="133.69" style="fill:none; stroke:#fff; stroke-width:3.17px;"/></g><polyline points="752.49 161.41 752.49 36.12 586.32 36.12 586.32 161.41 752.49 161.41" style="fill:#007cbe;"/><polygon points="752.49 161.41 752.49 36.12 586.32 36.12 586.32 161.41 752.49 161.41 752.49 161.41" style="fill:none; stroke:#fff; stroke-width:3.17px;"/><g style="clip-path:url(#f);"><polyline points="752.49 161.41 780.85 133.06 780.85 7.77 614.67 7.77 586.32 36.12 752.49 36.12 752.49 161.41" style="fill:#007cbe;"/><polygon points="752.49 161.41 780.85 133.06 780.85 7.77 614.67 7.77 586.32 36.12 752.49 36.12 752.49 161.41 752.49 161.41" style="fill:none; stroke:#fff; stroke-width:3.17px;"/></g><polyline points="737.98 146.9 737.98 50.63 600.83 50.63 600.83 146.9 737.98 146.9" style="fill:#007cbe;"/><polygon points="737.98 146.9 737.98 50.63 600.83 50.63 600.83 146.9 737.98 146.9 737.98 146.9" style="fill:none; stroke:#fff; stroke-width:3.17px;"/><g style="clip-path:url(#g);"><line x1="752.49" y1="36.12" x2="780.85" y2="7.77" style="fill:#007cbe;"/><line x1="752.49" y1="36.12" x2="780.85" y2="7.77" style="fill:none; stroke:#fff; stroke-width:3.17px;"/></g><polyline points="744.49 215.88 744.49 197.45 553.27 197.45 575.03 175.69 766.25 175.69 766.25 194.12 744.49 215.88" style="fill:#007cbe;"/><g style="clip-path:url(#h);"><polygon points="744.49 215.88 744.49 197.45 553.27 197.45 575.03 175.69 766.25 175.69 766.25 194.12 744.49 215.88 744.49 215.88" style="fill:none; stroke:#fff; stroke-width:3.17px;"/></g><polyline points="744.49 197.45 744.49 215.88 553.27 215.88 553.27 197.45 744.49 197.45" style="fill:#007cbe;"/><g style="clip-path:url(#i);"><polygon points="744.49 197.45 744.49 215.88 553.27 215.88 553.27 197.45 744.49 197.45 744.49 197.45" style="fill:none; stroke:#fff; stroke-width:3.17px;"/></g><line x1="744.49" y1="197.45" x2="766.25" y2="175.69" style="fill:#007cbe;"/><line x1="744.49" y1="197.45" x2="766.25" y2="175.69" style="fill:none; stroke:#fff; stroke-width:3.17px;"/></g><line y1="96.73" x2="147.5" y2="96.73" style="fill:none; stroke:#231815; stroke-miterlimit:10; stroke-width:2px;"/><line x1="490" y1="101.48" x2="591.94" y2="101.48" style="fill:none; stroke:#231815; stroke-miterlimit:10; stroke-width:2px;"/></g></svg>