<?xml version="1.0" encoding="UTF-8"?><svg id="b" xmlns="http://www.w3.org/2000/svg" width="1526" height="311" xmlns:xlink="http://www.w3.org/1999/xlink" viewBox="0 0 1526 311"><defs><clipPath id="d"><rect x="359" y="57.68" width="230.04" height="213.52" style="fill:none;"/></clipPath><clipPath id="e"><rect x="359" y="57.68" width="230.04" height="213.52" style="fill:none;"/></clipPath><clipPath id="f"><rect x="359" y="57.68" width="230.04" height="213.52" style="fill:none;"/></clipPath><clipPath id="g"><rect x="359" y="57.68" width="230.04" height="213.52" style="fill:none;"/></clipPath><clipPath id="h"><rect x="359" y="57.68" width="230.04" height="213.52" style="fill:none;"/></clipPath><clipPath id="i"><rect x="865.53" y="57.68" width="230.04" height="213.52" style="fill:none;"/></clipPath><clipPath id="j"><rect x="865.53" y="57.68" width="230.04" height="213.52" style="fill:none;"/></clipPath><clipPath id="k"><rect x="865.53" y="57.68" width="230.04" height="213.52" style="fill:none;"/></clipPath><clipPath id="l"><rect x="865.53" y="57.68" width="230.04" height="213.52" style="fill:none;"/></clipPath><clipPath id="m"><rect x="865.53" y="57.68" width="230.04" height="213.52" style="fill:none;"/></clipPath></defs><g id="c"><g><polyline points="396.02 244.64 396.02 213.54 562.28 213.54 562.28 244.64 396.02 244.64" style="fill:#007cbe;"/><polygon points="396.02 244.64 396.02 213.54 562.28 213.54 562.28 244.64 396.02 244.64 396.02 244.64" style="fill:none; stroke:#fff; stroke-width:3.17px;"/><g style="clip-path:url(#d);"><polyline points="590.41 185.19 590.41 216.6 562.28 244.95 562.28 213.54 395.89 213.54" style="fill:#007cbe;"/><polyline points="590.41 185.19 590.41 216.6 562.28 244.95 562.28 213.54 395.89 213.54" style="fill:none; stroke:#fff; stroke-width:3.17px;"/><line x1="397.21" y1="185.19" x2="590.41" y2="185.19" style="fill:none; stroke:#fff; stroke-width:3.17px;"/><line x1="562.28" y1="213.54" x2="590.41" y2="185.19" style="fill:#007cbe;"/><line x1="562.28" y1="213.54" x2="590.41" y2="185.19" style="fill:none; stroke:#fff; stroke-width:3.17px;"/></g><polyline points="562.06 212.91 562.06 87.62 395.89 87.62 395.89 212.91 562.06 212.91" style="fill:#007cbe;"/><polygon points="562.06 212.91 562.06 87.62 395.89 87.62 395.89 212.91 562.06 212.91 562.06 212.91" style="fill:none; stroke:#fff; stroke-width:3.17px;"/><g style="clip-path:url(#e);"><polyline points="562.06 212.91 590.41 184.55 590.41 59.27 424.24 59.27 395.89 87.62 562.06 87.62 562.06 212.91" style="fill:#007cbe;"/><polygon points="562.06 212.91 590.41 184.55 590.41 59.27 424.24 59.27 395.89 87.62 562.06 87.62 562.06 212.91 562.06 212.91" style="fill:none; stroke:#fff; stroke-width:3.17px;"/></g><polyline points="547.55 198.4 547.55 102.13 410.4 102.13 410.4 198.4 547.55 198.4" style="fill:#007cbe;"/><polygon points="547.55 198.4 547.55 102.13 410.4 102.13 410.4 198.4 547.55 198.4 547.55 198.4" style="fill:none; stroke:#fff; stroke-width:3.17px;"/><g style="clip-path:url(#f);"><line x1="562.06" y1="87.62" x2="590.41" y2="59.27" style="fill:#007cbe;"/><line x1="562.06" y1="87.62" x2="590.41" y2="59.27" style="fill:none; stroke:#fff; stroke-width:3.17px;"/></g><polyline points="554.06 267.37 554.06 248.94 362.83 248.94 384.59 227.18 575.82 227.18 575.82 245.61 554.06 267.37" style="fill:#007cbe;"/><g style="clip-path:url(#g);"><polygon points="554.06 267.37 554.06 248.94 362.83 248.94 384.59 227.18 575.82 227.18 575.82 245.61 554.06 267.37 554.06 267.37" style="fill:none; stroke:#fff; stroke-width:3.17px;"/></g><polyline points="554.06 248.94 554.06 267.37 362.83 267.37 362.83 248.94 554.06 248.94" style="fill:#007cbe;"/><g style="clip-path:url(#h);"><polygon points="554.06 248.94 554.06 267.37 362.83 267.37 362.83 248.94 554.06 248.94 554.06 248.94" style="fill:none; stroke:#fff; stroke-width:3.17px;"/></g><line x1="554.06" y1="248.94" x2="575.82" y2="227.18" style="fill:#007cbe;"/><line x1="554.06" y1="248.94" x2="575.82" y2="227.18" style="fill:none; stroke:#fff; stroke-width:3.17px;"/></g><g><polyline points="902.55 244.64 902.55 213.54 1068.81 213.54 1068.81 244.64 902.55 244.64" style="fill:#007cbe;"/><polygon points="902.55 244.64 902.55 213.54 1068.81 213.54 1068.81 244.64 902.55 244.64 902.55 244.64" style="fill:none; stroke:#fff; stroke-width:3.17px;"/><g style="clip-path:url(#i);"><polyline points="1096.95 185.19 1096.95 216.6 1068.81 244.95 1068.81 213.54 902.42 213.54" style="fill:#007cbe;"/><polyline points="1096.95 185.19 1096.95 216.6 1068.81 244.95 1068.81 213.54 902.42 213.54" style="fill:none; stroke:#fff; stroke-width:3.17px;"/><line x1="903.74" y1="185.19" x2="1096.95" y2="185.19" style="fill:none; stroke:#fff; stroke-width:3.17px;"/><line x1="1068.81" y1="213.54" x2="1096.95" y2="185.19" style="fill:#007cbe;"/><line x1="1068.81" y1="213.54" x2="1096.95" y2="185.19" style="fill:none; stroke:#fff; stroke-width:3.17px;"/></g><polyline points="1068.59 212.91 1068.59 87.62 902.42 87.62 902.42 212.91 1068.59 212.91" style="fill:#007cbe;"/><polygon points="1068.59 212.91 1068.59 87.62 902.42 87.62 902.42 212.91 1068.59 212.91 1068.59 212.91" style="fill:none; stroke:#fff; stroke-width:3.17px;"/><g style="clip-path:url(#j);"><polyline points="1068.59 212.91 1096.95 184.55 1096.95 59.27 930.77 59.27 902.42 87.62 1068.59 87.62 1068.59 212.91" style="fill:#007cbe;"/><polygon points="1068.59 212.91 1096.95 184.55 1096.95 59.27 930.77 59.27 902.42 87.62 1068.59 87.62 1068.59 212.91 1068.59 212.91" style="fill:none; stroke:#fff; stroke-width:3.17px;"/></g><polyline points="1054.08 198.4 1054.08 102.13 916.93 102.13 916.93 198.4 1054.08 198.4" style="fill:#007cbe;"/><polygon points="1054.08 198.4 1054.08 102.13 916.93 102.13 916.93 198.4 1054.08 198.4 1054.08 198.4" style="fill:none; stroke:#fff; stroke-width:3.17px;"/><g style="clip-path:url(#k);"><line x1="1068.59" y1="87.62" x2="1096.95" y2="59.27" style="fill:#007cbe;"/><line x1="1068.59" y1="87.62" x2="1096.95" y2="59.27" style="fill:none; stroke:#fff; stroke-width:3.17px;"/></g><polyline points="1060.59 267.37 1060.59 248.94 869.36 248.94 891.12 227.18 1082.35 227.18 1082.35 245.61 1060.59 267.37" style="fill:#007cbe;"/><g style="clip-path:url(#l);"><polygon points="1060.59 267.37 1060.59 248.94 869.36 248.94 891.12 227.18 1082.35 227.18 1082.35 245.61 1060.59 267.37 1060.59 267.37" style="fill:none; stroke:#fff; stroke-width:3.17px;"/></g><polyline points="1060.59 248.94 1060.59 267.37 869.36 267.37 869.36 248.94 1060.59 248.94" style="fill:#007cbe;"/><g style="clip-path:url(#m);"><polygon points="1060.59 248.94 1060.59 267.37 869.36 267.37 869.36 248.94 1060.59 248.94 1060.59 248.94" style="fill:none; stroke:#fff; stroke-width:3.17px;"/></g><line x1="1060.59" y1="248.94" x2="1082.35" y2="227.18" style="fill:#007cbe;"/><line x1="1060.59" y1="248.94" x2="1082.35" y2="227.18" style="fill:none; stroke:#fff; stroke-width:3.17px;"/></g><text transform="translate(646.88 53.84)" style="font-family:KozGoPr6N-Regular-90ms-RKSJ-H, &apos;Kozuka Gothic Pr6N&apos;; font-size:32px;"><tspan x="0" y="0" style="letter-spacing:-.08em;">ス</tspan><tspan x="29.44" y="0" style="letter-spacing:-.1em;">タ</tspan><tspan x="58.24" y="0" style="letter-spacing:-.14em;">ン</tspan><tspan x="85.76" y="0" style="letter-spacing:-.06em;">ドア</tspan><tspan x="145.92" y="0" style="letter-spacing:-.07em;">ロ</tspan><tspan x="175.68" y="0" style="letter-spacing:-.02em;">ン</tspan></text><text transform="translate(617.98 164.44)" style="font-family:KozGoPr6N-Regular-90ms-RKSJ-H, &apos;Kozuka Gothic Pr6N&apos;; font-size:32px;"><tspan x="0" y="0">互い</tspan><tspan x="64" y="0" style="letter-spacing:-.01em;">に</tspan><tspan x="95.68" y="0">通</tspan><tspan x="127.68" y="0" style="letter-spacing:-.1em;">信</tspan><tspan x="156.48" y="0" style="letter-spacing:-.05em;">し</tspan><tspan x="186.88" y="0">ない</tspan></text><rect x="3" y="3" width="1520" height="305" style="fill:none; stroke:#8cbfe8; stroke-miterlimit:10; stroke-width:6px;"/></g></svg>