<?xml version="1.0" encoding="UTF-8"?><svg id="a" xmlns="http://www.w3.org/2000/svg" width="1025" height="769" viewBox="0 0 1025 769"><defs><style>.b{fill:#e1ffc9;}.b,.c,.d,.e,.f,.g,.h,.i,.j{stroke:#000;stroke-miterlimit:10;}.b,.c,.d,.e,.i{stroke-width:.5px;}.c{fill:#fff1bf;}.k{isolation:isolate;}.d{fill:#8cc0e8;}.e{fill:#d4eeff;}.f{stroke-dasharray:0 0 8.12 8.12;}.f,.g,.h,.j{fill:none;}.f,.h,.j{stroke-width:2px;}.g{stroke-width:3px;}.i{fill:#ffb48a;}.j{stroke-dasharray:0 0 6.86 6.86;}</style></defs><g><rect class="e" x="10.28" y="147.11" width="282.43" height="73.64"/><path class="e" d="M292.43,147.36v73.13H10.57v-73.13H292.43m.57-.51H10v74.15H293v-74.15h0Z"/></g><g class="k"><path d="M65.69,172.97c-.11,.14-.28,.22-.53,.22-.08,0-.17,0-.28-.03-2.16,2.19-5.26,4.73-7.98,6.69,.22,.08,.56,.25,.67,.31-.06,.17-.31,.34-.62,.37v15.04h-2.04v-14.39c-2.97,2.1-6.83,4.37-10.67,6.24-.28-.45-.78-1.15-1.18-1.54,7.64-3.53,16.02-9.52,20.52-14.48l2.1,1.57Z"/><path d="M69.38,181.9h23.38v1.99h-22.32c-.17,.28-.53,.48-.9,.53l-.17-2.52Z"/><path d="M120.82,179.58h-5.85v1.93c0,5.35-1.65,10.78-8.96,14.08-.36-.45-.95-1.01-1.46-1.4,7.11-3.08,8.43-8.06,8.43-12.66v-1.96h-9.04v6.97h-1.99v-6.97h-5.49v-1.9h5.49v-6.08l2.69,.17c-.03,.28-.28,.53-.7,.59v5.32h9.04v-6.44l2.69,.17c-.03,.25-.25,.48-.7,.53v5.74h5.85v1.9Z"/><path d="M144.76,177.73c-.08,.14-.25,.22-.5,.25-1.79,2.24-4.2,4.65-6.78,6.64l.45,.11c-.06,.14-.25,.37-.62,.39v10.67h-1.99v-9.72c-2.86,1.96-6.55,3.95-10,5.32-.14-.2-1.06-1.34-1.29-1.57,6.78-2.52,13.22-6.69,17.05-11.17h-14.17v-1.82h16.04l.31-.2,1.48,1.09Zm-4.62-2.18c-2.44-1.29-6.24-2.55-9.21-3.39l.92-1.62c3,.73,6.78,2.07,9.32,3.3l-1.04,1.71Zm.2,8.99c2.8,1.46,6.16,3.56,8.18,5.15l-1.43,1.51c-1.88-1.57-5.35-3.84-8.04-5.26l1.29-1.4Z"/><path d="M154.2,178.68c.84,1.71,1.76,4.39,2.1,6.02l-1.57,.42c-.34-1.62-1.21-4.17-2.04-5.96l1.51-.47Zm16.72,.2c-.06,.25-.34,.31-.59,.28-2.18,8.18-6.3,13.19-13.08,15.93-.22-.34-.73-.98-1.09-1.29,6.69-2.63,10.53-7.22,12.57-15.57l2.18,.64Zm-9.91-1.54c.59,1.88,1.12,4.56,1.32,6.36l-1.65,.31c-.17-1.79-.7-4.37-1.32-6.3l1.65-.36Z"/><path d="M191.33,186.07c-2.86-1.54-6.78-3.36-9.83-4.56v14h-2.1v-24.33l2.83,.17c-.03,.31-.25,.5-.73,.59v8.18l.42-.59c3.28,1.2,7.62,3.13,10.53,4.68l-1.12,1.88Z"/><path d="M196.37,185.01c2.13-2.24,6.24-6.86,7.84-8.57,.92-.92,1.65-1.37,2.49-1.37,.95,0,1.6,.5,2.69,1.48,3.3,3,8.85,9.13,13.21,14.62l-1.68,1.54c-4.14-5.46-9.74-11.87-12.54-14.45-.67-.67-1.06-1.09-1.6-1.09-.36,0-.84,.42-1.46,1.01-1.32,1.43-5.1,5.82-6.97,7.84,.03,.05,.03,.14,.03,.2,0,.22-.11,.45-.28,.59l-1.74-1.79Z"/><path d="M227.56,178.68c.84,1.71,1.76,4.39,2.1,6.02l-1.57,.42c-.34-1.62-1.2-4.17-2.04-5.96l1.51-.47Zm16.72,.2c-.06,.25-.34,.31-.59,.28-2.18,8.18-6.3,13.19-13.08,15.93-.22-.34-.73-.98-1.09-1.29,6.69-2.63,10.53-7.22,12.57-15.57l2.18,.64Zm-9.91-1.54c.59,1.88,1.12,4.56,1.32,6.36l-1.65,.31c-.17-1.79-.7-4.37-1.32-6.3l1.65-.36Z"/><path d="M268.16,176.05c-.03,.17-.17,.22-.34,.31-1.01,3.39-2.35,6.55-4.06,9.24,1.2,.7,2.69,1.57,3.72,2.29l-1.18,1.82c-1.01-.78-2.55-1.71-3.72-2.41-2.58,3.56-5.8,6.41-10.05,8.4-.28-.48-1.01-1.15-1.51-1.48,4.09-1.85,7.28-4.56,9.83-7.92-2.07-1.15-4.23-2.18-6.27-2.94l1.09-1.54c2.04,.76,4.23,1.74,6.36,2.86,1.43-2.19,2.6-4.87,3.36-7.42h-9.24c-1.79,3.02-4,5.77-6.3,7.64-.34-.34-1.12-.95-1.57-1.26,3.64-2.8,6.86-7.7,8.54-12.49l2.6,.76c-.11,.31-.45,.39-.78,.37-.39,1.01-.9,2.1-1.43,3.11h9.07l.25-.08,1.62,.76Zm-2.58-5.57c1.32,1.04,2.88,2.72,3.72,3.92l-1.06,.87c-.78-1.12-2.44-2.94-3.67-3.92l1.01-.87Zm3.58-1.04c1.32,1.04,2.97,2.69,3.81,3.86l-1.09,.84c-.76-1.15-2.49-2.88-3.7-3.84l.98-.87Z"/></g><g><rect class="b" x="575.21" y="147.25" width="206.58" height="73.6"/><path class="b" d="M781.58,147.51v73.1h-206.17v-73.1h206.17m.42-.51h-207v74.11h207v-74.11h0Z"/></g><g class="k"><path d="M632.17,173.68h-6.3v19.35h-2.32v-19.35h-6.27v-1.96h14.9v1.96Z"/><path d="M648.49,192.38c-.98,.48-2.88,.95-5.32,.95-5.49,0-9.91-3.56-9.91-10.78s4.29-11.17,10.53-11.17c2.55,0,4.03,.53,4.7,.87l-.62,1.96c-.98-.48-2.35-.87-4.03-.87-4.84,0-8.15,3.25-8.15,9.13s3.02,8.9,8.01,8.9c1.62,0,3.22-.36,4.28-.87l.5,1.88Z"/><path d="M651.88,171.97c1.23-.22,2.86-.42,4.84-.42,6.89,0,7.45,4.42,7.45,6.1,0,5.01-4,6.8-7.78,6.8-.81,0-1.54-.03-2.18-.2v8.76h-2.32v-21.06Zm2.32,10.36c.59,.17,1.34,.22,2.24,.22,3.36,0,5.4-1.68,5.4-4.73s-2.18-4.4-5.1-4.4c-1.18,0-2.04,.11-2.55,.22v8.68Z"/><path d="M666.36,184.01c2.13-2.24,6.24-6.86,7.84-8.57,.92-.92,1.65-1.37,2.49-1.37,.95,0,1.6,.5,2.69,1.48,3.3,3,8.85,9.13,13.22,14.62l-1.68,1.54c-4.14-5.46-9.74-11.87-12.54-14.45-.67-.67-1.06-1.09-1.6-1.09-.36,0-.84,.42-1.46,1.01-1.32,1.43-5.1,5.82-6.97,7.84,.03,.06,.03,.14,.03,.2,0,.22-.11,.45-.28,.59l-1.74-1.79Z"/><path d="M697.55,177.68c.84,1.71,1.76,4.4,2.1,6.02l-1.57,.42c-.34-1.62-1.21-4.17-2.04-5.96l1.51-.48Zm16.72,.2c-.06,.25-.34,.31-.59,.28-2.18,8.18-6.3,13.19-13.08,15.93-.22-.34-.73-.98-1.09-1.29,6.69-2.63,10.53-7.22,12.57-15.57l2.18,.64Zm-9.91-1.54c.59,1.88,1.12,4.56,1.32,6.36l-1.65,.31c-.17-1.79-.7-4.37-1.32-6.3l1.65-.36Z"/><path d="M738.15,175.05c-.03,.17-.17,.22-.34,.31-1.01,3.39-2.35,6.55-4.06,9.24,1.2,.7,2.69,1.57,3.72,2.3l-1.18,1.82c-1.01-.78-2.55-1.71-3.72-2.41-2.58,3.56-5.8,6.41-10.05,8.4-.28-.48-1.01-1.15-1.51-1.48,4.09-1.85,7.28-4.56,9.83-7.92-2.07-1.15-4.23-2.18-6.27-2.94l1.09-1.54c2.04,.76,4.23,1.74,6.36,2.86,1.43-2.18,2.6-4.87,3.36-7.42h-9.24c-1.79,3.02-4,5.77-6.3,7.64-.34-.34-1.12-.95-1.57-1.26,3.64-2.8,6.86-7.7,8.54-12.49l2.6,.76c-.11,.31-.45,.39-.78,.36-.39,1.01-.9,2.1-1.43,3.11h9.07l.25-.08,1.62,.76Zm-2.58-5.57c1.32,1.04,2.88,2.72,3.72,3.92l-1.06,.87c-.79-1.12-2.44-2.94-3.67-3.92l1.01-.87Zm3.58-1.04c1.32,1.04,2.97,2.69,3.81,3.86l-1.09,.84c-.76-1.15-2.49-2.88-3.7-3.84l.98-.87Z"/></g><g><rect class="i" x="293.28" y="147.25" width="281.43" height="73.6"/><path class="i" d="M574.43,147.51v73.1H293.57v-73.1h280.87m.57-.51H293v74.11h282v-74.11h0Z"/></g><g class="k"><path d="M378.83,171.83h2.32v21.34h-2.32v-21.34Z"/><path d="M385.94,172.11c1.23-.22,2.86-.42,4.84-.42,6.89,0,7.45,4.42,7.45,6.1,0,5.01-4,6.8-7.78,6.8-.81,0-1.54-.03-2.18-.2v8.76h-2.32v-21.06Zm2.32,10.36c.59,.17,1.34,.22,2.24,.22,3.36,0,5.4-1.68,5.4-4.73s-2.18-4.4-5.1-4.4c-1.18,0-2.04,.11-2.55,.22v8.68Z"/><path d="M400.42,184.15c2.13-2.24,6.24-6.86,7.84-8.57,.92-.92,1.65-1.37,2.49-1.37,.95,0,1.6,.5,2.69,1.48,3.3,3,8.85,9.13,13.22,14.62l-1.68,1.54c-4.14-5.46-9.74-11.87-12.54-14.45-.67-.67-1.06-1.09-1.6-1.09-.37,0-.84,.42-1.46,1.01-1.32,1.43-5.1,5.82-6.97,7.84,.03,.06,.03,.14,.03,.2,0,.22-.11,.45-.28,.59l-1.74-1.79Z"/><path d="M431.61,177.82c.84,1.71,1.76,4.4,2.1,6.02l-1.57,.42c-.34-1.62-1.2-4.17-2.04-5.96l1.51-.48Zm16.72,.2c-.06,.25-.34,.31-.59,.28-2.18,8.18-6.3,13.19-13.08,15.93-.22-.34-.73-.98-1.09-1.29,6.69-2.63,10.53-7.22,12.57-15.57l2.18,.64Zm-9.91-1.54c.59,1.88,1.12,4.56,1.32,6.36l-1.65,.31c-.17-1.79-.7-4.37-1.32-6.3l1.65-.36Z"/><path d="M472.21,175.19c-.03,.17-.17,.22-.34,.31-1.01,3.39-2.35,6.55-4.06,9.24,1.2,.7,2.69,1.57,3.72,2.3l-1.18,1.82c-1.01-.78-2.55-1.71-3.72-2.41-2.58,3.56-5.8,6.41-10.05,8.4-.28-.48-1.01-1.15-1.51-1.48,4.09-1.85,7.28-4.56,9.83-7.92-2.07-1.15-4.23-2.18-6.27-2.94l1.09-1.54c2.04,.76,4.23,1.74,6.36,2.86,1.43-2.18,2.6-4.87,3.36-7.42h-9.24c-1.79,3.02-4,5.77-6.3,7.64-.34-.34-1.12-.95-1.57-1.26,3.64-2.8,6.86-7.7,8.54-12.49l2.6,.76c-.11,.31-.45,.39-.79,.36-.39,1.01-.9,2.1-1.43,3.11h9.07l.25-.08,1.62,.76Zm-2.58-5.57c1.32,1.04,2.88,2.72,3.72,3.92l-1.06,.87c-.78-1.12-2.44-2.94-3.67-3.92l1.01-.87Zm3.58-1.04c1.32,1.04,2.97,2.69,3.81,3.86l-1.09,.84c-.76-1.15-2.49-2.88-3.7-3.84l.98-.87Z"/></g><g><rect class="c" x="782.13" y="147.25" width="130.33" height="73.49"/><path class="c" d="M912.33,147.51v72.99h-130.06v-72.99h130.06m.26-.51h-130.59v74h130.59v-74h0Z"/></g><g class="k"><path d="M831.68,181.84h-9.24l.47,.14c-.03,.17-.25,.31-.56,.34-.73,5.07-3.03,10.11-8.65,12.94-.31-.36-1.04-1.01-1.51-1.37,5.52-2.74,7.45-7,8.09-12.04h-10.7v-1.88h22.09v1.88Zm-4.12-7.64h-15.54v-1.88h15.54v1.88Zm.36-4.12c1.15,1.2,2.44,3.11,3.08,4.42l-1.12,.76c-.59-1.29-1.93-3.28-3.05-4.42l1.09-.76Zm3.3-.95c1.15,1.2,2.49,3.11,3.16,4.4l-1.15,.7c-.59-1.23-1.99-3.22-3.08-4.37l1.06-.73Z"/><path d="M836.39,181.56h23.38v1.99h-22.32c-.17,.28-.53,.48-.9,.53l-.17-2.52Z"/><path d="M883.82,175.57c-.03,.14-.17,.25-.34,.31-1.04,3.47-2.44,6.66-4.12,9.27,1.2,.7,2.58,1.57,3.61,2.32l-1.18,1.85c-1.01-.78-2.44-1.71-3.61-2.44-2.58,3.58-5.88,6.47-10.11,8.51-.31-.48-1.04-1.15-1.54-1.46,4.09-1.9,7.36-4.73,9.91-8.06-2.07-1.15-4.12-2.13-6.19-2.91l1.06-1.57c2.04,.73,4.14,1.68,6.3,2.83,1.46-2.3,2.6-4.73,3.39-7.42h-9.49c-1.71,2.86-4,5.68-6.47,7.7-.36-.34-1.12-.95-1.6-1.26,3.67-2.8,7.14-7.84,8.82-12.63l2.66,.62c-.11,.31-.39,.39-.76,.36-.39,.92-1.04,2.3-1.57,3.33h9.3l.39-.11,1.51,.76Z"/></g><g class="k"><path d="M308.66,68.99h-12.06v-22.86h11.55v2.1h-9.06v7.74h8.52v2.07h-8.52v8.85h9.57v2.1Z"/><path d="M312.92,49.67l2.46-.84v3.81h4.23v1.95h-4.23v9.45c0,2.07,.63,3.21,2.22,3.21,.75,0,1.26-.09,1.68-.24l.15,1.92c-.54,.24-1.38,.39-2.43,.39-3.96,0-4.08-3.6-4.08-5.34v-9.39h-2.52v-1.95h2.52v-2.97Z"/><path d="M335.96,68.99h-2.49v-9.66c0-2.67-.96-4.98-3.78-4.98-1.92,0-4.32,1.59-4.32,4.59v10.05h-2.49v-24h2.49v10.17h.06c1.08-1.8,3.06-2.91,5.07-2.91s5.46,1.23,5.46,6.78v9.96Z"/><path d="M352.37,68.3c-.93,.45-2.64,1.02-5.13,1.02-4.77,0-7.62-3.36-7.62-8.25,0-5.13,2.88-8.82,7.29-8.82,5.04,0,6.33,4.62,6.33,7.47,0,.57-.03,.99-.06,1.38h-11.13c.03,4.53,2.61,6.24,5.55,6.24,2.04,0,3.27-.42,4.29-.84l.48,1.8Zm-1.59-9.06c.03-2.22-.9-5.1-4.11-5.1-3,0-4.32,2.85-4.56,5.1h8.67Z"/><path d="M364.43,54.75c-.27-.03-.54-.06-.9-.06-2.7,0-4.08,2.67-4.08,5.43v8.88h-2.49v-11.46c0-1.74-.03-3.33-.12-4.89h2.19l.12,3.15h.09c.72-2.04,2.43-3.51,4.44-3.51,.27,0,.48,.06,.75,.09v2.37Z"/><path d="M380.42,68.99h-2.49v-9.66c0-2.67-.96-5.01-3.81-5.01-2.13,0-4.29,1.8-4.29,4.65v10.02h-2.49v-12.15c0-1.68-.06-2.91-.12-4.23h2.22l.15,2.67h.06c.81-1.59,2.7-3.03,5.25-3.03,2.04,0,5.52,1.23,5.52,6.78v9.96Z"/><path d="M396.83,68.3c-.93,.45-2.64,1.02-5.13,1.02-4.77,0-7.62-3.36-7.62-8.25,0-5.13,2.88-8.82,7.29-8.82,5.04,0,6.33,4.62,6.33,7.47,0,.57-.03,.99-.06,1.38h-11.13c.03,4.53,2.61,6.24,5.55,6.24,2.04,0,3.27-.42,4.29-.84l.48,1.8Zm-1.59-9.06c.03-2.22-.9-5.1-4.11-5.1-3,0-4.32,2.85-4.56,5.1h8.67Z"/><path d="M402.08,49.67l2.46-.84v3.81h4.23v1.95h-4.23v9.45c0,2.07,.63,3.21,2.22,3.21,.75,0,1.26-.09,1.68-.24l.15,1.92c-.54,.24-1.38,.39-2.43,.39-3.96,0-4.08-3.6-4.08-5.34v-9.39h-2.52v-1.95h2.52v-2.97Z"/><path d="M434.5,48.36c-.09,.15-.21,.27-.39,.33-2.37,11.37-8.25,18.12-18.06,21.57-.33-.51-.99-1.32-1.38-1.74,9.3-3.03,15-9.72,16.8-18.81h-19.62v-2.01h20.4l.42-.27,1.83,.93Z"/><path d="M443.87,67.22c7.62-2.13,13.68-5.79,17.37-12.33,.39,.51,1.14,1.14,1.59,1.5-4.05,6.9-10.74,10.92-19.77,13.29-.06,.24-.24,.51-.48,.6l-1.26-2.1,.36-.57v-22.11l3.09,.15c-.03,.33-.3,.6-.9,.66v20.91Z"/><path d="M467.09,56h25.05v2.13h-23.91c-.18,.3-.57,.51-.96,.57l-.18-2.7Z"/><path d="M519.98,69.86c-.45-1.02-.99-2.1-1.59-3.18-6.24,.66-16.5,1.29-21.09,1.53-.09,.3-.3,.54-.57,.6l-.81-2.7c.9-.03,1.98-.06,3.15-.12,1.98-5.76,4.83-14.73,6.48-20.73l2.91,.78c-.12,.27-.42,.42-.87,.42-1.65,5.52-4.23,13.56-6.3,19.44,4.98-.21,12.09-.72,16.05-1.08-1.56-2.58-3.54-5.31-5.34-7.32l1.8-1.02c3.15,3.45,6.75,9.15,8.28,12.42l-2.1,.96Z"/><path d="M548.21,48.36c-.09,.15-.21,.27-.39,.33-2.37,11.37-8.25,18.12-18.06,21.57-.33-.51-.99-1.32-1.38-1.74,9.3-3.03,15-9.72,16.8-18.81h-19.62v-2.01h20.4l.42-.27,1.83,.93Z"/><path d="M572.03,56.84h-7.14l.12,11.13c0,2.61-2.22,2.67-5.61,2.61-.06-.42-.21-1.11-.42-1.62,1.53,.03,2.85,0,3.3-.06,.57-.06,.9-.48,.93-.96l-.09-9.54c-2.34,3.42-6.33,6.75-10.08,8.85-.3-.45-.78-1.02-1.2-1.35,3.84-1.95,7.98-5.55,10.29-9.06h-9.3v-1.74h10.26l-.06-5.34,2.4,.12c-.03,.24-.27,.42-.6,.45l.03,4.77h7.17v1.74Z"/><path d="M576.59,56h25.05v2.13h-23.91c-.18,.3-.57,.51-.96,.57l-.18-2.7Z"/><path d="M631.52,49.43c-.09,.15-.24,.24-.45,.3-2.79,4.26-7.5,8.73-12.12,12.06,2.31,1.86,4.62,4.17,6.15,5.85l-1.83,1.59c-3.15-3.69-9.06-8.64-14.13-11.61l1.44-1.53c2.13,1.2,4.53,2.79,6.69,4.44,4.05-2.88,8.16-6.75,10.53-10.23h-22.02v-2.04h23.61l.36-.18,1.77,1.35Z"/><path d="M638.06,52.55c.9,1.83,1.89,4.71,2.25,6.45l-1.68,.45c-.36-1.74-1.29-4.47-2.19-6.39l1.62-.51Zm17.91,.21c-.06,.27-.36,.33-.63,.3-2.34,8.76-6.75,14.13-14.01,17.07-.24-.36-.78-1.05-1.17-1.38,7.17-2.82,11.28-7.74,13.47-16.68l2.34,.69Zm-10.62-1.65c.63,2.01,1.2,4.89,1.41,6.81l-1.77,.33c-.18-1.92-.75-4.68-1.41-6.75l1.77-.39Z"/><path d="M677.84,60.47c-3.06-1.65-7.26-3.6-10.53-4.89v15h-2.25v-26.07l3.03,.18c-.03,.33-.27,.54-.78,.63v8.76l.45-.63c3.51,1.29,8.16,3.36,11.28,5.01l-1.2,2.01Z"/></g><g><rect class="e" x="913.07" y="147.51" width="69.86" height="73.6"/><path class="e" d="M982.86,147.77v73.1h-69.72v-73.1h69.72m.14-.51h-70v74.11h70v-74.11h0Z"/></g><g class="k"><path d="M925.56,193.94v-21.34h10.75v1.96h-8.43v7.59h7.76v1.93h-7.76v9.86h-2.32Z"/><path d="M954.09,193.3c-.98,.48-2.88,.95-5.32,.95-5.49,0-9.91-3.56-9.91-10.78s4.28-11.17,10.53-11.17c2.55,0,4.03,.53,4.7,.87l-.62,1.96c-.98-.48-2.35-.87-4.03-.87-4.84,0-8.15,3.25-8.15,9.13s3.02,8.9,8.01,8.9c1.62,0,3.22-.36,4.28-.87l.5,1.88Z"/><path d="M967,175.24c-.62-.39-1.96-.98-3.75-.98-2.97,0-4.09,1.82-4.09,3.36,0,2.1,1.29,3.16,4.14,4.37,3.44,1.46,5.21,3.22,5.21,6.27,0,3.39-2.46,5.99-7.06,5.99-1.93,0-4.03-.59-5.1-1.34l.64-1.93c1.15,.76,2.86,1.32,4.59,1.32,2.86,0,4.54-1.54,4.54-3.84,0-2.1-1.15-3.39-3.92-4.51-3.22-1.2-5.4-3.08-5.4-6.02,0-3.25,2.63-5.63,6.52-5.63,2.02,0,3.56,.5,4.37,1.01l-.7,1.93Z"/></g><g><rect class="e" x="6.1" y="298.6" width="95.81" height="101.05"/><path class="e" d="M101.81,298.95v100.35H6.19v-100.35H101.81m.19-.7H6v101.75H102v-101.75h0Z"/></g><g class="k"><path d="M40.4,315.94l.3-.05,1.03,.4c0,.12-.1,.2-.18,.28-1.35,7.1-5.12,11.4-9.9,13.47-.2-.4-.65-1.02-1-1.38,2.35-.9,4.47-2.5,6.15-4.77-.8-.92-2.15-2.1-3.35-2.92l1.12-.97c1.1,.7,2.3,1.67,3.15,2.52,.85-1.45,1.53-3.15,1.97-5.05h-4.4c-1.1,2.05-2.47,3.87-4.02,5.12-.27-.28-.85-.8-1.2-1.05,2.38-1.85,4.35-5.15,5.4-8.72l1.97,.57c-.05,.18-.23,.25-.52,.25-.25,.78-.55,1.55-.88,2.3h4.35Zm-7.5-4.47v3.32h-1.62v-4.87h9.52v-3.1l2.22,.15c-.03,.17-.17,.3-.5,.33v2.62h9.67v4.87h-1.7v-3.32h-17.6Zm11.6,15.47c0,.92,.22,1.1,1.47,1.1h4.4c1.08,0,1.27-.52,1.37-3.35,.4,.3,1.08,.57,1.55,.7-.23,3.3-.75,4.25-2.83,4.25h-4.65c-2.3,0-2.97-.52-2.97-2.7v-11.52h7.45l.85,.02c0,7.37-.35,7.82-.57,8.15-.47,.57-.93,.65-2.32,.65-.43,0-.9,0-1.38-.02-.03-.48-.2-1.12-.45-1.53,.95,.1,1.83,.1,2.12,.1,.33,0,.53-.03,.68-.25,.22-.33,.3-1.7,.32-5.6h-5.05v10Z"/><path d="M64.6,320.01c-.03,.17-.2,.3-.53,.33-.65,4.4-1.87,7.87-7.72,9.72-.2-.42-.65-1.07-1.03-1.42,5.45-1.55,6.65-4.65,7.07-8.87l2.2,.25Zm6.25,7.15c0,.75,.18,.87,1.18,.87h3.4c.97,0,1.15-.52,1.25-3.87,.35,.3,1.07,.58,1.55,.7-.2,3.82-.67,4.77-2.65,4.77h-3.72c-2.15,0-2.7-.52-2.7-2.5v-7.67h-13.52v-1.65h10.25v-5.3h-5.42c-.65,1.45-1.4,2.85-2.28,3.95-.38-.25-1.02-.62-1.45-.8,1.75-2.15,3.05-5.55,3.67-8.2l2.12,.5c-.08,.17-.22,.25-.55,.25-.22,.8-.5,1.72-.87,2.67h4.77v-4.05l2.2,.12c-.03,.2-.18,.33-.5,.35v3.57h8.47v1.62h-8.47v5.3h10.27v1.65h-7v7.7Z"/><path d="M47.51,357.94h-2.05l-.47-8.57c-.15-2.72-.35-6.25-.33-8.2h-.07c-.62,2.15-1.4,4.5-2.32,7.15l-3.4,9.55h-1.52l-3.17-9.35c-.93-2.75-1.65-5.15-2.18-7.35h-.07c-.05,2.32-.2,5.47-.38,8.4l-.53,8.37h-1.97l1.33-19.04h2.55l3.35,9.67c.8,2.38,1.42,4.4,1.92,6.37h.07c.48-1.92,1.12-3.92,1.97-6.37l3.47-9.67h2.6l1.2,19.04Z"/><path d="M64.87,357.94h-2.2l-2.05-6.17h-6.62l-2,6.17h-2.12l6.3-19.04h2.4l6.3,19.04Zm-4.67-7.82l-1.88-5.65c-.4-1.3-.72-2.5-.97-3.62h-.08c-.25,1.15-.6,2.35-.95,3.55l-1.9,5.72h5.77Z"/><path d="M80.14,357.36c-.88,.42-2.58,.85-4.75,.85-4.9,0-8.85-3.17-8.85-9.62s3.82-9.97,9.4-9.97c2.27,0,3.6,.47,4.2,.77l-.55,1.75c-.88-.42-2.1-.77-3.6-.77-4.32,0-7.27,2.9-7.27,8.15s2.7,7.95,7.15,7.95c1.45,0,2.87-.33,3.82-.77l.45,1.67Z"/><path d="M30.65,369.82c-.05,.1-.2,.17-.33,.22-1.35,3.2-3.5,5.97-5.92,8-.38-.33-1.08-.78-1.52-1.02,2.3-1.67,4.15-4.1,4.97-6.2H9.96v-1.7H28.8l.27-.12,1.58,.83Zm-9.75,4.55c-.03,.2-.25,.37-.58,.42-.72,5.9-2.75,11.52-7.9,14.5-.35-.3-1-.88-1.47-1.15,5.1-2.8,6.92-8.02,7.52-14.05l2.42,.28Z"/><path d="M48.15,380.86c-2.55-1.38-6.05-3-8.77-4.07v12.47h-1.88v-21.72l2.52,.15c-.02,.28-.23,.45-.65,.53v7.35l.38-.55c2.92,1.08,6.8,2.8,9.4,4.17l-1,1.67Zm-2.62-11.77c1.15,.95,2.65,2.52,3.45,3.67l-.95,.77c-.75-1.08-2.27-2.75-3.4-3.65l.9-.8Zm3.35-2.15c1.17,.97,2.67,2.55,3.42,3.65l-.9,.77c-.78-1.07-2.3-2.72-3.42-3.65l.9-.78Z"/><path d="M58.93,386.46c6.35-1.77,11.4-4.82,14.47-10.27,.33,.42,.95,.95,1.32,1.25-3.37,5.75-8.95,9.1-16.47,11.07-.05,.2-.2,.42-.4,.5l-1.05-1.75,.3-.47v-18.42l2.57,.12c-.02,.28-.25,.5-.75,.55v17.42Z"/><path d="M94.6,370.12c-.05,.12-.18,.22-.33,.27-1.35,3.17-2.95,5.92-5,8.6,2.72,2.17,6.82,5.9,9.15,8.47l-1.53,1.32c-2.2-2.55-6.22-6.35-8.77-8.4-2.2,2.67-6,6.32-9.62,8.4-.28-.38-.88-1-1.3-1.35,6.92-3.8,12.4-10.9,14.65-16.32h-12.27v-1.7h13.25l.33-.12,1.45,.83Z"/></g><g><rect class="e" x="102" y="298.78" width="95.81" height="101.05"/><path class="e" d="M197.71,299.13v100.35H102.1v-100.35h95.61m.19-.7H101.91v101.75h96v-101.75h0Z"/></g><g class="k"><path d="M119.01,317.02v8.17c1.95,2.97,5.52,2.97,10.02,2.97,2.7,0,5.87-.08,7.82-.2-.2,.4-.5,1.2-.55,1.7-1.72,.08-4.47,.12-6.95,.12-5.15,0-8.57,0-11.1-3.1-1.22,1.1-2.55,2.22-3.62,3.07,.02,.23-.05,.33-.23,.4l-.97-1.85c1.2-.8,2.67-1.95,3.95-3.05v-6.65h-3.67v-1.6h5.3Zm-3.72-9.37c1.67,1.07,3.62,2.72,4.47,3.95l-1.32,1.12c-.83-1.25-2.72-2.95-4.4-4.07l1.25-1Zm21.2,11.1h-6.65c1.05,3.32,3.22,5.55,6.7,6.57-.38,.32-.85,.95-1.08,1.4-3.4-1.17-5.57-3.45-6.82-6.85-.72,2.35-2.53,4.82-6.75,6.75-.22-.38-.75-.95-1.12-1.25,4.52-1.88,6-4.37,6.47-6.62h-6.7v-1.55h6.87c.02-.3,.02-.6,.02-.88v-2.88h-6.07v-1.55h9.95l-1.28-.58c.85-1.15,1.93-3.02,2.5-4.3l2,.75c-.08,.17-.25,.22-.55,.25-.65,1.15-1.72,2.8-2.6,3.87h4.35v1.55h-6.62v2.88c0,.27,0,.57-.03,.88h7.4v1.55Zm-11.8-6.85c-.33-1.15-1.28-2.92-2.28-4.2l1.43-.6c1.02,1.25,2.02,2.95,2.35,4.1l-1.5,.7Z"/><path d="M141.91,315.85c-.95,1.58-2,2.97-3.05,4.17-.18-.4-.6-1.17-.88-1.58,2.4-2.6,4.8-6.92,6.25-11.25l2,.67c-.1,.17-.28,.25-.58,.22-.65,1.75-1.42,3.5-2.3,5.17l.68,.17c-.05,.15-.18,.28-.5,.3v16.57h-1.62v-14.47Zm3.35-4.1h16.5v1.42h-16.5v-1.42Zm1.85,18.5v-8.02h12.92v7.95h-1.7v-1.17h-9.6v1.25h-1.62Zm12.7-15v1.4h-12.45v-1.4h12.45Zm-12.45,4.9v-1.4h12.42v1.4h-12.42Zm12-11.9v1.4h-11.72v-1.4h11.72Zm-1.02,15.37h-9.6v3.97h9.6v-3.97Z"/><path d="M172.78,318.35c-.02,.17-.2,.33-.52,.38-.55,4.85-1.6,9.27-7.55,11.55-.2-.42-.68-1.02-1.05-1.35,5.5-1.97,6.45-6,6.85-10.77l2.27,.2Zm6.5,9.1c0,.85,.2,1.05,1.22,1.05h3.47c1.08,0,1.25-.7,1.38-4.65,.38,.33,1.07,.62,1.53,.75-.18,4.3-.65,5.45-2.78,5.45h-3.77c-2.15,0-2.75-.55-2.75-2.6v-9.62h-13.6v-1.65h22.32v1.65h-6.9l-.12,.03v9.6Zm4.87-18.62v1.62h-17.95v-1.62h17.95Z"/><path d="M143.42,358.12h-2.05l-.47-8.57c-.15-2.72-.35-6.25-.32-8.2h-.08c-.62,2.15-1.4,4.5-2.33,7.15l-3.4,9.55h-1.53l-3.17-9.35c-.92-2.75-1.65-5.15-2.17-7.35h-.08c-.05,2.32-.2,5.47-.38,8.4l-.52,8.37h-1.97l1.32-19.04h2.55l3.35,9.67c.8,2.38,1.42,4.4,1.92,6.37h.08c.47-1.92,1.12-3.92,1.97-6.37l3.47-9.67h2.6l1.2,19.04Z"/><path d="M160.77,358.12h-2.2l-2.05-6.17h-6.62l-2,6.17h-2.12l6.3-19.04h2.4l6.3,19.04Zm-4.67-7.82l-1.87-5.65c-.4-1.3-.72-2.5-.97-3.62h-.08c-.25,1.15-.6,2.35-.95,3.55l-1.9,5.72h5.77Z"/><path d="M176.04,357.54c-.88,.42-2.57,.85-4.75,.85-4.9,0-8.85-3.17-8.85-9.62s3.82-9.97,9.4-9.97c2.28,0,3.6,.47,4.2,.77l-.55,1.75c-.88-.42-2.1-.77-3.6-.77-4.32,0-7.27,2.9-7.27,8.15s2.7,7.95,7.15,7.95c1.45,0,2.87-.33,3.82-.77l.45,1.67Z"/><path d="M126.55,370c-.05,.1-.2,.17-.32,.22-1.35,3.2-3.5,5.97-5.92,8-.38-.33-1.07-.78-1.52-1.02,2.3-1.67,4.15-4.1,4.97-6.2h-17.9v-1.7h18.84l.28-.12,1.57,.83Zm-9.75,4.55c-.02,.2-.25,.37-.58,.42-.72,5.9-2.75,11.52-7.9,14.5-.35-.3-1-.88-1.47-1.15,5.1-2.8,6.92-8.02,7.52-14.05l2.42,.28Z"/><path d="M144.06,381.05c-2.55-1.38-6.05-3-8.77-4.07v12.47h-1.87v-21.72l2.52,.15c-.03,.28-.22,.45-.65,.53v7.35l.38-.55c2.92,1.08,6.8,2.8,9.4,4.17l-1,1.67Zm-2.62-11.77c1.15,.95,2.65,2.52,3.45,3.67l-.95,.77c-.75-1.08-2.27-2.75-3.4-3.65l.9-.8Zm3.35-2.15c1.17,.97,2.67,2.55,3.42,3.65l-.9,.77c-.77-1.07-2.3-2.72-3.42-3.65l.9-.78Z"/><path d="M154.83,386.64c6.35-1.77,11.4-4.82,14.47-10.27,.33,.42,.95,.95,1.33,1.25-3.38,5.75-8.95,9.1-16.47,11.07-.05,.2-.2,.42-.4,.5l-1.05-1.75,.3-.47v-18.42l2.57,.12c-.03,.28-.25,.5-.75,.55v17.42Z"/><path d="M190.51,370.3c-.05,.12-.17,.22-.32,.27-1.35,3.17-2.95,5.92-5,8.6,2.72,2.17,6.82,5.9,9.15,8.47l-1.52,1.32c-2.2-2.55-6.22-6.35-8.77-8.4-2.2,2.67-6,6.32-9.62,8.4-.27-.38-.88-1-1.3-1.35,6.92-3.8,12.4-10.9,14.65-16.32h-12.27v-1.7h13.25l.32-.12,1.45,.83Z"/></g><g><rect class="e" x="198" y="298.78" width="95.81" height="101.05"/><path class="e" d="M293.71,299.13v100.35h-95.61v-100.35h95.61m.19-.7h-96v101.75h96v-101.75h0Z"/></g><g class="k"><path d="M231.51,310.32c-.1,.12-.25,.2-.47,.2-.08,0-.15,0-.25-.02-1.92,1.95-4.7,4.22-7.12,5.97,.2,.07,.5,.22,.6,.27-.05,.15-.28,.3-.55,.33v13.42h-1.82v-12.85c-2.65,1.88-6.1,3.9-9.52,5.57-.25-.4-.7-1.02-1.05-1.38,6.82-3.15,14.3-8.5,18.32-12.92l1.88,1.4Z"/><path d="M234.81,318.3h20.87v1.77h-19.92c-.15,.25-.48,.42-.8,.47l-.15-2.25Z"/><path d="M280.73,316.22h-5.22v1.72c0,4.77-1.47,9.62-8,12.57-.33-.4-.85-.9-1.3-1.25,6.35-2.75,7.52-7.2,7.52-11.3v-1.75h-8.07v6.22h-1.77v-6.22h-4.9v-1.7h4.9v-5.42l2.4,.15c-.02,.25-.25,.47-.62,.52v4.75h8.07v-5.75l2.4,.15c-.03,.23-.23,.42-.62,.48v5.12h5.22v1.7Z"/><path d="M233.36,344.57c-.07,.12-.22,.2-.45,.23-1.6,2-3.75,4.15-6.05,5.92l.4,.1c-.05,.12-.23,.33-.55,.35v9.52h-1.77v-8.67c-2.55,1.75-5.85,3.52-8.92,4.75-.12-.17-.95-1.2-1.15-1.4,6.05-2.25,11.8-5.97,15.22-9.97h-12.65v-1.62h14.32l.28-.17,1.32,.97Zm-4.12-1.95c-2.17-1.15-5.57-2.27-8.22-3.02l.83-1.45c2.67,.65,6.05,1.85,8.32,2.95l-.92,1.52Zm.17,8.02c2.5,1.3,5.5,3.17,7.3,4.6l-1.28,1.35c-1.67-1.4-4.77-3.42-7.17-4.7l1.15-1.25Z"/><path d="M241.79,345.42c.75,1.52,1.57,3.92,1.87,5.37l-1.4,.38c-.3-1.45-1.07-3.72-1.82-5.32l1.35-.42Zm14.92,.17c-.05,.22-.3,.27-.52,.25-1.95,7.3-5.62,11.77-11.67,14.22-.2-.3-.65-.88-.97-1.15,5.97-2.35,9.4-6.45,11.22-13.9l1.95,.58Zm-8.85-1.38c.52,1.67,1,4.07,1.17,5.67l-1.47,.27c-.15-1.6-.62-3.9-1.17-5.62l1.47-.33Z"/><path d="M274.93,352.02c-2.55-1.37-6.05-3-8.77-4.07v12.5h-1.87v-21.72l2.52,.15c-.03,.28-.22,.45-.65,.53v7.3l.38-.53c2.92,1.08,6.8,2.8,9.4,4.17l-1,1.67Z"/><path d="M231.03,372.95c-.03,.12-.15,.22-.3,.27-.92,3.1-2.17,5.95-3.67,8.27,1.08,.62,2.3,1.4,3.22,2.07l-1.05,1.65c-.9-.7-2.17-1.52-3.22-2.17-2.3,3.2-5.25,5.77-9.02,7.6-.28-.42-.92-1.02-1.38-1.3,3.65-1.7,6.57-4.22,8.85-7.2-1.85-1.02-3.67-1.9-5.52-2.6l.95-1.4c1.83,.65,3.7,1.5,5.62,2.52,1.3-2.05,2.32-4.22,3.02-6.62h-8.47c-1.52,2.55-3.57,5.07-5.77,6.87-.32-.3-1-.85-1.42-1.12,3.27-2.5,6.37-7,7.87-11.27l2.37,.55c-.1,.27-.35,.35-.67,.33-.35,.82-.93,2.05-1.4,2.97h8.3l.35-.1,1.35,.67Z"/><path d="M255.38,370.32c-.1,.12-.25,.2-.47,.2-.08,0-.15,0-.25-.02-1.92,1.95-4.7,4.22-7.12,5.97,.2,.07,.5,.22,.6,.27-.05,.15-.28,.3-.55,.33v13.42h-1.82v-12.85c-2.65,1.88-6.1,3.9-9.52,5.57-.25-.4-.7-1.02-1.05-1.38,6.82-3.15,14.3-8.5,18.32-12.92l1.88,1.4Z"/><path d="M258.94,371.75h15.9l.15-.07,1.7,1.3c-.08,.1-.15,.18-.3,.23-2.02,9.4-6.37,14.3-14.02,17.2-.27-.45-.77-1.1-1.12-1.47,7.27-2.67,11.47-7.32,13.1-15.45h-15.4v-1.72Zm19.05-4.47c1.5,0,2.72,1.22,2.72,2.75s-1.22,2.72-2.72,2.72-2.75-1.22-2.75-2.72c0-1.57,1.27-2.75,2.75-2.75Zm1.9,2.75c0-1.07-.85-1.92-1.9-1.92s-1.92,.85-1.92,1.92,.88,1.92,1.92,1.92,1.9-.92,1.9-1.92Z"/></g><g><rect class="i" x="293.96" y="298.6" width="92.02" height="101.05"/><path class="i" d="M385.89,298.95v100.35h-91.84v-100.35h91.84m.19-.7h-92.21v101.75h92.21v-101.75h0Z"/></g><g class="k"><path d="M309.08,317.97v8.17c1.95,2.97,5.52,2.97,10.02,2.97,2.7,0,5.87-.08,7.82-.2-.2,.4-.5,1.2-.55,1.7-1.72,.08-4.47,.12-6.95,.12-5.15,0-8.57,0-11.1-3.1-1.22,1.1-2.55,2.22-3.62,3.07,.02,.23-.05,.33-.23,.4l-.97-1.85c1.2-.8,2.67-1.95,3.95-3.05v-6.65h-3.67v-1.6h5.3Zm-3.72-9.37c1.67,1.07,3.62,2.72,4.47,3.95l-1.32,1.12c-.83-1.25-2.72-2.95-4.4-4.07l1.25-1Zm21.2,11.1h-6.65c1.05,3.32,3.22,5.55,6.7,6.57-.38,.32-.85,.95-1.08,1.4-3.4-1.17-5.57-3.45-6.82-6.85-.72,2.35-2.53,4.82-6.75,6.75-.22-.38-.75-.95-1.12-1.25,4.52-1.88,6-4.37,6.47-6.62h-6.7v-1.55h6.87c.02-.3,.02-.6,.02-.88v-2.88h-6.07v-1.55h9.95l-1.28-.58c.85-1.15,1.93-3.02,2.5-4.3l2,.75c-.08,.17-.25,.22-.55,.25-.65,1.15-1.72,2.8-2.6,3.87h4.35v1.55h-6.62v2.88c0,.27,0,.57-.03,.88h7.4v1.55Zm-11.8-6.85c-.33-1.15-1.28-2.92-2.28-4.2l1.43-.6c1.02,1.25,2.02,2.95,2.35,4.1l-1.5,.7Z"/><path d="M331.98,316.8c-.95,1.58-2,2.97-3.05,4.17-.18-.4-.6-1.17-.88-1.58,2.4-2.6,4.8-6.92,6.25-11.25l2,.67c-.1,.17-.28,.25-.58,.22-.65,1.75-1.42,3.5-2.3,5.17l.68,.17c-.05,.15-.18,.28-.5,.3v16.57h-1.62v-14.47Zm3.35-4.1h16.5v1.42h-16.5v-1.42Zm1.85,18.5v-8.02h12.92v7.95h-1.7v-1.17h-9.6v1.25h-1.62Zm12.7-15v1.4h-12.45v-1.4h12.45Zm-12.45,4.9v-1.4h12.42v1.4h-12.42Zm12-11.9v1.4h-11.72v-1.4h11.72Zm-1.02,15.37h-9.6v3.97h9.6v-3.97Z"/><path d="M362.86,319.3c-.02,.17-.2,.33-.52,.38-.55,4.85-1.6,9.27-7.55,11.55-.2-.42-.68-1.02-1.05-1.35,5.5-1.97,6.45-6,6.85-10.77l2.27,.2Zm6.5,9.1c0,.85,.2,1.05,1.22,1.05h3.47c1.08,0,1.25-.7,1.38-4.65,.38,.33,1.07,.62,1.53,.75-.18,4.3-.65,5.45-2.78,5.45h-3.77c-2.15,0-2.75-.55-2.75-2.6v-9.62h-13.6v-1.65h22.32v1.65h-6.9l-.12,.03v9.6Zm4.87-18.62v1.62h-17.95v-1.62h17.95Z"/><path d="M332.03,340.03h2.07v19.04h-2.07v-19.04Z"/><path d="M338.38,340.28c1.1-.2,2.55-.38,4.32-.38,6.15,0,6.65,3.95,6.65,5.45,0,4.47-3.57,6.07-6.95,6.07-.72,0-1.37-.02-1.95-.17v7.82h-2.07v-18.79Zm2.07,9.25c.53,.15,1.2,.2,2,.2,3,0,4.82-1.5,4.82-4.22s-1.95-3.92-4.55-3.92c-1.05,0-1.82,.1-2.28,.2v7.75Z"/><path d="M316.63,370.95c-.05,.1-.2,.17-.32,.22-1.35,3.2-3.5,5.97-5.92,8-.38-.33-1.07-.78-1.52-1.02,2.3-1.67,4.15-4.1,4.97-6.2h-17.9v-1.7h18.84l.28-.12,1.57,.83Zm-9.75,4.55c-.02,.2-.25,.37-.58,.42-.72,5.9-2.75,11.52-7.9,14.5-.35-.3-1-.88-1.47-1.15,5.1-2.8,6.92-8.02,7.52-14.05l2.42,.28Z"/><path d="M334.13,382c-2.55-1.38-6.05-3-8.77-4.07v12.47h-1.87v-21.72l2.52,.15c-.03,.28-.22,.45-.65,.53v7.35l.38-.55c2.92,1.08,6.8,2.8,9.4,4.17l-1,1.67Zm-2.62-11.77c1.15,.95,2.65,2.52,3.45,3.67l-.95,.77c-.75-1.08-2.27-2.75-3.4-3.65l.9-.8Zm3.35-2.15c1.17,.97,2.67,2.55,3.42,3.65l-.9,.77c-.77-1.07-2.3-2.72-3.42-3.65l.9-.78Z"/><path d="M344.91,387.6c6.35-1.77,11.4-4.82,14.47-10.27,.33,.42,.95,.95,1.33,1.25-3.38,5.75-8.95,9.1-16.47,11.07-.05,.2-.2,.42-.4,.5l-1.05-1.75,.3-.47v-18.42l2.57,.12c-.03,.28-.25,.5-.75,.55v17.42Z"/><path d="M380.58,371.25c-.05,.12-.17,.22-.32,.27-1.35,3.17-2.95,5.92-5,8.6,2.72,2.17,6.82,5.9,9.15,8.47l-1.52,1.32c-2.2-2.55-6.22-6.35-8.77-8.4-2.2,2.67-6,6.32-9.62,8.4-.27-.38-.88-1-1.3-1.35,6.92-3.8,12.4-10.9,14.65-16.32h-12.27v-1.7h13.25l.32-.12,1.45,.83Z"/></g><g><rect class="i" x="384.96" y="298.78" width="92.02" height="101.05"/><path class="i" d="M476.89,299.13v100.35h-91.84v-100.35h91.84m.19-.7h-92.21v101.75h92.21v-101.75h0Z"/></g><g class="k"><path d="M417.38,317.25l.3-.05,1.02,.4c0,.12-.1,.2-.17,.28-1.35,7.1-5.12,11.4-9.9,13.47-.2-.4-.65-1.02-1-1.38,2.35-.9,4.47-2.5,6.15-4.77-.8-.92-2.15-2.1-3.35-2.92l1.12-.97c1.1,.7,2.3,1.67,3.15,2.52,.85-1.45,1.52-3.15,1.97-5.05h-4.4c-1.1,2.05-2.47,3.87-4.02,5.12-.28-.28-.85-.8-1.2-1.05,2.37-1.85,4.35-5.15,5.4-8.72l1.97,.57c-.05,.18-.22,.25-.53,.25-.25,.78-.55,1.55-.88,2.3h4.35Zm-7.5-4.47v3.32h-1.62v-4.87h9.52v-3.1l2.22,.15c-.03,.17-.18,.3-.5,.33v2.62h9.67v4.87h-1.7v-3.32h-17.6Zm11.6,15.47c0,.92,.22,1.1,1.47,1.1h4.4c1.07,0,1.27-.52,1.38-3.35,.4,.3,1.07,.57,1.55,.7-.22,3.3-.75,4.25-2.82,4.25h-4.65c-2.3,0-2.97-.52-2.97-2.7v-11.52h7.45l.85,.02c0,7.37-.35,7.82-.58,8.15-.47,.57-.92,.65-2.32,.65-.42,0-.9,0-1.38-.02-.02-.48-.2-1.12-.45-1.53,.95,.1,1.82,.1,2.12,.1,.32,0,.52-.03,.67-.25,.23-.33,.3-1.7,.33-5.6h-5.05v10Z"/><path d="M441.58,321.33c-.02,.17-.2,.3-.52,.33-.65,4.4-1.88,7.87-7.72,9.72-.2-.42-.65-1.07-1.02-1.42,5.45-1.55,6.65-4.65,7.07-8.87l2.2,.25Zm6.25,7.15c0,.75,.17,.87,1.17,.87h3.4c.97,0,1.15-.52,1.25-3.87,.35,.3,1.08,.58,1.55,.7-.2,3.82-.68,4.77-2.65,4.77h-3.72c-2.15,0-2.7-.52-2.7-2.5v-7.67h-13.52v-1.65h10.25v-5.3h-5.42c-.65,1.45-1.4,2.85-2.27,3.95-.38-.25-1.03-.62-1.45-.8,1.75-2.15,3.05-5.55,3.67-8.2l2.12,.5c-.07,.17-.22,.25-.55,.25-.23,.8-.5,1.72-.88,2.67h4.77v-4.05l2.2,.12c-.02,.2-.17,.33-.5,.35v3.57h8.47v1.62h-8.47v5.3h10.27v1.65h-7v7.7Z"/><path d="M423.03,340.21h2.07v19.04h-2.07v-19.04Z"/><path d="M429.38,340.46c1.1-.2,2.55-.38,4.32-.38,6.15,0,6.65,3.95,6.65,5.45,0,4.47-3.57,6.07-6.95,6.07-.72,0-1.37-.02-1.95-.17v7.82h-2.07v-18.79Zm2.07,9.25c.53,.15,1.2,.2,2,.2,3,0,4.82-1.5,4.82-4.22s-1.95-3.92-4.55-3.92c-1.05,0-1.82,.1-2.28,.2v7.75Z"/><path d="M407.63,371.13c-.05,.1-.2,.17-.32,.22-1.35,3.2-3.5,5.97-5.92,8-.38-.33-1.07-.78-1.52-1.02,2.3-1.67,4.15-4.1,4.97-6.2h-17.9v-1.7h18.84l.28-.12,1.57,.83Zm-9.75,4.55c-.02,.2-.25,.37-.58,.42-.72,5.9-2.75,11.52-7.9,14.5-.35-.3-1-.88-1.47-1.15,5.1-2.8,6.92-8.02,7.52-14.05l2.42,.28Z"/><path d="M425.13,382.18c-2.55-1.38-6.05-3-8.77-4.07v12.47h-1.87v-21.72l2.52,.15c-.03,.28-.22,.45-.65,.53v7.35l.38-.55c2.92,1.08,6.8,2.8,9.4,4.17l-1,1.67Zm-2.62-11.77c1.15,.95,2.65,2.52,3.45,3.67l-.95,.77c-.75-1.08-2.27-2.75-3.4-3.65l.9-.8Zm3.35-2.15c1.17,.97,2.67,2.55,3.42,3.65l-.9,.77c-.77-1.07-2.3-2.72-3.42-3.65l.9-.78Z"/><path d="M435.91,387.78c6.35-1.77,11.4-4.82,14.47-10.27,.33,.42,.95,.95,1.33,1.25-3.38,5.75-8.95,9.1-16.47,11.07-.05,.2-.2,.42-.4,.5l-1.05-1.75,.3-.47v-18.42l2.57,.12c-.03,.28-.25,.5-.75,.55v17.42Z"/><path d="M471.58,371.43c-.05,.12-.17,.22-.32,.27-1.35,3.17-2.95,5.92-5,8.6,2.72,2.17,6.82,5.9,9.15,8.47l-1.52,1.32c-2.2-2.55-6.22-6.35-8.77-8.4-2.2,2.67-6,6.32-9.62,8.4-.27-.38-.88-1-1.3-1.35,6.92-3.8,12.4-10.9,14.65-16.32h-12.27v-1.7h13.25l.32-.12,1.45,.83Z"/></g><g><rect class="i" x="475.97" y="298.78" width="103.92" height="101.05"/><path class="i" d="M579.79,299.13v100.35h-103.71v-100.35h103.71m.21-.7h-104.13v101.75h104.13v-101.75h0Z"/></g><g class="k"><path d="M495.82,312.7h15.9l.15-.07,1.7,1.3c-.08,.1-.15,.18-.3,.23-2.02,9.4-6.37,14.3-14.02,17.2-.28-.45-.77-1.1-1.12-1.47,7.27-2.67,11.47-7.32,13.1-15.45h-15.4v-1.72Zm19.04-4.47c1.5,0,2.72,1.22,2.72,2.75s-1.22,2.72-2.72,2.72-2.75-1.22-2.75-2.72c0-1.57,1.27-2.75,2.75-2.75Zm1.9,2.75c0-1.07-.85-1.92-1.9-1.92s-1.92,.85-1.92,1.92,.88,1.92,1.92,1.92,1.9-.92,1.9-1.92Z"/><path d="M538.29,313.1v16.5h-1.8v-1.58h-13.77v1.62h-1.75v-16.55h17.32Zm-1.8,13.25v-11.57h-13.77v11.57h13.77Z"/><path d="M557.69,322.97c-2.55-1.37-6.05-3-8.77-4.07v12.5h-1.87v-21.72l2.52,.15c-.03,.28-.22,.45-.65,.53v7.3l.38-.53c2.92,1.08,6.8,2.8,9.4,4.17l-1,1.67Z"/><path d="M523.37,343.17v16.92h-1.82v-1.38h-15.75v-1.67h15.75v-12.2h-15.5v-1.67h17.32Z"/><path d="M534.54,343.6c-.02,.22-.25,.38-.58,.42-.15,6.72-.7,12.85-4.55,17.32-.4-.3-1-.67-1.5-.95,3.72-4.05,4.17-10.3,4.25-17.02l2.37,.23Zm6.47,14.4c4.17-2.02,6.87-5.67,8.32-10.05,.38,.33,1.12,.75,1.55,.97-1.78,5.05-4.88,8.77-10.2,11.3-.08,.2-.25,.4-.43,.5l-1.3-1.65,.27-.38v-18.34l2.32,.12c-.02,.23-.2,.43-.55,.48v17.05Z"/><path d="M512.54,373.9c-.03,.12-.15,.22-.3,.27-.92,3.1-2.17,5.95-3.67,8.27,1.08,.62,2.3,1.4,3.22,2.07l-1.05,1.65c-.9-.7-2.17-1.52-3.22-2.17-2.3,3.2-5.25,5.77-9.02,7.6-.28-.42-.92-1.02-1.38-1.3,3.65-1.7,6.57-4.22,8.85-7.2-1.85-1.02-3.67-1.9-5.52-2.6l.95-1.4c1.83,.65,3.7,1.5,5.62,2.52,1.3-2.05,2.32-4.22,3.02-6.62h-8.47c-1.52,2.55-3.57,5.07-5.77,6.87-.32-.3-1-.85-1.42-1.12,3.27-2.5,6.37-7,7.87-11.27l2.37,.55c-.1,.27-.35,.35-.67,.33-.35,.82-.93,2.05-1.4,2.97h8.3l.35-.1,1.35,.67Z"/><path d="M536.89,371.28c-.1,.12-.25,.2-.47,.2-.08,0-.15,0-.25-.02-1.92,1.95-4.7,4.22-7.12,5.97,.2,.07,.5,.22,.6,.27-.05,.15-.28,.3-.55,.33v13.42h-1.82v-12.85c-2.65,1.88-6.1,3.9-9.52,5.57-.25-.4-.7-1.02-1.05-1.38,6.82-3.15,14.3-8.5,18.32-12.92l1.88,1.4Z"/><path d="M540.45,372.7h15.9l.15-.07,1.7,1.3c-.08,.1-.15,.18-.3,.23-2.02,9.4-6.37,14.3-14.02,17.2-.27-.45-.77-1.1-1.12-1.47,7.27-2.67,11.47-7.32,13.1-15.45h-15.4v-1.72Zm19.05-4.47c1.5,0,2.72,1.22,2.72,2.75s-1.22,2.72-2.72,2.72-2.75-1.22-2.75-2.72c0-1.57,1.27-2.75,2.75-2.75Zm1.9,2.75c0-1.07-.85-1.92-1.9-1.92s-1.92,.85-1.92,1.92,.88,1.92,1.92,1.92,1.9-.92,1.9-1.92Z"/></g><g><rect class="b" x="580.07" y="298.6" width="99.8" height="101.05"/><path class="b" d="M679.77,298.95v100.35h-99.6v-100.35h99.6m.2-.7h-100v101.75h100v-101.75h0Z"/></g><g class="k"><path d="M596.08,320.97v8.17c1.95,2.97,5.52,2.97,10.02,2.97,2.7,0,5.87-.08,7.82-.2-.2,.4-.5,1.2-.55,1.7-1.72,.08-4.47,.12-6.95,.12-5.15,0-8.57,0-11.1-3.1-1.22,1.1-2.55,2.22-3.62,3.07,.03,.23-.05,.33-.22,.4l-.97-1.85c1.2-.8,2.67-1.95,3.95-3.05v-6.65h-3.67v-1.6h5.3Zm-3.72-9.37c1.67,1.07,3.62,2.72,4.47,3.95l-1.32,1.12c-.83-1.25-2.72-2.95-4.4-4.07l1.25-1Zm21.2,11.1h-6.65c1.05,3.32,3.22,5.55,6.7,6.57-.38,.32-.85,.95-1.07,1.4-3.4-1.17-5.57-3.45-6.82-6.85-.72,2.35-2.52,4.82-6.75,6.75-.22-.38-.75-.95-1.12-1.25,4.52-1.88,6-4.37,6.47-6.62h-6.7v-1.55h6.87c.02-.3,.02-.6,.02-.88v-2.88h-6.07v-1.55h9.95l-1.28-.58c.85-1.15,1.92-3.02,2.5-4.3l2,.75c-.08,.17-.25,.22-.55,.25-.65,1.15-1.72,2.8-2.6,3.87h4.35v1.55h-6.62v2.88c0,.27,0,.57-.03,.88h7.4v1.55Zm-11.8-6.85c-.33-1.15-1.27-2.92-2.27-4.2l1.42-.6c1.02,1.25,2.02,2.95,2.35,4.1l-1.5,.7Z"/><path d="M618.98,319.8c-.95,1.58-2,2.97-3.05,4.17-.17-.4-.6-1.17-.87-1.58,2.4-2.6,4.8-6.92,6.25-11.25l2,.67c-.1,.17-.27,.25-.58,.22-.65,1.75-1.42,3.5-2.3,5.17l.67,.17c-.05,.15-.17,.28-.5,.3v16.57h-1.62v-14.47Zm3.35-4.1h16.5v1.42h-16.5v-1.42Zm1.85,18.5v-8.02h12.92v7.95h-1.7v-1.17h-9.6v1.25h-1.62Zm12.7-15v1.4h-12.45v-1.4h12.45Zm-12.45,4.9v-1.4h12.42v1.4h-12.42Zm12-11.9v1.4h-11.72v-1.4h11.72Zm-1.03,15.37h-9.6v3.97h9.6v-3.97Z"/><path d="M649.86,322.3c-.03,.17-.2,.33-.53,.38-.55,4.85-1.6,9.27-7.55,11.55-.2-.42-.68-1.02-1.05-1.35,5.5-1.97,6.45-6,6.85-10.77l2.27,.2Zm6.5,9.1c0,.85,.2,1.05,1.22,1.05h3.47c1.07,0,1.25-.7,1.38-4.65,.38,.33,1.07,.62,1.52,.75-.17,4.3-.65,5.45-2.77,5.45h-3.77c-2.15,0-2.75-.55-2.75-2.6v-9.62h-13.6v-1.65h22.32v1.65h-6.9l-.12,.03v9.6Zm4.87-18.62v1.62h-17.95v-1.62h17.95Z"/><path d="M600.63,352.75c-1.12,2.92-2.77,5.5-4.7,7.37l-1.45-.95c1.88-1.75,3.5-4.12,4.52-7.05l1.62,.62Zm5.35-3.85v11.72c0,2.72-1.95,2.72-5.95,2.72-.1-.45-.3-1.15-.53-1.67,.72,.03,1.53,.03,2.2,.03h1.45c.7,0,1.02-.45,1.02-1.05v-11.75h-8.5v-1.7h8.5v-5.27l2.38,.12c-.03,.25-.2,.42-.58,.48v4.67h8.45v1.7h-8.45Zm4.47,3.05c1.83,2.02,3.92,4.97,5.27,7.27l-1.6,.92c-1.23-2.27-3.42-5.5-5.1-7.4l1.42-.8Zm3.25-11.52c1.52,0,2.77,1.25,2.77,2.8s-1.25,2.8-2.77,2.8-2.82-1.25-2.82-2.8,1.3-2.8,2.82-2.8Zm1.95,2.8c0-1.1-.88-2-1.95-2s-2,.9-2,2,.9,1.97,2,1.97,1.95-.95,1.95-1.97Z"/><path d="M619.26,351.25h20.87v1.77h-19.92c-.15,.25-.47,.42-.8,.47l-.15-2.25Z"/><path d="M658.13,354.97c-2.55-1.37-6.05-3-8.77-4.07v12.5h-1.87v-21.72l2.52,.15c-.03,.28-.22,.45-.65,.53v7.3l.38-.53c2.92,1.08,6.8,2.8,9.4,4.17l-1,1.67Z"/><path d="M625.85,379.52h-8.52c2.35,2.07,6,3.95,9.17,4.85-.4,.35-.88,1-1.15,1.42-.77-.28-1.6-.6-2.42-.97v9.3h-1.67v-.8h-12.77v.9h-1.62v-9.45c-.95,.5-1.9,.92-2.8,1.25-.25-.38-.73-1-1.1-1.32,3.1-1,6.67-3,9-5.17h-8.35v-1.45h5.65c-.38-.95-1.15-2.3-1.9-3.27l1.45-.55c.85,1.05,1.72,2.47,2.05,3.45l-.95,.38h3.9v-4.22c-2.8,.22-5.72,.4-8.42,.5-.05-.35-.23-.97-.38-1.3,6.02-.27,13.35-.9,17.29-1.75l1.22,1.35s-.12,.05-.22,.05c-.07,0-.17,0-.28-.03-1.97,.4-4.65,.75-7.55,1.03v4.37h3.55c-.28-.12-.55-.23-.72-.3,.77-1.07,1.75-2.8,2.25-4l2.02,.75c-.08,.15-.25,.23-.53,.23-.55,.95-1.4,2.32-2.15,3.32h5.95v1.45Zm-12.05,.25c-1.67,1.75-4,3.42-6.37,4.7h14.77c-2.5-1.25-5-2.97-6.72-4.77v4.3h-1.68v-4.22Zm.05,8.42v-2.37h-5.37v2.37h5.37Zm-5.37,1.25v2.5h5.37v-2.5h-5.37Zm12.77-1.25v-2.37h-5.8v2.37h5.8Zm-5.8,3.75h5.8v-2.5h-5.8v2.5Z"/><path d="M651.18,383h-15.3c-.22,.75-.53,1.58-.8,2.42h11.3l.4-.08,1.08,.35c-.03,.12-.08,.3-.15,.45-.67,4.6-1.32,6.57-2.27,7.4-.62,.58-1.2,.7-2.9,.7-.9,0-2.17-.05-3.5-.15-.03-.47-.25-1.15-.58-1.57,1.82,.15,3.67,.17,4.35,.17,.62,0,.92-.03,1.22-.22,.72-.55,1.25-2.12,1.77-5.47h-11.3c-.25,.68-.47,1.3-.7,1.83-.95-.2-1.38-.28-1.8-.33,.65-1.42,1.42-3.6,2.02-5.5h-5.8v-1.55h22.95v1.55Zm-3.53-10.75v7.22h-15.65v-7.22h15.65Zm-1.72,5.7v-4.17h-12.27v4.17h12.27Z"/></g><g><rect class="b" x="680.07" y="298.13" width="99.8" height="101.05"/><path class="b" d="M779.77,298.48v100.35h-99.6v-100.35h99.6m.2-.7h-100v101.75h100v-101.75h0Z"/></g><g class="k"><path d="M716.38,319.61l.3-.05,1.03,.4c0,.12-.1,.2-.18,.28-1.35,7.1-5.12,11.4-9.9,13.47-.2-.4-.65-1.02-1-1.38,2.35-.9,4.47-2.5,6.15-4.77-.8-.92-2.15-2.1-3.35-2.92l1.12-.97c1.1,.7,2.3,1.67,3.15,2.52,.85-1.45,1.52-3.15,1.97-5.05h-4.4c-1.1,2.05-2.47,3.87-4.02,5.12-.28-.28-.85-.8-1.2-1.05,2.37-1.85,4.35-5.15,5.4-8.72l1.97,.57c-.05,.18-.23,.25-.53,.25-.25,.78-.55,1.55-.88,2.3h4.35Zm-7.5-4.47v3.32h-1.62v-4.87h9.52v-3.1l2.22,.15c-.03,.17-.17,.3-.5,.33v2.62h9.67v4.87h-1.7v-3.32h-17.6Zm11.6,15.47c0,.92,.22,1.1,1.47,1.1h4.4c1.07,0,1.27-.52,1.37-3.35,.4,.3,1.08,.57,1.55,.7-.22,3.3-.75,4.25-2.82,4.25h-4.65c-2.3,0-2.97-.52-2.97-2.7v-11.52h7.45l.85,.02c0,7.37-.35,7.82-.57,8.15-.47,.57-.92,.65-2.32,.65-.42,0-.9,0-1.38-.02-.03-.48-.2-1.12-.45-1.53,.95,.1,1.82,.1,2.12,.1,.33,0,.52-.03,.67-.25,.22-.33,.3-1.7,.32-5.6h-5.05v10Z"/><path d="M740.58,323.68c-.02,.17-.2,.3-.52,.33-.65,4.4-1.87,7.87-7.72,9.72-.2-.42-.65-1.07-1.02-1.42,5.45-1.55,6.65-4.65,7.07-8.87l2.2,.25Zm6.25,7.15c0,.75,.17,.87,1.17,.87h3.4c.97,0,1.15-.52,1.25-3.87,.35,.3,1.07,.58,1.55,.7-.2,3.82-.67,4.77-2.65,4.77h-3.72c-2.15,0-2.7-.52-2.7-2.5v-7.67h-13.52v-1.65h10.25v-5.3h-5.42c-.65,1.45-1.4,2.85-2.27,3.95-.38-.25-1.02-.62-1.45-.8,1.75-2.15,3.05-5.55,3.67-8.2l2.12,.5c-.07,.17-.22,.25-.55,.25-.23,.8-.5,1.72-.87,2.67h4.77v-4.05l2.2,.12c-.03,.2-.17,.33-.5,.35v3.57h8.47v1.62h-8.47v5.3h10.27v1.65h-7v7.7Z"/><path d="M703.63,352.28c-1.12,2.92-2.77,5.5-4.7,7.37l-1.45-.95c1.88-1.75,3.5-4.12,4.52-7.05l1.62,.62Zm5.35-3.85v11.72c0,2.72-1.95,2.72-5.95,2.72-.1-.45-.3-1.15-.53-1.67,.72,.03,1.53,.03,2.2,.03h1.45c.7,0,1.02-.45,1.02-1.05v-11.75h-8.5v-1.7h8.5v-5.27l2.38,.12c-.03,.25-.2,.42-.58,.48v4.67h8.45v1.7h-8.45Zm4.47,3.05c1.83,2.02,3.92,4.97,5.27,7.27l-1.6,.92c-1.23-2.27-3.42-5.5-5.1-7.4l1.42-.8Zm3.25-11.52c1.52,0,2.77,1.25,2.77,2.8s-1.25,2.8-2.77,2.8-2.82-1.25-2.82-2.8,1.3-2.8,2.82-2.8Zm1.95,2.8c0-1.1-.88-2-1.95-2s-2,.9-2,2,.9,1.97,2,1.97,1.95-.95,1.95-1.97Z"/><path d="M722.26,350.78h20.87v1.77h-19.92c-.15,.25-.47,.42-.8,.47l-.15-2.25Z"/><path d="M761.13,354.51c-2.55-1.37-6.05-3-8.77-4.07v12.5h-1.87v-21.72l2.52,.15c-.03,.28-.22,.45-.65,.53v7.3l.38-.53c2.92,1.08,6.8,2.8,9.4,4.17l-1,1.67Z"/><path d="M728.85,379.06h-8.52c2.35,2.07,6,3.95,9.17,4.85-.4,.35-.88,1-1.15,1.42-.77-.28-1.6-.6-2.42-.97v9.3h-1.67v-.8h-12.77v.9h-1.62v-9.45c-.95,.5-1.9,.92-2.8,1.25-.25-.38-.73-1-1.1-1.32,3.1-1,6.67-3,9-5.17h-8.35v-1.45h5.65c-.38-.95-1.15-2.3-1.9-3.27l1.45-.55c.85,1.05,1.72,2.47,2.05,3.45l-.95,.38h3.9v-4.22c-2.8,.22-5.72,.4-8.42,.5-.05-.35-.23-.97-.38-1.3,6.02-.27,13.35-.9,17.29-1.75l1.22,1.35s-.12,.05-.22,.05c-.07,0-.17,0-.28-.03-1.97,.4-4.65,.75-7.55,1.03v4.37h3.55c-.28-.12-.55-.23-.72-.3,.77-1.07,1.75-2.8,2.25-4l2.02,.75c-.08,.15-.25,.23-.53,.23-.55,.95-1.4,2.32-2.15,3.32h5.95v1.45Zm-12.05,.25c-1.67,1.75-4,3.42-6.37,4.7h14.77c-2.5-1.25-5-2.97-6.72-4.77v4.3h-1.68v-4.22Zm.05,8.42v-2.37h-5.37v2.37h5.37Zm-5.37,1.25v2.5h5.37v-2.5h-5.37Zm12.77-1.25v-2.37h-5.8v2.37h5.8Zm-5.8,3.75h5.8v-2.5h-5.8v2.5Z"/><path d="M754.18,382.53h-15.3c-.22,.75-.53,1.58-.8,2.42h11.3l.4-.08,1.08,.35c-.03,.12-.08,.3-.15,.45-.67,4.6-1.32,6.57-2.27,7.4-.62,.58-1.2,.7-2.9,.7-.9,0-2.17-.05-3.5-.15-.03-.47-.25-1.15-.58-1.57,1.82,.15,3.67,.17,4.35,.17,.62,0,.92-.03,1.22-.22,.72-.55,1.25-2.12,1.77-5.47h-11.3c-.25,.68-.47,1.3-.7,1.83-.95-.2-1.38-.28-1.8-.33,.65-1.42,1.42-3.6,2.02-5.5h-5.8v-1.55h22.95v1.55Zm-3.53-10.75v7.22h-15.65v-7.22h15.65Zm-1.72,5.7v-4.17h-12.27v4.17h12.27Z"/></g><g><rect class="c" x="779.81" y="298.35" width="130.33" height="101.3"/><path class="c" d="M910,298.7v100.6h-130.06v-100.6h130.06m.26-.7h-130.59v102h130.59v-102h0Z"/></g><g class="k"><path d="M832.09,349.04h-9.24l.47,.14c-.03,.17-.25,.31-.56,.34-.73,5.07-3.03,10.11-8.65,12.94-.31-.36-1.04-1.01-1.51-1.37,5.52-2.74,7.45-7,8.09-12.04h-10.7v-1.88h22.09v1.88Zm-4.12-7.64h-15.54v-1.88h15.54v1.88Zm.36-4.12c1.15,1.2,2.44,3.11,3.08,4.42l-1.12,.76c-.59-1.29-1.93-3.28-3.05-4.42l1.09-.76Zm3.3-.95c1.15,1.2,2.49,3.11,3.16,4.4l-1.15,.7c-.59-1.23-1.99-3.22-3.08-4.37l1.06-.73Z"/><path d="M836.79,348.76h23.38v1.99h-22.32c-.17,.28-.53,.48-.9,.53l-.17-2.52Z"/><path d="M884.23,342.77c-.03,.14-.17,.25-.34,.31-1.04,3.47-2.44,6.66-4.12,9.27,1.2,.7,2.58,1.57,3.61,2.32l-1.18,1.85c-1.01-.78-2.44-1.71-3.61-2.44-2.58,3.58-5.88,6.47-10.11,8.51-.31-.48-1.04-1.15-1.54-1.46,4.09-1.9,7.36-4.73,9.91-8.06-2.07-1.15-4.12-2.13-6.19-2.91l1.06-1.57c2.04,.73,4.14,1.68,6.3,2.83,1.46-2.3,2.6-4.73,3.39-7.42h-9.49c-1.71,2.86-4,5.68-6.47,7.7-.36-.34-1.12-.95-1.6-1.26,3.67-2.8,7.14-7.84,8.82-12.63l2.66,.62c-.11,.31-.39,.39-.76,.36-.39,.92-1.04,2.3-1.57,3.33h9.3l.39-.11,1.51,.76Z"/></g><g><rect class="e" x="909.78" y="298.35" width="69.86" height="101.66"/><path class="e" d="M979.57,298.7v100.96h-69.72v-100.96h69.72m.14-.7h-70v102.36h70v-102.36h0Z"/></g><g class="k"><path d="M923.27,358.94v-21.34h10.75v1.96h-8.43v7.59h7.76v1.93h-7.76v9.86h-2.32Z"/><path d="M951.8,358.29c-.98,.48-2.88,.95-5.32,.95-5.49,0-9.91-3.56-9.91-10.78s4.29-11.17,10.53-11.17c2.55,0,4.03,.53,4.7,.87l-.62,1.96c-.98-.48-2.35-.87-4.03-.87-4.84,0-8.15,3.25-8.15,9.13s3.02,8.9,8.01,8.9c1.62,0,3.22-.36,4.28-.87l.5,1.88Z"/><path d="M964.71,340.23c-.62-.39-1.96-.98-3.75-.98-2.97,0-4.09,1.82-4.09,3.36,0,2.1,1.29,3.16,4.14,4.37,3.44,1.46,5.21,3.22,5.21,6.27,0,3.39-2.46,5.99-7.06,5.99-1.93,0-4.03-.59-5.1-1.34l.64-1.93c1.15,.76,2.86,1.32,4.59,1.32,2.86,0,4.54-1.54,4.54-3.84,0-2.1-1.15-3.39-3.92-4.51-3.22-1.2-5.4-3.08-5.4-6.02,0-3.25,2.63-5.63,6.52-5.63,2.02,0,3.56,.5,4.37,1.01l-.7,1.93Z"/></g><rect class="d" x="9.12" y="460.01" width="188.69" height="101.05"/><path class="d" d="M197.62,460.36v100.35H9.31v-100.35H197.62m.38-.7H8.93v101.75H198v-101.75h0Z"/><g class="k"><path d="M34.71,502.98h15.9l.15-.07,1.7,1.3c-.08,.1-.15,.18-.3,.23-2.02,9.4-6.37,14.3-14.02,17.2-.27-.45-.77-1.1-1.12-1.47,7.27-2.67,11.47-7.32,13.1-15.45h-15.4v-1.72Zm19.05-4.47c1.5,0,2.72,1.22,2.72,2.75s-1.22,2.72-2.72,2.72-2.75-1.22-2.75-2.72c0-1.57,1.27-2.75,2.75-2.75Zm1.9,2.75c0-1.07-.85-1.92-1.9-1.92s-1.92,.85-1.92,1.92,.88,1.92,1.92,1.92,1.9-.92,1.9-1.92Z"/><path d="M60.03,513.78v-12.15l2.38,.15c-.03,.22-.2,.4-.6,.45v11.55h-1.78Zm13.92-13.12c-.03,.25-.2,.38-.6,.42v7.95c0,5.25-1.8,10.05-8.97,12.82-.25-.38-.88-1.03-1.3-1.35,6.92-2.58,8.47-6.85,8.47-11.47v-8.52l2.4,.15Z"/><path d="M99.08,502.23c-.05,.1-.2,.17-.33,.22-1.35,3.2-3.5,5.97-5.92,8-.38-.33-1.08-.78-1.52-1.02,2.3-1.67,4.15-4.1,4.97-6.2h-17.9v-1.7h18.85l.27-.12,1.58,.83Zm-9.75,4.55c-.03,.2-.25,.37-.58,.42-.72,5.9-2.75,11.52-7.9,14.5-.35-.3-1-.88-1.47-1.15,5.1-2.8,6.92-8.02,7.52-14.05l2.42,.28Z"/><path d="M102.66,501.98c2.6,.82,5.6,2.12,7.45,3.4l-.95,1.58c-1.8-1.28-4.75-2.6-7.3-3.47l.8-1.5Zm-.1,17.32c8.87-2.75,14.77-7.72,17.77-14.65,.53,.42,1.1,.75,1.62,1.02-3.12,6.85-9.22,12.17-17.7,15-.03,.22-.18,.47-.35,.57l-1.35-1.95Z"/><path d="M142.13,502.93c-.72-.92-1.67-1.97-2.42-2.65l.88-.7c1.12,.95,2.5,2.52,3.2,3.6l-.47,.35,.2,.1c-.07,.12-.2,.22-.35,.27-1.92,9.42-6.8,15.05-14.97,17.92-.3-.45-.8-1.1-1.15-1.45,7.85-2.6,12.5-8.07,13.95-15.6h-15.92v-1.7h16.57l.33-.23,.17,.08Zm3.85-.15c-.62-1.08-2.03-2.72-3.05-3.6l.92-.72c1.15,.95,2.4,2.5,3.12,3.6l-1,.73Z"/><path d="M154.18,503.88c-.02,.22-.25,.38-.57,.42-.15,6.72-.7,12.85-4.55,17.32-.4-.3-1-.67-1.5-.95,3.72-4.05,4.17-10.3,4.25-17.02l2.37,.23Zm6.47,14.4c4.17-2.02,6.87-5.67,8.32-10.05,.38,.33,1.12,.75,1.55,.97-1.77,5.05-4.87,8.77-10.2,11.3-.07,.2-.25,.4-.42,.5l-1.3-1.65,.27-.38v-18.34l2.32,.12c-.02,.23-.2,.43-.55,.48v17.05Z"/></g><g><rect class="e" x="361.16" y="460.2" width="162.67" height="101.05"/><path class="e" d="M523.67,460.54v100.35h-162.35v-100.35h162.35m.33-.7h-163v101.75h163v-101.75h0Z"/></g><g class="k"><path d="M409.94,494.44v8.17c1.95,2.97,5.52,2.97,10.02,2.97,2.7,0,5.87-.08,7.82-.2-.2,.4-.5,1.2-.55,1.7-1.72,.08-4.47,.12-6.95,.12-5.15,0-8.57,0-11.1-3.1-1.22,1.1-2.55,2.22-3.62,3.07,.02,.23-.05,.33-.23,.4l-.97-1.85c1.2-.8,2.67-1.95,3.95-3.05v-6.65h-3.67v-1.6h5.3Zm-3.72-9.37c1.67,1.07,3.62,2.72,4.47,3.95l-1.32,1.12c-.83-1.25-2.72-2.95-4.4-4.07l1.25-1Zm21.2,11.1h-6.65c1.05,3.32,3.22,5.55,6.7,6.57-.38,.32-.85,.95-1.08,1.4-3.4-1.17-5.57-3.45-6.82-6.85-.72,2.35-2.53,4.82-6.75,6.75-.22-.38-.75-.95-1.12-1.25,4.52-1.88,6-4.37,6.47-6.62h-6.7v-1.55h6.87c.02-.3,.02-.6,.02-.88v-2.88h-6.07v-1.55h9.95l-1.28-.58c.85-1.15,1.93-3.02,2.5-4.3l2,.75c-.08,.17-.25,.22-.55,.25-.65,1.15-1.72,2.8-2.6,3.87h4.35v1.55h-6.62v2.88c0,.27,0,.57-.03,.88h7.4v1.55Zm-11.8-6.85c-.33-1.15-1.28-2.92-2.28-4.2l1.43-.6c1.02,1.25,2.02,2.95,2.35,4.1l-1.5,.7Z"/><path d="M432.84,493.26c-.95,1.58-2,2.97-3.05,4.17-.18-.4-.6-1.17-.88-1.58,2.4-2.6,4.8-6.92,6.25-11.25l2,.67c-.1,.17-.28,.25-.58,.22-.65,1.75-1.42,3.5-2.3,5.17l.68,.17c-.05,.15-.18,.28-.5,.3v16.57h-1.62v-14.47Zm3.35-4.1h16.5v1.42h-16.5v-1.42Zm1.85,18.5v-8.02h12.92v7.95h-1.7v-1.17h-9.6v1.25h-1.62Zm12.7-15v1.4h-12.45v-1.4h12.45Zm-12.45,4.9v-1.4h12.42v1.4h-12.42Zm12-11.9v1.4h-11.72v-1.4h11.72Zm-1.02,15.37h-9.6v3.97h9.6v-3.97Z"/><path d="M463.71,495.76c-.02,.17-.2,.33-.52,.38-.55,4.85-1.6,9.27-7.55,11.55-.2-.42-.68-1.02-1.05-1.35,5.5-1.97,6.45-6,6.85-10.77l2.27,.2Zm6.5,9.1c0,.85,.2,1.05,1.22,1.05h3.47c1.08,0,1.25-.7,1.38-4.65,.38,.33,1.07,.62,1.53,.75-.18,4.3-.65,5.45-2.78,5.45h-3.77c-2.15,0-2.75-.55-2.75-2.6v-9.62h-13.6v-1.65h22.32v1.65h-6.9l-.12,.03v9.6Zm4.87-18.62v1.62h-17.95v-1.62h17.95Z"/><path d="M388.72,535.53h-2.05l-.47-8.57c-.15-2.72-.35-6.25-.33-8.2h-.08c-.62,2.15-1.4,4.5-2.32,7.15l-3.4,9.55h-1.53l-3.17-9.35c-.92-2.75-1.65-5.15-2.17-7.35h-.08c-.05,2.32-.2,5.47-.38,8.4l-.52,8.37h-1.97l1.33-19.04h2.55l3.35,9.67c.8,2.38,1.42,4.4,1.92,6.37h.08c.48-1.92,1.12-3.92,1.97-6.37l3.47-9.67h2.6l1.2,19.04Z"/><path d="M406.07,535.53h-2.2l-2.05-6.17h-6.62l-2,6.17h-2.12l6.3-19.04h2.4l6.3,19.04Zm-4.67-7.82l-1.88-5.65c-.4-1.3-.72-2.5-.97-3.62h-.07c-.25,1.15-.6,2.35-.95,3.55l-1.9,5.72h5.77Z"/><path d="M421.35,534.96c-.88,.42-2.57,.85-4.75,.85-4.9,0-8.85-3.17-8.85-9.62s3.82-9.97,9.4-9.97c2.27,0,3.6,.47,4.2,.77l-.55,1.75c-.88-.42-2.1-.77-3.6-.77-4.32,0-7.27,2.9-7.27,8.15s2.7,7.95,7.15,7.95c1.45,0,2.87-.33,3.82-.77l.45,1.67Z"/><path d="M444.29,517.41c-.05,.1-.2,.17-.32,.22-1.35,3.2-3.5,5.97-5.92,8-.38-.33-1.07-.78-1.52-1.02,2.3-1.67,4.15-4.1,4.97-6.2h-17.9v-1.7h18.84l.28-.12,1.57,.83Zm-9.75,4.55c-.02,.2-.25,.37-.58,.42-.72,5.9-2.75,11.52-7.9,14.5-.35-.3-1-.88-1.47-1.15,5.1-2.8,6.92-8.02,7.52-14.05l2.42,.28Z"/><path d="M461.8,528.46c-2.55-1.38-6.05-3-8.77-4.07v12.47h-1.87v-21.72l2.52,.15c-.03,.28-.22,.45-.65,.53v7.35l.38-.55c2.92,1.08,6.8,2.8,9.4,4.17l-1,1.67Zm-2.62-11.77c1.15,.95,2.65,2.52,3.45,3.67l-.95,.77c-.75-1.08-2.27-2.75-3.4-3.65l.9-.8Zm3.35-2.15c1.17,.97,2.67,2.55,3.42,3.65l-.9,.77c-.77-1.07-2.3-2.72-3.42-3.65l.9-.78Z"/><path d="M472.57,534.06c6.35-1.77,11.4-4.82,14.47-10.27,.33,.42,.95,.95,1.33,1.25-3.38,5.75-8.95,9.1-16.47,11.07-.05,.2-.2,.42-.4,.5l-1.05-1.75,.3-.47v-18.42l2.57,.12c-.03,.28-.25,.5-.75,.55v17.42Z"/><path d="M508.25,517.71c-.05,.12-.17,.22-.32,.27-1.35,3.17-2.95,5.92-5,8.6,2.72,2.17,6.82,5.9,9.15,8.47l-1.52,1.32c-2.2-2.55-6.22-6.35-8.77-8.4-2.2,2.67-6,6.32-9.62,8.4-.27-.38-.88-1-1.3-1.35,6.92-3.8,12.4-10.9,14.65-16.32h-12.27v-1.7h13.25l.32-.12,1.45,.83Z"/></g><g><rect class="e" x="524.16" y="460.2" width="154.69" height="101.05"/><path class="e" d="M678.69,460.54v100.35h-154.38v-100.35h154.38m.31-.7h-155v101.75h155v-101.75h0Z"/></g><g class="k"><path d="M555.74,486.74c-.1,.12-.25,.2-.47,.2-.07,0-.15,0-.25-.02-1.91,1.95-4.67,4.22-7.08,5.97,.2,.07,.5,.22,.6,.27-.05,.15-.27,.3-.55,.33v13.42h-1.81v-12.85c-2.63,1.88-6.06,3.9-9.46,5.57-.25-.4-.7-1.02-1.04-1.38,6.78-3.15,14.21-8.5,18.21-12.92l1.86,1.4Z"/><path d="M559.01,494.71h20.74v1.77h-19.8c-.15,.25-.47,.42-.79,.47l-.15-2.25Z"/><path d="M604.65,492.64h-5.19v1.72c0,4.77-1.47,9.62-7.95,12.57-.32-.4-.84-.9-1.29-1.25,6.31-2.75,7.48-7.2,7.48-11.3v-1.75h-8.02v6.22h-1.76v-6.22h-4.87v-1.7h4.87v-5.42l2.38,.15c-.03,.25-.25,.47-.62,.52v4.75h8.02v-5.75l2.38,.15c-.02,.23-.22,.42-.62,.48v5.12h5.19v1.7Z"/><path d="M625.88,490.99c-.08,.12-.22,.2-.45,.23-1.59,2-3.73,4.15-6.01,5.92l.4,.1c-.05,.12-.22,.33-.55,.35v9.52h-1.76v-8.67c-2.53,1.75-5.81,3.52-8.87,4.75-.12-.17-.94-1.2-1.14-1.4,6.01-2.25,11.72-5.97,15.13-9.97h-12.57v-1.62h14.23l.27-.17,1.32,.97Zm-4.1-1.95c-2.16-1.15-5.54-2.27-8.17-3.02l.82-1.45c2.66,.65,6.01,1.85,8.27,2.95l-.92,1.52Zm.17,8.02c2.48,1.3,5.47,3.17,7.25,4.6l-1.27,1.35c-1.66-1.4-4.75-3.42-7.13-4.7l1.14-1.25Z"/><path d="M634.25,491.84c.75,1.52,1.56,3.92,1.86,5.37l-1.39,.38c-.3-1.45-1.07-3.72-1.81-5.32l1.34-.42Zm14.83,.17c-.05,.22-.3,.27-.52,.25-1.94,7.3-5.59,11.77-11.6,14.22-.2-.3-.65-.88-.97-1.15,5.94-2.35,9.34-6.45,11.15-13.9l1.94,.58Zm-8.79-1.38c.52,1.67,.99,4.07,1.17,5.67l-1.47,.27c-.15-1.6-.62-3.9-1.17-5.62l1.47-.33Z"/><path d="M667.19,498.43c-2.53-1.37-6.01-3-8.72-4.07v12.5h-1.86v-21.72l2.51,.15c-.02,.28-.22,.45-.65,.53v7.3l.37-.53c2.91,1.08,6.76,2.8,9.34,4.17l-.99,1.67Z"/><path d="M587.56,519.36c-.03,.12-.15,.22-.3,.27-.92,3.1-2.16,5.95-3.65,8.27,1.07,.62,2.29,1.4,3.2,2.07l-1.04,1.65c-.89-.7-2.16-1.52-3.2-2.17-2.29,3.2-5.22,5.77-8.97,7.6-.27-.42-.92-1.02-1.37-1.3,3.63-1.7,6.53-4.22,8.79-7.2-1.84-1.02-3.65-1.9-5.49-2.6l.94-1.4c1.81,.65,3.68,1.5,5.59,2.52,1.29-2.05,2.31-4.22,3.01-6.62h-8.42c-1.52,2.55-3.55,5.07-5.74,6.87-.32-.3-.99-.85-1.42-1.12,3.25-2.5,6.33-7,7.82-11.27l2.36,.55c-.1,.27-.35,.35-.67,.33-.35,.82-.92,2.05-1.39,2.97h8.25l.35-.1,1.34,.67Z"/><path d="M611.75,516.74c-.1,.12-.25,.2-.47,.2-.07,0-.15,0-.25-.02-1.91,1.95-4.67,4.22-7.08,5.97,.2,.07,.5,.22,.6,.27-.05,.15-.27,.3-.55,.33v13.42h-1.81v-12.85c-2.63,1.88-6.06,3.9-9.46,5.57-.25-.4-.7-1.02-1.04-1.38,6.78-3.15,14.21-8.5,18.21-12.92l1.86,1.4Z"/><path d="M615.28,518.16h15.8l.15-.07,1.69,1.3c-.07,.1-.15,.18-.3,.23-2.01,9.4-6.33,14.3-13.94,17.2-.27-.45-.77-1.1-1.12-1.47,7.23-2.67,11.4-7.32,13.02-15.45h-15.3v-1.72Zm18.93-4.47c1.49,0,2.71,1.22,2.71,2.75s-1.22,2.72-2.71,2.72-2.73-1.22-2.73-2.72c0-1.57,1.27-2.75,2.73-2.75Zm1.89,2.75c0-1.07-.84-1.92-1.89-1.92s-1.91,.85-1.91,1.92,.87,1.92,1.91,1.92,1.89-.92,1.89-1.92Z"/></g><g><rect class="c" x="679.24" y="459.76" width="234.94" height="101.61"/><path class="c" d="M913.94,460.11v100.91h-234.47v-100.91h234.47m.47-.7h-235.41v102.31h235.41v-102.31h0Z"/></g><g class="k"><path d="M782.79,507.45h-9.24l.48,.14c-.03,.17-.25,.31-.56,.34-.73,5.07-3.02,10.11-8.65,12.94-.31-.36-1.04-1.01-1.51-1.37,5.52-2.74,7.45-7,8.09-12.04h-10.7v-1.88h22.09v1.88Zm-4.12-7.64h-15.54v-1.88h15.54v1.88Zm.36-4.12c1.15,1.2,2.44,3.11,3.08,4.42l-1.12,.76c-.59-1.29-1.93-3.28-3.05-4.42l1.09-.76Zm3.3-.95c1.15,1.2,2.49,3.11,3.16,4.4l-1.15,.7c-.59-1.23-1.99-3.22-3.08-4.37l1.06-.73Z"/><path d="M787.5,507.17h23.38v1.99h-22.32c-.17,.28-.53,.48-.9,.53l-.17-2.52Z"/><path d="M834.93,501.18c-.03,.14-.17,.25-.34,.31-1.04,3.47-2.44,6.66-4.12,9.27,1.2,.7,2.58,1.57,3.61,2.32l-1.18,1.85c-1.01-.78-2.44-1.71-3.61-2.44-2.58,3.58-5.88,6.47-10.11,8.51-.31-.48-1.04-1.15-1.54-1.46,4.09-1.9,7.36-4.73,9.91-8.06-2.07-1.15-4.12-2.13-6.19-2.91l1.06-1.57c2.04,.73,4.14,1.68,6.3,2.83,1.46-2.3,2.6-4.73,3.39-7.42h-9.49c-1.71,2.86-4,5.68-6.47,7.7-.36-.34-1.12-.95-1.6-1.26,3.67-2.8,7.14-7.84,8.82-12.63l2.66,.62c-.11,.31-.39,.39-.76,.36-.39,.92-1.04,2.3-1.57,3.33h9.29l.39-.11,1.51,.76Z"/></g><g><rect class="e" x="912.71" y="459.76" width="69.86" height="101.66"/><path class="e" d="M982.5,460.11v100.96h-69.72v-100.96h69.72m.14-.7h-70v102.36h70v-102.36h0Z"/></g><g class="k"><path d="M926.2,520.35v-21.34h10.75v1.96h-8.43v7.59h7.76v1.93h-7.76v9.86h-2.32Z"/><path d="M954.73,519.71c-.98,.48-2.88,.95-5.32,.95-5.49,0-9.91-3.56-9.91-10.78s4.29-11.17,10.53-11.17c2.55,0,4.03,.53,4.7,.87l-.62,1.96c-.98-.48-2.35-.87-4.03-.87-4.84,0-8.15,3.25-8.15,9.13s3.02,8.9,8.01,8.9c1.62,0,3.22-.36,4.28-.87l.5,1.88Z"/><path d="M967.64,501.65c-.62-.39-1.96-.98-3.75-.98-2.97,0-4.09,1.82-4.09,3.36,0,2.1,1.29,3.16,4.14,4.37,3.44,1.46,5.21,3.22,5.21,6.27,0,3.39-2.46,5.99-7.06,5.99-1.93,0-4.03-.59-5.1-1.34l.64-1.93c1.15,.76,2.86,1.32,4.59,1.32,2.86,0,4.54-1.54,4.54-3.84,0-2.1-1.15-3.39-3.92-4.51-3.22-1.2-5.4-3.08-5.4-6.02,0-3.25,2.63-5.63,6.52-5.63,2.02,0,3.56,.5,4.37,1.01l-.7,1.93Z"/></g><g><rect class="e" x="198.32" y="460.05" width="162.67" height="101.05"/><path class="e" d="M360.83,460.4v100.35H198.48v-100.35h162.35m.33-.7H198.15v101.75h163v-101.75h0Z"/></g><g class="k"><path d="M264.39,493.39l.3-.05,1.02,.4c0,.12-.1,.2-.17,.28-1.35,7.1-5.12,11.4-9.9,13.47-.2-.4-.65-1.02-1-1.38,2.35-.9,4.47-2.5,6.15-4.77-.8-.92-2.15-2.1-3.35-2.92l1.12-.97c1.1,.7,2.3,1.67,3.15,2.52,.85-1.45,1.52-3.15,1.97-5.05h-4.4c-1.1,2.05-2.47,3.87-4.03,5.12-.27-.28-.85-.8-1.2-1.05,2.38-1.85,4.35-5.15,5.4-8.72l1.97,.57c-.05,.18-.22,.25-.52,.25-.25,.78-.55,1.55-.88,2.3h4.35Zm-7.5-4.47v3.32h-1.62v-4.87h9.52v-3.1l2.22,.15c-.03,.17-.18,.3-.5,.33v2.62h9.67v4.87h-1.7v-3.32h-17.6Zm11.6,15.47c0,.92,.22,1.1,1.47,1.1h4.4c1.08,0,1.28-.52,1.38-3.35,.4,.3,1.07,.57,1.55,.7-.23,3.3-.75,4.25-2.83,4.25h-4.65c-2.3,0-2.97-.52-2.97-2.7v-11.52h7.45l.85,.02c0,7.37-.35,7.82-.58,8.15-.47,.57-.92,.65-2.32,.65-.42,0-.9,0-1.38-.02-.02-.48-.2-1.12-.45-1.53,.95,.1,1.83,.1,2.12,.1,.32,0,.53-.03,.67-.25,.23-.33,.3-1.7,.33-5.6h-5.05v10Z"/><path d="M288.59,497.47c-.03,.17-.2,.3-.53,.33-.65,4.4-1.88,7.87-7.72,9.72-.2-.42-.65-1.07-1.03-1.42,5.45-1.55,6.65-4.65,7.07-8.87l2.2,.25Zm6.25,7.15c0,.75,.17,.87,1.17,.87h3.4c.97,0,1.15-.52,1.25-3.87,.35,.3,1.08,.58,1.55,.7-.2,3.82-.67,4.77-2.65,4.77h-3.72c-2.15,0-2.7-.52-2.7-2.5v-7.67h-13.52v-1.65h10.25v-5.3h-5.42c-.65,1.45-1.4,2.85-2.27,3.95-.38-.25-1.03-.62-1.45-.8,1.75-2.15,3.05-5.55,3.67-8.2l2.12,.5c-.08,.17-.22,.25-.55,.25-.22,.8-.5,1.72-.88,2.67h4.77v-4.05l2.2,.12c-.02,.2-.17,.33-.5,.35v3.57h8.47v1.62h-8.47v5.3h10.27v1.65h-7v7.7Z"/><path d="M225.88,535.39h-2.05l-.47-8.57c-.15-2.72-.35-6.25-.32-8.2h-.08c-.62,2.15-1.4,4.5-2.33,7.15l-3.4,9.55h-1.53l-3.17-9.35c-.92-2.75-1.65-5.15-2.17-7.35h-.08c-.05,2.32-.2,5.47-.38,8.4l-.52,8.37h-1.97l1.32-19.04h2.55l3.35,9.67c.8,2.38,1.42,4.4,1.92,6.37h.08c.47-1.92,1.12-3.92,1.97-6.37l3.47-9.67h2.6l1.2,19.04Z"/><path d="M243.22,535.39h-2.2l-2.05-6.17h-6.62l-2,6.17h-2.12l6.3-19.04h2.4l6.3,19.04Zm-4.67-7.82l-1.87-5.65c-.4-1.3-.72-2.5-.97-3.62h-.08c-.25,1.15-.6,2.35-.95,3.55l-1.9,5.72h5.77Z"/><path d="M258.5,534.81c-.88,.42-2.57,.85-4.75,.85-4.9,0-8.85-3.17-8.85-9.62s3.82-9.97,9.4-9.97c2.28,0,3.6,.47,4.2,.77l-.55,1.75c-.88-.42-2.1-.77-3.6-.77-4.32,0-7.27,2.9-7.27,8.15s2.7,7.95,7.15,7.95c1.45,0,2.87-.33,3.82-.77l.45,1.67Z"/><path d="M281.45,517.27c-.05,.1-.2,.17-.33,.22-1.35,3.2-3.5,5.97-5.92,8-.38-.33-1.07-.78-1.52-1.02,2.3-1.67,4.15-4.1,4.97-6.2h-17.89v-1.7h18.84l.27-.12,1.58,.83Zm-9.75,4.55c-.03,.2-.25,.37-.58,.42-.72,5.9-2.75,11.52-7.9,14.5-.35-.3-1-.88-1.47-1.15,5.1-2.8,6.92-8.02,7.52-14.05l2.42,.28Z"/><path d="M298.95,528.32c-2.55-1.38-6.05-3-8.77-4.07v12.47h-1.87v-21.72l2.52,.15c-.02,.28-.22,.45-.65,.53v7.35l.38-.55c2.92,1.08,6.8,2.8,9.4,4.17l-1,1.67Zm-2.62-11.77c1.15,.95,2.65,2.52,3.45,3.67l-.95,.77c-.75-1.08-2.27-2.75-3.4-3.65l.9-.8Zm3.35-2.15c1.18,.97,2.67,2.55,3.42,3.65l-.9,.77c-.78-1.07-2.3-2.72-3.42-3.65l.9-.78Z"/><path d="M309.73,533.92c6.35-1.77,11.4-4.82,14.47-10.27,.32,.42,.95,.95,1.32,1.25-3.37,5.75-8.95,9.1-16.47,11.07-.05,.2-.2,.42-.4,.5l-1.05-1.75,.3-.47v-18.42l2.57,.12c-.02,.28-.25,.5-.75,.55v17.42Z"/><path d="M345.4,517.57c-.05,.12-.17,.22-.33,.27-1.35,3.17-2.95,5.92-5,8.6,2.72,2.17,6.82,5.9,9.15,8.47l-1.52,1.32c-2.2-2.55-6.22-6.35-8.77-8.4-2.2,2.67-6,6.32-9.62,8.4-.27-.38-.88-1-1.3-1.35,6.92-3.8,12.4-10.9,14.65-16.32h-12.27v-1.7h13.25l.33-.12,1.45,.83Z"/></g><g><line class="h" x1="294" y1="400" x2="297.95" y2="400.61"/><line class="f" x1="305.98" y1="401.85" x2="671.04" y2="458.18"/><line class="h" x1="675.05" y1="458.8" x2="679" y2="459.41"/></g><g><line class="h" x1="910" y1="404" x2="909.96" y2="407.5"/><line class="j" x1="909.87" y1="414.36" x2="909.4" y2="452.07"/><line class="h" x1="909.36" y1="455.5" x2="909.32" y2="459"/></g><line class="g" x1="7.49" y1="687.5" x2="7.73" y2="562.2"/><line class="g" x1="198.5" y1="691.5" x2="198.75" y2="562.2"/><g><line class="g" x1="14.39" y1="581.5" x2="189.63" y2="581.5"/><polygon points="15.61 572.39 15.61 590.61 6.5 581.5 15.61 572.39"/><polygon points="188.41 572.39 188.41 590.61 197.52 581.5 188.41 572.39"/></g><line class="g" x1="360.76" y1="608.21" x2="360.73" y2="562.07"/><line class="g" x1="524.76" y1="608.21" x2="524.73" y2="562.07"/><line class="g" x1="678.76" y1="608.21" x2="678.73" y2="562.07"/><line class="g" x1="912.76" y1="606.21" x2="912.73" y2="560.07"/><line class="g" x1="983.5" y1="694.5" x2="983.73" y2="560.07"/><g><line class="g" x1="206.45" y1="581.53" x2="353.63" y2="582.07"/><polygon points="207.7 572.42 207.64 590.64 198.56 581.5 207.7 572.42"/><polygon points="352.44 572.95 352.37 591.17 361.52 582.1 352.44 572.95"/></g><g><line class="g" x1="367.45" y1="581.53" x2="519.61" y2="582.06"/><polygon points="368.7 572.42 368.64 590.64 359.56 581.5 368.7 572.42"/><polygon points="518.42 572.95 518.36 591.17 527.5 582.09 518.42 572.95"/></g><g><line class="g" x1="531.45" y1="581.53" x2="672.63" y2="582.07"/><polygon points="532.71 572.42 532.64 590.65 523.56 581.5 532.71 572.42"/><polygon points="671.44 572.95 671.37 591.17 680.52 582.1 671.44 572.95"/></g><g><line class="g" x1="686.46" y1="581.52" x2="904.64" y2="582.08"/><polygon points="687.7 572.41 687.66 590.63 678.57 581.5 687.7 572.41"/><polygon points="903.44 572.96 903.39 591.18 912.52 582.1 903.44 572.96"/></g><g><line class="g" x1="920.44" y1="581.57" x2="974.62" y2="582.03"/><polygon points="921.74 572.47 921.59 590.69 912.56 581.5 921.74 572.47"/><polygon points="973.48 572.91 973.32 591.13 982.51 582.1 973.48 572.91"/></g><g class="k"><path d="M65.79,615.04c-2.02-.97-2.92-2.62-2.92-4.22,0-2.9,2.28-4.87,5.3-4.87,3.4,0,5.02,2.3,5.02,4.55,0,1.6-.85,3.35-3.07,4.42v.1c2.3,.97,3.72,2.65,3.72,4.9,0,3.17-2.6,5.35-5.9,5.35-3.57,0-5.77-2.27-5.77-4.97,0-2.42,1.45-4.17,3.62-5.15v-.1Zm5.92,5.1c0-2.35-1.58-3.55-4.05-4.35-2.2,.72-3.37,2.32-3.37,4.17,0,2.12,1.42,3.75,3.67,3.75,2.4,0,3.75-1.62,3.75-3.57Zm-6.87-9.52c-.02,2,1.4,3.1,3.47,3.72,1.62-.62,2.85-1.9,2.85-3.67,0-1.57-.88-3.2-3.07-3.2s-3.25,1.53-3.25,3.15Z"/><path d="M84.27,608.47c-.07,.2-.28,.35-.65,.38-1,6-3.07,12.32-6,16.02-.45-.35-1.12-.67-1.67-.9,2.8-3.4,5-9.75,5.8-16.02l2.52,.52Zm12.57,16.25c-1.17-4.37-4.07-11.47-6.65-16.1l1.62-.78c2.62,4.47,5.55,11.52,6.85,16.15l-1.82,.72Zm-3.62-20.09c1.15,1.02,2.37,2.57,3.05,3.7l-.95,.7c-.7-1.12-2-2.75-3.05-3.7l.95-.7Zm3.3-1.3c1.12,1.05,2.37,2.55,3.07,3.67l-.97,.72c-.7-1.12-2-2.72-3.05-3.67l.95-.72Z"/><path d="M121.49,606.17c-.1,.12-.25,.2-.47,.2-.08,0-.15,0-.25-.02-1.92,1.95-4.7,4.22-7.12,5.97,.2,.07,.5,.22,.6,.27-.05,.15-.28,.3-.55,.33v13.42h-1.82v-12.85c-2.65,1.88-6.1,3.9-9.52,5.57-.25-.4-.7-1.02-1.05-1.38,6.82-3.15,14.3-8.5,18.32-12.92l1.88,1.4Z"/><path d="M139.17,617.87c-2.55-1.37-6.05-3-8.77-4.07v12.5h-1.88v-21.72l2.53,.15c-.03,.28-.23,.45-.65,.53v7.3l.38-.53c2.92,1.08,6.8,2.8,9.4,4.17l-1,1.67Z"/></g><g class="k"><path d="M243.24,615.04c.85-1.25,2.38-2.3,4.37-2.3,3.17,0,5.3,2.37,5.3,5.97s-2.1,6.55-5.75,6.55-6.1-3.02-6.1-7.87,2.35-10.27,8.42-11.27c.7-.1,1.33-.17,1.75-.17l.03,1.72c-5.2,0-7.67,3.77-8.1,7.37h.07Zm7.57,3.82c0-2.87-1.55-4.55-3.8-4.55s-3.87,2.15-3.87,3.55c.03,3.42,1.47,5.77,4.07,5.77,2.17,0,3.6-1.95,3.6-4.77Z"/><path d="M263.27,608.47c-.07,.2-.28,.35-.65,.38-1,6-3.07,12.32-6,16.02-.45-.35-1.12-.67-1.67-.9,2.8-3.4,5-9.75,5.8-16.02l2.52,.52Zm12.57,16.25c-1.17-4.37-4.07-11.47-6.65-16.1l1.62-.78c2.62,4.47,5.55,11.52,6.85,16.15l-1.82,.72Zm-3.62-20.09c1.15,1.02,2.37,2.57,3.05,3.7l-.95,.7c-.7-1.12-2-2.75-3.05-3.7l.95-.7Zm3.3-1.3c1.12,1.05,2.37,2.55,3.07,3.67l-.97,.72c-.7-1.12-2-2.72-3.05-3.67l.95-.72Z"/><path d="M300.49,606.17c-.1,.12-.25,.2-.47,.2-.08,0-.15,0-.25-.02-1.92,1.95-4.7,4.22-7.12,5.97,.2,.07,.5,.22,.6,.27-.05,.15-.28,.3-.55,.33v13.42h-1.82v-12.85c-2.65,1.88-6.1,3.9-9.52,5.57-.25-.4-.7-1.02-1.05-1.38,6.82-3.15,14.3-8.5,18.32-12.92l1.88,1.4Z"/><path d="M318.17,617.87c-2.55-1.37-6.05-3-8.77-4.07v12.5h-1.88v-21.72l2.53,.15c-.03,.28-.23,.45-.65,.53v7.3l.38-.53c2.92,1.08,6.8,2.8,9.4,4.17l-1,1.67Z"/></g><g class="k"><path d="M410.24,615.04c.85-1.25,2.38-2.3,4.37-2.3,3.17,0,5.3,2.37,5.3,5.97s-2.1,6.55-5.75,6.55-6.1-3.02-6.1-7.87,2.35-10.27,8.42-11.27c.7-.1,1.33-.17,1.75-.17l.03,1.72c-5.2,0-7.67,3.77-8.1,7.37h.07Zm7.57,3.82c0-2.87-1.55-4.55-3.8-4.55s-3.87,2.15-3.87,3.55c.03,3.42,1.47,5.77,4.07,5.77,2.17,0,3.6-1.95,3.6-4.77Z"/><path d="M430.27,608.47c-.07,.2-.28,.35-.65,.38-1,6-3.07,12.32-6,16.02-.45-.35-1.12-.67-1.67-.9,2.8-3.4,5-9.75,5.8-16.02l2.52,.52Zm12.57,16.25c-1.17-4.37-4.07-11.47-6.65-16.1l1.62-.78c2.62,4.47,5.55,11.52,6.85,16.15l-1.82,.72Zm-3.62-20.09c1.15,1.02,2.37,2.57,3.05,3.7l-.95,.7c-.7-1.12-2-2.75-3.05-3.7l.95-.7Zm3.3-1.3c1.12,1.05,2.37,2.55,3.07,3.67l-.97,.72c-.7-1.12-2-2.72-3.05-3.67l.95-.72Z"/><path d="M467.49,606.17c-.1,.12-.25,.2-.47,.2-.08,0-.15,0-.25-.02-1.92,1.95-4.7,4.22-7.12,5.97,.2,.07,.5,.22,.6,.27-.05,.15-.28,.3-.55,.33v13.42h-1.82v-12.85c-2.65,1.88-6.1,3.9-9.52,5.57-.25-.4-.7-1.02-1.05-1.38,6.82-3.15,14.3-8.5,18.32-12.92l1.88,1.4Z"/><path d="M485.17,617.87c-2.55-1.37-6.05-3-8.77-4.07v12.5h-1.88v-21.72l2.53,.15c-.03,.28-.23,.45-.65,.53v7.3l.38-.53c2.92,1.08,6.8,2.8,9.4,4.17l-1,1.67Z"/></g><g class="k"><path d="M572.39,624.96h-11.07v-1.27l1.82-1.92c4.45-4.5,6.7-7.22,6.7-10.27,0-2-.87-3.85-3.57-3.85-1.5,0-2.85,.82-3.75,1.55l-.7-1.45c1.15-1.02,2.85-1.82,4.85-1.82,3.78,0,5.27,2.75,5.27,5.32,0,3.52-2.47,6.52-6.35,10.42l-1.47,1.55v.05h8.27v1.7Z"/><path d="M583.27,608.47c-.07,.2-.28,.35-.65,.38-1,6-3.07,12.32-6,16.02-.45-.35-1.12-.67-1.67-.9,2.8-3.4,5-9.75,5.8-16.02l2.52,.52Zm12.57,16.25c-1.17-4.37-4.07-11.47-6.65-16.1l1.62-.78c2.62,4.47,5.55,11.52,6.85,16.15l-1.82,.72Zm-3.62-20.09c1.15,1.02,2.37,2.57,3.05,3.7l-.95,.7c-.7-1.12-2-2.75-3.05-3.7l.95-.7Zm3.3-1.3c1.12,1.05,2.37,2.55,3.07,3.67l-.97,.72c-.7-1.12-2-2.72-3.05-3.67l.95-.72Z"/><path d="M620.49,606.17c-.1,.12-.25,.2-.47,.2-.08,0-.15,0-.25-.02-1.92,1.95-4.7,4.22-7.12,5.97,.2,.07,.5,.22,.6,.27-.05,.15-.28,.3-.55,.33v13.42h-1.82v-12.85c-2.65,1.88-6.1,3.9-9.52,5.57-.25-.4-.7-1.02-1.05-1.38,6.82-3.15,14.3-8.5,18.32-12.92l1.88,1.4Z"/><path d="M638.17,617.87c-2.55-1.37-6.05-3-8.77-4.07v12.5h-1.88v-21.72l2.53,.15c-.03,.28-.23,.45-.65,.53v7.3l.38-.53c2.92,1.08,6.8,2.8,9.4,4.17l-1,1.67Z"/></g><g class="k"><path d="M726.88,624.96h-1.97v-5.25h-8.17v-1.32l8-12.15h2.15v11.87h2.55v1.6h-2.55v5.25Zm-8.05-6.85h6.07v-6.65c0-1.02,.05-2.02,.1-3h-.1c-.58,1.15-1.03,1.95-1.5,2.8l-4.57,6.8v.05Z"/><path d="M733.16,615.04c.85-1.25,2.37-2.3,4.37-2.3,3.17,0,5.3,2.37,5.3,5.97s-2.1,6.55-5.75,6.55-6.1-3.02-6.1-7.87,2.35-10.27,8.42-11.27c.7-.1,1.32-.17,1.75-.17l.02,1.72c-5.2,0-7.67,3.77-8.1,7.37h.08Zm7.57,3.82c0-2.87-1.55-4.55-3.8-4.55s-3.88,2.15-3.88,3.55c.03,3.42,1.47,5.77,4.07,5.77,2.17,0,3.6-1.95,3.6-4.77Z"/><path d="M759.1,614.94c.15,2.92-1.37,4.02-3.1,4.02-1.05,0-2.05-.33-4.02-1.23-1.35-.65-2.47-1.25-3.52-1.25s-1.68,.8-1.7,2.4h-1.47c-.1-2.6,1.33-4.02,3.22-4.02,1.1,0,2.05,.38,3.95,1.25,1.45,.67,2.57,1.2,3.62,1.2s1.57-.9,1.57-2.37h1.45Z"/><path d="M767.13,624.96v-16.77h-.05l-3.07,1.77-.5-1.55,3.87-2.17h1.77v18.72h-2.02Z"/><path d="M786.03,606.24v1.72h-6.72l-.78,5.3c.4-.05,.8-.1,1.45-.1,3.32,0,6.3,1.97,6.3,5.75s-2.75,6.35-6.45,6.35c-1.87,0-3.45-.55-4.3-1.1l.6-1.62c.7,.48,2.08,1.05,3.7,1.05,2.35,0,4.37-1.72,4.35-4.42,0-2.57-1.65-4.37-5.15-4.37-1,0-1.78,.08-2.4,.17l1.17-8.72h8.22Z"/><path d="M789.18,615.67c0-6.55,2.55-9.72,6.05-9.72s5.72,3.35,5.72,9.47c0,6.5-2.27,9.85-6,9.85-3.4,0-5.77-3.35-5.77-9.6Zm9.67-.15c0-4.67-1.12-7.9-3.75-7.9-2.22,0-3.8,2.97-3.8,7.9s1.38,8.05,3.72,8.05c2.77,0,3.82-3.6,3.82-8.05Z"/><path d="M802.96,615.67c0-6.55,2.55-9.72,6.05-9.72s5.72,3.35,5.72,9.47c0,6.5-2.27,9.85-6,9.85-3.4,0-5.77-3.35-5.77-9.6Zm9.67-.15c0-4.67-1.12-7.9-3.75-7.9-2.22,0-3.8,2.97-3.8,7.9s1.38,8.05,3.72,8.05c2.78,0,3.82-3.6,3.82-8.05Z"/><path d="M825.13,608.47c-.07,.2-.27,.35-.65,.38-1,6-3.07,12.32-6,16.02-.45-.35-1.12-.67-1.67-.9,2.8-3.4,5-9.75,5.8-16.02l2.52,.52Zm12.57,16.25c-1.17-4.37-4.07-11.47-6.65-16.1l1.62-.78c2.62,4.47,5.55,11.52,6.85,16.15l-1.82,.72Zm-3.62-20.09c1.15,1.02,2.37,2.57,3.05,3.7l-.95,.7c-.7-1.12-2-2.75-3.05-3.7l.95-.7Zm3.3-1.3c1.12,1.05,2.37,2.55,3.07,3.67l-.97,.72c-.7-1.12-2-2.72-3.05-3.67l.95-.72Z"/><path d="M862.35,606.17c-.1,.12-.25,.2-.47,.2-.07,0-.15,0-.25-.02-1.92,1.95-4.7,4.22-7.12,5.97,.2,.07,.5,.22,.6,.27-.05,.15-.28,.3-.55,.33v13.42h-1.82v-12.85c-2.65,1.88-6.1,3.9-9.52,5.57-.25-.4-.7-1.02-1.05-1.38,6.82-3.15,14.3-8.5,18.32-12.92l1.87,1.4Z"/><path d="M880.03,617.87c-2.55-1.37-6.05-3-8.77-4.07v12.5h-1.87v-21.72l2.52,.15c-.03,.28-.22,.45-.65,.53v7.3l.38-.53c2.92,1.08,6.8,2.8,9.4,4.17l-1,1.67Z"/></g><g class="k"><path d="M922.67,624.96h-1.7v-4.83h-7.02v-1.22l6.87-11.18h1.85v10.92h2.19v1.47h-2.19v4.83Zm-6.91-6.3h5.21v-6.12c0-.94,.04-1.86,.09-2.76h-.09c-.49,1.06-.88,1.79-1.29,2.58l-3.93,6.25v.05Z"/><path d="M933.41,609.79c-.06,.18-.24,.32-.56,.34-.86,5.52-2.64,11.34-5.15,14.74-.39-.32-.97-.62-1.44-.83,2.4-3.13,4.29-8.97,4.98-14.74l2.17,.48Zm10.79,14.95c-1.01-4.02-3.5-10.55-5.71-14.81l1.39-.71c2.25,4.12,4.76,10.6,5.88,14.86l-1.57,.67Zm-3.11-18.49c.99,.94,2.04,2.37,2.62,3.4l-.82,.64c-.6-1.04-1.72-2.53-2.62-3.4l.82-.64Zm2.83-1.2c.97,.97,2.04,2.35,2.64,3.38l-.84,.67c-.6-1.04-1.72-2.51-2.62-3.38l.82-.67Z"/><path d="M965.36,607.67c-.09,.11-.21,.18-.41,.18-.06,0-.13,0-.21-.02-1.65,1.79-4.03,3.89-6.11,5.5,.17,.07,.43,.21,.51,.25-.04,.14-.24,.28-.47,.3v12.35h-1.57v-11.82c-2.27,1.72-5.23,3.59-8.17,5.13-.21-.37-.6-.94-.9-1.26,5.86-2.9,12.27-7.82,15.73-11.89l1.61,1.29Z"/><path d="M980.53,618.43c-2.19-1.26-5.19-2.76-7.53-3.75v11.5h-1.61v-19.98l2.17,.14c-.02,.25-.19,.41-.56,.48v6.71l.32-.48c2.51,.99,5.84,2.58,8.07,3.84l-.86,1.54Z"/></g><g><line class="g" x1="14.12" y1="655.2" x2="189.37" y2="655.21"/><polygon points="15.35 646.09 15.35 664.31 6.24 655.2 15.35 646.09"/><polygon points="188.15 646.09 188.15 664.32 197.25 655.21 188.15 646.09"/></g><g class="k"><path d="M50.03,684.74l-3.52,.78v8.57h-1.65v-8.2c-1.37,.3-2.62,.57-3.62,.77-.03,.17-.15,.33-.32,.38l-.65-1.92c1.25-.2,2.85-.5,4.6-.85v-6.45h-2.47c-.25,1.5-.55,2.87-.93,3.92-.32-.22-.88-.52-1.25-.7,.7-2.03,1.08-5.52,1.33-8.8l1.95,.42c-.05,.17-.23,.25-.53,.27-.08,1.05-.2,2.17-.32,3.25h2.22v-5.3l2.12,.12c-.02,.18-.15,.3-.47,.35v4.82h3.17v1.62h-3.17v6.15l3.38-.67,.15,1.45Zm11.92-8.95l.9,.08c0,.15-.02,.4-.05,.57-.48,11.7-.9,15.55-1.85,16.72-.48,.68-1,.95-2.65,.95-.55,0-1.17-.03-1.8-.05-.03-.5-.2-1.22-.47-1.67,1.12,.08,2.12,.1,2.57,.1,.42,0,.65-.07,.9-.42,.73-.85,1.22-4.5,1.62-14.67h-1.95c-.72,6.05-2.45,13.17-5.12,16.72-.35-.27-.97-.65-1.45-.83,2.75-3.3,4.42-10,5.17-15.9h-2.15c-.95,5.12-2.88,11.2-5.37,14.3-.38-.3-1-.62-1.5-.82,2.52-2.85,4.45-8.47,5.4-13.47h-2c-.65,2.12-1.47,4.05-2.45,5.5-.27-.27-.9-.7-1.27-.95,1.72-2.47,2.92-6.8,3.57-11.15l2.07,.45c-.05,.17-.22,.27-.55,.27-.25,1.45-.55,2.9-.92,4.3h8.95l.4-.02Z"/><path d="M70.38,681.27v6.2l3.4-1c.02,.15,.05,.3,.2,1.45-2.9,.92-5.97,1.92-7.9,2.5-.02,.2-.17,.33-.32,.38l-.68-1.85c1.03-.25,2.28-.6,3.67-1v-6.67h-3.1v-1.58h3.1v-5.62h-3.35v-1.6h8.25v1.6h-3.28v5.62h3.03v1.58h-3.03Zm11.35,10.47h7v1.55h-16.07v-1.55h7.5v-3.87h-5.85v-1.53h5.85v-2.92h-5.7v-11.1h13.12v11.1h-5.85v2.92h6.2v1.53h-6.2v3.87Zm-5.75-17.95v3.35h4.17v-3.35h-4.17Zm0,8.15h4.17v-3.4h-4.17v3.4Zm10.02-4.8v-3.35h-4.27v3.35h4.27Zm0,4.8v-3.4h-4.27v3.4h4.27Z"/><path d="M90.16,683.92c1.9-2,5.57-6.12,7-7.65,.82-.82,1.47-1.22,2.22-1.22,.85,0,1.42,.45,2.4,1.33,2.95,2.67,7.9,8.15,11.8,13.05l-1.5,1.38c-3.7-4.87-8.7-10.6-11.2-12.9-.6-.6-.95-.97-1.42-.97-.32,0-.75,.37-1.3,.9-1.18,1.27-4.55,5.2-6.22,7,.03,.05,.03,.12,.03,.17,0,.2-.1,.4-.25,.53l-1.55-1.6Z"/><path d="M118.01,678.27c.75,1.52,1.58,3.92,1.87,5.37l-1.4,.38c-.3-1.45-1.08-3.72-1.83-5.32l1.35-.42Zm14.92,.17c-.05,.22-.3,.27-.52,.25-1.95,7.3-5.62,11.77-11.67,14.22-.2-.3-.65-.88-.98-1.15,5.97-2.35,9.4-6.45,11.22-13.9l1.95,.58Zm-8.85-1.38c.53,1.67,1,4.07,1.18,5.67l-1.47,.27c-.15-1.6-.62-3.9-1.18-5.62l1.47-.33Z"/><path d="M154.25,675.92c-.03,.15-.15,.2-.3,.27-.9,3.02-2.1,5.85-3.62,8.25,1.08,.62,2.4,1.4,3.32,2.05l-1.05,1.62c-.9-.7-2.27-1.53-3.32-2.15-2.3,3.17-5.17,5.72-8.97,7.5-.25-.42-.9-1.03-1.35-1.33,3.65-1.65,6.5-4.07,8.77-7.07-1.85-1.02-3.77-1.95-5.6-2.62l.97-1.38c1.83,.67,3.78,1.55,5.67,2.55,1.28-1.95,2.32-4.35,3-6.62h-8.25c-1.6,2.7-3.57,5.15-5.62,6.82-.3-.3-1-.85-1.4-1.12,3.25-2.5,6.12-6.87,7.62-11.15l2.32,.67c-.1,.27-.4,.35-.7,.33-.35,.9-.8,1.87-1.28,2.77h8.1l.23-.08,1.45,.67Zm-2.3-4.97c1.17,.92,2.57,2.42,3.32,3.5l-.95,.77c-.7-1-2.17-2.62-3.27-3.5l.9-.77Zm3.2-.92c1.17,.92,2.65,2.4,3.4,3.45l-.97,.75c-.68-1.02-2.22-2.57-3.3-3.42l.88-.77Z"/></g><g><line class="g" x1="205.12" y1="656.2" x2="973.61" y2="656.5"/><polygon points="206.35 647.09 206.34 665.31 197.24 656.2 206.35 647.09"/><polygon points="972.4 647.38 972.39 665.61 981.5 656.5 972.4 647.38"/></g><g class="k"><path d="M508.64,690.01h-10.05v-19.04h9.62v1.75h-7.55v6.45h7.1v1.72h-7.1v7.37h7.97v1.75Z"/><path d="M512.2,673.92l2.05-.7v3.17h3.52v1.62h-3.52v7.87c0,1.72,.53,2.67,1.85,2.67,.62,0,1.05-.08,1.4-.2l.12,1.6c-.45,.2-1.15,.33-2.03,.33-3.3,0-3.4-3-3.4-4.45v-7.82h-2.1v-1.62h2.1v-2.47Z"/><path d="M531.39,690.01h-2.07v-8.05c0-2.22-.8-4.15-3.15-4.15-1.6,0-3.6,1.33-3.6,3.82v8.37h-2.08v-20h2.08v8.47h.05c.9-1.5,2.55-2.42,4.22-2.42s4.55,1.02,4.55,5.65v8.3Z"/><path d="M545.07,689.44c-.77,.38-2.2,.85-4.27,.85-3.97,0-6.35-2.8-6.35-6.87,0-4.27,2.4-7.35,6.07-7.35,4.2,0,5.27,3.85,5.27,6.22,0,.47-.02,.82-.05,1.15h-9.27c.03,3.77,2.18,5.2,4.62,5.2,1.7,0,2.72-.35,3.57-.7l.4,1.5Zm-1.33-7.55c.03-1.85-.75-4.25-3.42-4.25-2.5,0-3.6,2.37-3.8,4.25h7.22Z"/><path d="M555.12,678.14c-.22-.03-.45-.05-.75-.05-2.25,0-3.4,2.22-3.4,4.52v7.4h-2.07v-9.55c0-1.45-.03-2.77-.1-4.07h1.82l.1,2.62h.08c.6-1.7,2.02-2.92,3.7-2.92,.23,0,.4,.05,.62,.08v1.97Z"/><path d="M568.44,690.01h-2.07v-8.05c0-2.22-.8-4.17-3.17-4.17-1.77,0-3.57,1.5-3.57,3.87v8.35h-2.08v-10.12c0-1.4-.05-2.42-.1-3.52h1.85l.12,2.22h.05c.67-1.33,2.25-2.52,4.37-2.52,1.7,0,4.6,1.02,4.6,5.65v8.3Z"/><path d="M582.12,689.44c-.77,.38-2.2,.85-4.27,.85-3.97,0-6.35-2.8-6.35-6.87,0-4.27,2.4-7.35,6.07-7.35,4.2,0,5.27,3.85,5.27,6.22,0,.47-.02,.82-.05,1.15h-9.27c.03,3.77,2.18,5.2,4.62,5.2,1.7,0,2.72-.35,3.57-.7l.4,1.5Zm-1.33-7.55c.03-1.85-.75-4.25-3.42-4.25-2.5,0-3.6,2.37-3.8,4.25h7.22Z"/><path d="M586.49,673.92l2.05-.7v3.17h3.52v1.62h-3.52v7.87c0,1.72,.52,2.67,1.85,2.67,.62,0,1.05-.08,1.4-.2l.12,1.6c-.45,.2-1.15,.33-2.02,.33-3.3,0-3.4-3-3.4-4.45v-7.82h-2.1v-1.62h2.1v-2.47Z"/><path d="M613.51,672.82c-.08,.12-.18,.22-.33,.27-1.97,9.47-6.87,15.1-15.05,17.97-.28-.42-.83-1.1-1.15-1.45,7.75-2.52,12.5-8.1,14-15.67h-16.35v-1.67h17l.35-.22,1.53,.78Z"/><path d="M621.32,688.54c6.35-1.77,11.4-4.82,14.47-10.27,.32,.42,.95,.95,1.32,1.25-3.37,5.75-8.95,9.1-16.47,11.07-.05,.2-.2,.42-.4,.5l-1.05-1.75,.3-.47v-18.42l2.57,.12c-.02,.28-.25,.5-.75,.55v17.42Z"/><path d="M640.67,679.19h20.87v1.77h-19.92c-.15,.25-.48,.42-.8,.47l-.15-2.25Z"/><path d="M684.74,690.74c-.38-.85-.83-1.75-1.33-2.65-5.2,.55-13.75,1.08-17.57,1.28-.07,.25-.25,.45-.47,.5l-.67-2.25c.75-.03,1.65-.05,2.62-.1,1.65-4.8,4.02-12.27,5.4-17.27l2.42,.65c-.1,.22-.35,.35-.72,.35-1.38,4.6-3.52,11.3-5.25,16.2,4.15-.17,10.07-.6,13.37-.9-1.3-2.15-2.95-4.42-4.45-6.1l1.5-.85c2.62,2.88,5.62,7.62,6.9,10.35l-1.75,.8Z"/></g></svg>