<?xml version="1.0" encoding="UTF-8"?><svg id="a" xmlns="http://www.w3.org/2000/svg" width="1025" height="769" viewBox="0 0 1025 769"><defs><style>.b{fill:#ffb499;stroke-width:.75px;}.b,.c,.d,.e,.f,.g,.h,.i,.j,.k{stroke:#000;stroke-miterlimit:10;}.c{fill:#ffb484;}.d{fill:#e1ffc9;}.d,.e,.g,.j{stroke-width:.5px;}.l{fill:#fff;}.e{fill:#fff1bf;}.f,.h,.i{fill:none;}.m{isolation:isolate;}.g{fill:#d4eeff;}.h{stroke-width:3px;}.i{stroke-width:2px;}.j{fill:#ffb48a;}.k{fill:#ffc68a;}</style></defs><g><rect class="g" x="10.28" y="70.11" width="282.43" height="73.64"/><path class="g" d="M292.43,70.36v73.13H10.57V70.36H292.43m.57-.51H10v74.15H293V69.85h0Z"/></g><g class="m"><path d="M65.69,95.97c-.11,.14-.28,.22-.53,.22-.08,0-.17,0-.28-.03-2.16,2.19-5.26,4.73-7.98,6.69,.22,.08,.56,.25,.67,.31-.06,.17-.31,.34-.62,.37v15.04h-2.04v-14.39c-2.97,2.1-6.83,4.37-10.67,6.24-.28-.45-.78-1.15-1.18-1.54,7.64-3.53,16.02-9.52,20.52-14.48l2.1,1.57Z"/><path d="M69.38,104.9h23.38v1.99h-22.32c-.17,.28-.53,.48-.9,.53l-.17-2.52Z"/><path d="M120.82,102.58h-5.85v1.93c0,5.35-1.65,10.78-8.96,14.08-.36-.45-.95-1.01-1.46-1.4,7.11-3.08,8.43-8.06,8.43-12.66v-1.96h-9.04v6.97h-1.99v-6.97h-5.49v-1.9h5.49v-6.08l2.69,.17c-.03,.28-.28,.53-.7,.59v5.32h9.04v-6.44l2.69,.17c-.03,.25-.25,.48-.7,.53v5.74h5.85v1.9Z"/><path d="M144.76,100.73c-.08,.14-.25,.22-.5,.25-1.79,2.24-4.2,4.65-6.78,6.64l.45,.11c-.06,.14-.25,.37-.62,.39v10.67h-1.99v-9.72c-2.86,1.96-6.55,3.95-10,5.32-.14-.2-1.06-1.34-1.29-1.57,6.78-2.52,13.22-6.69,17.05-11.17h-14.17v-1.82h16.04l.31-.2,1.48,1.09Zm-4.62-2.18c-2.44-1.29-6.24-2.55-9.21-3.39l.92-1.62c3,.73,6.78,2.07,9.32,3.3l-1.04,1.71Zm.2,8.99c2.8,1.46,6.16,3.56,8.18,5.15l-1.43,1.51c-1.88-1.57-5.35-3.84-8.04-5.26l1.29-1.4Z"/><path d="M154.2,101.68c.84,1.71,1.76,4.39,2.1,6.02l-1.57,.42c-.34-1.62-1.21-4.17-2.04-5.96l1.51-.47Zm16.72,.2c-.06,.25-.34,.31-.59,.28-2.18,8.18-6.3,13.19-13.08,15.93-.22-.34-.73-.98-1.09-1.29,6.69-2.63,10.53-7.22,12.57-15.57l2.18,.64Zm-9.91-1.54c.59,1.88,1.12,4.56,1.32,6.36l-1.65,.31c-.17-1.79-.7-4.37-1.32-6.3l1.65-.36Z"/><path d="M191.33,109.07c-2.86-1.54-6.78-3.36-9.83-4.56v14h-2.1v-24.33l2.83,.17c-.03,.31-.25,.5-.73,.59v8.18l.42-.59c3.28,1.2,7.62,3.13,10.53,4.68l-1.12,1.88Z"/><path d="M196.37,108.01c2.13-2.24,6.24-6.86,7.84-8.57,.92-.92,1.65-1.37,2.49-1.37,.95,0,1.6,.5,2.69,1.48,3.3,3,8.85,9.13,13.21,14.62l-1.68,1.54c-4.14-5.46-9.74-11.87-12.54-14.45-.67-.67-1.06-1.09-1.6-1.09-.36,0-.84,.42-1.46,1.01-1.32,1.43-5.1,5.82-6.97,7.84,.03,.05,.03,.14,.03,.2,0,.22-.11,.45-.28,.59l-1.74-1.79Z"/><path d="M227.56,101.68c.84,1.71,1.76,4.39,2.1,6.02l-1.57,.42c-.34-1.62-1.2-4.17-2.04-5.96l1.51-.47Zm16.72,.2c-.06,.25-.34,.31-.59,.28-2.18,8.18-6.3,13.19-13.08,15.93-.22-.34-.73-.98-1.09-1.29,6.69-2.63,10.53-7.22,12.57-15.57l2.18,.64Zm-9.91-1.54c.59,1.88,1.12,4.56,1.32,6.36l-1.65,.31c-.17-1.79-.7-4.37-1.32-6.3l1.65-.36Z"/><path d="M268.16,99.05c-.03,.17-.17,.22-.34,.31-1.01,3.39-2.35,6.55-4.06,9.24,1.2,.7,2.69,1.57,3.72,2.29l-1.18,1.82c-1.01-.78-2.55-1.71-3.72-2.41-2.58,3.56-5.8,6.41-10.05,8.4-.28-.48-1.01-1.15-1.51-1.48,4.09-1.85,7.28-4.56,9.83-7.92-2.07-1.15-4.23-2.18-6.27-2.94l1.09-1.54c2.04,.76,4.23,1.74,6.36,2.86,1.43-2.19,2.6-4.87,3.36-7.42h-9.24c-1.79,3.02-4,5.77-6.3,7.64-.34-.34-1.12-.95-1.57-1.26,3.64-2.8,6.86-7.7,8.54-12.49l2.6,.76c-.11,.31-.45,.39-.78,.37-.39,1.01-.9,2.1-1.43,3.11h9.07l.25-.08,1.62,.76Zm-2.58-5.57c1.32,1.04,2.88,2.72,3.72,3.92l-1.06,.87c-.78-1.12-2.44-2.94-3.67-3.92l1.01-.87Zm3.58-1.04c1.32,1.04,2.97,2.69,3.81,3.86l-1.09,.84c-.76-1.15-2.49-2.88-3.7-3.84l.98-.87Z"/></g><g><rect class="d" x="575.21" y="70.25" width="206.58" height="73.6"/><path class="d" d="M781.58,70.51v73.1h-206.17V70.51h206.17m.42-.51h-207v74.11h207V70h0Z"/></g><g class="m"><path d="M632.17,96.68h-6.3v19.35h-2.32v-19.35h-6.27v-1.96h14.9v1.96Z"/><path d="M648.49,115.38c-.98,.48-2.88,.95-5.32,.95-5.49,0-9.91-3.56-9.91-10.78s4.29-11.17,10.53-11.17c2.55,0,4.03,.53,4.7,.87l-.62,1.96c-.98-.48-2.35-.87-4.03-.87-4.84,0-8.15,3.25-8.15,9.13s3.02,8.9,8.01,8.9c1.62,0,3.22-.36,4.28-.87l.5,1.88Z"/><path d="M651.88,94.97c1.23-.22,2.86-.42,4.84-.42,6.89,0,7.45,4.42,7.45,6.1,0,5.01-4,6.8-7.78,6.8-.81,0-1.54-.03-2.18-.2v8.76h-2.32v-21.06Zm2.32,10.36c.59,.17,1.34,.22,2.24,.22,3.36,0,5.4-1.68,5.4-4.73s-2.18-4.4-5.1-4.4c-1.18,0-2.04,.11-2.55,.22v8.68Z"/><path d="M666.36,107.01c2.13-2.24,6.24-6.86,7.84-8.57,.92-.92,1.65-1.37,2.49-1.37,.95,0,1.6,.5,2.69,1.48,3.3,3,8.85,9.13,13.22,14.62l-1.68,1.54c-4.14-5.46-9.74-11.87-12.54-14.45-.67-.67-1.06-1.09-1.6-1.09-.36,0-.84,.42-1.46,1.01-1.32,1.43-5.1,5.82-6.97,7.84,.03,.06,.03,.14,.03,.2,0,.22-.11,.45-.28,.59l-1.74-1.79Z"/><path d="M697.55,100.68c.84,1.71,1.76,4.4,2.1,6.02l-1.57,.42c-.34-1.62-1.21-4.17-2.04-5.96l1.51-.48Zm16.72,.2c-.06,.25-.34,.31-.59,.28-2.18,8.18-6.3,13.19-13.08,15.93-.22-.34-.73-.98-1.09-1.29,6.69-2.63,10.53-7.22,12.57-15.57l2.18,.64Zm-9.91-1.54c.59,1.88,1.12,4.56,1.32,6.36l-1.65,.31c-.17-1.79-.7-4.37-1.32-6.3l1.65-.36Z"/><path d="M738.15,98.05c-.03,.17-.17,.22-.34,.31-1.01,3.39-2.35,6.55-4.06,9.24,1.2,.7,2.69,1.57,3.72,2.3l-1.18,1.82c-1.01-.78-2.55-1.71-3.72-2.41-2.58,3.56-5.8,6.41-10.05,8.4-.28-.48-1.01-1.15-1.51-1.48,4.09-1.85,7.28-4.56,9.83-7.92-2.07-1.15-4.23-2.18-6.27-2.94l1.09-1.54c2.04,.76,4.23,1.74,6.36,2.86,1.43-2.18,2.6-4.87,3.36-7.42h-9.24c-1.79,3.02-4,5.77-6.3,7.64-.34-.34-1.12-.95-1.57-1.26,3.64-2.8,6.86-7.7,8.54-12.49l2.6,.76c-.11,.31-.45,.39-.78,.36-.39,1.01-.9,2.1-1.43,3.11h9.07l.25-.08,1.62,.76Zm-2.58-5.57c1.32,1.04,2.88,2.72,3.72,3.92l-1.06,.87c-.79-1.12-2.44-2.94-3.67-3.92l1.01-.87Zm3.58-1.04c1.32,1.04,2.97,2.69,3.81,3.86l-1.09,.84c-.76-1.15-2.49-2.88-3.7-3.84l.98-.87Z"/></g><g><rect class="j" x="293.28" y="70.25" width="281.43" height="73.6"/><path class="j" d="M574.43,70.51v73.1H293.57V70.51h280.87m.57-.51H293v74.11h282V70h0Z"/></g><g class="m"><path d="M378.83,94.83h2.32v21.34h-2.32v-21.34Z"/><path d="M385.94,95.11c1.23-.22,2.86-.42,4.84-.42,6.89,0,7.45,4.42,7.45,6.1,0,5.01-4,6.8-7.78,6.8-.81,0-1.54-.03-2.18-.2v8.76h-2.32v-21.06Zm2.32,10.36c.59,.17,1.34,.22,2.24,.22,3.36,0,5.4-1.68,5.4-4.73s-2.18-4.4-5.1-4.4c-1.18,0-2.04,.11-2.55,.22v8.68Z"/><path d="M400.42,107.15c2.13-2.24,6.24-6.86,7.84-8.57,.92-.92,1.65-1.37,2.49-1.37,.95,0,1.6,.5,2.69,1.48,3.3,3,8.85,9.13,13.22,14.62l-1.68,1.54c-4.14-5.46-9.74-11.87-12.54-14.45-.67-.67-1.06-1.09-1.6-1.09-.37,0-.84,.42-1.46,1.01-1.32,1.43-5.1,5.82-6.97,7.84,.03,.06,.03,.14,.03,.2,0,.22-.11,.45-.28,.59l-1.74-1.79Z"/><path d="M431.61,100.82c.84,1.71,1.76,4.4,2.1,6.02l-1.57,.42c-.34-1.62-1.2-4.17-2.04-5.96l1.51-.48Zm16.72,.2c-.06,.25-.34,.31-.59,.28-2.18,8.18-6.3,13.19-13.08,15.93-.22-.34-.73-.98-1.09-1.29,6.69-2.63,10.53-7.22,12.57-15.57l2.18,.64Zm-9.91-1.54c.59,1.88,1.12,4.56,1.32,6.36l-1.65,.31c-.17-1.79-.7-4.37-1.32-6.3l1.65-.36Z"/><path d="M472.21,98.19c-.03,.17-.17,.22-.34,.31-1.01,3.39-2.35,6.55-4.06,9.24,1.2,.7,2.69,1.57,3.72,2.3l-1.18,1.82c-1.01-.78-2.55-1.71-3.72-2.41-2.58,3.56-5.8,6.41-10.05,8.4-.28-.48-1.01-1.15-1.51-1.48,4.09-1.85,7.28-4.56,9.83-7.92-2.07-1.15-4.23-2.18-6.27-2.94l1.09-1.54c2.04,.76,4.23,1.74,6.36,2.86,1.43-2.18,2.6-4.87,3.36-7.42h-9.24c-1.79,3.02-4,5.77-6.3,7.64-.34-.34-1.12-.95-1.57-1.26,3.64-2.8,6.86-7.7,8.54-12.49l2.6,.76c-.11,.31-.45,.39-.79,.36-.39,1.01-.9,2.1-1.43,3.11h9.07l.25-.08,1.62,.76Zm-2.58-5.57c1.32,1.04,2.88,2.72,3.72,3.92l-1.06,.87c-.78-1.12-2.44-2.94-3.67-3.92l1.01-.87Zm3.58-1.04c1.32,1.04,2.97,2.69,3.81,3.86l-1.09,.84c-.76-1.15-2.49-2.88-3.7-3.84l.98-.87Z"/></g><g><rect class="e" x="782.13" y="70.25" width="130.33" height="73.49"/><path class="e" d="M912.33,70.51v72.99h-130.06V70.51h130.06m.26-.51h-130.59v74h130.59V70h0Z"/></g><g class="m"><path d="M831.68,104.84h-9.24l.47,.14c-.03,.17-.25,.31-.56,.34-.73,5.07-3.03,10.11-8.65,12.94-.31-.36-1.04-1.01-1.51-1.37,5.52-2.74,7.45-7,8.09-12.04h-10.7v-1.88h22.09v1.88Zm-4.12-7.64h-15.54v-1.88h15.54v1.88Zm.36-4.12c1.15,1.2,2.44,3.11,3.08,4.42l-1.12,.76c-.59-1.29-1.93-3.28-3.05-4.42l1.09-.76Zm3.3-.95c1.15,1.2,2.49,3.11,3.16,4.4l-1.15,.7c-.59-1.23-1.99-3.22-3.08-4.37l1.06-.73Z"/><path d="M836.39,104.56h23.38v1.99h-22.32c-.17,.28-.53,.48-.9,.53l-.17-2.52Z"/><path d="M883.82,98.57c-.03,.14-.17,.25-.34,.31-1.04,3.47-2.44,6.66-4.12,9.27,1.2,.7,2.58,1.57,3.61,2.32l-1.18,1.85c-1.01-.78-2.44-1.71-3.61-2.44-2.58,3.58-5.88,6.47-10.11,8.51-.31-.48-1.04-1.15-1.54-1.46,4.09-1.9,7.36-4.73,9.91-8.06-2.07-1.15-4.12-2.13-6.19-2.91l1.06-1.57c2.04,.73,4.14,1.68,6.3,2.83,1.46-2.3,2.6-4.73,3.39-7.42h-9.49c-1.71,2.86-4,5.68-6.47,7.7-.36-.34-1.12-.95-1.6-1.26,3.67-2.8,7.14-7.84,8.82-12.63l2.66,.62c-.11,.31-.39,.39-.76,.36-.39,.92-1.04,2.3-1.57,3.33h9.3l.39-.11,1.51,.76Z"/></g><g class="m"><path d="M326.34,20.13h2.49v22.86h-2.49V20.13Z"/><path d="M333.96,20.44c1.32-.24,3.06-.45,5.19-.45,7.38,0,7.98,4.74,7.98,6.54,0,5.37-4.29,7.29-8.34,7.29-.87,0-1.65-.03-2.34-.21v9.39h-2.49V20.44Zm2.49,11.1c.63,.18,1.44,.24,2.4,.24,3.6,0,5.79-1.8,5.79-5.07s-2.34-4.71-5.46-4.71c-1.26,0-2.19,.12-2.73,.24v9.3Z"/><path d="M363.54,26.64l-6.21,16.35h-2.34l-6.03-16.38h2.67l3.27,9.51c.51,1.47,.96,2.85,1.32,4.2h.09c.36-1.35,.84-2.73,1.35-4.2l3.24-9.48h2.64Z"/><path d="M376.68,42.99h-2.37v-6.3h-9.81v-1.59l9.6-14.58h2.58v14.25h3.06v1.92h-3.06v6.3Zm-9.66-8.22h7.29v-7.98c0-1.23,.06-2.43,.12-3.6h-.12c-.69,1.38-1.23,2.34-1.8,3.36l-5.49,8.16v.06Z"/><path d="M381.39,33.33c2.28-2.4,6.69-7.35,8.4-9.18,.99-.99,1.77-1.47,2.67-1.47,1.02,0,1.71,.54,2.88,1.59,3.54,3.21,9.48,9.78,14.16,15.66l-1.8,1.65c-4.44-5.85-10.44-12.72-13.44-15.48-.72-.72-1.14-1.17-1.71-1.17-.39,0-.9,.45-1.56,1.08-1.41,1.53-5.46,6.24-7.47,8.4,.03,.06,.03,.15,.03,.21,0,.24-.12,.48-.3,.63l-1.86-1.92Z"/><path d="M414.81,26.55c.9,1.83,1.89,4.71,2.25,6.45l-1.68,.45c-.36-1.74-1.29-4.47-2.19-6.39l1.62-.51Zm17.91,.21c-.06,.27-.36,.33-.63,.3-2.34,8.76-6.75,14.13-14.01,17.07-.24-.36-.78-1.05-1.17-1.38,7.17-2.82,11.28-7.74,13.47-16.68l2.34,.69Zm-10.62-1.65c.63,2.01,1.2,4.89,1.41,6.81l-1.77,.33c-.18-1.92-.75-4.68-1.41-6.75l1.77-.39Z"/><path d="M458.31,23.74c-.03,.18-.18,.24-.36,.33-1.08,3.63-2.52,7.02-4.35,9.9,1.29,.75,2.88,1.68,3.99,2.46l-1.26,1.95c-1.08-.84-2.73-1.83-3.99-2.58-2.76,3.81-6.21,6.87-10.77,9-.3-.51-1.08-1.23-1.62-1.59,4.38-1.98,7.8-4.89,10.53-8.49-2.22-1.23-4.53-2.34-6.72-3.15l1.17-1.65c2.19,.81,4.53,1.86,6.81,3.06,1.53-2.34,2.79-5.22,3.6-7.95h-9.9c-1.92,3.24-4.29,6.18-6.75,8.19-.36-.36-1.2-1.02-1.68-1.35,3.9-3,7.35-8.25,9.15-13.38l2.79,.81c-.12,.33-.48,.42-.84,.39-.42,1.08-.96,2.25-1.53,3.33h9.72l.27-.09,1.74,.81Zm-2.76-5.97c1.41,1.11,3.09,2.91,3.99,4.2l-1.14,.93c-.84-1.2-2.61-3.15-3.93-4.2l1.08-.93Zm3.84-1.11c1.41,1.11,3.18,2.88,4.08,4.14l-1.17,.9c-.81-1.23-2.67-3.09-3.96-4.11l1.05-.93Z"/><path d="M480.27,23.13c-.12,.27-.36,.48-.75,.48-1.08,9.33-4.2,17.46-9.18,17.46-2.52,0-4.8-2.52-4.8-7.26,0-7.2,5.61-13.23,13.5-13.23,8.67,0,12.42,5.49,12.42,11.34,0,7.14-4.14,10.59-11.4,12.27-.27-.48-.78-1.29-1.26-1.83,6.9-1.32,10.44-4.68,10.44-10.35,0-4.95-3.18-9.45-10.2-9.45-.3,0-.63,.03-.9,.06l2.13,.51Zm-2.88-.39c-6.06,.75-9.81,5.76-9.81,11.01,0,3.21,1.38,5.22,2.82,5.22,3.63,0,6.24-8.01,6.99-16.23Z"/><path d="M518.46,22.36c-.09,.15-.21,.27-.39,.33-2.37,11.37-8.25,18.12-18.06,21.57-.33-.51-.99-1.32-1.38-1.74,9.3-3.03,15-9.72,16.8-18.81h-19.62v-2.01h20.4l.42-.27,1.83,.93Z"/><path d="M542.28,30.84h-7.14l.12,11.13c0,2.61-2.22,2.67-5.61,2.61-.06-.42-.21-1.11-.42-1.62,1.53,.03,2.85,0,3.3-.06,.57-.06,.9-.48,.93-.96l-.09-9.54c-2.34,3.42-6.33,6.75-10.08,8.85-.3-.45-.78-1.02-1.2-1.35,3.84-1.95,7.98-5.55,10.29-9.06h-9.3v-1.74h10.26l-.06-5.34,2.4,.12c-.03,.24-.27,.42-.6,.45l.03,4.77h7.17v1.74Z"/><path d="M546.84,30h25.05v2.13h-23.91c-.18,.3-.57,.51-.96,.57l-.18-2.7Z"/><path d="M601.77,23.43c-.09,.15-.24,.24-.45,.3-2.79,4.26-7.5,8.73-12.12,12.06,2.31,1.86,4.62,4.17,6.15,5.85l-1.83,1.59c-3.15-3.69-9.06-8.64-14.13-11.61l1.44-1.53c2.13,1.2,4.53,2.79,6.69,4.44,4.05-2.88,8.16-6.75,10.53-10.23h-22.02v-2.04h23.61l.36-.18,1.77,1.35Z"/><path d="M608.31,26.55c.9,1.83,1.89,4.71,2.25,6.45l-1.68,.45c-.36-1.74-1.29-4.47-2.19-6.39l1.62-.51Zm17.91,.21c-.06,.27-.36,.33-.63,.3-2.34,8.76-6.75,14.13-14.01,17.07-.24-.36-.78-1.05-1.17-1.38,7.17-2.82,11.28-7.74,13.47-16.68l2.34,.69Zm-10.62-1.65c.63,2.01,1.2,4.89,1.41,6.81l-1.77,.33c-.18-1.92-.75-4.68-1.41-6.75l1.77-.39Z"/><path d="M648.09,34.47c-3.06-1.65-7.26-3.6-10.53-4.89v15h-2.25V18.52l3.03,.18c-.03,.33-.27,.54-.78,.63v8.76l.45-.63c3.51,1.29,8.16,3.36,11.28,5.01l-1.2,2.01Z"/></g><g><rect class="g" x="913.07" y="70.51" width="69.86" height="73.6"/><path class="g" d="M982.86,70.77v73.1h-69.72V70.77h69.72m.14-.51h-70v74.11h70V70.26h0Z"/></g><g class="m"><path d="M925.56,116.94v-21.34h10.75v1.96h-8.43v7.59h7.76v1.93h-7.76v9.86h-2.32Z"/><path d="M954.09,116.3c-.98,.48-2.88,.95-5.32,.95-5.49,0-9.91-3.56-9.91-10.78s4.28-11.17,10.53-11.17c2.55,0,4.03,.53,4.7,.87l-.62,1.96c-.98-.48-2.35-.87-4.03-.87-4.84,0-8.15,3.25-8.15,9.13s3.02,8.9,8.01,8.9c1.62,0,3.22-.36,4.28-.87l.5,1.88Z"/><path d="M967,98.24c-.62-.39-1.96-.98-3.75-.98-2.97,0-4.09,1.82-4.09,3.36,0,2.1,1.29,3.16,4.14,4.37,3.44,1.46,5.21,3.22,5.21,6.27,0,3.39-2.46,5.99-7.06,5.99-1.93,0-4.03-.59-5.1-1.34l.64-1.93c1.15,.76,2.86,1.32,4.59,1.32,2.86,0,4.54-1.54,4.54-3.84,0-2.1-1.15-3.39-3.92-4.51-3.22-1.2-5.4-3.08-5.4-6.02,0-3.25,2.63-5.63,6.52-5.63,2.02,0,3.56,.5,4.37,1.01l-.7,1.93Z"/></g><rect class="c" x="12.9" y="226.03" width="897.19" height="432.97"/><g><line class="i" x1="11.5" y1="225" x2="908" y2="225"/><line class="i" x1="11.5" y1="225" x2="11.5" y2="205"/><line class="i" x1="39.5" y1="225" x2="39.5" y2="205"/><line class="i" x1="67.5" y1="225" x2="67.5" y2="205"/><line class="i" x1="95.5" y1="225" x2="95.5" y2="205"/><line class="i" x1="123.5" y1="225" x2="123.5" y2="205"/><line class="i" x1="151.5" y1="225" x2="151.5" y2="205"/><line class="i" x1="179.5" y1="225" x2="179.5" y2="205"/><line class="i" x1="207.5" y1="225" x2="207.5" y2="205"/><line class="i" x1="235.5" y1="225" x2="235.5" y2="205"/><line class="i" x1="263.5" y1="225" x2="263.5" y2="205"/><line class="i" x1="291.5" y1="225" x2="291.5" y2="205"/><line class="i" x1="319.5" y1="225" x2="319.5" y2="205"/><line class="i" x1="347.5" y1="225" x2="347.5" y2="205"/><line class="i" x1="375.5" y1="225" x2="375.5" y2="205"/><line class="i" x1="403.5" y1="225" x2="403.5" y2="205"/><line class="i" x1="431.5" y1="225" x2="431.5" y2="205"/><line class="i" x1="459.5" y1="225" x2="459.5" y2="205"/><line class="i" x1="487.5" y1="225" x2="487.5" y2="205"/><line class="i" x1="515.5" y1="225" x2="515.5" y2="205"/><line class="i" x1="543.5" y1="225" x2="543.5" y2="205"/><line class="i" x1="571.5" y1="225" x2="571.5" y2="205"/><line class="i" x1="599.5" y1="225" x2="599.5" y2="205"/><line class="i" x1="627.5" y1="225" x2="627.5" y2="205"/><line class="i" x1="655.5" y1="225" x2="655.5" y2="205"/><line class="i" x1="683.5" y1="225" x2="683.5" y2="205"/><line class="i" x1="711.5" y1="225" x2="711.5" y2="205"/><line class="i" x1="739.5" y1="225" x2="739.5" y2="205"/><line class="i" x1="767.5" y1="225" x2="767.5" y2="205"/><line class="i" x1="795.5" y1="225" x2="795.5" y2="205"/><line class="i" x1="823.5" y1="225" x2="823.5" y2="205"/><line class="i" x1="851.5" y1="225" x2="851.5" y2="205"/><line class="i" x1="879.5" y1="225" x2="879.5" y2="205"/><line class="i" x1="907.5" y1="225" x2="907.5" y2="205"/></g><g class="m"><path d="M20.95,198.75c0-4.72,1.84-7,4.36-7s4.12,2.41,4.12,6.82c0,4.68-1.64,7.09-4.32,7.09-2.45,0-4.16-2.41-4.16-6.91Zm6.97-.11c0-3.37-.81-5.69-2.7-5.69-1.6,0-2.74,2.14-2.74,5.69s.99,5.8,2.68,5.8c2,0,2.75-2.59,2.75-5.8Z"/></g><g class="m"><path d="M52.91,205.45v-12.08h-.04l-2.21,1.28-.36-1.12,2.79-1.57h1.28v13.49h-1.46Z"/></g><g class="m"><path d="M85.08,205.45h-7.98v-.92l1.31-1.39c3.21-3.24,4.83-5.2,4.83-7.4,0-1.44-.63-2.77-2.58-2.77-1.08,0-2.05,.59-2.7,1.12l-.5-1.04c.83-.74,2.05-1.31,3.49-1.31,2.72,0,3.8,1.98,3.8,3.83,0,2.54-1.78,4.7-4.57,7.51l-1.06,1.12v.04h5.96v1.22Z"/></g><g class="m"><path d="M109.88,198.16c1.58,.27,2.94,1.55,2.94,3.49,0,2.14-1.55,4.02-4.57,4.02-1.35,0-2.58-.43-3.19-.86l.45-1.15c.49,.32,1.57,.81,2.75,.81,2.27,0,3.01-1.58,3.01-2.83,0-1.98-1.67-2.88-3.44-2.88h-.88v-1.12h.88c1.3,0,2.97-.81,2.97-2.5,0-1.17-.7-2.18-2.32-2.18-.99,0-1.93,.49-2.47,.88l-.45-1.1c.65-.5,1.91-1.01,3.21-1.01,2.47,0,3.57,1.57,3.57,3.19,0,1.39-.88,2.63-2.45,3.19v.05Z"/></g><g class="m"><path d="M139.9,205.45h-1.42v-3.78h-5.89v-.95l5.76-8.75h1.55v8.55h1.84v1.15h-1.84v3.78Zm-5.8-4.93h4.38v-4.79c0-.74,.04-1.46,.07-2.16h-.07c-.41,.83-.74,1.4-1.08,2.02l-3.3,4.9v.04Z"/></g><g class="m"><path d="M168.6,191.97v1.24h-4.84l-.56,3.82c.29-.04,.58-.07,1.04-.07,2.39,0,4.54,1.42,4.54,4.14s-1.98,4.57-4.65,4.57c-1.35,0-2.48-.4-3.1-.79l.43-1.17c.5,.34,1.5,.76,2.67,.76,1.69,0,3.15-1.24,3.13-3.19,0-1.86-1.19-3.15-3.71-3.15-.72,0-1.28,.05-1.73,.13l.85-6.28h5.92Z"/></g><g class="m"><path d="M190.49,198.3c.61-.9,1.71-1.66,3.15-1.66,2.29,0,3.82,1.71,3.82,4.3s-1.51,4.72-4.14,4.72-4.39-2.18-4.39-5.67,1.69-7.4,6.07-8.12c.5-.07,.95-.13,1.26-.13l.02,1.24c-3.75,0-5.53,2.72-5.83,5.31h.05Zm5.46,2.75c0-2.07-1.12-3.28-2.74-3.28s-2.79,1.55-2.79,2.56c.02,2.47,1.06,4.16,2.94,4.16,1.57,0,2.59-1.4,2.59-3.44Z"/></g><g class="m"><path d="M217.36,191.97h7.9v.95l-5.64,12.53h-1.53l5.64-12.21v-.04h-6.37v-1.24Z"/></g><g class="m"><path d="M247.61,198.3c-1.46-.7-2.11-1.89-2.11-3.04,0-2.09,1.64-3.51,3.82-3.51,2.45,0,3.62,1.66,3.62,3.28,0,1.15-.61,2.41-2.21,3.19v.07c1.66,.7,2.68,1.91,2.68,3.53,0,2.29-1.87,3.85-4.25,3.85-2.58,0-4.16-1.64-4.16-3.58,0-1.75,1.04-3.01,2.61-3.71v-.07Zm4.27,3.67c0-1.69-1.13-2.56-2.92-3.13-1.58,.52-2.43,1.67-2.43,3.01,0,1.53,1.03,2.7,2.65,2.7,1.73,0,2.7-1.17,2.7-2.58Zm-4.95-6.86c-.02,1.44,1.01,2.23,2.5,2.68,1.17-.45,2.05-1.37,2.05-2.65,0-1.13-.63-2.3-2.21-2.3s-2.34,1.1-2.34,2.27Z"/></g><g class="m"><path d="M275.61,198.3c-1.46-.7-2.11-1.89-2.11-3.04,0-2.09,1.64-3.51,3.82-3.51,2.45,0,3.62,1.66,3.62,3.28,0,1.15-.61,2.41-2.21,3.19v.07c1.66,.7,2.68,1.91,2.68,3.53,0,2.29-1.87,3.85-4.25,3.85-2.58,0-4.16-1.64-4.16-3.58,0-1.75,1.04-3.01,2.61-3.71v-.07Zm4.27,3.67c0-1.69-1.13-2.56-2.92-3.13-1.58,.52-2.43,1.67-2.43,3.01,0,1.53,1.03,2.7,2.65,2.7,1.73,0,2.7-1.17,2.7-2.58Zm-4.95-6.86c-.02,1.44,1.01,2.23,2.5,2.68,1.17-.45,2.05-1.37,2.05-2.65,0-1.13-.63-2.3-2.21-2.3s-2.34,1.1-2.34,2.27Z"/></g><g class="m"><path d="M299.95,205.45v-12.08h-.04l-2.21,1.28-.36-1.12,2.79-1.57h1.28v13.49h-1.46Z"/><path d="M305.9,198.75c0-4.72,1.84-7,4.36-7s4.12,2.41,4.12,6.82c0,4.68-1.64,7.09-4.32,7.09-2.45,0-4.16-2.41-4.16-6.91Zm6.97-.11c0-3.37-.81-5.69-2.7-5.69-1.6,0-2.74,2.14-2.74,5.69s.99,5.8,2.68,5.8c2,0,2.75-2.59,2.75-5.8Z"/></g><g class="m"><path d="M327.95,205.45v-12.08h-.04l-2.21,1.28-.36-1.12,2.79-1.57h1.28v13.49h-1.46Z"/><path d="M337.87,205.45v-12.08h-.04l-2.21,1.28-.36-1.12,2.79-1.57h1.28v13.49h-1.46Z"/></g><g class="m"><path d="M355.95,205.45v-12.08h-.04l-2.21,1.28-.36-1.12,2.79-1.57h1.28v13.49h-1.46Z"/><path d="M370.04,205.45h-7.98v-.92l1.31-1.39c3.21-3.24,4.83-5.2,4.83-7.4,0-1.44-.63-2.77-2.58-2.77-1.08,0-2.05,.59-2.7,1.12l-.5-1.04c.83-.74,2.05-1.31,3.49-1.31,2.72,0,3.8,1.98,3.8,3.83,0,2.54-1.78,4.7-4.57,7.51l-1.06,1.12v.04h5.96v1.22Z"/></g><g class="m"><path d="M383.95,205.45v-12.08h-.04l-2.21,1.28-.36-1.12,2.79-1.57h1.28v13.49h-1.46Z"/><path d="M394.84,198.16c1.58,.27,2.94,1.55,2.94,3.49,0,2.14-1.55,4.02-4.57,4.02-1.35,0-2.58-.43-3.19-.86l.45-1.15c.49,.32,1.57,.81,2.75,.81,2.27,0,3.01-1.58,3.01-2.83,0-1.98-1.67-2.88-3.44-2.88h-.88v-1.12h.88c1.3,0,2.97-.81,2.97-2.5,0-1.17-.7-2.18-2.32-2.18-.99,0-1.93,.49-2.47,.88l-.45-1.1c.65-.5,1.91-1.01,3.21-1.01,2.47,0,3.57,1.57,3.57,3.19,0,1.39-.88,2.63-2.45,3.19v.05Z"/></g><g class="m"><path d="M411.95,205.45v-12.08h-.04l-2.21,1.28-.36-1.12,2.79-1.57h1.28v13.49h-1.46Z"/><path d="M424.85,205.45h-1.42v-3.78h-5.89v-.95l5.76-8.75h1.55v8.55h1.84v1.15h-1.84v3.78Zm-5.8-4.93h4.38v-4.79c0-.74,.04-1.46,.07-2.16h-.07c-.41,.83-.74,1.4-1.08,2.02l-3.3,4.9v.04Z"/></g><g class="m"><path d="M439.95,205.45v-12.08h-.04l-2.21,1.28-.36-1.12,2.79-1.57h1.28v13.49h-1.46Z"/><path d="M453.56,191.97v1.24h-4.84l-.56,3.82c.29-.04,.58-.07,1.04-.07,2.39,0,4.54,1.42,4.54,4.14s-1.98,4.57-4.65,4.57c-1.35,0-2.48-.4-3.1-.79l.43-1.17c.5,.34,1.5,.76,2.67,.76,1.69,0,3.15-1.24,3.13-3.19,0-1.86-1.19-3.15-3.71-3.15-.72,0-1.28,.05-1.73,.13l.85-6.28h5.92Z"/></g><g class="m"><path d="M467.95,205.45v-12.08h-.04l-2.21,1.28-.36-1.12,2.79-1.57h1.28v13.49h-1.46Z"/><path d="M475.45,198.3c.61-.9,1.71-1.66,3.15-1.66,2.29,0,3.82,1.71,3.82,4.3s-1.51,4.72-4.14,4.72-4.39-2.18-4.39-5.67,1.69-7.4,6.07-8.12c.5-.07,.95-.13,1.26-.13l.02,1.24c-3.75,0-5.53,2.72-5.83,5.31h.05Zm5.46,2.75c0-2.07-1.12-3.28-2.74-3.28s-2.79,1.55-2.79,2.56c.02,2.47,1.06,4.16,2.94,4.16,1.57,0,2.59-1.4,2.59-3.44Z"/></g><g class="m"><path d="M495.95,205.45v-12.08h-.04l-2.21,1.28-.36-1.12,2.79-1.57h1.28v13.49h-1.46Z"/><path d="M502.32,191.97h7.9v.95l-5.64,12.53h-1.53l5.64-12.21v-.04h-6.37v-1.24Z"/></g><g class="m"><path d="M523.95,205.45v-12.08h-.04l-2.21,1.28-.36-1.12,2.79-1.57h1.28v13.49h-1.46Z"/><path d="M532.57,198.3c-1.46-.7-2.11-1.89-2.11-3.04,0-2.09,1.64-3.51,3.82-3.51,2.45,0,3.62,1.66,3.62,3.28,0,1.15-.61,2.41-2.21,3.19v.07c1.66,.7,2.68,1.91,2.68,3.53,0,2.29-1.87,3.85-4.25,3.85-2.58,0-4.16-1.64-4.16-3.58,0-1.75,1.04-3.01,2.61-3.71v-.07Zm4.27,3.67c0-1.69-1.13-2.56-2.92-3.13-1.58,.52-2.43,1.67-2.43,3.01,0,1.53,1.03,2.7,2.65,2.7,1.73,0,2.7-1.17,2.7-2.58Zm-4.95-6.86c-.02,1.44,1.01,2.23,2.5,2.68,1.17-.45,2.05-1.37,2.05-2.65,0-1.13-.63-2.3-2.21-2.3s-2.34,1.1-2.34,2.27Z"/></g><g class="m"><path d="M551.94,205.45v-12.08h-.04l-2.21,1.28-.36-1.12,2.79-1.57h1.28v13.49h-1.46Z"/><path d="M564.85,199.08c-.74,.94-1.78,1.49-3.1,1.49-2.3,0-3.73-1.8-3.73-4.09,0-2.47,1.62-4.74,4.27-4.74s4.12,2.2,4.12,5.64c0,4.48-2.27,7.6-5.73,8.14-.63,.11-1.21,.14-1.6,.13v-1.24c.38,.04,.81-.02,1.39-.09,2.27-.32,3.98-2.16,4.43-5.24h-.05Zm-5.31-2.68c0,1.82,1.03,3.04,2.58,3.04,1.46,0,2.79-1.12,2.79-2.2,0-2.59-.96-4.34-2.74-4.34-1.57,0-2.63,1.48-2.63,3.49Z"/></g><g class="m"><path d="M584.12,205.45h-7.98v-.92l1.31-1.39c3.21-3.24,4.83-5.2,4.83-7.4,0-1.44-.63-2.77-2.58-2.77-1.08,0-2.05,.59-2.7,1.12l-.5-1.04c.83-.74,2.05-1.31,3.49-1.31,2.72,0,3.8,1.98,3.8,3.83,0,2.54-1.78,4.7-4.57,7.51l-1.06,1.12v.04h5.96v1.22Z"/><path d="M585.9,198.75c0-4.72,1.84-7,4.36-7s4.12,2.41,4.12,6.82c0,4.68-1.64,7.09-4.32,7.09-2.45,0-4.16-2.41-4.16-6.91Zm6.97-.11c0-3.37-.81-5.69-2.7-5.69-1.6,0-2.74,2.14-2.74,5.69s.99,5.8,2.68,5.8c2,0,2.75-2.59,2.75-5.8Z"/></g><g class="m"><path d="M612.12,205.45h-7.98v-.92l1.31-1.39c3.21-3.24,4.83-5.2,4.83-7.4,0-1.44-.63-2.77-2.58-2.77-1.08,0-2.05,.59-2.7,1.12l-.5-1.04c.83-.74,2.05-1.31,3.49-1.31,2.72,0,3.8,1.98,3.8,3.83,0,2.54-1.78,4.7-4.57,7.51l-1.06,1.12v.04h5.96v1.22Z"/><path d="M617.87,205.45v-12.08h-.04l-2.21,1.28-.36-1.12,2.79-1.57h1.28v13.49h-1.46Z"/></g><g class="m"><path d="M640.12,205.45h-7.98v-.92l1.31-1.39c3.21-3.24,4.83-5.2,4.83-7.4,0-1.44-.63-2.77-2.58-2.77-1.08,0-2.05,.59-2.7,1.12l-.5-1.04c.83-.74,2.05-1.31,3.49-1.31,2.72,0,3.8,1.98,3.8,3.83,0,2.54-1.78,4.7-4.57,7.51l-1.06,1.12v.04h5.96v1.22Z"/><path d="M650.04,205.45h-7.98v-.92l1.31-1.39c3.21-3.24,4.83-5.2,4.83-7.4,0-1.44-.63-2.77-2.58-2.77-1.08,0-2.05,.59-2.7,1.12l-.5-1.04c.83-.74,2.05-1.31,3.49-1.31,2.72,0,3.8,1.98,3.8,3.83,0,2.54-1.78,4.7-4.57,7.51l-1.06,1.12v.04h5.96v1.22Z"/></g><g class="m"><path d="M668.12,205.45h-7.98v-.92l1.31-1.39c3.21-3.24,4.83-5.2,4.83-7.4,0-1.44-.63-2.77-2.58-2.77-1.08,0-2.05,.59-2.7,1.12l-.5-1.04c.83-.74,2.05-1.31,3.49-1.31,2.72,0,3.8,1.98,3.8,3.83,0,2.54-1.78,4.7-4.57,7.51l-1.06,1.12v.04h5.96v1.22Z"/><path d="M674.84,198.16c1.58,.27,2.94,1.55,2.94,3.49,0,2.14-1.55,4.02-4.57,4.02-1.35,0-2.58-.43-3.19-.86l.45-1.15c.49,.32,1.57,.81,2.75,.81,2.27,0,3.01-1.58,3.01-2.83,0-1.98-1.67-2.88-3.44-2.88h-.88v-1.12h.88c1.3,0,2.97-.81,2.97-2.5,0-1.17-.7-2.18-2.32-2.18-.99,0-1.93,.49-2.47,.88l-.45-1.1c.65-.5,1.91-1.01,3.21-1.01,2.47,0,3.57,1.57,3.57,3.19,0,1.39-.88,2.63-2.45,3.19v.05Z"/></g><g class="m"><path d="M696.12,205.45h-7.98v-.92l1.31-1.39c3.21-3.24,4.83-5.2,4.83-7.4,0-1.44-.63-2.77-2.58-2.77-1.08,0-2.05,.59-2.7,1.12l-.5-1.04c.83-.74,2.05-1.31,3.49-1.31,2.72,0,3.8,1.98,3.8,3.83,0,2.54-1.78,4.7-4.57,7.51l-1.06,1.12v.04h5.96v1.22Z"/><path d="M704.85,205.45h-1.42v-3.78h-5.89v-.95l5.76-8.75h1.55v8.55h1.84v1.15h-1.84v3.78Zm-5.8-4.93h4.38v-4.79c0-.74,.04-1.46,.07-2.16h-.07c-.41,.83-.74,1.4-1.08,2.02l-3.3,4.9v.04Z"/></g><g class="m"><path d="M724.12,205.45h-7.98v-.92l1.31-1.39c3.21-3.24,4.83-5.2,4.83-7.4,0-1.44-.63-2.77-2.58-2.77-1.08,0-2.05,.59-2.7,1.12l-.5-1.04c.83-.74,2.05-1.31,3.49-1.31,2.72,0,3.8,1.98,3.8,3.83,0,2.54-1.78,4.7-4.57,7.51l-1.06,1.12v.04h5.96v1.22Z"/><path d="M733.56,191.97v1.24h-4.84l-.56,3.82c.29-.04,.58-.07,1.04-.07,2.39,0,4.54,1.42,4.54,4.14s-1.98,4.57-4.65,4.57c-1.35,0-2.48-.4-3.1-.79l.43-1.17c.5,.34,1.5,.76,2.67,.76,1.69,0,3.15-1.24,3.13-3.19,0-1.86-1.19-3.15-3.71-3.15-.72,0-1.28,.05-1.73,.13l.85-6.28h5.92Z"/></g><g class="m"><path d="M752.12,205.45h-7.98v-.92l1.31-1.39c3.21-3.24,4.83-5.2,4.83-7.4,0-1.44-.63-2.77-2.58-2.77-1.08,0-2.05,.59-2.7,1.12l-.5-1.04c.83-.74,2.05-1.31,3.49-1.31,2.72,0,3.8,1.98,3.8,3.83,0,2.54-1.78,4.7-4.57,7.51l-1.06,1.12v.04h5.96v1.22Z"/><path d="M755.45,198.3c.61-.9,1.71-1.66,3.15-1.66,2.29,0,3.82,1.71,3.82,4.3s-1.51,4.72-4.14,4.72-4.39-2.18-4.39-5.67,1.69-7.4,6.07-8.12c.5-.07,.95-.13,1.26-.13l.02,1.24c-3.75,0-5.53,2.72-5.83,5.31h.05Zm5.46,2.75c0-2.07-1.12-3.28-2.74-3.28s-2.79,1.55-2.79,2.56c.02,2.47,1.06,4.16,2.94,4.16,1.57,0,2.59-1.4,2.59-3.44Z"/></g><g class="m"><path d="M780.12,205.45h-7.98v-.92l1.31-1.39c3.21-3.24,4.83-5.2,4.83-7.4,0-1.44-.63-2.77-2.58-2.77-1.08,0-2.05,.59-2.7,1.12l-.5-1.04c.83-.74,2.05-1.31,3.49-1.31,2.72,0,3.8,1.98,3.8,3.83,0,2.54-1.78,4.7-4.57,7.51l-1.06,1.12v.04h5.96v1.22Z"/><path d="M782.32,191.97h7.9v.95l-5.64,12.53h-1.53l5.64-12.21v-.04h-6.37v-1.24Z"/></g><g class="m"><path d="M808.12,205.45h-7.98v-.92l1.31-1.39c3.21-3.24,4.83-5.2,4.83-7.4,0-1.44-.63-2.77-2.58-2.77-1.08,0-2.05,.59-2.7,1.12l-.5-1.04c.83-.74,2.05-1.31,3.49-1.31,2.72,0,3.8,1.98,3.8,3.83,0,2.54-1.78,4.7-4.57,7.51l-1.06,1.12v.04h5.96v1.22Z"/><path d="M812.57,198.3c-1.46-.7-2.11-1.89-2.11-3.04,0-2.09,1.64-3.51,3.82-3.51,2.45,0,3.62,1.66,3.62,3.28,0,1.15-.61,2.41-2.21,3.19v.07c1.66,.7,2.68,1.91,2.68,3.53,0,2.29-1.87,3.85-4.25,3.85-2.58,0-4.16-1.64-4.16-3.58,0-1.75,1.04-3.01,2.61-3.71v-.07Zm4.27,3.67c0-1.69-1.13-2.56-2.92-3.13-1.58,.52-2.43,1.67-2.43,3.01,0,1.53,1.03,2.7,2.65,2.7,1.73,0,2.7-1.17,2.7-2.58Zm-4.95-6.86c-.02,1.44,1.01,2.23,2.5,2.68,1.17-.45,2.05-1.37,2.05-2.65,0-1.13-.63-2.3-2.21-2.3s-2.34,1.1-2.34,2.27Z"/></g><g class="m"><path d="M836.12,205.45h-7.98v-.92l1.31-1.39c3.21-3.24,4.83-5.2,4.83-7.4,0-1.44-.63-2.77-2.58-2.77-1.08,0-2.05,.59-2.7,1.12l-.5-1.04c.83-.74,2.05-1.31,3.49-1.31,2.72,0,3.8,1.98,3.8,3.83,0,2.54-1.78,4.7-4.57,7.51l-1.06,1.12v.04h5.96v1.22Z"/><path d="M844.85,199.08c-.74,.94-1.78,1.49-3.1,1.49-2.3,0-3.73-1.8-3.73-4.09,0-2.47,1.62-4.74,4.27-4.74s4.12,2.2,4.12,5.64c0,4.48-2.27,7.6-5.73,8.14-.63,.11-1.21,.14-1.6,.13v-1.24c.38,.04,.81-.02,1.39-.09,2.27-.32,3.98-2.16,4.43-5.24h-.05Zm-5.31-2.68c0,1.82,1.03,3.04,2.58,3.04,1.46,0,2.79-1.12,2.79-2.2,0-2.59-.96-4.34-2.74-4.34-1.57,0-2.63,1.48-2.63,3.49Z"/></g><g class="m"><path d="M860.92,198.16c1.58,.27,2.94,1.55,2.94,3.49,0,2.14-1.55,4.02-4.57,4.02-1.35,0-2.58-.43-3.19-.86l.45-1.15c.49,.32,1.57,.81,2.75,.81,2.27,0,3.01-1.58,3.01-2.83,0-1.98-1.67-2.88-3.44-2.88h-.88v-1.12h.88c1.3,0,2.97-.81,2.97-2.5,0-1.17-.7-2.18-2.32-2.18-.99,0-1.93,.49-2.47,.88l-.45-1.1c.65-.5,1.91-1.01,3.21-1.01,2.47,0,3.57,1.57,3.57,3.19,0,1.39-.88,2.63-2.45,3.19v.05Z"/><path d="M865.9,198.75c0-4.72,1.84-7,4.36-7s4.12,2.41,4.12,6.82c0,4.68-1.64,7.09-4.32,7.09-2.45,0-4.16-2.41-4.16-6.91Zm6.97-.11c0-3.37-.81-5.69-2.7-5.69-1.6,0-2.74,2.14-2.74,5.69s.99,5.8,2.68,5.8c2,0,2.75-2.59,2.75-5.8Z"/></g><g class="m"><path d="M888.92,198.16c1.58,.27,2.94,1.55,2.94,3.49,0,2.14-1.55,4.02-4.57,4.02-1.35,0-2.58-.43-3.19-.86l.45-1.15c.49,.32,1.57,.81,2.75,.81,2.27,0,3.01-1.58,3.01-2.83,0-1.98-1.67-2.88-3.44-2.88h-.88v-1.12h.88c1.3,0,2.97-.81,2.97-2.5,0-1.17-.7-2.18-2.32-2.18-.99,0-1.93,.49-2.47,.88l-.45-1.1c.65-.5,1.91-1.01,3.21-1.01,2.47,0,3.57,1.57,3.57,3.19,0,1.39-.88,2.63-2.45,3.19v.05Z"/><path d="M897.87,205.45v-12.08h-.04l-2.21,1.28-.36-1.12,2.79-1.57h1.28v13.49h-1.46Z"/></g><g class="m"><path d="M33.56,254.19c-.05,.14-.2,.25-.47,.27-.72,4.32-2.21,8.88-4.32,11.54-.32-.25-.81-.49-1.21-.65,2.02-2.45,3.6-7.02,4.18-11.54l1.82,.38Zm9.06,11.7c-.85-3.15-2.94-8.26-4.79-11.59l1.17-.56c1.89,3.22,4,8.3,4.93,11.63l-1.31,.52Zm-2.61-14.48c.83,.74,1.71,1.85,2.2,2.67l-.68,.5c-.5-.81-1.44-1.98-2.2-2.67l.68-.5Zm2.38-.94c.81,.76,1.71,1.84,2.21,2.65l-.7,.52c-.5-.81-1.44-1.96-2.2-2.65l.68-.52Z"/><path d="M46,258.28h15.03v1.28h-14.35c-.11,.18-.34,.31-.58,.34l-.11-1.62Z"/><path d="M63.82,256.62c1.62,.36,3.64,1.04,4.84,1.62l-.54,1.13c-1.19-.58-3.26-1.3-4.84-1.66l.54-1.1Zm1.08,8.8c5.78-1.94,9.87-5.11,12.24-10.48,.27,.23,.81,.63,1.1,.81-2.41,5.31-6.68,8.7-12.12,10.62,.05,.16-.05,.38-.2,.45l-1.03-1.41Zm.9-13.27c1.62,.43,3.6,1.15,4.83,1.76l-.59,1.1c-1.28-.65-3.15-1.37-4.77-1.82l.54-1.04Zm8.43-.59c.74,.63,1.76,1.75,2.32,2.61l-.7,.52c-.5-.77-1.55-1.98-2.29-2.63l.67-.5Zm2.5-1.1c.74,.63,1.76,1.76,2.34,2.59l-.7,.52c-.54-.79-1.55-1.95-2.29-2.59l.65-.52Z"/><path d="M90.36,256.08v10.95h-1.08v-.79h-8.08v-1.01h8.08v-3.65h-7.36v-1.01h7.36v-3.49h-7.63v-.99h8.71Z"/><path d="M95.11,252.84c1.87,.59,4.03,1.53,5.37,2.45l-.68,1.13c-1.3-.92-3.42-1.87-5.26-2.5l.58-1.08Zm-.07,12.48c6.39-1.98,10.64-5.56,12.8-10.55,.38,.31,.79,.54,1.17,.74-2.25,4.93-6.64,8.77-12.75,10.8-.02,.16-.13,.34-.25,.42l-.97-1.41Z"/></g><line class="f" x1="908.5" y1="298.5" x2="121.75" y2="298.5"/><line class="f" x1="908.5" y1="371.39" x2="10.5" y2="371.5"/><line class="f" x1="908.27" y1="443.79" x2="10.27" y2="443.89"/><line class="f" x1="910" y1="516.5" x2="12" y2="516.61"/><line class="f" x1="910" y1="589.5" x2="12" y2="589.61"/><polyline class="b" points="910 297.93 910 371.02 543.58 371.02 543.58 297.93 910 297.93"/><polyline class="b" points="910 443.83 910 516.93 13.54 516.93 13.54 443.83 910 443.83"/><polyline class="k" points="909.5 516.37 909.5 589.46 13.04 589.46 13.04 516.37 909.5 516.37"/><polyline class="b" points="460.05 590 460.05 659.46 12.5 659.46 12.5 590 460.05 590"/><polyline class="b" points="123 225.23 123 298.33 12.82 298.33 12.82 225.23 123 225.23"/><polyline class="k" points="237 225.23 237 298.33 122.8 298.33 122.8 225.23 237 225.23"/><polyline class="c" points="403 225 403 298 237.25 298 237.25 225 403 225"/><polyline class="b" points="461 225.23 461 298.33 402.93 298.33 402.93 225.23 461 225.23"/><polyline class="k" points="910 225.28 910 298.28 461.16 298.28 461.16 225.28 910 225.28"/><polyline class="k" points="461 298.23 461 371.33 12.93 371.33 12.93 298.23 461 298.23"/><polyline class="c" points="237 371.23 237 444.33 12.99 444.33 12.99 371.23 237 371.23"/><polyline class="k" points="910 371.23 910 444.33 461 444.33 461 371.23 910 371.23"/><polyline class="b" points="461 371.28 461 444.28 236.16 444.28 236.16 371.28 461 371.28"/><polyline class="c" points="909.8 589.63 909.8 659.09 460 659.09 460 589.63 909.8 589.63"/><polyline class="e" points="910 659.91 910 756 12.8 756 12.8 659.91 910 659.91"/><g><line class="h" x1="923.57" y1="747.61" x2="924.26" y2="669.21"/><polygon points="914.47 746.31 932.69 746.47 923.5 755.5 914.47 746.31"/><polygon points="915.14 670.35 933.36 670.51 924.33 661.32 915.14 670.35"/></g><g><line class="h" x1="924.5" y1="652.61" x2="924.5" y2="234.39"/><polygon points="915.39 651.39 933.61 651.39 924.5 660.5 915.39 651.39"/><polygon points="915.39 235.61 933.61 235.61 924.5 226.5 915.39 235.61"/></g><line class="h" x1="909.96" y1="226.31" x2="956.1" y2="226.28"/><line class="h" x1="909.96" y1="659.31" x2="956.1" y2="659.28"/><line class="h" x1="907.96" y1="757.31" x2="954.1" y2="757.28"/><g class="m"><path d="M444.01,710.62h-9.24l.47,.14c-.03,.17-.25,.31-.56,.34-.73,5.07-3.03,10.11-8.65,12.94-.31-.36-1.04-1.01-1.51-1.37,5.52-2.74,7.45-7,8.09-12.04h-10.7v-1.88h22.09v1.88Zm-4.12-7.64h-15.54v-1.88h15.54v1.88Zm.36-4.12c1.15,1.2,2.44,3.11,3.08,4.42l-1.12,.76c-.59-1.29-1.93-3.28-3.05-4.42l1.09-.76Zm3.3-.95c1.15,1.2,2.49,3.11,3.16,4.4l-1.15,.7c-.59-1.23-1.99-3.22-3.08-4.37l1.06-.73Z"/><path d="M448.71,710.34h23.38v1.99h-22.32c-.17,.28-.53,.48-.9,.53l-.17-2.52Z"/><path d="M496.14,704.35c-.03,.14-.17,.25-.34,.31-1.04,3.47-2.44,6.66-4.12,9.27,1.2,.7,2.58,1.57,3.61,2.32l-1.18,1.85c-1.01-.78-2.44-1.71-3.61-2.44-2.58,3.58-5.88,6.47-10.11,8.51-.31-.48-1.04-1.15-1.54-1.46,4.09-1.9,7.36-4.73,9.91-8.06-2.07-1.15-4.12-2.13-6.19-2.91l1.06-1.57c2.04,.73,4.14,1.68,6.3,2.83,1.46-2.3,2.6-4.73,3.39-7.42h-9.49c-1.71,2.86-4,5.68-6.47,7.7-.36-.34-1.12-.95-1.6-1.26,3.67-2.8,7.14-7.84,8.82-12.63l2.66,.62c-.11,.31-.39,.39-.76,.36-.39,.92-1.04,2.3-1.57,3.33h9.3l.39-.11,1.51,.76Z"/></g><g class="m"><path d="M933.03,470.39h1.8v16.51h-1.8v-16.51Z"/><path d="M938.53,470.61c.95-.17,2.21-.33,3.75-.33,5.33,0,5.76,3.42,5.76,4.72,0,3.88-3.1,5.27-6.02,5.27-.63,0-1.19-.02-1.69-.15v6.78h-1.8v-16.3Zm1.8,8.02c.46,.13,1.04,.17,1.73,.17,2.6,0,4.18-1.3,4.18-3.66s-1.69-3.4-3.94-3.4c-.91,0-1.58,.09-1.97,.17v6.72Z"/><path d="M949.74,479.93c1.65-1.73,4.83-5.31,6.07-6.63,.72-.72,1.28-1.06,1.93-1.06,.74,0,1.24,.39,2.08,1.15,2.56,2.32,6.85,7.06,10.23,11.31l-1.3,1.19c-3.21-4.23-7.54-9.19-9.71-11.18-.52-.52-.82-.85-1.24-.85-.28,0-.65,.33-1.13,.78-1.02,1.11-3.94,4.51-5.4,6.07,.02,.04,.02,.11,.02,.15,0,.17-.09,.35-.22,.46l-1.34-1.39Z"/><path d="M973.88,475.03c.65,1.32,1.37,3.4,1.63,4.66l-1.21,.33c-.26-1.26-.93-3.23-1.58-4.62l1.17-.37Zm12.94,.15c-.04,.2-.26,.24-.46,.22-1.69,6.33-4.88,10.21-10.12,12.33-.17-.26-.56-.76-.85-1,5.18-2.04,8.15-5.59,9.73-12.05l1.69,.5Zm-7.67-1.19c.46,1.45,.87,3.53,1.02,4.92l-1.28,.24c-.13-1.39-.54-3.38-1.02-4.88l1.28-.28Z"/><path d="M1005.3,472.99c-.02,.13-.13,.17-.26,.24-.78,2.62-1.82,5.07-3.14,7.15,.93,.54,2.08,1.21,2.88,1.78l-.91,1.41c-.78-.61-1.97-1.32-2.88-1.86-1.99,2.75-4.49,4.96-7.78,6.5-.22-.37-.78-.89-1.17-1.15,3.16-1.43,5.63-3.53,7.61-6.13-1.6-.89-3.27-1.69-4.85-2.28l.85-1.19c1.58,.59,3.27,1.34,4.92,2.21,1.11-1.69,2.02-3.77,2.6-5.74h-7.15c-1.39,2.34-3.1,4.46-4.88,5.92-.26-.26-.87-.74-1.21-.98,2.82-2.17,5.31-5.96,6.61-9.67l2.02,.59c-.09,.24-.35,.3-.61,.28-.3,.78-.69,1.63-1.11,2.41h7.02l.2-.07,1.26,.59Zm-1.99-4.31c1.02,.8,2.23,2.1,2.88,3.03l-.82,.67c-.61-.87-1.89-2.28-2.84-3.03l.78-.67Zm2.77-.8c1.02,.8,2.3,2.08,2.95,2.99l-.85,.65c-.59-.89-1.93-2.23-2.86-2.97l.76-.67Z"/></g><g class="m"><path d="M969.37,685.53h1.7v16.77h-1.7v-16.77Z"/><path d="M974.59,685.75c.9-.18,2.09-.33,3.55-.33,5.05,0,5.46,3.48,5.46,4.8,0,3.94-2.94,5.35-5.71,5.35-.6,0-1.13-.02-1.6-.15v6.89h-1.7v-16.55Zm1.7,8.14c.43,.13,.98,.18,1.64,.18,2.46,0,3.96-1.32,3.96-3.72s-1.6-3.46-3.74-3.46c-.86,0-1.5,.09-1.87,.18v6.82Z"/><path d="M928.2,721.61c1.56-1.76,4.8-5.63,5.97-6.97,.53-.57,1.07-.84,1.6-.84s1.11,.31,1.66,.84c2.65,2.6,6.92,7.68,10.02,11.99l-1.23,1.21c-2.91-4.33-7.2-9.55-9.5-11.84-.35-.35-.62-.55-.88-.55s-.51,.22-.84,.55c-.96,1.12-3.96,4.82-5.34,6.4,.02,.04,.02,.11,.02,.15,0,.18-.08,.35-.21,.46l-1.27-1.41Zm15.55-11.16c1.25,0,2.28,1.1,2.28,2.46s-1.03,2.46-2.28,2.46-2.32-1.1-2.32-2.46,1.07-2.46,2.32-2.46Zm1.6,2.46c0-.97-.72-1.76-1.6-1.76s-1.64,.79-1.64,1.76,.74,1.74,1.64,1.74,1.6-.84,1.6-1.74Z"/><path d="M965.82,712.15c-.08,.11-.21,.18-.39,.18-.06,0-.12,0-.21-.02-1.58,1.72-3.86,3.72-5.85,5.26,.16,.07,.41,.2,.49,.24-.04,.13-.22,.26-.45,.29v11.82h-1.5v-11.31c-2.18,1.65-5.01,3.43-7.82,4.91-.21-.35-.58-.9-.86-1.21,5.6-2.77,11.74-7.48,15.04-11.38l1.54,1.23Z"/><path d="M984.11,713.75v14.52h-1.48v-1.39h-11.31v1.43h-1.44v-14.57h14.22Zm-1.48,11.66v-10.19h-11.31v10.19h11.31Z"/><path d="M988.23,719.17h17.14v1.56h-16.36c-.12,.22-.39,.37-.66,.42l-.12-1.98Z"/><path d="M1020.56,722.47c-2.09-1.21-4.97-2.64-7.2-3.59v10.98h-1.54v-19.12l2.07,.13c-.02,.24-.18,.4-.53,.46v6.47l.31-.48c2.4,.95,5.58,2.46,7.72,3.67l-.82,1.47Zm-2.15-10.36c.94,.84,2.18,2.22,2.83,3.24l-.78,.68c-.62-.95-1.87-2.42-2.79-3.21l.74-.7Zm2.75-1.89c.96,.86,2.2,2.24,2.81,3.21l-.74,.68c-.63-.95-1.89-2.4-2.81-3.21l.74-.68Z"/></g><g class="m"><path d="M25.03,259.25c-.07,.18-.24,.31-.57,.33-.88,5.28-2.71,10.85-5.28,14.1-.4-.31-.99-.59-1.47-.79,2.46-2.99,4.4-8.58,5.11-14.1l2.22,.46Zm11.07,14.3c-1.03-3.85-3.59-10.1-5.85-14.17l1.43-.68c2.31,3.94,4.88,10.14,6.03,14.21l-1.61,.64Zm-3.19-17.69c1.01,.9,2.09,2.27,2.68,3.26l-.84,.62c-.62-.99-1.76-2.42-2.68-3.26l.84-.62Zm2.9-1.14c.99,.92,2.09,2.24,2.71,3.23l-.86,.64c-.62-.99-1.76-2.4-2.68-3.23l.84-.64Z"/><path d="M40.23,264.25h18.37v1.56h-17.54c-.13,.22-.42,.37-.71,.42l-.13-1.98Z"/><path d="M62.01,262.22c1.98,.44,4.45,1.28,5.92,1.98l-.66,1.39c-1.45-.7-3.98-1.58-5.92-2.02l.66-1.34Zm1.32,10.76c7.06-2.38,12.06-6.25,14.96-12.81,.33,.29,.99,.77,1.34,.99-2.95,6.49-8.16,10.63-14.81,12.98,.07,.2-.07,.46-.24,.55l-1.25-1.72Zm1.1-16.22c1.98,.53,4.4,1.41,5.9,2.16l-.73,1.34c-1.56-.79-3.85-1.67-5.83-2.22l.66-1.28Zm10.3-.73c.9,.77,2.16,2.13,2.84,3.19l-.86,.64c-.62-.95-1.89-2.42-2.79-3.21l.81-.62Zm3.06-1.34c.9,.77,2.16,2.16,2.86,3.17l-.86,.64c-.66-.97-1.89-2.38-2.79-3.17l.79-.64Z"/><path d="M94.44,261.56v13.38h-1.32v-.97h-9.88v-1.23h9.88v-4.47h-9v-1.23h9v-4.27h-9.33v-1.21h10.65Z"/><path d="M100.25,257.6c2.29,.73,4.93,1.87,6.56,2.99l-.84,1.39c-1.58-1.12-4.18-2.29-6.42-3.06l.7-1.32Zm-.09,15.25c7.81-2.42,13-6.8,15.64-12.89,.46,.37,.97,.66,1.43,.9-2.75,6.03-8.12,10.72-15.58,13.2-.02,.2-.15,.42-.31,.51l-1.19-1.72Z"/></g><g class="m"><path d="M139.19,267.07c1.67-1.76,4.91-5.39,6.16-6.73,.73-.73,1.3-1.08,1.96-1.08,.75,0,1.25,.4,2.11,1.17,2.6,2.35,6.95,7.17,10.39,11.49l-1.32,1.21c-3.26-4.29-7.66-9.33-9.86-11.35-.53-.53-.84-.86-1.25-.86-.29,0-.66,.33-1.14,.79-1.03,1.12-4,4.58-5.48,6.16,.02,.04,.02,.11,.02,.15,0,.18-.09,.35-.22,.46l-1.36-1.41Z"/><path d="M163.7,262.09c.66,1.34,1.39,3.45,1.65,4.73l-1.23,.33c-.26-1.28-.95-3.28-1.61-4.69l1.19-.37Zm13.14,.15c-.04,.2-.26,.24-.46,.22-1.72,6.42-4.95,10.36-10.28,12.52-.18-.26-.57-.77-.86-1.01,5.26-2.07,8.27-5.68,9.88-12.23l1.72,.51Zm-7.79-1.21c.46,1.47,.88,3.59,1.03,5l-1.3,.24c-.13-1.41-.55-3.43-1.03-4.95l1.3-.29Z"/><path d="M195.6,260.03c-.02,.13-.13,.18-.26,.24-.79,2.66-1.85,5.15-3.19,7.26,.95,.55,2.11,1.23,2.93,1.8l-.92,1.43c-.79-.62-2-1.34-2.93-1.89-2.02,2.79-4.55,5.04-7.9,6.6-.22-.37-.79-.9-1.19-1.17,3.21-1.45,5.72-3.59,7.72-6.23-1.63-.9-3.32-1.72-4.93-2.31l.86-1.21c1.61,.59,3.32,1.36,4.99,2.25,1.12-1.72,2.05-3.83,2.64-5.83h-7.26c-1.41,2.38-3.15,4.53-4.95,6.01-.26-.26-.88-.75-1.23-.99,2.86-2.2,5.39-6.05,6.71-9.81l2.05,.59c-.09,.24-.35,.31-.62,.29-.31,.79-.7,1.65-1.12,2.44h7.13l.2-.07,1.28,.59Zm-2.02-4.38c1.03,.81,2.27,2.13,2.93,3.08l-.84,.68c-.62-.88-1.91-2.31-2.88-3.08l.79-.68Zm2.82-.81c1.03,.81,2.33,2.11,2.99,3.04l-.86,.66c-.59-.9-1.96-2.27-2.9-3.01l.77-.68Z"/><path d="M210.78,267.66c.62,1.28,1.43,2.4,2.42,3.39,1.67-.88,3.7-2.16,4.93-3.12l1.41,1.01c-.09,.11-.29,.13-.48,.11-1.28,.86-3.26,1.98-4.91,2.84,1.74,1.39,3.96,2.38,6.58,2.88-.31,.31-.7,.9-.92,1.32-5.13-1.19-8.65-4.05-10.52-8.43h-3.32v6.14c1.89-.31,3.98-.66,6.01-1.01l.07,1.23c-3.5,.66-7.24,1.34-9.55,1.74-.02,.18-.15,.29-.29,.33l-.66-1.61c.84-.13,1.8-.26,2.9-.44v-6.38h-3.96v-1.36h3.96v-9.81h13.82v1.28h-12.3v2h11.62v1.23h-11.62v2h11.62v1.23h-11.62v2.07h14.43v1.36h-9.62Z"/></g><g class="m"><path d="M301.1,257.61c1.23-.2,2.66-.35,4.22-.35,6.73,0,8.67,3.98,8.67,8.1,0,2.66-.7,4.93-2.29,6.58-1.47,1.52-3.92,2.35-6.97,2.35-1.39,0-2.57-.04-3.63-.18v-16.5Zm1.83,15.09c.55,.09,1.34,.11,2.13,.11,4.53,0,7.02-2.58,7.02-7.37,0-4.36-2.33-6.71-6.69-6.71-1.06,0-1.89,.11-2.46,.22v13.75Z"/><path d="M324.24,259.45c-.48-.31-1.54-.77-2.95-.77-2.33,0-3.21,1.43-3.21,2.64,0,1.65,1.01,2.49,3.26,3.43,2.71,1.14,4.09,2.53,4.09,4.93,0,2.66-1.94,4.71-5.54,4.71-1.52,0-3.17-.46-4-1.06l.51-1.52c.9,.59,2.25,1.03,3.61,1.03,2.24,0,3.56-1.21,3.56-3.01,0-1.65-.9-2.66-3.08-3.54-2.53-.95-4.25-2.42-4.25-4.73,0-2.55,2.07-4.42,5.13-4.42,1.58,0,2.79,.4,3.43,.79l-.55,1.52Z"/><path d="M339.36,273.65c-.77,.37-2.27,.75-4.18,.75-4.31,0-7.79-2.79-7.79-8.47s3.37-8.78,8.27-8.78c2,0,3.17,.42,3.7,.68l-.48,1.54c-.77-.37-1.85-.68-3.17-.68-3.81,0-6.4,2.55-6.4,7.17s2.38,7,6.29,7c1.28,0,2.53-.29,3.37-.68l.4,1.47Z"/><path d="M342.02,257.61c.97-.18,2.24-.33,3.81-.33,5.41,0,5.85,3.48,5.85,4.8,0,3.94-3.15,5.35-6.12,5.35-.64,0-1.21-.02-1.72-.15v6.89h-1.83v-16.55Zm1.83,8.14c.46,.13,1.06,.18,1.76,.18,2.64,0,4.25-1.32,4.25-3.72s-1.72-3.46-4.01-3.46c-.92,0-1.61,.09-2,.18v6.82Z"/></g><g class="m"><path d="M423.29,275.15h-8.84v-16.77h8.47v1.54h-6.64v5.68h6.25v1.52h-6.25v6.49h7.02v1.54Z"/><path d="M437,274.65c-.77,.37-2.27,.75-4.18,.75-4.31,0-7.79-2.79-7.79-8.47s3.37-8.78,8.27-8.78c2,0,3.17,.42,3.7,.68l-.48,1.54c-.77-.37-1.85-.68-3.17-.68-3.81,0-6.4,2.55-6.4,7.17s2.38,7,6.29,7c1.28,0,2.53-.29,3.37-.68l.4,1.47Z"/><path d="M451.47,275.15h-1.83l-5.35-8.82c-1.12-1.87-2.2-3.74-3.01-5.59l-.09,.02c.15,2.13,.18,4.09,.18,7v7.39h-1.72v-16.77h1.91l5.41,8.82c1.19,2,2.16,3.74,2.93,5.48l.04-.02c-.18-2.33-.22-4.33-.22-6.97v-7.31h1.74v16.77Z"/></g><g class="m"><path d="M635.96,253.63c-.07,.18-.24,.31-.57,.33-.88,5.28-2.71,10.85-5.28,14.1-.4-.31-.99-.59-1.47-.79,2.46-2.99,4.4-8.58,5.1-14.1l2.22,.46Zm11.07,14.3c-1.03-3.85-3.59-10.1-5.85-14.17l1.43-.68c2.31,3.94,4.88,10.14,6.03,14.21l-1.61,.64Zm-.29-18.7c1.36,0,2.46,1.1,2.46,2.49s-1.1,2.46-2.46,2.46-2.46-1.12-2.46-2.46c0-1.43,1.14-2.49,2.46-2.49Zm1.74,2.49c0-.99-.79-1.76-1.74-1.76s-1.74,.77-1.74,1.76,.77,1.74,1.74,1.74,1.74-.84,1.74-1.74Z"/><path d="M669.31,255.43v1.5h-5.46c-.07,.13-.2,.24-.4,.26-.66,5.11-2.73,9.55-7.37,12.23-.35-.33-.95-.73-1.36-.99,4.51-2.44,6.6-6.58,7.15-11.51h-6.12c-1.01,1.8-2.29,3.43-3.48,4.53-.33-.24-.95-.57-1.39-.77,2.38-2.05,4.93-6.34,5.98-10.43l2.11,.48c-.04,.15-.24,.33-.59,.33-.46,1.36-1.21,3.04-1.87,4.36h12.78Z"/><path d="M673.8,256.09c.66,1.34,1.39,3.45,1.65,4.73l-1.23,.33c-.26-1.28-.95-3.28-1.61-4.69l1.19-.37Zm13.14,.15c-.04,.2-.26,.24-.46,.22-1.72,6.42-4.95,10.36-10.28,12.52-.18-.26-.57-.77-.86-1.01,5.26-2.07,8.27-5.68,9.88-12.23l1.72,.51Zm-7.79-1.21c.46,1.47,.88,3.59,1.03,5l-1.3,.24c-.13-1.41-.55-3.43-1.03-4.95l1.3-.29Z"/><path d="M702.97,261.9c-2.24-1.21-5.32-2.64-7.72-3.59v11h-1.65v-19.12l2.22,.13c-.02,.24-.2,.4-.57,.46v6.42l.33-.46c2.57,.95,5.98,2.46,8.27,3.67l-.88,1.47Z"/><path d="M717.58,261.66c.62,1.28,1.43,2.4,2.42,3.39,1.67-.88,3.7-2.16,4.93-3.12l1.41,1.01c-.09,.11-.29,.13-.48,.11-1.28,.86-3.26,1.98-4.91,2.84,1.74,1.39,3.96,2.38,6.58,2.88-.31,.31-.71,.9-.92,1.32-5.13-1.19-8.65-4.05-10.52-8.43h-3.32v6.14c1.89-.31,3.98-.66,6.01-1.01l.07,1.23c-3.5,.66-7.24,1.34-9.55,1.74-.02,.18-.15,.29-.29,.33l-.66-1.61c.84-.13,1.8-.26,2.9-.44v-6.38h-3.96v-1.36h3.96v-9.81h13.82v1.28h-12.3v2h11.62v1.23h-11.62v2h11.62v1.23h-11.62v2.07h14.43v1.36h-9.62Z"/></g><g class="m"><path d="M180.55,327.3v1.23h-6.84v-1.23h6.84Zm-.53,8.98v6.45h-4.25v1.06h-1.21v-7.5h5.46Zm-.04-5.98v1.21h-5.37v-1.21h5.37Zm-5.37,4.2v-1.21h5.37v1.21h-5.37Zm5.33-10.12v1.21h-5.21v-1.21h5.21Zm-1.17,13.14h-2.99v3.96h2.99v-3.96Zm11.46-5.02c.07,1.8,.18,3.45,.33,4.86,.66-1.19,1.19-2.49,1.58-3.92l1.43,.7c-.04,.13-.18,.18-.37,.18-.55,1.8-1.37,3.48-2.36,4.93,.4,2,1.08,3.43,1.87,3.43,.37,0,.66-1.43,.86-3.23,.26,.31,.66,.62,.92,.75-.29,2.6-.81,3.89-1.83,3.89-1.36,0-2.29-1.32-2.84-3.48-1.1,1.32-2.4,2.44-3.79,3.3-.18-.24-.57-.64-.86-.86,1.63-.97,3.1-2.31,4.31-4-.31-1.8-.48-4.05-.59-6.56h-8.69v-1.23h8.65c-.07-2.35-.11-4.95-.13-7.66l1.83,.07c0,.18-.13,.31-.44,.35-.02,2.57,0,5.02,.07,7.24h3.79v1.23h-3.74Zm-2.07-6.42v1.19h-7.33v-1.19h3.04v-2.49l1.78,.11c-.02,.15-.13,.26-.42,.31v2.07h2.93Zm-.59,15.12h-4.91v1.25h-1.21v-8.65h6.12v7.39Zm-4.69-13.64c.4,1.03,.68,2.4,.73,3.28l-1.17,.24c-.02-.88-.29-2.22-.66-3.28l1.1-.24Zm3.41,7.39h-3.63v1.96h3.63v-1.96Zm-3.63,5.1h3.63v-2.05h-3.63v2.05Zm4.93-12.26c-.04,.13-.2,.22-.44,.22-.22,.9-.62,2.33-.97,3.21l-1.01-.31c.31-.97,.68-2.51,.84-3.52l1.58,.4Zm4.18-3.21c1.01,1.17,1.98,2.79,2.38,3.92l-1.23,.55c-.35-1.14-1.3-2.79-2.29-4l1.14-.46Z"/><path d="M204.71,334.47l.31-.02,.77,.09c0,.15-.02,.31-.02,.48-.26,5.68-.51,7.68-1.08,8.36-.48,.55-.86,.62-2.44,.62-.53,0-1.12,0-1.74-.04-.04-.42-.2-.97-.4-1.32,1.12,.11,2.22,.11,2.6,.11,.4,0,.59-.04,.77-.24,.42-.44,.66-2.16,.86-6.69h-3.85c-.51,3.01-1.5,6.16-3.74,8.16-.22-.31-.68-.73-1.04-.97,2.9-2.51,3.54-7.44,3.79-11.18h-2.51v-7.24h8.76v7.24h-4.77c-.09,.81-.15,1.72-.29,2.64h4.03Zm-6.36-8.52v4.53h5.96v-4.53h-5.96Zm9.77,.31l1.87,.11c-.02,.15-.13,.26-.42,.31v11.88h-1.45v-12.3Zm5.52-2.27l1.89,.11c-.02,.18-.13,.26-.42,.31v17.58c0,1.06-.31,1.52-.97,1.76-.71,.26-1.91,.29-3.96,.29-.09-.4-.33-1.08-.57-1.5,.81,.02,1.56,.02,2.18,.02,1.76,0,1.85,0,1.85-.57v-18Z"/><path d="M237.77,331.11h-7.5c2.07,1.83,5.28,3.48,8.08,4.27-.35,.31-.77,.88-1.01,1.25-.68-.24-1.41-.53-2.13-.86v8.19h-1.47v-.7h-11.24v.79h-1.43v-8.32c-.84,.44-1.67,.81-2.46,1.1-.22-.33-.64-.88-.97-1.17,2.73-.88,5.88-2.64,7.92-4.55h-7.35v-1.28h4.97c-.33-.84-1.01-2.02-1.67-2.88l1.28-.48c.75,.92,1.52,2.18,1.8,3.04l-.84,.33h3.43v-3.72c-2.46,.2-5.04,.35-7.42,.44-.04-.31-.2-.86-.33-1.14,5.3-.24,11.75-.79,15.23-1.54l1.08,1.19s-.11,.04-.2,.04c-.07,0-.15,0-.24-.02-1.74,.35-4.09,.66-6.65,.9v3.85h3.12c-.24-.11-.48-.2-.64-.26,.68-.95,1.54-2.46,1.98-3.52l1.78,.66c-.07,.13-.22,.2-.46,.2-.48,.84-1.23,2.05-1.89,2.93h5.24v1.28Zm-10.61,.22c-1.47,1.54-3.52,3.01-5.61,4.14h13c-2.2-1.1-4.4-2.62-5.92-4.2v3.78h-1.47v-3.72Zm.04,7.42v-2.09h-4.73v2.09h4.73Zm-4.73,1.1v2.2h4.73v-2.2h-4.73Zm11.24-1.1v-2.09h-5.11v2.09h5.11Zm-5.11,3.3h5.11v-2.2h-5.11v2.2Z"/><path d="M260.06,334.17h-13.47c-.2,.66-.46,1.39-.7,2.13h9.95l.35-.07,.95,.31c-.02,.11-.07,.26-.13,.4-.59,4.05-1.17,5.79-2,6.51-.55,.51-1.06,.62-2.55,.62-.79,0-1.91-.04-3.08-.13-.02-.42-.22-1.01-.51-1.39,1.61,.13,3.23,.15,3.83,.15,.55,0,.81-.02,1.08-.2,.64-.48,1.1-1.87,1.56-4.82h-9.95c-.22,.59-.42,1.14-.62,1.61-.84-.18-1.21-.24-1.58-.29,.57-1.25,1.25-3.17,1.78-4.84h-5.11v-1.36h20.2v1.36Zm-3.1-9.46v6.36h-13.77v-6.36h13.77Zm-1.52,5.02v-3.67h-10.8v3.67h10.8Z"/></g><g class="m"><path d="M491.1,331.01c-.07,.11-.15,.2-.29,.24-1.74,8.34-6.05,13.29-13.25,15.82-.24-.37-.73-.97-1.01-1.28,6.82-2.22,11-7.13,12.32-13.8h-14.39v-1.47h14.96l.31-.2,1.34,.68Z"/><path d="M511.19,335.35c-.04,.09-.15,.18-.29,.22-1.8,6.65-5.48,9.88-12.06,11.71-.2-.4-.62-.95-.92-1.28,5.99-1.5,9.7-4.58,11.09-9.68h-14.57v-1.5h15.23l.22-.13,1.3,.66Zm-2.07-4.71h-12.54v-1.45h12.54v1.45Z"/><path d="M529.67,332.58c-.09,.13-.2,.24-.33,.33-2.33,7.28-5.94,11.68-11.9,14.72-.24-.37-.68-.88-1.12-1.21,5.65-2.75,9.2-6.97,11.07-12.96h-7.77c-1.28,1.98-2.9,3.83-4.86,5.37-.29-.31-.81-.73-1.23-.99,2.99-2.24,5.48-5.72,6.98-9.64l2.07,.57c-.07,.22-.33,.31-.62,.29-.44,.99-.95,2.05-1.45,2.93h7.66l.26-.13,1.25,.73Zm-2.73-5.06c1.04,.84,2.24,2.18,2.88,3.12l-.81,.7c-.66-1.01-1.85-2.31-2.84-3.12l.77-.7Zm3.19-.64c1.03,.84,2.24,2.16,2.88,3.12l-.81,.68c-.66-.99-1.8-2.27-2.84-3.1l.77-.7Z"/></g><g class="m"><path d="M625.89,327.01c-.07,.11-.15,.2-.29,.24-1.74,8.34-6.05,13.29-13.25,15.82-.24-.37-.73-.97-1.01-1.28,6.82-2.22,11-7.13,12.32-13.8h-14.39v-1.47h14.96l.31-.2,1.34,.68Z"/><path d="M645.98,331.35c-.04,.09-.15,.18-.29,.22-1.8,6.65-5.48,9.88-12.06,11.71-.2-.4-.62-.95-.92-1.28,5.99-1.5,9.7-4.58,11.09-9.68h-14.57v-1.5h15.23l.22-.13,1.3,.66Zm-2.07-4.71h-12.54v-1.45h12.54v1.45Z"/><path d="M664.46,328.58c-.09,.13-.2,.24-.33,.33-2.33,7.28-5.94,11.68-11.9,14.72-.24-.37-.68-.88-1.12-1.21,5.66-2.75,9.2-6.97,11.07-12.96h-7.77c-1.28,1.98-2.9,3.83-4.86,5.37-.29-.31-.81-.73-1.23-.99,2.99-2.24,5.48-5.72,6.98-9.64l2.07,.57c-.07,.22-.33,.31-.62,.29-.44,.99-.95,2.05-1.45,2.93h7.66l.26-.13,1.25,.73Zm-2.73-5.06c1.03,.84,2.24,2.18,2.88,3.12l-.81,.7c-.66-1.01-1.85-2.31-2.84-3.12l.77-.7Zm3.19-.64c1.03,.84,2.24,2.16,2.88,3.12l-.81,.68c-.66-.99-1.8-2.27-2.84-3.1l.77-.7Z"/><path d="M672.88,328.88c2.07,.9,4.25,2,6.25,3.17,1.41-2.11,2.86-4.88,3.96-7.68l2.16,.88c-.09,.2-.4,.31-.79,.26-1.01,2.33-2.44,5.11-3.92,7.35,1.69,1.06,3.46,2.24,4.8,3.39l-1.06,1.39c-1.21-1.06-2.86-2.27-4.69-3.43-2.27,3.23-5.57,6.51-9.31,9-.26-.33-.88-.86-1.25-1.1,3.67-2.38,7.04-5.66,9.22-8.69-2-1.19-4.14-2.31-6.21-3.23l.84-1.3Z"/><path d="M690.44,325.98c2.29,.73,4.93,1.87,6.56,2.99l-.84,1.39c-1.58-1.12-4.18-2.29-6.42-3.06l.7-1.32Zm-.09,15.25c7.81-2.42,13-6.8,15.64-12.89,.46,.37,.97,.66,1.43,.9-2.75,6.03-8.12,10.72-15.58,13.2-.02,.2-.15,.42-.31,.51l-1.19-1.72Z"/><path d="M722.71,335.9c-2.24-1.21-5.33-2.64-7.72-3.59v11h-1.65v-19.12l2.22,.13c-.02,.24-.2,.4-.57,.46v6.42l.33-.46c2.57,.95,5.99,2.46,8.27,3.67l-.88,1.47Z"/><path d="M745.46,330.45h-6.58l.09,10.69c.04,2.22-1.45,2.29-5.5,2.24-.07-.4-.22-1.01-.4-1.43,1.45,.02,3.19,.02,3.59-.02,.53-.07,.79-.42,.77-.81l-.09-9.5c-2.24,3.3-5.9,6.73-9.48,8.84-.26-.4-.68-.86-1.08-1.19,3.59-1.98,7.37-5.43,9.62-8.82h-8.76v-1.5h9.66l-.04-4.75,2.11,.09c-.02,.24-.24,.37-.55,.42l.04,4.25h6.6v1.5Z"/><path d="M765.15,327.01c-.07,.11-.15,.2-.29,.24-1.74,8.34-6.05,13.29-13.25,15.82-.24-.37-.73-.97-1.01-1.28,6.82-2.22,11-7.13,12.32-13.8h-14.39v-1.47h14.96l.31-.2,1.34,.68Z"/><path d="M786.96,329.21c-.07,.11-.2,.2-.35,.26-.99,2.38-2.73,5.37-4.6,7.17-.33-.24-.9-.57-1.32-.79,1.67-1.5,3.04-3.7,3.76-5.46l-8.43,2.2v5.7c0,2.16,1.3,2.88,3.06,2.88h3.59c.9,0,2.42-.13,3.28-.24,0,.48,.02,1.08,.04,1.54-.88,.11-2.42,.18-3.26,.18h-3.67c-2.77,0-4.62-1.3-4.62-4.33v-5.33l-5.54,1.43-.37-1.47,5.92-1.47v-6.69l2.13,.09c-.04,.26-.24,.4-.55,.44v5.74l9.31-2.4,.24-.18,1.39,.73Z"/><path d="M791.88,330.09c.66,1.34,1.39,3.45,1.65,4.73l-1.23,.33c-.26-1.28-.95-3.28-1.61-4.69l1.19-.37Zm13.14,.15c-.04,.2-.26,.24-.46,.22-1.72,6.42-4.95,10.36-10.28,12.52-.18-.26-.57-.77-.86-1.01,5.26-2.07,8.27-5.68,9.88-12.23l1.72,.51Zm-7.79-1.21c.46,1.47,.88,3.59,1.03,5l-1.3,.24c-.13-1.41-.55-3.43-1.03-4.95l1.3-.29Z"/><path d="M821.05,335.9c-2.24-1.21-5.32-2.64-7.72-3.59v11h-1.65v-19.12l2.22,.13c-.02,.24-.2,.4-.57,.46v6.42l.33-.46c2.57,.95,5.98,2.46,8.27,3.67l-.88,1.47Z"/></g><g class="m"><path d="M98.71,416.84h9.24v1.45h-19.89v-1.45h9.13v-5.9h-6.71v-1.43h6.71v-5.08h-5.39c-.77,1.58-1.67,3.01-2.64,4.07-.29-.26-.86-.68-1.23-.9,1.8-1.91,3.37-5.26,4.27-8.62l1.91,.53c-.07,.15-.22,.24-.51,.24-.33,1.08-.7,2.18-1.14,3.23h4.73v-4.4l1.98,.11c-.02,.15-.15,.26-.46,.31v3.98h8.21v1.45h-8.21v5.08h7.39v1.43h-7.39v5.9Z"/><path d="M129.71,402.92h-12.15c-.75,1.69-1.67,3.39-2.77,4.95l.24,.07c-.04,.15-.18,.26-.44,.29v10.8h-1.47v-9.09c-.84,.92-1.74,1.76-2.75,2.51-.18-.4-.57-1.01-.79-1.34,1.34-.97,2.51-2.16,3.54-3.48v-.18l.11,.02c1.06-1.41,1.94-2.95,2.68-4.55h-5.68v-1.41h6.27c.38-.97,.71-1.96,.97-2.93l1.91,.51c-.07,.15-.22,.24-.51,.24-.22,.73-.46,1.45-.75,2.18h11.57v1.41Zm.44,8.47v1.39h-6.07v4.42c0,.92-.2,1.36-.9,1.58-.71,.22-1.94,.24-3.89,.24-.07-.44-.26-1.01-.48-1.43,.79,.02,1.52,.04,2.09,.04,1.63,0,1.7-.02,1.7-.44v-4.42h-6.36v-1.39h6.36v-2.11l.57,.02c1.01-.62,2.11-1.5,2.97-2.35h-7.97v-1.36h9.35l.26-.09,1.14,.75c-.07,.11-.2,.18-.33,.18-1.12,1.21-2.9,2.71-4.51,3.7v1.28h6.07Z"/><path d="M138.79,400.03v14.57h-4.84v1.78h-1.41v-16.35h6.25Zm-1.39,1.36h-3.46v5.17h3.46v-5.17Zm-3.46,11.84h3.46v-5.32h-3.46v5.32Zm12.43-7.57h5.79v1.34h-12.98v-1.34h5.74v-3.01h-4.8v-1.32h4.8v-2.73l1.89,.11c-.02,.15-.15,.26-.44,.31v2.31h4.91v1.32h-4.91v3.01Zm3.5,1.96c-.02,.15-.13,.26-.42,.29v1.89h2.66v1.32h-2.66v6.16c0,.9-.2,1.32-.88,1.54-.66,.22-1.78,.24-3.61,.24-.07-.4-.29-.99-.51-1.39,.84,.02,1.63,.04,2.2,.04,1.23,0,1.34,0,1.34-.46v-6.14h-8.73v-1.32h8.73v-2.29l1.87,.11Zm-6.27,9.13c-.51-1.1-1.74-2.77-2.88-3.96l1.19-.7c1.17,1.14,2.44,2.77,2.97,3.87l-1.28,.79Z"/><path d="M162.88,407.14h-6.56v11.9h-1.45v-19.5h8.01v7.59Zm-1.41-6.42h-5.15v2.02h5.15v-2.02Zm-5.15,5.26h5.15v-2.11h-5.15v2.11Zm11.75,10.96h-6.93v1.17h-1.36v-9.22h8.3v8.05Zm-1.41-6.87h-5.52v2.2h5.52v-2.2Zm-5.52,5.68h5.52v-2.31h-5.52v2.31Zm12.04-16.19v17.43c0,1.96-.86,2.05-4.66,2.05-.04-.42-.29-1.12-.51-1.54,.7,.02,1.41,.04,1.96,.04,1.61,0,1.74,0,1.74-.55v-9.81h-6.73v-7.61h8.21Zm-1.47,1.17h-5.3v2.02h5.3v-2.02Zm-5.3,5.28h5.3v-2.13h-5.3v2.13Z"/></g><g class="m"><path d="M303.61,401.86h13.99l.13-.07,1.5,1.14c-.07,.09-.13,.15-.26,.2-1.78,8.27-5.61,12.58-12.34,15.14-.24-.4-.68-.97-.99-1.3,6.4-2.35,10.1-6.45,11.53-13.6h-13.55v-1.52Zm16.77-3.94c1.32,0,2.4,1.08,2.4,2.42s-1.08,2.4-2.4,2.4-2.42-1.08-2.42-2.4c0-1.39,1.12-2.42,2.42-2.42Zm1.67,2.42c0-.95-.75-1.69-1.67-1.69s-1.7,.75-1.7,1.69,.77,1.69,1.7,1.69,1.67-.81,1.67-1.69Z"/><path d="M340.99,402.21v14.52h-1.58v-1.39h-12.12v1.43h-1.54v-14.57h15.25Zm-1.58,11.66v-10.19h-12.12v10.19h12.12Z"/><path d="M358.06,410.9c-2.24-1.21-5.33-2.64-7.72-3.59v11h-1.65v-19.12l2.22,.13c-.02,.24-.2,.4-.57,.46v6.42l.33-.46c2.57,.95,5.99,2.46,8.27,3.67l-.88,1.47Z"/><path d="M378.9,402.28v14.9h-1.61v-1.21h-13.86v-1.47h13.86v-10.74h-13.64v-1.47h15.25Z"/><path d="M388.73,402.65c-.02,.2-.22,.33-.51,.37-.13,5.92-.62,11.31-4,15.25-.35-.26-.88-.59-1.32-.84,3.28-3.56,3.67-9.07,3.74-14.98l2.09,.2Zm5.7,12.67c3.67-1.78,6.05-5,7.33-8.85,.33,.29,.99,.66,1.37,.86-1.56,4.44-4.29,7.72-8.98,9.95-.07,.18-.22,.35-.37,.44l-1.14-1.45,.24-.33v-16.15l2.05,.11c-.02,.2-.18,.37-.48,.42v15.01Z"/></g><g class="m"><path d="M590.46,412.07c1.67-1.76,4.91-5.39,6.16-6.73,.73-.73,1.3-1.08,1.96-1.08,.75,0,1.25,.4,2.11,1.17,2.6,2.35,6.95,7.17,10.39,11.49l-1.32,1.21c-3.26-4.29-7.66-9.33-9.86-11.35-.53-.53-.84-.86-1.25-.86-.29,0-.66,.33-1.14,.79-1.03,1.12-4,4.58-5.48,6.16,.02,.04,.02,.11,.02,.15,0,.18-.09,.35-.22,.46l-1.36-1.41Z"/><path d="M614.97,407.09c.66,1.34,1.39,3.45,1.65,4.73l-1.23,.33c-.26-1.28-.95-3.28-1.61-4.69l1.19-.37Zm13.14,.15c-.04,.2-.26,.24-.46,.22-1.72,6.42-4.95,10.36-10.28,12.52-.18-.26-.57-.77-.86-1.01,5.26-2.07,8.27-5.68,9.88-12.23l1.72,.51Zm-7.79-1.21c.46,1.47,.88,3.59,1.03,5l-1.3,.24c-.13-1.41-.55-3.43-1.03-4.95l1.3-.29Z"/><path d="M646.87,405.03c-.02,.13-.13,.18-.26,.24-.79,2.66-1.85,5.15-3.19,7.26,.95,.55,2.11,1.23,2.93,1.8l-.92,1.43c-.79-.62-2-1.34-2.93-1.89-2.02,2.79-4.55,5.04-7.9,6.6-.22-.37-.79-.9-1.19-1.17,3.21-1.45,5.72-3.59,7.72-6.23-1.63-.9-3.32-1.72-4.93-2.31l.86-1.21c1.61,.59,3.32,1.36,4.99,2.25,1.12-1.72,2.05-3.83,2.64-5.83h-7.26c-1.41,2.38-3.15,4.53-4.95,6.01-.26-.26-.88-.75-1.23-.99,2.86-2.2,5.39-6.05,6.71-9.81l2.05,.59c-.09,.24-.35,.31-.62,.29-.31,.79-.7,1.65-1.12,2.44h7.13l.2-.07,1.28,.59Zm-2.02-4.38c1.03,.81,2.27,2.13,2.93,3.08l-.84,.68c-.62-.88-1.91-2.31-2.88-3.08l.79-.68Zm2.82-.81c1.03,.81,2.33,2.11,2.99,3.04l-.86,.66c-.59-.9-1.96-2.27-2.9-3.01l.77-.68Z"/><path d="M670.57,410.66h-7.68c-.48,4.22-1.91,7.39-6.18,9.81-.33-.35-.86-.77-1.23-1.06,3.96-2.16,5.39-4.88,5.85-8.76h-8.98v-1.45h9.09c.11-1.45,.11-2.95,.13-4.71-2.24,.51-5.15,.99-7.57,1.25-.11-.42-.26-.86-.46-1.28,7.72-.92,12.28-2.44,13.64-3.04l1.17,1.3c-.09,.04-.18,.07-.29,.07-.09,0-.15,0-.24-.02-1.23,.46-3.19,1.03-4.93,1.45l.73,.07c-.02,.2-.18,.33-.46,.37-.02,1.65-.04,3.15-.13,4.53h7.55v1.45Z"/><path d="M686.6,407.38v1.28h-5.41v8.65h6.65v1.28h-14.7v-1.28h6.64v-8.65h-5.37v-1.28h12.19Z"/><path d="M692.85,407.09c.66,1.34,1.39,3.45,1.65,4.73l-1.23,.33c-.26-1.28-.95-3.28-1.61-4.69l1.19-.37Zm13.13,.15c-.04,.2-.26,.24-.46,.22-1.72,6.42-4.95,10.36-10.28,12.52-.18-.26-.57-.77-.86-1.01,5.26-2.07,8.27-5.68,9.88-12.23l1.71,.51Zm-7.79-1.21c.46,1.47,.88,3.59,1.04,5l-1.3,.24c-.13-1.41-.55-3.43-1.03-4.95l1.3-.29Z"/><path d="M725.04,405.38c-.09,.11-.2,.22-.33,.31-2.31,7.13-5.92,11.71-11.99,14.79-.26-.37-.68-.88-1.12-1.21,5.76-2.79,9.33-7.2,11.16-13.03h-7.86c-1.28,1.98-2.97,3.89-4.93,5.43-.31-.31-.81-.73-1.25-1.01,2.99-2.31,5.52-5.68,7.02-9.55l2.09,.59c-.09,.22-.35,.29-.64,.29-.44,.97-.9,1.89-1.41,2.77h7.75l.26-.13,1.25,.75Z"/><path d="M747.15,407.8h-4.6v1.52c0,4.2-1.3,8.47-7.04,11.07-.29-.35-.75-.79-1.14-1.1,5.59-2.42,6.62-6.34,6.62-9.95v-1.54h-7.11v5.48h-1.56v-5.48h-4.31v-1.5h4.31v-4.78l2.11,.13c-.02,.22-.22,.42-.55,.46v4.18h7.11v-5.06l2.11,.13c-.02,.2-.2,.37-.55,.42v4.51h4.6v1.5Z"/><path d="M767.74,419.79c-.33-.75-.73-1.54-1.17-2.33-4.58,.48-12.1,.95-15.47,1.12-.07,.22-.22,.4-.42,.44l-.59-1.98c.66-.02,1.45-.04,2.31-.09,1.45-4.22,3.54-10.8,4.75-15.2l2.13,.57c-.09,.2-.31,.31-.64,.31-1.21,4.05-3.1,9.95-4.62,14.26,3.65-.15,8.87-.53,11.77-.79-1.14-1.89-2.6-3.89-3.92-5.37l1.32-.75c2.31,2.53,4.95,6.71,6.07,9.11l-1.54,.7Z"/></g><g class="m"><path d="M384.53,478.16v7.2c1.72,2.62,4.86,2.62,8.82,2.62,2.38,0,5.17-.07,6.89-.18-.18,.35-.44,1.06-.48,1.5-1.52,.07-3.94,.11-6.12,.11-4.53,0-7.55,0-9.77-2.73-1.08,.97-2.24,1.96-3.19,2.71,.02,.2-.04,.29-.2,.35l-.86-1.63c1.06-.7,2.36-1.72,3.48-2.68v-5.85h-3.23v-1.41h4.67Zm-3.28-8.25c1.47,.95,3.19,2.4,3.94,3.48l-1.17,.99c-.73-1.1-2.4-2.6-3.87-3.59l1.1-.88Zm18.66,9.77h-5.85c.92,2.93,2.84,4.88,5.9,5.79-.33,.29-.75,.84-.95,1.23-2.99-1.03-4.91-3.04-6.01-6.03-.64,2.07-2.22,4.25-5.94,5.94-.2-.33-.66-.84-.99-1.1,3.98-1.65,5.28-3.85,5.7-5.83h-5.9v-1.36h6.05c.02-.26,.02-.53,.02-.77v-2.53h-5.35v-1.36h8.76l-1.12-.51c.75-1.01,1.69-2.66,2.2-3.78l1.76,.66c-.07,.15-.22,.2-.48,.22-.57,1.01-1.52,2.46-2.29,3.41h3.83v1.36h-5.83v2.53c0,.24,0,.51-.02,.77h6.51v1.36Zm-10.38-6.03c-.29-1.01-1.12-2.57-2-3.7l1.25-.53c.9,1.1,1.78,2.6,2.07,3.61l-1.32,.62Z"/><path d="M404.68,477.12c-.84,1.39-1.76,2.62-2.68,3.67-.15-.35-.53-1.03-.77-1.39,2.11-2.29,4.22-6.09,5.5-9.9l1.76,.59c-.09,.15-.24,.22-.51,.2-.57,1.54-1.25,3.08-2.02,4.55l.59,.15c-.04,.13-.15,.24-.44,.26v14.59h-1.43v-12.74Zm2.95-3.61h14.52v1.25h-14.52v-1.25Zm1.63,16.28v-7.06h11.38v7h-1.5v-1.03h-8.45v1.1h-1.43Zm11.18-13.2v1.23h-10.96v-1.23h10.96Zm-10.96,4.31v-1.23h10.94v1.23h-10.94Zm10.56-10.47v1.23h-10.32v-1.23h10.32Zm-.9,13.53h-8.45v3.5h8.45v-3.5Z"/><path d="M431.85,479.32c-.02,.15-.18,.29-.46,.33-.48,4.27-1.41,8.16-6.64,10.17-.18-.37-.59-.9-.92-1.19,4.84-1.74,5.68-5.28,6.03-9.48l2,.18Zm5.72,8.01c0,.75,.18,.92,1.08,.92h3.06c.95,0,1.1-.62,1.21-4.09,.33,.29,.95,.55,1.34,.66-.15,3.78-.57,4.8-2.44,4.8h-3.32c-1.89,0-2.42-.48-2.42-2.29v-8.47h-11.97v-1.45h19.65v1.45h-6.07l-.11,.02v8.45Zm4.29-16.39v1.43h-15.8v-1.43h15.8Z"/><path d="M446.79,471.16h1.83v16.77h-1.83v-16.77Z"/><path d="M452.38,471.38c.97-.18,2.25-.33,3.81-.33,5.41,0,5.85,3.48,5.85,4.8,0,3.94-3.15,5.35-6.12,5.35-.64,0-1.21-.02-1.72-.15v6.89h-1.83v-16.55Zm1.83,8.14c.46,.13,1.06,.18,1.76,.18,2.64,0,4.25-1.32,4.25-3.72s-1.72-3.46-4-3.46c-.92,0-1.61,.09-2,.18v6.82Z"/><path d="M482.46,471.97c-.04,.09-.18,.15-.29,.2-1.19,2.82-3.08,5.26-5.21,7.04-.33-.29-.95-.68-1.34-.9,2.02-1.47,3.65-3.61,4.38-5.46h-15.75v-1.5h16.59l.24-.11,1.39,.73Zm-8.58,4c-.02,.18-.22,.33-.51,.37-.64,5.19-2.42,10.14-6.95,12.76-.31-.26-.88-.77-1.3-1.01,4.49-2.46,6.1-7.06,6.62-12.37l2.13,.24Z"/><path d="M497.85,481.7c-2.24-1.21-5.32-2.64-7.72-3.59v10.98h-1.65v-19.12l2.22,.13c-.02,.24-.2,.4-.57,.46v6.47l.33-.48c2.57,.95,5.98,2.46,8.27,3.67l-.88,1.47Zm-2.31-10.36c1.01,.84,2.33,2.22,3.04,3.24l-.84,.68c-.66-.95-2-2.42-2.99-3.21l.79-.7Zm2.95-1.89c1.03,.86,2.35,2.24,3.01,3.21l-.79,.68c-.68-.95-2.03-2.4-3.02-3.21l.79-.68Z"/><path d="M507.33,486.63c5.59-1.56,10.03-4.25,12.74-9.04,.29,.37,.84,.84,1.17,1.1-2.97,5.06-7.88,8.01-14.5,9.75-.04,.18-.18,.37-.35,.44l-.92-1.54,.26-.42v-16.22l2.27,.11c-.02,.24-.22,.44-.66,.48v15.34Z"/><path d="M538.73,472.24c-.04,.11-.15,.2-.29,.24-1.19,2.79-2.6,5.21-4.4,7.57,2.4,1.91,6.01,5.19,8.05,7.46l-1.34,1.17c-1.94-2.24-5.48-5.59-7.72-7.39-1.94,2.35-5.28,5.57-8.47,7.39-.24-.33-.77-.88-1.14-1.19,6.1-3.34,10.91-9.59,12.89-14.37h-10.8v-1.5h11.66l.29-.11,1.28,.73Z"/></g><g class="m"><path d="M398.76,545.36l.26-.04,.9,.35c0,.11-.09,.18-.15,.24-1.19,6.25-4.51,10.03-8.71,11.86-.18-.35-.57-.9-.88-1.21,2.07-.79,3.94-2.2,5.41-4.2-.7-.81-1.89-1.85-2.95-2.57l.99-.86c.97,.62,2.02,1.47,2.77,2.22,.75-1.28,1.34-2.77,1.74-4.45h-3.87c-.97,1.8-2.18,3.41-3.54,4.51-.24-.24-.75-.7-1.06-.92,2.09-1.63,3.83-4.53,4.75-7.68l1.74,.51c-.04,.15-.2,.22-.46,.22-.22,.68-.48,1.36-.77,2.02h3.83Zm-6.6-3.94v2.93h-1.43v-4.29h8.38v-2.73l1.96,.13c-.02,.15-.15,.26-.44,.29v2.31h8.52v4.29h-1.5v-2.93h-15.49Zm10.21,13.62c0,.81,.2,.97,1.3,.97h3.87c.95,0,1.12-.46,1.21-2.95,.35,.26,.95,.51,1.37,.62-.2,2.9-.66,3.74-2.49,3.74h-4.09c-2.02,0-2.62-.46-2.62-2.38v-10.14h6.56l.75,.02c0,6.49-.31,6.89-.51,7.17-.42,.51-.81,.57-2.05,.57-.37,0-.79,0-1.21-.02-.02-.42-.18-.99-.4-1.34,.84,.09,1.61,.09,1.87,.09,.29,0,.46-.02,.59-.22,.2-.29,.26-1.5,.29-4.93h-4.45v8.8Z"/><path d="M420.05,548.95c-.02,.15-.18,.26-.46,.29-.57,3.87-1.65,6.93-6.8,8.56-.18-.37-.57-.95-.9-1.25,4.8-1.36,5.85-4.09,6.23-7.81l1.94,.22Zm5.5,6.29c0,.66,.15,.77,1.03,.77h2.99c.86,0,1.01-.46,1.1-3.41,.31,.26,.95,.51,1.36,.62-.18,3.37-.59,4.2-2.33,4.2h-3.28c-1.89,0-2.38-.46-2.38-2.2v-6.75h-11.9v-1.45h9.02v-4.67h-4.78c-.57,1.28-1.23,2.51-2,3.48-.33-.22-.9-.55-1.28-.7,1.54-1.89,2.68-4.88,3.23-7.22l1.87,.44c-.07,.15-.2,.22-.48,.22-.2,.7-.44,1.52-.77,2.35h4.2v-3.56l1.94,.11c-.02,.18-.15,.29-.44,.31v3.15h7.46v1.43h-7.46v4.67h9.04v1.45h-6.16v6.78Z"/><path d="M434.79,539.16h1.83v16.77h-1.83v-16.77Z"/><path d="M440.38,539.38c.97-.18,2.25-.33,3.81-.33,5.41,0,5.85,3.48,5.85,4.8,0,3.94-3.15,5.35-6.12,5.35-.64,0-1.21-.02-1.71-.15v6.89h-1.83v-16.55Zm1.83,8.14c.46,.13,1.05,.18,1.76,.18,2.64,0,4.25-1.32,4.25-3.72s-1.72-3.46-4-3.46c-.92,0-1.61,.09-2,.18v6.82Z"/><path d="M470.46,539.97c-.04,.09-.18,.15-.29,.2-1.19,2.82-3.08,5.26-5.21,7.04-.33-.29-.95-.68-1.34-.9,2.03-1.47,3.65-3.61,4.38-5.46h-15.75v-1.5h16.59l.24-.11,1.39,.73Zm-8.58,4c-.02,.18-.22,.33-.51,.37-.64,5.19-2.42,10.14-6.95,12.76-.31-.26-.88-.77-1.3-1.01,4.49-2.46,6.09-7.06,6.62-12.37l2.13,.24Z"/><path d="M485.85,549.7c-2.25-1.21-5.33-2.64-7.72-3.59v10.98h-1.65v-19.12l2.22,.13c-.02,.24-.2,.4-.57,.46v6.47l.33-.48c2.57,.95,5.99,2.46,8.27,3.67l-.88,1.47Zm-2.31-10.36c1.01,.84,2.33,2.22,3.04,3.24l-.84,.68c-.66-.95-2-2.42-2.99-3.21l.79-.7Zm2.95-1.89c1.04,.86,2.35,2.24,3.01,3.21l-.79,.68c-.68-.95-2.02-2.4-3.01-3.21l.79-.68Z"/><path d="M495.33,554.63c5.59-1.56,10.03-4.25,12.74-9.04,.29,.37,.84,.84,1.17,1.1-2.97,5.06-7.88,8.01-14.5,9.75-.04,.18-.18,.37-.35,.44l-.92-1.54,.26-.42v-16.22l2.27,.11c-.02,.24-.22,.44-.66,.48v15.34Z"/><path d="M526.73,540.24c-.04,.11-.15,.2-.29,.24-1.19,2.79-2.6,5.21-4.4,7.57,2.4,1.91,6.01,5.19,8.05,7.46l-1.34,1.17c-1.94-2.24-5.48-5.59-7.72-7.39-1.94,2.35-5.28,5.57-8.47,7.39-.24-.33-.77-.88-1.14-1.19,6.09-3.34,10.91-9.59,12.89-14.37h-10.8v-1.5h11.66l.29-.11,1.28,.73Z"/></g><g class="m"><path d="M194.91,622.22h-6.58l.09,10.69c.04,2.22-1.45,2.29-5.5,2.24-.07-.4-.22-1.01-.4-1.43,1.45,.02,3.19,.02,3.59-.02,.53-.07,.79-.42,.77-.81l-.09-9.5c-2.24,3.3-5.9,6.73-9.48,8.84-.26-.4-.68-.86-1.08-1.19,3.59-1.98,7.37-5.43,9.62-8.82h-8.76v-1.5h9.66l-.04-4.75,2.11,.09c-.02,.24-.24,.37-.55,.42l.04,4.25h6.6v1.5Z"/><path d="M198.01,618.63h13.99l.13-.07,1.5,1.14c-.07,.09-.13,.15-.26,.2-1.78,8.27-5.61,12.58-12.34,15.14-.24-.4-.68-.97-.99-1.3,6.4-2.35,10.1-6.45,11.53-13.6h-13.55v-1.52Zm16.77-3.94c1.32,0,2.4,1.08,2.4,2.42s-1.08,2.4-2.4,2.4-2.42-1.08-2.42-2.4c0-1.39,1.12-2.42,2.42-2.42Zm1.67,2.42c0-.95-.75-1.69-1.67-1.69s-1.69,.75-1.69,1.69,.77,1.69,1.69,1.69,1.67-.81,1.67-1.69Z"/><path d="M219.13,622.29c1.98,.44,4.44,1.28,5.92,1.98l-.66,1.39c-1.45-.7-3.98-1.58-5.92-2.02l.66-1.34Zm1.32,10.76c7.15-2.4,12.04-6.21,14.96-12.81,.33,.29,1.01,.75,1.34,.97-2.95,6.54-8.08,10.61-14.81,13,.04,.2-.07,.46-.26,.55l-1.23-1.72Zm1.1-16.22c1.98,.53,4.4,1.41,5.9,2.16l-.73,1.34c-1.56-.79-3.85-1.67-5.83-2.22l.66-1.28Z"/><path d="M250.9,621.71v13.38h-1.32v-.97h-9.88v-1.23h9.88v-4.47h-9v-1.23h9v-4.27h-9.33v-1.21h10.65Z"/><path d="M256.71,617.75c2.29,.73,4.93,1.87,6.56,2.99l-.84,1.39c-1.58-1.12-4.18-2.29-6.42-3.06l.7-1.32Zm-.09,15.25c7.81-2.42,13-6.8,15.64-12.89,.46,.37,.97,.66,1.43,.9-2.75,6.03-8.12,10.72-15.58,13.2-.02,.2-.15,.42-.31,.51l-1.19-1.72Z"/></g><g class="m"><path d="M646.36,615.4c-.07,.18-.24,.31-.57,.33-.88,5.28-2.71,10.85-5.28,14.1-.4-.31-.99-.59-1.47-.79,2.46-2.99,4.4-8.58,5.11-14.1l2.22,.46Zm11.07,14.3c-1.03-3.85-3.59-10.1-5.85-14.17l1.43-.68c2.31,3.94,4.88,10.14,6.03,14.21l-1.61,.64Zm-.29-18.7c1.36,0,2.46,1.1,2.46,2.49s-1.1,2.46-2.46,2.46-2.46-1.12-2.46-2.46c0-1.43,1.14-2.49,2.46-2.49Zm1.74,2.49c0-.99-.79-1.76-1.74-1.76s-1.74,.77-1.74,1.76,.77,1.74,1.74,1.74,1.74-.84,1.74-1.74Z"/><path d="M679.42,620.62h-7.26l.37,.11c-.02,.13-.2,.24-.44,.26-.57,3.98-2.38,7.94-6.8,10.17-.24-.29-.81-.79-1.19-1.08,4.33-2.16,5.85-5.5,6.36-9.46h-8.4v-1.47h17.36v1.47Zm-3.23-6.01h-12.21v-1.47h12.21v1.47Zm.29-3.23c.9,.95,1.91,2.44,2.42,3.48l-.88,.59c-.46-1.01-1.52-2.57-2.4-3.48l.86-.59Zm2.6-.75c.9,.95,1.96,2.44,2.49,3.46l-.9,.55c-.46-.97-1.56-2.53-2.42-3.43l.84-.57Z"/><path d="M695.97,617.12c-.09,.11-.22,.15-.37,.15-.11,0-.2-.02-.31-.04-1.41,1.41-3.21,2.91-4.84,4.07,.29,.11,.42,.15,.48,.2-.04,.09-.2,.2-.37,.24v9.55h-1.34v-9.18c-1.87,1.32-4.86,3.06-7.24,4.2-.18-.26-.53-.79-.79-1.03,3.78-1.74,9.46-5.06,13.27-9.24l1.52,1.08Z"/><path d="M700.01,613.75c2.29,.73,4.93,1.87,6.56,2.99l-.84,1.39c-1.58-1.12-4.18-2.29-6.42-3.06l.7-1.32Zm-.09,15.25c7.81-2.42,13-6.8,15.64-12.89,.46,.37,.97,.66,1.43,.9-2.75,6.03-8.12,10.72-15.58,13.2-.02,.2-.15,.42-.31,.51l-1.19-1.72Z"/><path d="M734.76,616.35c-.09,.13-.2,.24-.33,.33-2.33,7.28-5.94,11.68-11.9,14.72-.24-.37-.68-.88-1.12-1.21,5.66-2.75,9.2-6.97,11.07-12.96h-7.77c-1.28,1.98-2.9,3.83-4.86,5.37-.29-.31-.81-.73-1.23-.99,2.99-2.24,5.48-5.72,6.97-9.64l2.07,.57c-.07,.22-.33,.31-.62,.29-.44,.99-.95,2.05-1.45,2.93h7.66l.26-.13,1.25,.73Zm-2.73-5.06c1.03,.84,2.24,2.18,2.88,3.12l-.81,.7c-.66-1.01-1.85-2.31-2.84-3.12l.77-.7Zm3.19-.64c1.04,.84,2.24,2.16,2.88,3.12l-.81,.68c-.66-.99-1.8-2.27-2.84-3.1l.77-.7Z"/></g><g class="m"><g><polygon class="l" points="910.24 207.33 910.24 190.27 913.16 190.27 913.16 190.39 910.6 190.39 910.6 207.21 913.16 207.21 913.16 207.33 910.24 207.33"/><polygon points="913.66 189.77 909.74 189.77 909.74 207.83 913.66 207.83 913.66 206.71 911.1 206.71 911.1 190.89 913.66 190.89 913.66 189.77 913.66 189.77"/></g><g><path class="l" d="M922.02,205.09c-2.75,0-3.98-1.13-3.98-3.68v-11.13l.42,.03v7.12l.65-.2c2.94-.92,6.97-2.43,9.62-3.8l.27,.37c-2.26,1.11-6.59,2.74-10.19,3.83l-.36,.11v3.71c0,2.24,1.12,3.28,3.54,3.28h4.88c.26,0,2.26-.06,3.73-.23,0,.14,.01,.28,.02,.42-1.24,.11-2.86,.17-3.61,.17h-5Z"/><path d="M931.22,187.97l-.72,.58c.82,.76,1.88,2.04,2.44,2.92l.76-.58c-.56-.88-1.58-2.1-2.48-2.92h0Zm-2.46,1.2l-.72,.58c.84,.76,1.88,2.06,2.44,2.94l.76-.58c-.56-.88-1.56-2.12-2.48-2.94h0Zm-11.22,.58v11.66c0,2.86,1.46,4.18,4.48,4.18h5c.82,0,2.82-.08,4.14-.22-.04-.44-.06-1-.08-1.44-1.26,.2-3.4,.28-4.2,.3h-4.88c-2.06,0-3.04-.76-3.04-2.78v-3.34c3.44-1.04,8-2.72,10.42-3.94,.1,.04,.18,.06,.28,.06,.08,0,.18-.02,.24-.06l-1.02-1.38c-2.6,1.4-6.86,3-9.92,3.96v-6.52c.36-.04,.5-.16,.54-.36l-1.96-.12h0Z"/></g><g><path class="l" d="M938.84,205.32c4.46-1.95,7.04-5.2,8.48-10.68l.25,.08c-1.48,5.4-4.24,8.83-8.64,10.73-.03-.04-.06-.08-.1-.12Zm-1.5-7c-.26-1.01-.69-2.28-1.15-3.34l.13-.04c.45,.99,.91,2.32,1.17,3.33l-.15,.04Zm4.31-.77c-.14-1.09-.42-2.42-.74-3.54l.2-.04c.3,1.06,.58,2.43,.73,3.55l-.19,.04Z"/><path d="M941.44,193.37l-1.18,.26c.44,1.38,.82,3.22,.94,4.5l1.18-.22c-.14-1.28-.52-3.2-.94-4.54h0Zm5.52,.64c-1.46,5.96-4.2,9.24-8.98,11.12,.26,.22,.62,.68,.78,.92,4.84-1.96,7.78-5.54,9.34-11.38,.03,0,.05,0,.08,0,.15,0,.3-.05,.34-.2l-1.56-.46h0Zm-10.38,.32l-1.08,.34c.6,1.28,1.22,3.1,1.46,4.26l1.12-.3c-.24-1.16-.9-3.08-1.5-4.3h0Z"/></g><g><path class="l" d="M955.08,205.85v-16.35l.5,.03v16.32h-.5Zm7.84-6.91c-1.99-1.05-4.58-2.24-6.61-3.05l.26-.37c2.09,.79,4.69,1.94,6.64,2.94l-.28,.48Z"/><path d="M954.58,188.97v17.38h1.5v-10c2.18,.86,4.98,2.16,7.02,3.26l.8-1.34c-2.08-1.1-5.18-2.48-7.52-3.34l-.3,.42v-5.84c.34-.06,.5-.2,.52-.42l-2.02-.12h0Z"/></g><g><polygon class="l" points="966.94 207.33 966.94 207.21 969.52 207.21 969.52 190.39 966.94 190.39 966.94 190.27 969.88 190.27 969.88 207.33 966.94 207.33"/><polygon points="970.38 189.77 966.44 189.77 966.44 190.89 969.02 190.89 969.02 206.71 966.44 206.71 966.44 207.83 970.38 207.83 970.38 189.77 970.38 189.77"/></g></g></svg>