<?xml version="1.0" encoding="UTF-8"?><svg id="a" xmlns="http://www.w3.org/2000/svg" width="1025" height="769" viewBox="0 0 1025 769"><defs><style>.b{fill:#e1ffc9;}.b,.c,.d,.e,.f{stroke-miterlimit:10;}.b,.d,.e,.f{stroke:#000;stroke-width:.5px;}.c{fill:#3fa9f5;stroke:#231815;stroke-width:2px;}.d{fill:#fff1bf;}.g,.f{fill:#ffb48a;}.h{isolation:isolate;}.e{fill:#d4eeff;}</style></defs><g><rect class="g" x="512.11" y="439.12" width="441.11" height="128.69"/><path d="M952.78,439.56v127.81h-440.22v-127.81h440.22m.89-.89H511.67v129.58h442v-129.58h0Z"/></g><g><rect class="b" x="512.11" y="309.12" width="441.11" height="128.69"/><path class="b" d="M952.78,309.56v127.81h-440.22v-127.81h440.22m.89-.89H511.67v129.58h442v-129.58h0Z"/></g><g><rect class="d" x="512.11" y="246.21" width="441.11" height="61.83"/><path class="d" d="M952.78,246.43v61.41h-440.22v-61.41h440.22m.89-.43H511.67v62.26h442v-62.26h0Z"/></g><g><rect class="d" x="512.42" y="183.95" width="441.11" height="61.83"/><path class="d" d="M953.09,184.16v61.41h-440.22v-61.41h440.22m.89-.43H511.98v62.26h442v-62.26h0Z"/></g><g><rect class="d" x="512.42" y="121.95" width="441.11" height="61.83"/><path class="d" d="M953.09,122.16v61.41h-440.22v-61.41h440.22m.89-.43H511.98v62.26h442v-62.26h0Z"/></g><g class="h"><path d="M625.46,143.45c-.06,.12-.24,.21-.39,.27-1.62,3.84-4.2,7.17-7.11,9.6-.45-.39-1.29-.93-1.83-1.23,2.76-2.01,4.98-4.92,5.97-7.44h-21.48v-2.04h22.62l.33-.15,1.89,.99Zm-11.7,5.46c-.03,.24-.3,.45-.69,.51-.87,7.08-3.3,13.83-9.48,17.4-.42-.36-1.2-1.05-1.77-1.38,6.12-3.36,8.31-9.63,9.03-16.86l2.91,.33Z"/><path d="M628.91,144.35h19.08l.18-.09,2.04,1.56c-.09,.12-.18,.21-.36,.27-2.43,11.28-7.65,17.16-16.83,20.64-.33-.54-.93-1.32-1.35-1.77,8.73-3.21,13.77-8.79,15.72-18.54h-18.48v-2.07Zm22.86-5.37c1.8,0,3.27,1.47,3.27,3.3s-1.47,3.27-3.27,3.27-3.3-1.47-3.3-3.27c0-1.89,1.53-3.3,3.3-3.3Zm2.28,3.3c0-1.29-1.02-2.31-2.28-2.31s-2.31,1.02-2.31,2.31,1.05,2.31,2.31,2.31,2.28-1.11,2.28-2.31Z"/><path d="M659.3,157.31v-14.58l2.85,.18c-.03,.27-.24,.48-.72,.54v13.86h-2.13Zm16.71-15.75c-.03,.3-.24,.45-.72,.51v9.54c0,6.3-2.16,12.06-10.77,15.39-.3-.45-1.05-1.23-1.56-1.62,8.31-3.09,10.17-8.22,10.17-13.77v-10.23l2.88,.18Z"/><path d="M706.46,147.86v2.04h-7.44c-.09,.18-.27,.33-.54,.36-.9,6.96-3.72,13.02-10.05,16.68-.48-.45-1.29-.99-1.86-1.35,6.15-3.33,9-8.97,9.75-15.69h-8.34c-1.38,2.46-3.12,4.68-4.74,6.18-.45-.33-1.29-.78-1.89-1.05,3.24-2.79,6.72-8.64,8.16-14.22l2.88,.66c-.06,.21-.33,.45-.81,.45-.63,1.86-1.65,4.14-2.55,5.94h17.43Z"/><path d="M710.21,152.21h25.05v2.13h-23.91c-.18,.3-.57,.51-.96,.57l-.18-2.7Z"/><path d="M739.91,149.33c2.7,.6,6.06,1.74,8.07,2.7l-.9,1.89c-1.98-.96-5.43-2.16-8.07-2.76l.9-1.83Zm1.8,14.67c9.75-3.27,16.41-8.46,20.4-17.46,.45,.39,1.38,1.02,1.83,1.32-4.02,8.91-11.01,14.46-20.19,17.73,.06,.27-.09,.63-.36,.75l-1.68-2.34Zm1.5-22.11c2.7,.72,6,1.92,8.04,2.94l-.99,1.83c-2.13-1.08-5.25-2.28-7.95-3.03l.9-1.74Z"/><path d="M783.23,148.55v18.24h-1.8v-1.32h-13.47v-1.68h13.47v-6.09h-12.27v-1.68h12.27v-5.82h-12.72v-1.65h14.52Z"/><path d="M791.16,143.15c3.12,.99,6.72,2.55,8.94,4.08l-1.14,1.89c-2.16-1.53-5.7-3.12-8.76-4.17l.96-1.8Zm-.12,20.79c10.65-3.3,17.73-9.27,21.33-17.58,.63,.51,1.32,.9,1.95,1.23-3.75,8.22-11.07,14.61-21.24,18-.03,.27-.21,.57-.42,.69l-1.62-2.34Z"/><path d="M842.63,141.32v6.03h-3.93l.96,.42c-.09,.18-.33,.24-.6,.21-.36,.42-.87,.99-1.38,1.5h4.89v7.95h-18.87v-7.95h4.11c-.39-.63-.93-1.32-1.47-1.83l.6-.3h-4.89v2.82c0,5.13-.42,12.48-3.57,17.43-.36-.33-1.23-.84-1.74-1.05,3.03-4.77,3.3-11.49,3.3-16.38v-8.85h22.59Zm-2.04,4.38v-2.7h-18.54v2.7h18.54Zm-15.39,22.05v-8.88h16.08v8.82h-1.92v-.9h-12.3v.96h-1.86Zm.39-16.92v1.95h6.45v-1.95h-6.45Zm0,3.27v2.01h6.45v-2.01h-6.45Zm13.77,6.18h-12.3v1.83h12.3v-1.83Zm-12.3,5.07h12.3v-1.92h-12.3v1.92Zm1.17-18c.66,.66,1.26,1.47,1.56,2.13h5.88c.54-.63,1.17-1.44,1.62-2.13h-9.06Zm12.36,5.43v-1.95h-6.66v1.95h6.66Zm0,3.33v-2.01h-6.66v2.01h6.66Z"/></g><g class="h"><path d="M587.31,204.35h19.08l.18-.09,2.04,1.56c-.09,.12-.18,.21-.36,.27-2.43,11.28-7.65,17.16-16.83,20.64-.33-.54-.93-1.32-1.35-1.77,8.73-3.21,13.77-8.79,15.72-18.54h-18.48v-2.07Zm22.86-5.37c1.8,0,3.27,1.47,3.27,3.3s-1.47,3.27-3.27,3.27-3.3-1.47-3.3-3.27c0-1.89,1.53-3.3,3.3-3.3Zm2.28,3.3c0-1.29-1.02-2.31-2.28-2.31s-2.31,1.02-2.31,2.31,1.05,2.31,2.31,2.31,2.28-1.11,2.28-2.31Z"/><path d="M620.49,223.43c7.62-2.13,13.68-5.79,17.37-12.33,.39,.51,1.14,1.14,1.59,1.5-4.05,6.9-10.74,10.92-19.77,13.29-.06,.24-.24,.51-.48,.6l-1.26-2.1,.36-.57v-22.11l3.09,.15c-.03,.33-.3,.6-.9,.66v20.91Z"/><path d="M668.46,207.59c-.09,.15-.27,.27-.48,.33-1.35,3.27-3.72,7.35-6.27,9.81-.45-.33-1.23-.78-1.8-1.08,2.28-2.04,4.14-5.04,5.13-7.44l-11.52,3v7.68c0,2.97,1.8,3.93,4.2,3.93h4.89c1.23,0,3.3-.15,4.47-.3,0,.63,.03,1.47,.06,2.1-1.2,.12-3.3,.21-4.44,.21h-5.01c-3.78,0-6.3-1.74-6.3-5.88v-7.2l-7.56,1.95-.51-2.01,8.07-2.01v-9.21l2.88,.15c-.03,.36-.33,.51-.75,.57v7.95l12.72-3.3,.33-.24,1.89,.99Zm-6.39-7.11c1.26,1.17,2.88,3.06,3.75,4.41l-1.11,.87c-.9-1.32-2.43-3.18-3.75-4.38l1.11-.9Zm4.32-1.38c1.41,1.23,2.94,3.03,3.81,4.38l-1.14,.87c-.87-1.32-2.43-3.18-3.75-4.35l1.08-.9Z"/><path d="M675.15,203.15c3.12,.99,6.72,2.55,8.94,4.08l-1.14,1.89c-2.16-1.53-5.7-3.12-8.76-4.17l.96-1.8Zm-.12,20.79c10.65-3.3,17.73-9.27,21.33-17.58,.63,.51,1.32,.9,1.95,1.23-3.75,8.22-11.07,14.61-21.24,18-.03,.27-.21,.57-.42,.69l-1.62-2.34Z"/><path d="M726.09,212.51h-10.14l.51,.15c-.06,.18-.27,.33-.6,.36-.81,5.58-2.85,10.56-9.27,13.71-.36-.39-1.11-1.11-1.62-1.5,6.24-3,7.98-7.2,8.67-12.72h-11.67v-2.01h24.12v2.01Zm-2.97-8.46h-18.42v-2.01h18.42v2.01Z"/><path d="M730.41,212.21h25.05v2.13h-23.91c-.18,.3-.57,.51-.96,.57l-.18-2.7Z"/><path d="M760.11,209.33c2.7,.6,6.06,1.74,8.07,2.7l-.9,1.89c-1.98-.96-5.43-2.16-8.07-2.76l.9-1.83Zm1.8,14.67c9.75-3.27,16.41-8.46,20.4-17.46,.45,.39,1.38,1.02,1.83,1.32-4.02,8.91-11.01,14.46-20.19,17.73,.06,.27-.09,.63-.36,.75l-1.68-2.34Zm1.5-22.11c2.7,.72,6,1.92,8.04,2.94l-.99,1.83c-2.13-1.08-5.25-2.28-7.95-3.03l.9-1.74Z"/><path d="M803.43,208.55v18.24h-1.8v-1.32h-13.47v-1.68h13.47v-6.09h-12.27v-1.68h12.27v-5.82h-12.72v-1.65h14.52Z"/><path d="M811.36,203.15c3.12,.99,6.72,2.55,8.94,4.08l-1.14,1.89c-2.16-1.53-5.7-3.12-8.76-4.17l.96-1.8Zm-.12,20.79c10.65-3.3,17.73-9.27,21.33-17.58,.63,.51,1.32,.9,1.95,1.23-3.75,8.22-11.07,14.61-21.24,18-.03,.27-.21,.57-.42,.69l-1.62-2.34Z"/><path d="M862.83,201.32v6.03h-3.93l.96,.42c-.09,.18-.33,.24-.6,.21-.36,.42-.87,.99-1.38,1.5h4.89v7.95h-18.87v-7.95h4.11c-.39-.63-.93-1.32-1.47-1.83l.6-.3h-4.89v2.82c0,5.13-.42,12.48-3.57,17.43-.36-.33-1.23-.84-1.74-1.05,3.03-4.77,3.3-11.49,3.3-16.38v-8.85h22.59Zm-2.04,4.38v-2.7h-18.54v2.7h18.54Zm-15.39,22.05v-8.88h16.08v8.82h-1.92v-.9h-12.3v.96h-1.86Zm.39-16.92v1.95h6.45v-1.95h-6.45Zm0,3.27v2.01h6.45v-2.01h-6.45Zm13.77,6.18h-12.3v1.83h12.3v-1.83Zm-12.3,5.07h12.3v-1.92h-12.3v1.92Zm1.17-18c.66,.66,1.26,1.47,1.56,2.13h5.88c.54-.63,1.17-1.44,1.62-2.13h-9.06Zm12.36,5.43v-1.95h-6.66v1.95h6.66Zm0,3.33v-2.01h-6.66v2.01h6.66Z"/></g><g class="h"><path d="M680.96,269.56c-.09,.15-.27,.27-.48,.36-1.35,3.24-3.72,7.32-6.27,9.78-.45-.33-1.23-.78-1.8-1.08,2.28-2.04,4.14-5.04,5.13-7.44l-11.49,3v7.77c0,2.94,1.77,3.93,4.17,3.93h4.89c1.23,0,3.3-.18,4.47-.33,0,.66,.03,1.47,.06,2.1-1.2,.15-3.3,.24-4.44,.24h-5.01c-3.78,0-6.3-1.77-6.3-5.91v-7.26l-7.56,1.95-.51-2.01,8.07-2.01v-9.12l2.91,.12c-.06,.36-.33,.54-.75,.6v7.83l12.69-3.27,.33-.24,1.89,.99Z"/><path d="M687.68,270.76c.9,1.83,1.89,4.71,2.25,6.45l-1.68,.45c-.36-1.74-1.29-4.47-2.19-6.39l1.62-.51Zm17.91,.21c-.06,.27-.36,.33-.63,.3-2.34,8.76-6.75,14.13-14.01,17.07-.24-.36-.78-1.05-1.17-1.38,7.17-2.82,11.28-7.74,13.47-16.68l2.34,.69Zm-10.62-1.65c.63,2.01,1.2,4.89,1.41,6.81l-1.77,.33c-.18-1.92-.75-4.68-1.41-6.75l1.77-.39Z"/><path d="M710.81,271.33c2.7,.6,6.06,1.74,8.07,2.7l-.9,1.89c-1.98-.96-5.43-2.16-8.07-2.76l.9-1.83Zm1.8,14.67c9.75-3.27,16.41-8.46,20.4-17.46,.45,.39,1.38,1.02,1.83,1.32-4.02,8.91-11.01,14.46-20.19,17.73,.06,.27-.09,.63-.36,.75l-1.68-2.34Zm1.5-22.11c2.7,.72,6,1.92,8.04,2.94l-.99,1.83c-2.13-1.08-5.25-2.28-7.95-3.03l.9-1.74Z"/><path d="M754.13,270.55v18.24h-1.8v-1.32h-13.47v-1.68h13.47v-6.09h-12.27v-1.68h12.27v-5.82h-12.72v-1.65h14.52Z"/><path d="M762.05,265.15c3.12,.99,6.72,2.55,8.94,4.08l-1.14,1.89c-2.16-1.53-5.7-3.12-8.76-4.17l.96-1.8Zm-.12,20.79c10.65-3.3,17.73-9.27,21.33-17.58,.63,.51,1.32,.9,1.95,1.23-3.75,8.22-11.07,14.61-21.24,18-.03,.27-.21,.57-.42,.69l-1.62-2.34Z"/><path d="M813.53,263.32v6.03h-3.93l.96,.42c-.09,.18-.33,.24-.6,.21-.36,.42-.87,.99-1.38,1.5h4.89v7.95h-18.87v-7.95h4.11c-.39-.63-.93-1.32-1.47-1.83l.6-.3h-4.89v2.82c0,5.13-.42,12.48-3.57,17.43-.36-.33-1.23-.84-1.74-1.05,3.03-4.77,3.3-11.49,3.3-16.38v-8.85h22.59Zm-2.04,4.38v-2.7h-18.54v2.7h18.54Zm-15.39,22.05v-8.88h16.08v8.82h-1.92v-.9h-12.3v.96h-1.86Zm.39-16.92v1.95h6.45v-1.95h-6.45Zm0,3.27v2.01h6.45v-2.01h-6.45Zm13.77,6.18h-12.3v1.83h12.3v-1.83Zm-12.3,5.07h12.3v-1.92h-12.3v1.92Zm1.17-18c.66,.66,1.26,1.47,1.56,2.13h5.88c.54-.63,1.17-1.44,1.62-2.13h-9.06Zm12.36,5.43v-1.95h-6.66v1.95h6.66Zm0,3.33v-2.01h-6.66v2.01h6.66Z"/></g><g class="h"><path d="M648.16,379.68c-3.06-1.65-7.26-3.6-10.53-4.89v15h-2.25v-26.07l3.03,.18c-.03,.33-.27,.54-.78,.63v8.76l.45-.63c3.51,1.29,8.16,3.36,11.28,5.01l-1.2,2.01Z"/><path d="M677.32,373.47c-.06,.12-.21,.24-.39,.3-2.46,9.06-7.47,13.47-16.44,15.96-.27-.54-.84-1.29-1.26-1.74,8.16-2.04,13.23-6.24,15.12-13.2h-19.86v-2.04h20.76l.3-.18,1.77,.9Zm-2.82-6.42h-17.1v-1.98h17.1v1.98Z"/><path d="M682.75,366.15c3.12,.99,6.72,2.55,8.94,4.08l-1.14,1.89c-2.16-1.53-5.7-3.12-8.76-4.17l.96-1.8Zm-.12,20.79c10.65-3.3,17.73-9.27,21.33-17.58,.63,.51,1.32,.9,1.95,1.23-3.75,8.22-11.07,14.61-21.24,18-.03,.27-.21,.57-.42,.69l-1.62-2.34Z"/><path d="M728.8,366.81c-.06,.15-.21,.27-.39,.33-1.62,3.81-3.54,7.11-6,10.32,3.27,2.61,8.19,7.08,10.98,10.17l-1.83,1.59c-2.64-3.06-7.47-7.62-10.53-10.08-2.64,3.21-7.2,7.59-11.55,10.08-.33-.45-1.05-1.2-1.56-1.62,8.31-4.56,14.88-13.08,17.58-19.59h-14.73v-2.04h15.9l.39-.15,1.74,.99Z"/><path d="M744.76,377.01c-1.35,3.51-3.33,6.6-5.64,8.85l-1.74-1.14c2.25-2.1,4.2-4.95,5.43-8.46l1.95,.75Zm6.42-4.62v14.07c0,3.27-2.34,3.27-7.14,3.27-.12-.54-.36-1.38-.63-2.01,.87,.03,1.83,.03,2.64,.03h1.74c.84,0,1.23-.54,1.23-1.26v-14.1h-10.2v-2.04h10.2v-6.33l2.85,.15c-.03,.3-.24,.51-.69,.57v5.61h10.14v2.04h-10.14Zm5.37,3.66c2.19,2.43,4.71,5.97,6.33,8.73l-1.92,1.11c-1.47-2.73-4.11-6.6-6.12-8.88l1.71-.96Zm3.9-13.83c1.83,0,3.33,1.5,3.33,3.36s-1.5,3.36-3.33,3.36-3.39-1.5-3.39-3.36,1.56-3.36,3.39-3.36Zm2.34,3.36c0-1.32-1.05-2.4-2.34-2.4s-2.4,1.08-2.4,2.4,1.08,2.37,2.4,2.37,2.34-1.14,2.34-2.37Z"/><path d="M767.11,375.21h25.05v2.13h-23.91c-.18,.3-.57,.51-.96,.57l-.18-2.7Z"/><path d="M813.76,379.68c-3.06-1.65-7.26-3.6-10.53-4.89v15h-2.25v-26.07l3.03,.18c-.03,.33-.27,.54-.78,.63v8.76l.45-.63c3.51,1.29,8.16,3.36,11.28,5.01l-1.2,2.01Z"/><path d="M844.93,364.32v6.03h-3.93l.96,.42c-.09,.18-.33,.24-.6,.21-.36,.42-.87,.99-1.38,1.5h4.89v7.95h-18.87v-7.95h4.11c-.39-.63-.93-1.32-1.47-1.83l.6-.3h-4.89v2.82c0,5.13-.42,12.48-3.57,17.43-.36-.33-1.23-.84-1.74-1.05,3.03-4.77,3.3-11.49,3.3-16.38v-8.85h22.59Zm-2.04,4.38v-2.7h-18.54v2.7h18.54Zm-15.39,22.05v-8.88h16.08v8.82h-1.92v-.9h-12.3v.96h-1.86Zm.39-16.92v1.95h6.45v-1.95h-6.45Zm0,3.27v2.01h6.45v-2.01h-6.45Zm13.77,6.18h-12.3v1.83h12.3v-1.83Zm-12.3,5.07h12.3v-1.92h-12.3v1.92Zm1.17-18c.66,.66,1.26,1.47,1.56,2.13h5.88c.54-.63,1.17-1.44,1.62-2.13h-9.06Zm12.36,5.43v-1.95h-6.66v1.95h6.66Zm0,3.33v-2.01h-6.66v2.01h6.66Z"/></g><g class="h"><path d="M659.47,500.74c-.09,.15-.27,.24-.54,.27-1.92,2.4-4.5,4.98-7.26,7.11l.48,.12c-.06,.15-.27,.39-.66,.42v11.43h-2.13v-10.41c-3.06,2.1-7.02,4.23-10.71,5.7-.15-.21-1.14-1.44-1.38-1.68,7.26-2.7,14.16-7.17,18.27-11.97h-15.18v-1.95h17.19l.33-.21,1.59,1.17Zm-4.95-2.34c-2.61-1.38-6.69-2.73-9.87-3.63l.99-1.74c3.21,.78,7.26,2.22,9.99,3.54l-1.11,1.83Zm.21,9.63c3,1.56,6.6,3.81,8.76,5.52l-1.53,1.62c-2.01-1.68-5.73-4.11-8.61-5.64l1.38-1.5Z"/><path d="M669.58,501.76c.9,1.83,1.89,4.71,2.25,6.45l-1.68,.45c-.36-1.74-1.29-4.47-2.19-6.39l1.62-.51Zm17.91,.21c-.06,.27-.36,.33-.63,.3-2.34,8.76-6.75,14.13-14.01,17.07-.24-.36-.78-1.05-1.17-1.38,7.17-2.82,11.28-7.74,13.47-16.68l2.34,.69Zm-10.62-1.65c.63,2.01,1.2,4.89,1.41,6.81l-1.77,.33c-.18-1.92-.75-4.68-1.41-6.75l1.77-.39Z"/><path d="M709.36,509.68c-3.06-1.65-7.26-3.6-10.53-4.89v15h-2.25v-26.07l3.03,.18c-.03,.33-.27,.54-.78,.63v8.76l.45-.63c3.51,1.29,8.16,3.36,11.28,5.01l-1.2,2.01Z"/><path d="M738.76,497.05c-.09,.12-.24,.24-.39,.3-1.17,11.73-5.16,18.03-15.18,22.08-.39-.51-.99-1.17-1.5-1.62,9.57-3.9,13.32-9.6,14.31-19.44h-17.13v8.28h-2.07v-10.32h19.89l.33-.24,1.74,.96Z"/><path d="M743.41,505.21h25.05v2.13h-23.91c-.18,.3-.57,.51-.96,.57l-.18-2.7Z"/><path d="M794.17,499.42c-.12,.15-.27,.3-.45,.42-3.15,9.72-8.07,15.96-16.35,20.16-.36-.51-.93-1.2-1.53-1.65,7.86-3.81,12.72-9.81,15.21-17.76h-10.71c-1.74,2.7-4.05,5.31-6.72,7.41-.42-.42-1.11-.99-1.71-1.38,4.08-3.15,7.53-7.74,9.57-13.02l2.85,.81c-.12,.3-.48,.39-.87,.39-.6,1.32-1.23,2.58-1.92,3.78h10.56l.36-.18,1.71,1.02Z"/><path d="M823.03,494.32v6.03h-3.93l.96,.42c-.09,.18-.33,.24-.6,.21-.36,.42-.87,.99-1.38,1.5h4.89v7.95h-18.87v-7.95h4.11c-.39-.63-.93-1.32-1.47-1.83l.6-.3h-4.89v2.82c0,5.13-.42,12.48-3.57,17.43-.36-.33-1.23-.84-1.74-1.05,3.03-4.77,3.3-11.49,3.3-16.38v-8.85h22.59Zm-2.04,4.38v-2.7h-18.54v2.7h18.54Zm-15.39,22.05v-8.88h16.08v8.82h-1.92v-.9h-12.3v.96h-1.86Zm.39-16.92v1.95h6.45v-1.95h-6.45Zm0,3.27v2.01h6.45v-2.01h-6.45Zm13.77,6.18h-12.3v1.83h12.3v-1.83Zm-12.3,5.07h12.3v-1.92h-12.3v1.92Zm1.17-18c.66,.66,1.26,1.47,1.56,2.13h5.88c.54-.63,1.17-1.44,1.62-2.13h-9.06Zm12.36,5.43v-1.95h-6.66v1.95h6.66Zm0,3.33v-2.01h-6.66v2.01h6.66Z"/></g><g><rect class="e" x="512.44" y="568.27" width="441.48" height="78.46"/><path class="e" d="M953.48,568.54v77.92h-440.59v-77.92h440.59m.89-.54h-442.37v79h442.37v-79h0Z"/></g><g><rect class="e" x="512.44" y="645.22" width="441.48" height="63.78"/><path class="e" d="M953.48,645.44v63.34h-440.59v-63.34h440.59m.89-.44h-442.37v64.22h442.37v-64.22h0Z"/></g><g class="h"><path d="M660.57,600.51h-9.9l.51,.15c-.03,.18-.27,.33-.6,.36-.78,5.43-3.24,10.83-9.27,13.86-.33-.39-1.11-1.08-1.62-1.47,5.91-2.94,7.98-7.5,8.67-12.9h-11.46v-2.01h23.67v2.01Zm-4.41-8.19h-16.65v-2.01h16.65v2.01Zm.39-4.41c1.23,1.29,2.61,3.33,3.3,4.74l-1.2,.81c-.63-1.38-2.07-3.51-3.27-4.74l1.17-.81Zm3.54-1.02c1.23,1.29,2.67,3.33,3.39,4.71l-1.23,.75c-.63-1.32-2.13-3.45-3.3-4.68l1.14-.78Z"/><path d="M665.61,600.21h25.05v2.13h-23.91c-.18,.3-.57,.51-.96,.57l-.18-2.7Z"/><path d="M716.43,593.79c-.03,.15-.18,.27-.36,.33-1.11,3.72-2.61,7.14-4.41,9.93,1.29,.75,2.76,1.68,3.87,2.49l-1.26,1.98c-1.08-.84-2.61-1.83-3.87-2.61-2.76,3.84-6.3,6.93-10.83,9.12-.33-.51-1.11-1.23-1.65-1.56,4.38-2.04,7.89-5.07,10.62-8.64-2.22-1.23-4.41-2.28-6.63-3.12l1.14-1.68c2.19,.78,4.44,1.8,6.75,3.03,1.56-2.46,2.79-5.07,3.63-7.95h-10.17c-1.83,3.06-4.29,6.09-6.93,8.25-.39-.36-1.2-1.02-1.71-1.35,3.93-3,7.65-8.4,9.45-13.53l2.85,.66c-.12,.33-.42,.42-.81,.39-.42,.99-1.11,2.46-1.68,3.57h9.96l.42-.12,1.62,.81Z"/><path d="M724.2,605.31v-14.58l2.85,.18c-.03,.27-.24,.48-.72,.54v13.86h-2.13Zm16.71-15.75c-.03,.3-.24,.45-.72,.51v9.54c0,6.3-2.16,12.06-10.77,15.39-.3-.45-1.05-1.23-1.56-1.62,8.31-3.09,10.17-8.22,10.17-13.77v-10.23l2.88,.18Z"/><path d="M747.75,591.15c3.12,.99,6.72,2.55,8.94,4.08l-1.14,1.89c-2.16-1.53-5.7-3.12-8.76-4.17l.96-1.8Zm-.12,20.79c10.65-3.3,17.73-9.27,21.33-17.58,.63,.51,1.32,.9,1.95,1.23-3.75,8.22-11.07,14.61-21.24,18-.03,.27-.21,.57-.42,.69l-1.62-2.34Z"/><path d="M795.27,594.42c-.12,.15-.27,.3-.45,.42-3.15,9.72-8.07,15.96-16.35,20.16-.36-.51-.93-1.2-1.53-1.65,7.86-3.81,12.72-9.81,15.21-17.76h-10.71c-1.74,2.7-4.05,5.31-6.72,7.41-.42-.42-1.11-.99-1.71-1.38,4.08-3.15,7.53-7.74,9.57-13.02l2.85,.81c-.12,.3-.48,.39-.87,.39-.6,1.32-1.23,2.58-1.92,3.78h10.56l.36-.18,1.71,1.02Z"/><path d="M824.13,589.32v6.03h-3.93l.96,.42c-.09,.18-.33,.24-.6,.21-.36,.42-.87,.99-1.38,1.5h4.89v7.95h-18.87v-7.95h4.11c-.39-.63-.93-1.32-1.47-1.83l.6-.3h-4.89v2.82c0,5.13-.42,12.48-3.57,17.43-.36-.33-1.23-.84-1.74-1.05,3.03-4.77,3.3-11.49,3.3-16.38v-8.85h22.59Zm-2.04,4.38v-2.7h-18.54v2.7h18.54Zm-15.39,22.05v-8.88h16.08v8.82h-1.92v-.9h-12.3v.96h-1.86Zm.39-16.92v1.95h6.45v-1.95h-6.45Zm0,3.27v2.01h6.45v-2.01h-6.45Zm13.77,6.18h-12.3v1.83h12.3v-1.83Zm-12.3,5.07h12.3v-1.92h-12.3v1.92Zm1.17-18c.66,.66,1.26,1.47,1.56,2.13h5.88c.54-.63,1.17-1.44,1.62-2.13h-9.06Zm12.36,5.43v-1.95h-6.66v1.95h6.66Zm0,3.33v-2.01h-6.66v2.01h6.66Z"/></g><g class="h"><path d="M694.01,675.53l-4.23,.93v10.29h-1.98v-9.84c-1.65,.36-3.15,.69-4.35,.93-.03,.21-.18,.39-.39,.45l-.78-2.31c1.5-.24,3.42-.6,5.52-1.02v-7.74h-2.97c-.3,1.8-.66,3.45-1.11,4.71-.39-.27-1.05-.63-1.5-.84,.84-2.43,1.29-6.63,1.59-10.56l2.34,.51c-.06,.21-.27,.3-.63,.33-.09,1.26-.24,2.61-.39,3.9h2.67v-6.36l2.55,.15c-.03,.21-.18,.36-.57,.42v5.79h3.81v1.95h-3.81v7.38l4.05-.81,.18,1.74Zm14.31-10.74l1.08,.09c0,.18-.03,.48-.06,.69-.57,14.04-1.08,18.66-2.22,20.07-.57,.81-1.2,1.14-3.18,1.14-.66,0-1.41-.03-2.16-.06-.03-.6-.24-1.47-.57-2.01,1.35,.09,2.55,.12,3.09,.12,.51,0,.78-.09,1.08-.51,.87-1.02,1.47-5.4,1.95-17.61h-2.34c-.87,7.26-2.94,15.81-6.15,20.07-.42-.33-1.17-.78-1.74-.99,3.3-3.96,5.31-12,6.21-19.08h-2.58c-1.14,6.15-3.45,13.44-6.45,17.16-.45-.36-1.2-.75-1.8-.99,3.03-3.42,5.34-10.17,6.48-16.17h-2.4c-.78,2.55-1.77,4.86-2.94,6.6-.33-.33-1.08-.84-1.53-1.14,2.07-2.97,3.51-8.16,4.29-13.38l2.49,.54c-.06,.21-.27,.33-.66,.33-.3,1.74-.66,3.48-1.11,5.16h10.74l.48-.03Z"/><path d="M718.43,671.36v7.44l4.08-1.2c.03,.18,.06,.36,.24,1.74-3.48,1.11-7.17,2.31-9.48,3-.03,.24-.21,.39-.39,.45l-.81-2.22c1.23-.3,2.73-.72,4.41-1.2v-8.01h-3.72v-1.89h3.72v-6.75h-4.02v-1.92h9.9v1.92h-3.93v6.75h3.63v1.89h-3.63Zm13.62,12.57h8.4v1.86h-19.29v-1.86h9v-4.65h-7.02v-1.83h7.02v-3.51h-6.84v-13.32h15.75v13.32h-7.02v3.51h7.44v1.83h-7.44v4.65Zm-6.9-21.54v4.02h5.01v-4.02h-5.01Zm0,9.78h5.01v-4.08h-5.01v4.08Zm12.03-5.76v-4.02h-5.13v4.02h5.13Zm0,5.76v-4.08h-5.13v4.08h5.13Z"/><path d="M767.93,660.32v6.03h-3.93l.96,.42c-.09,.18-.33,.24-.6,.21-.36,.42-.87,.99-1.38,1.5h4.89v7.95h-18.87v-7.95h4.11c-.39-.63-.93-1.32-1.47-1.83l.6-.3h-4.89v2.82c0,5.13-.42,12.48-3.57,17.43-.36-.33-1.23-.84-1.74-1.05,3.03-4.77,3.3-11.49,3.3-16.38v-8.85h22.59Zm-2.04,4.38v-2.7h-18.54v2.7h18.54Zm-15.39,22.05v-8.88h16.08v8.82h-1.92v-.9h-12.3v.96h-1.86Zm.39-16.92v1.95h6.45v-1.95h-6.45Zm0,3.27v2.01h6.45v-2.01h-6.45Zm13.77,6.18h-12.3v1.83h12.3v-1.83Zm-12.3,5.07h12.3v-1.92h-12.3v1.92Zm1.17-18c.66,.66,1.26,1.47,1.56,2.13h5.88c.54-.63,1.17-1.44,1.62-2.13h-9.06Zm12.36,5.43v-1.95h-6.66v1.95h6.66Zm0,3.33v-2.01h-6.66v2.01h6.66Z"/></g><g class="h"><path d="M655.88,94.18c0,8.04-4.5,12-9.9,12-5.67,0-9.69-4.47-9.69-11.61s4.23-11.97,9.96-11.97,9.63,4.68,9.63,11.58Zm-16.98,.33c0,4.86,2.52,9.6,7.17,9.6s7.2-4.59,7.2-9.81c0-4.59-2.25-9.63-7.14-9.63s-7.23,4.98-7.23,9.84Z"/><path d="M669.86,85.78c-.66-.42-2.1-1.05-4.02-1.05-3.18,0-4.38,1.95-4.38,3.6,0,2.25,1.38,3.39,4.44,4.68,3.69,1.56,5.58,3.45,5.58,6.72,0,3.63-2.64,6.42-7.56,6.42-2.07,0-4.32-.63-5.46-1.44l.69-2.07c1.23,.81,3.06,1.41,4.92,1.41,3.06,0,4.86-1.65,4.86-4.11,0-2.25-1.23-3.63-4.2-4.83-3.45-1.29-5.79-3.3-5.79-6.45,0-3.48,2.82-6.03,6.99-6.03,2.16,0,3.81,.54,4.68,1.08l-.75,2.07Z"/><path d="M675.47,82.96h2.49v22.86h-2.49v-22.86Z"/><path d="M709.16,92.14h-7.86c2.13,2.55,5.43,4.86,8.52,6.03-.48,.39-1.05,1.11-1.35,1.59-3.45-1.5-7.14-4.44-9.45-7.62h-6.84c-2.43,3.36-5.79,5.97-9.6,7.71-.33-.39-.96-1.08-1.41-1.47,3.33-1.38,6.3-3.48,8.58-6.24h-7.77v-1.77h9.06c.6-.9,1.14-1.89,1.59-2.91-3.18,.12-6.06,.18-8.31,.24-.03,.24-.21,.36-.42,.42l-.84-2.28c1.47,0,3.21-.03,5.19-.06,1.23-1.59,2.64-3.75,3.42-5.31l2.46,.84c-.09,.18-.33,.27-.66,.27-.78,1.23-1.89,2.82-3,4.17,3.75-.06,7.98-.15,12.18-.27-1.23-.96-2.55-1.89-3.78-2.67l1.56-1.02c2.82,1.71,6.21,4.32,7.86,6.21-.87,.69-1.26,.9-1.68,1.14-.54-.63-1.26-1.35-2.1-2.1l-9.39,.36,.24,.06c-.09,.21-.33,.3-.69,.3-.39,.9-.84,1.77-1.32,2.61h15.81v1.77Zm-3.24,9.48c-.12,.21-.36,.27-.6,.24-3.57,3.51-10.5,5.67-18.24,6.69-.18-.51-.57-1.23-.96-1.68,7.47-.84,14.28-2.79,17.64-6.12l2.16,.87Zm-4.17-3.48c-.15,.18-.33,.24-.57,.21-2.76,2.1-7.74,3.99-12.24,5.01-.24-.42-.69-1.05-1.14-1.44,4.32-.9,9.27-2.61,11.94-4.65l2.01,.87Zm-3.27-3.6c-.06,.15-.27,.24-.54,.24-2.07,1.44-5.76,2.97-8.79,3.84-.3-.36-.78-.93-1.23-1.26,2.97-.78,6.6-2.19,8.58-3.66l1.98,.84Z"/><path d="M717.53,102.28c-.75,2.25-2.07,4.68-3.69,6.12l-1.83-.81c1.53-1.29,2.91-3.6,3.63-5.79l1.89,.48Zm-2.28-3.9v1.89h-1.89v-18.45h8.64v16.56h-6.75Zm4.86-14.73h-4.86v5.43h4.86v-5.43Zm-4.86,12.9h4.86v-5.64h-4.86v5.64Zm6.3,11.55c-.03-1.41-.27-3.75-.63-5.55l1.83-.18c.42,1.77,.75,4.08,.78,5.43l-1.98,.3Zm16.8-26.19c0,.18-.03,.39-.09,.6-.45,7.74-.87,7.74-4.23,7.74-.63,0-1.41-.03-2.16-.09-.06-.48-.24-1.2-.54-1.68,1.38,.12,2.67,.15,3.15,.15,.45,0,.72-.06,.93-.27,.39-.39,.66-1.68,.87-4.77h-5.52c-.66,3.51-2.16,6.18-7.05,7.65-.21-.45-.72-1.17-1.14-1.53,4.11-1.14,5.58-3.15,6.18-6.12h-5.04v-1.8h13.11l.45-.06,1.08,.18Zm-.9,9.96v8.31h-12.84v-8.31h12.84Zm-1.98,6.6v-4.89h-8.94v4.89h8.94Zm-6.45,9.66c-.27-1.44-1.08-3.81-1.89-5.58l1.89-.36c.84,1.74,1.68,4.08,1.98,5.49l-1.98,.45Zm8.43,.3c-.75-1.62-2.52-4.23-4.05-6.09l1.86-.66c1.56,1.83,3.36,4.35,4.17,6l-1.98,.75Z"/><path d="M753.59,94.72v6.78c0,1.59,.75,2.67,2.94,2.67h5.52c1.05,0,2.64-.06,3.63-.21,.03,.57,.06,1.59,.06,2.04-.96,.15-2.67,.18-3.69,.18h-5.67c-3.66,0-4.95-1.92-4.95-4.68v-6.78h-8.58v-1.98h8.58v-7.41h-6.42v-1.98h19.32v1.98h-10.74v7.41h13.59v1.98h-13.59Z"/><path d="M796.31,93.13h-9.9l.51,.15c-.03,.18-.27,.33-.6,.36-.78,5.43-3.24,10.83-9.27,13.86-.33-.39-1.11-1.08-1.62-1.47,5.91-2.94,7.98-7.5,8.67-12.9h-11.46v-2.01h23.67v2.01Zm-4.41-8.19h-16.65v-2.01h16.65v2.01Zm.39-4.41c1.23,1.29,2.61,3.33,3.3,4.74l-1.2,.81c-.63-1.38-2.07-3.51-3.27-4.74l1.17-.81Zm3.54-1.02c1.23,1.29,2.67,3.33,3.39,4.71l-1.23,.75c-.63-1.32-2.13-3.45-3.3-4.68l1.14-.78Z"/><path d="M808.22,86.05c-.03,.27-.3,.45-.69,.51-.18,8.07-.84,15.42-5.46,20.79-.48-.36-1.2-.81-1.8-1.14,4.47-4.86,5.01-12.36,5.1-20.43l2.85,.27Zm7.77,17.28c5.01-2.43,8.25-6.81,9.99-12.06,.45,.39,1.35,.9,1.86,1.17-2.13,6.06-5.85,10.53-12.24,13.56-.09,.24-.3,.48-.51,.6l-1.56-1.98,.33-.45v-22.02l2.79,.15c-.03,.27-.24,.51-.66,.57v20.46Z"/></g><g><rect class="e" x="6.17" y="582.11" width="172.65" height="73.64"/><path class="e" d="M178.65,582.36v73.13H6.35v-73.13H178.65m.35-.51H6v74.15H179v-74.15h0Z"/></g><g class="h"><path d="M39.47,593.97c-.11,.14-.28,.22-.53,.22-.08,0-.17,0-.28-.03-2.16,2.19-5.26,4.73-7.98,6.69,.22,.08,.56,.25,.67,.31-.06,.17-.31,.34-.62,.37v15.04h-2.04v-14.39c-2.97,2.1-6.83,4.37-10.67,6.24-.28-.45-.78-1.15-1.18-1.54,7.64-3.53,16.02-9.52,20.52-14.48l2.1,1.57Z"/><path d="M43.17,602.9h23.38v1.99h-22.32c-.17,.28-.53,.48-.9,.53l-.17-2.52Z"/><path d="M94.6,600.58h-5.85v1.93c0,5.35-1.65,10.78-8.96,14.08-.36-.45-.95-1.01-1.46-1.4,7.11-3.08,8.43-8.06,8.43-12.66v-1.96h-9.04v6.97h-1.99v-6.97h-5.49v-1.9h5.49v-6.08l2.69,.17c-.03,.28-.28,.53-.7,.59v5.32h9.04v-6.44l2.69,.17c-.03,.25-.25,.48-.7,.53v5.74h5.85v1.9Z"/><path d="M118.54,598.73c-.08,.14-.25,.22-.5,.25-1.79,2.24-4.2,4.65-6.78,6.64l.45,.11c-.06,.14-.25,.37-.62,.39v10.67h-1.99v-9.72c-2.86,1.96-6.55,3.95-10,5.32-.14-.2-1.06-1.34-1.29-1.57,6.78-2.52,13.22-6.69,17.05-11.17h-14.17v-1.82h16.04l.31-.2,1.48,1.09Zm-4.62-2.18c-2.44-1.29-6.24-2.55-9.21-3.39l.92-1.62c3,.73,6.78,2.07,9.32,3.3l-1.04,1.71Zm.2,8.99c2.8,1.46,6.16,3.56,8.18,5.15l-1.43,1.51c-1.88-1.57-5.35-3.84-8.04-5.26l1.29-1.4Z"/><path d="M127.98,599.68c.84,1.71,1.76,4.39,2.1,6.02l-1.57,.42c-.34-1.62-1.2-4.17-2.04-5.96l1.51-.47Zm16.72,.2c-.06,.25-.34,.31-.59,.28-2.18,8.18-6.3,13.19-13.08,15.93-.22-.34-.73-.98-1.09-1.29,6.69-2.63,10.53-7.22,12.57-15.57l2.18,.64Zm-9.91-1.54c.59,1.88,1.12,4.56,1.32,6.36l-1.65,.31c-.17-1.79-.7-4.37-1.32-6.3l1.65-.36Z"/><path d="M165.11,607.07c-2.86-1.54-6.78-3.36-9.83-4.56v14h-2.1v-24.33l2.83,.17c-.03,.31-.25,.5-.73,.59v8.18l.42-.59c3.28,1.2,7.62,3.13,10.53,4.68l-1.12,1.88Z"/><path d="M54.37,639.61c2.13-2.24,6.24-6.86,7.84-8.57,.92-.92,1.65-1.37,2.49-1.37,.95,0,1.6,.5,2.69,1.48,3.3,3,8.85,9.13,13.22,14.62l-1.68,1.54c-4.14-5.46-9.74-11.87-12.54-14.45-.67-.67-1.06-1.09-1.6-1.09-.36,0-.84,.42-1.46,1.01-1.32,1.43-5.1,5.82-6.97,7.84,.03,.05,.03,.14,.03,.2,0,.22-.11,.45-.28,.59l-1.74-1.79Z"/><path d="M85.56,633.28c.84,1.71,1.76,4.39,2.1,6.02l-1.57,.42c-.34-1.62-1.21-4.17-2.04-5.96l1.51-.47Zm16.72,.2c-.06,.25-.34,.31-.59,.28-2.18,8.18-6.3,13.19-13.08,15.93-.22-.34-.73-.98-1.09-1.29,6.69-2.63,10.53-7.22,12.57-15.57l2.18,.64Zm-9.91-1.54c.59,1.88,1.12,4.56,1.32,6.36l-1.65,.31c-.17-1.79-.7-4.37-1.32-6.3l1.65-.36Z"/><path d="M126.16,630.65c-.03,.17-.17,.22-.34,.31-1.01,3.39-2.35,6.55-4.06,9.24,1.2,.7,2.69,1.57,3.72,2.29l-1.18,1.82c-1.01-.78-2.55-1.71-3.72-2.41-2.58,3.56-5.8,6.41-10.05,8.4-.28-.48-1.01-1.15-1.51-1.48,4.09-1.85,7.28-4.56,9.83-7.92-2.07-1.15-4.23-2.18-6.27-2.94l1.09-1.54c2.04,.76,4.23,1.74,6.36,2.86,1.43-2.19,2.6-4.87,3.36-7.42h-9.24c-1.79,3.02-4,5.77-6.3,7.64-.34-.34-1.12-.95-1.57-1.26,3.64-2.8,6.86-7.7,8.54-12.49l2.6,.76c-.11,.31-.45,.39-.78,.37-.39,1.01-.9,2.1-1.43,3.11h9.07l.25-.08,1.62,.76Zm-2.58-5.57c1.32,1.04,2.88,2.72,3.72,3.92l-1.06,.87c-.79-1.12-2.44-2.94-3.67-3.92l1.01-.87Zm3.58-1.04c1.32,1.04,2.97,2.69,3.81,3.86l-1.09,.84c-.76-1.15-2.49-2.88-3.7-3.84l.98-.87Z"/></g><g><rect class="b" x="271.1" y="582.25" width="99.8" height="73.6"/><path class="b" d="M370.8,582.51v73.1h-99.6v-73.1h99.6m.2-.51h-100v74.11h100v-74.11h0Z"/></g><g class="h"><path d="M311.95,595.68h-6.3v19.35h-2.32v-19.35h-6.27v-1.96h14.9v1.96Z"/><path d="M328.27,614.38c-.98,.48-2.88,.95-5.32,.95-5.49,0-9.91-3.56-9.91-10.78s4.28-11.17,10.53-11.17c2.55,0,4.03,.53,4.7,.87l-.62,1.96c-.98-.48-2.35-.87-4.03-.87-4.84,0-8.15,3.25-8.15,9.13s3.02,8.9,8.01,8.9c1.62,0,3.22-.36,4.28-.87l.5,1.88Z"/><path d="M331.66,593.97c1.23-.22,2.86-.42,4.84-.42,6.89,0,7.45,4.42,7.45,6.1,0,5.01-4,6.8-7.78,6.8-.81,0-1.54-.03-2.18-.2v8.76h-2.32v-21.06Zm2.32,10.36c.59,.17,1.34,.22,2.24,.22,3.36,0,5.4-1.68,5.4-4.73s-2.18-4.4-5.1-4.4c-1.18,0-2.04,.11-2.55,.22v8.68Z"/><path d="M283.28,639.61c2.13-2.24,6.24-6.86,7.84-8.57,.92-.92,1.65-1.37,2.49-1.37,.95,0,1.6,.5,2.69,1.48,3.3,3,8.85,9.13,13.22,14.62l-1.68,1.54c-4.14-5.46-9.74-11.87-12.54-14.45-.67-.67-1.06-1.09-1.6-1.09-.36,0-.84,.42-1.46,1.01-1.32,1.43-5.1,5.82-6.97,7.84,.03,.06,.03,.14,.03,.2,0,.22-.11,.45-.28,.59l-1.74-1.79Z"/><path d="M314.47,633.28c.84,1.71,1.76,4.4,2.1,6.02l-1.57,.42c-.34-1.62-1.2-4.17-2.04-5.96l1.51-.48Zm16.71,.2c-.06,.25-.34,.31-.59,.28-2.18,8.18-6.3,13.19-13.08,15.93-.22-.34-.73-.98-1.09-1.29,6.69-2.63,10.53-7.22,12.57-15.57l2.18,.64Zm-9.91-1.54c.59,1.88,1.12,4.56,1.32,6.36l-1.65,.31c-.17-1.79-.7-4.37-1.32-6.3l1.65-.36Z"/><path d="M355.07,630.65c-.03,.17-.17,.22-.34,.31-1.01,3.39-2.35,6.55-4.06,9.24,1.21,.7,2.69,1.57,3.72,2.3l-1.18,1.82c-1.01-.78-2.55-1.71-3.72-2.41-2.58,3.56-5.8,6.41-10.05,8.4-.28-.48-1.01-1.15-1.51-1.48,4.09-1.85,7.28-4.56,9.83-7.92-2.07-1.15-4.23-2.18-6.27-2.94l1.09-1.54c2.04,.76,4.23,1.74,6.36,2.86,1.43-2.18,2.6-4.87,3.36-7.42h-9.24c-1.79,3.02-4,5.77-6.3,7.64-.34-.34-1.12-.95-1.57-1.26,3.64-2.8,6.86-7.7,8.54-12.49l2.6,.76c-.11,.31-.45,.39-.78,.36-.39,1.01-.9,2.1-1.43,3.11h9.07l.25-.08,1.62,.76Zm-2.58-5.57c1.32,1.04,2.88,2.72,3.72,3.92l-1.06,.87c-.78-1.12-2.44-2.94-3.67-3.92l1.01-.87Zm3.58-1.04c1.32,1.04,2.97,2.69,3.81,3.86l-1.09,.84c-.76-1.15-2.49-2.88-3.7-3.84l.98-.87Z"/></g><g><rect class="f" x="178.89" y="582.25" width="92.02" height="73.6"/><path class="f" d="M270.81,582.51v73.1h-91.84v-73.1h91.84m.19-.51h-92.21v74.11h92.21v-74.11h0Z"/></g><g class="h"><path d="M212.61,593.83h2.32v21.34h-2.32v-21.34Z"/><path d="M219.72,594.11c1.23-.22,2.86-.42,4.84-.42,6.89,0,7.45,4.42,7.45,6.1,0,5.01-4,6.8-7.78,6.8-.81,0-1.54-.03-2.18-.2v8.76h-2.32v-21.06Zm2.32,10.36c.59,.17,1.34,.22,2.24,.22,3.36,0,5.4-1.68,5.4-4.73s-2.18-4.4-5.1-4.4c-1.18,0-2.04,.11-2.55,.22v8.68Z"/><path d="M183.88,639.75c2.13-2.24,6.24-6.86,7.84-8.57,.92-.92,1.65-1.37,2.49-1.37,.95,0,1.6,.5,2.69,1.48,3.3,3,8.85,9.13,13.22,14.62l-1.68,1.54c-4.14-5.46-9.74-11.87-12.54-14.45-.67-.67-1.06-1.09-1.6-1.09-.36,0-.84,.42-1.46,1.01-1.32,1.43-5.1,5.82-6.97,7.84,.03,.06,.03,.14,.03,.2,0,.22-.11,.45-.28,.59l-1.74-1.79Z"/><path d="M215.07,633.42c.84,1.71,1.76,4.4,2.1,6.02l-1.57,.42c-.34-1.62-1.2-4.17-2.04-5.96l1.51-.48Zm16.71,.2c-.06,.25-.34,.31-.59,.28-2.18,8.18-6.3,13.19-13.08,15.93-.22-.34-.73-.98-1.09-1.29,6.69-2.63,10.53-7.22,12.57-15.57l2.18,.64Zm-9.91-1.54c.59,1.88,1.12,4.56,1.32,6.36l-1.65,.31c-.17-1.79-.7-4.37-1.32-6.3l1.65-.36Z"/><path d="M255.67,630.79c-.03,.17-.17,.22-.34,.31-1.01,3.39-2.35,6.55-4.06,9.24,1.21,.7,2.69,1.57,3.72,2.3l-1.18,1.82c-1.01-.78-2.55-1.71-3.72-2.41-2.58,3.56-5.8,6.41-10.05,8.4-.28-.48-1.01-1.15-1.51-1.48,4.09-1.85,7.28-4.56,9.83-7.92-2.07-1.15-4.23-2.18-6.27-2.94l1.09-1.54c2.04,.76,4.23,1.74,6.36,2.86,1.43-2.18,2.6-4.87,3.36-7.42h-9.24c-1.79,3.02-4,5.77-6.3,7.64-.34-.34-1.12-.95-1.57-1.26,3.64-2.8,6.86-7.7,8.54-12.49l2.6,.76c-.11,.31-.45,.39-.78,.36-.39,1.01-.9,2.1-1.43,3.11h9.07l.25-.08,1.62,.76Zm-2.58-5.57c1.32,1.04,2.88,2.72,3.72,3.92l-1.06,.87c-.78-1.12-2.44-2.94-3.67-3.92l1.01-.87Zm3.58-1.04c1.32,1.04,2.97,2.69,3.81,3.86l-1.09,.84c-.76-1.15-2.49-2.88-3.7-3.84l.98-.87Z"/></g><g><rect class="d" x="371.13" y="582.25" width="130.33" height="73.49"/><path class="d" d="M501.33,582.51v72.99h-130.06v-72.99h130.06m.26-.51h-130.59v74h130.59v-74h0Z"/></g><g class="h"><path d="M420.68,616.84h-9.24l.47,.14c-.03,.17-.25,.31-.56,.34-.73,5.07-3.03,10.11-8.65,12.94-.31-.36-1.04-1.01-1.51-1.37,5.52-2.74,7.45-7,8.09-12.04h-10.7v-1.88h22.09v1.88Zm-4.12-7.64h-15.54v-1.88h15.54v1.88Zm.36-4.12c1.15,1.2,2.44,3.11,3.08,4.42l-1.12,.76c-.59-1.29-1.93-3.28-3.05-4.42l1.09-.76Zm3.3-.95c1.15,1.2,2.49,3.11,3.16,4.4l-1.15,.7c-.59-1.23-1.99-3.22-3.08-4.37l1.06-.73Z"/><path d="M425.39,616.56h23.38v1.99h-22.32c-.17,.28-.53,.48-.9,.53l-.17-2.52Z"/><path d="M472.82,610.57c-.03,.14-.17,.25-.34,.31-1.04,3.47-2.44,6.66-4.12,9.27,1.2,.7,2.58,1.57,3.61,2.32l-1.18,1.85c-1.01-.78-2.44-1.71-3.61-2.44-2.58,3.58-5.88,6.47-10.11,8.51-.31-.48-1.04-1.15-1.54-1.46,4.09-1.9,7.36-4.73,9.91-8.06-2.07-1.15-4.12-2.13-6.19-2.91l1.06-1.57c2.04,.73,4.14,1.68,6.3,2.83,1.46-2.3,2.6-4.73,3.39-7.42h-9.49c-1.71,2.86-4,5.68-6.47,7.7-.36-.34-1.12-.95-1.6-1.26,3.67-2.8,7.14-7.84,8.82-12.63l2.66,.62c-.11,.31-.39,.39-.76,.36-.39,.92-1.04,2.3-1.57,3.33h9.3l.39-.11,1.51,.76Z"/></g><path class="c" d="M260,546.75h-12.2v-19.39c0-.23-.45-.36-1.06-.36h-20.61c-.57,0-1.06,.18-1.06,.36v19.39h-12.2l12.2,13.69v.27c0,.14,.23,.27,.53,.32l10.84,12.16,10.84-12.16c.3-.05,.53-.18,.53-.32v-.27l12.2-13.69Z"/><g><rect class="b" x="270.98" y="443.44" width="99.8" height="73.6"/><path class="b" d="M370.68,443.7v73.1h-99.6v-73.1h99.6m.2-.51h-100v74.11h100v-74.11h0Z"/></g><g class="h"><path d="M311.83,456.87h-6.3v19.35h-2.32v-19.35h-6.27v-1.96h14.9v1.96Z"/><path d="M328.15,475.57c-.98,.48-2.88,.95-5.32,.95-5.49,0-9.91-3.56-9.91-10.78s4.29-11.17,10.53-11.17c2.55,0,4.03,.53,4.7,.87l-.62,1.96c-.98-.48-2.35-.87-4.03-.87-4.84,0-8.15,3.25-8.15,9.13s3.02,8.9,8.01,8.9c1.62,0,3.22-.36,4.28-.87l.5,1.88Z"/><path d="M331.54,455.16c1.23-.22,2.86-.42,4.84-.42,6.89,0,7.45,4.42,7.45,6.1,0,5.01-4,6.8-7.78,6.8-.81,0-1.54-.03-2.18-.2v8.76h-2.32v-21.06Zm2.32,10.36c.59,.17,1.34,.22,2.24,.22,3.36,0,5.4-1.68,5.4-4.73s-2.18-4.4-5.1-4.4c-1.18,0-2.04,.11-2.55,.22v8.68Z"/><path d="M283.15,500.8c2.13-2.24,6.24-6.86,7.84-8.57,.92-.92,1.65-1.37,2.49-1.37,.95,0,1.6,.5,2.69,1.48,3.3,3,8.85,9.13,13.22,14.62l-1.68,1.54c-4.14-5.46-9.74-11.87-12.54-14.45-.67-.67-1.06-1.09-1.6-1.09-.37,0-.84,.42-1.46,1.01-1.32,1.43-5.1,5.82-6.97,7.84,.03,.06,.03,.14,.03,.2,0,.22-.11,.45-.28,.59l-1.74-1.79Z"/><path d="M314.35,494.47c.84,1.71,1.76,4.4,2.1,6.02l-1.57,.42c-.34-1.62-1.2-4.17-2.04-5.96l1.51-.48Zm16.72,.2c-.06,.25-.34,.31-.59,.28-2.18,8.18-6.3,13.19-13.08,15.93-.22-.34-.73-.98-1.09-1.29,6.69-2.63,10.53-7.22,12.57-15.57l2.18,.64Zm-9.91-1.54c.59,1.88,1.12,4.56,1.32,6.36l-1.65,.31c-.17-1.79-.7-4.37-1.32-6.3l1.65-.36Z"/><path d="M354.95,491.84c-.03,.17-.17,.22-.34,.31-1.01,3.39-2.35,6.55-4.06,9.24,1.2,.7,2.69,1.57,3.72,2.3l-1.18,1.82c-1.01-.78-2.55-1.71-3.72-2.41-2.58,3.56-5.8,6.41-10.05,8.4-.28-.48-1.01-1.15-1.51-1.48,4.09-1.85,7.28-4.56,9.83-7.92-2.07-1.15-4.23-2.18-6.27-2.94l1.09-1.54c2.04,.76,4.23,1.74,6.36,2.86,1.43-2.18,2.6-4.87,3.36-7.42h-9.24c-1.79,3.02-4,5.77-6.3,7.64-.34-.34-1.12-.95-1.57-1.26,3.64-2.8,6.86-7.7,8.54-12.49l2.6,.76c-.11,.31-.45,.39-.79,.36-.39,1.01-.9,2.1-1.43,3.11h9.07l.25-.08,1.62,.76Zm-2.58-5.57c1.32,1.04,2.88,2.72,3.72,3.92l-1.06,.87c-.78-1.12-2.44-2.94-3.67-3.92l1.01-.87Zm3.58-1.04c1.32,1.04,2.97,2.69,3.81,3.86l-1.09,.84c-.76-1.15-2.49-2.88-3.7-3.84l.98-.87Z"/></g><g><rect class="f" x="178.76" y="443.44" width="92.02" height="73.6"/><path class="f" d="M270.69,443.7v73.1h-91.84v-73.1h91.84m.19-.51h-92.21v74.11h92.21v-74.11h0Z"/></g><g class="h"><path d="M212.49,455.02h2.32v21.34h-2.32v-21.34Z"/><path d="M219.6,455.3c1.23-.22,2.86-.42,4.84-.42,6.89,0,7.45,4.42,7.45,6.1,0,5.01-4,6.8-7.78,6.8-.81,0-1.54-.03-2.18-.2v8.76h-2.32v-21.06Zm2.32,10.36c.59,.17,1.34,.22,2.24,.22,3.36,0,5.4-1.68,5.4-4.73s-2.18-4.4-5.1-4.4c-1.18,0-2.04,.11-2.55,.22v8.68Z"/><path d="M183.76,500.94c2.13-2.24,6.24-6.86,7.84-8.57,.92-.92,1.65-1.37,2.49-1.37,.95,0,1.6,.5,2.69,1.48,3.3,3,8.85,9.13,13.22,14.62l-1.68,1.54c-4.14-5.46-9.74-11.87-12.54-14.45-.67-.67-1.06-1.09-1.6-1.09-.37,0-.84,.42-1.46,1.01-1.32,1.43-5.1,5.82-6.97,7.84,.03,.06,.03,.14,.03,.2,0,.22-.11,.45-.28,.59l-1.74-1.79Z"/><path d="M214.95,494.61c.84,1.71,1.76,4.4,2.1,6.02l-1.57,.42c-.34-1.62-1.2-4.17-2.04-5.96l1.51-.48Zm16.72,.2c-.06,.25-.34,.31-.59,.28-2.18,8.18-6.3,13.19-13.08,15.93-.22-.34-.73-.98-1.09-1.29,6.69-2.63,10.53-7.22,12.57-15.57l2.18,.64Zm-9.91-1.54c.59,1.88,1.12,4.56,1.32,6.36l-1.65,.31c-.17-1.79-.7-4.37-1.32-6.3l1.65-.36Z"/><path d="M255.55,491.98c-.03,.17-.17,.22-.34,.31-1.01,3.39-2.35,6.55-4.06,9.24,1.2,.7,2.69,1.57,3.72,2.3l-1.18,1.82c-1.01-.78-2.55-1.71-3.72-2.41-2.58,3.56-5.8,6.41-10.05,8.4-.28-.48-1.01-1.15-1.51-1.48,4.09-1.85,7.28-4.56,9.83-7.92-2.07-1.15-4.23-2.18-6.27-2.94l1.09-1.54c2.04,.76,4.23,1.74,6.36,2.86,1.43-2.18,2.6-4.87,3.36-7.42h-9.24c-1.79,3.02-4,5.77-6.3,7.64-.34-.34-1.12-.95-1.57-1.26,3.64-2.8,6.86-7.7,8.54-12.49l2.6,.76c-.11,.31-.45,.39-.79,.36-.39,1.01-.9,2.1-1.43,3.11h9.07l.25-.08,1.62,.76Zm-2.58-5.57c1.32,1.04,2.88,2.72,3.72,3.92l-1.06,.87c-.78-1.12-2.44-2.94-3.67-3.92l1.01-.87Zm3.58-1.04c1.32,1.04,2.97,2.69,3.81,3.86l-1.09,.84c-.76-1.15-2.49-2.88-3.7-3.84l.98-.87Z"/></g><g><rect class="d" x="371.01" y="443.44" width="130.33" height="73.49"/><path class="d" d="M501.2,443.7v72.99h-130.06v-72.99h130.06m.26-.51h-130.59v74h130.59v-74h0Z"/></g><g class="h"><path d="M420.56,478.03h-9.24l.48,.14c-.03,.17-.25,.31-.56,.34-.73,5.07-3.02,10.11-8.65,12.94-.31-.36-1.04-1.01-1.51-1.37,5.52-2.74,7.45-7,8.09-12.04h-10.7v-1.88h22.09v1.88Zm-4.12-7.64h-15.54v-1.88h15.54v1.88Zm.36-4.12c1.15,1.2,2.44,3.11,3.08,4.42l-1.12,.76c-.59-1.29-1.93-3.28-3.05-4.42l1.09-.76Zm3.3-.95c1.15,1.2,2.49,3.11,3.16,4.4l-1.15,.7c-.59-1.23-1.99-3.22-3.08-4.37l1.06-.73Z"/><path d="M425.26,477.75h23.38v1.99h-22.32c-.17,.28-.53,.48-.9,.53l-.17-2.52Z"/><path d="M472.7,471.76c-.03,.14-.17,.25-.34,.31-1.04,3.47-2.44,6.66-4.12,9.27,1.2,.7,2.58,1.57,3.61,2.32l-1.18,1.85c-1.01-.78-2.44-1.71-3.61-2.44-2.58,3.58-5.88,6.47-10.11,8.51-.31-.48-1.04-1.15-1.54-1.46,4.09-1.9,7.36-4.73,9.91-8.06-2.07-1.15-4.12-2.13-6.19-2.91l1.06-1.57c2.04,.73,4.14,1.68,6.3,2.83,1.46-2.3,2.6-4.73,3.39-7.42h-9.49c-1.71,2.86-4,5.68-6.47,7.7-.36-.34-1.12-.95-1.6-1.26,3.67-2.8,7.14-7.84,8.82-12.63l2.66,.62c-.11,.31-.39,.39-.76,.36-.39,.92-1.04,2.3-1.57,3.33h9.3l.39-.11,1.51,.76Z"/></g><path class="c" d="M259.63,407.1h-12.2v-19.39c0-.23-.45-.36-1.06-.36h-20.61c-.57,0-1.06,.18-1.06,.36v19.39h-12.2l12.2,13.69v.27c0,.14,.23,.27,.53,.32l10.84,12.16,10.84-12.16c.3-.05,.53-.18,.53-.32v-.27l12.2-13.69Z"/><g><rect class="b" x="270.88" y="308.51" width="99.8" height="73.6"/><path class="b" d="M370.57,308.77v73.1h-99.6v-73.1h99.6m.2-.51h-100v74.11h100v-74.11h0Z"/></g><g class="h"><path d="M311.72,321.94h-6.3v19.35h-2.32v-19.35h-6.27v-1.96h14.9v1.96Z"/><path d="M328.05,340.64c-.98,.48-2.88,.95-5.32,.95-5.49,0-9.91-3.56-9.91-10.78s4.28-11.17,10.53-11.17c2.55,0,4.03,.53,4.7,.87l-.62,1.96c-.98-.48-2.35-.87-4.03-.87-4.84,0-8.15,3.25-8.15,9.13s3.02,8.9,8.01,8.9c1.62,0,3.22-.36,4.28-.87l.5,1.88Z"/><path d="M331.43,320.23c1.23-.22,2.86-.42,4.84-.42,6.89,0,7.45,4.42,7.45,6.1,0,5.01-4,6.8-7.78,6.8-.81,0-1.54-.03-2.18-.2v8.76h-2.32v-21.06Zm2.32,10.36c.59,.17,1.34,.22,2.24,.22,3.36,0,5.4-1.68,5.4-4.73s-2.18-4.4-5.1-4.4c-1.18,0-2.04,.11-2.55,.22v8.68Z"/><path d="M283.05,365.87c2.13-2.24,6.24-6.86,7.84-8.57,.92-.92,1.65-1.37,2.49-1.37,.95,0,1.6,.5,2.69,1.48,3.3,3,8.85,9.13,13.22,14.62l-1.68,1.54c-4.14-5.46-9.74-11.87-12.54-14.45-.67-.67-1.06-1.09-1.6-1.09-.36,0-.84,.42-1.46,1.01-1.32,1.43-5.1,5.82-6.97,7.84,.03,.06,.03,.14,.03,.2,0,.22-.11,.45-.28,.59l-1.74-1.79Z"/><path d="M314.24,359.54c.84,1.71,1.76,4.4,2.1,6.02l-1.57,.42c-.34-1.62-1.21-4.17-2.04-5.96l1.51-.48Zm16.72,.2c-.06,.25-.34,.31-.59,.28-2.18,8.18-6.3,13.19-13.08,15.93-.22-.34-.73-.98-1.09-1.29,6.69-2.63,10.53-7.22,12.57-15.57l2.18,.64Zm-9.91-1.54c.59,1.88,1.12,4.56,1.32,6.36l-1.65,.31c-.17-1.79-.7-4.37-1.32-6.3l1.65-.36Z"/><path d="M354.84,356.91c-.03,.17-.17,.22-.34,.31-1.01,3.39-2.35,6.55-4.06,9.24,1.2,.7,2.69,1.57,3.72,2.3l-1.18,1.82c-1.01-.78-2.55-1.71-3.72-2.41-2.58,3.56-5.8,6.41-10.05,8.4-.28-.48-1.01-1.15-1.51-1.48,4.09-1.85,7.28-4.56,9.83-7.92-2.07-1.15-4.23-2.18-6.27-2.94l1.09-1.54c2.04,.76,4.23,1.74,6.36,2.86,1.43-2.18,2.6-4.87,3.36-7.42h-9.24c-1.79,3.02-4,5.77-6.3,7.64-.34-.34-1.12-.95-1.57-1.26,3.64-2.8,6.86-7.7,8.54-12.49l2.6,.76c-.11,.31-.45,.39-.78,.36-.39,1.01-.9,2.1-1.43,3.11h9.07l.25-.08,1.62,.76Zm-2.58-5.57c1.32,1.04,2.88,2.72,3.72,3.92l-1.06,.87c-.79-1.12-2.44-2.94-3.67-3.92l1.01-.87Zm3.58-1.04c1.32,1.04,2.97,2.69,3.81,3.86l-1.09,.84c-.76-1.15-2.49-2.88-3.7-3.84l.98-.87Z"/></g><g><rect class="d" x="370.91" y="308.51" width="130.33" height="73.49"/><path class="d" d="M501.1,308.77v72.99h-130.06v-72.99h130.06m.26-.51h-130.59v74h130.59v-74h0Z"/></g><g class="h"><path d="M420.46,343.1h-9.24l.48,.14c-.03,.17-.25,.31-.56,.34-.73,5.07-3.02,10.11-8.65,12.94-.31-.36-1.04-1.01-1.51-1.37,5.52-2.74,7.45-7,8.09-12.04h-10.7v-1.88h22.09v1.88Zm-4.12-7.64h-15.54v-1.88h15.54v1.88Zm.36-4.12c1.15,1.2,2.44,3.11,3.08,4.42l-1.12,.76c-.59-1.29-1.93-3.28-3.05-4.42l1.09-.76Zm3.3-.95c1.15,1.2,2.49,3.11,3.16,4.4l-1.15,.7c-.59-1.23-1.99-3.22-3.08-4.37l1.06-.73Z"/><path d="M425.16,342.82h23.38v1.99h-22.32c-.17,.28-.53,.48-.9,.53l-.17-2.52Z"/><path d="M472.59,336.83c-.03,.14-.17,.25-.34,.31-1.04,3.47-2.44,6.66-4.12,9.27,1.2,.7,2.58,1.57,3.61,2.32l-1.18,1.85c-1.01-.78-2.44-1.71-3.61-2.44-2.58,3.58-5.88,6.47-10.11,8.51-.31-.48-1.04-1.15-1.54-1.46,4.09-1.9,7.36-4.73,9.91-8.06-2.07-1.15-4.12-2.13-6.19-2.91l1.06-1.57c2.04,.73,4.14,1.68,6.3,2.83,1.46-2.3,2.6-4.73,3.39-7.42h-9.49c-1.71,2.86-4,5.68-6.47,7.7-.36-.34-1.12-.95-1.6-1.26,3.67-2.8,7.14-7.84,8.82-12.63l2.66,.62c-.11,.31-.39,.39-.76,.36-.39,.92-1.04,2.3-1.57,3.33h9.29l.39-.11,1.51,.76Z"/></g><g><rect class="d" x="370.91" y="193.95" width="130.33" height="73.49"/><path class="d" d="M501.1,194.2v72.99h-130.06v-72.99h130.06m.26-.51h-130.59v74h130.59v-74h0Z"/></g><g class="h"><path d="M420.46,228.54h-9.24l.48,.14c-.03,.17-.25,.31-.56,.34-.73,5.07-3.02,10.11-8.65,12.94-.31-.36-1.04-1.01-1.51-1.37,5.52-2.74,7.45-7,8.09-12.04h-10.7v-1.88h22.09v1.88Zm-4.12-7.64h-15.54v-1.88h15.54v1.88Zm.36-4.12c1.15,1.2,2.44,3.11,3.08,4.42l-1.12,.76c-.59-1.29-1.93-3.28-3.05-4.42l1.09-.76Zm3.3-.95c1.15,1.2,2.49,3.11,3.16,4.4l-1.15,.7c-.59-1.23-1.99-3.22-3.08-4.37l1.06-.73Z"/><path d="M425.16,228.25h23.38v1.99h-22.32c-.17,.28-.53,.48-.9,.53l-.17-2.52Z"/><path d="M472.59,222.26c-.03,.14-.17,.25-.34,.31-1.04,3.47-2.44,6.66-4.12,9.27,1.2,.7,2.58,1.57,3.61,2.32l-1.18,1.85c-1.01-.78-2.44-1.71-3.61-2.44-2.58,3.58-5.88,6.47-10.11,8.51-.31-.48-1.04-1.15-1.54-1.46,4.09-1.9,7.36-4.73,9.91-8.06-2.07-1.15-4.12-2.13-6.19-2.91l1.06-1.57c2.04,.73,4.14,1.68,6.3,2.83,1.46-2.3,2.6-4.73,3.39-7.42h-9.49c-1.71,2.86-4,5.68-6.47,7.7-.36-.34-1.12-.95-1.6-1.26,3.67-2.8,7.14-7.84,8.82-12.63l2.66,.62c-.11,.31-.39,.39-.76,.36-.39,.92-1.04,2.3-1.57,3.33h9.29l.39-.11,1.51,.76Z"/></g><path class="c" d="M259.63,284.1h-12.2v-19.39c0-.23-.45-.36-1.06-.36h-20.61c-.57,0-1.06,.18-1.06,.36v19.39h-12.2l12.2,13.69v.27c0,.14,.23,.27,.53,.32l10.84,12.16,10.84-12.16c.3-.05,.53-.18,.53-.32v-.27l12.2-13.69Z"/><g class="h"><path d="M118.89,63.2c-.09,.24-.33,.42-.78,.45-1.2,7.2-3.69,14.79-7.2,19.23-.54-.42-1.35-.81-2.01-1.08,3.36-4.08,6-11.7,6.96-19.23l3.03,.63Zm15.09,19.5c-1.41-5.25-4.89-13.77-7.98-19.32l1.95-.93c3.15,5.37,6.66,13.83,8.22,19.38l-2.19,.87Zm-.39-25.5c1.86,0,3.36,1.5,3.36,3.39s-1.5,3.36-3.36,3.36-3.36-1.53-3.36-3.36c0-1.95,1.56-3.39,3.36-3.39Zm2.37,3.39c0-1.35-1.08-2.4-2.37-2.4s-2.37,1.05-2.37,2.4,1.05,2.37,2.37,2.37,2.37-1.14,2.37-2.37Z"/><path d="M164.37,65.66v2.04h-7.44c-.09,.18-.27,.33-.54,.36-.9,6.96-3.72,13.02-10.05,16.68-.48-.45-1.29-.99-1.86-1.35,6.15-3.33,9-8.97,9.75-15.69h-8.34c-1.38,2.46-3.12,4.68-4.74,6.18-.45-.33-1.29-.78-1.89-1.05,3.24-2.79,6.72-8.64,8.16-14.22l2.88,.66c-.06,.21-.33,.45-.81,.45-.63,1.86-1.65,4.14-2.55,5.94h17.43Z"/><path d="M170.49,66.55c.9,1.83,1.89,4.71,2.25,6.45l-1.68,.45c-.36-1.74-1.29-4.47-2.19-6.39l1.62-.51Zm17.91,.21c-.06,.27-.36,.33-.63,.3-2.34,8.76-6.75,14.13-14.01,17.07-.24-.36-.78-1.05-1.17-1.38,7.17-2.82,11.28-7.74,13.47-16.68l2.34,.69Zm-10.62-1.65c.63,2.01,1.2,4.89,1.41,6.81l-1.77,.33c-.18-1.92-.75-4.68-1.41-6.75l1.77-.39Z"/><path d="M210.27,74.47c-3.06-1.65-7.26-3.6-10.53-4.89v15h-2.25v-26.07l3.03,.18c-.03,.33-.27,.54-.78,.63v8.76l.45-.63c3.51,1.29,8.16,3.36,11.28,5.01l-1.2,2.01Z"/><path d="M231.45,63.13c-.12,.27-.36,.48-.75,.48-1.08,9.33-4.2,17.46-9.18,17.46-2.52,0-4.8-2.52-4.8-7.26,0-7.2,5.61-13.23,13.5-13.23,8.67,0,12.42,5.49,12.42,11.34,0,7.14-4.14,10.59-11.4,12.27-.27-.48-.78-1.29-1.26-1.83,6.9-1.32,10.44-4.68,10.44-10.35,0-4.95-3.18-9.45-10.2-9.45-.3,0-.63,.03-.9,.06l2.13,.51Zm-2.88-.39c-6.06,.75-9.81,5.76-9.81,11.01,0,3.21,1.38,5.22,2.82,5.22,3.63,0,6.24-8.01,6.99-16.23Z"/><path d="M252.36,69.67v9.81c2.34,3.57,6.63,3.57,12.03,3.57,3.24,0,7.05-.09,9.39-.24-.24,.48-.6,1.44-.66,2.04-2.07,.09-5.37,.15-8.34,.15-6.18,0-10.29,0-13.32-3.72-1.47,1.32-3.06,2.67-4.35,3.69,.03,.27-.06,.39-.27,.48l-1.17-2.22c1.44-.96,3.21-2.34,4.74-3.66v-7.98h-4.41v-1.92h6.36Zm-4.47-11.25c2.01,1.29,4.35,3.27,5.37,4.74l-1.59,1.35c-.99-1.5-3.27-3.54-5.28-4.89l1.5-1.2Zm25.44,13.32h-7.98c1.26,3.99,3.87,6.66,8.04,7.89-.45,.39-1.02,1.14-1.29,1.68-4.08-1.41-6.69-4.14-8.19-8.22-.87,2.82-3.03,5.79-8.1,8.1-.27-.45-.9-1.14-1.35-1.5,5.43-2.25,7.2-5.25,7.77-7.95h-8.04v-1.86h8.25c.03-.36,.03-.72,.03-1.05v-3.45h-7.29v-1.86h11.94l-1.53-.69c1.02-1.38,2.31-3.63,3-5.16l2.4,.9c-.09,.21-.3,.27-.66,.3-.78,1.38-2.07,3.36-3.12,4.65h5.22v1.86h-7.95v3.45c0,.33,0,.69-.03,1.05h8.88v1.86Zm-14.16-8.22c-.39-1.38-1.53-3.51-2.73-5.04l1.71-.72c1.23,1.5,2.43,3.54,2.82,4.92l-1.8,.84Z"/><path d="M279.84,68.26c-1.14,1.89-2.4,3.57-3.66,5.01-.21-.48-.72-1.41-1.05-1.89,2.88-3.12,5.76-8.31,7.5-13.5l2.4,.81c-.12,.21-.33,.3-.69,.27-.78,2.1-1.71,4.2-2.76,6.21l.81,.21c-.06,.18-.21,.33-.6,.36v19.89h-1.95v-17.37Zm4.02-4.92h19.8v1.71h-19.8v-1.71Zm2.22,22.2v-9.63h15.51v9.54h-2.04v-1.41h-11.52v1.5h-1.95Zm15.24-18v1.68h-14.94v-1.68h14.94Zm-14.94,5.88v-1.68h14.91v1.68h-14.91Zm14.4-14.28v1.68h-14.07v-1.68h14.07Zm-1.23,18.45h-11.52v4.77h11.52v-4.77Z"/><path d="M318.12,63.13c0,.15-.06,.3-.12,.42-.48,6.12-1.59,10.77-3.36,14.34,3.45,4.17,8.07,5.01,13.02,5.01h5.88c-.33,.48-.66,1.41-.78,1.95h-5.19c-5.37,0-10.26-.96-13.89-5.22-1.62,2.61-3.69,4.56-6.18,5.97-.3-.48-.84-1.23-1.26-1.62,2.49-1.29,4.56-3.27,6.18-6.09-1.26-1.92-2.28-4.32-3.09-7.38-.63,1.71-1.35,3.21-2.16,4.47-.3-.36-.99-1.05-1.41-1.38,2.28-3.48,3.6-9.63,4.35-15.93l2.55,.48c-.09,.24-.27,.36-.66,.36-.21,1.47-.42,2.94-.69,4.38h5.34l.36-.06,1.11,.3Zm-7.17,1.53c-.21,.99-.45,1.95-.69,2.91,.75,3.57,1.8,6.33,3.09,8.46,1.32-2.97,2.22-6.75,2.64-11.37h-5.04Zm11.52-3.06v4.23c0,4.11-.48,9.96-3.39,13.98-.36-.33-1.17-.87-1.62-1.08,2.79-3.84,3.12-9.12,3.12-12.93v-5.97h9.06v16.23c0,1.47,.03,1.71,.63,1.71,1.02,0,1.14,0,1.29-.24,.36-.3,.36-3.27,.36-5.13,.39,.33,.99,.63,1.5,.78-.09,4.95-.18,6.33-2.34,6.33h-1.29c-2.1,0-2.1-1.41-2.1-3.66v-14.25h-5.22Z"/><path d="M341.94,70.15v7.44l4.08-1.2c.03,.18,.06,.36,.24,1.74-3.48,1.11-7.17,2.31-9.48,3-.03,.24-.21,.39-.39,.45l-.81-2.22c1.23-.3,2.73-.72,4.41-1.2v-8.01h-3.72v-1.89h3.72v-6.75h-4.02v-1.92h9.9v1.92h-3.93v6.75h3.63v1.89h-3.63Zm13.62,12.57h8.4v1.86h-19.29v-1.86h9v-4.65h-7.02v-1.83h7.02v-3.51h-6.84v-13.32h15.75v13.32h-7.02v3.51h7.44v1.83h-7.44v4.65Zm-6.9-21.54v4.02h5.01v-4.02h-5.01Zm0,9.78h5.01v-4.08h-5.01v4.08Zm12.03-5.76v-4.02h-5.13v4.02h5.13Zm0,5.76v-4.08h-5.13v4.08h5.13Z"/><path d="M165.57,109.33c2.28-2.4,6.69-7.35,8.4-9.18,.99-.99,1.77-1.47,2.67-1.47,1.02,0,1.71,.54,2.88,1.59,3.54,3.21,9.48,9.78,14.16,15.66l-1.8,1.65c-4.44-5.85-10.44-12.72-13.44-15.48-.72-.72-1.14-1.17-1.71-1.17-.39,0-.9,.45-1.56,1.08-1.41,1.53-5.46,6.24-7.47,8.4,.03,.06,.03,.15,.03,.21,0,.24-.12,.48-.3,.63l-1.86-1.92Z"/><path d="M198.99,102.55c.9,1.83,1.89,4.71,2.25,6.45l-1.68,.45c-.36-1.74-1.29-4.47-2.19-6.39l1.62-.51Zm17.91,.21c-.06,.27-.36,.33-.63,.3-2.34,8.76-6.75,14.13-14.01,17.07-.24-.36-.78-1.05-1.17-1.38,7.17-2.82,11.28-7.74,13.47-16.68l2.34,.69Zm-10.62-1.65c.63,2.01,1.2,4.89,1.41,6.81l-1.77,.33c-.18-1.92-.75-4.68-1.41-6.75l1.77-.39Z"/><path d="M242.49,99.74c-.03,.18-.18,.24-.36,.33-1.08,3.63-2.52,7.02-4.35,9.9,1.29,.75,2.88,1.68,3.99,2.46l-1.26,1.95c-1.08-.84-2.73-1.83-3.99-2.58-2.76,3.81-6.21,6.87-10.77,9-.3-.51-1.08-1.23-1.62-1.59,4.38-1.98,7.8-4.89,10.53-8.49-2.22-1.23-4.53-2.34-6.72-3.15l1.17-1.65c2.19,.81,4.53,1.86,6.81,3.06,1.53-2.34,2.79-5.22,3.6-7.95h-9.9c-1.92,3.24-4.29,6.18-6.75,8.19-.36-.36-1.2-1.02-1.68-1.35,3.9-3,7.35-8.25,9.15-13.38l2.79,.81c-.12,.33-.48,.42-.84,.39-.42,1.08-.96,2.25-1.53,3.33h9.72l.27-.09,1.74,.81Zm-2.76-5.97c1.41,1.11,3.09,2.91,3.99,4.2l-1.14,.93c-.84-1.2-2.61-3.15-3.93-4.2l1.08-.93Zm3.84-1.11c1.41,1.11,3.18,2.88,4.08,4.14l-1.17,.9c-.81-1.23-2.67-3.09-3.96-4.11l1.05-.93Z"/><path d="M253.2,104.33c-1.2,1.95-2.52,3.69-3.87,5.13-.24-.48-.75-1.44-1.08-1.89,3.03-3.12,6-8.37,7.77-13.68l2.46,.81c-.12,.21-.33,.3-.69,.3-.81,2.16-1.77,4.29-2.85,6.33l.84,.24c-.03,.21-.21,.33-.57,.39v19.59h-2.01v-17.22Zm23.46-3.87v2.01h-4.2v16.23c0,1.59-.45,2.22-1.5,2.55-1.08,.36-3,.39-6.15,.36-.12-.54-.48-1.47-.78-2.04,1.26,.03,2.46,.06,3.45,.06,2.79,0,2.97,0,2.97-.93v-16.23h-12.69v-2.01h12.69v-6.42l2.61,.15c-.03,.21-.18,.36-.6,.42v5.85h4.2Zm-15.33,5.28c1.89,2.31,3.9,5.46,4.68,7.53l-1.86,.96c-.75-2.04-2.7-5.28-4.56-7.65l1.74-.84Z"/><path d="M290.58,99.58l.48-.03,1.05,.06c0,.18-.03,.48-.03,.72-.24,13.83-.48,18.24-1.35,19.5-.66,.93-1.26,1.14-3.45,1.14-.6,0-1.26-.03-1.92-.06-.06-.6-.24-1.44-.57-2.01,1.38,.12,2.64,.12,3.15,.12,.48,0,.75-.09,1.02-.48,.63-.87,.93-5.01,1.14-16.98h-4.92c-.27,7.98-1.23,15.42-5.01,19.98-.33-.45-1.05-1.02-1.56-1.32,3.48-4.08,4.35-10.98,4.59-18.66h-4.11v-1.98h4.17c.03-1.92,.03-3.9,.03-5.88l2.76,.15c-.06,.27-.27,.45-.75,.51,0,1.74-.03,3.48-.06,5.22h5.34Zm4.35-2.31h10.2v23.34h-2.01v-2.01h-6.24v2.25h-1.95v-23.58Zm1.95,19.38h6.24v-17.43h-6.24v17.43Z"/></g></svg>