<?xml version="1.0" encoding="UTF-8"?><svg id="a" xmlns="http://www.w3.org/2000/svg" width="1025" height="769" viewBox="0 0 1025 769"><defs><style>.b{fill:#e1ffc9;}.b,.c,.d,.e{stroke:#000;stroke-miterlimit:10;stroke-width:.5px;}.c{fill:#fff1bf;}.f{isolation:isolate;}.d{fill:#d4eeff;}.e{fill:#ffb48a;}</style></defs><g><rect class="d" x="10.28" y="147.11" width="282.43" height="73.64"/><path class="d" d="M292.43,147.36v73.13H10.57v-73.13H292.43m.57-.51H10v74.15H293v-74.15h0Z"/></g><g class="f"><path d="M65.69,172.97c-.11,.14-.28,.22-.53,.22-.08,0-.17,0-.28-.03-2.16,2.19-5.26,4.73-7.98,6.69,.22,.08,.56,.25,.67,.31-.06,.17-.31,.34-.62,.37v15.04h-2.04v-14.39c-2.97,2.1-6.83,4.37-10.67,6.24-.28-.45-.78-1.15-1.18-1.54,7.64-3.53,16.02-9.52,20.52-14.48l2.1,1.57Z"/><path d="M69.38,181.9h23.38v1.99h-22.32c-.17,.28-.53,.48-.9,.53l-.17-2.52Z"/><path d="M120.82,179.58h-5.85v1.93c0,5.35-1.65,10.78-8.96,14.08-.36-.45-.95-1.01-1.46-1.4,7.11-3.08,8.43-8.06,8.43-12.66v-1.96h-9.04v6.97h-1.99v-6.97h-5.49v-1.9h5.49v-6.08l2.69,.17c-.03,.28-.28,.53-.7,.59v5.32h9.04v-6.44l2.69,.17c-.03,.25-.25,.48-.7,.53v5.74h5.85v1.9Z"/><path d="M144.76,177.73c-.08,.14-.25,.22-.5,.25-1.79,2.24-4.2,4.65-6.78,6.64l.45,.11c-.06,.14-.25,.37-.62,.39v10.67h-1.99v-9.72c-2.86,1.96-6.55,3.95-10,5.32-.14-.2-1.06-1.34-1.29-1.57,6.78-2.52,13.22-6.69,17.05-11.17h-14.17v-1.82h16.04l.31-.2,1.48,1.09Zm-4.62-2.18c-2.44-1.29-6.24-2.55-9.21-3.39l.92-1.62c3,.73,6.78,2.07,9.32,3.3l-1.04,1.71Zm.2,8.99c2.8,1.46,6.16,3.56,8.18,5.15l-1.43,1.51c-1.88-1.57-5.35-3.84-8.04-5.26l1.29-1.4Z"/><path d="M154.2,178.68c.84,1.71,1.76,4.39,2.1,6.02l-1.57,.42c-.34-1.62-1.21-4.17-2.04-5.96l1.51-.47Zm16.72,.2c-.06,.25-.34,.31-.59,.28-2.18,8.18-6.3,13.19-13.08,15.93-.22-.34-.73-.98-1.09-1.29,6.69-2.63,10.53-7.22,12.57-15.57l2.18,.64Zm-9.91-1.54c.59,1.88,1.12,4.56,1.32,6.36l-1.65,.31c-.17-1.79-.7-4.37-1.32-6.3l1.65-.36Z"/><path d="M191.33,186.07c-2.86-1.54-6.78-3.36-9.83-4.56v14h-2.1v-24.33l2.83,.17c-.03,.31-.25,.5-.73,.59v8.18l.42-.59c3.28,1.2,7.62,3.13,10.53,4.68l-1.12,1.88Z"/><path d="M196.37,185.01c2.13-2.24,6.24-6.86,7.84-8.57,.92-.92,1.65-1.37,2.49-1.37,.95,0,1.6,.5,2.69,1.48,3.3,3,8.85,9.13,13.21,14.62l-1.68,1.54c-4.14-5.46-9.74-11.87-12.54-14.45-.67-.67-1.06-1.09-1.6-1.09-.36,0-.84,.42-1.46,1.01-1.32,1.43-5.1,5.82-6.97,7.84,.03,.05,.03,.14,.03,.2,0,.22-.11,.45-.28,.59l-1.74-1.79Z"/><path d="M227.56,178.68c.84,1.71,1.76,4.39,2.1,6.02l-1.57,.42c-.34-1.62-1.2-4.17-2.04-5.96l1.51-.47Zm16.72,.2c-.06,.25-.34,.31-.59,.28-2.18,8.18-6.3,13.19-13.08,15.93-.22-.34-.73-.98-1.09-1.29,6.69-2.63,10.53-7.22,12.57-15.57l2.18,.64Zm-9.91-1.54c.59,1.88,1.12,4.56,1.32,6.36l-1.65,.31c-.17-1.79-.7-4.37-1.32-6.3l1.65-.36Z"/><path d="M268.16,176.05c-.03,.17-.17,.22-.34,.31-1.01,3.39-2.35,6.55-4.06,9.24,1.2,.7,2.69,1.57,3.72,2.29l-1.18,1.82c-1.01-.78-2.55-1.71-3.72-2.41-2.58,3.56-5.8,6.41-10.05,8.4-.28-.48-1.01-1.15-1.51-1.48,4.09-1.85,7.28-4.56,9.83-7.92-2.07-1.15-4.23-2.18-6.27-2.94l1.09-1.54c2.04,.76,4.23,1.74,6.36,2.86,1.43-2.19,2.6-4.87,3.36-7.42h-9.24c-1.79,3.02-4,5.77-6.3,7.64-.34-.34-1.12-.95-1.57-1.26,3.64-2.8,6.86-7.7,8.54-12.49l2.6,.76c-.11,.31-.45,.39-.78,.37-.39,1.01-.9,2.1-1.43,3.11h9.07l.25-.08,1.62,.76Zm-2.58-5.57c1.32,1.04,2.88,2.72,3.72,3.92l-1.06,.87c-.78-1.12-2.44-2.94-3.67-3.92l1.01-.87Zm3.58-1.04c1.32,1.04,2.97,2.69,3.81,3.86l-1.09,.84c-.76-1.15-2.49-2.88-3.7-3.84l.98-.87Z"/></g><g><rect class="b" x="575.21" y="147.25" width="206.58" height="73.6"/><path class="b" d="M781.58,147.51v73.1h-206.17v-73.1h206.17m.42-.51h-207v74.11h207v-74.11h0Z"/></g><g class="f"><path d="M632.17,173.68h-6.3v19.35h-2.32v-19.35h-6.27v-1.96h14.9v1.96Z"/><path d="M648.49,192.38c-.98,.48-2.88,.95-5.32,.95-5.49,0-9.91-3.56-9.91-10.78s4.29-11.17,10.53-11.17c2.55,0,4.03,.53,4.7,.87l-.62,1.96c-.98-.48-2.35-.87-4.03-.87-4.84,0-8.15,3.25-8.15,9.13s3.02,8.9,8.01,8.9c1.62,0,3.22-.36,4.28-.87l.5,1.88Z"/><path d="M651.88,171.97c1.23-.22,2.86-.42,4.84-.42,6.89,0,7.45,4.42,7.45,6.1,0,5.01-4,6.8-7.78,6.8-.81,0-1.54-.03-2.18-.2v8.76h-2.32v-21.06Zm2.32,10.36c.59,.17,1.34,.22,2.24,.22,3.36,0,5.4-1.68,5.4-4.73s-2.18-4.4-5.1-4.4c-1.18,0-2.04,.11-2.55,.22v8.68Z"/><path d="M666.36,184.01c2.13-2.24,6.24-6.86,7.84-8.57,.92-.92,1.65-1.37,2.49-1.37,.95,0,1.6,.5,2.69,1.48,3.3,3,8.85,9.13,13.22,14.62l-1.68,1.54c-4.14-5.46-9.74-11.87-12.54-14.45-.67-.67-1.06-1.09-1.6-1.09-.36,0-.84,.42-1.46,1.01-1.32,1.43-5.1,5.82-6.97,7.84,.03,.06,.03,.14,.03,.2,0,.22-.11,.45-.28,.59l-1.74-1.79Z"/><path d="M697.55,177.68c.84,1.71,1.76,4.4,2.1,6.02l-1.57,.42c-.34-1.62-1.21-4.17-2.04-5.96l1.51-.48Zm16.72,.2c-.06,.25-.34,.31-.59,.28-2.18,8.18-6.3,13.19-13.08,15.93-.22-.34-.73-.98-1.09-1.29,6.69-2.63,10.53-7.22,12.57-15.57l2.18,.64Zm-9.91-1.54c.59,1.88,1.12,4.56,1.32,6.36l-1.65,.31c-.17-1.79-.7-4.37-1.32-6.3l1.65-.36Z"/><path d="M738.15,175.05c-.03,.17-.17,.22-.34,.31-1.01,3.39-2.35,6.55-4.06,9.24,1.2,.7,2.69,1.57,3.72,2.3l-1.18,1.82c-1.01-.78-2.55-1.71-3.72-2.41-2.58,3.56-5.8,6.41-10.05,8.4-.28-.48-1.01-1.15-1.51-1.48,4.09-1.85,7.28-4.56,9.83-7.92-2.07-1.15-4.23-2.18-6.27-2.94l1.09-1.54c2.04,.76,4.23,1.74,6.36,2.86,1.43-2.18,2.6-4.87,3.36-7.42h-9.24c-1.79,3.02-4,5.77-6.3,7.64-.34-.34-1.12-.95-1.57-1.26,3.64-2.8,6.86-7.7,8.54-12.49l2.6,.76c-.11,.31-.45,.39-.78,.36-.39,1.01-.9,2.1-1.43,3.11h9.07l.25-.08,1.62,.76Zm-2.58-5.57c1.32,1.04,2.88,2.72,3.72,3.92l-1.06,.87c-.79-1.12-2.44-2.94-3.67-3.92l1.01-.87Zm3.58-1.04c1.32,1.04,2.97,2.69,3.81,3.86l-1.09,.84c-.76-1.15-2.49-2.88-3.7-3.84l.98-.87Z"/></g><g><rect class="e" x="293.28" y="147.25" width="281.43" height="73.6"/><path class="e" d="M574.43,147.51v73.1H293.57v-73.1h280.87m.57-.51H293v74.11h282v-74.11h0Z"/></g><g class="f"><path d="M378.83,171.83h2.32v21.34h-2.32v-21.34Z"/><path d="M385.94,172.11c1.23-.22,2.86-.42,4.84-.42,6.89,0,7.45,4.42,7.45,6.1,0,5.01-4,6.8-7.78,6.8-.81,0-1.54-.03-2.18-.2v8.76h-2.32v-21.06Zm2.32,10.36c.59,.17,1.34,.22,2.24,.22,3.36,0,5.4-1.68,5.4-4.73s-2.18-4.4-5.1-4.4c-1.18,0-2.04,.11-2.55,.22v8.68Z"/><path d="M400.42,184.15c2.13-2.24,6.24-6.86,7.84-8.57,.92-.92,1.65-1.37,2.49-1.37,.95,0,1.6,.5,2.69,1.48,3.3,3,8.85,9.13,13.22,14.62l-1.68,1.54c-4.14-5.46-9.74-11.87-12.54-14.45-.67-.67-1.06-1.09-1.6-1.09-.37,0-.84,.42-1.46,1.01-1.32,1.43-5.1,5.82-6.97,7.84,.03,.06,.03,.14,.03,.2,0,.22-.11,.45-.28,.59l-1.74-1.79Z"/><path d="M431.61,177.82c.84,1.71,1.76,4.4,2.1,6.02l-1.57,.42c-.34-1.62-1.2-4.17-2.04-5.96l1.51-.48Zm16.72,.2c-.06,.25-.34,.31-.59,.28-2.18,8.18-6.3,13.19-13.08,15.93-.22-.34-.73-.98-1.09-1.29,6.69-2.63,10.53-7.22,12.57-15.57l2.18,.64Zm-9.91-1.54c.59,1.88,1.12,4.56,1.32,6.36l-1.65,.31c-.17-1.79-.7-4.37-1.32-6.3l1.65-.36Z"/><path d="M472.21,175.19c-.03,.17-.17,.22-.34,.31-1.01,3.39-2.35,6.55-4.06,9.24,1.2,.7,2.69,1.57,3.72,2.3l-1.18,1.82c-1.01-.78-2.55-1.71-3.72-2.41-2.58,3.56-5.8,6.41-10.05,8.4-.28-.48-1.01-1.15-1.51-1.48,4.09-1.85,7.28-4.56,9.83-7.92-2.07-1.15-4.23-2.18-6.27-2.94l1.09-1.54c2.04,.76,4.23,1.74,6.36,2.86,1.43-2.18,2.6-4.87,3.36-7.42h-9.24c-1.79,3.02-4,5.77-6.3,7.64-.34-.34-1.12-.95-1.57-1.26,3.64-2.8,6.86-7.7,8.54-12.49l2.6,.76c-.11,.31-.45,.39-.79,.36-.39,1.01-.9,2.1-1.43,3.11h9.07l.25-.08,1.62,.76Zm-2.58-5.57c1.32,1.04,2.88,2.72,3.72,3.92l-1.06,.87c-.78-1.12-2.44-2.94-3.67-3.92l1.01-.87Zm3.58-1.04c1.32,1.04,2.97,2.69,3.81,3.86l-1.09,.84c-.76-1.15-2.49-2.88-3.7-3.84l.98-.87Z"/></g><g><rect class="c" x="782.13" y="147.25" width="130.33" height="73.49"/><path class="c" d="M912.33,147.51v72.99h-130.06v-72.99h130.06m.26-.51h-130.59v74h130.59v-74h0Z"/></g><g class="f"><path d="M831.68,181.84h-9.24l.47,.14c-.03,.17-.25,.31-.56,.34-.73,5.07-3.03,10.11-8.65,12.94-.31-.36-1.04-1.01-1.51-1.37,5.52-2.74,7.45-7,8.09-12.04h-10.7v-1.88h22.09v1.88Zm-4.12-7.64h-15.54v-1.88h15.54v1.88Zm.36-4.12c1.15,1.2,2.44,3.11,3.08,4.42l-1.12,.76c-.59-1.29-1.93-3.28-3.05-4.42l1.09-.76Zm3.3-.95c1.15,1.2,2.49,3.11,3.16,4.4l-1.15,.7c-.59-1.23-1.99-3.22-3.08-4.37l1.06-.73Z"/><path d="M836.39,181.56h23.38v1.99h-22.32c-.17,.28-.53,.48-.9,.53l-.17-2.52Z"/><path d="M883.82,175.57c-.03,.14-.17,.25-.34,.31-1.04,3.47-2.44,6.66-4.12,9.27,1.2,.7,2.58,1.57,3.61,2.32l-1.18,1.85c-1.01-.78-2.44-1.71-3.61-2.44-2.58,3.58-5.88,6.47-10.11,8.51-.31-.48-1.04-1.15-1.54-1.46,4.09-1.9,7.36-4.73,9.91-8.06-2.07-1.15-4.12-2.13-6.19-2.91l1.06-1.57c2.04,.73,4.14,1.68,6.3,2.83,1.46-2.3,2.6-4.73,3.39-7.42h-9.49c-1.71,2.86-4,5.68-6.47,7.7-.36-.34-1.12-.95-1.6-1.26,3.67-2.8,7.14-7.84,8.82-12.63l2.66,.62c-.11,.31-.39,.39-.76,.36-.39,.92-1.04,2.3-1.57,3.33h9.3l.39-.11,1.51,.76Z"/></g><g class="f"><path d="M375.03,56.3h-9.9l.51,.15c-.03,.18-.27,.33-.6,.36-.78,5.43-3.24,10.83-9.27,13.86-.33-.39-1.11-1.08-1.62-1.47,5.91-2.94,7.98-7.5,8.67-12.9h-11.46v-2.01h23.67v2.01Zm-4.41-8.19h-16.65v-2.01h16.65v2.01Zm.39-4.41c1.23,1.29,2.61,3.33,3.3,4.74l-1.2,.81c-.63-1.38-2.07-3.51-3.27-4.74l1.17-.81Zm3.54-1.02c1.23,1.29,2.67,3.33,3.39,4.71l-1.23,.75c-.63-1.32-2.13-3.45-3.3-4.68l1.14-.78Z"/><path d="M380.07,56h25.05v2.13h-23.91c-.18,.3-.57,.51-.96,.57l-.18-2.7Z"/><path d="M430.89,49.58c-.03,.15-.18,.27-.36,.33-1.11,3.72-2.61,7.14-4.41,9.93,1.29,.75,2.76,1.68,3.87,2.49l-1.26,1.98c-1.08-.84-2.61-1.83-3.87-2.61-2.76,3.84-6.3,6.93-10.83,9.12-.33-.51-1.11-1.23-1.65-1.56,4.38-2.04,7.89-5.07,10.62-8.64-2.22-1.23-4.41-2.28-6.63-3.12l1.14-1.68c2.19,.78,4.44,1.8,6.75,3.03,1.56-2.46,2.79-5.07,3.63-7.95h-10.17c-1.83,3.06-4.29,6.09-6.93,8.25-.39-.36-1.2-1.02-1.71-1.35,3.93-3,7.65-8.4,9.45-13.53l2.85,.66c-.12,.33-.42,.42-.81,.39-.42,.99-1.11,2.46-1.68,3.57h9.96l.42-.12,1.62,.81Z"/><path d="M438.66,61.1v-14.58l2.85,.18c-.03,.27-.24,.48-.72,.54v13.86h-2.13Zm16.71-15.75c-.03,.3-.24,.45-.72,.51v9.54c0,6.3-2.16,12.06-10.77,15.39-.3-.45-1.05-1.23-1.56-1.62,8.31-3.09,10.17-8.22,10.17-13.77v-10.23l2.88,.18Z"/><path d="M462.21,46.95c3.12,.99,6.72,2.55,8.94,4.08l-1.14,1.89c-2.16-1.53-5.7-3.12-8.76-4.17l.96-1.8Zm-.12,20.79c10.65-3.3,17.73-9.27,21.33-17.58,.63,.51,1.32,.9,1.95,1.23-3.75,8.22-11.07,14.61-21.24,18-.03,.27-.21,.57-.42,.69l-1.62-2.34Z"/><path d="M509.73,50.21c-.12,.15-.27,.3-.45,.42-3.15,9.72-8.07,15.96-16.35,20.16-.36-.51-.93-1.2-1.53-1.65,7.86-3.81,12.72-9.81,15.21-17.76h-10.71c-1.74,2.7-4.05,5.31-6.72,7.41-.42-.42-1.11-.99-1.71-1.38,4.08-3.15,7.53-7.74,9.57-13.02l2.85,.81c-.12,.3-.48,.39-.87,.39-.6,1.32-1.23,2.58-1.92,3.78h10.56l.36-.18,1.71,1.02Z"/><path d="M538.77,56.51c-.06,.03-.12,.06-.18,.06-.18,0-.33-.09-.45-.18-2.28,.75-5.61,1.98-8.1,3.06,.06,.69,.09,1.47,.09,2.34,0,.96-.03,2.04-.09,3.21l-2.19,.12c.09-1.08,.15-2.46,.15-3.63,0-.45,0-.87-.03-1.2-3.39,1.65-6.15,3.66-6.15,5.46s2.07,2.58,6.21,2.58c2.91,0,5.61-.06,7.53-.3l.03,2.01c-1.77,.18-4.47,.24-7.56,.24-5.76,0-8.31-1.38-8.31-4.44,0-2.64,3.48-5.19,7.98-7.44-.18-1.89-1.02-2.82-2.22-2.82-2.19,0-4.47,1.23-7.17,4.23-.84,.93-2.01,2.1-3.3,3.27l-1.47-1.47c3-2.64,5.82-5.16,7.56-11.07l-1.68,.03h-5.01v-1.95c1.83,.03,3.96,.03,5.19,.03l2.04-.03c.33-1.38,.6-2.67,.81-4.29l2.94,.36c-.06,.3-.3,.48-.75,.54-.21,1.2-.48,2.25-.75,3.33,2.04-.03,6.42-.51,10.32-1.74l.36,2.01c-3.75,1.17-8.28,1.59-11.25,1.68-.72,2.25-1.47,4.05-2.16,5.07h.03c1.32-1.17,3.3-1.95,4.83-1.95,2.04,0,3.33,1.47,3.72,3.9,2.52-1.14,5.7-2.37,8.1-3.3l.93,2.28Z"/><path d="M542.77,52.13c1.95,.75,4.38,2.07,5.61,3.09l-1.14,1.68c-1.2-1.02-3.6-2.4-5.55-3.24l1.08-1.53Zm-.21,17.67c1.56-2.37,3.78-6.45,5.43-9.9l1.53,1.26c-1.5,3.21-3.48,6.99-4.95,9.36,.12,.15,.15,.3,.15,.42s-.03,.24-.09,.33l-2.07-1.47Zm1.83-25.86c1.92,.84,4.29,2.22,5.46,3.3l-1.17,1.65c-1.14-1.11-3.48-2.58-5.43-3.48l1.14-1.47Zm10.23,17.31c0,3.39-.48,7.29-4.56,10.26-.33-.45-.99-1.05-1.47-1.35,3.78-2.61,4.17-6.09,4.17-8.97v-3.18l2.43,.15c-.03,.21-.18,.33-.57,.39v2.7Zm-4.29-6.42l3.48-.09c.96-1.47,1.98-3.51,2.7-5.19h-6.54v-1.86h8.19v-4.02l2.64,.15c-.03,.24-.18,.36-.6,.42v3.45h9.21v1.86h-10.14c-.09,.21-.3,.27-.63,.27-.69,1.41-1.74,3.3-2.7,4.86,2.73-.09,5.82-.21,8.85-.33-.87-.93-1.83-1.89-2.73-2.67l1.56-.87c2.19,1.8,4.62,4.41,5.73,6.24l-1.65,1.02c-.36-.63-.9-1.35-1.53-2.13-5.4,.33-11.07,.63-14.64,.78-.06,.24-.21,.36-.42,.42l-.78-2.31Zm7.83,15.42v-12.09l2.4,.15c-.03,.21-.18,.36-.57,.42v11.52h-1.83Zm7.35-2.07c0,1.08,.06,1.23,.72,1.23h.96c.78,0,.93-.3,1.02-.96,.06-.51,.09-1.65,.12-3.12,.36,.33,.96,.63,1.44,.78-.09,3.51-.12,4.95-2.46,4.95h-1.5c-2.19,0-2.19-1.41-2.19-3.12v-9.93l2.49,.15c-.03,.21-.18,.36-.6,.39v9.63Z"/><path d="M573.12,50.54c2.43,0,4.65-.21,5.64-.45,.06-1.8,.09-2.79,.21-5.52l3.09,.24c-.06,.33-.33,.54-.84,.6-.12,1.32-.24,3.18-.3,4.29l.93,.36c-.72,1.44-1.02,3.21-1.2,4.29,3.3-3.09,6.96-5.28,9.45-5.28,2.82,0,4.23,1.98,4.23,5.46,0,.39-.03,.78-.06,1.17-.21,2.64-.51,6.39-.51,8.79,0,1.8,.21,2.76,1.47,2.76,.9,0,2.7-.9,3.99-2.01,.06,.6,.3,1.83,.42,2.28-1.53,1.11-3.33,1.95-4.71,1.95-2.52,0-3.36-1.5-3.36-4.62,0-1.56,.54-9.81,.54-9.84,0-2.61-.9-3.78-2.37-3.78-2.25,0-6.03,2.43-9.15,5.73,0,4.35,0,9.69,.03,13.77h-2.1c.03-1.74,0-10.29,.03-12.21-1.05,2.1-3.09,4.83-5.46,7.23l-1.08-1.89c2.49-2.34,5.28-5.97,6.6-9.06,0-.87,.03-1.68,.06-2.64-1.05,.24-3.24,.48-5.52,.51l-.03-2.13Z"/><path d="M610.14,56.84c1.98-1.02,5.07-1.74,7.44-1.74,4.77,0,7.77,2.79,7.77,7.2,0,5.43-4.77,8.43-10.8,8.43-3.9,0-6.57-1.56-6.57-4.2,0-2.22,2.19-4.02,4.92-4.02,3.39,0,5.67,2.7,6.12,5.43,2.4-.9,4.14-2.82,4.14-5.61,0-3.24-2.4-5.31-6.18-5.31-4.5,0-8.91,2.01-10.89,3.93-.9,.84-2.07,2.1-2.88,3.03l-1.53-1.53c2.7-2.82,11.28-11.01,15.36-14.82-1.74,.24-7.74,.48-11.16,.6-.09,.21-.39,.39-.63,.45l-.24-2.55c4.05-.03,11.79-.33,13.98-.66l.45-.21,1.59,1.95c-.15,.12-.42,.24-.72,.27-2.13,1.74-7.83,7.08-10.17,9.33v.03Zm4.14,12c.9,0,1.95-.12,2.73-.3-.33-2.31-2.04-4.26-4.26-4.26-1.56,0-2.94,.84-2.94,2.22,0,1.83,2.49,2.34,4.47,2.34Z"/><path d="M401.19,85.2c-.09,.24-.33,.42-.78,.45-1.2,7.2-3.69,14.79-7.2,19.23-.54-.42-1.35-.81-2.01-1.08,3.36-4.08,6-11.7,6.96-19.23l3.03,.63Zm15.09,19.5c-1.41-5.25-4.89-13.77-7.98-19.32l1.95-.93c3.15,5.37,6.66,13.83,8.22,19.38l-2.19,.87Zm-.39-25.5c1.86,0,3.36,1.5,3.36,3.39s-1.5,3.36-3.36,3.36-3.36-1.53-3.36-3.36c0-1.95,1.56-3.39,3.36-3.39Zm2.37,3.39c0-1.35-1.08-2.4-2.37-2.4s-2.37,1.05-2.37,2.4,1.05,2.37,2.37,2.37,2.37-1.14,2.37-2.37Z"/><path d="M446.67,87.66v2.04h-7.44c-.09,.18-.27,.33-.54,.36-.9,6.96-3.72,13.02-10.05,16.68-.48-.45-1.29-.99-1.86-1.35,6.15-3.33,9-8.97,9.75-15.69h-8.34c-1.38,2.46-3.12,4.68-4.74,6.18-.45-.33-1.29-.78-1.89-1.05,3.24-2.79,6.72-8.64,8.16-14.22l2.88,.66c-.06,.21-.33,.45-.81,.45-.63,1.86-1.65,4.14-2.55,5.94h17.43Z"/><path d="M452.79,88.55c.9,1.83,1.89,4.71,2.25,6.45l-1.68,.45c-.36-1.74-1.29-4.47-2.19-6.39l1.62-.51Zm17.91,.21c-.06,.27-.36,.33-.63,.3-2.34,8.76-6.75,14.13-14.01,17.07-.24-.36-.78-1.05-1.17-1.38,7.17-2.82,11.28-7.74,13.47-16.68l2.34,.69Zm-10.62-1.65c.63,2.01,1.2,4.89,1.41,6.81l-1.77,.33c-.18-1.92-.75-4.68-1.41-6.75l1.77-.39Z"/><path d="M492.57,96.47c-3.06-1.65-7.26-3.6-10.53-4.89v15h-2.25v-26.07l3.03,.18c-.03,.33-.27,.54-.78,.63v8.76l.45-.63c3.51,1.29,8.16,3.36,11.28,5.01l-1.2,2.01Z"/><path d="M513.75,85.13c-.12,.27-.36,.48-.75,.48-1.08,9.33-4.2,17.46-9.18,17.46-2.52,0-4.8-2.52-4.8-7.26,0-7.2,5.61-13.23,13.5-13.23,8.67,0,12.42,5.49,12.42,11.34,0,7.14-4.14,10.59-11.4,12.27-.27-.48-.78-1.29-1.26-1.83,6.9-1.32,10.44-4.68,10.44-10.35,0-4.95-3.18-9.45-10.2-9.45-.3,0-.63,.03-.9,.06l2.13,.51Zm-2.88-.39c-6.06,.75-9.81,5.76-9.81,11.01,0,3.21,1.38,5.22,2.82,5.22,3.63,0,6.24-8.01,6.99-16.23Z"/><path d="M542.94,85.13h11.22v14.13h-2.07v-1.77h-9.15v9.99h-2.1v-9.99h-9.03v1.92h-2.01v-14.28h11.04v-5.49l2.7,.18c-.03,.21-.21,.36-.6,.42v4.89Zm-11.13,10.35h9.03v-8.37h-9.03v8.37Zm11.13,0h9.15v-8.37h-9.15v8.37Z"/><path d="M580.02,93.42c1.17-1.2,2.19-2.49,3.12-3.84l2.28,1.26c-.15,.15-.45,.24-.81,.18-1.35,1.89-2.88,3.63-4.59,5.19v8.4c0,1.53-.36,2.22-1.44,2.58-1.11,.36-3.09,.39-6.24,.36-.09-.6-.45-1.53-.75-2.13,1.26,.03,2.46,.06,3.42,.06,2.88,0,2.97,0,2.97-.87v-6.63c-5.19,4.17-11.64,7.17-18.72,9.27-.27-.48-.81-1.26-1.23-1.71,5.94-1.65,11.58-4.08,16.29-7.32-5.67,.48-11.19,.93-14.97,1.2-.03,.24-.24,.39-.45,.42l-.72-2.37,4.8-.24v-14.52h6.24c.51-1.02,1.02-2.22,1.32-3.12l2.7,.63c-.06,.18-.27,.3-.63,.3-.3,.63-.75,1.44-1.2,2.19h8.61v10.71Zm-2.04-8.91h-12.99v3h12.99v-3Zm0,7.62v-3.03h-12.99v3.03h12.99Zm-12.99,1.59v3.39c3.63-.21,7.77-.48,11.82-.75,.42-.33,.78-.66,1.17-.99v-1.65h-12.99Z"/></g><g><rect class="d" x="913.07" y="147.51" width="69.86" height="73.6"/><path class="d" d="M982.86,147.77v73.1h-69.72v-73.1h69.72m.14-.51h-70v74.11h70v-74.11h0Z"/></g><g class="f"><path d="M925.56,193.94v-21.34h10.75v1.96h-8.43v7.59h7.76v1.93h-7.76v9.86h-2.32Z"/><path d="M954.09,193.3c-.98,.48-2.88,.95-5.32,.95-5.49,0-9.91-3.56-9.91-10.78s4.28-11.17,10.53-11.17c2.55,0,4.03,.53,4.7,.87l-.62,1.96c-.98-.48-2.35-.87-4.03-.87-4.84,0-8.15,3.25-8.15,9.13s3.02,8.9,8.01,8.9c1.62,0,3.22-.36,4.28-.87l.5,1.88Z"/><path d="M967,175.24c-.62-.39-1.96-.98-3.75-.98-2.97,0-4.09,1.82-4.09,3.36,0,2.1,1.29,3.16,4.14,4.37,3.44,1.46,5.21,3.22,5.21,6.27,0,3.39-2.46,5.99-7.06,5.99-1.93,0-4.03-.59-5.1-1.34l.64-1.93c1.15,.76,2.86,1.32,4.59,1.32,2.86,0,4.54-1.54,4.54-3.84,0-2.1-1.15-3.39-3.92-4.51-3.22-1.2-5.4-3.08-5.4-6.02,0-3.25,2.63-5.63,6.52-5.63,2.02,0,3.56,.5,4.37,1.01l-.7,1.93Z"/></g><g><rect class="d" x="6.1" y="298.6" width="95.81" height="101.05"/><path class="d" d="M101.81,298.95v100.35H6.19v-100.35H101.81m.19-.7H6v101.75H102v-101.75h0Z"/></g><g class="f"><path d="M40.4,315.94l.3-.05,1.03,.4c0,.12-.1,.2-.18,.28-1.35,7.1-5.12,11.4-9.9,13.47-.2-.4-.65-1.02-1-1.38,2.35-.9,4.47-2.5,6.15-4.77-.8-.92-2.15-2.1-3.35-2.92l1.12-.97c1.1,.7,2.3,1.67,3.15,2.52,.85-1.45,1.53-3.15,1.97-5.05h-4.4c-1.1,2.05-2.47,3.87-4.02,5.12-.27-.28-.85-.8-1.2-1.05,2.38-1.85,4.35-5.15,5.4-8.72l1.97,.57c-.05,.18-.23,.25-.52,.25-.25,.78-.55,1.55-.88,2.3h4.35Zm-7.5-4.47v3.32h-1.62v-4.87h9.52v-3.1l2.22,.15c-.03,.17-.17,.3-.5,.33v2.62h9.67v4.87h-1.7v-3.32h-17.6Zm11.6,15.47c0,.92,.22,1.1,1.47,1.1h4.4c1.08,0,1.27-.52,1.37-3.35,.4,.3,1.08,.57,1.55,.7-.23,3.3-.75,4.25-2.83,4.25h-4.65c-2.3,0-2.97-.52-2.97-2.7v-11.52h7.45l.85,.02c0,7.37-.35,7.82-.57,8.15-.47,.57-.93,.65-2.32,.65-.43,0-.9,0-1.38-.02-.03-.48-.2-1.12-.45-1.53,.95,.1,1.83,.1,2.12,.1,.33,0,.53-.03,.68-.25,.22-.33,.3-1.7,.32-5.6h-5.05v10Z"/><path d="M64.6,320.01c-.03,.17-.2,.3-.53,.33-.65,4.4-1.87,7.87-7.72,9.72-.2-.42-.65-1.07-1.03-1.42,5.45-1.55,6.65-4.65,7.07-8.87l2.2,.25Zm6.25,7.15c0,.75,.18,.87,1.18,.87h3.4c.97,0,1.15-.52,1.25-3.87,.35,.3,1.07,.58,1.55,.7-.2,3.82-.67,4.77-2.65,4.77h-3.72c-2.15,0-2.7-.52-2.7-2.5v-7.67h-13.52v-1.65h10.25v-5.3h-5.42c-.65,1.45-1.4,2.85-2.28,3.95-.38-.25-1.02-.62-1.45-.8,1.75-2.15,3.05-5.55,3.67-8.2l2.12,.5c-.08,.17-.22,.25-.55,.25-.22,.8-.5,1.72-.87,2.67h4.77v-4.05l2.2,.12c-.03,.2-.18,.33-.5,.35v3.57h8.47v1.62h-8.47v5.3h10.27v1.65h-7v7.7Z"/><path d="M47.51,357.94h-2.05l-.47-8.57c-.15-2.72-.35-6.25-.33-8.2h-.07c-.62,2.15-1.4,4.5-2.32,7.15l-3.4,9.55h-1.52l-3.17-9.35c-.93-2.75-1.65-5.15-2.18-7.35h-.07c-.05,2.32-.2,5.47-.38,8.4l-.53,8.37h-1.97l1.33-19.04h2.55l3.35,9.67c.8,2.38,1.42,4.4,1.92,6.37h.07c.48-1.92,1.12-3.92,1.97-6.37l3.47-9.67h2.6l1.2,19.04Z"/><path d="M64.87,357.94h-2.2l-2.05-6.17h-6.62l-2,6.17h-2.12l6.3-19.04h2.4l6.3,19.04Zm-4.67-7.82l-1.88-5.65c-.4-1.3-.72-2.5-.97-3.62h-.08c-.25,1.15-.6,2.35-.95,3.55l-1.9,5.72h5.77Z"/><path d="M80.14,357.36c-.88,.42-2.58,.85-4.75,.85-4.9,0-8.85-3.17-8.85-9.62s3.82-9.97,9.4-9.97c2.27,0,3.6,.47,4.2,.77l-.55,1.75c-.88-.42-2.1-.77-3.6-.77-4.32,0-7.27,2.9-7.27,8.15s2.7,7.95,7.15,7.95c1.45,0,2.87-.33,3.82-.77l.45,1.67Z"/><path d="M30.65,369.82c-.05,.1-.2,.17-.33,.22-1.35,3.2-3.5,5.97-5.92,8-.38-.33-1.08-.78-1.52-1.02,2.3-1.67,4.15-4.1,4.97-6.2H9.96v-1.7H28.8l.27-.12,1.58,.83Zm-9.75,4.55c-.03,.2-.25,.37-.58,.42-.72,5.9-2.75,11.52-7.9,14.5-.35-.3-1-.88-1.47-1.15,5.1-2.8,6.92-8.02,7.52-14.05l2.42,.28Z"/><path d="M48.15,380.86c-2.55-1.38-6.05-3-8.77-4.07v12.47h-1.88v-21.72l2.52,.15c-.02,.28-.23,.45-.65,.53v7.35l.38-.55c2.92,1.08,6.8,2.8,9.4,4.17l-1,1.67Zm-2.62-11.77c1.15,.95,2.65,2.52,3.45,3.67l-.95,.77c-.75-1.08-2.27-2.75-3.4-3.65l.9-.8Zm3.35-2.15c1.17,.97,2.67,2.55,3.42,3.65l-.9,.77c-.78-1.07-2.3-2.72-3.42-3.65l.9-.78Z"/><path d="M58.93,386.46c6.35-1.77,11.4-4.82,14.47-10.27,.33,.42,.95,.95,1.32,1.25-3.37,5.75-8.95,9.1-16.47,11.07-.05,.2-.2,.42-.4,.5l-1.05-1.75,.3-.47v-18.42l2.57,.12c-.02,.28-.25,.5-.75,.55v17.42Z"/><path d="M94.6,370.12c-.05,.12-.18,.22-.33,.27-1.35,3.17-2.95,5.92-5,8.6,2.72,2.17,6.82,5.9,9.15,8.47l-1.53,1.32c-2.2-2.55-6.22-6.35-8.77-8.4-2.2,2.67-6,6.32-9.62,8.4-.28-.38-.88-1-1.3-1.35,6.92-3.8,12.4-10.9,14.65-16.32h-12.27v-1.7h13.25l.33-.12,1.45,.83Z"/></g><g><rect class="d" x="102" y="298.78" width="95.81" height="101.05"/><path class="d" d="M197.71,299.13v100.35H102.1v-100.35h95.61m.19-.7H101.91v101.75h96v-101.75h0Z"/></g><g class="f"><path d="M119.01,317.02v8.17c1.95,2.97,5.52,2.97,10.02,2.97,2.7,0,5.87-.08,7.82-.2-.2,.4-.5,1.2-.55,1.7-1.72,.08-4.47,.12-6.95,.12-5.15,0-8.57,0-11.1-3.1-1.22,1.1-2.55,2.22-3.62,3.07,.02,.23-.05,.33-.23,.4l-.97-1.85c1.2-.8,2.67-1.95,3.95-3.05v-6.65h-3.67v-1.6h5.3Zm-3.72-9.37c1.67,1.07,3.62,2.72,4.47,3.95l-1.32,1.12c-.83-1.25-2.72-2.95-4.4-4.07l1.25-1Zm21.2,11.1h-6.65c1.05,3.32,3.22,5.55,6.7,6.57-.38,.32-.85,.95-1.08,1.4-3.4-1.17-5.57-3.45-6.82-6.85-.72,2.35-2.53,4.82-6.75,6.75-.22-.38-.75-.95-1.12-1.25,4.52-1.88,6-4.37,6.47-6.62h-6.7v-1.55h6.87c.02-.3,.02-.6,.02-.88v-2.88h-6.07v-1.55h9.95l-1.28-.58c.85-1.15,1.93-3.02,2.5-4.3l2,.75c-.08,.17-.25,.22-.55,.25-.65,1.15-1.72,2.8-2.6,3.87h4.35v1.55h-6.62v2.88c0,.27,0,.57-.03,.88h7.4v1.55Zm-11.8-6.85c-.33-1.15-1.28-2.92-2.28-4.2l1.43-.6c1.02,1.25,2.02,2.95,2.35,4.1l-1.5,.7Z"/><path d="M141.91,315.85c-.95,1.58-2,2.97-3.05,4.17-.18-.4-.6-1.17-.88-1.58,2.4-2.6,4.8-6.92,6.25-11.25l2,.67c-.1,.17-.28,.25-.58,.22-.65,1.75-1.42,3.5-2.3,5.17l.68,.17c-.05,.15-.18,.28-.5,.3v16.57h-1.62v-14.47Zm3.35-4.1h16.5v1.42h-16.5v-1.42Zm1.85,18.5v-8.02h12.92v7.95h-1.7v-1.17h-9.6v1.25h-1.62Zm12.7-15v1.4h-12.45v-1.4h12.45Zm-12.45,4.9v-1.4h12.42v1.4h-12.42Zm12-11.9v1.4h-11.72v-1.4h11.72Zm-1.02,15.37h-9.6v3.97h9.6v-3.97Z"/><path d="M172.78,318.35c-.02,.17-.2,.33-.52,.38-.55,4.85-1.6,9.27-7.55,11.55-.2-.42-.68-1.02-1.05-1.35,5.5-1.97,6.45-6,6.85-10.77l2.27,.2Zm6.5,9.1c0,.85,.2,1.05,1.22,1.05h3.47c1.08,0,1.25-.7,1.38-4.65,.38,.33,1.07,.62,1.53,.75-.18,4.3-.65,5.45-2.78,5.45h-3.77c-2.15,0-2.75-.55-2.75-2.6v-9.62h-13.6v-1.65h22.32v1.65h-6.9l-.12,.03v9.6Zm4.87-18.62v1.62h-17.95v-1.62h17.95Z"/><path d="M143.42,358.12h-2.05l-.47-8.57c-.15-2.72-.35-6.25-.32-8.2h-.08c-.62,2.15-1.4,4.5-2.33,7.15l-3.4,9.55h-1.53l-3.17-9.35c-.92-2.75-1.65-5.15-2.17-7.35h-.08c-.05,2.32-.2,5.47-.38,8.4l-.52,8.37h-1.97l1.32-19.04h2.55l3.35,9.67c.8,2.38,1.42,4.4,1.92,6.37h.08c.47-1.92,1.12-3.92,1.97-6.37l3.47-9.67h2.6l1.2,19.04Z"/><path d="M160.77,358.12h-2.2l-2.05-6.17h-6.62l-2,6.17h-2.12l6.3-19.04h2.4l6.3,19.04Zm-4.67-7.82l-1.87-5.65c-.4-1.3-.72-2.5-.97-3.62h-.08c-.25,1.15-.6,2.35-.95,3.55l-1.9,5.72h5.77Z"/><path d="M176.04,357.54c-.88,.42-2.57,.85-4.75,.85-4.9,0-8.85-3.17-8.85-9.62s3.82-9.97,9.4-9.97c2.28,0,3.6,.47,4.2,.77l-.55,1.75c-.88-.42-2.1-.77-3.6-.77-4.32,0-7.27,2.9-7.27,8.15s2.7,7.95,7.15,7.95c1.45,0,2.87-.33,3.82-.77l.45,1.67Z"/><path d="M126.55,370c-.05,.1-.2,.17-.32,.22-1.35,3.2-3.5,5.97-5.92,8-.38-.33-1.07-.78-1.52-1.02,2.3-1.67,4.15-4.1,4.97-6.2h-17.9v-1.7h18.84l.28-.12,1.57,.83Zm-9.75,4.55c-.02,.2-.25,.37-.58,.42-.72,5.9-2.75,11.52-7.9,14.5-.35-.3-1-.88-1.47-1.15,5.1-2.8,6.92-8.02,7.52-14.05l2.42,.28Z"/><path d="M144.06,381.05c-2.55-1.38-6.05-3-8.77-4.07v12.47h-1.87v-21.72l2.52,.15c-.03,.28-.22,.45-.65,.53v7.35l.38-.55c2.92,1.08,6.8,2.8,9.4,4.17l-1,1.67Zm-2.62-11.77c1.15,.95,2.65,2.52,3.45,3.67l-.95,.77c-.75-1.08-2.27-2.75-3.4-3.65l.9-.8Zm3.35-2.15c1.17,.97,2.67,2.55,3.42,3.65l-.9,.77c-.77-1.07-2.3-2.72-3.42-3.65l.9-.78Z"/><path d="M154.83,386.64c6.35-1.77,11.4-4.82,14.47-10.27,.33,.42,.95,.95,1.33,1.25-3.38,5.75-8.95,9.1-16.47,11.07-.05,.2-.2,.42-.4,.5l-1.05-1.75,.3-.47v-18.42l2.57,.12c-.03,.28-.25,.5-.75,.55v17.42Z"/><path d="M190.51,370.3c-.05,.12-.17,.22-.32,.27-1.35,3.17-2.95,5.92-5,8.6,2.72,2.17,6.82,5.9,9.15,8.47l-1.52,1.32c-2.2-2.55-6.22-6.35-8.77-8.4-2.2,2.67-6,6.32-9.62,8.4-.27-.38-.88-1-1.3-1.35,6.92-3.8,12.4-10.9,14.65-16.32h-12.27v-1.7h13.25l.32-.12,1.45,.83Z"/></g><g><rect class="d" x="198" y="298.78" width="95.81" height="101.05"/><path class="d" d="M293.71,299.13v100.35h-95.61v-100.35h95.61m.19-.7h-96v101.75h96v-101.75h0Z"/></g><g class="f"><path d="M231.51,310.32c-.1,.12-.25,.2-.47,.2-.08,0-.15,0-.25-.02-1.92,1.95-4.7,4.22-7.12,5.97,.2,.07,.5,.22,.6,.27-.05,.15-.28,.3-.55,.33v13.42h-1.82v-12.85c-2.65,1.88-6.1,3.9-9.52,5.57-.25-.4-.7-1.02-1.05-1.38,6.82-3.15,14.3-8.5,18.32-12.92l1.88,1.4Z"/><path d="M234.81,318.3h20.87v1.77h-19.92c-.15,.25-.48,.42-.8,.47l-.15-2.25Z"/><path d="M280.73,316.22h-5.22v1.72c0,4.77-1.47,9.62-8,12.57-.33-.4-.85-.9-1.3-1.25,6.35-2.75,7.52-7.2,7.52-11.3v-1.75h-8.07v6.22h-1.77v-6.22h-4.9v-1.7h4.9v-5.42l2.4,.15c-.02,.25-.25,.47-.62,.52v4.75h8.07v-5.75l2.4,.15c-.03,.23-.23,.42-.62,.48v5.12h5.22v1.7Z"/><path d="M233.36,344.57c-.07,.12-.22,.2-.45,.23-1.6,2-3.75,4.15-6.05,5.92l.4,.1c-.05,.12-.23,.33-.55,.35v9.52h-1.77v-8.67c-2.55,1.75-5.85,3.52-8.92,4.75-.12-.17-.95-1.2-1.15-1.4,6.05-2.25,11.8-5.97,15.22-9.97h-12.65v-1.62h14.32l.28-.17,1.32,.97Zm-4.12-1.95c-2.17-1.15-5.57-2.27-8.22-3.02l.83-1.45c2.67,.65,6.05,1.85,8.32,2.95l-.92,1.52Zm.17,8.02c2.5,1.3,5.5,3.17,7.3,4.6l-1.28,1.35c-1.67-1.4-4.77-3.42-7.17-4.7l1.15-1.25Z"/><path d="M241.79,345.42c.75,1.52,1.57,3.92,1.87,5.37l-1.4,.38c-.3-1.45-1.07-3.72-1.82-5.32l1.35-.42Zm14.92,.17c-.05,.22-.3,.27-.52,.25-1.95,7.3-5.62,11.77-11.67,14.22-.2-.3-.65-.88-.97-1.15,5.97-2.35,9.4-6.45,11.22-13.9l1.95,.58Zm-8.85-1.38c.52,1.67,1,4.07,1.17,5.67l-1.47,.27c-.15-1.6-.62-3.9-1.17-5.62l1.47-.33Z"/><path d="M274.93,352.02c-2.55-1.37-6.05-3-8.77-4.07v12.5h-1.87v-21.72l2.52,.15c-.03,.28-.22,.45-.65,.53v7.3l.38-.53c2.92,1.08,6.8,2.8,9.4,4.17l-1,1.67Z"/><path d="M231.03,372.95c-.03,.12-.15,.22-.3,.27-.92,3.1-2.17,5.95-3.67,8.27,1.08,.62,2.3,1.4,3.22,2.07l-1.05,1.65c-.9-.7-2.17-1.52-3.22-2.17-2.3,3.2-5.25,5.77-9.02,7.6-.28-.42-.92-1.02-1.38-1.3,3.65-1.7,6.57-4.22,8.85-7.2-1.85-1.02-3.67-1.9-5.52-2.6l.95-1.4c1.83,.65,3.7,1.5,5.62,2.52,1.3-2.05,2.32-4.22,3.02-6.62h-8.47c-1.52,2.55-3.57,5.07-5.77,6.87-.32-.3-1-.85-1.42-1.12,3.27-2.5,6.37-7,7.87-11.27l2.37,.55c-.1,.27-.35,.35-.67,.33-.35,.82-.93,2.05-1.4,2.97h8.3l.35-.1,1.35,.67Z"/><path d="M255.38,370.32c-.1,.12-.25,.2-.47,.2-.08,0-.15,0-.25-.02-1.92,1.95-4.7,4.22-7.12,5.97,.2,.07,.5,.22,.6,.27-.05,.15-.28,.3-.55,.33v13.42h-1.82v-12.85c-2.65,1.88-6.1,3.9-9.52,5.57-.25-.4-.7-1.02-1.05-1.38,6.82-3.15,14.3-8.5,18.32-12.92l1.88,1.4Z"/><path d="M258.94,371.75h15.9l.15-.07,1.7,1.3c-.08,.1-.15,.18-.3,.23-2.02,9.4-6.37,14.3-14.02,17.2-.27-.45-.77-1.1-1.12-1.47,7.27-2.67,11.47-7.32,13.1-15.45h-15.4v-1.72Zm19.05-4.47c1.5,0,2.72,1.22,2.72,2.75s-1.22,2.72-2.72,2.72-2.75-1.22-2.75-2.72c0-1.57,1.27-2.75,2.75-2.75Zm1.9,2.75c0-1.07-.85-1.92-1.9-1.92s-1.92,.85-1.92,1.92,.88,1.92,1.92,1.92,1.9-.92,1.9-1.92Z"/></g><g><rect class="e" x="293.96" y="298.6" width="92.02" height="101.05"/><path class="e" d="M385.89,298.95v100.35h-91.84v-100.35h91.84m.19-.7h-92.21v101.75h92.21v-101.75h0Z"/></g><g class="f"><path d="M309.08,317.97v8.17c1.95,2.97,5.52,2.97,10.02,2.97,2.7,0,5.87-.08,7.82-.2-.2,.4-.5,1.2-.55,1.7-1.72,.08-4.47,.12-6.95,.12-5.15,0-8.57,0-11.1-3.1-1.22,1.1-2.55,2.22-3.62,3.07,.02,.23-.05,.33-.23,.4l-.97-1.85c1.2-.8,2.67-1.95,3.95-3.05v-6.65h-3.67v-1.6h5.3Zm-3.72-9.37c1.67,1.07,3.62,2.72,4.47,3.95l-1.32,1.12c-.83-1.25-2.72-2.95-4.4-4.07l1.25-1Zm21.2,11.1h-6.65c1.05,3.32,3.22,5.55,6.7,6.57-.38,.32-.85,.95-1.08,1.4-3.4-1.17-5.57-3.45-6.82-6.85-.72,2.35-2.53,4.82-6.75,6.75-.22-.38-.75-.95-1.12-1.25,4.52-1.88,6-4.37,6.47-6.62h-6.7v-1.55h6.87c.02-.3,.02-.6,.02-.88v-2.88h-6.07v-1.55h9.95l-1.28-.58c.85-1.15,1.93-3.02,2.5-4.3l2,.75c-.08,.17-.25,.22-.55,.25-.65,1.15-1.72,2.8-2.6,3.87h4.35v1.55h-6.62v2.88c0,.27,0,.57-.03,.88h7.4v1.55Zm-11.8-6.85c-.33-1.15-1.28-2.92-2.28-4.2l1.43-.6c1.02,1.25,2.02,2.95,2.35,4.1l-1.5,.7Z"/><path d="M331.98,316.8c-.95,1.58-2,2.97-3.05,4.17-.18-.4-.6-1.17-.88-1.58,2.4-2.6,4.8-6.92,6.25-11.25l2,.67c-.1,.17-.28,.25-.58,.22-.65,1.75-1.42,3.5-2.3,5.17l.68,.17c-.05,.15-.18,.28-.5,.3v16.57h-1.62v-14.47Zm3.35-4.1h16.5v1.42h-16.5v-1.42Zm1.85,18.5v-8.02h12.92v7.95h-1.7v-1.17h-9.6v1.25h-1.62Zm12.7-15v1.4h-12.45v-1.4h12.45Zm-12.45,4.9v-1.4h12.42v1.4h-12.42Zm12-11.9v1.4h-11.72v-1.4h11.72Zm-1.02,15.37h-9.6v3.97h9.6v-3.97Z"/><path d="M362.86,319.3c-.02,.17-.2,.33-.52,.38-.55,4.85-1.6,9.27-7.55,11.55-.2-.42-.68-1.02-1.05-1.35,5.5-1.97,6.45-6,6.85-10.77l2.27,.2Zm6.5,9.1c0,.85,.2,1.05,1.22,1.05h3.47c1.08,0,1.25-.7,1.38-4.65,.38,.33,1.07,.62,1.53,.75-.18,4.3-.65,5.45-2.78,5.45h-3.77c-2.15,0-2.75-.55-2.75-2.6v-9.62h-13.6v-1.65h22.32v1.65h-6.9l-.12,.03v9.6Zm4.87-18.62v1.62h-17.95v-1.62h17.95Z"/><path d="M332.03,340.03h2.07v19.04h-2.07v-19.04Z"/><path d="M338.38,340.28c1.1-.2,2.55-.38,4.32-.38,6.15,0,6.65,3.95,6.65,5.45,0,4.47-3.57,6.07-6.95,6.07-.72,0-1.37-.02-1.95-.17v7.82h-2.07v-18.79Zm2.07,9.25c.53,.15,1.2,.2,2,.2,3,0,4.82-1.5,4.82-4.22s-1.95-3.92-4.55-3.92c-1.05,0-1.82,.1-2.28,.2v7.75Z"/><path d="M316.63,370.95c-.05,.1-.2,.17-.32,.22-1.35,3.2-3.5,5.97-5.92,8-.38-.33-1.07-.78-1.52-1.02,2.3-1.67,4.15-4.1,4.97-6.2h-17.9v-1.7h18.84l.28-.12,1.57,.83Zm-9.75,4.55c-.02,.2-.25,.37-.58,.42-.72,5.9-2.75,11.52-7.9,14.5-.35-.3-1-.88-1.47-1.15,5.1-2.8,6.92-8.02,7.52-14.05l2.42,.28Z"/><path d="M334.13,382c-2.55-1.38-6.05-3-8.77-4.07v12.47h-1.87v-21.72l2.52,.15c-.03,.28-.22,.45-.65,.53v7.35l.38-.55c2.92,1.08,6.8,2.8,9.4,4.17l-1,1.67Zm-2.62-11.77c1.15,.95,2.65,2.52,3.45,3.67l-.95,.77c-.75-1.08-2.27-2.75-3.4-3.65l.9-.8Zm3.35-2.15c1.17,.97,2.67,2.55,3.42,3.65l-.9,.77c-.77-1.07-2.3-2.72-3.42-3.65l.9-.78Z"/><path d="M344.91,387.6c6.35-1.77,11.4-4.82,14.47-10.27,.33,.42,.95,.95,1.33,1.25-3.38,5.75-8.95,9.1-16.47,11.07-.05,.2-.2,.42-.4,.5l-1.05-1.75,.3-.47v-18.42l2.57,.12c-.03,.28-.25,.5-.75,.55v17.42Z"/><path d="M380.58,371.25c-.05,.12-.17,.22-.32,.27-1.35,3.17-2.95,5.92-5,8.6,2.72,2.17,6.82,5.9,9.15,8.47l-1.52,1.32c-2.2-2.55-6.22-6.35-8.77-8.4-2.2,2.67-6,6.32-9.62,8.4-.27-.38-.88-1-1.3-1.35,6.92-3.8,12.4-10.9,14.65-16.32h-12.27v-1.7h13.25l.32-.12,1.45,.83Z"/></g><g><rect class="e" x="384.96" y="298.78" width="92.02" height="101.05"/><path class="e" d="M476.89,299.13v100.35h-91.84v-100.35h91.84m.19-.7h-92.21v101.75h92.21v-101.75h0Z"/></g><g class="f"><path d="M417.38,317.25l.3-.05,1.02,.4c0,.12-.1,.2-.17,.28-1.35,7.1-5.12,11.4-9.9,13.47-.2-.4-.65-1.02-1-1.38,2.35-.9,4.47-2.5,6.15-4.77-.8-.92-2.15-2.1-3.35-2.92l1.12-.97c1.1,.7,2.3,1.67,3.15,2.52,.85-1.45,1.52-3.15,1.97-5.05h-4.4c-1.1,2.05-2.47,3.87-4.02,5.12-.28-.28-.85-.8-1.2-1.05,2.37-1.85,4.35-5.15,5.4-8.72l1.97,.57c-.05,.18-.22,.25-.53,.25-.25,.78-.55,1.55-.88,2.3h4.35Zm-7.5-4.47v3.32h-1.62v-4.87h9.52v-3.1l2.22,.15c-.03,.17-.18,.3-.5,.33v2.62h9.67v4.87h-1.7v-3.32h-17.6Zm11.6,15.47c0,.92,.22,1.1,1.47,1.1h4.4c1.07,0,1.27-.52,1.38-3.35,.4,.3,1.07,.57,1.55,.7-.22,3.3-.75,4.25-2.82,4.25h-4.65c-2.3,0-2.97-.52-2.97-2.7v-11.52h7.45l.85,.02c0,7.37-.35,7.82-.58,8.15-.47,.57-.92,.65-2.32,.65-.42,0-.9,0-1.38-.02-.02-.48-.2-1.12-.45-1.53,.95,.1,1.82,.1,2.12,.1,.32,0,.52-.03,.67-.25,.23-.33,.3-1.7,.33-5.6h-5.05v10Z"/><path d="M441.58,321.33c-.02,.17-.2,.3-.52,.33-.65,4.4-1.88,7.87-7.72,9.72-.2-.42-.65-1.07-1.02-1.42,5.45-1.55,6.65-4.65,7.07-8.87l2.2,.25Zm6.25,7.15c0,.75,.17,.87,1.17,.87h3.4c.97,0,1.15-.52,1.25-3.87,.35,.3,1.08,.58,1.55,.7-.2,3.82-.68,4.77-2.65,4.77h-3.72c-2.15,0-2.7-.52-2.7-2.5v-7.67h-13.52v-1.65h10.25v-5.3h-5.42c-.65,1.45-1.4,2.85-2.27,3.95-.38-.25-1.03-.62-1.45-.8,1.75-2.15,3.05-5.55,3.67-8.2l2.12,.5c-.07,.17-.22,.25-.55,.25-.23,.8-.5,1.72-.88,2.67h4.77v-4.05l2.2,.12c-.02,.2-.17,.33-.5,.35v3.57h8.47v1.62h-8.47v5.3h10.27v1.65h-7v7.7Z"/><path d="M423.03,340.21h2.07v19.04h-2.07v-19.04Z"/><path d="M429.38,340.46c1.1-.2,2.55-.38,4.32-.38,6.15,0,6.65,3.95,6.65,5.45,0,4.47-3.57,6.07-6.95,6.07-.72,0-1.37-.02-1.95-.17v7.82h-2.07v-18.79Zm2.07,9.25c.53,.15,1.2,.2,2,.2,3,0,4.82-1.5,4.82-4.22s-1.95-3.92-4.55-3.92c-1.05,0-1.82,.1-2.28,.2v7.75Z"/><path d="M407.63,371.13c-.05,.1-.2,.17-.32,.22-1.35,3.2-3.5,5.97-5.92,8-.38-.33-1.07-.78-1.52-1.02,2.3-1.67,4.15-4.1,4.97-6.2h-17.9v-1.7h18.84l.28-.12,1.57,.83Zm-9.75,4.55c-.02,.2-.25,.37-.58,.42-.72,5.9-2.75,11.52-7.9,14.5-.35-.3-1-.88-1.47-1.15,5.1-2.8,6.92-8.02,7.52-14.05l2.42,.28Z"/><path d="M425.13,382.18c-2.55-1.38-6.05-3-8.77-4.07v12.47h-1.87v-21.72l2.52,.15c-.03,.28-.22,.45-.65,.53v7.35l.38-.55c2.92,1.08,6.8,2.8,9.4,4.17l-1,1.67Zm-2.62-11.77c1.15,.95,2.65,2.52,3.45,3.67l-.95,.77c-.75-1.08-2.27-2.75-3.4-3.65l.9-.8Zm3.35-2.15c1.17,.97,2.67,2.55,3.42,3.65l-.9,.77c-.77-1.07-2.3-2.72-3.42-3.65l.9-.78Z"/><path d="M435.91,387.78c6.35-1.77,11.4-4.82,14.47-10.27,.33,.42,.95,.95,1.33,1.25-3.38,5.75-8.95,9.1-16.47,11.07-.05,.2-.2,.42-.4,.5l-1.05-1.75,.3-.47v-18.42l2.57,.12c-.03,.28-.25,.5-.75,.55v17.42Z"/><path d="M471.58,371.43c-.05,.12-.17,.22-.32,.27-1.35,3.17-2.95,5.92-5,8.6,2.72,2.17,6.82,5.9,9.15,8.47l-1.52,1.32c-2.2-2.55-6.22-6.35-8.77-8.4-2.2,2.67-6,6.32-9.62,8.4-.27-.38-.88-1-1.3-1.35,6.92-3.8,12.4-10.9,14.65-16.32h-12.27v-1.7h13.25l.32-.12,1.45,.83Z"/></g><g><rect class="e" x="475.97" y="298.78" width="103.92" height="101.05"/><path class="e" d="M579.79,299.13v100.35h-103.71v-100.35h103.71m.21-.7h-104.13v101.75h104.13v-101.75h0Z"/></g><g class="f"><path d="M495.82,312.7h15.9l.15-.07,1.7,1.3c-.08,.1-.15,.18-.3,.23-2.02,9.4-6.37,14.3-14.02,17.2-.28-.45-.77-1.1-1.12-1.47,7.27-2.67,11.47-7.32,13.1-15.45h-15.4v-1.72Zm19.04-4.47c1.5,0,2.72,1.22,2.72,2.75s-1.22,2.72-2.72,2.72-2.75-1.22-2.75-2.72c0-1.57,1.27-2.75,2.75-2.75Zm1.9,2.75c0-1.07-.85-1.92-1.9-1.92s-1.92,.85-1.92,1.92,.88,1.92,1.92,1.92,1.9-.92,1.9-1.92Z"/><path d="M538.29,313.1v16.5h-1.8v-1.58h-13.77v1.62h-1.75v-16.55h17.32Zm-1.8,13.25v-11.57h-13.77v11.57h13.77Z"/><path d="M557.69,322.97c-2.55-1.37-6.05-3-8.77-4.07v12.5h-1.87v-21.72l2.52,.15c-.03,.28-.22,.45-.65,.53v7.3l.38-.53c2.92,1.08,6.8,2.8,9.4,4.17l-1,1.67Z"/><path d="M523.37,343.17v16.92h-1.82v-1.38h-15.75v-1.67h15.75v-12.2h-15.5v-1.67h17.32Z"/><path d="M534.54,343.6c-.02,.22-.25,.38-.58,.42-.15,6.72-.7,12.85-4.55,17.32-.4-.3-1-.67-1.5-.95,3.72-4.05,4.17-10.3,4.25-17.02l2.37,.23Zm6.47,14.4c4.17-2.02,6.87-5.67,8.32-10.05,.38,.33,1.12,.75,1.55,.97-1.78,5.05-4.88,8.77-10.2,11.3-.08,.2-.25,.4-.43,.5l-1.3-1.65,.27-.38v-18.34l2.32,.12c-.02,.23-.2,.43-.55,.48v17.05Z"/><path d="M512.54,373.9c-.03,.12-.15,.22-.3,.27-.92,3.1-2.17,5.95-3.67,8.27,1.08,.62,2.3,1.4,3.22,2.07l-1.05,1.65c-.9-.7-2.17-1.52-3.22-2.17-2.3,3.2-5.25,5.77-9.02,7.6-.28-.42-.92-1.02-1.38-1.3,3.65-1.7,6.57-4.22,8.85-7.2-1.85-1.02-3.67-1.9-5.52-2.6l.95-1.4c1.83,.65,3.7,1.5,5.62,2.52,1.3-2.05,2.32-4.22,3.02-6.62h-8.47c-1.52,2.55-3.57,5.07-5.77,6.87-.32-.3-1-.85-1.42-1.12,3.27-2.5,6.37-7,7.87-11.27l2.37,.55c-.1,.27-.35,.35-.67,.33-.35,.82-.93,2.05-1.4,2.97h8.3l.35-.1,1.35,.67Z"/><path d="M536.89,371.28c-.1,.12-.25,.2-.47,.2-.08,0-.15,0-.25-.02-1.92,1.95-4.7,4.22-7.12,5.97,.2,.07,.5,.22,.6,.27-.05,.15-.28,.3-.55,.33v13.42h-1.82v-12.85c-2.65,1.88-6.1,3.9-9.52,5.57-.25-.4-.7-1.02-1.05-1.38,6.82-3.15,14.3-8.5,18.32-12.92l1.88,1.4Z"/><path d="M540.45,372.7h15.9l.15-.07,1.7,1.3c-.08,.1-.15,.18-.3,.23-2.02,9.4-6.37,14.3-14.02,17.2-.27-.45-.77-1.1-1.12-1.47,7.27-2.67,11.47-7.32,13.1-15.45h-15.4v-1.72Zm19.05-4.47c1.5,0,2.72,1.22,2.72,2.75s-1.22,2.72-2.72,2.72-2.75-1.22-2.75-2.72c0-1.57,1.27-2.75,2.75-2.75Zm1.9,2.75c0-1.07-.85-1.92-1.9-1.92s-1.92,.85-1.92,1.92,.88,1.92,1.92,1.92,1.9-.92,1.9-1.92Z"/></g><g><rect class="b" x="580.07" y="298.6" width="99.8" height="101.05"/><path class="b" d="M679.77,298.95v100.35h-99.6v-100.35h99.6m.2-.7h-100v101.75h100v-101.75h0Z"/></g><g class="f"><path d="M596.08,320.97v8.17c1.95,2.97,5.52,2.97,10.02,2.97,2.7,0,5.87-.08,7.82-.2-.2,.4-.5,1.2-.55,1.7-1.72,.08-4.47,.12-6.95,.12-5.15,0-8.57,0-11.1-3.1-1.22,1.1-2.55,2.22-3.62,3.07,.03,.23-.05,.33-.22,.4l-.97-1.85c1.2-.8,2.67-1.95,3.95-3.05v-6.65h-3.67v-1.6h5.3Zm-3.72-9.37c1.67,1.07,3.62,2.72,4.47,3.95l-1.32,1.12c-.83-1.25-2.72-2.95-4.4-4.07l1.25-1Zm21.2,11.1h-6.65c1.05,3.32,3.22,5.55,6.7,6.57-.38,.32-.85,.95-1.07,1.4-3.4-1.17-5.57-3.45-6.82-6.85-.72,2.35-2.52,4.82-6.75,6.75-.22-.38-.75-.95-1.12-1.25,4.52-1.88,6-4.37,6.47-6.62h-6.7v-1.55h6.87c.02-.3,.02-.6,.02-.88v-2.88h-6.07v-1.55h9.95l-1.28-.58c.85-1.15,1.92-3.02,2.5-4.3l2,.75c-.08,.17-.25,.22-.55,.25-.65,1.15-1.72,2.8-2.6,3.87h4.35v1.55h-6.62v2.88c0,.27,0,.57-.03,.88h7.4v1.55Zm-11.8-6.85c-.33-1.15-1.27-2.92-2.27-4.2l1.42-.6c1.02,1.25,2.02,2.95,2.35,4.1l-1.5,.7Z"/><path d="M618.98,319.8c-.95,1.58-2,2.97-3.05,4.17-.17-.4-.6-1.17-.87-1.58,2.4-2.6,4.8-6.92,6.25-11.25l2,.67c-.1,.17-.27,.25-.58,.22-.65,1.75-1.42,3.5-2.3,5.17l.67,.17c-.05,.15-.17,.28-.5,.3v16.57h-1.62v-14.47Zm3.35-4.1h16.5v1.42h-16.5v-1.42Zm1.85,18.5v-8.02h12.92v7.95h-1.7v-1.17h-9.6v1.25h-1.62Zm12.7-15v1.4h-12.45v-1.4h12.45Zm-12.45,4.9v-1.4h12.42v1.4h-12.42Zm12-11.9v1.4h-11.72v-1.4h11.72Zm-1.03,15.37h-9.6v3.97h9.6v-3.97Z"/><path d="M649.86,322.3c-.03,.17-.2,.33-.53,.38-.55,4.85-1.6,9.27-7.55,11.55-.2-.42-.68-1.02-1.05-1.35,5.5-1.97,6.45-6,6.85-10.77l2.27,.2Zm6.5,9.1c0,.85,.2,1.05,1.22,1.05h3.47c1.07,0,1.25-.7,1.38-4.65,.38,.33,1.07,.62,1.52,.75-.17,4.3-.65,5.45-2.77,5.45h-3.77c-2.15,0-2.75-.55-2.75-2.6v-9.62h-13.6v-1.65h22.32v1.65h-6.9l-.12,.03v9.6Zm4.87-18.62v1.62h-17.95v-1.62h17.95Z"/><path d="M600.63,352.75c-1.12,2.92-2.77,5.5-4.7,7.37l-1.45-.95c1.88-1.75,3.5-4.12,4.52-7.05l1.62,.62Zm5.35-3.85v11.72c0,2.72-1.95,2.72-5.95,2.72-.1-.45-.3-1.15-.53-1.67,.72,.03,1.53,.03,2.2,.03h1.45c.7,0,1.02-.45,1.02-1.05v-11.75h-8.5v-1.7h8.5v-5.27l2.38,.12c-.03,.25-.2,.42-.58,.48v4.67h8.45v1.7h-8.45Zm4.47,3.05c1.83,2.02,3.92,4.97,5.27,7.27l-1.6,.92c-1.23-2.27-3.42-5.5-5.1-7.4l1.42-.8Zm3.25-11.52c1.52,0,2.77,1.25,2.77,2.8s-1.25,2.8-2.77,2.8-2.82-1.25-2.82-2.8,1.3-2.8,2.82-2.8Zm1.95,2.8c0-1.1-.88-2-1.95-2s-2,.9-2,2,.9,1.97,2,1.97,1.95-.95,1.95-1.97Z"/><path d="M619.26,351.25h20.87v1.77h-19.92c-.15,.25-.47,.42-.8,.47l-.15-2.25Z"/><path d="M658.13,354.97c-2.55-1.37-6.05-3-8.77-4.07v12.5h-1.87v-21.72l2.52,.15c-.03,.28-.22,.45-.65,.53v7.3l.38-.53c2.92,1.08,6.8,2.8,9.4,4.17l-1,1.67Z"/><path d="M625.85,379.52h-8.52c2.35,2.07,6,3.95,9.17,4.85-.4,.35-.88,1-1.15,1.42-.77-.28-1.6-.6-2.42-.97v9.3h-1.67v-.8h-12.77v.9h-1.62v-9.45c-.95,.5-1.9,.92-2.8,1.25-.25-.38-.73-1-1.1-1.32,3.1-1,6.67-3,9-5.17h-8.35v-1.45h5.65c-.38-.95-1.15-2.3-1.9-3.27l1.45-.55c.85,1.05,1.72,2.47,2.05,3.45l-.95,.38h3.9v-4.22c-2.8,.22-5.72,.4-8.42,.5-.05-.35-.23-.97-.38-1.3,6.02-.27,13.35-.9,17.29-1.75l1.22,1.35s-.12,.05-.22,.05c-.07,0-.17,0-.28-.03-1.97,.4-4.65,.75-7.55,1.03v4.37h3.55c-.28-.12-.55-.23-.72-.3,.77-1.07,1.75-2.8,2.25-4l2.02,.75c-.08,.15-.25,.23-.53,.23-.55,.95-1.4,2.32-2.15,3.32h5.95v1.45Zm-12.05,.25c-1.67,1.75-4,3.42-6.37,4.7h14.77c-2.5-1.25-5-2.97-6.72-4.77v4.3h-1.68v-4.22Zm.05,8.42v-2.37h-5.37v2.37h5.37Zm-5.37,1.25v2.5h5.37v-2.5h-5.37Zm12.77-1.25v-2.37h-5.8v2.37h5.8Zm-5.8,3.75h5.8v-2.5h-5.8v2.5Z"/><path d="M651.18,383h-15.3c-.22,.75-.53,1.58-.8,2.42h11.3l.4-.08,1.08,.35c-.03,.12-.08,.3-.15,.45-.67,4.6-1.32,6.57-2.27,7.4-.62,.58-1.2,.7-2.9,.7-.9,0-2.17-.05-3.5-.15-.03-.47-.25-1.15-.58-1.57,1.82,.15,3.67,.17,4.35,.17,.62,0,.92-.03,1.22-.22,.72-.55,1.25-2.12,1.77-5.47h-11.3c-.25,.68-.47,1.3-.7,1.83-.95-.2-1.38-.28-1.8-.33,.65-1.42,1.42-3.6,2.02-5.5h-5.8v-1.55h22.95v1.55Zm-3.53-10.75v7.22h-15.65v-7.22h15.65Zm-1.72,5.7v-4.17h-12.27v4.17h12.27Z"/></g><g><rect class="b" x="680.07" y="298.13" width="99.8" height="101.05"/><path class="b" d="M779.77,298.48v100.35h-99.6v-100.35h99.6m.2-.7h-100v101.75h100v-101.75h0Z"/></g><g class="f"><path d="M716.38,319.61l.3-.05,1.03,.4c0,.12-.1,.2-.18,.28-1.35,7.1-5.12,11.4-9.9,13.47-.2-.4-.65-1.02-1-1.38,2.35-.9,4.47-2.5,6.15-4.77-.8-.92-2.15-2.1-3.35-2.92l1.12-.97c1.1,.7,2.3,1.67,3.15,2.52,.85-1.45,1.52-3.15,1.97-5.05h-4.4c-1.1,2.05-2.47,3.87-4.02,5.12-.28-.28-.85-.8-1.2-1.05,2.37-1.85,4.35-5.15,5.4-8.72l1.97,.57c-.05,.18-.23,.25-.53,.25-.25,.78-.55,1.55-.88,2.3h4.35Zm-7.5-4.47v3.32h-1.62v-4.87h9.52v-3.1l2.22,.15c-.03,.17-.17,.3-.5,.33v2.62h9.67v4.87h-1.7v-3.32h-17.6Zm11.6,15.47c0,.92,.22,1.1,1.47,1.1h4.4c1.07,0,1.27-.52,1.37-3.35,.4,.3,1.08,.57,1.55,.7-.22,3.3-.75,4.25-2.82,4.25h-4.65c-2.3,0-2.97-.52-2.97-2.7v-11.52h7.45l.85,.02c0,7.37-.35,7.82-.57,8.15-.47,.57-.92,.65-2.32,.65-.42,0-.9,0-1.38-.02-.03-.48-.2-1.12-.45-1.53,.95,.1,1.82,.1,2.12,.1,.33,0,.52-.03,.67-.25,.22-.33,.3-1.7,.32-5.6h-5.05v10Z"/><path d="M740.58,323.68c-.02,.17-.2,.3-.52,.33-.65,4.4-1.87,7.87-7.72,9.72-.2-.42-.65-1.07-1.02-1.42,5.45-1.55,6.65-4.65,7.07-8.87l2.2,.25Zm6.25,7.15c0,.75,.17,.87,1.17,.87h3.4c.97,0,1.15-.52,1.25-3.87,.35,.3,1.07,.58,1.55,.7-.2,3.82-.67,4.77-2.65,4.77h-3.72c-2.15,0-2.7-.52-2.7-2.5v-7.67h-13.52v-1.65h10.25v-5.3h-5.42c-.65,1.45-1.4,2.85-2.27,3.95-.38-.25-1.02-.62-1.45-.8,1.75-2.15,3.05-5.55,3.67-8.2l2.12,.5c-.07,.17-.22,.25-.55,.25-.23,.8-.5,1.72-.87,2.67h4.77v-4.05l2.2,.12c-.03,.2-.17,.33-.5,.35v3.57h8.47v1.62h-8.47v5.3h10.27v1.65h-7v7.7Z"/><path d="M703.63,352.28c-1.12,2.92-2.77,5.5-4.7,7.37l-1.45-.95c1.88-1.75,3.5-4.12,4.52-7.05l1.62,.62Zm5.35-3.85v11.72c0,2.72-1.95,2.72-5.95,2.72-.1-.45-.3-1.15-.53-1.67,.72,.03,1.53,.03,2.2,.03h1.45c.7,0,1.02-.45,1.02-1.05v-11.75h-8.5v-1.7h8.5v-5.27l2.38,.12c-.03,.25-.2,.42-.58,.48v4.67h8.45v1.7h-8.45Zm4.47,3.05c1.83,2.02,3.92,4.97,5.27,7.27l-1.6,.92c-1.23-2.27-3.42-5.5-5.1-7.4l1.42-.8Zm3.25-11.52c1.52,0,2.77,1.25,2.77,2.8s-1.25,2.8-2.77,2.8-2.82-1.25-2.82-2.8,1.3-2.8,2.82-2.8Zm1.95,2.8c0-1.1-.88-2-1.95-2s-2,.9-2,2,.9,1.97,2,1.97,1.95-.95,1.95-1.97Z"/><path d="M722.26,350.78h20.87v1.77h-19.92c-.15,.25-.47,.42-.8,.47l-.15-2.25Z"/><path d="M761.13,354.51c-2.55-1.37-6.05-3-8.77-4.07v12.5h-1.87v-21.72l2.52,.15c-.03,.28-.22,.45-.65,.53v7.3l.38-.53c2.92,1.08,6.8,2.8,9.4,4.17l-1,1.67Z"/><path d="M728.85,379.06h-8.52c2.35,2.07,6,3.95,9.17,4.85-.4,.35-.88,1-1.15,1.42-.77-.28-1.6-.6-2.42-.97v9.3h-1.67v-.8h-12.77v.9h-1.62v-9.45c-.95,.5-1.9,.92-2.8,1.25-.25-.38-.73-1-1.1-1.32,3.1-1,6.67-3,9-5.17h-8.35v-1.45h5.65c-.38-.95-1.15-2.3-1.9-3.27l1.45-.55c.85,1.05,1.72,2.47,2.05,3.45l-.95,.38h3.9v-4.22c-2.8,.22-5.72,.4-8.42,.5-.05-.35-.23-.97-.38-1.3,6.02-.27,13.35-.9,17.29-1.75l1.22,1.35s-.12,.05-.22,.05c-.07,0-.17,0-.28-.03-1.97,.4-4.65,.75-7.55,1.03v4.37h3.55c-.28-.12-.55-.23-.72-.3,.77-1.07,1.75-2.8,2.25-4l2.02,.75c-.08,.15-.25,.23-.53,.23-.55,.95-1.4,2.32-2.15,3.32h5.95v1.45Zm-12.05,.25c-1.67,1.75-4,3.42-6.37,4.7h14.77c-2.5-1.25-5-2.97-6.72-4.77v4.3h-1.68v-4.22Zm.05,8.42v-2.37h-5.37v2.37h5.37Zm-5.37,1.25v2.5h5.37v-2.5h-5.37Zm12.77-1.25v-2.37h-5.8v2.37h5.8Zm-5.8,3.75h5.8v-2.5h-5.8v2.5Z"/><path d="M754.18,382.53h-15.3c-.22,.75-.53,1.58-.8,2.42h11.3l.4-.08,1.08,.35c-.03,.12-.08,.3-.15,.45-.67,4.6-1.32,6.57-2.27,7.4-.62,.58-1.2,.7-2.9,.7-.9,0-2.17-.05-3.5-.15-.03-.47-.25-1.15-.58-1.57,1.82,.15,3.67,.17,4.35,.17,.62,0,.92-.03,1.22-.22,.72-.55,1.25-2.12,1.77-5.47h-11.3c-.25,.68-.47,1.3-.7,1.83-.95-.2-1.38-.28-1.8-.33,.65-1.42,1.42-3.6,2.02-5.5h-5.8v-1.55h22.95v1.55Zm-3.53-10.75v7.22h-15.65v-7.22h15.65Zm-1.72,5.7v-4.17h-12.27v4.17h12.27Z"/></g><g><rect class="c" x="779.81" y="298.35" width="130.33" height="101.61"/><path class="c" d="M910,298.7v100.91h-130.06v-100.91h130.06m.26-.7h-130.59v102.31h130.59v-102.31h0Z"/></g><g class="f"><path d="M832.09,349.04h-9.24l.47,.14c-.03,.17-.25,.31-.56,.34-.73,5.07-3.03,10.11-8.65,12.94-.31-.36-1.04-1.01-1.51-1.37,5.52-2.74,7.45-7,8.09-12.04h-10.7v-1.88h22.09v1.88Zm-4.12-7.64h-15.54v-1.88h15.54v1.88Zm.36-4.12c1.15,1.2,2.44,3.11,3.08,4.42l-1.12,.76c-.59-1.29-1.93-3.28-3.05-4.42l1.09-.76Zm3.3-.95c1.15,1.2,2.49,3.11,3.16,4.4l-1.15,.7c-.59-1.23-1.99-3.22-3.08-4.37l1.06-.73Z"/><path d="M836.79,348.76h23.38v1.99h-22.32c-.17,.28-.53,.48-.9,.53l-.17-2.52Z"/><path d="M884.23,342.77c-.03,.14-.17,.25-.34,.31-1.04,3.47-2.44,6.66-4.12,9.27,1.2,.7,2.58,1.57,3.61,2.32l-1.18,1.85c-1.01-.78-2.44-1.71-3.61-2.44-2.58,3.58-5.88,6.47-10.11,8.51-.31-.48-1.04-1.15-1.54-1.46,4.09-1.9,7.36-4.73,9.91-8.06-2.07-1.15-4.12-2.13-6.19-2.91l1.06-1.57c2.04,.73,4.14,1.68,6.3,2.83,1.46-2.3,2.6-4.73,3.39-7.42h-9.49c-1.71,2.86-4,5.68-6.47,7.7-.36-.34-1.12-.95-1.6-1.26,3.67-2.8,7.14-7.84,8.82-12.63l2.66,.62c-.11,.31-.39,.39-.76,.36-.39,.92-1.04,2.3-1.57,3.33h9.3l.39-.11,1.51,.76Z"/></g><g><rect class="d" x="909.78" y="298.35" width="69.86" height="101.66"/><path class="d" d="M979.57,298.7v100.96h-69.72v-100.96h69.72m.14-.7h-70v102.36h70v-102.36h0Z"/></g><g class="f"><path d="M923.27,358.94v-21.34h10.75v1.96h-8.43v7.59h7.76v1.93h-7.76v9.86h-2.32Z"/><path d="M951.8,358.29c-.98,.48-2.88,.95-5.32,.95-5.49,0-9.91-3.56-9.91-10.78s4.29-11.17,10.53-11.17c2.55,0,4.03,.53,4.7,.87l-.62,1.96c-.98-.48-2.35-.87-4.03-.87-4.84,0-8.15,3.25-8.15,9.13s3.02,8.9,8.01,8.9c1.62,0,3.22-.36,4.28-.87l.5,1.88Z"/><path d="M964.71,340.23c-.62-.39-1.96-.98-3.75-.98-2.97,0-4.09,1.82-4.09,3.36,0,2.1,1.29,3.16,4.14,4.37,3.44,1.46,5.21,3.22,5.21,6.27,0,3.39-2.46,5.99-7.06,5.99-1.93,0-4.03-.59-5.1-1.34l.64-1.93c1.15,.76,2.86,1.32,4.59,1.32,2.86,0,4.54-1.54,4.54-3.84,0-2.1-1.15-3.39-3.92-4.51-3.22-1.2-5.4-3.08-5.4-6.02,0-3.25,2.63-5.63,6.52-5.63,2.02,0,3.56,.5,4.37,1.01l-.7,1.93Z"/></g></svg>