<?xml version="1.0" encoding="UTF-8"?><svg id="a" xmlns="http://www.w3.org/2000/svg" width="1025" height="769" xmlns:xlink="http://www.w3.org/1999/xlink" viewBox="0 0 1025 769"><defs><style>.al{clip-path:url(#ad);}.am{clip-path:url(#ai);}.an{fill:#fff;}.ao{clip-path:url(#j);}.ap{fill:#3fa9f5;stroke:#231815;stroke-width:2px;}.ap,.aq,.ar,.as,.at{stroke-miterlimit:10;}.au{clip-path:url(#g);}.av{clip-path:url(#z);}.aw{clip-path:url(#r);}.ax{isolation:isolate;}.ay{clip-path:url(#p);}.az{clip-path:url(#aj);}.ba{clip-path:url(#d);}.bb{clip-path:url(#ab);}.aq{fill:#d4eeff;}.aq,.as,.at{stroke:#000;}.aq,.at{stroke-width:.5px;}.bc{clip-path:url(#ac);}.ar{stroke:red;}.ar,.as{stroke-width:3px;}.ar,.as,.bd,.be,.bf{fill:none;}.bg{clip-path:url(#aa);}.bh{clip-path:url(#v);}.bi{clip-path:url(#x);}.bj{clip-path:url(#i);}.bk{clip-path:url(#b);}.bl{clip-path:url(#e);}.bm{clip-path:url(#f);}.bn{clip-path:url(#l);}.bo{fill:#007cbe;}.bp{clip-path:url(#o);}.bq{clip-path:url(#af);}.br{clip-path:url(#n);}.bs{clip-path:url(#q);}.at{fill:#ffb48a;}.bt{clip-path:url(#k);}.bu{clip-path:url(#c);}.bv{clip-path:url(#u);}.bw{clip-path:url(#ak);}.be{stroke-width:1.62px;}.be,.bf{stroke:#fff;}.bf{stroke-width:3.17px;}.bx{clip-path:url(#ae);}.by{clip-path:url(#ah);}.bz{clip-path:url(#s);}.ca{clip-path:url(#ag);}.cb{clip-path:url(#h);}.cc{clip-path:url(#y);}.cd{fill:red;}.ce{clip-path:url(#w);}</style><clipPath id="b"><rect class="bd" x="14.32" y="149.66" width="150" height="133.75"/></clipPath><clipPath id="c"><rect class="bd" x="14.32" y="149.66" width="150" height="133.75"/></clipPath><clipPath id="d"><rect class="bd" x="14.32" y="149.66" width="150" height="133.75"/></clipPath><clipPath id="e"><rect class="bd" x="14.32" y="149.66" width="150" height="133.75"/></clipPath><clipPath id="f"><rect class="bd" x="14.32" y="149.66" width="150" height="133.75"/></clipPath><clipPath id="g"><rect class="bd" x="14.32" y="149.66" width="150" height="133.75"/></clipPath><clipPath id="h"><rect class="bd" x="14.32" y="149.66" width="150" height="133.75"/></clipPath><clipPath id="i"><rect class="bd" x="14.32" y="149.66" width="150" height="133.75"/></clipPath><clipPath id="j"><rect class="bd" x="14.32" y="149.66" width="150" height="133.75"/></clipPath><clipPath id="k"><rect class="bd" x="14.32" y="149.66" width="150" height="133.75"/></clipPath><clipPath id="l"><rect class="bd" x="14.32" y="149.66" width="150" height="133.75"/></clipPath><clipPath id="n"><rect class="bd" x="600" y="181.78" width="150" height="101.63"/></clipPath><clipPath id="o"><rect class="bd" x="600" y="181.78" width="150" height="101.63"/></clipPath><clipPath id="p"><rect class="bd" x="600" y="181.78" width="149.34" height="100.91"/></clipPath><clipPath id="q"><rect class="bd" x="600" y="181.78" width="150" height="101.63"/></clipPath><clipPath id="r"><rect class="bd" x="600" y="181.78" width="149.34" height="100.91"/></clipPath><clipPath id="s"><rect class="bd" x="600" y="181.78" width="150" height="101.63"/></clipPath><clipPath id="u"><rect class="bd" x="288" y="181.78" width="150" height="101.63"/></clipPath><clipPath id="v"><rect class="bd" x="288" y="181.78" width="150" height="101.63"/></clipPath><clipPath id="w"><rect class="bd" x="288" y="181.78" width="149.34" height="100.91"/></clipPath><clipPath id="x"><rect class="bd" x="288" y="181.78" width="150" height="101.63"/></clipPath><clipPath id="y"><rect class="bd" x="288" y="181.78" width="149.34" height="100.91"/></clipPath><clipPath id="z"><rect class="bd" x="288" y="181.78" width="150" height="101.63"/></clipPath><clipPath id="aa"><rect class="bd" x="860.18" y="149.66" width="150" height="133.75"/></clipPath><clipPath id="ab"><rect class="bd" x="860.18" y="149.66" width="150" height="133.75"/></clipPath><clipPath id="ac"><rect class="bd" x="860.18" y="149.66" width="150" height="133.75"/></clipPath><clipPath id="ad"><rect class="bd" x="860.18" y="149.66" width="150" height="133.75"/></clipPath><clipPath id="ae"><rect class="bd" x="860.18" y="149.66" width="150" height="133.75"/></clipPath><clipPath id="af"><rect class="bd" x="860.18" y="149.66" width="150" height="133.75"/></clipPath><clipPath id="ag"><rect class="bd" x="860.18" y="149.66" width="150" height="133.75"/></clipPath><clipPath id="ah"><rect class="bd" x="860.18" y="149.66" width="150" height="133.75"/></clipPath><clipPath id="ai"><rect class="bd" x="860.18" y="149.66" width="150" height="133.75"/></clipPath><clipPath id="aj"><rect class="bd" x="860.18" y="149.66" width="150" height="133.75"/></clipPath><clipPath id="ak"><rect class="bd" x="860.18" y="149.66" width="150" height="133.75"/></clipPath></defs><g><rect class="at" x="194.69" y="517.96" width="688.61" height="59.26"/><path class="at" d="M882.61,518.17v58.85H195.39v-58.85H882.61m1.39-.41H194v59.67H884v-59.67h0Z"/></g><g><polyline class="bo" points="38.45 266.54 38.45 247.16 146.71 247.16 146.71 266.54 38.45 266.54"/><polygon class="bf" points="38.77 266.23 38.77 246.85 147.03 246.85 147.03 266.23 38.77 266.23"/><g><g class="bk"><polyline class="bo" points="164.97 229.66 164.97 249.04 146.71 266.73 146.71 247.16 39.1 247.16"/></g><g class="bu"><polyline class="bf" points="165.29 229.04 165.29 248.73 147.03 266.41 147.03 246.85 39.1 246.85"/></g><g class="ba"><line class="bf" x1="39.1" y1="229.35" x2="164.97" y2="229.35"/></g><g class="bl"><line class="bd" x1="146.88" y1="247.14" x2="165.27" y2="229.33"/></g><g class="bm"><line class="bf" x1="146.88" y1="247.14" x2="165.27" y2="229.33"/></g></g><polyline class="bo" points="146.71 246.54 146.71 168.41 38.45 168.41 38.45 246.54 146.71 246.54"/><polygon class="bf" points="146.38 246.85 146.38 168.73 38.12 168.73 38.12 246.85 146.38 246.85"/><g><g class="au"><polyline class="bo" points="146.71 245.9 164.97 228.4 164.97 150.91 58.1 150.91 39.84 168.41 146.71 168.41 146.71 245.91"/></g><g class="cb"><polygon class="bf" points="147.03 245.58 165.29 228.08 165.29 150.6 58.43 150.6 40.17 168.1 147.03 168.1 147.03 245.58"/></g></g><polyline class="bo" points="137.58 237.79 137.58 177.79 48.23 177.79 48.23 237.79 137.58 237.79"/><polygon class="bf" points="137.25 237.48 137.25 177.48 47.9 177.48 47.9 237.48 137.25 237.48"/><g><g class="bj"><line class="bd" x1="146.75" y1="168.39" x2="165.27" y2="150.71"/></g><g class="ao"><line class="bf" x1="146.75" y1="168.39" x2="165.27" y2="150.71"/></g></g><polyline class="bo" points="141.49 280.91 141.49 269.04 15.65 269.04 29.93 255.29 155.84 255.29 155.84 266.96 141.49 280.64"/><g class="bt"><polygon class="bf" points="141.16 280.96 141.16 269.35 15.32 269.35 29.61 255.6 155.51 255.6 155.51 267.27 141.16 280.96"/></g><polyline class="bo" points="141.49 269.04 141.49 280.29 16.92 280.29 16.92 269.04 141.49 269.04"/><g class="bn"><polygon class="bf" points="141.16 269.35 141.16 280.6 16.6 280.6 16.6 269.35 141.16 269.35"/></g><line class="bd" x1="141.53" y1="269.21" x2="155.75" y2="255.58"/><line class="bf" x1="141.53" y1="269.21" x2="155.75" y2="255.58"/></g><g id="m"><g class="br"><g class="bp"><path class="bo" d="M749.28,211.46c0,15.94-33.24,28.87-74.24,28.87s-74.24-12.93-74.24-28.87v42.29c0,15.94,33.24,28.87,74.24,28.87s74.24-12.93,74.24-28.87v-42.29Z"/></g><g class="ay"><path class="be" d="M749.28,211.46c0,15.94-33.24,28.87-74.24,28.87s-74.24-12.93-74.24-28.87v42.29c0,15.94,33.24,28.87,74.24,28.87s74.24-12.93,74.24-28.87v-42.29Z"/></g><g class="bs"><path class="bo" d="M675.05,240.32c41,0,74.24-12.93,74.24-28.87s-33.24-28.87-74.24-28.87-74.24,12.92-74.24,28.87,33.24,28.87,74.24,28.87"/></g><g class="aw"><ellipse class="be" cx="675.05" cy="211.46" rx="74.24" ry="28.87"/></g><g class="bz"><polygon class="an" points="658.09 200.17 664.22 209.36 641.04 214.72 646.11 210.5 610.29 204.38 619.27 197.64 653.84 203.5 658.09 200.17"/><polygon class="an" points="690.71 222.46 686.52 212.98 707.43 208.81 703.8 212.05 738.65 218.01 730.29 224.7 695.65 218.19 690.71 222.46"/><polygon class="an" points="679.27 195.14 702.69 188.74 702.97 198.77 697.11 197.66 685.69 207.13 674.78 205.54 686.58 196.27 679.27 195.14"/><polygon class="an" points="669.24 231.11 646.94 235.29 646.11 224.98 652.51 226.37 664.79 215.89 675.65 217.72 662.55 229.15 669.24 231.11"/></g></g></g><g id="t"><g class="bv"><g class="bh"><path class="bo" d="M437.28,211.46c0,15.94-33.24,28.87-74.24,28.87s-74.24-12.93-74.24-28.87v42.29c0,15.94,33.24,28.87,74.24,28.87s74.24-12.93,74.24-28.87v-42.29Z"/></g><g class="ce"><path class="be" d="M437.28,211.46c0,15.94-33.24,28.87-74.24,28.87s-74.24-12.93-74.24-28.87v42.29c0,15.94,33.24,28.87,74.24,28.87s74.24-12.93,74.24-28.87v-42.29Z"/></g><g class="bi"><path class="bo" d="M363.05,240.32c41,0,74.24-12.93,74.24-28.87s-33.24-28.87-74.24-28.87-74.24,12.92-74.24,28.87,33.24,28.87,74.24,28.87"/></g><g class="cc"><ellipse class="be" cx="363.05" cy="211.46" rx="74.24" ry="28.87"/></g><g class="av"><polygon class="an" points="346.09 200.17 352.22 209.36 329.04 214.72 334.11 210.5 298.29 204.38 307.27 197.64 341.84 203.5 346.09 200.17"/><polygon class="an" points="378.71 222.46 374.52 212.98 395.43 208.81 391.8 212.05 426.65 218.01 418.29 224.7 383.65 218.19 378.71 222.46"/><polygon class="an" points="367.27 195.14 390.69 188.74 390.97 198.77 385.11 197.66 373.69 207.13 362.78 205.54 374.58 196.27 367.27 195.14"/><polygon class="an" points="357.24 231.11 334.94 235.29 334.11 224.98 340.51 226.37 352.79 215.89 363.65 217.72 350.55 229.15 357.24 231.11"/></g></g></g><g><polyline class="bo" points="884.31 266.54 884.31 247.16 992.57 247.16 992.57 266.54 884.31 266.54"/><polygon class="bf" points="884.64 266.23 884.64 246.85 992.9 246.85 992.9 266.23 884.64 266.23"/><g><g class="bg"><polyline class="bo" points="1010.83 229.66 1010.83 249.04 992.57 266.73 992.57 247.16 884.96 247.16"/></g><g class="bb"><polyline class="bf" points="1011.16 229.04 1011.16 248.73 992.9 266.41 992.9 246.85 884.96 246.85"/></g><g class="bc"><line class="bf" x1="884.96" y1="229.35" x2="1010.83" y2="229.35"/></g><g class="al"><line class="bd" x1="992.75" y1="247.14" x2="1011.14" y2="229.33"/></g><g class="bx"><line class="bf" x1="992.75" y1="247.14" x2="1011.14" y2="229.33"/></g></g><polyline class="bo" points="992.57 246.54 992.57 168.41 884.31 168.41 884.31 246.54 992.57 246.54"/><polygon class="bf" points="992.25 246.85 992.25 168.73 883.99 168.73 883.99 246.85 992.25 246.85"/><g><g class="bq"><polyline class="bo" points="992.57 245.9 1010.83 228.4 1010.83 150.91 903.97 150.91 885.71 168.41 992.57 168.41 992.57 245.91"/></g><g class="ca"><polygon class="bf" points="992.9 245.58 1011.16 228.08 1011.16 150.6 904.29 150.6 886.03 168.1 992.9 168.1 992.9 245.58"/></g></g><polyline class="bo" points="983.44 237.79 983.44 177.79 894.09 177.79 894.09 237.79 983.44 237.79"/><polygon class="bf" points="983.12 237.48 983.12 177.48 893.77 177.48 893.77 237.48 983.12 237.48"/><g><g class="by"><line class="bd" x1="992.62" y1="168.39" x2="1011.14" y2="150.71"/></g><g class="am"><line class="bf" x1="992.62" y1="168.39" x2="1011.14" y2="150.71"/></g></g><polyline class="bo" points="987.35 280.91 987.35 269.04 861.52 269.04 875.8 255.29 1001.7 255.29 1001.7 266.96 987.35 280.64"/><g class="az"><polygon class="bf" points="987.03 280.96 987.03 269.35 861.19 269.35 875.47 255.6 1001.38 255.6 1001.38 267.27 987.03 280.96"/></g><polyline class="bo" points="987.35 269.04 987.35 280.29 862.79 280.29 862.79 269.04 987.35 269.04"/><g class="bw"><polygon class="bf" points="987.03 269.35 987.03 280.6 862.46 280.6 862.46 269.35 987.03 269.35"/></g><line class="bd" x1="987.4" y1="269.21" x2="1001.62" y2="255.58"/><line class="bf" x1="987.4" y1="269.21" x2="1001.62" y2="255.58"/></g><g class="ax"><path d="M57.3,313.19c-1.29,3.28-3.14,6.22-5.29,8.32l-1.62-1.06c2.02-1.93,3.95-4.62,5.07-7.92l1.85,.67Zm5.96-4.37v13.33c0,3.14-2.46,3.11-6.64,3.05-.11-.5-.34-1.29-.62-1.85,.64,.03,3.78,0,4.09,0,.78,0,1.15-.5,1.15-1.18v-13.36h-9.52v-1.88h9.52v-5.74l2.66,.14c-.03,.28-.22,.5-.64,.53v5.07h9.46v1.88h-9.46Zm5.01,3.53c2.04,2.27,4.4,5.54,5.91,8.15l-1.79,1.04c-1.37-2.58-3.84-6.16-5.71-8.29l1.6-.9Z"/><path d="M96.7,303.89c-.06,.14-.2,.25-.36,.31-1.51,3.56-3.3,6.64-5.6,9.63,3.05,2.44,7.64,6.61,10.25,9.49l-1.71,1.48c-2.46-2.86-6.97-7.11-9.83-9.41-2.46,3-6.72,7.08-10.78,9.41-.31-.42-.98-1.12-1.46-1.51,7.76-4.26,13.89-12.21,16.41-18.28h-13.75v-1.9h14.84l.36-.14,1.62,.92Z"/><path d="M120.56,315.9c-2.86-1.54-6.78-3.36-9.83-4.56v14h-2.1v-24.33l2.83,.17c-.03,.31-.25,.5-.73,.59v8.18l.42-.59c3.28,1.2,7.62,3.14,10.53,4.68l-1.12,1.88Z"/><path d="M142.34,323.85h-2.46l-2.3-6.92h-7.42l-2.24,6.92h-2.38l7.06-21.34h2.69l7.06,21.34Zm-5.24-8.76l-2.1-6.33c-.45-1.46-.81-2.8-1.09-4.06h-.08c-.28,1.29-.67,2.63-1.06,3.98l-2.13,6.41h6.47Z"/></g><g class="ax"><path d="M894.37,302.19c-1.29,3.28-3.14,6.22-5.29,8.32l-1.62-1.06c2.02-1.93,3.95-4.62,5.07-7.92l1.85,.67Zm5.96-4.37v13.33c0,3.14-2.46,3.11-6.63,3.05-.11-.5-.34-1.29-.62-1.85,.64,.03,3.78,0,4.09,0,.79,0,1.15-.5,1.15-1.18v-13.36h-9.52v-1.88h9.52v-5.74l2.66,.14c-.03,.28-.22,.5-.64,.53v5.07h9.46v1.88h-9.46Zm5.01,3.53c2.04,2.27,4.4,5.54,5.91,8.15l-1.79,1.04c-1.37-2.58-3.84-6.16-5.71-8.29l1.6-.9Z"/><path d="M933.76,292.89c-.06,.14-.2,.25-.37,.31-1.51,3.56-3.3,6.64-5.6,9.63,3.05,2.44,7.64,6.61,10.25,9.49l-1.71,1.48c-2.46-2.86-6.97-7.11-9.83-9.41-2.46,3-6.72,7.08-10.78,9.41-.31-.42-.98-1.12-1.46-1.51,7.76-4.26,13.89-12.21,16.41-18.28h-13.75v-1.9h14.84l.36-.14,1.62,.92Z"/><path d="M957.62,304.9c-2.86-1.54-6.78-3.36-9.83-4.56v14h-2.1v-24.33l2.83,.17c-.03,.31-.25,.5-.73,.59v8.18l.42-.59c3.28,1.2,7.62,3.14,10.53,4.68l-1.12,1.88Z"/><path d="M972.35,301.43c2.02,.48,4.4,2.16,4.4,5.38,0,1.9-.73,3.25-1.71,4.2-1.43,1.4-3.72,2.02-6.94,2.02-1.76,0-3.08-.14-3.95-.22v-20.97c1.18-.25,2.86-.45,4.59-.45,2.63,0,4.37,.5,5.63,1.57,1.01,.87,1.6,2.1,1.6,3.7,0,2.1-1.43,3.92-3.61,4.7v.08Zm-3.39-.78c2.83,0,4.65-1.62,4.65-3.81v-.03c0-2.52-1.85-3.61-4.76-3.61-1.23,0-1.96,.08-2.38,.2v7.25h2.49Zm-2.49,10.39c.53,.11,1.29,.14,2.27,.14,2.94,0,5.57-1.15,5.57-4.37s-2.77-4.37-5.6-4.37h-2.24v8.6Z"/></g><line class="as" x1="164.5" y1="220.5" x2="288" y2="220"/><line class="as" x1="438.5" y1="220.5" x2="600.5" y2="219.5"/><line class="as" x1="745.37" y1="223.53" x2="791.5" y2="223.5"/><line class="as" x1="840.05" y1="223.29" x2="886.18" y2="223.26"/><path class="ap" d="M233.45,168.47v12.2h-19.39c-.23,0-.36,.45-.36,1.06v20.61c0,.57,.18,1.06,.36,1.06h19.39v12.2l13.69-12.2h.27c.14,0,.27-.23,.32-.53l12.16-10.84-12.16-10.84c-.05-.3-.18-.53-.32-.53h-.27l-13.69-12.2Z"/><path class="ap" d="M516.2,164.72v12.2h-19.39c-.23,0-.36,.45-.36,1.06v20.61c0,.57,.18,1.06,.36,1.06h19.39v12.2l13.69-12.2h.27c.14,0,.27-.23,.32-.53l12.16-10.84-12.16-10.84c-.05-.3-.18-.53-.32-.53h-.27l-13.69-12.2Z"/><path class="ap" d="M812.2,164.72v12.2h-19.39c-.23,0-.36,.45-.36,1.06v20.61c0,.57,.18,1.06,.36,1.06h19.39v12.2l13.69-12.2h.27c.14,0,.27-.23,.32-.53l12.16-10.84-12.16-10.84c-.05-.3-.18-.53-.32-.53h-.27l-13.69-12.2Z"/><g class="ax"><path d="M39.64,572.82c-.09,.15-.27,.24-.54,.27-1.92,2.4-4.5,4.98-7.26,7.11l.48,.12c-.06,.15-.27,.39-.66,.42v11.43h-2.13v-10.41c-3.06,2.1-7.02,4.23-10.71,5.7-.15-.21-1.14-1.44-1.38-1.68,7.26-2.7,14.16-7.17,18.27-11.97h-15.18v-1.95h17.19l.33-.21,1.59,1.17Zm-4.95-2.34c-2.61-1.38-6.69-2.73-9.87-3.63l.99-1.74c3.21,.78,7.26,2.22,9.99,3.54l-1.11,1.83Zm.21,9.63c3,1.56,6.6,3.81,8.76,5.52l-1.53,1.62c-2.01-1.68-5.73-4.11-8.61-5.64l1.38-1.5Z"/><path d="M49.75,573.84c.9,1.83,1.89,4.71,2.25,6.45l-1.68,.45c-.36-1.74-1.29-4.47-2.19-6.39l1.62-.51Zm17.91,.21c-.06,.27-.36,.33-.63,.3-2.34,8.76-6.75,14.13-14.01,17.07-.24-.36-.78-1.05-1.17-1.38,7.17-2.82,11.28-7.74,13.47-16.68l2.34,.69Zm-10.62-1.65c.63,2.01,1.2,4.89,1.41,6.81l-1.77,.33c-.18-1.92-.75-4.68-1.41-6.75l1.77-.39Z"/><path d="M89.53,581.76c-3.06-1.65-7.26-3.6-10.53-4.89v15h-2.25v-26.07l3.03,.18c-.03,.33-.27,.54-.78,.63v8.76l.45-.63c3.51,1.29,8.16,3.36,11.28,5.01l-1.2,2.01Z"/><path d="M118.93,569.13c-.09,.12-.24,.24-.39,.3-1.17,11.73-5.16,18.03-15.18,22.08-.39-.51-.99-1.17-1.5-1.62,9.57-3.9,13.32-9.6,14.31-19.44h-17.13v8.28h-2.07v-10.32h19.89l.33-.24,1.74,.96Z"/><path d="M123.58,577.29h25.05v2.13h-23.91c-.18,.3-.57,.51-.96,.57l-.18-2.7Z"/><path d="M174.34,571.5c-.12,.15-.27,.3-.45,.42-3.15,9.72-8.07,15.96-16.35,20.16-.36-.51-.93-1.2-1.53-1.65,7.86-3.81,12.72-9.81,15.21-17.76h-10.71c-1.74,2.7-4.05,5.31-6.72,7.41-.42-.42-1.11-.99-1.71-1.38,4.08-3.15,7.53-7.74,9.57-13.02l2.85,.81c-.12,.3-.48,.39-.87,.39-.6,1.32-1.23,2.58-1.92,3.78h10.56l.36-.18,1.71,1.02Z"/></g><g class="ax"><path d="M40.01,415.16h-9.9l.51,.15c-.03,.18-.27,.33-.6,.36-.78,5.43-3.24,10.83-9.27,13.86-.33-.39-1.11-1.08-1.62-1.47,5.91-2.94,7.98-7.5,8.67-12.9h-11.46v-2.01h23.67v2.01Zm-4.41-8.19H18.95v-2.01h16.65v2.01Zm.39-4.41c1.23,1.29,2.61,3.33,3.3,4.74l-1.2,.81c-.63-1.38-2.07-3.51-3.27-4.74l1.17-.81Zm3.54-1.02c1.23,1.29,2.67,3.33,3.39,4.71l-1.23,.75c-.63-1.32-2.13-3.45-3.3-4.68l1.14-.78Z"/><path d="M45.05,414.86h25.05v2.13h-23.91c-.18,.3-.57,.51-.96,.57l-.18-2.7Z"/><path d="M95.87,408.44c-.03,.15-.18,.27-.36,.33-1.11,3.72-2.61,7.14-4.41,9.93,1.29,.75,2.76,1.68,3.87,2.49l-1.26,1.98c-1.08-.84-2.61-1.83-3.87-2.61-2.76,3.84-6.3,6.93-10.83,9.12-.33-.51-1.11-1.23-1.65-1.56,4.38-2.04,7.89-5.07,10.62-8.64-2.22-1.23-4.41-2.28-6.63-3.12l1.14-1.68c2.19,.78,4.44,1.8,6.75,3.03,1.56-2.46,2.79-5.07,3.63-7.95h-10.17c-1.83,3.06-4.29,6.09-6.93,8.25-.39-.36-1.2-1.02-1.71-1.35,3.93-3,7.65-8.4,9.45-13.53l2.85,.66c-.12,.33-.42,.42-.81,.39-.42,.99-1.11,2.46-1.68,3.57h9.96l.42-.12,1.62,.81Z"/><path d="M103.64,419.96v-14.58l2.85,.18c-.03,.27-.24,.48-.72,.54v13.86h-2.13Zm16.71-15.75c-.03,.3-.24,.45-.72,.51v9.54c0,6.3-2.16,12.06-10.77,15.39-.3-.45-1.05-1.23-1.56-1.62,8.31-3.09,10.17-8.22,10.17-13.77v-10.23l2.88,.18Z"/><path d="M127.19,405.8c3.12,.99,6.72,2.55,8.94,4.08l-1.14,1.89c-2.16-1.53-5.7-3.12-8.76-4.17l.96-1.8Zm-.12,20.79c10.65-3.3,17.73-9.27,21.33-17.58,.63,.51,1.32,.9,1.95,1.23-3.75,8.22-11.07,14.61-21.24,18-.03,.27-.21,.57-.42,.69l-1.62-2.34Z"/><path d="M174.71,409.07c-.12,.15-.27,.3-.45,.42-3.15,9.72-8.07,15.96-16.35,20.16-.36-.51-.93-1.2-1.53-1.65,7.86-3.81,12.72-9.81,15.21-17.76h-10.71c-1.74,2.7-4.05,5.31-6.72,7.41-.42-.42-1.11-.99-1.71-1.38,4.08-3.15,7.53-7.74,9.57-13.02l2.85,.81c-.12,.3-.48,.39-.87,.39-.6,1.32-1.23,2.58-1.92,3.78h10.56l.36-.18,1.71,1.02Z"/></g><line class="as" x1="178.5" y1="419.5" x2="362.5" y2="418.5"/><line class="as" x1="178.97" y1="442.03" x2="178.94" y2="395.9"/><line class="as" x1="362.97" y1="444.03" x2="362.94" y2="397.9"/><line class="as" x1="418.97" y1="444.03" x2="418.94" y2="397.9"/><line class="as" x1="607.97" y1="444.03" x2="607.94" y2="397.9"/><line class="as" x1="421.5" y1="421.5" x2="607.5" y2="420.5"/><line class="as" x1="707.5" y1="421.5" x2="893.5" y2="420.5"/><line class="as" x1="703.97" y1="444.03" x2="703.94" y2="397.9"/><line class="as" x1="893.97" y1="444.03" x2="893.94" y2="397.9"/><line class="as" x1="183.97" y1="610.03" x2="183.94" y2="563.9"/><line class="as" x1="894" y1="615.03" x2="893.97" y2="568.9"/><line class="as" x1="185.2" y1="587.22" x2="892.5" y2="587.5"/><g><g><rect class="aq" x="183.15" y="358.2" width="173.68" height="59.26"/><path class="aq" d="M356.65,358.41v58.85H183.32v-58.85h173.33m.35-.41H182.97v59.67h174.03v-59.67h0Z"/></g><g class="ax"><path d="M217.83,380.6c-.11,.14-.28,.22-.53,.22-.08,0-.17,0-.28-.03-2.16,2.18-5.26,4.73-7.98,6.69,.22,.08,.56,.25,.67,.31-.06,.17-.31,.34-.62,.36v15.04h-2.04v-14.39c-2.97,2.1-6.83,4.37-10.67,6.24-.28-.45-.78-1.15-1.18-1.54,7.64-3.53,16.02-9.52,20.52-14.48l2.1,1.57Z"/><path d="M221.52,389.53h23.38v1.99h-22.32c-.17,.28-.53,.48-.9,.53l-.17-2.52Z"/><path d="M272.96,387.2h-5.85v1.93c0,5.35-1.65,10.78-8.96,14.08-.36-.45-.95-1.01-1.46-1.4,7.11-3.08,8.43-8.06,8.43-12.66v-1.96h-9.04v6.97h-1.99v-6.97h-5.49v-1.9h5.49v-6.08l2.69,.17c-.03,.28-.28,.53-.7,.59v5.32h9.04v-6.44l2.69,.17c-.03,.25-.25,.48-.7,.53v5.74h5.85v1.9Z"/><path d="M296.9,385.36c-.08,.14-.25,.22-.5,.25-1.79,2.24-4.2,4.65-6.78,6.64l.45,.11c-.06,.14-.25,.36-.62,.39v10.67h-1.99v-9.72c-2.86,1.96-6.55,3.95-10,5.32-.14-.2-1.06-1.34-1.29-1.57,6.78-2.52,13.22-6.69,17.05-11.17h-14.17v-1.82h16.04l.31-.2,1.48,1.09Zm-4.62-2.18c-2.44-1.29-6.24-2.55-9.21-3.39l.92-1.62c3,.73,6.78,2.07,9.32,3.3l-1.04,1.71Zm.2,8.99c2.8,1.46,6.16,3.56,8.18,5.15l-1.43,1.51c-1.88-1.57-5.35-3.84-8.04-5.26l1.29-1.4Z"/><path d="M306.33,386.31c.84,1.71,1.76,4.4,2.1,6.02l-1.57,.42c-.34-1.62-1.2-4.17-2.04-5.96l1.51-.48Zm16.72,.2c-.06,.25-.34,.31-.59,.28-2.18,8.18-6.3,13.19-13.08,15.93-.22-.34-.73-.98-1.09-1.29,6.69-2.63,10.53-7.22,12.57-15.57l2.18,.64Zm-9.91-1.54c.59,1.88,1.12,4.56,1.32,6.36l-1.65,.31c-.17-1.79-.7-4.37-1.32-6.3l1.65-.36Z"/><path d="M343.46,393.7c-2.86-1.54-6.78-3.36-9.83-4.56v14h-2.1v-24.33l2.83,.17c-.03,.31-.25,.5-.73,.59v8.18l.42-.59c3.28,1.2,7.62,3.14,10.53,4.68l-1.12,1.88Z"/></g></g><g><g><rect class="aq" x="425.63" y="357.96" width="173.68" height="59.26"/><path class="aq" d="M599.14,358.17v58.85h-173.33v-58.85h173.33m.35-.41h-174.03v59.67h174.03v-59.67h0Z"/></g><g class="ax"><path d="M461.72,377.49c-.11,.14-.28,.22-.53,.22-.08,0-.17,0-.28-.03-2.16,2.18-5.26,4.73-7.98,6.69,.22,.08,.56,.25,.67,.31-.06,.17-.31,.34-.62,.36v15.04h-2.04v-14.39c-2.97,2.1-6.83,4.37-10.67,6.24-.28-.45-.78-1.15-1.18-1.54,7.64-3.53,16.02-9.52,20.52-14.48l2.1,1.57Z"/><path d="M465.41,386.42h23.38v1.99h-22.32c-.17,.28-.53,.48-.9,.53l-.17-2.52Z"/><path d="M516.85,384.09h-5.85v1.93c0,5.35-1.65,10.78-8.96,14.08-.36-.45-.95-1.01-1.46-1.4,7.11-3.08,8.43-8.06,8.43-12.66v-1.96h-9.04v6.97h-1.99v-6.97h-5.49v-1.9h5.49v-6.08l2.69,.17c-.03,.28-.28,.53-.7,.59v5.32h9.04v-6.44l2.69,.17c-.03,.25-.25,.48-.7,.53v5.74h5.85v1.9Z"/><path d="M540.79,382.25c-.08,.14-.25,.22-.5,.25-1.79,2.24-4.2,4.65-6.78,6.64l.45,.11c-.06,.14-.25,.36-.62,.39v10.67h-1.99v-9.72c-2.86,1.96-6.55,3.95-10,5.32-.14-.2-1.06-1.34-1.29-1.57,6.78-2.52,13.22-6.69,17.05-11.17h-14.17v-1.82h16.04l.31-.2,1.48,1.09Zm-4.62-2.18c-2.44-1.29-6.24-2.55-9.21-3.39l.92-1.62c3,.73,6.78,2.07,9.32,3.3l-1.04,1.71Zm.2,8.99c2.8,1.46,6.16,3.56,8.18,5.15l-1.43,1.51c-1.88-1.57-5.35-3.84-8.04-5.26l1.29-1.4Z"/><path d="M550.23,383.2c.84,1.71,1.76,4.4,2.1,6.02l-1.57,.42c-.34-1.62-1.2-4.17-2.04-5.96l1.51-.48Zm16.72,.2c-.06,.25-.34,.31-.59,.28-2.18,8.18-6.3,13.19-13.08,15.93-.22-.34-.73-.98-1.09-1.29,6.69-2.63,10.53-7.22,12.57-15.57l2.18,.64Zm-9.91-1.54c.59,1.88,1.12,4.56,1.32,6.36l-1.65,.31c-.17-1.79-.7-4.37-1.32-6.3l1.65-.36Z"/><path d="M587.35,390.59c-2.86-1.54-6.78-3.36-9.83-4.56v14h-2.1v-24.33l2.83,.17c-.03,.31-.25,.5-.73,.59v8.18l.42-.59c3.28,1.2,7.62,3.14,10.53,4.68l-1.12,1.88Z"/></g></g><g><g><rect class="aq" x="710.63" y="347.01" width="173.68" height="71.75"/><path class="aq" d="M884.14,347.25v71.25h-173.33v-71.25h173.33m.35-.49h-174.03v72.24h174.03v-72.24h0Z"/></g><g class="ax"><path d="M734.65,355.21h2.32v21.34h-2.32v-21.34Z"/><path d="M753.02,376.54h-11.26v-21.34h10.78v1.96h-8.46v7.22h7.95v1.93h-7.95v8.26h8.93v1.96Z"/><path d="M767.72,376.54h-11.26v-21.34h10.78v1.96h-8.46v7.22h7.95v1.93h-7.95v8.26h8.93v1.96Z"/><path d="M782.42,376.54h-11.26v-21.34h10.78v1.96h-8.46v7.22h7.95v1.93h-7.95v8.26h8.93v1.96Z"/><path d="M788.75,365.43c-2.27-1.09-3.28-2.94-3.28-4.73,0-3.25,2.55-5.46,5.94-5.46,3.81,0,5.63,2.58,5.63,5.1,0,1.79-.95,3.75-3.44,4.96v.11c2.58,1.09,4.17,2.97,4.17,5.49,0,3.56-2.91,5.99-6.61,5.99-4,0-6.47-2.55-6.47-5.57,0-2.72,1.62-4.68,4.06-5.77v-.11Zm6.63,5.71c0-2.63-1.76-3.98-4.54-4.87-2.46,.81-3.78,2.6-3.78,4.68,0,2.38,1.6,4.2,4.12,4.2,2.69,0,4.2-1.82,4.2-4Zm-7.7-10.67c-.03,2.24,1.57,3.47,3.89,4.17,1.82-.7,3.19-2.13,3.19-4.12,0-1.76-.98-3.58-3.44-3.58s-3.64,1.71-3.64,3.53Z"/><path d="M800.03,366.13c0-7.34,2.86-10.89,6.78-10.89s6.41,3.75,6.41,10.61c0,7.28-2.55,11.03-6.72,11.03-3.81,0-6.47-3.75-6.47-10.75Zm10.84-.17c0-5.24-1.26-8.85-4.2-8.85-2.49,0-4.26,3.33-4.26,8.85s1.54,9.02,4.17,9.02c3.11,0,4.28-4.03,4.28-9.02Z"/><path d="M828.12,376.54h-12.4v-1.43l2.04-2.16c4.98-5.04,7.5-8.09,7.5-11.51,0-2.24-.98-4.31-4-4.31-1.68,0-3.19,.92-4.2,1.74l-.78-1.62c1.29-1.15,3.19-2.04,5.43-2.04,4.23,0,5.91,3.08,5.91,5.96,0,3.95-2.77,7.31-7.11,11.68l-1.65,1.74v.06h9.27v1.9Z"/><path d="M831.42,375.11c0-1.06,.7-1.82,1.68-1.82s1.65,.76,1.65,1.82c0,1.01-.64,1.76-1.68,1.76s-1.65-.84-1.65-1.76Z"/><path d="M843.15,376.54v-18.79h-.06l-3.44,1.99-.56-1.74,4.34-2.44h1.99v20.97h-2.27Z"/><path d="M858.58,376.54v-18.79h-.06l-3.44,1.99-.56-1.74,4.34-2.44h1.99v20.97h-2.27Z"/><path d="M771.08,386.62c-3.05,2.55-5.54,7.22-5.54,12.88s2.58,10.42,5.54,12.88v.14h-1.68c-2.83-2.55-5.35-7.25-5.35-13.02s2.52-10.47,5.35-13.02h1.68v.14Z"/><path d="M776.85,396.56v-4.06c-.9,1.04-1.88,1.99-2.83,2.77-.34-.36-.98-.9-1.4-1.18,2.3-1.74,4.65-4.65,6.05-7.62l2.21,.78c-.08,.17-.28,.28-.62,.22-.39,.78-.87,1.57-1.37,2.32h18.2v1.71h-3v5.04h4.09v1.71h-4.09v5.1h3.67v1.71h-24.47v-1.71h3.56v-5.1h-3.98v-1.71h3.98Zm1.18,10.3c-.73,2.1-2.04,4.34-3.61,5.68l-1.74-.76c1.51-1.18,2.86-3.33,3.58-5.4l1.76,.48Zm.56-15.34v5.04h3.36v-5.04h-3.36Zm0,6.75v5.1h3.36v-5.1h-3.36Zm3.19,14c-.03-1.32-.25-3.5-.59-5.18l1.71-.17c.39,1.65,.7,3.81,.73,5.07l-1.85,.28Zm5.32-20.75h-3.5v5.04h3.5v-5.04Zm0,6.75h-3.5v5.1h3.5v-5.1Zm1.65,14.03c-.25-1.34-1.01-3.56-1.76-5.21l1.76-.34c.78,1.62,1.57,3.81,1.85,5.12l-1.85,.42Zm3.58-15.74v-5.04h-3.58v5.04h3.58Zm0,6.8v-5.1h-3.58v5.1h3.58Zm4.28,9.21c-.7-1.51-2.35-3.95-3.78-5.68l1.74-.62c1.46,1.71,3.14,4.06,3.89,5.6l-1.85,.7Z"/><path d="M808.38,395.55c1.29,1.79,2.63,4.23,3.11,5.8l-1.51,.73c-.14-.5-.36-1.06-.64-1.68-.84,.06-1.68,.08-2.49,.14v11.98h-1.68v-11.9c-1.57,.06-2.97,.11-4.09,.17-.03,.2-.2,.31-.39,.36l-.5-2.1h1.96c.62-.76,1.26-1.62,1.93-2.58-.87-1.29-2.32-2.94-3.61-4.14l.98-1.2c.28,.25,.59,.53,.9,.84,.95-1.62,2.04-3.86,2.66-5.46l1.99,.84c-.08,.17-.28,.25-.59,.25-.73,1.57-1.96,3.86-3.02,5.43,.64,.67,1.23,1.37,1.68,1.99,1.2-1.82,2.32-3.72,3.14-5.32l1.96,.92c-.08,.14-.31,.25-.62,.25-1.43,2.38-3.67,5.71-5.63,8.15l4.73-.08c-.5-.95-1.06-1.93-1.65-2.77l1.4-.62Zm-4.31,7.62c-.08,.17-.25,.28-.56,.28-.39,2.38-1.04,5.07-1.88,6.72-.39-.25-1.01-.53-1.4-.73,.81-1.57,1.4-4.26,1.76-6.8l2.07,.53Zm5.24-.56c.81,1.65,1.6,3.78,1.88,5.21-.34,.11-.67,.25-1.57,.53-.22-1.43-.98-3.61-1.76-5.29l1.46-.45Zm6.55-.67l1.06,.48c-.03,.11-.11,.2-.2,.25-1.01,4.4-3.16,7.34-6.05,8.93-.25-.39-.84-1.06-1.2-1.32,2.44-1.23,4.31-3.44,5.26-6.64h-4.06v-1.62h4.87l.31-.08Zm3.47-2.58c0,1.26,1.04,3.67,1.65,4.87,1.34-1.06,2.86-2.46,3.78-3.53,1.37,1.04,1.6,1.18,1.79,1.34-.08,.14-.34,.2-.62,.14-1.06,.95-2.77,2.35-4.17,3.33,1.2,1.82,2.88,3.42,5.18,4.42-.34,.36-.9,1.09-1.15,1.57-3.28-1.71-5.26-4.56-6.47-7.36v6.27c0,1.9-.78,2.07-4.48,2.07-.06-.5-.31-1.18-.53-1.68,1.34,.03,2.49,.03,2.83,.03,.36-.03,.45-.11,.45-.42v-11.06h-5.6v-9.91h4.48c.48-.95,.95-2.13,1.23-2.97l2.35,.59c-.06,.17-.25,.28-.56,.28-.28,.59-.67,1.37-1.09,2.1h6.92v9.91h-5.99Zm-5.6-8.34v2.63h9.77v-2.63h-9.77Zm0,4.12v2.66h9.77v-2.66h-9.77Z"/><path d="M827.92,412.38c3.05-2.55,5.54-7.22,5.54-12.88s-2.58-10.42-5.54-12.88v-.14h1.68c2.86,2.55,5.35,7.25,5.35,13.02s-2.49,10.47-5.35,13.02h-1.68v-.14Z"/></g></g><g class="ax"><path d="M510.86,537.14h2.32v21.34h-2.32v-21.34Z"/><path d="M517.97,537.42c1.23-.22,2.86-.42,4.84-.42,6.89,0,7.45,4.42,7.45,6.1,0,5.01-4,6.8-7.78,6.8-.81,0-1.54-.03-2.18-.2v8.76h-2.32v-21.06Zm2.32,10.36c.59,.17,1.34,.22,2.24,.22,3.36,0,5.4-1.68,5.4-4.73s-2.18-4.4-5.1-4.4c-1.18,0-2.04,.11-2.55,.22v8.68Z"/></g><g><rect class="aq" x="250.03" y="653.64" width="95.81" height="101.05"/><path class="aq" d="M345.74,653.99v100.35h-95.61v-100.35h95.61m.19-.7h-96v101.75h96v-101.75Z"/></g><g class="ax"><path d="M284.33,670.98l.3-.05,1.03,.4c0,.12-.1,.2-.18,.28-1.35,7.1-5.12,11.4-9.9,13.47-.2-.4-.65-1.02-1-1.38,2.35-.9,4.47-2.5,6.15-4.77-.8-.92-2.15-2.1-3.35-2.92l1.12-.97c1.1,.7,2.3,1.67,3.15,2.52,.85-1.45,1.53-3.15,1.97-5.05h-4.4c-1.1,2.05-2.47,3.87-4.02,5.12-.27-.28-.85-.8-1.2-1.05,2.38-1.85,4.35-5.15,5.4-8.72l1.97,.57c-.05,.18-.23,.25-.52,.25-.25,.78-.55,1.55-.88,2.3h4.35Zm-7.5-4.47v3.32h-1.62v-4.87h9.52v-3.1l2.22,.15c-.03,.17-.17,.3-.5,.33v2.62h9.67v4.87h-1.7v-3.32h-17.6Zm11.6,15.47c0,.92,.22,1.1,1.47,1.1h4.4c1.08,0,1.27-.52,1.37-3.35,.4,.3,1.08,.57,1.55,.7-.23,3.3-.75,4.25-2.83,4.25h-4.65c-2.3,0-2.97-.52-2.97-2.7v-11.52h7.45l.85,.02c0,7.37-.35,7.82-.57,8.15-.47,.57-.93,.65-2.32,.65-.43,0-.9,0-1.38-.02-.03-.48-.2-1.12-.45-1.53,.95,.1,1.83,.1,2.12,.1,.33,0,.53-.03,.68-.25,.22-.33,.3-1.7,.32-5.6h-5.05v10Z"/><path d="M308.53,675.06c-.03,.17-.2,.3-.53,.33-.65,4.4-1.87,7.87-7.72,9.72-.2-.42-.65-1.07-1.03-1.42,5.45-1.55,6.65-4.65,7.07-8.87l2.2,.25Zm6.25,7.15c0,.75,.18,.87,1.18,.87h3.4c.97,0,1.15-.52,1.25-3.87,.35,.3,1.07,.58,1.55,.7-.2,3.82-.67,4.77-2.65,4.77h-3.72c-2.15,0-2.7-.52-2.7-2.5v-7.67h-13.52v-1.65h10.25v-5.3h-5.42c-.65,1.45-1.4,2.85-2.28,3.95-.38-.25-1.02-.62-1.45-.8,1.75-2.15,3.05-5.55,3.67-8.2l2.12,.5c-.08,.17-.22,.25-.55,.25-.22,.8-.5,1.72-.87,2.67h4.77v-4.05l2.2,.12c-.03,.2-.18,.33-.5,.35v3.57h8.47v1.62h-8.47v5.3h10.27v1.65h-7v7.7Z"/><path d="M291.44,712.98h-2.05l-.47-8.57c-.15-2.72-.35-6.25-.33-8.2h-.07c-.62,2.15-1.4,4.5-2.32,7.15l-3.4,9.55h-1.52l-3.17-9.35c-.93-2.75-1.65-5.15-2.18-7.35h-.07c-.05,2.32-.2,5.47-.38,8.4l-.53,8.37h-1.97l1.33-19.04h2.55l3.35,9.67c.8,2.38,1.42,4.4,1.92,6.37h.07c.48-1.92,1.12-3.92,1.97-6.37l3.47-9.67h2.6l1.2,19.04Z"/><path d="M308.79,712.98h-2.2l-2.05-6.17h-6.62l-2,6.17h-2.12l6.3-19.04h2.4l6.3,19.04Zm-4.67-7.82l-1.88-5.65c-.4-1.3-.72-2.5-.97-3.62h-.08c-.25,1.15-.6,2.35-.95,3.55l-1.9,5.72h5.77Z"/><path d="M324.07,712.4c-.88,.42-2.58,.85-4.75,.85-4.9,0-8.85-3.17-8.85-9.62s3.82-9.97,9.4-9.97c2.27,0,3.6,.47,4.2,.77l-.55,1.75c-.88-.42-2.1-.77-3.6-.77-4.32,0-7.27,2.9-7.27,8.15s2.7,7.95,7.15,7.95c1.45,0,2.87-.33,3.82-.77l.45,1.67Z"/><path d="M274.58,724.86c-.05,.1-.2,.17-.33,.22-1.35,3.2-3.5,5.97-5.92,8-.38-.33-1.08-.78-1.52-1.02,2.3-1.67,4.15-4.1,4.97-6.2h-17.9v-1.7h18.85l.27-.12,1.58,.83Zm-9.75,4.55c-.03,.2-.25,.37-.58,.42-.72,5.9-2.75,11.52-7.9,14.5-.35-.3-1-.88-1.47-1.15,5.1-2.8,6.92-8.02,7.52-14.05l2.42,.28Z"/><path d="M292.08,735.91c-2.55-1.38-6.05-3-8.77-4.07v12.47h-1.88v-21.72l2.52,.15c-.02,.28-.23,.45-.65,.53v7.35l.38-.55c2.92,1.08,6.8,2.8,9.4,4.17l-1,1.67Zm-2.62-11.77c1.15,.95,2.65,2.52,3.45,3.67l-.95,.77c-.75-1.08-2.27-2.75-3.4-3.65l.9-.8Zm3.35-2.15c1.17,.97,2.67,2.55,3.42,3.65l-.9,.77c-.78-1.07-2.3-2.72-3.42-3.65l.9-.78Z"/><path d="M302.86,741.5c6.35-1.77,11.4-4.82,14.47-10.27,.33,.42,.95,.95,1.32,1.25-3.37,5.75-8.95,9.1-16.47,11.07-.05,.2-.2,.42-.4,.5l-1.05-1.75,.3-.47v-18.42l2.57,.12c-.02,.28-.25,.5-.75,.55v17.42Z"/><path d="M338.53,725.16c-.05,.12-.18,.22-.33,.27-1.35,3.17-2.95,5.92-5,8.6,2.72,2.17,6.82,5.9,9.15,8.47l-1.53,1.32c-2.2-2.55-6.22-6.35-8.77-8.4-2.2,2.67-6,6.32-9.62,8.4-.28-.38-.88-1-1.3-1.35,6.92-3.8,12.4-10.9,14.65-16.32h-12.27v-1.7h13.25l.33-.12,1.45,.83Z"/></g><g><rect class="aq" x="345.93" y="653.82" width="95.81" height="101.05"/><path class="aq" d="M441.64,654.17v100.35h-95.61v-100.35h95.61m.19-.7h-96v101.75h96v-101.75h0Z"/></g><g class="ax"><path d="M362.94,672.06v8.17c1.95,2.97,5.52,2.97,10.02,2.97,2.7,0,5.87-.08,7.82-.2-.2,.4-.5,1.2-.55,1.7-1.72,.08-4.47,.12-6.95,.12-5.15,0-8.57,0-11.1-3.1-1.22,1.1-2.55,2.22-3.62,3.07,.02,.23-.05,.33-.23,.4l-.97-1.85c1.2-.8,2.67-1.95,3.95-3.05v-6.65h-3.67v-1.6h5.3Zm-3.72-9.37c1.67,1.07,3.62,2.72,4.47,3.95l-1.32,1.12c-.83-1.25-2.72-2.95-4.4-4.07l1.25-1Zm21.2,11.1h-6.65c1.05,3.32,3.22,5.55,6.7,6.57-.38,.32-.85,.95-1.08,1.4-3.4-1.17-5.57-3.45-6.82-6.85-.72,2.35-2.53,4.82-6.75,6.75-.22-.38-.75-.95-1.12-1.25,4.52-1.88,6-4.37,6.47-6.62h-6.7v-1.55h6.87c.02-.3,.02-.6,.02-.88v-2.88h-6.07v-1.55h9.95l-1.28-.58c.85-1.15,1.93-3.02,2.5-4.3l2,.75c-.08,.17-.25,.22-.55,.25-.65,1.15-1.72,2.8-2.6,3.87h4.35v1.55h-6.62v2.88c0,.27,0,.57-.03,.88h7.4v1.55Zm-11.8-6.85c-.33-1.15-1.28-2.92-2.28-4.2l1.43-.6c1.02,1.25,2.02,2.95,2.35,4.1l-1.5,.7Z"/><path d="M385.84,670.89c-.95,1.58-2,2.97-3.05,4.17-.18-.4-.6-1.17-.88-1.58,2.4-2.6,4.8-6.92,6.25-11.25l2,.67c-.1,.17-.28,.25-.58,.22-.65,1.75-1.42,3.5-2.3,5.17l.68,.17c-.05,.15-.18,.28-.5,.3v16.57h-1.62v-14.47Zm3.35-4.1h16.5v1.42h-16.5v-1.42Zm1.85,18.5v-8.02h12.92v7.95h-1.7v-1.17h-9.6v1.25h-1.62Zm12.7-15v1.4h-12.45v-1.4h12.45Zm-12.45,4.9v-1.4h12.42v1.4h-12.42Zm12-11.9v1.4h-11.72v-1.4h11.72Zm-1.02,15.37h-9.6v3.97h9.6v-3.97Z"/><path d="M416.71,673.39c-.02,.17-.2,.33-.52,.38-.55,4.85-1.6,9.27-7.55,11.55-.2-.42-.68-1.02-1.05-1.35,5.5-1.97,6.45-6,6.85-10.77l2.27,.2Zm6.5,9.1c0,.85,.2,1.05,1.22,1.05h3.47c1.08,0,1.25-.7,1.38-4.65,.38,.33,1.07,.62,1.53,.75-.18,4.3-.65,5.45-2.78,5.45h-3.77c-2.15,0-2.75-.55-2.75-2.6v-9.62h-13.6v-1.65h22.32v1.65h-6.9l-.12,.03v9.6Zm4.87-18.62v1.62h-17.95v-1.62h17.95Z"/><path d="M387.35,713.16h-2.05l-.47-8.57c-.15-2.72-.35-6.25-.32-8.2h-.08c-.62,2.15-1.4,4.5-2.33,7.15l-3.4,9.55h-1.53l-3.17-9.35c-.92-2.75-1.65-5.15-2.17-7.35h-.08c-.05,2.32-.2,5.47-.38,8.4l-.52,8.37h-1.97l1.32-19.04h2.55l3.35,9.67c.8,2.38,1.42,4.4,1.92,6.37h.08c.47-1.92,1.12-3.92,1.97-6.37l3.47-9.67h2.6l1.2,19.04Z"/><path d="M404.7,713.16h-2.2l-2.05-6.17h-6.62l-2,6.17h-2.12l6.3-19.04h2.4l6.3,19.04Zm-4.67-7.82l-1.87-5.65c-.4-1.3-.72-2.5-.97-3.62h-.08c-.25,1.15-.6,2.35-.95,3.55l-1.9,5.72h5.77Z"/><path d="M419.97,712.58c-.88,.42-2.57,.85-4.75,.85-4.9,0-8.85-3.17-8.85-9.62s3.82-9.97,9.4-9.97c2.28,0,3.6,.47,4.2,.77l-.55,1.75c-.88-.42-2.1-.77-3.6-.77-4.32,0-7.27,2.9-7.27,8.15s2.7,7.95,7.15,7.95c1.45,0,2.87-.33,3.82-.77l.45,1.67Z"/><path d="M370.48,725.04c-.05,.1-.2,.17-.32,.22-1.35,3.2-3.5,5.97-5.92,8-.38-.33-1.07-.78-1.52-1.02,2.3-1.67,4.15-4.1,4.97-6.2h-17.9v-1.7h18.84l.28-.12,1.57,.83Zm-9.75,4.55c-.02,.2-.25,.37-.58,.42-.72,5.9-2.75,11.52-7.9,14.5-.35-.3-1-.88-1.47-1.15,5.1-2.8,6.92-8.02,7.52-14.05l2.42,.28Z"/><path d="M387.99,736.09c-2.55-1.38-6.05-3-8.77-4.07v12.47h-1.87v-21.72l2.52,.15c-.03,.28-.22,.45-.65,.53v7.35l.38-.55c2.92,1.08,6.8,2.8,9.4,4.17l-1,1.67Zm-2.62-11.77c1.15,.95,2.65,2.52,3.45,3.67l-.95,.77c-.75-1.08-2.27-2.75-3.4-3.65l.9-.8Zm3.35-2.15c1.17,.97,2.67,2.55,3.42,3.65l-.9,.77c-.77-1.07-2.3-2.72-3.42-3.65l.9-.78Z"/><path d="M398.76,741.69c6.35-1.77,11.4-4.82,14.47-10.27,.33,.42,.95,.95,1.33,1.25-3.38,5.75-8.95,9.1-16.47,11.07-.05,.2-.2,.42-.4,.5l-1.05-1.75,.3-.47v-18.42l2.57,.12c-.03,.28-.25,.5-.75,.55v17.42Z"/><path d="M434.43,725.34c-.05,.12-.17,.22-.32,.27-1.35,3.17-2.95,5.92-5,8.6,2.72,2.17,6.82,5.9,9.15,8.47l-1.52,1.32c-2.2-2.55-6.22-6.35-8.77-8.4-2.2,2.67-6,6.32-9.62,8.4-.27-.38-.88-1-1.3-1.35,6.92-3.8,12.4-10.9,14.65-16.32h-12.27v-1.7h13.25l.32-.12,1.45,.83Z"/></g><g><rect class="aq" x="441.93" y="653.82" width="95.81" height="101.05"/><path class="aq" d="M537.64,654.17v100.35h-95.61v-100.35h95.61m.19-.7h-96v101.75h96v-101.75h0Z"/></g><g class="ax"><path d="M475.43,665.37c-.1,.12-.25,.2-.47,.2-.08,0-.15,0-.25-.02-1.92,1.95-4.7,4.22-7.12,5.97,.2,.07,.5,.22,.6,.27-.05,.15-.28,.3-.55,.33v13.42h-1.82v-12.85c-2.65,1.88-6.1,3.9-9.52,5.57-.25-.4-.7-1.02-1.05-1.38,6.82-3.15,14.3-8.5,18.32-12.92l1.88,1.4Z"/><path d="M478.74,673.34h20.87v1.77h-19.92c-.15,.25-.48,.42-.8,.47l-.15-2.25Z"/><path d="M524.66,671.26h-5.22v1.72c0,4.77-1.47,9.62-8,12.57-.33-.4-.85-.9-1.3-1.25,6.35-2.75,7.52-7.2,7.52-11.3v-1.75h-8.07v6.22h-1.77v-6.22h-4.9v-1.7h4.9v-5.42l2.4,.15c-.02,.25-.25,.47-.62,.52v4.75h8.07v-5.75l2.4,.15c-.03,.23-.23,.42-.62,.48v5.12h5.22v1.7Z"/><path d="M477.28,699.61c-.07,.12-.22,.2-.45,.23-1.6,2-3.75,4.15-6.05,5.92l.4,.1c-.05,.12-.23,.33-.55,.35v9.52h-1.77v-8.67c-2.55,1.75-5.85,3.52-8.92,4.75-.12-.17-.95-1.2-1.15-1.4,6.05-2.25,11.8-5.97,15.22-9.97h-12.65v-1.62h14.32l.28-.17,1.32,.97Zm-4.12-1.95c-2.17-1.15-5.57-2.27-8.22-3.02l.83-1.45c2.67,.65,6.05,1.85,8.32,2.95l-.92,1.52Zm.17,8.02c2.5,1.3,5.5,3.17,7.3,4.6l-1.28,1.35c-1.67-1.4-4.77-3.42-7.17-4.7l1.15-1.25Z"/><path d="M485.71,700.46c.75,1.52,1.57,3.92,1.87,5.37l-1.4,.38c-.3-1.45-1.07-3.72-1.82-5.32l1.35-.42Zm14.92,.17c-.05,.22-.3,.27-.52,.25-1.95,7.3-5.62,11.77-11.67,14.22-.2-.3-.65-.88-.97-1.15,5.97-2.35,9.4-6.45,11.22-13.9l1.95,.58Zm-8.85-1.38c.52,1.67,1,4.07,1.17,5.67l-1.47,.27c-.15-1.6-.62-3.9-1.17-5.62l1.47-.33Z"/><path d="M518.86,707.06c-2.55-1.37-6.05-3-8.77-4.07v12.5h-1.87v-21.72l2.52,.15c-.03,.28-.22,.45-.65,.53v7.3l.38-.53c2.92,1.08,6.8,2.8,9.4,4.17l-1,1.67Z"/><path d="M474.96,727.99c-.03,.12-.15,.22-.3,.27-.92,3.1-2.17,5.95-3.67,8.27,1.08,.62,2.3,1.4,3.22,2.07l-1.05,1.65c-.9-.7-2.17-1.52-3.22-2.17-2.3,3.2-5.25,5.77-9.02,7.6-.28-.42-.92-1.02-1.38-1.3,3.65-1.7,6.57-4.22,8.85-7.2-1.85-1.02-3.67-1.9-5.52-2.6l.95-1.4c1.83,.65,3.7,1.5,5.62,2.52,1.3-2.05,2.32-4.22,3.02-6.62h-8.47c-1.52,2.55-3.57,5.07-5.77,6.87-.32-.3-1-.85-1.42-1.12,3.27-2.5,6.37-7,7.87-11.27l2.37,.55c-.1,.27-.35,.35-.67,.33-.35,.82-.93,2.05-1.4,2.97h8.3l.35-.1,1.35,.67Z"/><path d="M499.31,725.37c-.1,.12-.25,.2-.47,.2-.08,0-.15,0-.25-.02-1.92,1.95-4.7,4.22-7.12,5.97,.2,.07,.5,.22,.6,.27-.05,.15-.28,.3-.55,.33v13.42h-1.82v-12.85c-2.65,1.88-6.1,3.9-9.52,5.57-.25-.4-.7-1.02-1.05-1.38,6.82-3.15,14.3-8.5,18.32-12.92l1.88,1.4Z"/><path d="M502.86,726.79h15.9l.15-.07,1.7,1.3c-.08,.1-.15,.18-.3,.23-2.02,9.4-6.37,14.3-14.02,17.2-.27-.45-.77-1.1-1.12-1.47,7.27-2.67,11.47-7.32,13.1-15.45h-15.4v-1.72Zm19.05-4.47c1.5,0,2.72,1.22,2.72,2.75s-1.22,2.72-2.72,2.72-2.75-1.22-2.75-2.72c0-1.57,1.27-2.75,2.75-2.75Zm1.9,2.75c0-1.07-.85-1.92-1.9-1.92s-1.92,.85-1.92,1.92,.88,1.92,1.92,1.92,1.9-.92,1.9-1.92Z"/></g><g><rect class="at" x="537.89" y="653.64" width="92.02" height="101.05"/><path class="at" d="M629.82,653.99v100.35h-91.84v-100.35h91.84m.19-.7h-92.21v101.75h92.21v-101.75h0Z"/></g><g class="ax"><path d="M553.01,673.01v8.17c1.95,2.97,5.52,2.97,10.02,2.97,2.7,0,5.87-.08,7.82-.2-.2,.4-.5,1.2-.55,1.7-1.72,.08-4.47,.12-6.95,.12-5.15,0-8.57,0-11.1-3.1-1.22,1.1-2.55,2.22-3.62,3.07,.02,.23-.05,.33-.23,.4l-.97-1.85c1.2-.8,2.67-1.95,3.95-3.05v-6.65h-3.67v-1.6h5.3Zm-3.72-9.37c1.67,1.07,3.62,2.72,4.47,3.95l-1.32,1.12c-.83-1.25-2.72-2.95-4.4-4.07l1.25-1Zm21.2,11.1h-6.65c1.05,3.32,3.22,5.55,6.7,6.57-.38,.32-.85,.95-1.08,1.4-3.4-1.17-5.57-3.45-6.82-6.85-.72,2.35-2.53,4.82-6.75,6.75-.22-.38-.75-.95-1.12-1.25,4.52-1.88,6-4.37,6.47-6.62h-6.7v-1.55h6.87c.02-.3,.02-.6,.02-.88v-2.88h-6.07v-1.55h9.95l-1.28-.58c.85-1.15,1.93-3.02,2.5-4.3l2,.75c-.08,.17-.25,.22-.55,.25-.65,1.15-1.72,2.8-2.6,3.87h4.35v1.55h-6.62v2.88c0,.27,0,.57-.03,.88h7.4v1.55Zm-11.8-6.85c-.33-1.15-1.28-2.92-2.28-4.2l1.43-.6c1.02,1.25,2.02,2.95,2.35,4.1l-1.5,.7Z"/><path d="M575.91,671.84c-.95,1.58-2,2.97-3.05,4.17-.18-.4-.6-1.17-.88-1.58,2.4-2.6,4.8-6.92,6.25-11.25l2,.67c-.1,.17-.28,.25-.58,.22-.65,1.75-1.42,3.5-2.3,5.17l.68,.17c-.05,.15-.18,.28-.5,.3v16.57h-1.62v-14.47Zm3.35-4.1h16.5v1.42h-16.5v-1.42Zm1.85,18.5v-8.02h12.92v7.95h-1.7v-1.17h-9.6v1.25h-1.62Zm12.7-15v1.4h-12.45v-1.4h12.45Zm-12.45,4.9v-1.4h12.42v1.4h-12.42Zm12-11.9v1.4h-11.72v-1.4h11.72Zm-1.02,15.37h-9.6v3.97h9.6v-3.97Z"/><path d="M606.78,674.34c-.02,.17-.2,.33-.52,.38-.55,4.85-1.6,9.27-7.55,11.55-.2-.42-.68-1.02-1.05-1.35,5.5-1.97,6.45-6,6.85-10.77l2.27,.2Zm6.5,9.1c0,.85,.2,1.05,1.22,1.05h3.47c1.08,0,1.25-.7,1.38-4.65,.38,.33,1.07,.62,1.53,.75-.18,4.3-.65,5.45-2.78,5.45h-3.77c-2.15,0-2.75-.55-2.75-2.6v-9.62h-13.6v-1.65h22.32v1.65h-6.9l-.12,.03v9.6Zm4.87-18.62v1.62h-17.95v-1.62h17.95Z"/><path d="M575.96,695.07h2.07v19.04h-2.07v-19.04Z"/><path d="M582.31,695.32c1.1-.2,2.55-.38,4.32-.38,6.15,0,6.65,3.95,6.65,5.45,0,4.47-3.57,6.07-6.95,6.07-.72,0-1.37-.02-1.95-.17v7.82h-2.07v-18.79Zm2.07,9.25c.53,.15,1.2,.2,2,.2,3,0,4.82-1.5,4.82-4.22s-1.95-3.92-4.55-3.92c-1.05,0-1.82,.1-2.28,.2v7.75Z"/><path d="M560.56,725.99c-.05,.1-.2,.17-.32,.22-1.35,3.2-3.5,5.97-5.92,8-.38-.33-1.07-.78-1.52-1.02,2.3-1.67,4.15-4.1,4.97-6.2h-17.9v-1.7h18.84l.28-.12,1.57,.83Zm-9.75,4.55c-.02,.2-.25,.37-.58,.42-.72,5.9-2.75,11.52-7.9,14.5-.35-.3-1-.88-1.47-1.15,5.1-2.8,6.92-8.02,7.52-14.05l2.42,.28Z"/><path d="M578.06,737.04c-2.55-1.38-6.05-3-8.77-4.07v12.47h-1.87v-21.72l2.52,.15c-.03,.28-.22,.45-.65,.53v7.35l.38-.55c2.92,1.08,6.8,2.8,9.4,4.17l-1,1.67Zm-2.62-11.77c1.15,.95,2.65,2.52,3.45,3.67l-.95,.77c-.75-1.08-2.27-2.75-3.4-3.65l.9-.8Zm3.35-2.15c1.17,.97,2.67,2.55,3.42,3.65l-.9,.77c-.77-1.07-2.3-2.72-3.42-3.65l.9-.78Z"/><path d="M588.84,742.64c6.35-1.77,11.4-4.82,14.47-10.27,.33,.42,.95,.95,1.33,1.25-3.38,5.75-8.95,9.1-16.47,11.07-.05,.2-.2,.42-.4,.5l-1.05-1.75,.3-.47v-18.42l2.57,.12c-.03,.28-.25,.5-.75,.55v17.42Z"/><path d="M624.51,726.29c-.05,.12-.17,.22-.32,.27-1.35,3.17-2.95,5.92-5,8.6,2.72,2.17,6.82,5.9,9.15,8.47l-1.52,1.32c-2.2-2.55-6.22-6.35-8.77-8.4-2.2,2.67-6,6.32-9.62,8.4-.27-.38-.88-1-1.3-1.35,6.92-3.8,12.4-10.9,14.65-16.32h-12.27v-1.7h13.25l.32-.12,1.45,.83Z"/></g><g><rect class="at" x="628.89" y="653.82" width="92.02" height="101.05"/><path class="at" d="M720.82,654.17v100.35h-91.84v-100.35h91.84m.19-.7h-92.21v101.75h92.21v-101.75h0Z"/></g><g class="ax"><path d="M661.31,672.3l.3-.05,1.02,.4c0,.12-.1,.2-.17,.28-1.35,7.1-5.12,11.4-9.9,13.47-.2-.4-.65-1.02-1-1.38,2.35-.9,4.47-2.5,6.15-4.77-.8-.92-2.15-2.1-3.35-2.92l1.12-.97c1.1,.7,2.3,1.67,3.15,2.52,.85-1.45,1.52-3.15,1.97-5.05h-4.4c-1.1,2.05-2.47,3.87-4.02,5.12-.28-.28-.85-.8-1.2-1.05,2.37-1.85,4.35-5.15,5.4-8.72l1.97,.57c-.05,.18-.22,.25-.53,.25-.25,.78-.55,1.55-.88,2.3h4.35Zm-7.5-4.47v3.32h-1.62v-4.87h9.52v-3.1l2.22,.15c-.03,.17-.18,.3-.5,.33v2.62h9.67v4.87h-1.7v-3.32h-17.6Zm11.6,15.47c0,.92,.22,1.1,1.47,1.1h4.4c1.07,0,1.27-.52,1.38-3.35,.4,.3,1.07,.57,1.55,.7-.22,3.3-.75,4.25-2.82,4.25h-4.65c-2.3,0-2.97-.52-2.97-2.7v-11.52h7.45l.85,.02c0,7.37-.35,7.82-.58,8.15-.47,.57-.92,.65-2.32,.65-.42,0-.9,0-1.38-.02-.02-.48-.2-1.12-.45-1.53,.95,.1,1.82,.1,2.12,.1,.32,0,.52-.03,.67-.25,.23-.33,.3-1.7,.33-5.6h-5.05v10Z"/><path d="M685.51,676.37c-.02,.17-.2,.3-.52,.33-.65,4.4-1.88,7.87-7.72,9.72-.2-.42-.65-1.07-1.02-1.42,5.45-1.55,6.65-4.65,7.07-8.87l2.2,.25Zm6.25,7.15c0,.75,.17,.87,1.17,.87h3.4c.97,0,1.15-.52,1.25-3.87,.35,.3,1.08,.58,1.55,.7-.2,3.82-.68,4.77-2.65,4.77h-3.72c-2.15,0-2.7-.52-2.7-2.5v-7.67h-13.52v-1.65h10.25v-5.3h-5.42c-.65,1.45-1.4,2.85-2.27,3.95-.38-.25-1.03-.62-1.45-.8,1.75-2.15,3.05-5.55,3.67-8.2l2.12,.5c-.07,.17-.22,.25-.55,.25-.23,.8-.5,1.72-.88,2.67h4.77v-4.05l2.2,.12c-.02,.2-.17,.33-.5,.35v3.57h8.47v1.62h-8.47v5.3h10.27v1.65h-7v7.7Z"/><path d="M666.96,695.25h2.07v19.04h-2.07v-19.04Z"/><path d="M673.31,695.5c1.1-.2,2.55-.38,4.32-.38,6.15,0,6.65,3.95,6.65,5.45,0,4.47-3.57,6.07-6.95,6.07-.72,0-1.37-.02-1.95-.17v7.82h-2.07v-18.79Zm2.07,9.25c.53,.15,1.2,.2,2,.2,3,0,4.82-1.5,4.82-4.22s-1.95-3.92-4.55-3.92c-1.05,0-1.82,.1-2.28,.2v7.75Z"/><path d="M651.56,726.17c-.05,.1-.2,.17-.32,.22-1.35,3.2-3.5,5.97-5.92,8-.38-.33-1.07-.78-1.52-1.02,2.3-1.67,4.15-4.1,4.97-6.2h-17.9v-1.7h18.84l.28-.12,1.57,.83Zm-9.75,4.55c-.02,.2-.25,.37-.58,.42-.72,5.9-2.75,11.52-7.9,14.5-.35-.3-1-.88-1.47-1.15,5.1-2.8,6.92-8.02,7.52-14.05l2.42,.28Z"/><path d="M669.06,737.22c-2.55-1.38-6.05-3-8.77-4.07v12.47h-1.87v-21.72l2.52,.15c-.03,.28-.22,.45-.65,.53v7.35l.38-.55c2.92,1.08,6.8,2.8,9.4,4.17l-1,1.67Zm-2.62-11.77c1.15,.95,2.65,2.52,3.45,3.67l-.95,.77c-.75-1.08-2.27-2.75-3.4-3.65l.9-.8Zm3.35-2.15c1.17,.97,2.67,2.55,3.42,3.65l-.9,.77c-.77-1.07-2.3-2.72-3.42-3.65l.9-.78Z"/><path d="M679.84,742.82c6.35-1.77,11.4-4.82,14.47-10.27,.33,.42,.95,.95,1.33,1.25-3.38,5.75-8.95,9.1-16.47,11.07-.05,.2-.2,.42-.4,.5l-1.05-1.75,.3-.47v-18.42l2.57,.12c-.03,.28-.25,.5-.75,.55v17.42Z"/><path d="M715.51,726.47c-.05,.12-.17,.22-.32,.27-1.35,3.17-2.95,5.92-5,8.6,2.72,2.17,6.82,5.9,9.15,8.47l-1.52,1.32c-2.2-2.55-6.22-6.35-8.77-8.4-2.2,2.67-6,6.32-9.62,8.4-.27-.38-.88-1-1.3-1.35,6.92-3.8,12.4-10.9,14.65-16.32h-12.27v-1.7h13.25l.32-.12,1.45,.83Z"/></g><g><rect class="at" x="719.9" y="653.82" width="103.92" height="101.05"/><path class="at" d="M823.72,654.17v100.35h-103.71v-100.35h103.71m.21-.7h-104.13v101.75h104.13v-101.75h0Z"/></g><g class="ax"><path d="M739.75,667.74h15.9l.15-.07,1.7,1.3c-.08,.1-.15,.18-.3,.23-2.02,9.4-6.37,14.3-14.02,17.2-.28-.45-.77-1.1-1.12-1.47,7.27-2.67,11.47-7.32,13.1-15.45h-15.4v-1.72Zm19.04-4.47c1.5,0,2.72,1.22,2.72,2.75s-1.22,2.72-2.72,2.72-2.75-1.22-2.75-2.72c0-1.57,1.27-2.75,2.75-2.75Zm1.9,2.75c0-1.07-.85-1.92-1.9-1.92s-1.92,.85-1.92,1.92,.88,1.92,1.92,1.92,1.9-.92,1.9-1.92Z"/><path d="M782.22,668.14v16.5h-1.8v-1.58h-13.77v1.62h-1.75v-16.55h17.32Zm-1.8,13.25v-11.57h-13.77v11.57h13.77Z"/><path d="M801.62,678.01c-2.55-1.37-6.05-3-8.77-4.07v12.5h-1.87v-21.72l2.52,.15c-.03,.28-.22,.45-.65,.53v7.3l.38-.53c2.92,1.08,6.8,2.8,9.4,4.17l-1,1.67Z"/><path d="M767.29,698.22v16.92h-1.82v-1.38h-15.75v-1.67h15.75v-12.2h-15.5v-1.67h17.32Z"/><path d="M778.47,698.64c-.02,.22-.25,.38-.58,.42-.15,6.72-.7,12.85-4.55,17.32-.4-.3-1-.67-1.5-.95,3.72-4.05,4.17-10.3,4.25-17.02l2.37,.23Zm6.47,14.4c4.17-2.02,6.87-5.67,8.32-10.05,.38,.33,1.12,.75,1.55,.97-1.78,5.05-4.88,8.77-10.2,11.3-.08,.2-.25,.4-.43,.5l-1.3-1.65,.27-.38v-18.34l2.32,.12c-.02,.23-.2,.43-.55,.48v17.05Z"/><path d="M756.47,728.94c-.03,.12-.15,.22-.3,.27-.92,3.1-2.17,5.95-3.67,8.27,1.08,.62,2.3,1.4,3.22,2.07l-1.05,1.65c-.9-.7-2.17-1.52-3.22-2.17-2.3,3.2-5.25,5.77-9.02,7.6-.28-.42-.92-1.02-1.38-1.3,3.65-1.7,6.57-4.22,8.85-7.2-1.85-1.02-3.67-1.9-5.52-2.6l.95-1.4c1.83,.65,3.7,1.5,5.62,2.52,1.3-2.05,2.32-4.22,3.02-6.62h-8.47c-1.52,2.55-3.57,5.07-5.77,6.87-.32-.3-1-.85-1.42-1.12,3.27-2.5,6.37-7,7.87-11.27l2.37,.55c-.1,.27-.35,.35-.67,.33-.35,.82-.93,2.05-1.4,2.97h8.3l.35-.1,1.35,.67Z"/><path d="M780.82,726.32c-.1,.12-.25,.2-.47,.2-.08,0-.15,0-.25-.02-1.92,1.95-4.7,4.22-7.12,5.97,.2,.07,.5,.22,.6,.27-.05,.15-.28,.3-.55,.33v13.42h-1.82v-12.85c-2.65,1.88-6.1,3.9-9.52,5.57-.25-.4-.7-1.02-1.05-1.38,6.82-3.15,14.3-8.5,18.32-12.92l1.88,1.4Z"/><path d="M784.37,727.74h15.9l.15-.07,1.7,1.3c-.08,.1-.15,.18-.3,.23-2.02,9.4-6.37,14.3-14.02,17.2-.27-.45-.77-1.1-1.12-1.47,7.27-2.67,11.47-7.32,13.1-15.45h-15.4v-1.72Zm19.05-4.47c1.5,0,2.72,1.22,2.72,2.75s-1.22,2.72-2.72,2.72-2.75-1.22-2.75-2.72c0-1.57,1.27-2.75,2.75-2.75Zm1.9,2.75c0-1.07-.85-1.92-1.9-1.92s-1.92,.85-1.92,1.92,.88,1.92,1.92,1.92,1.9-.92,1.9-1.92Z"/></g><g><path class="ar" d="M170.8,111.18c-29.08-7.17-68.95-13.5-100.52-4.38C5.71,125.46,19.32,196.26,25.22,226.98c8.61,44.81,44.21,138.33,229.99,243.35"/><polygon class="cd" points="261.99 453.21 244.21 485.02 269 478 261.99 453.21"/></g><g class="ax"><path class="cd" d="M439.17,54.98c-7.71,0-13.95-6.24-13.95-13.95s6.24-13.95,13.95-13.95,13.95,6.24,13.95,13.95-6.3,13.95-13.95,13.95Zm-13.02-13.95c0,7.2,5.82,13.02,13.02,13.02s13.02-5.82,13.02-13.02-5.82-13.02-13.02-13.02-13.02,5.88-13.02,13.02Zm12.36-5.91h-.03l-2.58,1.38-.39-1.56,3.12-1.62h1.86v15.42h-1.98v-13.62Z"/><path class="cd" d="M482.49,34.85h-15.9c-.81,2.1-1.77,4.17-2.94,6.09h16.59v13.92h-2.1v-1.59h-13.95v1.74h-2.01v-11.85c-1.62,2.19-3.54,4.2-5.82,5.82-.3-.48-.96-1.23-1.38-1.62,4.41-3.03,7.38-7.56,9.36-12.51h-8.37v-1.98h9.09c.66-1.92,1.17-3.87,1.59-5.79l2.7,.6c-.09,.24-.3,.36-.69,.36-.39,1.59-.84,3.21-1.35,4.83h15.18v1.98Zm-4.35,8.07h-13.95v8.4h13.95v-8.4Z"/><path class="cd" d="M499.2,51.5h13.62v2.04h-27.27v-2.04h11.55V27.59l2.73,.18c-.03,.21-.21,.36-.63,.42v8.88h11.52v2.04h-11.52v12.39Z"/><path class="cd" d="M530.91,32.57c-.12,.27-.36,.48-.75,.48-1.08,9.33-4.2,17.46-9.18,17.46-2.52,0-4.8-2.52-4.8-7.26,0-7.2,5.61-13.23,13.5-13.23,8.67,0,12.42,5.49,12.42,11.34,0,7.14-4.14,10.59-11.4,12.27-.27-.48-.78-1.29-1.26-1.83,6.9-1.32,10.44-4.68,10.44-10.35,0-4.95-3.18-9.45-10.2-9.45-.3,0-.63,.03-.9,.06l2.13,.51Zm-2.88-.39c-6.06,.75-9.81,5.76-9.81,11.01,0,3.21,1.38,5.22,2.82,5.22,3.63,0,6.24-8.01,6.99-16.23Z"/><path class="cd" d="M546.78,36.56c2.7,.6,6.06,1.74,8.07,2.7l-.9,1.89c-1.98-.96-5.43-2.16-8.07-2.76l.9-1.83Zm1.8,14.67c9.75-3.27,16.41-8.46,20.4-17.46,.45,.39,1.38,1.02,1.83,1.32-4.02,8.91-11.01,14.46-20.19,17.73,.06,.27-.09,.63-.36,.75l-1.68-2.34Zm1.5-22.11c2.7,.72,6,1.92,8.04,2.94l-.99,1.83c-2.13-1.08-5.25-2.28-7.95-3.03l.9-1.74Z"/><path class="cd" d="M575.22,47.18c6.6,.75,14.31,2.46,19.02,4.32l-.9,2.1c-4.26-1.77-12.24-3.66-18.84-4.44l.72-1.98Zm2.4-9.18c4.77,.48,10.77,1.62,14.49,2.76l-.69,2.1c-3.51-1.2-9.57-2.34-14.43-2.82l.63-2.04Zm.12-9.27c5.1,.54,11.64,1.74,15.78,3.21l-.87,2.1c-4.14-1.56-10.5-2.73-15.6-3.3l.69-2.01Z"/><path class="cd" d="M619.77,50v1.74h-20.46v-1.74h12.21c.48-3.03,1.29-9,1.59-12.06h-11.43v-1.74h12.03l.36-.12,1.47,.72c-.03,.12-.18,.24-.36,.27-.39,3.15-1.35,9.72-1.86,12.93h6.45Z"/><path class="cd" d="M628.86,50.66c7.62-2.13,13.68-5.79,17.37-12.33,.39,.51,1.14,1.14,1.59,1.5-4.05,6.9-10.74,10.92-19.77,13.29-.06,.24-.24,.51-.48,.6l-1.26-2.1,.36-.57V28.94l3.09,.15c-.03,.33-.3,.6-.9,.66v20.91Z"/><path class="cd" d="M652.08,39.44h25.05v2.13h-23.91c-.18,.3-.57,.51-.96,.57l-.18-2.7Z"/><path class="cd" d="M702.9,33.02c-.03,.15-.18,.27-.36,.33-1.11,3.72-2.61,7.14-4.41,9.93,1.29,.75,2.76,1.68,3.87,2.49l-1.26,1.98c-1.08-.84-2.61-1.83-3.87-2.61-2.76,3.84-6.3,6.93-10.83,9.12-.33-.51-1.11-1.23-1.65-1.56,4.38-2.04,7.89-5.07,10.62-8.64-2.22-1.23-4.41-2.28-6.63-3.12l1.14-1.68c2.19,.78,4.44,1.8,6.75,3.03,1.56-2.46,2.79-5.07,3.63-7.95h-10.17c-1.83,3.06-4.29,6.09-6.93,8.25-.39-.36-1.2-1.02-1.71-1.35,3.93-3,7.65-8.4,9.45-13.53l2.85,.66c-.12,.33-.42,.42-.81,.39-.42,.99-1.11,2.46-1.68,3.57h9.96l.42-.12,1.62,.81Z"/><path class="cd" d="M718.95,32.18v1.68h-11.46v-1.68h11.46Zm-1.05,12.24v8.82h-7.23v1.41h-1.8v-10.23h9.03Zm-9-6.51v-1.65h9.03v1.65h-9.03Zm0,4.08v-1.65h9.03v1.65h-9.03Zm8.94-13.8v1.65h-8.76v-1.65h8.76Zm-1.74,17.94h-5.43v5.4h5.43v-5.4Zm7.26-16.2v1.86c0,2.58-.66,5.79-3.9,7.92-.3-.39-1.05-1.08-1.47-1.35,2.97-1.92,3.45-4.47,3.45-6.6v-3.69h9.45v7.59c0,.66,.09,.78,.63,.78h1.68c.57,0,.66-.39,.72-3.39,.39,.33,1.2,.63,1.71,.75-.15,3.54-.66,4.41-2.22,4.41h-2.16c-1.77,0-2.28-.54-2.28-2.52v-5.76h-5.61Zm9.24,10.29l1.32,.54c-.03,.15-.15,.24-.24,.33-1.02,3.57-2.85,6.45-5.19,8.67,2.04,1.59,4.44,2.76,7.2,3.45-.45,.42-1.02,1.23-1.32,1.74-2.85-.84-5.31-2.13-7.41-3.87-2.31,1.8-4.98,3.09-7.8,3.9-.21-.51-.69-1.35-1.11-1.77,2.67-.69,5.22-1.83,7.44-3.48-1.89-1.95-3.39-4.26-4.44-6.96l1.8-.57c.93,2.4,2.34,4.5,4.14,6.27,1.8-1.71,3.27-3.81,4.23-6.33h-11.85v-1.86h12.87l.36-.06Z"/><path class="cd" d="M752.46,45.59v6.54c1.59,.3,3.33,.39,5.22,.39,1.05,0,6.33,0,7.71-.03-.33,.51-.69,1.44-.78,2.04h-7.02c-6.45,0-11.13-1.11-13.92-6.48-1.08,2.94-2.61,5.4-4.71,7.05-.33-.39-1.05-.99-1.53-1.32,3.3-2.43,5.04-7.02,5.73-12.63l2.58,.42c-.06,.21-.24,.36-.6,.36-.18,1.2-.42,2.37-.69,3.51,1.26,3.36,3.3,5.16,5.94,6.12v-13.2h-7.65v-1.92h17.64v1.92h-7.92v5.31h9.21v1.92h-9.21Zm-11.58-12.93v4.53h-1.98v-6.45h11.46v-3.69l2.73,.18c-.03,.21-.21,.36-.63,.42v3.09h11.58v6.45h-2.07v-4.53h-21.09Z"/><path class="cd" d="M793.38,39.95c-.06,.03-.12,.06-.18,.06-.18,0-.33-.09-.45-.18-2.28,.75-5.61,1.98-8.1,3.06,.06,.69,.09,1.47,.09,2.34,0,.96-.03,2.04-.09,3.21l-2.19,.12c.09-1.08,.15-2.46,.15-3.63,0-.45,0-.87-.03-1.2-3.39,1.65-6.15,3.66-6.15,5.46s2.07,2.58,6.21,2.58c2.91,0,5.61-.06,7.53-.3l.03,2.01c-1.77,.18-4.47,.24-7.56,.24-5.76,0-8.31-1.38-8.31-4.44,0-2.64,3.48-5.19,7.98-7.44-.18-1.89-1.02-2.82-2.22-2.82-2.19,0-4.47,1.23-7.17,4.23-.84,.93-2.01,2.1-3.3,3.27l-1.47-1.47c3-2.64,5.82-5.16,7.56-11.07l-1.68,.03h-5.01v-1.95c1.83,.03,3.96,.03,5.19,.03l2.04-.03c.33-1.38,.6-2.67,.81-4.29l2.94,.36c-.06,.3-.3,.48-.75,.54-.21,1.2-.48,2.25-.75,3.33,2.04-.03,6.42-.51,10.32-1.74l.36,2.01c-3.75,1.17-8.28,1.59-11.25,1.68-.72,2.25-1.47,4.05-2.16,5.07h.03c1.32-1.17,3.3-1.95,4.83-1.95,2.04,0,3.33,1.47,3.72,3.9,2.52-1.14,5.7-2.37,8.1-3.3l.93,2.28Z"/><path class="cd" d="M808.8,38.57h-9v16.44h-1.98V28.43h10.98v10.14Zm-1.92-8.55h-7.08v2.64h7.08v-2.64Zm-7.08,6.96h7.08v-2.82h-7.08v2.82Zm18.69,10.5h-4.26v6.93h-1.83v-6.93h-4.59c-.21,1.95-1.17,5.22-4.14,7.2-.3-.39-.9-.96-1.35-1.26,2.64-1.65,3.51-4.17,3.69-5.94h-3.93v-1.71h3.99v-3.51h-3.39v-1.71h15.15v1.71h-3.6v3.51h4.26v1.71Zm-10.62-1.71h4.53v-3.51h-4.53v3.51Zm15-17.34v23.82c0,2.58-1.14,2.7-5.85,2.7-.09-.57-.36-1.5-.66-2.07,1.02,.03,2.01,.06,2.76,.06,1.59,0,1.77,0,1.77-.69v-13.65h-9.27v-10.17h11.25Zm-1.98,1.59h-7.32v2.64h7.32v-2.64Zm-7.32,6.99h7.32v-2.85h-7.32v2.85Z"/><path class="cd" d="M831.45,31.16c-.06,.27-.39,.45-.81,.48-.36,2.25-.57,4.95-.57,7.47,0,1.11,.06,2.19,.12,3.15,.36,5.1,2.43,8.19,4.74,8.16,1.2,0,2.76-3.06,3.84-6.42,.42,.42,1.23,.99,1.74,1.29-1.38,4.05-3.12,7.35-5.61,7.41-3.81,.06-6.45-4.56-6.87-10.32-.09-1.14-.12-2.4-.12-3.75,0-2.64,.15-5.52,.45-8.07l3.09,.6Zm19.89,13.95c-.84-5.25-3.51-9.03-7.56-11.28l1.32-1.62c4.38,2.34,7.59,6.66,8.46,12.21l-2.22,.69Z"/><path class="cd" d="M856.53,31.16c2.25-.09,20.73-1.41,24.63-1.44l.03,2.25c-.39-.03-.75-.03-1.11-.03-1.74,0-3.21,.3-5.13,1.53-4.5,2.7-8.85,7.53-8.85,11.4,0,4.2,2.94,6.69,10.38,7.65l-.99,2.1c-8.52-1.23-11.7-4.41-11.7-9.75,0-4.23,4.17-9.36,9.66-12.81-3.18,.21-12.15,.9-16.02,1.26-.09,.24-.42,.45-.66,.48l-.24-2.64Z"/><path class="cd" d="M911.4,31.37h-12.72l-.33,.09v5.22l.15-.18c3.81,1.86,8.73,4.65,11.22,6.57l-1.41,1.8c-2.16-1.74-6.36-4.29-9.96-6.21v16.29h-2.13V31.37h-11.85v-2.01h27.03v2.01Z"/><path class="cd" d="M939.09,34.01c-2.73,.78-6.39,1.32-9.99,1.65,1.17,4.08,2.43,6.51,5.67,7.92l-1.47,1.83c-1.38-1.05-2.79-1.86-6.69-2.07l-.36-1.77c1.47,.12,2.58,.3,3.33,.45-1.05-1.26-1.86-3.18-2.67-6.21-1.35,.12-3.18,.18-4.98,.18-1.95,0-5.13-.03-7.05-.09v-2.04c1.8,.09,4.35,.09,7.08,.09,1.53,0,3.27-.03,4.47-.15-.36-1.62-.69-3.84-1.05-6.15l3.21,.06c-.03,.36-.3,.57-.78,.69,.18,1.71,.48,3.6,.81,5.25,3.45-.3,7.35-.93,9.99-1.77l.48,2.13Zm-5.37,19.74c-1.44,.06-2.97,.09-5.58,.09-6.27,0-10.71-1.92-10.71-5.94,0-1.71,1.05-3.45,2.7-5.04l1.62,1.29c-1.35,1.08-2.16,2.55-2.16,3.69,0,2.97,3.84,3.93,8.61,3.93,2.61,0,4.14-.06,5.67-.15l-.15,2.13Z"/><path class="cd" d="M946.65,31.16c-.06,.27-.39,.45-.81,.48-.36,2.25-.57,4.95-.57,7.47,0,1.11,.06,2.19,.12,3.15,.36,5.1,2.43,8.19,4.74,8.16,1.2,0,2.76-3.06,3.84-6.42,.42,.42,1.23,.99,1.74,1.29-1.38,4.05-3.12,7.35-5.61,7.41-3.81,.06-6.45-4.56-6.87-10.32-.09-1.14-.12-2.4-.12-3.75,0-2.64,.15-5.52,.45-8.07l3.09,.6Zm19.89,13.95c-.84-5.25-3.51-9.03-7.56-11.28l1.32-1.62c4.38,2.34,7.59,6.66,8.46,12.21l-2.22,.69Z"/><path class="cd" d="M971.67,41.96v-1.86h23.49c-1.59-1.2-3.63-3.15-5.04-5.04l1.62-.99c2.04,2.64,5.01,5.25,7.68,6.96-2.67,1.71-5.64,4.32-7.68,6.96l-1.62-.99c1.41-1.89,3.45-3.84,5.04-5.04h-23.49Z"/></g><g class="ax"><path d="M638.36,287.88c-.03,.25-.28,.42-.64,.48-.17,7.53-.78,14.39-5.1,19.4-.45-.34-1.12-.76-1.68-1.06,4.17-4.54,4.68-11.54,4.76-19.07l2.66,.25Zm7.25,16.13c4.68-2.27,7.7-6.36,9.32-11.26,.42,.36,1.26,.84,1.74,1.09-1.99,5.66-5.46,9.83-11.42,12.66-.08,.22-.28,.45-.48,.56l-1.46-1.85,.31-.42v-20.55l2.6,.14c-.03,.25-.22,.48-.62,.53v19.1Z"/><path d="M659.95,294.21h23.38v1.99h-22.32c-.17,.28-.53,.48-.9,.53l-.17-2.52Z"/><path d="M707.38,288.21c-.03,.14-.17,.25-.34,.31-1.04,3.47-2.44,6.66-4.12,9.27,1.2,.7,2.58,1.57,3.61,2.32l-1.18,1.85c-1.01-.78-2.44-1.71-3.61-2.44-2.58,3.58-5.88,6.47-10.11,8.51-.31-.48-1.04-1.15-1.54-1.46,4.09-1.9,7.36-4.73,9.91-8.06-2.07-1.15-4.12-2.13-6.19-2.91l1.06-1.57c2.04,.73,4.14,1.68,6.3,2.83,1.46-2.3,2.6-4.73,3.39-7.42h-9.49c-1.71,2.86-4,5.68-6.47,7.7-.36-.34-1.12-.95-1.6-1.26,3.67-2.8,7.14-7.84,8.82-12.63l2.66,.62c-.11,.31-.39,.39-.76,.36-.39,.92-1.04,2.3-1.57,3.33h9.3l.39-.11,1.51,.76Z"/><path d="M721.3,294.91c2.02,.48,4.4,2.16,4.4,5.38,0,1.9-.73,3.25-1.71,4.2-1.43,1.4-3.72,2.02-6.94,2.02-1.76,0-3.08-.14-3.95-.22v-20.97c1.18-.25,2.86-.45,4.59-.45,2.63,0,4.37,.5,5.63,1.57,1.01,.87,1.6,2.1,1.6,3.7,0,2.1-1.43,3.92-3.61,4.7v.08Zm-3.39-.78c2.83,0,4.65-1.62,4.65-3.81v-.03c0-2.52-1.85-3.61-4.76-3.61-1.23,0-1.96,.08-2.38,.2v7.25h2.49Zm-2.49,10.39c.53,.11,1.29,.14,2.27,.14,2.94,0,5.57-1.15,5.57-4.37s-2.77-4.37-5.6-4.37h-2.24v8.6Z"/></g><g class="ax"><path d="M318.3,292.44c-.03,.25-.28,.42-.64,.48-.17,7.53-.78,14.39-5.1,19.4-.45-.34-1.12-.76-1.68-1.06,4.17-4.54,4.68-11.54,4.76-19.07l2.66,.25Zm7.25,16.13c4.68-2.27,7.7-6.36,9.32-11.26,.42,.36,1.26,.84,1.74,1.09-1.99,5.66-5.46,9.83-11.42,12.66-.08,.22-.28,.45-.48,.56l-1.46-1.85,.31-.42v-20.55l2.6,.14c-.03,.25-.22,.48-.62,.53v19.1Z"/><path d="M339.89,298.77h23.38v1.99h-22.31c-.17,.28-.53,.48-.9,.53l-.17-2.52Z"/><path d="M387.32,292.78c-.03,.14-.17,.25-.34,.31-1.04,3.47-2.44,6.66-4.12,9.27,1.2,.7,2.58,1.57,3.61,2.32l-1.18,1.85c-1.01-.78-2.44-1.71-3.61-2.44-2.58,3.58-5.88,6.47-10.11,8.51-.31-.48-1.04-1.15-1.54-1.46,4.09-1.9,7.36-4.73,9.91-8.06-2.07-1.15-4.12-2.13-6.19-2.91l1.06-1.57c2.04,.73,4.14,1.68,6.3,2.83,1.46-2.3,2.6-4.73,3.39-7.42h-9.49c-1.71,2.86-4,5.68-6.47,7.7-.36-.34-1.12-.95-1.6-1.26,3.67-2.8,7.14-7.84,8.82-12.63l2.66,.62c-.11,.31-.39,.39-.76,.36-.39,.92-1.04,2.3-1.57,3.33h9.29l.39-.11,1.51,.76Z"/><path d="M408.29,310.89h-2.46l-2.29-6.92h-7.42l-2.24,6.92h-2.38l7.06-21.34h2.69l7.06,21.34Zm-5.24-8.76l-2.1-6.33c-.45-1.46-.81-2.8-1.09-4.06h-.08c-.28,1.29-.67,2.63-1.06,3.98l-2.13,6.41h6.47Z"/></g><g class="ax"><path class="cd" d="M171.19,343.8c-7.71,0-13.95-6.24-13.95-13.95s6.24-13.95,13.95-13.95,13.95,6.24,13.95,13.95-6.3,13.95-13.95,13.95Zm-13.02-13.95c0,7.2,5.82,13.02,13.02,13.02s13.02-5.82,13.02-13.02-5.82-13.02-13.02-13.02-13.02,5.88-13.02,13.02Zm7.77,7.56v-1.26l1.68-1.5c4.95-4.35,6.36-5.82,6.39-7.83,0-1.41-.78-3.09-3.42-3.09-1.44,0-2.76,.72-3.63,1.41l-.63-1.41c1.29-1.08,2.94-1.68,4.68-1.68,3.78,0,5.01,2.64,5.01,4.41,0,2.94-2.07,4.8-6.18,8.34l-1.08,.87v.06h7.68v1.68h-10.5Z"/><path class="cd" d="M200.25,343.65v-23.49c-1.2,1.59-3.15,3.63-5.04,5.04l-.99-1.62c2.64-2.04,5.25-5.01,6.96-7.68,1.71,2.67,4.32,5.64,6.96,7.68l-.99,1.62c-1.89-1.41-3.84-3.45-5.04-5.04v23.49h-1.86Z"/><path class="cd" d="M225.88,329.82c-1.38,3.51-3.36,6.66-5.67,8.91l-1.74-1.14c2.16-2.07,4.23-4.95,5.43-8.49l1.98,.72Zm6.39-4.68v14.28c0,3.36-2.64,3.33-7.11,3.27-.12-.54-.36-1.38-.66-1.98,.69,.03,4.05,0,4.38,0,.84,0,1.23-.54,1.23-1.26v-14.31h-10.2v-2.01h10.2v-6.15l2.85,.15c-.03,.3-.24,.54-.69,.57v5.43h10.14v2.01h-10.14Zm5.37,3.78c2.19,2.43,4.71,5.94,6.33,8.73l-1.92,1.11c-1.47-2.76-4.11-6.6-6.12-8.88l1.71-.96Z"/><path class="cd" d="M268.08,319.86c-.06,.15-.21,.27-.39,.33-1.62,3.81-3.54,7.11-6,10.32,3.27,2.61,8.19,7.08,10.98,10.17l-1.83,1.59c-2.64-3.06-7.47-7.62-10.53-10.08-2.64,3.21-7.2,7.59-11.55,10.08-.33-.45-1.05-1.2-1.56-1.62,8.31-4.56,14.88-13.08,17.58-19.59h-14.73v-2.04h15.9l.39-.15,1.74,.99Z"/><path class="cd" d="M293.64,332.73c-3.06-1.65-7.26-3.6-10.53-4.89v15h-2.25v-26.07l3.03,.18c-.03,.33-.27,.54-.78,.63v8.76l.45-.63c3.51,1.29,8.16,3.36,11.28,5.01l-1.2,2.01Z"/><path class="cd" d="M318.7,322.17c.33-.03,.6-.06,.9-.06,3.27,0,6.51,1.95,6.51,6s-2.67,6.18-6.78,6.18c-1.77,0-4.11-.66-6-2.16,.21-.45,.45-1.23,.6-1.8,1.74,1.35,3.81,1.98,5.4,1.98,2.82,0,4.59-1.53,4.59-4.23,0-2.22-1.53-3.96-4.71-3.96-2.52,0-6.48,1.29-9.87,2.49,1.41,4.77,3.33,11.61,4.5,16.11l-2.31,.51c-.93-4.32-2.91-11.46-4.2-15.87-1.92,.69-4.62,1.59-6.24,2.19-.03,.27-.24,.54-.51,.66l-.96-2.4c1.92-.6,4.95-1.59,7.14-2.37-.9-3.06-1.74-5.76-2.28-7.5l3.09-.57c.03,.39-.12,.54-.63,.81,.66,2.31,1.2,4.26,1.86,6.54,3.24-1.11,6.3-2.1,8.64-2.43-1.35-1.53-3.72-3.57-5.37-4.56l1.38-1.35c2.01,1.14,4.68,3.39,6.09,5.1l-.84,.69Z"/><path class="cd" d="M337.27,321.48c-.03,.27-.3,.45-.69,.51-.18,8.07-.84,15.42-5.46,20.79-.48-.36-1.2-.81-1.8-1.14,4.47-4.86,5.01-12.36,5.1-20.43l2.85,.27Zm7.77,17.28c5.01-2.43,8.25-6.81,9.99-12.06,.45,.39,1.35,.9,1.86,1.17-2.13,6.06-5.85,10.53-12.24,13.56-.09,.24-.3,.48-.51,.6l-1.56-1.98,.33-.45v-22.02l2.79,.15c-.03,.27-.24,.51-.66,.57v20.46Z"/><path class="cd" d="M360.4,328.26h25.05v2.13h-23.91c-.18,.3-.57,.51-.96,.57l-.18-2.7Z"/><path class="cd" d="M411.22,321.84c-.03,.15-.18,.27-.36,.33-1.11,3.72-2.61,7.14-4.41,9.93,1.29,.75,2.76,1.68,3.87,2.49l-1.26,1.98c-1.08-.84-2.61-1.83-3.87-2.61-2.76,3.84-6.3,6.93-10.83,9.12-.33-.51-1.11-1.23-1.65-1.56,4.38-2.04,7.89-5.07,10.62-8.64-2.22-1.23-4.41-2.28-6.63-3.12l1.14-1.68c2.19,.78,4.44,1.8,6.75,3.03,1.56-2.46,2.79-5.07,3.63-7.95h-10.17c-1.83,3.06-4.29,6.09-6.93,8.25-.39-.36-1.2-1.02-1.71-1.35,3.93-3,7.65-8.4,9.45-13.53l2.85,.66c-.12,.33-.42,.42-.81,.39-.42,.99-1.11,2.46-1.68,3.57h9.96l.42-.12,1.62,.81Z"/><path class="cd" d="M431.53,321.39c-.12,.27-.36,.48-.75,.48-1.08,9.33-4.2,17.46-9.18,17.46-2.52,0-4.8-2.52-4.8-7.26,0-7.2,5.61-13.23,13.5-13.23,8.67,0,12.42,5.49,12.42,11.34,0,7.14-4.14,10.59-11.4,12.27-.27-.48-.78-1.29-1.26-1.83,6.9-1.32,10.44-4.68,10.44-10.35,0-4.95-3.18-9.45-10.2-9.45-.3,0-.63,.03-.9,.06l2.13,.51Zm-2.88-.39c-6.06,.75-9.81,5.76-9.81,11.01,0,3.21,1.38,5.22,2.82,5.22,3.63,0,6.24-8.01,6.99-16.23Z"/><path class="cd" d="M447.34,318.39h2.49v22.86h-2.49v-22.86Z"/><path class="cd" d="M454.96,318.69c1.32-.24,3.06-.45,5.19-.45,7.38,0,7.98,4.74,7.98,6.54,0,5.37-4.29,7.29-8.34,7.29-.87,0-1.65-.03-2.34-.21v9.39h-2.49v-22.56Zm2.49,11.1c.63,.18,1.44,.24,2.4,.24,3.6,0,5.79-1.8,5.79-5.07s-2.34-4.71-5.46-4.71c-1.26,0-2.19,.12-2.73,.24v9.3Z"/><path class="cd" d="M471.55,335.52c2.22,1.77,5.16,4.74,6.78,6.63l-1.8,1.65c-1.5-1.92-4.56-5.07-6.57-6.87l1.59-1.41Z"/><path class="cd" d="M508.62,341.25h-2.46l-.57-10.29c-.18-3.27-.42-7.5-.39-9.84h-.09c-.75,2.58-1.68,5.4-2.79,8.58l-4.08,11.46h-1.83l-3.81-11.22c-1.11-3.3-1.98-6.18-2.61-8.82h-.09c-.06,2.79-.24,6.57-.45,10.08l-.63,10.05h-2.37l1.59-22.86h3.06l4.02,11.61c.96,2.85,1.71,5.28,2.31,7.65h.09c.57-2.31,1.35-4.71,2.37-7.65l4.17-11.61h3.12l1.44,22.86Z"/><path class="cd" d="M529.45,341.25h-2.64l-2.46-7.41h-7.95l-2.4,7.41h-2.55l7.56-22.86h2.88l7.56,22.86Zm-5.61-9.39l-2.25-6.78c-.48-1.56-.87-3-1.17-4.35h-.09c-.3,1.38-.72,2.82-1.14,4.26l-2.28,6.87h6.93Z"/><path class="cd" d="M547.78,340.56c-1.05,.51-3.09,1.02-5.7,1.02-5.88,0-10.62-3.81-10.62-11.55s4.59-11.97,11.28-11.97c2.73,0,4.32,.57,5.04,.93l-.66,2.1c-1.05-.51-2.52-.93-4.32-.93-5.19,0-8.73,3.48-8.73,9.78s3.24,9.54,8.58,9.54c1.74,0,3.45-.39,4.59-.93l.54,2.01Z"/><path class="cd" d="M575.31,319.5c-.06,.12-.24,.21-.39,.27-1.62,3.84-4.2,7.17-7.11,9.6-.45-.39-1.29-.93-1.83-1.23,2.76-2.01,4.98-4.92,5.97-7.44h-21.48v-2.04h22.62l.33-.15,1.89,.99Zm-11.7,5.46c-.03,.24-.3,.45-.69,.51-.87,7.08-3.3,13.83-9.48,17.4-.42-.36-1.2-1.05-1.77-1.38,6.12-3.36,8.31-9.63,9.03-16.86l2.91,.33Z"/><path class="cd" d="M596.31,332.76c-3.06-1.65-7.26-3.6-10.53-4.89v14.97h-2.25v-26.07l3.03,.18c-.03,.33-.27,.54-.78,.63v8.82l.45-.66c3.51,1.29,8.16,3.36,11.28,5.01l-1.2,2.01Zm-3.15-14.13c1.38,1.14,3.18,3.03,4.14,4.41l-1.14,.93c-.9-1.29-2.73-3.3-4.08-4.38l1.08-.96Zm4.02-2.58c1.41,1.17,3.21,3.06,4.11,4.38l-1.08,.93c-.93-1.29-2.76-3.27-4.11-4.38l1.08-.93Z"/><path class="cd" d="M609.25,339.48c7.62-2.13,13.68-5.79,17.37-12.33,.39,.51,1.14,1.14,1.59,1.5-4.05,6.9-10.74,10.92-19.77,13.29-.06,.24-.24,.51-.48,.6l-1.26-2.1,.36-.57v-22.11l3.09,.15c-.03,.33-.3,.6-.9,.66v20.91Z"/><path class="cd" d="M652.05,319.86c-.06,.15-.21,.27-.39,.33-1.62,3.81-3.54,7.11-6,10.32,3.27,2.61,8.19,7.08,10.98,10.17l-1.83,1.59c-2.64-3.06-7.47-7.62-10.53-10.08-2.64,3.21-7.2,7.59-11.55,10.08-.33-.45-1.05-1.2-1.56-1.62,8.31-4.56,14.88-13.08,17.58-19.59h-14.73v-2.04h15.9l.39-.15,1.74,.99Z"/><path class="cd" d="M685.27,328.77c-.06,.03-.12,.06-.18,.06-.18,0-.33-.09-.45-.18-2.28,.75-5.61,1.98-8.1,3.06,.06,.69,.09,1.47,.09,2.34,0,.96-.03,2.04-.09,3.21l-2.19,.12c.09-1.08,.15-2.46,.15-3.63,0-.45,0-.87-.03-1.2-3.39,1.65-6.15,3.66-6.15,5.46s2.07,2.58,6.21,2.58c2.91,0,5.61-.06,7.53-.3l.03,2.01c-1.77,.18-4.47,.24-7.56,.24-5.76,0-8.31-1.38-8.31-4.44,0-2.64,3.48-5.19,7.98-7.44-.18-1.89-1.02-2.82-2.22-2.82-2.19,0-4.47,1.23-7.17,4.23-.84,.93-2.01,2.1-3.3,3.27l-1.47-1.47c3-2.64,5.82-5.16,7.56-11.07l-1.68,.03h-5.01v-1.95c1.83,.03,3.96,.03,5.19,.03l2.04-.03c.33-1.38,.6-2.67,.81-4.29l2.94,.36c-.06,.3-.3,.48-.75,.54-.21,1.2-.48,2.25-.75,3.33,2.04-.03,6.42-.51,10.32-1.74l.36,2.01c-3.75,1.17-8.28,1.59-11.25,1.68-.72,2.25-1.47,4.05-2.16,5.07h.03c1.32-1.17,3.3-1.95,4.83-1.95,2.04,0,3.33,1.47,3.72,3.9,2.52-1.14,5.7-2.37,8.1-3.3l.93,2.28Z"/><path class="cd" d="M699.64,321v1.68h-11.46v-1.68h11.46Zm-1.05,12.24v8.82h-7.23v1.41h-1.8v-10.23h9.03Zm-9-6.51v-1.65h9.03v1.65h-9.03Zm0,4.08v-1.65h9.03v1.65h-9.03Zm8.94-13.8v1.65h-8.76v-1.65h8.76Zm-1.74,17.94h-5.43v5.4h5.43v-5.4Zm7.26-16.2v1.86c0,2.58-.66,5.79-3.9,7.92-.3-.39-1.05-1.08-1.47-1.35,2.97-1.92,3.45-4.47,3.45-6.6v-3.69h9.45v7.59c0,.66,.09,.78,.63,.78h1.68c.57,0,.66-.39,.72-3.39,.39,.33,1.2,.63,1.71,.75-.15,3.54-.66,4.41-2.22,4.41h-2.16c-1.77,0-2.28-.54-2.28-2.52v-5.76h-5.61Zm9.24,10.29l1.32,.54c-.03,.15-.15,.24-.24,.33-1.02,3.57-2.85,6.45-5.19,8.67,2.04,1.59,4.44,2.76,7.2,3.45-.45,.42-1.02,1.23-1.32,1.74-2.85-.84-5.31-2.13-7.41-3.87-2.31,1.8-4.98,3.09-7.8,3.9-.21-.51-.69-1.35-1.11-1.77,2.67-.69,5.22-1.83,7.44-3.48-1.89-1.95-3.39-4.26-4.44-6.96l1.8-.57c.93,2.4,2.34,4.5,4.14,6.27,1.8-1.71,3.27-3.81,4.23-6.33h-11.85v-1.86h12.87l.36-.06Z"/><path class="cd" d="M733.15,334.41v6.54c1.59,.3,3.33,.39,5.22,.39,1.05,0,6.33,0,7.71-.03-.33,.51-.69,1.44-.78,2.04h-7.02c-6.45,0-11.13-1.11-13.92-6.48-1.08,2.94-2.61,5.4-4.71,7.05-.33-.39-1.05-.99-1.53-1.32,3.3-2.43,5.04-7.02,5.73-12.63l2.58,.42c-.06,.21-.24,.36-.6,.36-.18,1.2-.42,2.37-.69,3.51,1.26,3.36,3.3,5.16,5.94,6.12v-13.2h-7.65v-1.92h17.64v1.92h-7.92v5.31h9.21v1.92h-9.21Zm-11.58-12.93v4.53h-1.98v-6.45h11.46v-3.69l2.73,.18c-.03,.21-.21,.36-.63,.42v3.09h11.58v6.45h-2.07v-4.53h-21.09Z"/><path class="cd" d="M755.05,317.22c-.06,.36-.33,.57-.93,.66-.24,3.48-.54,11.43-.54,15.87s2.22,6.63,6,6.63,7.38-1.83,10.8-5.7c.3,.48,.99,1.44,1.35,1.77-3.51,3.99-7.77,6.09-12.18,6.09-5.46,0-8.25-3.15-8.25-8.82,0-3.78,.27-13.08,.48-16.77l3.27,.27Z"/><path class="cd" d="M773.32,319.98c2.25-.09,20.73-1.41,24.63-1.44l.03,2.25c-.39-.03-.75-.03-1.11-.03-1.74,0-3.21,.3-5.13,1.53-4.5,2.7-8.85,7.53-8.85,11.4,0,4.2,2.94,6.69,10.38,7.65l-.99,2.1c-8.52-1.23-11.7-4.41-11.7-9.75,0-4.23,4.17-9.36,9.66-12.81-3.18,.21-12.15,.9-16.02,1.26-.09,.24-.42,.45-.66,.48l-.24-2.64Z"/><path class="cd" d="M828.19,320.19h-12.72l-.33,.09v5.22l.15-.18c3.81,1.86,8.73,4.65,11.22,6.57l-1.41,1.8c-2.16-1.74-6.36-4.29-9.96-6.21v16.29h-2.13v-23.58h-11.85v-2.01h27.03v2.01Z"/><path class="cd" d="M855.88,322.83c-2.73,.78-6.39,1.32-9.99,1.65,1.17,4.08,2.43,6.51,5.67,7.92l-1.47,1.83c-1.38-1.05-2.79-1.86-6.69-2.07l-.36-1.77c1.47,.12,2.58,.3,3.33,.45-1.05-1.26-1.86-3.18-2.67-6.21-1.35,.12-3.18,.18-4.98,.18-1.95,0-5.13-.03-7.05-.09v-2.04c1.8,.09,4.35,.09,7.08,.09,1.53,0,3.27-.03,4.47-.15-.36-1.62-.69-3.84-1.05-6.15l3.21,.06c-.03,.36-.3,.57-.78,.69,.18,1.71,.48,3.6,.81,5.25,3.45-.3,7.35-.93,9.99-1.77l.48,2.13Zm-5.37,19.74c-1.44,.06-2.97,.09-5.58,.09-6.27,0-10.71-1.92-10.71-5.94,0-1.71,1.05-3.45,2.7-5.04l1.62,1.29c-1.35,1.08-2.16,2.55-2.16,3.69,0,2.97,3.84,3.93,8.61,3.93,2.61,0,4.14-.06,5.67-.15l-.15,2.13Z"/><path class="cd" d="M863.44,319.98c-.06,.27-.39,.45-.81,.48-.36,2.25-.57,4.95-.57,7.47,0,1.11,.06,2.19,.12,3.15,.36,5.1,2.43,8.19,4.74,8.16,1.2,0,2.76-3.06,3.84-6.42,.42,.42,1.23,.99,1.74,1.29-1.38,4.05-3.12,7.35-5.61,7.41-3.81,.06-6.45-4.56-6.87-10.32-.09-1.14-.12-2.4-.12-3.75,0-2.64,.15-5.52,.45-8.07l3.09,.6Zm19.89,13.95c-.84-5.25-3.51-9.03-7.56-11.28l1.32-1.62c4.38,2.34,7.59,6.66,8.46,12.21l-2.22,.69Z"/></g><g class="ax"><path d="M183.91,143.26c-1.26,3.28-3.11,6.16-5.26,8.26l-1.62-1.06c2.1-1.96,3.92-4.62,5.07-7.9l1.82,.7Zm5.99-4.31v13.13c0,3.05-2.18,3.05-6.66,3.05-.11-.5-.34-1.29-.59-1.88,.81,.03,1.71,.03,2.46,.03h1.62c.78,0,1.15-.5,1.15-1.18v-13.16h-9.52v-1.9h9.52v-5.91l2.66,.14c-.03,.28-.22,.48-.64,.53v5.24h9.46v1.9h-9.46Zm5.01,3.42c2.04,2.27,4.4,5.57,5.91,8.15l-1.79,1.04c-1.37-2.55-3.84-6.16-5.71-8.29l1.6-.9Zm3.64-12.91c1.71,0,3.11,1.4,3.11,3.14s-1.4,3.14-3.11,3.14-3.16-1.4-3.16-3.14,1.46-3.14,3.16-3.14Zm2.18,3.14c0-1.23-.98-2.24-2.18-2.24s-2.24,1.01-2.24,2.24,1.01,2.21,2.24,2.21,2.18-1.06,2.18-2.21Z"/><path d="M227.12,132.65c-.11,.14-.28,.22-.53,.22-.08,0-.17,0-.28-.03-2.16,2.18-5.26,4.73-7.98,6.69,.22,.08,.56,.25,.67,.31-.06,.17-.31,.34-.62,.36v15.04h-2.04v-14.39c-2.97,2.1-6.83,4.37-10.67,6.24-.28-.45-.78-1.15-1.18-1.54,7.64-3.53,16.02-9.52,20.52-14.48l2.1,1.57Z"/><path d="M231.88,133.13c2.91,.92,6.27,2.38,8.34,3.81l-1.06,1.76c-2.02-1.43-5.32-2.91-8.18-3.89l.9-1.68Zm-.11,19.4c9.94-3.08,16.55-8.65,19.91-16.41,.59,.48,1.23,.84,1.82,1.15-3.5,7.67-10.33,13.64-19.82,16.8-.03,.25-.2,.53-.39,.64l-1.51-2.18Z"/><path d="M272.95,145.75c-2.86-1.54-6.78-3.36-9.83-4.56v14h-2.1v-24.33l2.83,.17c-.03,.31-.25,.5-.73,.59v8.18l.42-.59c3.28,1.2,7.62,3.14,10.53,4.68l-1.12,1.88Z"/><path d="M294.74,153.71h-2.46l-2.29-6.92h-7.42l-2.24,6.92h-2.38l7.06-21.34h2.69l7.06,21.34Zm-5.24-8.76l-2.1-6.33c-.45-1.46-.81-2.8-1.09-4.06h-.08c-.28,1.29-.67,2.63-1.06,3.98l-2.13,6.41h6.47Z"/></g><g class="ax"><path class="cd" d="M227.22,491.8c-7.71,0-13.95-6.24-13.95-13.95s6.24-13.95,13.95-13.95,13.95,6.24,13.95,13.95-6.3,13.95-13.95,13.95Zm-13.02-13.95c0,7.2,5.82,13.02,13.02,13.02s13.02-5.82,13.02-13.02-5.82-13.02-13.02-13.02-13.02,5.88-13.02,13.02Zm8.43,5.1c.66,.42,2.19,1.05,3.75,1.05,3.21,0,3.84-2.01,3.84-2.88,0-2.46-2.58-3.06-4.5-3.06h-1.26v-1.56h1.32c1.8,0,3.81-.72,3.81-2.49,0-1.05-.69-2.28-2.97-2.28-1.32,0-2.64,.51-3.39,1.05l-.54-1.47c.87-.63,2.58-1.26,4.29-1.26,3.42,0,4.68,1.92,4.68,3.63,0,1.59-1.05,2.88-2.97,3.51v.06c2.13,.42,3.63,1.95,3.63,3.87,0,2.19-1.86,4.53-5.97,4.53-1.95,0-3.54-.63-4.26-1.14l.54-1.56Z"/><path class="cd" d="M256.29,491.65v-23.49c-1.2,1.59-3.15,3.63-5.04,5.04l-.99-1.62c2.64-2.04,5.25-5.01,6.96-7.68,1.71,2.67,4.32,5.64,6.96,7.68l-.99,1.62c-1.89-1.41-3.84-3.45-5.04-5.04v23.49h-1.86Z"/><path class="cd" d="M279.45,474.88c.78,1.11,2.88,4.44,3.33,5.25l-1.08,1.5c-.39-.96-1.41-2.91-2.25-4.41v14.52h-1.86v-14.61c-.96,3.42-2.22,6.72-3.54,8.76-.24-.51-.72-1.26-1.02-1.68,1.74-2.58,3.51-7.53,4.32-11.76h-3.72v-1.86h3.96v-6.69l2.43,.18c-.03,.18-.18,.33-.57,.39v6.12h3.27v1.86h-3.27v2.43Zm14.04,6.27c.33,1.68,.72,3.18,1.17,4.44,1.08-1.17,1.95-2.46,2.55-3.84l2.1,.72c-.06,.18-.24,.27-.54,.27-.81,1.65-1.95,3.18-3.39,4.56,.9,1.77,1.95,2.76,3.21,2.76,.9,0,1.23-.75,1.41-3.6,.39,.42,.99,.81,1.41,.96-.36,3.42-1.02,4.44-2.97,4.44-1.86-.03-3.3-1.23-4.44-3.33-1.59,1.23-3.42,2.34-5.46,3.18-.24-.36-.75-.99-1.11-1.32,2.22-.87,4.2-2.04,5.82-3.45-.63-1.59-1.14-3.57-1.56-5.79h-5.04c-.06,.63-.12,1.26-.21,1.89,1.56,.93,3.39,2.16,4.35,3.03l-1.14,1.41c-.78-.75-2.16-1.77-3.51-2.67-.6,2.7-1.68,5.22-3.99,6.9-.27-.42-.81-1.02-1.23-1.32,2.79-1.98,3.63-5.52,3.93-9.24h-2.04v-1.68h8.61c-.69-4.47-.99-9.81-1.02-15.54l2.43,.15c-.03,.21-.18,.36-.6,.42-.03,5.55,.3,10.74,.99,14.97h4.44c-.78-.63-1.86-1.38-2.82-1.89l.99-.99c1.17,.6,2.61,1.5,3.33,2.19l-.63,.69h2.43v1.68h-7.47Zm-11.1-5.76l1.05-.06c.69-.87,1.41-1.95,2.13-3.09-.78-.99-2.13-2.22-3.27-3.12l.87-1.08c.24,.18,.48,.36,.75,.54,.69-1.32,1.5-3.09,1.92-4.35l1.92,.84c-.09,.18-.3,.24-.6,.24-.54,1.17-1.44,2.91-2.22,4.14,.54,.48,1.05,.99,1.44,1.44,.75-1.29,1.47-2.58,1.98-3.66l1.86,.93c-.09,.15-.33,.24-.63,.24-1.11,1.98-2.85,4.74-4.38,6.84l3.27-.21c-.27-.69-.6-1.41-.93-2.01l1.29-.48c.84,1.38,1.59,3.21,1.8,4.38l-1.38,.6c-.06-.33-.15-.72-.27-1.14-2.16,.24-4.17,.45-5.58,.57-.03,.21-.18,.33-.36,.39l-.66-1.95Zm11.49-.36c.6-.78,1.26-1.77,1.92-2.79-.78-.99-2.13-2.22-3.27-3.12l.87-1.08,.72,.54c.72-1.32,1.53-3.09,1.95-4.35l1.92,.84c-.09,.18-.3,.24-.6,.24-.54,1.17-1.44,2.88-2.25,4.11,.57,.51,1.08,1.02,1.47,1.47,.78-1.29,1.47-2.58,1.98-3.66l1.83,.93c-.06,.15-.3,.24-.6,.24-1.08,1.89-2.73,4.53-4.2,6.54,1.11-.06,2.28-.12,3.54-.21-.3-.66-.63-1.29-.96-1.86l1.29-.51c.84,1.38,1.71,3.18,1.95,4.35l-1.35,.66c-.09-.39-.24-.87-.42-1.38-2.19,.27-4.29,.48-5.7,.6-.03,.24-.21,.36-.42,.39l-.66-1.89,.99-.06Z"/><path class="cd" d="M330.84,477.85h-8.76c2.37,2.19,6.03,3.99,9.6,4.86-.45,.42-.99,1.14-1.29,1.65-.72-.21-1.41-.42-2.13-.69v8.1h-1.86v-1.08h-5.91v1.2h-1.8v-9.9h6.03c-2.01-1.14-3.81-2.58-5.16-4.14h-4.68c-1.44,1.59-3.21,2.97-5.28,4.14h6.12v9.78h-1.89v-1.08h-5.79v1.2h-1.8v-8.28c-.66,.27-1.32,.54-2.01,.78-.24-.42-.87-1.17-1.26-1.5,3.66-1.23,6.81-2.91,9.18-5.04h-8.52v-1.83h10.26c.63-.75,1.14-1.56,1.59-2.4h-9.66v-8.31h9.75v8.13l.27-.6,2.4,.69c-.06,.18-.3,.3-.69,.33-.36,.75-.75,1.47-1.23,2.16h14.52v1.83Zm-17.22-5.91v-4.95h-5.94v4.95h5.94Zm.21,16.98v-5.16h-5.79v5.16h5.79Zm14.97-23.61v8.31h-9.81v-8.31h9.81Zm-8.31,23.61h5.91v-5.16h-5.91v5.16Zm6.36-16.98v-4.95h-6v4.95h6Z"/><path class="cd" d="M345.75,475.6h-8.94v16.23h-1.98v-26.58h10.92v10.35Zm-1.92-8.76h-7.02v2.76h7.02v-2.76Zm-7.02,7.17h7.02v-2.88h-7.02v2.88Zm16.02,14.94h-9.45v1.59h-1.86v-12.57h11.31v10.98Zm-1.92-9.36h-7.53v3h7.53v-3Zm-7.53,7.74h7.53v-3.15h-7.53v3.15Zm16.41-22.08v23.76c0,2.67-1.17,2.79-6.36,2.79-.06-.57-.39-1.53-.69-2.1,.96,.03,1.92,.06,2.67,.06,2.19,0,2.37,0,2.37-.75v-13.38h-9.18v-10.38h11.19Zm-2.01,1.59h-7.23v2.76h7.23v-2.76Zm-7.23,7.2h7.23v-2.91h-7.23v2.91Z"/><path class="cd" d="M368.85,493.36c-2.13-2.79-4.44-7.14-4.44-13.77s2.28-11.04,4.44-13.89h2.04c-2.49,3.33-4.29,7.74-4.29,13.92s1.86,10.35,4.29,13.74h-2.04Z"/><path class="cd" d="M381.18,478.06c-1.35,3.51-3.33,6.6-5.64,8.85l-1.74-1.14c2.25-2.1,4.2-4.95,5.43-8.46l1.95,.75Zm6.42-4.62v14.07c0,3.27-2.34,3.27-7.14,3.27-.12-.54-.36-1.38-.63-2.01,.87,.03,1.83,.03,2.64,.03h1.74c.84,0,1.23-.54,1.23-1.26v-14.1h-10.2v-2.04h10.2v-6.33l2.85,.15c-.03,.3-.24,.51-.69,.57v5.61h10.14v2.04h-10.14Zm5.37,3.66c2.19,2.43,4.71,5.97,6.33,8.73l-1.92,1.11c-1.47-2.73-4.11-6.6-6.12-8.88l1.71-.96Zm3.9-13.83c1.83,0,3.33,1.5,3.33,3.36s-1.5,3.36-3.33,3.36-3.39-1.5-3.39-3.36,1.56-3.36,3.39-3.36Zm2.34,3.36c0-1.32-1.05-2.4-2.34-2.4s-2.4,1.08-2.4,2.4,1.08,2.37,2.4,2.37,2.34-1.14,2.34-2.37Z"/><path class="cd" d="M427.47,466.69c-.12,.15-.3,.24-.57,.24-.09,0-.18,0-.3-.03-2.31,2.34-5.64,5.07-8.55,7.17,.24,.09,.6,.27,.72,.33-.06,.18-.33,.36-.66,.39v16.11h-2.19v-15.42c-3.18,2.25-7.32,4.68-11.43,6.69-.3-.48-.84-1.23-1.26-1.65,8.19-3.78,17.16-10.2,21.99-15.51l2.25,1.68Z"/><path class="cd" d="M432.57,467.2c3.12,.99,6.72,2.55,8.94,4.08l-1.14,1.89c-2.16-1.53-5.7-3.12-8.76-4.17l.96-1.8Zm-.12,20.79c10.65-3.3,17.73-9.27,21.33-17.58,.63,.51,1.32,.9,1.95,1.23-3.75,8.22-11.07,14.61-21.24,18-.03,.27-.21,.57-.42,.69l-1.62-2.34Z"/><path class="cd" d="M476.58,480.73c-3.06-1.65-7.26-3.6-10.53-4.89v15h-2.25v-26.07l3.03,.18c-.03,.33-.27,.54-.78,.63v8.76l.45-.63c3.51,1.29,8.16,3.36,11.28,5.01l-1.2,2.01Z"/><path class="cd" d="M483.69,465.7c2.13,2.79,4.41,7.14,4.41,13.83s-2.25,10.95-4.41,13.83h-2.04c2.43-3.33,4.29-7.74,4.29-13.86s-1.83-10.41-4.29-13.8h2.04Z"/><path class="cd" d="M507.06,469.39c-.12,.27-.36,.48-.75,.48-1.08,9.33-4.2,17.46-9.18,17.46-2.52,0-4.8-2.52-4.8-7.26,0-7.2,5.61-13.23,13.5-13.23,8.67,0,12.42,5.49,12.42,11.34,0,7.14-4.14,10.59-11.4,12.27-.27-.48-.78-1.29-1.26-1.83,6.9-1.32,10.44-4.68,10.44-10.35,0-4.95-3.18-9.45-10.2-9.45-.3,0-.63,.03-.9,.06l2.13,.51Zm-2.88-.39c-6.06,.75-9.81,5.76-9.81,11.01,0,3.21,1.38,5.22,2.82,5.22,3.63,0,6.24-8.01,6.99-16.23Z"/><path class="cd" d="M527.91,475.93v9.87c2.31,3.57,6.57,3.57,12.27,3.57,3.27,0,7.11-.06,9.45-.21-.24,.45-.54,1.38-.66,1.98-2.04,.06-5.28,.12-8.28,.12-6.57,0-10.68,0-13.65-3.75-1.59,1.38-3.24,2.7-4.59,3.72,0,.27-.06,.39-.27,.48l-1.14-2.16c1.47-.96,3.3-2.28,4.92-3.6v-8.1h-4.53v-1.92h6.48Zm-4.53-11.31c1.95,1.38,4.2,3.45,5.16,4.98l-1.5,1.38c-.96-1.53-3.15-3.69-5.1-5.13l1.44-1.23Zm16.86,6.93c-1.89-.93-4.2-1.95-6.15-2.67l1.32-1.17c1.32,.48,2.85,1.08,4.32,1.74,1.59-.72,3.27-1.65,4.56-2.58h-13.14v-1.65h15.21l.33-.09,1.53,.99c-.09,.12-.3,.21-.48,.24-1.53,1.32-3.84,2.82-6.15,3.93,.93,.42,1.77,.87,2.46,1.26h3.87v13.65c0,1.98-.63,2.19-5.1,2.19-.09-.54-.33-1.23-.57-1.71,.87,.03,1.71,.06,2.31,.06,1.29,0,1.44,0,1.44-.54v-3.06h-5.64v5.07h-1.83v-5.07h-5.43v5.19h-1.92v-15.78h9.06Zm-1.71,1.62h-5.43v2.85h5.43v-2.85Zm-5.43,7.38h5.43v-2.97h-5.43v2.97Zm12.9-4.53v-2.85h-5.64v2.85h5.64Zm-5.64,4.53h5.64v-2.97h-5.64v2.97Z"/><path class="cd" d="M555.45,474.52c-1.14,1.89-2.4,3.57-3.66,5.01-.21-.48-.72-1.41-1.05-1.89,2.88-3.12,5.76-8.31,7.5-13.5l2.4,.81c-.12,.21-.33,.3-.69,.27-.78,2.1-1.71,4.2-2.76,6.21l.81,.21c-.06,.18-.21,.33-.6,.36v19.89h-1.95v-17.37Zm4.02-4.92h19.8v1.71h-19.8v-1.71Zm2.22,22.2v-9.63h15.51v9.54h-2.04v-1.41h-11.52v1.5h-1.95Zm15.24-18v1.68h-14.94v-1.68h14.94Zm-14.94,5.88v-1.68h14.91v1.68h-14.91Zm14.4-14.28v1.68h-14.07v-1.68h14.07Zm-1.23,18.45h-11.52v4.77h11.52v-4.77Z"/><path class="cd" d="M608.91,471.19h-15.45c-.12,1.68-.27,3.45-.51,5.22h10.71l.45-.06,1.2,.21c-.03,.21-.06,.45-.12,.63-.63,9.03-1.23,12.39-2.43,13.59-.81,.87-1.62,1.02-3.51,1.02-1.08,0-2.58-.06-4.08-.15-.06-.57-.33-1.41-.72-1.98,2.22,.21,4.38,.21,5.13,.21s1.11-.03,1.44-.33c.93-.84,1.53-3.87,2.07-11.22h-10.47c-1.02,5.34-3.39,10.56-9.69,13.56-.3-.51-.9-1.23-1.44-1.62,8.49-3.84,9.42-11.94,9.78-19.08h-9.51v-1.95h12.42v-5.4l2.67,.18c-.03,.21-.21,.36-.6,.42v4.8h12.66v1.95Z"/><path class="cd" d="M612.39,472.51c2.1,.66,4.77,1.83,6.12,2.79l-1.08,1.74c-1.32-.99-3.96-2.25-6.06-2.97l1.02-1.56Zm.06,17.58c1.56-2.37,3.84-6.39,5.52-9.84,1.2,1.02,1.35,1.14,1.5,1.26-1.53,3.24-3.54,6.99-5.01,9.3,.09,.15,.15,.3,.15,.42,0,.15-.06,.27-.15,.36l-2.01-1.5Zm1.62-25.95c2.1,.78,4.71,2.07,6.03,3.15l-1.17,1.68c-1.29-1.08-3.87-2.49-6-3.33l1.14-1.5Zm25.17,12.66v1.95h-11.67l1.08,.36c-.09,.18-.33,.3-.69,.33-.93,2.55-2.46,6-3.81,8.67,3.15-.18,6.84-.36,10.47-.6-1.05-1.56-2.28-3.15-3.45-4.5l1.71-.9c2.37,2.61,4.95,6.21,6.06,8.61l-1.89,1.08c-.3-.75-.78-1.62-1.32-2.55-5.52,.45-11.31,.84-14.94,1.08-.06,.24-.24,.39-.45,.42l-.84-2.4,2.49-.12c1.38-2.67,2.94-6.54,3.9-9.48h-6.42v-1.95h8.64v-5.91h-7.17v-1.92h7.17v-5.04l2.76,.18c-.03,.3-.3,.51-.69,.57v4.29h7.32v1.92h-7.32v5.91h9.06Z"/><path class="cd" d="M667.23,476.77c-.06,.03-.12,.06-.18,.06-.18,0-.33-.09-.45-.18-2.28,.75-5.61,1.98-8.1,3.06,.06,.69,.09,1.47,.09,2.34,0,.96-.03,2.04-.09,3.21l-2.19,.12c.09-1.08,.15-2.46,.15-3.63,0-.45,0-.87-.03-1.2-3.39,1.65-6.15,3.66-6.15,5.46s2.07,2.58,6.21,2.58c2.91,0,5.61-.06,7.53-.3l.03,2.01c-1.77,.18-4.47,.24-7.56,.24-5.76,0-8.31-1.38-8.31-4.44,0-2.64,3.48-5.19,7.98-7.44-.18-1.89-1.02-2.82-2.22-2.82-2.19,0-4.47,1.23-7.17,4.23-.84,.93-2.01,2.1-3.3,3.27l-1.47-1.47c3-2.64,5.82-5.16,7.56-11.07l-1.68,.03h-5.01v-1.95c1.83,.03,3.96,.03,5.19,.03l2.04-.03c.33-1.38,.6-2.67,.81-4.29l2.94,.36c-.06,.3-.3,.48-.75,.54-.21,1.2-.48,2.25-.75,3.33,2.04-.03,6.42-.51,10.32-1.74l.36,2.01c-3.75,1.17-8.28,1.59-11.25,1.68-.72,2.25-1.47,4.05-2.16,5.07h.03c1.32-1.17,3.3-1.95,4.83-1.95,2.04,0,3.33,1.47,3.72,3.9,2.52-1.14,5.7-2.37,8.1-3.3l.93,2.28Z"/><path class="cd" d="M676.11,475.93v9.9c2.34,3.6,6.78,3.6,11.94,3.6,3.45,0,7.65-.09,10.14-.24-.27,.45-.57,1.35-.66,1.92-2.07,.06-5.4,.12-8.43,.12-6.69,0-10.86,0-13.83-3.72-1.32,1.35-2.73,2.67-3.84,3.72,0,.24-.06,.33-.27,.45l-1.14-2.04c1.26-.99,2.82-2.31,4.17-3.6v-8.19h-3.87v-1.92h5.79Zm-3.99-11.28c1.83,1.44,3.87,3.54,4.74,5.07l-1.68,1.17c-.81-1.56-2.82-3.75-4.62-5.22l1.56-1.02Zm25.62,16.89v1.62h-20.28v-1.62h5.61v-3h-4.38v-1.62h4.38v-2.4l2.52,.18c-.03,.21-.21,.36-.6,.39v1.83h5.07v-2.4l2.52,.18c-.03,.21-.21,.36-.6,.42v1.8h4.53v1.62h-4.53v3h5.76Zm-13.8-12.81v-2.1h-6.06v-1.47h7.83v5.04h-5.34v1.65c0,.57,.15,.69,1.11,.69h3.42c.72,0,.87-.18,.93-1.56,.36,.27,1.05,.45,1.53,.57-.18,1.98-.69,2.46-2.22,2.46h-3.81c-2.13,0-2.7-.39-2.7-2.13v-3.15h5.31Zm2.55,15.51c-.15,.24-.39,.27-.63,.21-1.65,1.38-4.14,2.85-6.27,3.78-.33-.36-.96-.93-1.38-1.23,2.1-.81,4.59-2.19,6.12-3.63l2.16,.87Zm-1.5-5.7v3h5.07v-3h-5.07Zm9.24-9.81v-2.1h-6.45v-1.47h8.25v5.04h-5.67v1.65c0,.57,.18,.69,1.26,.69h3.75c.78,0,.93-.18,.99-1.68,.39,.24,1.08,.45,1.56,.57-.21,2.07-.72,2.58-2.31,2.58h-4.14c-2.25,0-2.85-.39-2.85-2.16v-3.12h5.61Zm-3.66,14.64c2.52,1.14,5.28,2.67,6.9,3.93l-1.98,.93c-1.41-1.23-3.93-2.76-6.36-3.93l1.44-.93Z"/><path class="cd" d="M710.49,478.99l-3.63,1.29v9.06c0,2.16-.99,2.49-4.98,2.43-.09-.48-.39-1.32-.66-1.86,1.41,.03,2.7,.03,3.09,.03,.39-.03,.57-.15,.57-.57v-8.37c-1.41,.48-2.7,.93-3.72,1.26,0,.24-.15,.42-.36,.48l-.84-2.37c1.35-.36,3.06-.87,4.92-1.44v-7.05h-4.56v-1.89h4.56v-6.06l2.58,.15c-.03,.24-.18,.36-.6,.42v5.49h3.45v1.89h-3.45v6.42l3.36-1.05,.27,1.74Zm16.05-1.32h-6.06c1.2,5.58,3.66,10.35,7.71,12.39-.48,.42-1.11,1.2-1.44,1.77-4.41-2.52-6.96-7.71-8.28-14.16h-4.08c-.15,4.68-1.05,10.41-4.71,14.28-.27-.42-1.11-1.11-1.53-1.38,3.87-4.11,4.26-10.02,4.26-14.64v-10.56h14.13v12.3Zm-2.01-10.35h-10.11v8.43h10.11v-8.43Z"/><path class="cd" d="M737.01,465.22c-.06,.36-.33,.57-.93,.66-.24,3.48-.54,11.43-.54,15.87s2.22,6.63,6,6.63,7.38-1.83,10.8-5.7c.3,.48,.99,1.44,1.35,1.77-3.51,3.99-7.77,6.09-12.18,6.09-5.46,0-8.25-3.15-8.25-8.82,0-3.78,.27-13.08,.48-16.77l3.27,.27Z"/><path class="cd" d="M755.28,467.98c2.25-.09,20.73-1.41,24.63-1.44l.03,2.25c-.39-.03-.75-.03-1.11-.03-1.74,0-3.21,.3-5.13,1.53-4.5,2.7-8.85,7.53-8.85,11.4,0,4.2,2.94,6.69,10.38,7.65l-.99,2.1c-8.52-1.23-11.7-4.41-11.7-9.75,0-4.23,4.17-9.36,9.66-12.81-3.18,.21-12.15,.9-16.02,1.26-.09,.24-.42,.45-.66,.48l-.24-2.64Z"/><path class="cd" d="M810.15,468.19h-12.72l-.33,.09v5.22l.15-.18c3.81,1.86,8.73,4.65,11.22,6.57l-1.41,1.8c-2.16-1.74-6.36-4.29-9.96-6.21v16.29h-2.13v-23.58h-11.85v-2.01h27.03v2.01Z"/><path class="cd" d="M837.84,470.83c-2.73,.78-6.39,1.32-9.99,1.65,1.17,4.08,2.43,6.51,5.67,7.92l-1.47,1.83c-1.38-1.05-2.79-1.86-6.69-2.07l-.36-1.77c1.47,.12,2.58,.3,3.33,.45-1.05-1.26-1.86-3.18-2.67-6.21-1.35,.12-3.18,.18-4.98,.18-1.95,0-5.13-.03-7.05-.09v-2.04c1.8,.09,4.35,.09,7.08,.09,1.53,0,3.27-.03,4.47-.15-.36-1.62-.69-3.84-1.05-6.15l3.21,.06c-.03,.36-.3,.57-.78,.69,.18,1.71,.48,3.6,.81,5.25,3.45-.3,7.35-.93,9.99-1.77l.48,2.13Zm-5.37,19.74c-1.44,.06-2.97,.09-5.58,.09-6.27,0-10.71-1.92-10.71-5.94,0-1.71,1.05-3.45,2.7-5.04l1.62,1.29c-1.35,1.08-2.16,2.55-2.16,3.69,0,2.97,3.84,3.93,8.61,3.93,2.61,0,4.14-.06,5.67-.15l-.15,2.13Z"/><path class="cd" d="M845.4,467.98c-.06,.27-.39,.45-.81,.48-.36,2.25-.57,4.95-.57,7.47,0,1.11,.06,2.19,.12,3.15,.36,5.1,2.43,8.19,4.74,8.16,1.2,0,2.76-3.06,3.84-6.42,.42,.42,1.23,.99,1.74,1.29-1.38,4.05-3.12,7.35-5.61,7.41-3.81,.06-6.45-4.56-6.87-10.32-.09-1.14-.12-2.4-.12-3.75,0-2.64,.15-5.52,.45-8.07l3.09,.6Zm19.89,13.95c-.84-5.25-3.51-9.03-7.56-11.28l1.32-1.62c4.38,2.34,7.59,6.66,8.46,12.21l-2.22,.69Z"/></g><g class="ax"><path d="M461.98,146.26c-1.26,3.28-3.11,6.16-5.26,8.26l-1.62-1.06c2.1-1.96,3.92-4.62,5.07-7.9l1.82,.7Zm5.99-4.31v13.13c0,3.05-2.18,3.05-6.66,3.05-.11-.5-.34-1.29-.59-1.88,.81,.03,1.71,.03,2.46,.03h1.62c.78,0,1.15-.5,1.15-1.18v-13.16h-9.52v-1.9h9.52v-5.91l2.66,.14c-.03,.28-.22,.48-.64,.53v5.24h9.46v1.9h-9.46Zm5.01,3.42c2.04,2.27,4.4,5.57,5.91,8.15l-1.79,1.04c-1.37-2.55-3.84-6.16-5.71-8.29l1.6-.9Zm3.64-12.91c1.71,0,3.11,1.4,3.11,3.14s-1.4,3.14-3.11,3.14-3.16-1.4-3.16-3.14,1.46-3.14,3.16-3.14Zm2.18,3.14c0-1.23-.98-2.24-2.18-2.24s-2.24,1.01-2.24,2.24,1.01,2.21,2.24,2.21,2.18-1.06,2.18-2.21Z"/><path d="M505.18,135.65c-.11,.14-.28,.22-.53,.22-.08,0-.17,0-.28-.03-2.16,2.18-5.26,4.73-7.98,6.69,.22,.08,.56,.25,.67,.31-.06,.17-.31,.34-.62,.36v15.04h-2.04v-14.39c-2.97,2.1-6.83,4.37-10.67,6.24-.28-.45-.78-1.15-1.18-1.54,7.64-3.53,16.02-9.52,20.52-14.48l2.1,1.57Z"/><path d="M509.94,136.13c2.91,.92,6.27,2.38,8.34,3.81l-1.06,1.76c-2.02-1.43-5.32-2.91-8.18-3.89l.9-1.68Zm-.11,19.4c9.94-3.08,16.55-8.65,19.91-16.41,.59,.48,1.23,.84,1.82,1.15-3.5,7.67-10.33,13.64-19.82,16.8-.03,.25-.2,.53-.39,.64l-1.51-2.18Z"/><path d="M551.02,148.75c-2.86-1.54-6.78-3.36-9.83-4.56v14h-2.1v-24.33l2.83,.17c-.03,.31-.25,.5-.73,.59v8.18l.42-.59c3.28,1.2,7.62,3.14,10.53,4.68l-1.12,1.88Z"/><path d="M565.75,145.28c2.02,.48,4.4,2.16,4.4,5.38,0,1.9-.73,3.25-1.71,4.2-1.43,1.4-3.72,2.02-6.94,2.02-1.76,0-3.08-.14-3.95-.22v-20.97c1.18-.25,2.86-.45,4.59-.45,2.63,0,4.37,.5,5.63,1.57,1.01,.87,1.6,2.1,1.6,3.7,0,2.1-1.43,3.92-3.61,4.7v.08Zm-3.39-.78c2.83,0,4.65-1.62,4.65-3.81v-.03c0-2.52-1.85-3.61-4.76-3.61-1.23,0-1.96,.08-2.38,.2v7.25h2.49Zm-2.49,10.39c.53,.11,1.29,.14,2.27,.14,2.94,0,5.57-1.15,5.57-4.37s-2.77-4.37-5.6-4.37h-2.24v8.6Z"/></g><g class="ax"><path d="M758.4,146.26c-1.26,3.28-3.11,6.16-5.26,8.26l-1.62-1.06c2.1-1.96,3.92-4.62,5.07-7.9l1.82,.7Zm5.99-4.31v13.13c0,3.05-2.18,3.05-6.66,3.05-.11-.5-.34-1.29-.59-1.88,.81,.03,1.71,.03,2.46,.03h1.62c.78,0,1.15-.5,1.15-1.18v-13.16h-9.52v-1.9h9.52v-5.91l2.66,.14c-.03,.28-.22,.47-.64,.53v5.24h9.46v1.9h-9.46Zm5.01,3.42c2.04,2.27,4.4,5.57,5.91,8.15l-1.79,1.04c-1.37-2.55-3.84-6.16-5.71-8.29l1.6-.89Zm3.64-12.91c1.71,0,3.11,1.4,3.11,3.13s-1.4,3.14-3.11,3.14-3.16-1.4-3.16-3.14,1.46-3.13,3.16-3.13Zm2.18,3.13c0-1.23-.98-2.24-2.18-2.24s-2.24,1.01-2.24,2.24,1.01,2.21,2.24,2.21,2.18-1.06,2.18-2.21Z"/><path d="M801.61,135.65c-.11,.14-.28,.22-.53,.22-.08,0-.17,0-.28-.03-2.16,2.19-5.26,4.73-7.98,6.69,.22,.08,.56,.25,.67,.31-.06,.17-.31,.34-.62,.37v15.04h-2.04v-14.39c-2.97,2.1-6.83,4.37-10.67,6.24-.28-.45-.78-1.15-1.18-1.54,7.64-3.53,16.02-9.52,20.52-14.48l2.1,1.57Z"/><path d="M806.37,136.13c2.91,.92,6.27,2.38,8.34,3.81l-1.06,1.76c-2.02-1.43-5.32-2.91-8.18-3.89l.9-1.68Zm-.11,19.4c9.94-3.08,16.55-8.65,19.91-16.41,.59,.47,1.23,.84,1.82,1.15-3.5,7.67-10.33,13.63-19.82,16.8-.03,.25-.2,.53-.39,.64l-1.51-2.18Z"/><path d="M847.45,148.75c-2.86-1.54-6.78-3.36-9.83-4.56v14h-2.1v-24.33l2.83,.17c-.03,.31-.25,.5-.73,.59v8.18l.42-.59c3.28,1.2,7.62,3.13,10.53,4.68l-1.12,1.88Z"/><path d="M867.97,156.06c-.98,.48-2.88,.95-5.32,.95-5.49,0-9.91-3.55-9.91-10.78s4.29-11.17,10.53-11.17c2.55,0,4.03,.53,4.7,.87l-.62,1.96c-.98-.48-2.35-.87-4.03-.87-4.84,0-8.15,3.25-8.15,9.13s3.02,8.9,8.01,8.9c1.62,0,3.22-.36,4.28-.87l.5,1.88Z"/></g><line class="ar" x1="170.5" y1="111.5" x2="241.5" y2="129.5"/><line class="ar" x1="456.5" y1="141.5" x2="188.5" y2="116.5"/><line class="ar" x1="752.5" y1="141.5" x2="170.5" y2="111.5"/></svg>