<?xml version="1.0" encoding="UTF-8"?><svg id="a" xmlns="http://www.w3.org/2000/svg" width="1025" height="769" viewBox="0 0 1025 769"><defs><style>.b{fill:#3fa9f5;stroke:#231815;stroke-miterlimit:10;stroke-width:2px;}.c{isolation:isolate;}</style></defs><path class="b" d="M233.45,168.47v12.2h-19.39c-.23,0-.36,.45-.36,1.06v20.61c0,.57,.18,1.06,.36,1.06h19.39v12.2l13.69-12.2h.27c.14,0,.27-.23,.32-.53l12.16-10.84-12.16-10.84c-.05-.3-.18-.53-.32-.53h-.27l-13.69-12.2Z"/><g class="c"><path d="M188.58,128.04c-1.26,3.28-3.11,6.16-5.26,8.26l-1.62-1.06c2.1-1.96,3.92-4.62,5.07-7.9l1.82,.7Zm5.99-4.31v13.13c0,3.05-2.18,3.05-6.66,3.05-.11-.5-.34-1.29-.59-1.88,.81,.03,1.71,.03,2.46,.03h1.62c.78,0,1.15-.5,1.15-1.18v-13.16h-9.52v-1.9h9.52v-5.91l2.66,.14c-.03,.28-.22,.48-.64,.53v5.24h9.46v1.9h-9.46Zm5.01,3.42c2.04,2.27,4.4,5.57,5.91,8.15l-1.79,1.04c-1.37-2.55-3.84-6.16-5.71-8.29l1.6-.9Zm3.64-12.91c1.71,0,3.11,1.4,3.11,3.14s-1.4,3.14-3.11,3.14-3.16-1.4-3.16-3.14,1.46-3.14,3.16-3.14Zm2.18,3.14c0-1.23-.98-2.24-2.18-2.24s-2.24,1.01-2.24,2.24,1.01,2.21,2.24,2.21,2.18-1.06,2.18-2.21Z"/><path d="M231.79,117.43c-.11,.14-.28,.22-.53,.22-.08,0-.17,0-.28-.03-2.16,2.18-5.26,4.73-7.98,6.69,.22,.08,.56,.25,.67,.31-.06,.17-.31,.34-.62,.36v15.04h-2.04v-14.39c-2.97,2.1-6.83,4.37-10.67,6.24-.28-.45-.78-1.15-1.18-1.54,7.64-3.53,16.02-9.52,20.52-14.48l2.1,1.57Z"/><path d="M236.55,117.91c2.91,.92,6.27,2.38,8.34,3.81l-1.06,1.76c-2.02-1.43-5.32-2.91-8.18-3.89l.9-1.68Zm-.11,19.4c9.94-3.08,16.55-8.65,19.91-16.41,.59,.48,1.23,.84,1.82,1.15-3.5,7.67-10.33,13.64-19.82,16.8-.03,.25-.2,.53-.39,.64l-1.51-2.18Z"/><path d="M277.62,130.53c-2.86-1.54-6.78-3.36-9.83-4.56v14h-2.1v-24.33l2.83,.17c-.03,.31-.25,.5-.73,.59v8.18l.42-.59c3.28,1.2,7.62,3.14,10.53,4.68l-1.12,1.88Z"/><path d="M299.41,138.49h-2.46l-2.3-6.92h-7.42l-2.24,6.92h-2.38l7.06-21.34h2.69l7.06,21.34Zm-5.24-8.76l-2.1-6.33c-.45-1.46-.81-2.8-1.09-4.06h-.08c-.28,1.29-.67,2.63-1.06,3.98l-2.13,6.41h6.47Z"/></g></svg>