<?xml version="1.0" encoding="UTF-8"?><svg id="a" xmlns="http://www.w3.org/2000/svg" width="1025" height="769" viewBox="0 0 1025 769"><defs><style>.b{fill:#3fa9f5;stroke:#231815;stroke-miterlimit:10;stroke-width:2px;}.c{isolation:isolate;}</style></defs><path class="b" d="M813.25,164.72v12.2h-19.39c-.23,0-.36,.45-.36,1.06v20.61c0,.57,.18,1.06,.36,1.06h19.39v12.2l13.69-12.2h.27c.14,0,.27-.23,.32-.53l12.16-10.84-12.16-10.84c-.05-.3-.18-.53-.32-.53h-.27l-13.69-12.2Z"/><g class="c"><path d="M757.12,131.05c-1.26,3.28-3.1,6.16-5.26,8.26l-1.62-1.06c2.1-1.96,3.92-4.62,5.06-7.9l1.82,.7Zm5.99-4.32v13.13c.01,3.05-2.17,3.05-6.65,3.05-.11-.5-.34-1.29-.59-1.88,.81,.03,1.71,.03,2.46,.03h1.62c.78,0,1.15-.51,1.15-1.18v-13.16s-9.53,0-9.53,0v-1.9s9.52,0,9.52,0v-5.91s2.66,.14,2.66,.14c-.03,.28-.22,.47-.64,.53v5.23s9.47,0,9.47,0v1.9s-9.46,0-9.46,0Zm5.01,3.41c2.05,2.27,4.4,5.57,5.91,8.14l-1.79,1.04c-1.37-2.55-3.84-6.16-5.72-8.29l1.6-.9Zm3.63-12.91c1.71,0,3.11,1.4,3.11,3.13,0,1.74-1.4,3.14-3.11,3.14-1.76,0-3.17-1.4-3.17-3.13,0-1.79,1.45-3.14,3.16-3.14Zm2.19,3.13c0-1.23-.98-2.24-2.19-2.24-1.23,0-2.24,1.01-2.24,2.24,0,1.21,1.01,2.21,2.24,2.21,1.26,0,2.18-1.06,2.18-2.21Z"/><path d="M800.32,120.41c-.11,.14-.28,.22-.53,.22-.08,0-.17,0-.28-.03-2.15,2.19-5.26,4.74-7.98,6.7,.22,.08,.56,.25,.67,.31-.06,.17-.31,.34-.62,.36v15.04s-2.03,0-2.03,0v-14.39c-2.98,2.1-6.84,4.37-10.67,6.25-.28-.45-.79-1.15-1.18-1.54,7.64-3.53,16.01-9.53,20.51-14.49l2.1,1.57Z"/><path d="M805.08,120.88c2.91,.92,6.27,2.38,8.35,3.8l-1.06,1.77c-2.02-1.43-5.32-2.91-8.18-3.89l.89-1.68Zm-.1,19.4c9.94-3.09,16.54-8.66,19.9-16.42,.59,.48,1.23,.84,1.82,1.15-3.5,7.67-10.32,13.64-19.81,16.81-.03,.25-.2,.53-.39,.64l-1.51-2.18Z"/><path d="M846.17,133.49c-2.86-1.54-6.78-3.36-9.83-4.56v14s-2.09,0-2.09,0l-.02-24.33,2.83,.17c-.03,.31-.25,.5-.73,.59v8.18s.42-.59,.42-.59c3.28,1.2,7.62,3.13,10.53,4.67l-1.12,1.88Z"/><path d="M866.7,140.78c-.98,.48-2.88,.95-5.32,.96-5.49,0-9.91-3.55-9.92-10.77,0-6.89,4.28-11.18,10.52-11.18,2.55,0,4.03,.53,4.7,.87l-.61,1.96c-.98-.48-2.35-.87-4.03-.87-4.84,0-8.15,3.25-8.14,9.13,0,5.6,3.03,8.9,8.01,8.9,1.62,0,3.22-.37,4.28-.87l.51,1.88Z"/></g></svg>