<?xml version="1.0" encoding="UTF-8"?><svg id="a" xmlns="http://www.w3.org/2000/svg" width="1025" height="769" xmlns:xlink="http://www.w3.org/1999/xlink" viewBox="0 0 1025 769"><defs><style>.al{clip-path:url(#ad);}.am{clip-path:url(#ai);}.an{fill:#fff;}.ao{clip-path:url(#j);}.ap{fill:#3fa9f5;stroke:#231815;stroke-width:2px;}.ap,.aq,.ar,.as,.at{stroke-miterlimit:10;}.aq{fill:#fff1bf;}.aq,.ar,.as,.at{stroke:#000;}.aq,.ar,.at{stroke-width:.5px;}.au{clip-path:url(#g);}.av{clip-path:url(#z);}.aw{clip-path:url(#r);}.ax{isolation:isolate;}.ay{clip-path:url(#p);}.az{clip-path:url(#aj);}.ba{clip-path:url(#d);}.bb{clip-path:url(#ab);}.ar{fill:#d4eeff;}.bc{clip-path:url(#ac);}.bd{clip-path:url(#aa);}.be{clip-path:url(#v);}.bf{clip-path:url(#x);}.bg{clip-path:url(#i);}.bh{clip-path:url(#b);}.bi{clip-path:url(#e);}.as{stroke-width:3px;}.as,.bj,.bk,.bl{fill:none;}.bm{clip-path:url(#f);}.bn{clip-path:url(#l);}.bo{fill:#007cbe;}.bp{clip-path:url(#o);}.bq{clip-path:url(#af);}.br{clip-path:url(#n);}.bs{clip-path:url(#q);}.at{fill:#ffb48a;}.bt{clip-path:url(#k);}.bu{clip-path:url(#c);}.bv{clip-path:url(#u);}.bw{clip-path:url(#ak);}.bk{stroke-width:1.62px;}.bk,.bl{stroke:#fff;}.bl{stroke-width:3.17px;}.bx{clip-path:url(#ae);}.by{clip-path:url(#ah);}.bz{clip-path:url(#s);}.ca{clip-path:url(#ag);}.cb{clip-path:url(#h);}.cc{clip-path:url(#y);}.cd{clip-path:url(#w);}</style><clipPath id="b"><rect class="bj" x="14.32" y="149.66" width="150" height="133.75"/></clipPath><clipPath id="c"><rect class="bj" x="14.32" y="149.66" width="150" height="133.75"/></clipPath><clipPath id="d"><rect class="bj" x="14.32" y="149.66" width="150" height="133.75"/></clipPath><clipPath id="e"><rect class="bj" x="14.32" y="149.66" width="150" height="133.75"/></clipPath><clipPath id="f"><rect class="bj" x="14.32" y="149.66" width="150" height="133.75"/></clipPath><clipPath id="g"><rect class="bj" x="14.32" y="149.66" width="150" height="133.75"/></clipPath><clipPath id="h"><rect class="bj" x="14.32" y="149.66" width="150" height="133.75"/></clipPath><clipPath id="i"><rect class="bj" x="14.32" y="149.66" width="150" height="133.75"/></clipPath><clipPath id="j"><rect class="bj" x="14.32" y="149.66" width="150" height="133.75"/></clipPath><clipPath id="k"><rect class="bj" x="14.32" y="149.66" width="150" height="133.75"/></clipPath><clipPath id="l"><rect class="bj" x="14.32" y="149.66" width="150" height="133.75"/></clipPath><clipPath id="n"><rect class="bj" x="600" y="181.78" width="150" height="101.63"/></clipPath><clipPath id="o"><rect class="bj" x="600" y="181.78" width="150" height="101.63"/></clipPath><clipPath id="p"><rect class="bj" x="600" y="181.78" width="149.34" height="100.91"/></clipPath><clipPath id="q"><rect class="bj" x="600" y="181.78" width="150" height="101.63"/></clipPath><clipPath id="r"><rect class="bj" x="600" y="181.78" width="149.34" height="100.91"/></clipPath><clipPath id="s"><rect class="bj" x="600" y="181.78" width="150" height="101.63"/></clipPath><clipPath id="u"><rect class="bj" x="288" y="181.78" width="150" height="101.63"/></clipPath><clipPath id="v"><rect class="bj" x="288" y="181.78" width="150" height="101.63"/></clipPath><clipPath id="w"><rect class="bj" x="288" y="181.78" width="149.34" height="100.91"/></clipPath><clipPath id="x"><rect class="bj" x="288" y="181.78" width="150" height="101.63"/></clipPath><clipPath id="y"><rect class="bj" x="288" y="181.78" width="149.34" height="100.91"/></clipPath><clipPath id="z"><rect class="bj" x="288" y="181.78" width="150" height="101.63"/></clipPath><clipPath id="aa"><rect class="bj" x="860.18" y="149.66" width="150" height="133.75"/></clipPath><clipPath id="ab"><rect class="bj" x="860.18" y="149.66" width="150" height="133.75"/></clipPath><clipPath id="ac"><rect class="bj" x="860.18" y="149.66" width="150" height="133.75"/></clipPath><clipPath id="ad"><rect class="bj" x="860.18" y="149.66" width="150" height="133.75"/></clipPath><clipPath id="ae"><rect class="bj" x="860.18" y="149.66" width="150" height="133.75"/></clipPath><clipPath id="af"><rect class="bj" x="860.18" y="149.66" width="150" height="133.75"/></clipPath><clipPath id="ag"><rect class="bj" x="860.18" y="149.66" width="150" height="133.75"/></clipPath><clipPath id="ah"><rect class="bj" x="860.18" y="149.66" width="150" height="133.75"/></clipPath><clipPath id="ai"><rect class="bj" x="860.18" y="149.66" width="150" height="133.75"/></clipPath><clipPath id="aj"><rect class="bj" x="860.18" y="149.66" width="150" height="133.75"/></clipPath><clipPath id="ak"><rect class="bj" x="860.18" y="149.66" width="150" height="133.75"/></clipPath></defs><g><rect class="at" x="194.69" y="454.96" width="688.61" height="59.26"/><path class="at" d="M882.61,455.17v58.85H195.39v-58.85H882.61m1.39-.41H194v59.67H884v-59.67h0Z"/></g><g><rect class="ar" x="710.63" y="330.01" width="173.68" height="71.75"/><path class="ar" d="M884.14,330.25v71.25h-173.33v-71.25h173.33m.35-.49h-174.03v72.24h174.03v-72.24h0Z"/></g><g><rect class="ar" x="425.63" y="344.96" width="173.68" height="59.26"/><path class="ar" d="M599.14,345.17v58.85h-173.33v-58.85h173.33m.35-.41h-174.03v59.67h174.03v-59.67h0Z"/></g><g><rect class="ar" x="183.15" y="343.2" width="173.68" height="59.26"/><path class="ar" d="M356.65,343.41v58.85H183.32v-58.85h173.33m.35-.41H182.97v59.67h174.03v-59.67h0Z"/></g><g class="ax"><path d="M269.38,40.54c-.09,.15-.27,.24-.54,.27-1.92,2.4-4.5,4.98-7.26,7.11l.48,.12c-.06,.15-.27,.39-.66,.42v11.43h-2.13v-10.41c-3.06,2.1-7.02,4.23-10.71,5.7-.15-.21-1.14-1.44-1.38-1.68,7.26-2.7,14.16-7.17,18.27-11.97h-15.18v-1.95h17.19l.33-.21,1.59,1.17Zm-4.95-2.34c-2.61-1.38-6.69-2.73-9.87-3.63l.99-1.74c3.21,.78,7.26,2.22,9.99,3.54l-1.11,1.83Zm.21,9.63c3,1.56,6.6,3.81,8.76,5.52l-1.53,1.62c-2.01-1.68-5.73-4.11-8.61-5.64l1.38-1.5Z"/><path d="M279.49,41.55c.9,1.83,1.89,4.71,2.25,6.45l-1.68,.45c-.36-1.74-1.29-4.47-2.19-6.39l1.62-.51Zm17.91,.21c-.06,.27-.36,.33-.63,.3-2.34,8.76-6.75,14.13-14.01,17.07-.24-.36-.78-1.05-1.17-1.38,7.17-2.82,11.28-7.74,13.47-16.68l2.34,.69Zm-10.62-1.65c.63,2.01,1.2,4.89,1.41,6.81l-1.77,.33c-.18-1.92-.75-4.68-1.41-6.75l1.77-.39Z"/><path d="M319.27,49.47c-3.06-1.65-7.26-3.6-10.53-4.89v15h-2.25v-26.07l3.03,.18c-.03,.33-.27,.54-.78,.63v8.76l.45-.63c3.51,1.29,8.16,3.36,11.28,5.01l-1.2,2.01Z"/><path d="M348.67,36.84c-.09,.12-.24,.24-.39,.3-1.17,11.73-5.16,18.03-15.18,22.08-.39-.51-.99-1.17-1.5-1.62,9.57-3.9,13.32-9.6,14.31-19.44h-17.13v8.28h-2.07v-10.32h19.89l.33-.24,1.74,.96Z"/><path d="M353.32,45h25.05v2.13h-23.91c-.18,.3-.57,.51-.96,.57l-.18-2.7Z"/><path d="M404.08,39.21c-.12,.15-.27,.3-.45,.42-3.15,9.72-8.07,15.96-16.35,20.16-.36-.51-.93-1.2-1.53-1.65,7.86-3.81,12.72-9.81,15.21-17.76h-10.71c-1.74,2.7-4.05,5.31-6.72,7.41-.42-.42-1.11-.99-1.71-1.38,4.08-3.15,7.53-7.74,9.57-13.02l2.85,.81c-.12,.3-.48,.39-.87,.39-.6,1.32-1.23,2.58-1.92,3.78h10.56l.36-.18,1.71,1.02Z"/><path d="M432.94,34.12v6.03h-3.93l.96,.42c-.09,.18-.33,.24-.6,.21-.36,.42-.87,.99-1.38,1.5h4.89v7.95h-18.87v-7.95h4.11c-.39-.63-.93-1.32-1.47-1.83l.6-.3h-4.89v2.82c0,5.13-.42,12.48-3.57,17.43-.36-.33-1.23-.84-1.74-1.05,3.03-4.77,3.3-11.49,3.3-16.38v-8.85h22.59Zm-2.04,4.38v-2.7h-18.54v2.7h18.54Zm-15.39,22.05v-8.88h16.08v8.82h-1.92v-.9h-12.3v.96h-1.86Zm.39-16.92v1.95h6.45v-1.95h-6.45Zm0,3.27v2.01h6.45v-2.01h-6.45Zm13.77,6.18h-12.3v1.83h12.3v-1.83Zm-12.3,5.07h12.3v-1.92h-12.3v1.92Zm1.17-18c.66,.66,1.26,1.47,1.56,2.13h5.88c.54-.63,1.17-1.44,1.62-2.13h-9.06Zm12.36,5.43v-1.95h-6.66v1.95h6.66Zm0,3.33v-2.01h-6.66v2.01h6.66Z"/><path d="M458.32,43.33c-.06,.03-.15,.03-.24,.03-.21,0-.45-.06-.63-.18-8.91,2.61-16.98,6.54-16.95,10.56,0,2.88,3.18,3.87,8.04,3.87s8.52-.36,10.62-.69l.18,2.19c-2.76,.36-7.23,.54-10.74,.54-5.94,0-10.26-1.38-10.29-5.79-.03-3.21,3.18-6.03,7.89-8.46-1.02-1.83-1.38-5.31-1.38-12.09l3.3,.27c-.03,.39-.33,.63-.93,.72-.03,5.25,.15,8.52,.99,10.14,2.82-1.32,6.06-2.52,9.36-3.6l.78,2.49Z"/><path d="M487.78,45.3h-9.9l.51,.15c-.03,.18-.27,.33-.6,.36-.78,5.43-3.24,10.83-9.27,13.86-.33-.39-1.11-1.08-1.62-1.47,5.91-2.94,7.98-7.5,8.67-12.9h-11.46v-2.01h23.67v2.01Zm-4.41-8.19h-16.65v-2.01h16.65v2.01Zm.39-4.41c1.23,1.29,2.61,3.33,3.3,4.74l-1.2,.81c-.63-1.38-2.07-3.51-3.27-4.74l1.17-.81Zm3.54-1.02c1.23,1.29,2.67,3.33,3.39,4.71l-1.23,.75c-.63-1.32-2.13-3.45-3.3-4.68l1.14-.78Z"/><path d="M492.82,45h25.05v2.13h-23.91c-.18,.3-.57,.51-.96,.57l-.18-2.7Z"/><path d="M543.64,38.58c-.03,.15-.18,.27-.36,.33-1.11,3.72-2.61,7.14-4.41,9.93,1.29,.75,2.76,1.68,3.87,2.49l-1.26,1.98c-1.08-.84-2.61-1.83-3.87-2.61-2.76,3.84-6.3,6.93-10.83,9.12-.33-.51-1.11-1.23-1.65-1.56,4.38-2.04,7.89-5.07,10.62-8.64-2.22-1.23-4.41-2.28-6.63-3.12l1.14-1.68c2.19,.78,4.44,1.8,6.75,3.03,1.56-2.46,2.79-5.07,3.63-7.95h-10.17c-1.83,3.06-4.29,6.09-6.93,8.25-.39-.36-1.2-1.02-1.71-1.35,3.93-3,7.65-8.4,9.45-13.53l2.85,.66c-.12,.33-.42,.42-.81,.39-.42,.99-1.11,2.46-1.68,3.57h9.96l.42-.12,1.62,.81Z"/><path d="M551.42,50.1v-14.58l2.85,.18c-.03,.27-.24,.48-.72,.54v13.86h-2.13Zm16.71-15.75c-.03,.3-.24,.45-.72,.51v9.54c0,6.3-2.16,12.06-10.77,15.39-.3-.45-1.05-1.23-1.56-1.62,8.31-3.09,10.17-8.22,10.17-13.77v-10.23l2.88,.18Z"/><path d="M574.97,35.95c3.12,.99,6.72,2.55,8.94,4.08l-1.14,1.89c-2.16-1.53-5.7-3.12-8.76-4.17l.96-1.8Zm-.12,20.79c10.65-3.3,17.73-9.27,21.33-17.58,.63,.51,1.32,.9,1.95,1.23-3.75,8.22-11.07,14.61-21.24,18-.03,.27-.21,.57-.42,.69l-1.62-2.34Z"/><path d="M622.48,39.21c-.12,.15-.27,.3-.45,.42-3.15,9.72-8.07,15.96-16.35,20.16-.36-.51-.93-1.2-1.53-1.65,7.86-3.81,12.72-9.81,15.21-17.76h-10.71c-1.74,2.7-4.05,5.31-6.72,7.41-.42-.42-1.11-.99-1.71-1.38,4.08-3.15,7.53-7.74,9.57-13.02l2.85,.81c-.12,.3-.48,.39-.87,.39-.6,1.32-1.23,2.58-1.92,3.78h10.56l.36-.18,1.71,1.02Z"/><path d="M651.35,34.12v6.03h-3.93l.96,.42c-.09,.18-.33,.24-.6,.21-.36,.42-.87,.99-1.38,1.5h4.89v7.95h-18.87v-7.95h4.11c-.39-.63-.93-1.32-1.47-1.83l.6-.3h-4.89v2.82c0,5.13-.42,12.48-3.57,17.43-.36-.33-1.23-.84-1.74-1.05,3.03-4.77,3.3-11.49,3.3-16.38v-8.85h22.59Zm-2.04,4.38v-2.7h-18.54v2.7h18.54Zm-15.39,22.05v-8.88h16.08v8.82h-1.92v-.9h-12.3v.96h-1.86Zm.39-16.92v1.95h6.45v-1.95h-6.45Zm0,3.27v2.01h6.45v-2.01h-6.45Zm13.77,6.18h-12.3v1.83h12.3v-1.83Zm-12.3,5.07h12.3v-1.92h-12.3v1.92Zm1.17-18c.66,.66,1.26,1.47,1.56,2.13h5.88c.54-.63,1.17-1.44,1.62-2.13h-9.06Zm12.36,5.43v-1.95h-6.66v1.95h6.66Zm0,3.33v-2.01h-6.66v2.01h6.66Z"/><path d="M671.36,38.13c-.12,.27-.36,.48-.75,.48-1.08,9.33-4.2,17.46-9.18,17.46-2.52,0-4.8-2.52-4.8-7.26,0-7.2,5.61-13.23,13.5-13.23,8.67,0,12.42,5.49,12.42,11.34,0,7.14-4.14,10.59-11.4,12.27-.27-.48-.78-1.29-1.26-1.83,6.9-1.32,10.44-4.68,10.44-10.35,0-4.95-3.18-9.45-10.2-9.45-.3,0-.63,.03-.9,.06l2.13,.51Zm-2.88-.39c-6.06,.75-9.81,5.76-9.81,11.01,0,3.21,1.38,5.22,2.82,5.22,3.63,0,6.24-8.01,6.99-16.23Z"/><path d="M691.76,44.67v9.87c2.34,3.57,6.72,3.57,12.36,3.57,3.3,0,7.14-.06,9.48-.21-.24,.45-.57,1.38-.63,1.98-2.07,.06-5.37,.12-8.34,.12-6.6,0-10.74,0-13.71-3.72-1.38,1.35-2.79,2.67-3.96,3.69,.03,.24-.03,.36-.24,.48l-1.17-2.13c1.29-.96,2.85-2.28,4.26-3.57v-8.16h-3.96v-1.92h5.91Zm-4.02-11.22c1.74,1.38,3.72,3.36,4.59,4.8l-1.68,1.2c-.84-1.44-2.76-3.48-4.47-4.92l1.56-1.08Zm16.29,23.61v-2.67h-10.89v-1.53h3.87v-2.4h-2.97v-1.53h9.99v-1.77h-8.31v-5.25h14.04v5.25h-4.47v.03l1.23,.06c-.03,.21-.18,.33-.6,.39v1.29h6.39v1.53h-6.39v2.4h7.2v1.53h-7.2v2.67h-1.89Zm9.09-18.27v1.53h-19.95v-1.53h5.82c.27-.69,.54-1.47,.81-2.28h-4.68v-1.5h5.16c.27-.81,.51-1.62,.72-2.37l2.46,.33c-.06,.24-.27,.36-.66,.36l-.51,1.68h7.14v3.78h3.69Zm-15.54,4.5v2.49h10.23v-2.49h-10.23Zm1.29,9.57h5.16v-2.4h-5.16v2.4Zm8.67-16.35h-5.73c-.24,.81-.51,1.59-.78,2.28h6.51v-2.28Z"/><path d="M720.8,36.72c-.06,.27-.39,.45-.81,.48-.36,2.25-.57,4.95-.57,7.47,0,1.11,.06,2.19,.12,3.15,.36,5.1,2.43,8.19,4.74,8.16,1.2,0,2.76-3.06,3.84-6.42,.42,.42,1.23,.99,1.74,1.29-1.38,4.05-3.12,7.35-5.61,7.41-3.81,.06-6.45-4.56-6.87-10.32-.09-1.14-.12-2.4-.12-3.75,0-2.64,.15-5.52,.45-8.07l3.09,.6Zm19.89,13.95c-.84-5.25-3.51-9.03-7.56-11.28l1.32-1.62c4.38,2.34,7.59,6.66,8.46,12.21l-2.22,.69Z"/></g><g><polyline class="bo" points="38.45 266.54 38.45 247.16 146.71 247.16 146.71 266.54 38.45 266.54"/><polygon class="bl" points="38.77 266.23 38.77 246.85 147.03 246.85 147.03 266.23 38.77 266.23"/><g><g class="bh"><polyline class="bo" points="164.97 229.66 164.97 249.04 146.71 266.73 146.71 247.16 39.1 247.16"/></g><g class="bu"><polyline class="bl" points="165.29 229.04 165.29 248.73 147.03 266.41 147.03 246.85 39.1 246.85"/></g><g class="ba"><line class="bl" x1="39.1" y1="229.35" x2="164.97" y2="229.35"/></g><g class="bi"><line class="bj" x1="146.88" y1="247.14" x2="165.27" y2="229.33"/></g><g class="bm"><line class="bl" x1="146.88" y1="247.14" x2="165.27" y2="229.33"/></g></g><polyline class="bo" points="146.71 246.54 146.71 168.41 38.45 168.41 38.45 246.54 146.71 246.54"/><polygon class="bl" points="146.38 246.85 146.38 168.73 38.12 168.73 38.12 246.85 146.38 246.85"/><g><g class="au"><polyline class="bo" points="146.71 245.9 164.97 228.4 164.97 150.91 58.1 150.91 39.84 168.41 146.71 168.41 146.71 245.91"/></g><g class="cb"><polygon class="bl" points="147.03 245.58 165.29 228.08 165.29 150.6 58.43 150.6 40.17 168.1 147.03 168.1 147.03 245.58"/></g></g><polyline class="bo" points="137.58 237.79 137.58 177.79 48.23 177.79 48.23 237.79 137.58 237.79"/><polygon class="bl" points="137.25 237.48 137.25 177.48 47.9 177.48 47.9 237.48 137.25 237.48"/><g><g class="bg"><line class="bj" x1="146.75" y1="168.39" x2="165.27" y2="150.71"/></g><g class="ao"><line class="bl" x1="146.75" y1="168.39" x2="165.27" y2="150.71"/></g></g><polyline class="bo" points="141.49 280.91 141.49 269.04 15.65 269.04 29.93 255.29 155.84 255.29 155.84 266.96 141.49 280.64"/><g class="bt"><polygon class="bl" points="141.16 280.96 141.16 269.35 15.32 269.35 29.61 255.6 155.51 255.6 155.51 267.27 141.16 280.96"/></g><polyline class="bo" points="141.49 269.04 141.49 280.29 16.92 280.29 16.92 269.04 141.49 269.04"/><g class="bn"><polygon class="bl" points="141.16 269.35 141.16 280.6 16.6 280.6 16.6 269.35 141.16 269.35"/></g><line class="bj" x1="141.53" y1="269.21" x2="155.75" y2="255.58"/><line class="bl" x1="141.53" y1="269.21" x2="155.75" y2="255.58"/></g><g id="m"><g class="br"><g class="bp"><path class="bo" d="M749.28,211.46c0,15.94-33.24,28.87-74.24,28.87s-74.24-12.93-74.24-28.87v42.29c0,15.94,33.24,28.87,74.24,28.87s74.24-12.93,74.24-28.87v-42.29Z"/></g><g class="ay"><path class="bk" d="M749.28,211.46c0,15.94-33.24,28.87-74.24,28.87s-74.24-12.93-74.24-28.87v42.29c0,15.94,33.24,28.87,74.24,28.87s74.24-12.93,74.24-28.87v-42.29Z"/></g><g class="bs"><path class="bo" d="M675.05,240.32c41,0,74.24-12.93,74.24-28.87s-33.24-28.87-74.24-28.87-74.24,12.92-74.24,28.87,33.24,28.87,74.24,28.87"/></g><g class="aw"><ellipse class="bk" cx="675.05" cy="211.46" rx="74.24" ry="28.87"/></g><g class="bz"><polygon class="an" points="658.09 200.17 664.22 209.36 641.04 214.72 646.11 210.5 610.29 204.38 619.27 197.64 653.84 203.5 658.09 200.17"/><polygon class="an" points="690.71 222.46 686.52 212.98 707.43 208.81 703.8 212.05 738.65 218.01 730.29 224.7 695.65 218.19 690.71 222.46"/><polygon class="an" points="679.27 195.14 702.69 188.74 702.97 198.77 697.11 197.66 685.69 207.13 674.78 205.54 686.58 196.27 679.27 195.14"/><polygon class="an" points="669.24 231.11 646.94 235.29 646.11 224.98 652.51 226.37 664.79 215.89 675.65 217.72 662.55 229.15 669.24 231.11"/></g></g></g><g id="t"><g class="bv"><g class="be"><path class="bo" d="M437.28,211.46c0,15.94-33.24,28.87-74.24,28.87s-74.24-12.93-74.24-28.87v42.29c0,15.94,33.24,28.87,74.24,28.87s74.24-12.93,74.24-28.87v-42.29Z"/></g><g class="cd"><path class="bk" d="M437.28,211.46c0,15.94-33.24,28.87-74.24,28.87s-74.24-12.93-74.24-28.87v42.29c0,15.94,33.24,28.87,74.24,28.87s74.24-12.93,74.24-28.87v-42.29Z"/></g><g class="bf"><path class="bo" d="M363.05,240.32c41,0,74.24-12.93,74.24-28.87s-33.24-28.87-74.24-28.87-74.24,12.92-74.24,28.87,33.24,28.87,74.24,28.87"/></g><g class="cc"><ellipse class="bk" cx="363.05" cy="211.46" rx="74.24" ry="28.87"/></g><g class="av"><polygon class="an" points="346.09 200.17 352.22 209.36 329.04 214.72 334.11 210.5 298.29 204.38 307.27 197.64 341.84 203.5 346.09 200.17"/><polygon class="an" points="378.71 222.46 374.52 212.98 395.43 208.81 391.8 212.05 426.65 218.01 418.29 224.7 383.65 218.19 378.71 222.46"/><polygon class="an" points="367.27 195.14 390.69 188.74 390.97 198.77 385.11 197.66 373.69 207.13 362.78 205.54 374.58 196.27 367.27 195.14"/><polygon class="an" points="357.24 231.11 334.94 235.29 334.11 224.98 340.51 226.37 352.79 215.89 363.65 217.72 350.55 229.15 357.24 231.11"/></g></g></g><g><polyline class="bo" points="884.31 266.54 884.31 247.16 992.57 247.16 992.57 266.54 884.31 266.54"/><polygon class="bl" points="884.64 266.23 884.64 246.85 992.9 246.85 992.9 266.23 884.64 266.23"/><g><g class="bd"><polyline class="bo" points="1010.83 229.66 1010.83 249.04 992.57 266.73 992.57 247.16 884.96 247.16"/></g><g class="bb"><polyline class="bl" points="1011.16 229.04 1011.16 248.73 992.9 266.41 992.9 246.85 884.96 246.85"/></g><g class="bc"><line class="bl" x1="884.96" y1="229.35" x2="1010.83" y2="229.35"/></g><g class="al"><line class="bj" x1="992.75" y1="247.14" x2="1011.14" y2="229.33"/></g><g class="bx"><line class="bl" x1="992.75" y1="247.14" x2="1011.14" y2="229.33"/></g></g><polyline class="bo" points="992.57 246.54 992.57 168.41 884.31 168.41 884.31 246.54 992.57 246.54"/><polygon class="bl" points="992.25 246.85 992.25 168.73 883.99 168.73 883.99 246.85 992.25 246.85"/><g><g class="bq"><polyline class="bo" points="992.57 245.9 1010.83 228.4 1010.83 150.91 903.97 150.91 885.71 168.41 992.57 168.41 992.57 245.91"/></g><g class="ca"><polygon class="bl" points="992.9 245.58 1011.16 228.08 1011.16 150.6 904.29 150.6 886.03 168.1 992.9 168.1 992.9 245.58"/></g></g><polyline class="bo" points="983.44 237.79 983.44 177.79 894.09 177.79 894.09 237.79 983.44 237.79"/><polygon class="bl" points="983.12 237.48 983.12 177.48 893.77 177.48 893.77 237.48 983.12 237.48"/><g><g class="by"><line class="bj" x1="992.62" y1="168.39" x2="1011.14" y2="150.71"/></g><g class="am"><line class="bl" x1="992.62" y1="168.39" x2="1011.14" y2="150.71"/></g></g><polyline class="bo" points="987.35 280.91 987.35 269.04 861.52 269.04 875.8 255.29 1001.7 255.29 1001.7 266.96 987.35 280.64"/><g class="az"><polygon class="bl" points="987.03 280.96 987.03 269.35 861.19 269.35 875.47 255.6 1001.38 255.6 1001.38 267.27 987.03 280.96"/></g><polyline class="bo" points="987.35 269.04 987.35 280.29 862.79 280.29 862.79 269.04 987.35 269.04"/><g class="bw"><polygon class="bl" points="987.03 269.35 987.03 280.6 862.46 280.6 862.46 269.35 987.03 269.35"/></g><line class="bj" x1="987.4" y1="269.21" x2="1001.62" y2="255.58"/><line class="bl" x1="987.4" y1="269.21" x2="1001.62" y2="255.58"/></g><g class="ax"><path d="M55.3,301.19c-1.29,3.28-3.14,6.22-5.29,8.32l-1.62-1.06c2.02-1.93,3.95-4.62,5.07-7.92l1.85,.67Zm5.96-4.37v13.33c0,3.14-2.46,3.11-6.64,3.05-.11-.5-.34-1.29-.62-1.85,.64,.03,3.78,0,4.09,0,.78,0,1.15-.5,1.15-1.18v-13.36h-9.52v-1.88h9.52v-5.74l2.66,.14c-.03,.28-.22,.5-.64,.53v5.07h9.46v1.88h-9.46Zm5.01,3.53c2.04,2.27,4.4,5.54,5.91,8.15l-1.79,1.04c-1.37-2.58-3.84-6.16-5.71-8.29l1.6-.9Z"/><path d="M94.7,291.89c-.06,.14-.2,.25-.36,.31-1.51,3.56-3.3,6.64-5.6,9.63,3.05,2.44,7.64,6.61,10.25,9.49l-1.71,1.48c-2.46-2.86-6.97-7.11-9.83-9.41-2.46,3-6.72,7.08-10.78,9.41-.31-.42-.98-1.12-1.46-1.51,7.76-4.26,13.89-12.21,16.41-18.28h-13.75v-1.9h14.84l.36-.14,1.62,.92Z"/><path d="M118.56,303.9c-2.86-1.54-6.78-3.36-9.83-4.56v14h-2.1v-24.33l2.83,.17c-.03,.31-.25,.5-.73,.59v8.18l.42-.59c3.28,1.2,7.62,3.14,10.53,4.68l-1.12,1.88Z"/><path d="M140.34,311.85h-2.46l-2.3-6.92h-7.42l-2.24,6.92h-2.38l7.06-21.34h2.69l7.06,21.34Zm-5.24-8.76l-2.1-6.33c-.45-1.46-.81-2.8-1.09-4.06h-.08c-.28,1.29-.67,2.63-1.06,3.98l-2.13,6.41h6.47Z"/></g><g class="ax"><path d="M894.37,302.19c-1.29,3.28-3.14,6.22-5.29,8.32l-1.62-1.06c2.02-1.93,3.95-4.62,5.07-7.92l1.85,.67Zm5.96-4.37v13.33c0,3.14-2.46,3.11-6.64,3.05-.11-.5-.34-1.29-.62-1.85,.64,.03,3.78,0,4.09,0,.78,0,1.15-.5,1.15-1.18v-13.36h-9.52v-1.88h9.52v-5.74l2.66,.14c-.03,.28-.22,.5-.64,.53v5.07h9.46v1.88h-9.46Zm5.01,3.53c2.04,2.27,4.4,5.54,5.91,8.15l-1.79,1.04c-1.37-2.58-3.84-6.16-5.71-8.29l1.6-.9Z"/><path d="M933.76,292.89c-.06,.14-.2,.25-.36,.31-1.51,3.56-3.3,6.64-5.6,9.63,3.05,2.44,7.64,6.61,10.25,9.49l-1.71,1.48c-2.46-2.86-6.97-7.11-9.83-9.41-2.46,3-6.72,7.08-10.78,9.41-.31-.42-.98-1.12-1.46-1.51,7.76-4.26,13.89-12.21,16.41-18.28h-13.75v-1.9h14.84l.36-.14,1.62,.92Z"/><path d="M957.62,304.9c-2.86-1.54-6.78-3.36-9.83-4.56v14h-2.1v-24.33l2.83,.17c-.03,.31-.25,.5-.73,.59v8.18l.42-.59c3.28,1.2,7.62,3.14,10.53,4.68l-1.12,1.88Z"/><path d="M972.35,301.43c2.02,.48,4.4,2.16,4.4,5.38,0,1.9-.73,3.25-1.71,4.2-1.43,1.4-3.72,2.02-6.94,2.02-1.76,0-3.08-.14-3.95-.22v-20.97c1.18-.25,2.86-.45,4.59-.45,2.63,0,4.37,.5,5.63,1.57,1.01,.87,1.6,2.1,1.6,3.7,0,2.1-1.43,3.92-3.61,4.7v.08Zm-3.39-.78c2.83,0,4.65-1.62,4.65-3.81v-.03c0-2.52-1.85-3.61-4.76-3.61-1.23,0-1.96,.08-2.38,.2v7.25h2.49Zm-2.49,10.39c.53,.11,1.29,.14,2.27,.14,2.94,0,5.57-1.15,5.57-4.37s-2.77-4.37-5.6-4.37h-2.24v8.6Z"/></g><g class="ax"><path d="M321.59,294.4c-.03,.25-.28,.42-.64,.48-.17,7.53-.78,14.39-5.1,19.4-.45-.34-1.12-.76-1.68-1.06,4.17-4.54,4.68-11.54,4.76-19.07l2.66,.25Zm7.25,16.13c4.68-2.27,7.7-6.36,9.32-11.26,.42,.36,1.26,.84,1.74,1.09-1.99,5.66-5.46,9.83-11.42,12.66-.08,.22-.28,.45-.48,.56l-1.46-1.85,.31-.42v-20.55l2.6,.14c-.03,.25-.22,.48-.62,.53v19.1Z"/><path d="M343.17,300.73h23.38v1.99h-22.32c-.17,.28-.53,.48-.9,.53l-.17-2.52Z"/><path d="M390.61,294.74c-.03,.14-.17,.25-.34,.31-1.04,3.47-2.44,6.66-4.12,9.27,1.21,.7,2.58,1.57,3.61,2.32l-1.18,1.85c-1.01-.78-2.44-1.71-3.61-2.44-2.58,3.58-5.88,6.47-10.11,8.51-.31-.48-1.04-1.15-1.54-1.46,4.09-1.9,7.36-4.73,9.91-8.06-2.07-1.15-4.12-2.13-6.19-2.91l1.06-1.57c2.04,.73,4.14,1.68,6.3,2.83,1.46-2.3,2.6-4.73,3.39-7.42h-9.49c-1.71,2.86-4,5.68-6.47,7.7-.36-.34-1.12-.95-1.6-1.26,3.67-2.8,7.14-7.84,8.82-12.63l2.66,.62c-.11,.31-.39,.39-.76,.36-.39,.92-1.04,2.3-1.57,3.33h9.3l.39-.11,1.51,.76Z"/><path d="M411.58,312.85h-2.46l-2.3-6.92h-7.42l-2.24,6.92h-2.38l7.06-21.34h2.69l7.06,21.34Zm-5.24-8.76l-2.1-6.33c-.45-1.46-.81-2.8-1.09-4.06h-.08c-.28,1.29-.67,2.63-1.06,3.98l-2.13,6.41h6.47Z"/></g><g class="ax"><path d="M640.65,294.4c-.03,.25-.28,.42-.64,.48-.17,7.53-.78,14.39-5.1,19.4-.45-.34-1.12-.76-1.68-1.06,4.17-4.54,4.68-11.54,4.76-19.07l2.66,.25Zm7.25,16.13c4.68-2.27,7.7-6.36,9.32-11.26,.42,.36,1.26,.84,1.74,1.09-1.99,5.66-5.46,9.83-11.42,12.66-.08,.22-.28,.45-.48,.56l-1.46-1.85,.31-.42v-20.55l2.6,.14c-.03,.25-.22,.48-.62,.53v19.1Z"/><path d="M662.24,300.73h23.38v1.99h-22.32c-.17,.28-.53,.48-.9,.53l-.17-2.52Z"/><path d="M709.67,294.74c-.03,.14-.17,.25-.34,.31-1.04,3.47-2.44,6.66-4.12,9.27,1.21,.7,2.58,1.57,3.61,2.32l-1.18,1.85c-1.01-.78-2.44-1.71-3.61-2.44-2.58,3.58-5.88,6.47-10.11,8.51-.31-.48-1.04-1.15-1.54-1.46,4.09-1.9,7.36-4.73,9.91-8.06-2.07-1.15-4.12-2.13-6.19-2.91l1.06-1.57c2.04,.73,4.14,1.68,6.3,2.83,1.46-2.3,2.6-4.73,3.39-7.42h-9.49c-1.71,2.86-4,5.68-6.47,7.7-.36-.34-1.12-.95-1.6-1.26,3.67-2.8,7.14-7.84,8.82-12.63l2.66,.62c-.11,.31-.39,.39-.76,.36-.39,.92-1.04,2.3-1.57,3.33h9.3l.39-.11,1.51,.76Z"/><path d="M723.59,301.43c2.02,.48,4.4,2.16,4.4,5.38,0,1.9-.73,3.25-1.71,4.2-1.43,1.4-3.72,2.02-6.94,2.02-1.76,0-3.08-.14-3.95-.22v-20.97c1.18-.25,2.86-.45,4.59-.45,2.63,0,4.37,.5,5.63,1.57,1.01,.87,1.6,2.1,1.6,3.7,0,2.1-1.43,3.92-3.61,4.7v.08Zm-3.39-.78c2.83,0,4.65-1.62,4.65-3.81v-.03c0-2.52-1.85-3.61-4.76-3.61-1.23,0-1.96,.08-2.38,.2v7.25h2.49Zm-2.49,10.39c.53,.11,1.29,.14,2.27,.14,2.94,0,5.57-1.15,5.57-4.37s-2.77-4.37-5.6-4.37h-2.24v8.6Z"/></g><line class="as" x1="164.5" y1="220.5" x2="288" y2="220"/><line class="as" x1="438.5" y1="220.5" x2="600.5" y2="219.5"/><line class="as" x1="745.37" y1="223.53" x2="791.5" y2="223.5"/><line class="as" x1="838.51" y1="223.5" x2="886.19" y2="223.27"/><path class="ap" d="M233.45,168.47v12.2h-19.39c-.23,0-.36,.45-.36,1.06v20.61c0,.57,.18,1.06,.36,1.06h19.39v12.2l13.69-12.2h.27c.14,0,.27-.23,.32-.53l12.16-10.84-12.16-10.84c-.05-.3-.18-.53-.32-.53h-.27l-13.69-12.2Z"/><path class="ap" d="M516.2,164.72v12.2h-19.39c-.23,0-.36,.45-.36,1.06v20.61c0,.57,.18,1.06,.36,1.06h19.39v12.2l13.69-12.2h.27c.14,0,.27-.23,.32-.53l12.16-10.84-12.16-10.84c-.05-.3-.18-.53-.32-.53h-.27l-13.69-12.2Z"/><path class="ap" d="M812.2,164.72v12.2h-19.39c-.23,0-.36,.45-.36,1.06v20.61c0,.57,.18,1.06,.36,1.06h19.39v12.2l13.69-12.2h.27c.14,0,.27-.23,.32-.53l12.16-10.84-12.16-10.84c-.05-.3-.18-.53-.32-.53h-.27l-13.69-12.2Z"/><g class="ax"><path d="M39.64,509.82c-.09,.15-.27,.24-.54,.27-1.92,2.4-4.5,4.98-7.26,7.11l.48,.12c-.06,.15-.27,.39-.66,.42v11.43h-2.13v-10.41c-3.06,2.1-7.02,4.23-10.71,5.7-.15-.21-1.14-1.44-1.38-1.68,7.26-2.7,14.16-7.17,18.27-11.97h-15.18v-1.95h17.19l.33-.21,1.59,1.17Zm-4.95-2.34c-2.61-1.38-6.69-2.73-9.87-3.63l.99-1.74c3.21,.78,7.26,2.22,9.99,3.54l-1.11,1.83Zm.21,9.63c3,1.56,6.6,3.81,8.76,5.52l-1.53,1.62c-2.01-1.68-5.73-4.11-8.61-5.64l1.38-1.5Z"/><path d="M49.75,510.84c.9,1.83,1.89,4.71,2.25,6.45l-1.68,.45c-.36-1.74-1.29-4.47-2.19-6.39l1.62-.51Zm17.91,.21c-.06,.27-.36,.33-.63,.3-2.34,8.76-6.75,14.13-14.01,17.07-.24-.36-.78-1.05-1.17-1.38,7.17-2.82,11.28-7.74,13.47-16.68l2.34,.69Zm-10.62-1.65c.63,2.01,1.2,4.89,1.41,6.81l-1.77,.33c-.18-1.92-.75-4.68-1.41-6.75l1.77-.39Z"/><path d="M89.53,518.76c-3.06-1.65-7.26-3.6-10.53-4.89v15h-2.25v-26.07l3.03,.18c-.03,.33-.27,.54-.78,.63v8.76l.45-.63c3.51,1.29,8.16,3.36,11.28,5.01l-1.2,2.01Z"/><path d="M118.93,506.13c-.09,.12-.24,.24-.39,.3-1.17,11.73-5.16,18.03-15.18,22.08-.39-.51-.99-1.17-1.5-1.62,9.57-3.9,13.32-9.6,14.31-19.44h-17.13v8.28h-2.07v-10.32h19.89l.33-.24,1.74,.96Z"/><path d="M123.58,514.29h25.05v2.13h-23.91c-.18,.3-.57,.51-.96,.57l-.18-2.7Z"/><path d="M174.34,508.5c-.12,.15-.27,.3-.45,.42-3.15,9.72-8.07,15.96-16.35,20.16-.36-.51-.93-1.2-1.53-1.65,7.86-3.81,12.72-9.81,15.21-17.76h-10.71c-1.74,2.7-4.05,5.31-6.72,7.41-.42-.42-1.11-.99-1.71-1.38,4.08-3.15,7.53-7.74,9.57-13.02l2.85,.81c-.12,.3-.48,.39-.87,.39-.6,1.32-1.23,2.58-1.92,3.78h10.56l.36-.18,1.71,1.02Z"/></g><g class="ax"><path d="M40.01,415.16h-9.9l.51,.15c-.03,.18-.27,.33-.6,.36-.78,5.43-3.24,10.83-9.27,13.86-.33-.39-1.11-1.08-1.62-1.47,5.91-2.94,7.98-7.5,8.67-12.9h-11.46v-2.01h23.67v2.01Zm-4.41-8.19H18.95v-2.01h16.65v2.01Zm.39-4.41c1.23,1.29,2.61,3.33,3.3,4.74l-1.2,.81c-.63-1.38-2.07-3.51-3.27-4.74l1.17-.81Zm3.54-1.02c1.23,1.29,2.67,3.33,3.39,4.71l-1.23,.75c-.63-1.32-2.13-3.45-3.3-4.68l1.14-.78Z"/><path d="M45.05,414.86h25.05v2.13h-23.91c-.18,.3-.57,.51-.96,.57l-.18-2.7Z"/><path d="M95.87,408.44c-.03,.15-.18,.27-.36,.33-1.11,3.72-2.61,7.14-4.41,9.93,1.29,.75,2.76,1.68,3.87,2.49l-1.26,1.98c-1.08-.84-2.61-1.83-3.87-2.61-2.76,3.84-6.3,6.93-10.83,9.12-.33-.51-1.11-1.23-1.65-1.56,4.38-2.04,7.89-5.07,10.62-8.64-2.22-1.23-4.41-2.28-6.63-3.12l1.14-1.68c2.19,.78,4.44,1.8,6.75,3.03,1.56-2.46,2.79-5.07,3.63-7.95h-10.17c-1.83,3.06-4.29,6.09-6.93,8.25-.39-.36-1.2-1.02-1.71-1.35,3.93-3,7.65-8.4,9.45-13.53l2.85,.66c-.12,.33-.42,.42-.81,.39-.42,.99-1.11,2.46-1.68,3.57h9.96l.42-.12,1.62,.81Z"/><path d="M103.64,419.96v-14.58l2.85,.18c-.03,.27-.24,.48-.72,.54v13.86h-2.13Zm16.71-15.75c-.03,.3-.24,.45-.72,.51v9.54c0,6.3-2.16,12.06-10.77,15.39-.3-.45-1.05-1.23-1.56-1.62,8.31-3.09,10.17-8.22,10.17-13.77v-10.23l2.88,.18Z"/><path d="M127.19,405.8c3.12,.99,6.72,2.55,8.94,4.08l-1.14,1.89c-2.16-1.53-5.7-3.12-8.76-4.17l.96-1.8Zm-.12,20.79c10.65-3.3,17.73-9.27,21.33-17.58,.63,.51,1.32,.9,1.95,1.23-3.75,8.22-11.07,14.61-21.24,18-.03,.27-.21,.57-.42,.69l-1.62-2.34Z"/><path d="M174.71,409.07c-.12,.15-.27,.3-.45,.42-3.15,9.72-8.07,15.96-16.35,20.16-.36-.51-.93-1.2-1.53-1.65,7.86-3.81,12.72-9.81,15.21-17.76h-10.71c-1.74,2.7-4.05,5.31-6.72,7.41-.42-.42-1.11-.99-1.71-1.38,4.08-3.15,7.53-7.74,9.57-13.02l2.85,.81c-.12,.3-.48,.39-.87,.39-.6,1.32-1.23,2.58-1.92,3.78h10.56l.36-.18,1.71,1.02Z"/></g><line class="as" x1="178.5" y1="419.5" x2="362.5" y2="418.5"/><line class="as" x1="178.97" y1="442.03" x2="178.94" y2="395.9"/><line class="as" x1="362.97" y1="444.03" x2="362.94" y2="397.9"/><line class="as" x1="418.97" y1="444.03" x2="418.94" y2="397.9"/><line class="as" x1="607.97" y1="444.03" x2="607.94" y2="397.9"/><line class="as" x1="421.5" y1="421.5" x2="607.5" y2="420.5"/><line class="as" x1="707.5" y1="421.5" x2="893.5" y2="420.5"/><line class="as" x1="703.97" y1="444.03" x2="703.94" y2="397.9"/><line class="as" x1="893.97" y1="444.03" x2="893.94" y2="397.9"/><line class="as" x1="183.97" y1="547.03" x2="183.94" y2="500.9"/><line class="as" x1="894" y1="552.03" x2="893.97" y2="505.9"/><line class="as" x1="185.2" y1="524.22" x2="892.5" y2="524.5"/><g class="ax"><path d="M217.83,365.6c-.11,.14-.28,.22-.53,.22-.08,0-.17,0-.28-.03-2.16,2.18-5.26,4.73-7.98,6.69,.22,.08,.56,.25,.67,.31-.06,.17-.31,.34-.62,.36v15.04h-2.04v-14.39c-2.97,2.1-6.83,4.37-10.67,6.24-.28-.45-.78-1.15-1.18-1.54,7.64-3.53,16.02-9.52,20.52-14.48l2.1,1.57Z"/><path d="M221.52,374.53h23.38v1.99h-22.32c-.17,.28-.53,.48-.9,.53l-.17-2.52Z"/><path d="M272.96,372.2h-5.85v1.93c0,5.35-1.65,10.78-8.96,14.08-.36-.45-.95-1.01-1.46-1.4,7.11-3.08,8.43-8.06,8.43-12.66v-1.96h-9.04v6.97h-1.99v-6.97h-5.49v-1.9h5.49v-6.08l2.69,.17c-.03,.28-.28,.53-.7,.59v5.32h9.04v-6.44l2.69,.17c-.03,.25-.25,.48-.7,.53v5.74h5.85v1.9Z"/><path d="M296.9,370.36c-.08,.14-.25,.22-.5,.25-1.79,2.24-4.2,4.65-6.78,6.64l.45,.11c-.06,.14-.25,.36-.62,.39v10.67h-1.99v-9.72c-2.86,1.96-6.55,3.95-10,5.32-.14-.2-1.06-1.34-1.29-1.57,6.78-2.52,13.22-6.69,17.05-11.17h-14.17v-1.82h16.04l.31-.2,1.48,1.09Zm-4.62-2.18c-2.44-1.29-6.24-2.55-9.21-3.39l.92-1.62c3,.73,6.78,2.07,9.32,3.3l-1.04,1.71Zm.2,8.99c2.8,1.46,6.16,3.56,8.18,5.15l-1.43,1.51c-1.88-1.57-5.35-3.84-8.04-5.26l1.29-1.4Z"/><path d="M306.33,371.31c.84,1.71,1.76,4.4,2.1,6.02l-1.57,.42c-.34-1.62-1.2-4.17-2.04-5.96l1.51-.48Zm16.72,.2c-.06,.25-.34,.31-.59,.28-2.18,8.18-6.3,13.19-13.08,15.93-.22-.34-.73-.98-1.09-1.29,6.69-2.63,10.53-7.22,12.57-15.57l2.18,.64Zm-9.91-1.54c.59,1.88,1.12,4.56,1.32,6.36l-1.65,.31c-.17-1.79-.7-4.37-1.32-6.3l1.65-.36Z"/><path d="M343.46,378.7c-2.86-1.54-6.78-3.36-9.83-4.56v14h-2.1v-24.33l2.83,.17c-.03,.31-.25,.5-.73,.59v8.18l.42-.59c3.28,1.2,7.62,3.14,10.53,4.68l-1.12,1.88Z"/></g><g class="ax"><path d="M461.72,364.49c-.11,.14-.28,.22-.53,.22-.08,0-.17,0-.28-.03-2.16,2.18-5.26,4.73-7.98,6.69,.22,.08,.56,.25,.67,.31-.06,.17-.31,.34-.62,.36v15.04h-2.04v-14.39c-2.97,2.1-6.83,4.37-10.67,6.24-.28-.45-.78-1.15-1.18-1.54,7.64-3.53,16.02-9.52,20.52-14.48l2.1,1.57Z"/><path d="M465.41,373.42h23.38v1.99h-22.32c-.17,.28-.53,.48-.9,.53l-.17-2.52Z"/><path d="M516.85,371.09h-5.85v1.93c0,5.35-1.65,10.78-8.96,14.08-.36-.45-.95-1.01-1.46-1.4,7.11-3.08,8.43-8.06,8.43-12.66v-1.96h-9.04v6.97h-1.99v-6.97h-5.49v-1.9h5.49v-6.08l2.69,.17c-.03,.28-.28,.53-.7,.59v5.32h9.04v-6.44l2.69,.17c-.03,.25-.25,.48-.7,.53v5.74h5.85v1.9Z"/><path d="M540.79,369.25c-.08,.14-.25,.22-.5,.25-1.79,2.24-4.2,4.65-6.78,6.64l.45,.11c-.06,.14-.25,.36-.62,.39v10.67h-1.99v-9.72c-2.86,1.96-6.55,3.95-10,5.32-.14-.2-1.06-1.34-1.29-1.57,6.78-2.52,13.22-6.69,17.05-11.17h-14.17v-1.82h16.04l.31-.2,1.48,1.09Zm-4.62-2.18c-2.44-1.29-6.24-2.55-9.21-3.39l.92-1.62c3,.73,6.78,2.07,9.32,3.3l-1.04,1.71Zm.2,8.99c2.8,1.46,6.16,3.56,8.18,5.15l-1.43,1.51c-1.88-1.57-5.35-3.84-8.04-5.26l1.29-1.4Z"/><path d="M550.23,370.2c.84,1.71,1.76,4.4,2.1,6.02l-1.57,.42c-.34-1.62-1.2-4.17-2.04-5.96l1.51-.48Zm16.72,.2c-.06,.25-.34,.31-.59,.28-2.18,8.18-6.3,13.19-13.08,15.93-.22-.34-.73-.98-1.09-1.29,6.69-2.63,10.53-7.22,12.57-15.57l2.18,.64Zm-9.91-1.54c.59,1.88,1.12,4.56,1.32,6.36l-1.65,.31c-.17-1.79-.7-4.37-1.32-6.3l1.65-.36Z"/><path d="M587.35,377.59c-2.86-1.54-6.78-3.36-9.83-4.56v14h-2.1v-24.33l2.83,.17c-.03,.31-.25,.5-.73,.59v8.18l.42-.59c3.28,1.2,7.62,3.14,10.53,4.68l-1.12,1.88Z"/></g><g class="ax"><path d="M734.65,338.21h2.32v21.34h-2.32v-21.34Z"/><path d="M753.02,359.54h-11.26v-21.34h10.78v1.96h-8.46v7.22h7.95v1.93h-7.95v8.26h8.93v1.96Z"/><path d="M767.72,359.54h-11.26v-21.34h10.78v1.96h-8.46v7.22h7.95v1.93h-7.95v8.26h8.93v1.96Z"/><path d="M782.42,359.54h-11.26v-21.34h10.78v1.96h-8.46v7.22h7.95v1.93h-7.95v8.26h8.93v1.96Z"/><path d="M788.75,348.43c-2.27-1.09-3.28-2.94-3.28-4.73,0-3.25,2.55-5.46,5.94-5.46,3.81,0,5.63,2.58,5.63,5.1,0,1.79-.95,3.75-3.44,4.96v.11c2.58,1.09,4.17,2.97,4.17,5.49,0,3.56-2.91,5.99-6.61,5.99-4,0-6.47-2.55-6.47-5.57,0-2.72,1.62-4.68,4.06-5.77v-.11Zm6.63,5.71c0-2.63-1.76-3.98-4.54-4.87-2.46,.81-3.78,2.6-3.78,4.68,0,2.38,1.6,4.2,4.12,4.2,2.69,0,4.2-1.82,4.2-4Zm-7.7-10.67c-.03,2.24,1.57,3.47,3.89,4.17,1.82-.7,3.19-2.13,3.19-4.12,0-1.76-.98-3.58-3.44-3.58s-3.64,1.71-3.64,3.53Z"/><path d="M800.03,349.13c0-7.34,2.86-10.89,6.78-10.89s6.41,3.75,6.41,10.61c0,7.28-2.55,11.03-6.72,11.03-3.81,0-6.47-3.75-6.47-10.75Zm10.84-.17c0-5.24-1.26-8.85-4.2-8.85-2.49,0-4.26,3.33-4.26,8.85s1.54,9.02,4.17,9.02c3.11,0,4.28-4.03,4.28-9.02Z"/><path d="M828.12,359.54h-12.4v-1.43l2.04-2.16c4.98-5.04,7.5-8.09,7.5-11.51,0-2.24-.98-4.31-4-4.31-1.68,0-3.19,.92-4.2,1.74l-.78-1.62c1.29-1.15,3.19-2.04,5.43-2.04,4.23,0,5.91,3.08,5.91,5.96,0,3.95-2.77,7.31-7.11,11.68l-1.65,1.74v.06h9.27v1.9Z"/><path d="M831.42,358.11c0-1.06,.7-1.82,1.68-1.82s1.65,.76,1.65,1.82c0,1.01-.64,1.76-1.68,1.76s-1.65-.84-1.65-1.76Z"/><path d="M843.15,359.54v-18.79h-.06l-3.44,1.99-.56-1.74,4.34-2.44h1.99v20.97h-2.27Z"/><path d="M858.58,359.54v-18.79h-.06l-3.44,1.99-.56-1.74,4.34-2.44h1.99v20.97h-2.27Z"/><path d="M771.08,369.62c-3.05,2.55-5.54,7.22-5.54,12.88s2.58,10.42,5.54,12.88v.14h-1.68c-2.83-2.55-5.35-7.25-5.35-13.02s2.52-10.47,5.35-13.02h1.68v.14Z"/><path d="M776.85,379.56v-4.06c-.9,1.04-1.88,1.99-2.83,2.77-.34-.36-.98-.9-1.4-1.18,2.3-1.74,4.65-4.65,6.05-7.62l2.21,.78c-.08,.17-.28,.28-.62,.22-.39,.78-.87,1.57-1.37,2.32h18.2v1.71h-3v5.04h4.09v1.71h-4.09v5.1h3.67v1.71h-24.47v-1.71h3.56v-5.1h-3.98v-1.71h3.98Zm1.18,10.3c-.73,2.1-2.04,4.34-3.61,5.68l-1.74-.76c1.51-1.18,2.86-3.33,3.58-5.4l1.76,.48Zm.56-15.34v5.04h3.36v-5.04h-3.36Zm0,6.75v5.1h3.36v-5.1h-3.36Zm3.19,14c-.03-1.32-.25-3.5-.59-5.18l1.71-.17c.39,1.65,.7,3.81,.73,5.07l-1.85,.28Zm5.32-20.75h-3.5v5.04h3.5v-5.04Zm0,6.75h-3.5v5.1h3.5v-5.1Zm1.65,14.03c-.25-1.34-1.01-3.56-1.76-5.21l1.76-.34c.78,1.62,1.57,3.81,1.85,5.12l-1.85,.42Zm3.58-15.74v-5.04h-3.58v5.04h3.58Zm0,6.8v-5.1h-3.58v5.1h3.58Zm4.28,9.21c-.7-1.51-2.35-3.95-3.78-5.68l1.74-.62c1.46,1.71,3.14,4.06,3.89,5.6l-1.85,.7Z"/><path d="M808.38,378.55c1.29,1.79,2.63,4.23,3.11,5.8l-1.51,.73c-.14-.5-.36-1.06-.64-1.68-.84,.06-1.68,.08-2.49,.14v11.98h-1.68v-11.9c-1.57,.06-2.97,.11-4.09,.17-.03,.2-.2,.31-.39,.36l-.5-2.1h1.96c.62-.76,1.26-1.62,1.93-2.58-.87-1.29-2.32-2.94-3.61-4.14l.98-1.2c.28,.25,.59,.53,.9,.84,.95-1.62,2.04-3.86,2.66-5.46l1.99,.84c-.08,.17-.28,.25-.59,.25-.73,1.57-1.96,3.86-3.02,5.43,.64,.67,1.23,1.37,1.68,1.99,1.2-1.82,2.32-3.72,3.14-5.32l1.96,.92c-.08,.14-.31,.25-.62,.25-1.43,2.38-3.67,5.71-5.63,8.15l4.73-.08c-.5-.95-1.06-1.93-1.65-2.77l1.4-.62Zm-4.31,7.62c-.08,.17-.25,.28-.56,.28-.39,2.38-1.04,5.07-1.88,6.72-.39-.25-1.01-.53-1.4-.73,.81-1.57,1.4-4.26,1.76-6.8l2.07,.53Zm5.24-.56c.81,1.65,1.6,3.78,1.88,5.21-.34,.11-.67,.25-1.57,.53-.22-1.43-.98-3.61-1.76-5.29l1.46-.45Zm6.55-.67l1.06,.48c-.03,.11-.11,.2-.2,.25-1.01,4.4-3.16,7.34-6.05,8.93-.25-.39-.84-1.06-1.2-1.32,2.44-1.23,4.31-3.44,5.26-6.64h-4.06v-1.62h4.87l.31-.08Zm3.47-2.58c0,1.26,1.04,3.67,1.65,4.87,1.34-1.06,2.86-2.46,3.78-3.53,1.37,1.04,1.6,1.18,1.79,1.34-.08,.14-.34,.2-.62,.14-1.06,.95-2.77,2.35-4.17,3.33,1.2,1.82,2.88,3.42,5.18,4.42-.34,.36-.9,1.09-1.15,1.57-3.28-1.71-5.26-4.56-6.47-7.36v6.27c0,1.9-.78,2.07-4.48,2.07-.06-.5-.31-1.18-.53-1.68,1.34,.03,2.49,.03,2.83,.03,.36-.03,.45-.11,.45-.42v-11.06h-5.6v-9.91h4.48c.48-.95,.95-2.13,1.23-2.97l2.35,.59c-.06,.17-.25,.28-.56,.28-.28,.59-.67,1.37-1.09,2.1h6.92v9.91h-5.99Zm-5.6-8.34v2.63h9.77v-2.63h-9.77Zm0,4.12v2.66h9.77v-2.66h-9.77Z"/><path d="M827.92,395.38c3.05-2.55,5.54-7.22,5.54-12.88s-2.58-10.42-5.54-12.88v-.14h1.68c2.86,2.55,5.35,7.25,5.35,13.02s-2.49,10.47-5.35,13.02h-1.68v-.14Z"/></g><g><rect class="aq" x="313.21" y="91.41" width="74.71" height="64.73"/><path class="aq" d="M387.85,91.63v64.29h-74.56V91.63h74.56m.15-.45h-74.86v65.18h74.86V91.19h0Z"/></g><g class="ax"><path d="M338.25,122.28h-7.09l.37,.11c-.02,.13-.19,.24-.43,.26-.56,3.89-2.32,7.76-6.64,9.93-.24-.28-.79-.77-1.16-1.05,4.23-2.11,5.71-5.37,6.21-9.24h-8.21v-1.44h16.95v1.44Zm-3.16-5.87h-11.92v-1.44h11.92v1.44Zm.28-3.16c.88,.92,1.87,2.38,2.36,3.39l-.86,.58c-.45-.99-1.48-2.51-2.34-3.39l.84-.58Zm2.54-.73c.88,.92,1.91,2.38,2.43,3.37l-.88,.54c-.45-.95-1.53-2.47-2.36-3.35l.82-.56Z"/><path d="M341.86,122.07h17.94v1.53h-17.12c-.13,.21-.41,.37-.69,.41l-.13-1.93Z"/><path d="M378.25,117.47c-.02,.11-.13,.19-.26,.24-.79,2.66-1.87,5.11-3.16,7.11,.92,.54,1.98,1.2,2.77,1.78l-.9,1.42c-.77-.6-1.87-1.31-2.77-1.87-1.98,2.75-4.51,4.96-7.76,6.53-.24-.37-.79-.88-1.18-1.12,3.14-1.46,5.65-3.63,7.61-6.19-1.59-.88-3.16-1.63-4.75-2.23l.82-1.2c1.57,.56,3.18,1.29,4.83,2.17,1.12-1.76,2-3.63,2.6-5.69h-7.28c-1.31,2.19-3.07,4.36-4.96,5.91-.28-.26-.86-.73-1.22-.97,2.81-2.15,5.48-6.02,6.77-9.69l2.04,.47c-.09,.24-.3,.3-.58,.28-.3,.71-.79,1.76-1.2,2.56h7.13l.3-.09,1.16,.58Z"/></g><g><rect class="ar" x="157.39" y="91.39" width="73.5" height="65.52"/><path class="ar" d="M230.81,91.61v65.07h-73.35V91.61h73.35m.15-.45h-73.64v65.97h73.64V91.16h0Z"/></g><g class="ax"><path d="M183.99,96.52c-.07,.09-.18,.14-.33,.14-.05,0-.11,0-.18-.02-1.36,1.38-3.32,2.98-5.03,4.21,.14,.05,.35,.16,.42,.19-.04,.11-.19,.21-.39,.23v9.47h-1.29v-9.07c-1.87,1.32-4.3,2.75-6.72,3.93-.18-.28-.49-.72-.74-.97,4.82-2.22,10.09-6,12.93-9.12l1.32,.99Z"/><path d="M186.32,102.15h14.73v1.25h-14.06c-.11,.18-.33,.3-.56,.33l-.11-1.59Z"/><path d="M218.73,100.68h-3.69v1.22c0,3.37-1.04,6.79-5.64,8.87-.23-.28-.6-.64-.92-.88,4.48-1.94,5.31-5.08,5.31-7.97v-1.23h-5.7v4.39h-1.25v-4.39h-3.46v-1.2h3.46v-3.83l1.69,.11c-.02,.18-.18,.34-.44,.37v3.35h5.7v-4.06l1.69,.11c-.02,.16-.16,.3-.44,.33v3.62h3.69v1.2Z"/><path d="M185.29,120.69c-.05,.09-.16,.14-.32,.16-1.13,1.41-2.65,2.93-4.27,4.18l.28,.07c-.04,.09-.16,.23-.39,.25v6.72h-1.25v-6.12c-1.8,1.23-4.13,2.49-6.3,3.35-.09-.12-.67-.85-.81-.99,4.27-1.59,8.33-4.22,10.74-7.04h-8.93v-1.15h10.11l.19-.12,.93,.69Zm-2.91-1.38c-1.54-.81-3.93-1.6-5.8-2.13l.58-1.02c1.89,.46,4.27,1.3,5.87,2.08l-.65,1.08Zm.12,5.66c1.76,.92,3.88,2.24,5.15,3.25l-.9,.95c-1.18-.99-3.37-2.42-5.06-3.32l.81-.88Z"/><path d="M191.24,121.29c.53,1.08,1.11,2.77,1.32,3.79l-.99,.26c-.21-1.02-.76-2.63-1.29-3.76l.95-.3Zm10.53,.12c-.04,.16-.21,.2-.37,.18-1.38,5.15-3.97,8.31-8.24,10.04-.14-.21-.46-.62-.69-.81,4.22-1.66,6.63-4.55,7.92-9.81l1.38,.41Zm-6.24-.97c.37,1.18,.71,2.88,.83,4l-1.04,.19c-.11-1.13-.44-2.75-.83-3.97l1.04-.23Z"/><path d="M214.63,125.95c-1.8-.97-4.27-2.12-6.19-2.88v8.82h-1.32v-15.33l1.78,.11c-.02,.19-.16,.32-.46,.37v5.15l.26-.37c2.06,.76,4.8,1.98,6.63,2.95l-.71,1.18Z"/><path d="M170.44,146.45c1.34-1.41,3.93-4.32,4.94-5.4,.58-.58,1.04-.87,1.57-.87,.6,0,1.01,.32,1.69,.94,2.08,1.89,5.57,5.75,8.33,9.21l-1.06,.97c-2.61-3.44-6.14-7.48-7.9-9.1-.42-.42-.67-.69-1.01-.69-.23,0-.53,.26-.92,.63-.83,.9-3.21,3.67-4.39,4.94,.02,.04,.02,.09,.02,.12,0,.14-.07,.28-.18,.37l-1.09-1.13Z"/><path d="M190.09,142.46c.53,1.08,1.11,2.77,1.32,3.79l-.99,.26c-.21-1.02-.76-2.63-1.29-3.76l.95-.3Zm10.53,.12c-.04,.16-.21,.19-.37,.18-1.38,5.15-3.97,8.31-8.24,10.04-.14-.21-.46-.62-.69-.81,4.22-1.66,6.63-4.55,7.92-9.81l1.38,.41Zm-6.24-.97c.37,1.18,.71,2.88,.83,4l-1.04,.19c-.11-1.13-.44-2.75-.83-3.97l1.04-.23Z"/><path d="M215.67,140.81c-.02,.11-.11,.14-.21,.19-.63,2.13-1.48,4.13-2.56,5.82,.76,.44,1.69,.99,2.35,1.45l-.74,1.15c-.63-.49-1.6-1.08-2.35-1.52-1.62,2.24-3.65,4.04-6.33,5.29-.18-.3-.63-.72-.95-.93,2.58-1.16,4.59-2.88,6.19-4.99-1.3-.72-2.66-1.38-3.95-1.85l.69-.97c1.29,.48,2.66,1.09,4,1.8,.9-1.38,1.64-3.07,2.12-4.67h-5.82c-1.13,1.9-2.52,3.63-3.97,4.81-.21-.21-.71-.6-.99-.79,2.29-1.76,4.32-4.85,5.38-7.87l1.64,.48c-.07,.19-.28,.25-.49,.23-.25,.63-.56,1.32-.9,1.96h5.71l.16-.05,1.02,.48Zm-1.62-3.51c.83,.65,1.82,1.71,2.35,2.47l-.67,.55c-.49-.71-1.54-1.85-2.31-2.47l.63-.55Zm2.26-.65c.83,.65,1.87,1.69,2.4,2.43l-.69,.53c-.48-.72-1.57-1.82-2.33-2.42l.62-.55Z"/></g><g><rect class="at" x="230.85" y="91.68" width="83.07" height="65.09"/><path class="at" d="M313.83,91.91v64.64h-82.9V91.91h82.9m.17-.45h-83.23v65.54h83.23V91.46h0Z"/></g><g class="ax"><path d="M264.47,98.51h2.07s.01,19.04,.01,19.04h-2.08s-.01-19.04-.01-19.04Z"/><path d="M270.82,98.75c1.1-.2,2.55-.38,4.32-.38,6.15,0,6.65,3.94,6.65,5.44,0,4.47-3.57,6.08-6.94,6.08-.72,0-1.37-.02-1.95-.17v7.82s-2.07,0-2.07,0v-18.79Zm2.07,9.25c.52,.15,1.2,.2,2,.2,3,0,4.82-1.5,4.82-4.23,0-2.72-1.95-3.92-4.55-3.92-1.05,0-1.83,.1-2.27,.2v7.75Z"/><path d="M238.84,139.52c1.9-2,5.57-6.13,6.99-7.65,.83-.83,1.47-1.23,2.22-1.23,.85,0,1.42,.45,2.4,1.32,2.95,2.67,7.9,8.14,11.8,13.04l-1.5,1.38c-3.7-4.87-8.71-10.59-11.21-12.89-.6-.6-.95-.97-1.42-.97-.33,0-.75,.37-1.3,.9-1.17,1.28-4.55,5.2-6.22,7,.03,.05,.03,.12,.03,.17,0,.2-.1,.4-.25,.53l-1.55-1.6Z"/><path d="M266.69,133.85c.75,1.52,1.58,3.92,1.88,5.37l-1.4,.38c-.3-1.45-1.08-3.72-1.83-5.32l1.35-.43Zm14.92,.17c-.05,.22-.3,.27-.52,.25-1.95,7.3-5.62,11.78-11.66,14.23-.2-.3-.65-.88-.98-1.15,5.97-2.35,9.39-6.45,11.21-13.9l1.95,.57Zm-8.85-1.37c.53,1.67,1,4.07,1.18,5.67l-1.47,.28c-.15-1.6-.63-3.9-1.18-5.62l1.47-.33Z"/><path d="M302.93,131.48c-.03,.15-.15,.2-.3,.27-.9,3.02-2.1,5.85-3.62,8.25,1.08,.62,2.4,1.4,3.33,2.05l-1.05,1.63c-.9-.7-2.28-1.52-3.32-2.15-2.3,3.17-5.17,5.73-8.97,7.5-.25-.42-.9-1.03-1.35-1.32,3.65-1.65,6.5-4.08,8.77-7.08-1.85-1.02-3.78-1.95-5.6-2.62l.97-1.38c1.83,.67,3.78,1.55,5.68,2.55,1.27-1.95,2.32-4.35,2.99-6.63h-8.25c-1.6,2.71-3.57,5.16-5.62,6.83-.3-.3-1-.85-1.4-1.12,3.25-2.5,6.12-6.88,7.62-11.15l2.32,.67c-.1,.27-.4,.35-.7,.33-.35,.9-.8,1.88-1.27,2.78h8.1s.23-.08,.23-.08l1.45,.67Zm-2.3-4.97c1.17,.92,2.58,2.42,3.33,3.5l-.95,.78c-.7-1-2.18-2.62-3.28-3.5l.9-.78Zm3.2-.93c1.17,.92,2.65,2.4,3.4,3.45l-.97,.75c-.67-1.02-2.23-2.57-3.3-3.42l.88-.78Z"/></g><g><rect class="aq" x="574.3" y="91.36" width="74.71" height="64.73"/><path class="aq" d="M648.94,91.59v64.29h-74.56V91.59h74.56m.15-.45h-74.86v65.18h74.86V91.14h0Z"/></g><g class="ax"><path d="M599.34,122.24h-7.09l.37,.11c-.02,.13-.19,.24-.43,.26-.56,3.89-2.32,7.76-6.64,9.93-.24-.28-.79-.77-1.16-1.05,4.23-2.11,5.71-5.37,6.21-9.24h-8.21v-1.44h16.95v1.44Zm-3.16-5.87h-11.92v-1.44h11.92v1.44Zm.28-3.16c.88,.92,1.87,2.38,2.36,3.39l-.86,.58c-.45-.99-1.48-2.51-2.34-3.39l.84-.58Zm2.54-.73c.88,.92,1.91,2.38,2.43,3.37l-.88,.54c-.45-.95-1.53-2.47-2.36-3.35l.82-.56Z"/><path d="M602.95,122.02h17.94v1.53h-17.12c-.13,.21-.41,.37-.69,.41l-.13-1.93Z"/><path d="M639.34,117.42c-.02,.11-.13,.19-.26,.24-.79,2.66-1.87,5.11-3.16,7.11,.92,.54,1.98,1.2,2.77,1.78l-.9,1.42c-.77-.6-1.87-1.31-2.77-1.87-1.98,2.75-4.51,4.96-7.76,6.53-.24-.37-.79-.88-1.18-1.12,3.14-1.46,5.65-3.63,7.61-6.19-1.59-.88-3.16-1.63-4.75-2.23l.82-1.2c1.57,.56,3.18,1.29,4.83,2.17,1.12-1.76,2-3.63,2.6-5.69h-7.28c-1.31,2.19-3.07,4.36-4.96,5.91-.28-.26-.86-.73-1.22-.97,2.81-2.15,5.48-6.02,6.77-9.69l2.04,.47c-.09,.24-.3,.3-.58,.28-.3,.71-.79,1.76-1.2,2.56h7.13l.3-.09,1.16,.58Z"/></g><g><rect class="ar" x="418.47" y="91.34" width="73.5" height="65.52"/><path class="ar" d="M491.9,91.57v65.07h-73.35V91.57h73.35m.15-.45h-73.64v65.97h73.64V91.12h0Z"/></g><g class="ax"><path d="M445.07,96.47c-.07,.09-.18,.14-.33,.14-.05,0-.11,0-.18-.02-1.36,1.38-3.32,2.98-5.03,4.22,.14,.05,.35,.16,.42,.19-.04,.11-.19,.21-.39,.23v9.47h-1.29v-9.07c-1.87,1.32-4.3,2.75-6.72,3.93-.18-.28-.49-.72-.74-.97,4.82-2.22,10.09-6,12.93-9.12l1.32,.99Z"/><path d="M447.41,102.1h14.73v1.25h-14.06c-.11,.18-.33,.3-.56,.33l-.11-1.59Z"/><path d="M479.81,100.64h-3.69v1.22c0,3.37-1.04,6.79-5.64,8.87-.23-.28-.6-.63-.92-.88,4.48-1.94,5.31-5.08,5.31-7.97v-1.23h-5.7v4.39h-1.25v-4.39h-3.46v-1.2h3.46v-3.83l1.69,.11c-.02,.18-.18,.33-.44,.37v3.35h5.7v-4.06l1.69,.11c-.02,.16-.16,.3-.44,.33v3.62h3.69v1.2Z"/><path d="M446.38,120.64c-.05,.09-.16,.14-.32,.16-1.13,1.41-2.65,2.93-4.27,4.18l.28,.07c-.04,.09-.16,.23-.39,.25v6.72h-1.25v-6.12c-1.8,1.23-4.13,2.49-6.3,3.35-.09-.12-.67-.85-.81-.99,4.27-1.59,8.33-4.22,10.74-7.04h-8.93v-1.15h10.11l.19-.12,.93,.69Zm-2.91-1.38c-1.54-.81-3.93-1.61-5.8-2.13l.58-1.02c1.89,.46,4.27,1.3,5.87,2.08l-.65,1.08Zm.12,5.66c1.76,.92,3.88,2.24,5.15,3.25l-.9,.95c-1.18-.99-3.37-2.42-5.06-3.32l.81-.88Z"/><path d="M452.33,121.24c.53,1.08,1.11,2.77,1.32,3.79l-.99,.26c-.21-1.02-.76-2.63-1.29-3.76l.95-.3Zm10.53,.12c-.04,.16-.21,.19-.37,.18-1.38,5.15-3.97,8.31-8.24,10.04-.14-.21-.46-.62-.69-.81,4.22-1.66,6.63-4.55,7.92-9.81l1.38,.41Zm-6.24-.97c.37,1.18,.71,2.88,.83,4l-1.04,.19c-.11-1.13-.44-2.75-.83-3.97l1.04-.23Z"/><path d="M475.72,125.9c-1.8-.97-4.27-2.12-6.19-2.88v8.82h-1.32v-15.33l1.78,.11c-.02,.19-.16,.32-.46,.37v5.15l.26-.37c2.06,.76,4.8,1.98,6.63,2.95l-.71,1.18Z"/><path d="M431.53,146.4c1.34-1.41,3.93-4.32,4.94-5.4,.58-.58,1.04-.87,1.57-.87,.6,0,1.01,.32,1.69,.94,2.08,1.89,5.57,5.75,8.33,9.21l-1.06,.97c-2.61-3.44-6.14-7.48-7.9-9.1-.42-.42-.67-.69-1.01-.69-.23,0-.53,.26-.92,.63-.83,.9-3.21,3.67-4.39,4.94,.02,.04,.02,.09,.02,.12,0,.14-.07,.28-.18,.37l-1.09-1.13Z"/><path d="M451.18,142.42c.53,1.08,1.11,2.77,1.32,3.79l-.99,.26c-.21-1.02-.76-2.63-1.29-3.76l.95-.3Zm10.53,.12c-.04,.16-.21,.19-.37,.18-1.38,5.15-3.97,8.31-8.24,10.04-.14-.21-.46-.62-.69-.81,4.22-1.66,6.63-4.55,7.92-9.81l1.38,.41Zm-6.24-.97c.37,1.18,.71,2.88,.83,4l-1.04,.19c-.11-1.13-.44-2.75-.83-3.97l1.04-.23Z"/><path d="M476.76,140.76c-.02,.11-.11,.14-.21,.19-.63,2.13-1.48,4.13-2.56,5.82,.76,.44,1.69,.99,2.35,1.45l-.74,1.15c-.63-.49-1.6-1.08-2.35-1.52-1.62,2.24-3.65,4.04-6.33,5.29-.18-.3-.63-.72-.95-.94,2.58-1.16,4.59-2.88,6.19-4.99-1.3-.72-2.66-1.38-3.95-1.85l.69-.97c1.29,.48,2.66,1.09,4,1.8,.9-1.38,1.64-3.07,2.12-4.67h-5.82c-1.13,1.91-2.52,3.63-3.97,4.82-.21-.21-.71-.6-.99-.79,2.29-1.76,4.32-4.85,5.38-7.87l1.64,.48c-.07,.19-.28,.25-.49,.23-.25,.63-.56,1.32-.9,1.96h5.71l.16-.05,1.02,.48Zm-1.62-3.51c.83,.65,1.82,1.71,2.35,2.47l-.67,.55c-.49-.71-1.54-1.85-2.31-2.47l.63-.55Zm2.26-.65c.83,.65,1.87,1.69,2.4,2.43l-.69,.53c-.48-.72-1.57-1.82-2.33-2.42l.62-.55Z"/></g><g><rect class="at" x="491.94" y="91.64" width="83.07" height="65.09"/><path class="at" d="M574.92,91.86v64.64h-82.9V91.86h82.9m.17-.45h-83.23v65.54h83.23V91.41h0Z"/></g><g class="ax"><path d="M525.55,98.46h2.07s.01,19.04,.01,19.04h-2.08s-.01-19.04-.01-19.04Z"/><path d="M531.91,98.71c1.1-.2,2.55-.38,4.32-.38,6.15,0,6.65,3.94,6.65,5.44,0,4.47-3.57,6.08-6.94,6.08-.72,0-1.37-.02-1.95-.17v7.82s-2.07,0-2.07,0v-18.79Zm2.07,9.24c.52,.15,1.2,.2,2,.2,3,0,4.82-1.5,4.82-4.23s-1.95-3.92-4.55-3.92c-1.05,0-1.83,.1-2.27,.2v7.75Z"/><path d="M499.93,139.47c1.9-2,5.57-6.13,6.99-7.65,.83-.83,1.47-1.23,2.22-1.23,.85,0,1.42,.45,2.4,1.32,2.95,2.67,7.9,8.14,11.8,13.04l-1.5,1.38c-3.7-4.87-8.71-10.59-11.21-12.89-.6-.6-.95-.97-1.42-.97-.33,0-.75,.38-1.3,.9-1.17,1.28-4.55,5.2-6.22,7,.03,.05,.03,.12,.03,.17,0,.2-.1,.4-.25,.53l-1.55-1.6Z"/><path d="M527.78,133.81c.75,1.52,1.58,3.92,1.88,5.37l-1.4,.38c-.3-1.45-1.08-3.72-1.83-5.32l1.35-.43Zm14.92,.17c-.05,.22-.3,.27-.52,.25-1.95,7.3-5.62,11.78-11.66,14.23-.2-.3-.65-.88-.98-1.15,5.97-2.35,9.39-6.45,11.21-13.9l1.95,.57Zm-8.85-1.37c.53,1.68,1,4.07,1.18,5.67l-1.47,.28c-.15-1.6-.63-3.9-1.18-5.62l1.47-.33Z"/><path d="M564.02,131.43c-.03,.15-.15,.2-.3,.28-.9,3.02-2.1,5.85-3.62,8.25,1.08,.62,2.4,1.4,3.33,2.05l-1.05,1.63c-.9-.7-2.28-1.53-3.32-2.15-2.3,3.18-5.17,5.73-8.97,7.5-.25-.42-.9-1.03-1.35-1.32,3.65-1.65,6.5-4.08,8.77-7.08-1.85-1.02-3.78-1.95-5.6-2.62l.97-1.38c1.83,.67,3.78,1.55,5.68,2.54,1.27-1.95,2.32-4.35,2.99-6.62h-8.25c-1.6,2.71-3.57,5.16-5.62,6.83-.3-.3-1-.85-1.4-1.12,3.25-2.5,6.12-6.88,7.62-11.15l2.32,.67c-.1,.27-.4,.35-.7,.32-.35,.9-.8,1.88-1.27,2.78h8.1s.23-.08,.23-.08l1.45,.67Zm-2.3-4.97c1.17,.92,2.58,2.42,3.33,3.5l-.95,.78c-.7-1-2.18-2.62-3.28-3.5l.9-.78Zm3.2-.93c1.17,.92,2.65,2.4,3.4,3.45l-.97,.75c-.67-1.02-2.23-2.57-3.3-3.42l.88-.78Z"/></g><g><rect class="aq" x="838.3" y="91.36" width="74.71" height="64.73"/><path class="aq" d="M912.94,91.59v64.29h-74.56V91.59h74.56m.15-.45h-74.86v65.18h74.86V91.14h0Z"/></g><g class="ax"><path d="M863.34,122.24h-7.09l.37,.11c-.02,.13-.19,.24-.43,.26-.56,3.89-2.32,7.76-6.64,9.93-.24-.28-.79-.77-1.16-1.05,4.23-2.11,5.71-5.37,6.21-9.24h-8.21v-1.44h16.95v1.44Zm-3.16-5.87h-11.92v-1.44h11.92v1.44Zm.28-3.16c.88,.92,1.87,2.38,2.36,3.39l-.86,.58c-.45-.99-1.48-2.51-2.34-3.39l.84-.58Zm2.54-.73c.88,.92,1.91,2.38,2.43,3.37l-.88,.54c-.45-.95-1.53-2.47-2.36-3.35l.82-.56Z"/><path d="M866.95,122.02h17.94v1.53h-17.12c-.13,.21-.41,.37-.69,.41l-.13-1.93Z"/><path d="M903.34,117.42c-.02,.11-.13,.19-.26,.24-.79,2.66-1.87,5.11-3.16,7.11,.92,.54,1.98,1.2,2.77,1.78l-.9,1.42c-.77-.6-1.87-1.31-2.77-1.87-1.98,2.75-4.51,4.96-7.76,6.53-.24-.37-.79-.88-1.18-1.12,3.14-1.46,5.65-3.63,7.61-6.19-1.59-.88-3.16-1.63-4.75-2.23l.82-1.2c1.57,.56,3.18,1.29,4.83,2.17,1.12-1.76,2-3.63,2.6-5.69h-7.28c-1.31,2.19-3.07,4.36-4.96,5.91-.28-.26-.86-.73-1.22-.97,2.81-2.15,5.48-6.02,6.77-9.69l2.04,.47c-.09,.24-.3,.3-.58,.28-.3,.71-.79,1.76-1.2,2.56h7.13l.3-.09,1.16,.58Z"/></g><g><rect class="ar" x="682.47" y="91.34" width="73.5" height="65.52"/><path class="ar" d="M755.9,91.57v65.07h-73.35V91.57h73.35m.15-.45h-73.64v65.97h73.64V91.12h0Z"/></g><g class="ax"><path d="M696.49,110.74c-1.43-.69-2.06-1.85-2.06-2.98,0-2.05,1.61-3.44,3.74-3.44,2.4,0,3.54,1.62,3.54,3.21,0,1.13-.6,2.36-2.17,3.12v.07c1.62,.69,2.63,1.87,2.63,3.46,0,2.24-1.83,3.78-4.16,3.78-2.52,0-4.07-1.61-4.07-3.51,0-1.71,1.02-2.95,2.56-3.63v-.07Zm4.18,3.6c0-1.66-1.11-2.5-2.86-3.07-1.55,.51-2.38,1.64-2.38,2.95,0,1.5,1.01,2.65,2.59,2.65,1.69,0,2.65-1.15,2.65-2.52Zm-4.85-6.72c-.02,1.41,.99,2.19,2.45,2.63,1.15-.44,2.01-1.34,2.01-2.59,0-1.11-.62-2.26-2.17-2.26s-2.29,1.08-2.29,2.22Z"/><path d="M703.6,111.18c0-4.62,1.8-6.86,4.27-6.86s4.04,2.36,4.04,6.69c0,4.59-1.61,6.95-4.23,6.95-2.4,0-4.08-2.36-4.08-6.77Zm6.83-.11c0-3.3-.79-5.57-2.65-5.57-1.57,0-2.68,2.1-2.68,5.57s.97,5.68,2.63,5.68c1.96,0,2.7-2.54,2.7-5.68Z"/><path d="M721.29,117.74h-7.81v-.9l1.29-1.36c3.14-3.17,4.73-5.1,4.73-7.25,0-1.41-.62-2.72-2.52-2.72-1.06,0-2.01,.58-2.65,1.09l-.49-1.02c.81-.72,2.01-1.29,3.42-1.29,2.66,0,3.72,1.94,3.72,3.76,0,2.49-1.75,4.6-4.48,7.36l-1.04,1.09v.04h5.84v1.2Z"/><path d="M723.38,116.84c0-.67,.44-1.15,1.06-1.15s1.04,.48,1.04,1.15c0,.63-.41,1.11-1.06,1.11s-1.04-.53-1.04-1.11Z"/><path d="M730.77,117.74v-11.84h-.04l-2.17,1.25-.35-1.09,2.73-1.53h1.25v13.21h-1.43Z"/><path d="M740.49,117.74v-11.84h-.04l-2.17,1.25-.35-1.09,2.73-1.53h1.25v13.21h-1.43Z"/><path d="M695.53,133.23c1.34-1.41,3.93-4.32,4.94-5.4,.58-.58,1.04-.86,1.57-.86,.6,0,1.01,.32,1.69,.93,2.08,1.89,5.57,5.75,8.33,9.21l-1.06,.97c-2.61-3.44-6.14-7.48-7.9-9.1-.42-.42-.67-.69-1.01-.69-.23,0-.53,.26-.92,.63-.83,.9-3.21,3.67-4.39,4.94,.02,.04,.02,.09,.02,.12,0,.14-.07,.28-.18,.37l-1.09-1.13Z"/><path d="M715.18,129.24c.53,1.08,1.11,2.77,1.32,3.79l-.99,.26c-.21-1.02-.76-2.63-1.29-3.76l.95-.3Zm10.53,.12c-.04,.16-.21,.19-.37,.18-1.38,5.15-3.97,8.31-8.24,10.04-.14-.21-.46-.62-.69-.81,4.22-1.66,6.63-4.55,7.92-9.81l1.38,.41Zm-6.24-.97c.37,1.18,.71,2.88,.83,4l-1.04,.19c-.11-1.13-.44-2.75-.83-3.97l1.04-.23Z"/><path d="M740.76,127.59c-.02,.11-.11,.14-.21,.19-.63,2.13-1.48,4.13-2.56,5.82,.76,.44,1.69,.99,2.35,1.45l-.74,1.15c-.63-.49-1.6-1.08-2.35-1.52-1.62,2.24-3.65,4.04-6.33,5.29-.18-.3-.63-.72-.95-.93,2.58-1.16,4.59-2.88,6.19-4.99-1.3-.72-2.66-1.38-3.95-1.85l.69-.97c1.29,.48,2.66,1.09,4,1.8,.9-1.38,1.64-3.07,2.12-4.67h-5.82c-1.13,1.91-2.52,3.63-3.97,4.82-.21-.21-.71-.6-.99-.79,2.29-1.76,4.32-4.85,5.38-7.87l1.64,.48c-.07,.19-.28,.25-.49,.23-.25,.63-.56,1.32-.9,1.96h5.71l.16-.05,1.02,.48Zm-1.62-3.51c.83,.65,1.82,1.71,2.35,2.47l-.67,.55c-.49-.71-1.54-1.85-2.31-2.47l.63-.55Zm2.26-.65c.83,.65,1.87,1.69,2.4,2.43l-.69,.53c-.48-.72-1.57-1.82-2.33-2.42l.62-.55Z"/></g><g><rect class="at" x="755.94" y="91.64" width="83.07" height="65.09"/><path class="at" d="M838.92,91.86v64.64h-82.9V91.86h82.9m.17-.45h-83.23v65.54h83.23V91.41h0Z"/></g><g class="ax"><path d="M789.55,98.46h2.07s.01,19.04,.01,19.04h-2.08s-.01-19.04-.01-19.04Z"/><path d="M795.91,98.71c1.1-.2,2.55-.38,4.32-.38,6.15,0,6.65,3.94,6.65,5.44,0,4.47-3.57,6.08-6.94,6.08-.72,0-1.37-.02-1.95-.17v7.82s-2.07,0-2.07,0v-18.79Zm2.07,9.24c.52,.15,1.2,.2,2,.2,3,0,4.82-1.5,4.82-4.23s-1.95-3.92-4.55-3.92c-1.05,0-1.83,.1-2.27,.2v7.75Z"/><path d="M763.93,139.47c1.9-2,5.57-6.13,6.99-7.65,.83-.83,1.47-1.23,2.22-1.23,.85,0,1.42,.45,2.4,1.32,2.95,2.67,7.9,8.14,11.8,13.04l-1.5,1.38c-3.7-4.87-8.71-10.59-11.21-12.89-.6-.6-.95-.97-1.42-.97-.33,0-.75,.38-1.3,.9-1.17,1.28-4.55,5.2-6.22,7,.03,.05,.03,.12,.03,.17,0,.2-.1,.4-.25,.53l-1.55-1.6Z"/><path d="M791.78,133.81c.75,1.52,1.58,3.92,1.88,5.37l-1.4,.38c-.3-1.45-1.08-3.72-1.83-5.32l1.35-.43Zm14.92,.17c-.05,.22-.3,.27-.52,.25-1.95,7.3-5.62,11.78-11.66,14.23-.2-.3-.65-.88-.98-1.15,5.97-2.35,9.39-6.45,11.21-13.9l1.95,.57Zm-8.85-1.37c.53,1.68,1,4.07,1.18,5.67l-1.47,.28c-.15-1.6-.63-3.9-1.18-5.62l1.47-.33Z"/><path d="M828.02,131.43c-.03,.15-.15,.2-.3,.28-.9,3.02-2.1,5.85-3.62,8.25,1.08,.62,2.4,1.4,3.33,2.05l-1.05,1.63c-.9-.7-2.28-1.53-3.32-2.15-2.3,3.18-5.17,5.73-8.97,7.5-.25-.42-.9-1.03-1.35-1.32,3.65-1.65,6.5-4.08,8.77-7.08-1.85-1.02-3.78-1.95-5.6-2.62l.97-1.38c1.83,.67,3.78,1.55,5.68,2.54,1.27-1.95,2.32-4.35,2.99-6.62h-8.25c-1.6,2.71-3.57,5.16-5.62,6.83-.3-.3-1-.85-1.4-1.12,3.25-2.5,6.12-6.88,7.62-11.15l2.32,.67c-.1,.27-.4,.35-.7,.32-.35,.9-.8,1.88-1.27,2.78h8.1s.23-.08,.23-.08l1.45,.67Zm-2.3-4.97c1.17,.92,2.58,2.42,3.33,3.5l-.95,.78c-.7-1-2.18-2.62-3.28-3.5l.9-.78Zm3.2-.93c1.17,.92,2.65,2.4,3.4,3.45l-.97,.75c-.67-1.02-2.23-2.57-3.3-3.42l.88-.78Z"/></g><g class="ax"><path d="M510.86,474.14h2.32v21.34h-2.32v-21.34Z"/><path d="M517.97,474.42c1.23-.22,2.86-.42,4.84-.42,6.89,0,7.45,4.42,7.45,6.1,0,5.01-4,6.8-7.78,6.8-.81,0-1.54-.03-2.18-.2v8.76h-2.32v-21.06Zm2.32,10.36c.59,.17,1.34,.22,2.24,.22,3.36,0,5.4-1.68,5.4-4.73s-2.18-4.4-5.1-4.4c-1.18,0-2.04,.11-2.55,.22v8.68Z"/></g></svg>