<?xml version="1.0" encoding="UTF-8"?>
<svg id="b" data-name="レイヤー 2" xmlns="http://www.w3.org/2000/svg" viewBox="0 0 1595 895.1">
  <defs>
    <style>
      .k, .l {
        fill: #fff;
      }

      .m {
        stroke: #aad2ff;
      }

      .m, .n, .o, .l, .p, .q {
        stroke-miterlimit: 10;
      }

      .m, .n, .o, .p, .q {
        fill: none;
      }

      .m, .n, .p, .q {
        opacity: .4;
        stroke-width: 10px;
      }

      .n {
        stroke: #aad23a;
      }

      .r {
        letter-spacing: .25em;
      }

      .o, .l {
        stroke: #000;
        stroke-width: 2px;
      }

      .p {
        stroke: #ffc794;
      }

      .q {
        stroke: #a994ff;
      }

      .s {
        font-family: KozGoPr6N-Regular-90ms-RKSJ-H, 'Kozuka Gothic Pr6N';
        font-size: 32px;
      }
    </style>
  </defs>
  <g id="c" data-name="レイヤー 1">
    <g>
      <path d="M811.7,527.89c-1.5,1.52-4.15,2.76-5.9,2.52v-8.89c-1.83-1.72-3.68-3.5-5.53-5.33v15.5c-8.36-1.54-11.2-9.76-15.16-18.92h11.76c-2-2.05-4.01-4.16-6.02-6.32h-8.51c-.96-3.32-1.72-6.9-2.31-10.66-2.28-2.46-4.49-4.93-6.64-7.39,.48,6.41,1.47,12.49,2.95,18.05h-14.73c-4.12-6.96-6.68-15.03-7.17-23.71h14.14s-3.29-4.01-4.85-6.32h-9.26c.2-3.23,.76-6.66,1.62-9.97-1.95-2.78-3.79-5.53-5.48-8.21-18.65,44.87,27.92,96.03,72.95,76.21-3.43-2.35-6.95-4.97-10.54-7.81-.44,.44-.88,.87-1.33,1.25Zm-43.09-11.89c-.99-1.03-1.92-2.11-2.82-3.22h12.4c1.84,5.31,4.3,10.47,7.52,14.78-6.47-2.57-12.28-6.53-17.1-11.56Z"/>
      <path d="M761.9,439.49c1.23,2.31,2.64,4.71,4.18,7.19,5.17-6.37,11.97-11.32,19.59-14.35-3.03,4.06-5.57,9.09-7.59,14.85h-11.63c1.3,2.06,2.69,4.17,4.17,6.32h5.73s-.99,3.65-1.4,5.77c1.54,2.07,3.15,4.16,4.83,6.27,.61-4.42,1.46-8.62,2.56-12.04h17.93v22.92h-11.5c1.87,2.11,3.78,4.22,5.74,6.32h5.75v5.73c1.84,1.95,3.68,3.86,5.53,5.72v-11.44h20.44c-.23,8.65-1.43,16.72-3.36,23.71h-3.68c2.91,2.45,5.78,4.75,8.59,6.89,.07-.19,.15-.37,.22-.57h12.28c-1.65,2.06-3.46,3.99-5.44,5.74,2.37,1.61,4.66,3.07,6.87,4.36,53.64-54.85-24.09-140.55-79.81-83.38Zm82.45,66.95h-14.75c1.9-7.17,3.06-15.19,3.28-23.71h18.63c-.48,8.67-3.04,16.74-7.17,23.71Zm0-52.94c4.13,6.96,6.68,15.04,7.17,23.71h-18.65c-.23-8.51-1.34-16.54-3.25-23.71h14.73Zm-7-9.54c.99,1.03,1.92,2.11,2.82,3.22h-12.39c-1.84-5.31-4.31-10.46-7.52-14.78,6.47,2.57,12.28,6.53,17.09,11.56Zm-31.54-14.77c8.37,1.27,11.7,9.18,15.78,17.99h-15.78v-17.99Zm0,24.31h17.82c2.01,6.98,3.26,15.07,3.5,23.71h-21.33v-23.71Zm-11.38-21.79c1.83-1.59,3.49-2.65,5.84-2.53v17.99h-15.75c2.07-5.69,6.02-12.31,9.9-15.47Z"/>
      <path d="M864.96,520.13c-1.17-3.28-2.78-6.83-4.77-10.59-1.35,2.82-2.89,5.54-4.6,8.12,20.28,44.66-49.75-12.23-62.31-27.77-14.44-12.67-69.54-86.23-26.57-65.08,2.47-1.78,5.06-3.39,7.76-4.8-10.06-6.68-30.94-13.53-31.42,4.35,4.87,28.13,22.48,45.64,44.79,71.21,24.47,23.17,40.63,41.43,68.17,46.79,12.01,.21,12.87-13.27,8.93-22.21Z"/>
    </g>
    <g>
      <g>
        <g>
          <rect class="k" x="140" y="258.1" width="141" height="92"/>
          <path d="M280,259.1v90H141v-90h139m2-2H139v94h143v-94h0Z"/>
        </g>
        <path class="l" d="M281,257.1v93H139v-93h142m1-1H138v95h144v-95h0Z"/>
      </g>
      <path class="l" d="M292,248.1v110H128v-110h164m1-1H127v112h166v-112Z"/>
      <path class="l" d="M216,360.1v19h-14v-19h14m1-1h-16v21h16v-21h0Z"/>
      <line class="l" x1="234" y1="380.6" x2="186" y2="380.6"/>
      <polyline class="l" points="271 388.6 149.6 388.6 138.6 409.6 259.6 409.6 259.3 409.6 270.3 388.6"/>
    </g>
    <g id="d" data-name="c">
      <g>
        <g>
          <g>
            <rect class="k" x="141" y="610.1" width="141" height="92"/>
            <path d="M281,611.1v90H142v-90h139m2-2H140v94h143v-94h0Z"/>
          </g>
          <path class="l" d="M282,609.1v93H140v-93h142m1-1H139v95h144v-95h0Z"/>
        </g>
        <path class="l" d="M293,600.1v110H129v-110h164m1-1H128v112h166v-112h0Z"/>
        <path class="l" d="M217,712.1v19h-14v-19h14m1-1h-16v21h16v-21h0Z"/>
        <line class="l" x1="235" y1="732.6" x2="187" y2="732.6"/>
        <polyline class="l" points="272 740.6 150.6 740.6 139.6 761.6 260.6 761.6 260.3 761.6 271.3 740.6"/>
      </g>
    </g>
    <g id="e" data-name="c">
      <g>
        <polyline class="o" points="461 477.6 339.43 477.6 328.43 498.6 449.43 498.6 449.13 498.6 460.13 477.6"/>
        <line class="o" x1="329.5" y1="499.1" x2="329.5" y2="525.1"/>
        <line class="o" x1="461.5" y1="477.1" x2="461.5" y2="503.1"/>
        <line class="o" x1="450.5" y1="498.1" x2="450.5" y2="524.1"/>
        <line class="o" x1="329" y1="524.6" x2="450" y2="523.6"/>
        <line class="o" x1="449.93" y1="524.02" x2="460.93" y2="504.02"/>
        <g>
          <rect class="o" x="336.5" y="507.6" width="8" height="8"/>
          <rect class="o" x="344.5" y="507.6" width="8" height="8"/>
          <rect class="o" x="352.5" y="507.6" width="8" height="8"/>
        </g>
        <g>
          <rect class="o" x="364.5" y="507.6" width="8" height="8"/>
          <rect class="o" x="372.5" y="507.6" width="8" height="8"/>
          <rect class="o" x="380.5" y="507.6" width="8" height="8"/>
        </g>
        <g>
          <rect class="o" x="392.5" y="507.6" width="8" height="8"/>
          <rect class="o" x="400.5" y="507.6" width="8" height="8"/>
          <rect class="o" x="408.5" y="507.6" width="8" height="8"/>
        </g>
        <g>
          <rect class="o" x="421.5" y="507.6" width="8" height="8"/>
          <rect class="o" x="429.5" y="507.6" width="8" height="8"/>
          <rect class="o" x="437.5" y="507.6" width="8" height="8"/>
        </g>
      </g>
    </g>
    <g id="f" data-name="c">
      <g>
        <polyline class="o" points="578.5 444.1 578.5 538 558.5 546.54 558.5 452.6 558.5 452.82 578.5 444.28"/>
        <line class="o" x1="558" y1="547.6" x2="532" y2="547.6"/>
        <line class="o" x1="579" y1="441.6" x2="554" y2="441.6"/>
        <line class="o" x1="566.11" y1="443.58" x2="565.61" y2="434.63"/>
        <line class="o" x1="531.5" y1="548.1" x2="531.5" y2="451.1"/>
        <g>
          <rect class="o" x="540.5" y="535.6" width="8" height="8"/>
          <rect class="o" x="540.5" y="527.6" width="8" height="8"/>
          <rect class="o" x="540.5" y="519.6" width="8" height="8"/>
        </g>
        <rect class="o" x="540.5" y="502.6" width="8" height="8"/>
        <rect class="o" x="540.5" y="486.6" width="8" height="8"/>
        <line class="o" x1="553.1" y1="442.02" x2="531.1" y2="452.02"/>
        <line class="o" x1="558" y1="451.6" x2="532" y2="451.6"/>
        <line class="o" x1="565.97" y1="434.86" x2="570.1" y2="429.02"/>
        <line class="o" x1="565.47" y1="435.33" x2="561.37" y2="429.52"/>
      </g>
    </g>
    <g>
      <path class="o" d="M1157.5,367.86c8.19-20.9,5.89-102.72,6-125.76"/>
      <line class="o" x1="1107" y1="366.6" x2="1081" y2="366.6"/>
      <line class="o" x1="1141" y1="278.6" x2="1089" y2="278.6"/>
      <line class="o" x1="1081.5" y1="366.1" x2="1081.5" y2="269.1"/>
      <g>
        <rect class="o" x="1122.5" y="323.6" width="8" height="8"/>
        <rect class="o" x="1114.5" y="323.6" width="8" height="8"/>
        <rect class="o" x="1106.5" y="323.6" width="8" height="8"/>
      </g>
      <path class="o" d="M1090.72,347.6h0Z"/>
      <rect class="o" x="1098.5" y="323.6" width="8" height="8"/>
      <line class="o" x1="1155.5" y1="268.1" x2="1156.5" y2="367.1"/>
      <line class="o" x1="1157.22" y1="367.86" x2="1106.22" y2="366.86"/>
      <g>
        <polyline class="o" points="1163 221.6 1090.21 220.93 1081.81 240.6 1155.14 241.6 1154.91 241.6 1163.45 221.6"/>
        <line class="o" x1="1081.5" y1="242.1" x2="1081.5" y2="268.1"/>
        <line class="o" x1="1163.5" y1="223.1" x2="1163.5" y2="248.1"/>
        <line class="o" x1="1081" y1="268.6" x2="1156" y2="268.6"/>
        <g>
          <rect class="o" x="1085.5" y="251.6" width="8" height="8"/>
          <rect class="o" x="1093.5" y="251.6" width="8" height="8"/>
          <rect class="o" x="1101.5" y="251.6" width="8" height="8"/>
        </g>
        <rect class="o" x="1118.5" y="251.6" width="16" height="8"/>
        <rect class="o" x="1134.5" y="251.6" width="16" height="8"/>
        <line class="o" x1="1155.5" y1="242.1" x2="1155.5" y2="268.1"/>
      </g>
    </g>
    <g>
      <path class="o" d="M1346.5,249.86c8.19-20.9,5.89-102.72,6-125.76"/>
      <line class="o" x1="1296" y1="248.6" x2="1270" y2="248.6"/>
      <line class="o" x1="1330" y1="160.6" x2="1278" y2="160.6"/>
      <line class="o" x1="1270.5" y1="248.1" x2="1270.5" y2="151.1"/>
      <g>
        <rect class="o" x="1311.5" y="205.6" width="8" height="8"/>
        <rect class="o" x="1303.5" y="205.6" width="8" height="8"/>
        <rect class="o" x="1295.5" y="205.6" width="8" height="8"/>
      </g>
      <path class="o" d="M1279.72,229.6h0Z"/>
      <rect class="o" x="1287.5" y="205.6" width="8" height="8"/>
      <line class="o" x1="1344.5" y1="150.1" x2="1345.5" y2="249.1"/>
      <line class="o" x1="1346.22" y1="249.86" x2="1295.22" y2="248.86"/>
      <g>
        <polyline class="o" points="1352 103.6 1279.21 102.93 1270.81 122.6 1344.14 123.6 1343.91 123.6 1352.45 103.6"/>
        <line class="o" x1="1270.5" y1="124.1" x2="1270.5" y2="150.1"/>
        <line class="o" x1="1352.5" y1="105.1" x2="1352.5" y2="130.1"/>
        <line class="o" x1="1270" y1="150.6" x2="1345" y2="150.6"/>
        <g>
          <rect class="o" x="1274.5" y="133.6" width="8" height="8"/>
          <rect class="o" x="1282.5" y="133.6" width="8" height="8"/>
          <rect class="o" x="1290.5" y="133.6" width="8" height="8"/>
        </g>
        <rect class="o" x="1307.5" y="133.6" width="16" height="8"/>
        <rect class="o" x="1323.5" y="133.6" width="16" height="8"/>
        <line class="o" x1="1344.5" y1="124.1" x2="1344.5" y2="150.1"/>
      </g>
    </g>
    <g>
      <path class="o" d="M1346.5,424.86c8.19-20.9,5.89-102.72,6-125.76"/>
      <line class="o" x1="1296" y1="423.6" x2="1270" y2="423.6"/>
      <line class="o" x1="1330" y1="335.6" x2="1278" y2="335.6"/>
      <line class="o" x1="1270.5" y1="423.1" x2="1270.5" y2="326.1"/>
      <g>
        <rect class="o" x="1311.5" y="380.6" width="8" height="8"/>
        <rect class="o" x="1303.5" y="380.6" width="8" height="8"/>
        <rect class="o" x="1295.5" y="380.6" width="8" height="8"/>
      </g>
      <path class="o" d="M1279.72,404.6h0Z"/>
      <rect class="o" x="1287.5" y="380.6" width="8" height="8"/>
      <line class="o" x1="1344.5" y1="325.1" x2="1345.5" y2="424.1"/>
      <line class="o" x1="1346.22" y1="424.86" x2="1295.22" y2="423.86"/>
      <g>
        <polyline class="o" points="1352 278.6 1279.21 277.93 1270.81 297.6 1344.14 298.6 1343.91 298.6 1352.45 278.6"/>
        <line class="o" x1="1270.5" y1="299.1" x2="1270.5" y2="325.1"/>
        <line class="o" x1="1352.5" y1="280.1" x2="1352.5" y2="305.1"/>
        <line class="o" x1="1270" y1="325.6" x2="1345" y2="325.6"/>
        <g>
          <rect class="o" x="1274.5" y="308.6" width="8" height="8"/>
          <rect class="o" x="1282.5" y="308.6" width="8" height="8"/>
          <rect class="o" x="1290.5" y="308.6" width="8" height="8"/>
        </g>
        <rect class="o" x="1307.5" y="308.6" width="16" height="8"/>
        <rect class="o" x="1323.5" y="308.6" width="16" height="8"/>
        <line class="o" x1="1344.5" y1="299.1" x2="1344.5" y2="325.1"/>
      </g>
    </g>
    <g id="g" data-name="c">
      <g>
        <g>
          <g>
            <rect class="k" x="1358" y="523.1" width="141" height="92"/>
            <path d="M1498,524.1v90h-139v-90h139m2-2h-143v94h143v-94h0Z"/>
          </g>
          <path class="l" d="M1499,522.1v93h-142v-93h142m1-1h-144v95h144v-95h0Z"/>
        </g>
        <path class="l" d="M1510,513.1v110h-164v-110h164m1-1h-166v112h166v-112h0Z"/>
        <path class="l" d="M1434,625.1v19h-14v-19h14m1-1h-16v21h16v-21h0Z"/>
        <line class="l" x1="1452" y1="645.6" x2="1404" y2="645.6"/>
        <polyline class="l" points="1489 653.6 1367.6 653.6 1356.6 674.6 1477.6 674.6 1477.3 674.6 1488.3 653.6"/>
      </g>
    </g>
    <g id="h" data-name="c">
      <g>
        <g>
          <g>
            <rect class="k" x="1360" y="713.1" width="141" height="92"/>
            <path d="M1500,714.1v90h-139v-90h139m2-2h-143v94h143v-94h0Z"/>
          </g>
          <path class="l" d="M1501,712.1v93h-142v-93h142m1-1h-144v95h144v-95h0Z"/>
        </g>
        <path class="l" d="M1512,703.1v110h-164v-110h164m1-1h-166v112h166v-112h0Z"/>
        <path class="l" d="M1436,815.1v19h-14v-19h14m1-1h-16v21h16v-21h0Z"/>
        <line class="l" x1="1454" y1="835.6" x2="1406" y2="835.6"/>
        <polyline class="l" points="1491 843.6 1369.6 843.6 1358.6 864.6 1479.6 864.6 1479.3 864.6 1490.3 843.6"/>
      </g>
    </g>
    <g id="i" data-name="c">
      <g>
        <polyline class="o" points="1254 582.6 1132.43 582.6 1121.43 603.6 1242.43 603.6 1242.13 603.6 1253.13 582.6"/>
        <line class="o" x1="1122.5" y1="604.1" x2="1122.5" y2="630.1"/>
        <line class="o" x1="1254.5" y1="582.1" x2="1254.5" y2="608.1"/>
        <line class="o" x1="1243.5" y1="603.1" x2="1243.5" y2="629.1"/>
        <line class="o" x1="1122" y1="629.6" x2="1243" y2="628.6"/>
        <line class="o" x1="1242.93" y1="629.02" x2="1253.93" y2="609.02"/>
        <g>
          <rect class="o" x="1129.5" y="612.6" width="8" height="8"/>
          <rect class="o" x="1137.5" y="612.6" width="8" height="8"/>
          <rect class="o" x="1145.5" y="612.6" width="8" height="8"/>
        </g>
        <g>
          <rect class="o" x="1157.5" y="612.6" width="8" height="8"/>
          <rect class="o" x="1165.5" y="612.6" width="8" height="8"/>
          <rect class="o" x="1173.5" y="612.6" width="8" height="8"/>
        </g>
        <g>
          <rect class="o" x="1185.5" y="612.6" width="8" height="8"/>
          <rect class="o" x="1193.5" y="612.6" width="8" height="8"/>
          <rect class="o" x="1201.5" y="612.6" width="8" height="8"/>
        </g>
        <g>
          <rect class="o" x="1214.5" y="612.6" width="8" height="8"/>
          <rect class="o" x="1222.5" y="612.6" width="8" height="8"/>
          <rect class="o" x="1230.5" y="612.6" width="8" height="8"/>
        </g>
      </g>
    </g>
    <g id="j" data-name="c">
      <g>
        <polyline class="o" points="1079.5 556.1 1079.5 650 1059.5 658.54 1059.5 564.6 1059.5 564.82 1079.5 556.28"/>
        <line class="o" x1="1059" y1="659.6" x2="1033" y2="659.6"/>
        <line class="o" x1="1080" y1="553.6" x2="1055" y2="553.6"/>
        <line class="o" x1="1067.11" y1="555.58" x2="1066.61" y2="546.63"/>
        <line class="o" x1="1032.5" y1="660.1" x2="1032.5" y2="563.1"/>
        <g>
          <rect class="o" x="1041.5" y="647.6" width="8" height="8"/>
          <rect class="o" x="1041.5" y="639.6" width="8" height="8"/>
          <rect class="o" x="1041.5" y="631.6" width="8" height="8"/>
        </g>
        <rect class="o" x="1041.5" y="614.6" width="8" height="8"/>
        <rect class="o" x="1041.5" y="598.6" width="8" height="8"/>
        <line class="o" x1="1054.1" y1="554.02" x2="1032.1" y2="564.02"/>
        <line class="o" x1="1059" y1="563.6" x2="1033" y2="563.6"/>
        <line class="o" x1="1066.97" y1="546.86" x2="1071.1" y2="541.02"/>
        <line class="o" x1="1066.47" y1="547.33" x2="1062.37" y2="541.52"/>
      </g>
    </g>
    <line class="l" x1="294" y1="303.1" x2="408.5" y2="477.64"/>
    <line class="l" x1="294" y1="655.1" x2="404.5" y2="524.6"/>
    <line class="l" x1="461.5" y1="490.6" x2="531.1" y2="490.1"/>
    <line class="l" x1="578.5" y1="490.1" x2="726.6" y2="490.6"/>
    <line class="l" x1="1081.5" y1="317.6" x2="874.27" y2="462.1"/>
    <line class="l" x1="870.71" y1="504.02" x2="1032.1" y2="611.6"/>
    <polyline class="l" points="1270 186.98 1164.16 290.85 1270.81 361.98"/>
    <line class="l" x1="1121.43" y1="614.6" x2="1081.5" y2="616.1"/>
    <line class="l" x1="1344" y1="527.67" x2="1254.5" y2="602.6"/>
    <line class="l" x1="1350" y1="761.1" x2="1218.5" y2="629.02"/>
    <rect class="m" x="5" y="187.1" width="615" height="615" rx="46.14" ry="46.14"/>
    <rect class="n" x="666" y="367.1" width="264" height="235" rx="46.14" ry="46.14"/>
    <rect class="p" x="1004" y="52.1" width="401" height="380" rx="46.14" ry="46.14"/>
<?xml version="1.0" encoding="UTF-8"?>
<svg id="b" data-name="レイヤー 2" xmlns="http://www.w3.org/2000/svg" viewBox="0 0 1595 900.1">
  <defs>
    <style>
      .k, .l {
        fill: #fff;
      }

      .m {
        stroke: #aad2ff;
      }

      .m, .n, .o, .l, .p, .q {
        stroke-miterlimit: 10;
      }

      .m, .n, .o, .p, .q {
        fill: none;
      }

      .m, .n, .p, .q {
        opacity: .4;
        stroke-width: 10px;
      }

      .n {
        stroke: #aad23a;
      }

      .r {
        font-size: 24px;
      }

      .r, .s {
        font-family: KozGoPr6N-Regular-90ms-RKSJ-H, 'Kozuka Gothic Pr6N';
      }

      .t {
        letter-spacing: .25em;
      }

      .o, .l {
        stroke: #000;
        stroke-width: 2px;
      }

      .p {
        stroke: #ffc794;
      }

      .q {
        stroke: #a994ff;
      }

      .s {
        font-size: 32px;
      }
    </style>
  </defs>
  <g id="c" data-name="レイヤー 1">
    <g>
      <path d="M811.7,527.89c-1.5,1.52-4.15,2.76-5.9,2.52v-8.89c-1.83-1.72-3.68-3.5-5.53-5.33v15.5c-8.36-1.54-11.2-9.76-15.16-18.92h11.76c-2-2.05-4.01-4.16-6.02-6.32h-8.51c-.96-3.32-1.72-6.9-2.31-10.66-2.28-2.46-4.49-4.93-6.64-7.39,.48,6.41,1.47,12.49,2.95,18.05h-14.73c-4.12-6.96-6.68-15.03-7.17-23.71h14.14s-3.29-4.01-4.85-6.32h-9.26c.2-3.23,.76-6.66,1.62-9.97-1.95-2.78-3.79-5.53-5.48-8.21-18.65,44.87,27.92,96.03,72.95,76.21-3.43-2.35-6.95-4.97-10.54-7.81-.44,.44-.88,.87-1.33,1.25Zm-43.09-11.89c-.99-1.03-1.92-2.11-2.82-3.22h12.4c1.84,5.31,4.3,10.47,7.52,14.78-6.47-2.57-12.28-6.53-17.1-11.56Z"/>
      <path d="M761.9,439.49c1.23,2.31,2.64,4.71,4.18,7.19,5.17-6.37,11.97-11.32,19.59-14.35-3.03,4.06-5.57,9.09-7.59,14.85h-11.63c1.3,2.06,2.69,4.17,4.17,6.32h5.73s-.99,3.65-1.4,5.77c1.54,2.07,3.15,4.16,4.83,6.27,.61-4.42,1.46-8.62,2.56-12.04h17.93v22.92h-11.5c1.87,2.11,3.78,4.22,5.74,6.32h5.75v5.73c1.84,1.95,3.68,3.86,5.53,5.72v-11.44h20.44c-.23,8.65-1.43,16.72-3.36,23.71h-3.68c2.91,2.45,5.78,4.75,8.59,6.89,.07-.19,.15-.37,.22-.57h12.28c-1.65,2.06-3.46,3.99-5.44,5.74,2.37,1.61,4.66,3.07,6.87,4.36,53.64-54.85-24.09-140.55-79.81-83.38Zm82.45,66.95h-14.75c1.9-7.17,3.06-15.19,3.28-23.71h18.63c-.48,8.67-3.04,16.74-7.17,23.71Zm0-52.94c4.13,6.96,6.68,15.04,7.17,23.71h-18.65c-.23-8.51-1.34-16.54-3.25-23.71h14.73Zm-7-9.54c.99,1.03,1.92,2.11,2.82,3.22h-12.39c-1.84-5.31-4.31-10.46-7.52-14.78,6.47,2.57,12.28,6.53,17.09,11.56Zm-31.54-14.77c8.37,1.27,11.7,9.18,15.78,17.99h-15.78v-17.99Zm0,24.31h17.82c2.01,6.98,3.26,15.07,3.5,23.71h-21.33v-23.71Zm-11.38-21.79c1.83-1.59,3.49-2.65,5.84-2.53v17.99h-15.75c2.07-5.69,6.02-12.31,9.9-15.47Z"/>
      <path d="M864.96,520.13c-1.17-3.28-2.78-6.83-4.77-10.59-1.35,2.82-2.89,5.54-4.6,8.12,20.28,44.66-49.75-12.23-62.31-27.77-14.44-12.67-69.54-86.23-26.57-65.08,2.47-1.78,5.06-3.39,7.76-4.8-10.06-6.68-30.94-13.53-31.42,4.35,4.87,28.13,22.48,45.64,44.79,71.21,24.47,23.17,40.63,41.43,68.17,46.79,12.01,.21,12.87-13.27,8.93-22.21Z"/>
    </g>
    <g>
      <g>
        <g>
          <rect class="k" x="140" y="258.1" width="141" height="92"/>
          <path d="M280,259.1v90H141v-90h139m2-2H139v94h143v-94h0Z"/>
        </g>
        <path class="l" d="M281,257.1v93H139v-93h142m1-1H138v95h144v-95h0Z"/>
      </g>
      <path class="l" d="M292,248.1v110H128v-110h164m1-1H127v112h166v-112Z"/>
      <path class="l" d="M216,360.1v19h-14v-19h14m1-1h-16v21h16v-21h0Z"/>
      <line class="l" x1="234" y1="380.6" x2="186" y2="380.6"/>
      <polyline class="l" points="271 388.6 149.6 388.6 138.6 409.6 259.6 409.6 259.3 409.6 270.3 388.6"/>
    </g>
    <g id="d" data-name="c">
      <g>
        <g>
          <g>
            <rect class="k" x="141" y="610.1" width="141" height="92"/>
            <path d="M281,611.1v90H142v-90h139m2-2H140v94h143v-94h0Z"/>
          </g>
          <path class="l" d="M282,609.1v93H140v-93h142m1-1H139v95h144v-95h0Z"/>
        </g>
        <path class="l" d="M293,600.1v110H129v-110h164m1-1H128v112h166v-112h0Z"/>
        <path class="l" d="M217,712.1v19h-14v-19h14m1-1h-16v21h16v-21h0Z"/>
        <line class="l" x1="235" y1="732.6" x2="187" y2="732.6"/>
        <polyline class="l" points="272 740.6 150.6 740.6 139.6 761.6 260.6 761.6 260.3 761.6 271.3 740.6"/>
      </g>
    </g>
    <g id="e" data-name="c">
      <g>
        <polyline class="o" points="461 477.6 339.43 477.6 328.43 498.6 449.43 498.6 449.13 498.6 460.13 477.6"/>
        <line class="o" x1="329.5" y1="499.1" x2="329.5" y2="525.1"/>
        <line class="o" x1="461.5" y1="477.1" x2="461.5" y2="503.1"/>
        <line class="o" x1="450.5" y1="498.1" x2="450.5" y2="524.1"/>
        <line class="o" x1="329" y1="524.6" x2="450" y2="523.6"/>
        <line class="o" x1="449.93" y1="524.02" x2="460.93" y2="504.02"/>
        <g>
          <rect class="o" x="336.5" y="507.6" width="8" height="8"/>
          <rect class="o" x="344.5" y="507.6" width="8" height="8"/>
          <rect class="o" x="352.5" y="507.6" width="8" height="8"/>
        </g>
        <g>
          <rect class="o" x="364.5" y="507.6" width="8" height="8"/>
          <rect class="o" x="372.5" y="507.6" width="8" height="8"/>
          <rect class="o" x="380.5" y="507.6" width="8" height="8"/>
        </g>
        <g>
          <rect class="o" x="392.5" y="507.6" width="8" height="8"/>
          <rect class="o" x="400.5" y="507.6" width="8" height="8"/>
          <rect class="o" x="408.5" y="507.6" width="8" height="8"/>
        </g>
        <g>
          <rect class="o" x="421.5" y="507.6" width="8" height="8"/>
          <rect class="o" x="429.5" y="507.6" width="8" height="8"/>
          <rect class="o" x="437.5" y="507.6" width="8" height="8"/>
        </g>
      </g>
    </g>
    <g id="f" data-name="c">
      <g>
        <polyline class="o" points="578.5 444.1 578.5 538 558.5 546.54 558.5 452.6 558.5 452.82 578.5 444.28"/>
        <line class="o" x1="558" y1="547.6" x2="532" y2="547.6"/>
        <line class="o" x1="579" y1="441.6" x2="554" y2="441.6"/>
        <line class="o" x1="566.11" y1="443.58" x2="565.61" y2="434.63"/>
        <line class="o" x1="531.5" y1="548.1" x2="531.5" y2="451.1"/>
        <g>
          <rect class="o" x="540.5" y="535.6" width="8" height="8"/>
          <rect class="o" x="540.5" y="527.6" width="8" height="8"/>
          <rect class="o" x="540.5" y="519.6" width="8" height="8"/>
        </g>
        <rect class="o" x="540.5" y="502.6" width="8" height="8"/>
        <rect class="o" x="540.5" y="486.6" width="8" height="8"/>
        <line class="o" x1="553.1" y1="442.02" x2="531.1" y2="452.02"/>
        <line class="o" x1="558" y1="451.6" x2="532" y2="451.6"/>
        <line class="o" x1="565.97" y1="434.86" x2="570.1" y2="429.02"/>
        <line class="o" x1="565.47" y1="435.33" x2="561.37" y2="429.52"/>
      </g>
    </g>
    <g>
      <path class="o" d="M1157.5,367.86c8.19-20.9,5.89-102.72,6-125.76"/>
      <line class="o" x1="1107" y1="366.6" x2="1081" y2="366.6"/>
      <line class="o" x1="1141" y1="278.6" x2="1089" y2="278.6"/>
      <line class="o" x1="1081.5" y1="366.1" x2="1081.5" y2="269.1"/>
      <g>
        <rect class="o" x="1122.5" y="323.6" width="8" height="8"/>
        <rect class="o" x="1114.5" y="323.6" width="8" height="8"/>
        <rect class="o" x="1106.5" y="323.6" width="8" height="8"/>
      </g>
      <path class="o" d="M1090.72,347.6h0Z"/>
      <rect class="o" x="1098.5" y="323.6" width="8" height="8"/>
      <line class="o" x1="1155.5" y1="268.1" x2="1156.5" y2="367.1"/>
      <line class="o" x1="1157.22" y1="367.86" x2="1106.22" y2="366.86"/>
      <g>
        <polyline class="o" points="1163 221.6 1090.21 220.93 1081.81 240.6 1155.14 241.6 1154.91 241.6 1163.45 221.6"/>
        <line class="o" x1="1081.5" y1="242.1" x2="1081.5" y2="268.1"/>
        <line class="o" x1="1163.5" y1="223.1" x2="1163.5" y2="248.1"/>
        <line class="o" x1="1081" y1="268.6" x2="1156" y2="268.6"/>
        <g>
          <rect class="o" x="1085.5" y="251.6" width="8" height="8"/>
          <rect class="o" x="1093.5" y="251.6" width="8" height="8"/>
          <rect class="o" x="1101.5" y="251.6" width="8" height="8"/>
        </g>
        <rect class="o" x="1118.5" y="251.6" width="16" height="8"/>
        <rect class="o" x="1134.5" y="251.6" width="16" height="8"/>
        <line class="o" x1="1155.5" y1="242.1" x2="1155.5" y2="268.1"/>
      </g>
    </g>
    <g>
      <path class="o" d="M1327.91,198.41c7.58-19.35,5.45-95.11,5.56-116.44"/>
      <line class="o" x1="1281.15" y1="197.25" x2="1257.08" y2="197.25"/>
      <line class="o" x1="1312.64" y1="115.77" x2="1264.49" y2="115.77"/>
      <line class="o" x1="1257.54" y1="196.78" x2="1257.54" y2="106.97"/>
      <g>
        <rect class="o" x="1295.51" y="157.43" width="7.41" height="7.41"/>
        <rect class="o" x="1288.1" y="157.43" width="7.41" height="7.41"/>
        <rect class="o" x="1280.69" y="157.43" width="7.41" height="7.41"/>
      </g>
      <path class="o" d="M1266.08,179.65h0Z"/>
      <rect class="o" x="1273.28" y="157.43" width="7.41" height="7.41"/>
      <line class="o" x1="1326.06" y1="106.04" x2="1326.99" y2="197.71"/>
      <line class="o" x1="1327.65" y1="198.41" x2="1280.43" y2="197.49"/>
      <g>
        <polyline class="o" points="1333.01 62.99 1265.61 62.37 1257.83 80.58 1325.73 81.51 1325.52 81.51 1333.42 62.99"/>
        <line class="o" x1="1257.54" y1="81.97" x2="1257.54" y2="106.04"/>
        <line class="o" x1="1333.47" y1="64.38" x2="1333.47" y2="87.53"/>
        <line class="o" x1="1257.08" y1="106.51" x2="1326.52" y2="106.51"/>
        <g>
          <rect class="o" x="1261.25" y="90.77" width="7.41" height="7.41"/>
          <rect class="o" x="1268.65" y="90.77" width="7.41" height="7.41"/>
          <rect class="o" x="1276.06" y="90.77" width="7.41" height="7.41"/>
        </g>
        <rect class="o" x="1291.8" y="90.77" width="14.81" height="7.41"/>
        <rect class="o" x="1306.62" y="90.77" width="14.81" height="7.41"/>
        <line class="o" x1="1326.06" y1="81.97" x2="1326.06" y2="106.04"/>
      </g>
    </g>
    <g>
      <path class="o" d="M1331.91,391.41c7.58-19.35,5.45-95.11,5.56-116.44"/>
      <line class="o" x1="1285.15" y1="390.25" x2="1261.08" y2="390.25"/>
      <line class="o" x1="1316.64" y1="308.77" x2="1268.49" y2="308.77"/>
      <line class="o" x1="1261.54" y1="389.78" x2="1261.54" y2="299.97"/>
      <g>
        <rect class="o" x="1299.51" y="350.43" width="7.41" height="7.41"/>
        <rect class="o" x="1292.1" y="350.43" width="7.41" height="7.41"/>
        <rect class="o" x="1284.69" y="350.43" width="7.41" height="7.41"/>
      </g>
      <path class="o" d="M1270.08,372.65h0Z"/>
      <rect class="o" x="1277.28" y="350.43" width="7.41" height="7.41"/>
      <line class="o" x1="1330.06" y1="299.04" x2="1330.99" y2="390.71"/>
      <line class="o" x1="1331.65" y1="391.41" x2="1284.43" y2="390.49"/>
      <g>
        <polyline class="o" points="1337.01 255.99 1269.61 255.37 1261.83 273.58 1329.73 274.51 1329.52 274.51 1337.42 255.99"/>
        <line class="o" x1="1261.54" y1="274.97" x2="1261.54" y2="299.04"/>
        <line class="o" x1="1337.47" y1="257.38" x2="1337.47" y2="280.53"/>
        <line class="o" x1="1261.08" y1="299.51" x2="1330.52" y2="299.51"/>
        <g>
          <rect class="o" x="1265.25" y="283.77" width="7.41" height="7.41"/>
          <rect class="o" x="1272.65" y="283.77" width="7.41" height="7.41"/>
          <rect class="o" x="1280.06" y="283.77" width="7.41" height="7.41"/>
        </g>
        <rect class="o" x="1295.8" y="283.77" width="14.81" height="7.41"/>
        <rect class="o" x="1310.62" y="283.77" width="14.81" height="7.41"/>
        <line class="o" x1="1330.06" y1="274.97" x2="1330.06" y2="299.04"/>
      </g>
    </g>
    <g id="g" data-name="c">
      <g>
        <g>
          <g>
            <rect class="k" x="1358" y="512.1" width="141" height="92"/>
            <path d="M1498,513.1v90h-139v-90h139m2-2h-143v94h143v-94h0Z"/>
          </g>
          <path class="l" d="M1499,511.1v93h-142v-93h142m1-1h-144v95h144v-95h0Z"/>
        </g>
        <path class="l" d="M1510,502.1v110h-164v-110h164m1-1h-166v112h166v-112h0Z"/>
        <path class="l" d="M1434,614.1v19h-14v-19h14m1-1h-16v21h16v-21h0Z"/>
        <line class="l" x1="1452" y1="634.6" x2="1404" y2="634.6"/>
        <polyline class="l" points="1489 642.6 1367.6 642.6 1356.6 663.6 1477.6 663.6 1477.3 663.6 1488.3 642.6"/>
      </g>
    </g>
    <g id="h" data-name="c">
      <g>
        <g>
          <g>
            <rect class="k" x="1360" y="713.1" width="141" height="92"/>
            <path d="M1500,714.1v90h-139v-90h139m2-2h-143v94h143v-94h0Z"/>
          </g>
          <path class="l" d="M1501,712.1v93h-142v-93h142m1-1h-144v95h144v-95h0Z"/>
        </g>
        <path class="l" d="M1512,703.1v110h-164v-110h164m1-1h-166v112h166v-112h0Z"/>
        <path class="l" d="M1436,815.1v19h-14v-19h14m1-1h-16v21h16v-21h0Z"/>
        <line class="l" x1="1454" y1="835.6" x2="1406" y2="835.6"/>
        <polyline class="l" points="1491 843.6 1369.6 843.6 1358.6 864.6 1479.6 864.6 1479.3 864.6 1490.3 843.6"/>
      </g>
    </g>
    <g id="i" data-name="c">
      <g>
        <polyline class="o" points="1254 582.6 1132.43 582.6 1121.43 603.6 1242.43 603.6 1242.13 603.6 1253.13 582.6"/>
        <line class="o" x1="1122.5" y1="604.1" x2="1122.5" y2="630.1"/>
        <line class="o" x1="1254.5" y1="582.1" x2="1254.5" y2="608.1"/>
        <line class="o" x1="1243.5" y1="603.1" x2="1243.5" y2="629.1"/>
        <line class="o" x1="1122" y1="629.6" x2="1243" y2="628.6"/>
        <line class="o" x1="1242.93" y1="629.02" x2="1253.93" y2="609.02"/>
        <g>
          <rect class="o" x="1129.5" y="612.6" width="8" height="8"/>
          <rect class="o" x="1137.5" y="612.6" width="8" height="8"/>
          <rect class="o" x="1145.5" y="612.6" width="8" height="8"/>
        </g>
        <g>
          <rect class="o" x="1157.5" y="612.6" width="8" height="8"/>
          <rect class="o" x="1165.5" y="612.6" width="8" height="8"/>
          <rect class="o" x="1173.5" y="612.6" width="8" height="8"/>
        </g>
        <g>
          <rect class="o" x="1185.5" y="612.6" width="8" height="8"/>
          <rect class="o" x="1193.5" y="612.6" width="8" height="8"/>
          <rect class="o" x="1201.5" y="612.6" width="8" height="8"/>
        </g>
        <g>
          <rect class="o" x="1214.5" y="612.6" width="8" height="8"/>
          <rect class="o" x="1222.5" y="612.6" width="8" height="8"/>
          <rect class="o" x="1230.5" y="612.6" width="8" height="8"/>
        </g>
      </g>
    </g>
    <g id="j" data-name="c">
      <g>
        <polyline class="o" points="1079.5 556.1 1079.5 650 1059.5 658.54 1059.5 564.6 1059.5 564.82 1079.5 556.28"/>
        <line class="o" x1="1059" y1="659.6" x2="1033" y2="659.6"/>
        <line class="o" x1="1080" y1="553.6" x2="1055" y2="553.6"/>
        <line class="o" x1="1067.11" y1="555.58" x2="1066.61" y2="546.63"/>
        <line class="o" x1="1032.5" y1="660.1" x2="1032.5" y2="563.1"/>
        <g>
          <rect class="o" x="1041.5" y="647.6" width="8" height="8"/>
          <rect class="o" x="1041.5" y="639.6" width="8" height="8"/>
          <rect class="o" x="1041.5" y="631.6" width="8" height="8"/>
        </g>
        <rect class="o" x="1041.5" y="614.6" width="8" height="8"/>
        <rect class="o" x="1041.5" y="598.6" width="8" height="8"/>
        <line class="o" x1="1054.1" y1="554.02" x2="1032.1" y2="564.02"/>
        <line class="o" x1="1059" y1="563.6" x2="1033" y2="563.6"/>
        <line class="o" x1="1066.97" y1="546.86" x2="1071.1" y2="541.02"/>
        <line class="o" x1="1066.47" y1="547.33" x2="1062.37" y2="541.52"/>
      </g>
    </g>
    <line class="l" x1="294" y1="303.1" x2="408.5" y2="477.64"/>
    <line class="l" x1="294" y1="655.1" x2="340" y2="527.1"/>
    <line class="l" x1="461.5" y1="490.6" x2="531.1" y2="490.1"/>
    <line class="l" x1="578.5" y1="490.1" x2="726.6" y2="490.6"/>
    <line class="l" x1="1081.5" y1="317.6" x2="874.27" y2="462.1"/>
    <line class="l" x1="870.71" y1="504.02" x2="1032.1" y2="611.6"/>
    <line class="l" x1="1121.43" y1="614.6" x2="1081.5" y2="616.1"/>
    <line class="l" x1="1344" y1="527.67" x2="1254.5" y2="602.6"/>
    <line class="l" x1="1350" y1="761.1" x2="1248" y2="625.1"/>
    <rect class="m" x="5" y="187.1" width="615" height="615" rx="46.14" ry="46.14"/>
    <rect class="n" x="666" y="367.1" width="264" height="235" rx="46.14" ry="46.14"/>
    <rect class="p" x="1004" y="52.1" width="401" height="380" rx="46.14" ry="46.14"/>
    <rect class="q" x="998" y="488.1" width="592" height="407" rx="46.14" ry="46.14"/>
    <text class="s" transform="translate(201.35 160.14)"><tspan x="0" y="0">ネットワー</tspan><tspan class="t" x="160" y="0">ク</tspan><tspan x="200" y="0">A</tspan></text>
    <text class="s" transform="translate(689.33 337.16)"><tspan x="0" y="0">インターネット</tspan></text>
    <text class="s" transform="translate(1114.33 28.16)"><tspan x="0" y="0">DN</tspan><tspan class="t" x="45.41" y="0">S</tspan><tspan x="70.27" y="0">サーバ</tspan></text>
    <text class="s" transform="translate(1165.33 477.16)"><tspan x="0" y="0">ネットワー</tspan><tspan class="t" x="160" y="0">ク</tspan><tspan x="200" y="0">B</tspan></text>
    <path class="l" d="M1163.72,264.6c7.28-12.5,95.09-124.02,95.09-124.02"/>
    <line class="l" x1="1167.22" y1="264.6" x2="1259" y2="334.1"/>
    <text class="r" transform="translate(154.55 438.69)"><tspan x="0" y="0">ホス</tspan><tspan class="t" x="48" y="0">ト</tspan><tspan x="78" y="0">A</tspan></text>
    <text class="r" transform="translate(156.02 790.14)"><tspan x="0" y="0">ホス</tspan><tspan class="t" x="48" y="0">ト</tspan><tspan x="78" y="0">B</tspan></text>
    <text class="r" transform="translate(340.02 557.56)"><tspan x="0" y="0">スイッ</tspan><tspan class="t" x="72" y="0">チ</tspan><tspan x="102" y="0">A</tspan></text>
    <text class="r" transform="translate(502.52 575.01)"><tspan x="0" y="0">ルー</tspan><tspan class="t" x="48" y="0">タ</tspan><tspan x="78" y="0">A</tspan></text>
    <text class="r" transform="translate(1008.51 689.01)"><tspan x="0" y="0">ルー</tspan><tspan class="t" x="48" y="0">タ</tspan><tspan x="78" y="0">B</tspan></text>
    <text class="r" transform="translate(1126.01 659.01)"><tspan x="0" y="0">スイッ</tspan><tspan class="t" x="72" y="0">チ</tspan><tspan x="102" y="0">B</tspan></text>
    <text class="r" transform="translate(1365.27 689.14)"><tspan x="0" y="0">ホス</tspan><tspan class="t" x="48" y="0">ト</tspan><tspan x="78" y="0">C</tspan></text>
    <text class="r" transform="translate(1373.27 888.14)"><tspan x="0" y="0">ホス</tspan><tspan class="t" x="48" y="0">ト</tspan><tspan x="78" y="0">D</tspan></text>
    <text class="r" transform="translate(1058.43 392.43)"><tspan x="0" y="0">キャッシュ</tspan><tspan x="-2.35" y="22">DN</tspan><tspan class="t" x="31.7" y="22">S</tspan><tspan x="50.35" y="22">サーバ</tspan></text>
    <text class="r" transform="translate(1258.39 220.62)"><tspan x="0" y="0">ルート</tspan><tspan x="-26.35" y="22">DN</tspan><tspan class="t" x="7.7" y="22">S</tspan><tspan x="26.35" y="22">サーバ</tspan></text>
    <text class="r" transform="translate(1232.03 414.62)"><tspan x="0" y="0">DN</tspan><tspan class="t" x="34.06" y="0">S</tspan><tspan x="52.7" y="0">サーバ</tspan></text>
  </g>
</svg>