<?xml version="1.0" encoding="UTF-8"?>
<svg id="b" data-name="レイヤー 2" xmlns="http://www.w3.org/2000/svg" viewBox="0 0 1383 740.67">
  <defs>
    <style>
      .l {
        fill: #fff;
      }

      .m {
        fill: none;
        stroke: #000;
        stroke-miterlimit: 10;
      }
    </style>
  </defs>
  <g id="c" data-name="レイヤー 1">
    <g>
      <g>
        <path d="M686.47,438.8c-1.9,1.92-5.25,3.5-7.47,3.19v-11.25c-2.32-2.17-4.66-4.43-7-6.74v19.61c-10.58-1.95-14.18-12.35-19.19-23.95h14.88c-2.54-2.59-5.07-5.26-7.61-8h-10.76c-1.21-4.2-2.18-8.73-2.92-13.49-2.88-3.11-5.68-6.24-8.4-9.35,.61,8.11,1.86,15.81,3.73,22.84h-18.64c-5.22-8.81-8.46-19.03-9.07-30h17.9s-4.16-5.07-6.14-8h-11.72c.25-4.08,.96-8.43,2.05-12.62-2.47-3.52-4.79-7-6.93-10.4-23.6,56.78,35.33,121.53,92.32,96.45-4.34-2.98-8.8-6.29-13.34-9.88-.56,.56-1.12,1.1-1.68,1.58Zm-54.53-15.05c-1.25-1.3-2.43-2.67-3.57-4.08h15.69c2.33,6.72,5.45,13.25,9.52,18.7-8.19-3.25-15.54-8.27-21.64-14.63Z"/>
        <path d="M623.43,326.94c1.56,2.92,3.34,5.96,5.29,9.1,6.55-8.06,15.15-14.33,24.79-18.16-3.83,5.14-7.05,11.51-9.61,18.79h-14.71c1.64,2.61,3.41,5.28,5.28,8h7.25s-1.25,4.62-1.77,7.3c1.95,2.62,3.99,5.27,6.12,7.94,.77-5.59,1.84-10.9,3.25-15.24h22.69v29h-14.55c2.37,2.67,4.79,5.34,7.27,8h7.28v7.25c2.32,2.47,4.66,4.88,7,7.24v-14.48h25.86c-.29,10.94-1.81,21.16-4.26,30h-4.66c3.68,3.1,7.31,6.01,10.87,8.72,.09-.24,.19-.47,.28-.72h15.54c-2.09,2.61-4.38,5.05-6.88,7.26,3,2.04,5.9,3.89,8.69,5.52,67.88-69.41-30.48-177.87-101-105.51Zm104.34,84.73h-18.66c2.41-9.07,3.87-19.22,4.15-30h23.58c-.61,10.97-3.85,21.19-9.07,30Zm0-67c5.22,8.81,8.46,19.03,9.07,30h-23.6c-.29-10.77-1.7-20.93-4.11-30h18.64Zm-8.86-12.08c1.25,1.3,2.43,2.67,3.57,4.08h-15.68c-2.33-6.72-5.45-13.24-9.51-18.7,8.19,3.25,15.54,8.27,21.63,14.63Zm-39.92-18.69c10.59,1.6,14.81,11.62,19.96,22.77h-19.96v-22.77Zm0,30.77h22.56c2.55,8.84,4.13,19.07,4.43,30h-26.99v-30Zm-14.4-27.57c2.31-2.01,4.42-3.35,7.4-3.2v22.77h-19.93c2.62-7.21,7.62-15.58,12.53-19.57Z"/>
        <path d="M753.86,428.98c-1.47-4.15-3.52-8.64-6.03-13.4-1.71,3.57-3.66,7.01-5.82,10.27,25.67,56.52-62.96-15.48-78.85-35.15-18.28-16.04-88-109.12-33.62-82.36,3.12-2.26,6.41-4.29,9.83-6.08-12.73-8.45-39.15-17.12-39.76,5.5,6.17,35.6,28.45,57.75,56.69,90.12,30.97,29.32,51.42,52.43,86.27,59.22,15.2,.27,16.29-16.8,11.3-28.11Z"/>
      </g>
      <g id="d" data-name="c">
        <g>
          <g>
            <rect class="l" x="12" y="154.67" width="143" height="94"/>
            <path d="M154,154.67v93H12v-93H154m1-1H11v95H155v-95h0Z"/>
          </g>
          <path d="M165,145.67v110H1v-110H165m1-1H0v112H166v-112h0Z"/>
          <path d="M89,257.67v19h-14v-19h14m1-1h-16v21h16v-21h0Z"/>
          <line class="m" x1="107" y1="278.17" x2="59" y2="278.17"/>
          <polyline class="m" points="144 286.17 22.6 286.17 11.6 307.17 132.6 307.17 132.3 307.17 143.3 286.17"/>
        </g>
      </g>
      <g id="e" data-name="c">
        <g>
          <g>
            <rect class="l" x="13" y="506.67" width="143" height="94"/>
            <path d="M155,506.67v93H13v-93H155m1-1H12v95H156v-95h0Z"/>
          </g>
          <path d="M166,497.67v110H2v-110H166m1-1H1v112H167v-112h0Z"/>
          <path d="M90,609.67v19h-14v-19h14m1-1h-16v21h16v-21h0Z"/>
          <line class="m" x1="108" y1="630.17" x2="60" y2="630.17"/>
          <polyline class="m" points="145 638.17 23.6 638.17 12.6 659.17 133.6 659.17 133.3 659.17 144.3 638.17"/>
        </g>
      </g>
      <g id="f" data-name="c">
        <g>
          <polyline class="m" points="334 375.17 212.43 375.17 201.43 396.17 322.43 396.17 322.13 396.17 333.13 375.17"/>
          <line class="m" x1="202.5" y1="396.67" x2="202.5" y2="422.67"/>
          <line class="m" x1="334.5" y1="374.67" x2="334.5" y2="400.67"/>
          <line class="m" x1="323.5" y1="395.67" x2="323.5" y2="421.67"/>
          <line class="m" x1="202" y1="422.17" x2="323" y2="421.17"/>
          <line class="m" x1="322.93" y1="421.59" x2="333.93" y2="401.59"/>
          <g>
            <rect class="m" x="209.5" y="405.17" width="8" height="8"/>
            <rect class="m" x="217.5" y="405.17" width="8" height="8"/>
            <rect class="m" x="225.5" y="405.17" width="8" height="8"/>
          </g>
          <g>
            <rect class="m" x="237.5" y="405.17" width="8" height="8"/>
            <rect class="m" x="245.5" y="405.17" width="8" height="8"/>
            <rect class="m" x="253.5" y="405.17" width="8" height="8"/>
          </g>
          <g>
            <rect class="m" x="265.5" y="405.17" width="8" height="8"/>
            <rect class="m" x="273.5" y="405.17" width="8" height="8"/>
            <rect class="m" x="281.5" y="405.17" width="8" height="8"/>
          </g>
          <g>
            <rect class="m" x="294.5" y="405.17" width="8" height="8"/>
            <rect class="m" x="302.5" y="405.17" width="8" height="8"/>
            <rect class="m" x="310.5" y="405.17" width="8" height="8"/>
          </g>
        </g>
      </g>
      <g id="g" data-name="c">
        <g>
          <polyline class="m" points="451.5 341.67 451.5 435.58 431.5 444.11 431.5 350.17 431.5 350.4 451.5 341.86"/>
          <line class="m" x1="431" y1="445.17" x2="405" y2="445.17"/>
          <line class="m" x1="452" y1="339.17" x2="427" y2="339.17"/>
          <line class="m" x1="439.11" y1="341.15" x2="438.61" y2="332.2"/>
          <line class="m" x1="404.5" y1="445.67" x2="404.5" y2="348.67"/>
          <g>
            <rect class="m" x="413.5" y="433.17" width="8" height="8"/>
            <rect class="m" x="413.5" y="425.17" width="8" height="8"/>
            <rect class="m" x="413.5" y="417.17" width="8" height="8"/>
          </g>
          <rect class="m" x="413.5" y="400.17" width="8" height="8"/>
          <rect class="m" x="413.5" y="384.17" width="8" height="8"/>
          <line class="m" x1="426.1" y1="339.59" x2="404.1" y2="349.59"/>
          <line class="m" x1="431" y1="349.17" x2="405" y2="349.17"/>
          <line class="m" x1="438.97" y1="332.43" x2="443.1" y2="326.59"/>
          <line class="m" x1="438.47" y1="332.9" x2="434.37" y2="327.09"/>
        </g>
      </g>
      <g>
        <path class="m" d="M1030.5,265.43c8.19-20.9,5.89-102.72,6-125.76"/>
        <line class="m" x1="980" y1="264.17" x2="954" y2="264.17"/>
        <line class="m" x1="1014" y1="176.17" x2="962" y2="176.17"/>
        <line class="m" x1="954.5" y1="263.67" x2="954.5" y2="166.67"/>
        <g>
          <rect class="m" x="995.5" y="221.17" width="8" height="8"/>
          <rect class="m" x="987.5" y="221.17" width="8" height="8"/>
          <rect class="m" x="979.5" y="221.17" width="8" height="8"/>
        </g>
        <path class="m" d="M963.72,245.17h0Z"/>
        <rect class="m" x="971.5" y="221.17" width="8" height="8"/>
        <line class="m" x1="1028.5" y1="165.67" x2="1029.5" y2="264.67"/>
        <line class="m" x1="1030.22" y1="265.43" x2="979.22" y2="264.43"/>
        <g>
          <polyline class="m" points="1036 119.17 963.21 118.5 954.81 138.17 1028.14 139.17 1027.91 139.17 1036.45 119.17"/>
          <line class="m" x1="954.5" y1="139.67" x2="954.5" y2="165.67"/>
          <line class="m" x1="1036.5" y1="120.67" x2="1036.5" y2="145.67"/>
          <line class="m" x1="954" y1="166.17" x2="1029" y2="166.17"/>
          <g>
            <rect class="m" x="958.5" y="149.17" width="8" height="8"/>
            <rect class="m" x="966.5" y="149.17" width="8" height="8"/>
            <rect class="m" x="974.5" y="149.17" width="8" height="8"/>
          </g>
          <rect class="m" x="991.5" y="149.17" width="16" height="8"/>
          <rect class="m" x="1007.5" y="149.17" width="16" height="8"/>
          <line class="m" x1="1028.5" y1="139.67" x2="1028.5" y2="165.67"/>
        </g>
      </g>
      <g>
        <path class="m" d="M1219.5,147.43c8.19-20.9,5.89-102.72,6-125.76"/>
        <line class="m" x1="1169" y1="146.17" x2="1143" y2="146.17"/>
        <line class="m" x1="1203" y1="58.17" x2="1151" y2="58.17"/>
        <line class="m" x1="1143.5" y1="145.67" x2="1143.5" y2="48.67"/>
        <g>
          <rect class="m" x="1184.5" y="103.17" width="8" height="8"/>
          <rect class="m" x="1176.5" y="103.17" width="8" height="8"/>
          <rect class="m" x="1168.5" y="103.17" width="8" height="8"/>
        </g>
        <path class="m" d="M1152.72,127.17h0Z"/>
        <rect class="m" x="1160.5" y="103.17" width="8" height="8"/>
        <line class="m" x1="1217.5" y1="47.67" x2="1218.5" y2="146.67"/>
        <line class="m" x1="1219.22" y1="147.43" x2="1168.22" y2="146.43"/>
        <g>
          <polyline class="m" points="1225 1.17 1152.21 .5 1143.81 20.17 1217.14 21.17 1216.91 21.17 1225.45 1.17"/>
          <line class="m" x1="1143.5" y1="21.67" x2="1143.5" y2="47.67"/>
          <line class="m" x1="1225.5" y1="2.67" x2="1225.5" y2="27.67"/>
          <line class="m" x1="1143" y1="48.17" x2="1218" y2="48.17"/>
          <g>
            <rect class="m" x="1147.5" y="31.17" width="8" height="8"/>
            <rect class="m" x="1155.5" y="31.17" width="8" height="8"/>
            <rect class="m" x="1163.5" y="31.17" width="8" height="8"/>
          </g>
          <rect class="m" x="1180.5" y="31.17" width="16" height="8"/>
          <rect class="m" x="1196.5" y="31.17" width="16" height="8"/>
          <line class="m" x1="1217.5" y1="21.67" x2="1217.5" y2="47.67"/>
        </g>
      </g>
      <g>
        <path class="m" d="M1219.5,322.43c8.19-20.9,5.89-102.72,6-125.76"/>
        <line class="m" x1="1169" y1="321.17" x2="1143" y2="321.17"/>
        <line class="m" x1="1203" y1="233.17" x2="1151" y2="233.17"/>
        <line class="m" x1="1143.5" y1="320.67" x2="1143.5" y2="223.67"/>
        <g>
          <rect class="m" x="1184.5" y="278.17" width="8" height="8"/>
          <rect class="m" x="1176.5" y="278.17" width="8" height="8"/>
          <rect class="m" x="1168.5" y="278.17" width="8" height="8"/>
        </g>
        <path class="m" d="M1152.72,302.17h0Z"/>
        <rect class="m" x="1160.5" y="278.17" width="8" height="8"/>
        <line class="m" x1="1217.5" y1="222.67" x2="1218.5" y2="321.67"/>
        <line class="m" x1="1219.22" y1="322.43" x2="1168.22" y2="321.43"/>
        <g>
          <polyline class="m" points="1225 176.17 1152.21 175.5 1143.81 195.17 1217.14 196.17 1216.91 196.17 1225.45 176.17"/>
          <line class="m" x1="1143.5" y1="196.67" x2="1143.5" y2="222.67"/>
          <line class="m" x1="1225.5" y1="177.67" x2="1225.5" y2="202.67"/>
          <line class="m" x1="1143" y1="223.17" x2="1218" y2="223.17"/>
          <g>
            <rect class="m" x="1147.5" y="206.17" width="8" height="8"/>
            <rect class="m" x="1155.5" y="206.17" width="8" height="8"/>
            <rect class="m" x="1163.5" y="206.17" width="8" height="8"/>
          </g>
          <rect class="m" x="1180.5" y="206.17" width="16" height="8"/>
          <rect class="m" x="1196.5" y="206.17" width="16" height="8"/>
          <line class="m" x1="1217.5" y1="196.67" x2="1217.5" y2="222.67"/>
        </g>
      </g>
      <g id="h" data-name="c">
        <g>
          <g>
            <rect class="l" x="1229" y="371.67" width="143" height="94"/>
            <path d="M1371,371.67v93h-142v-93h142m1-1h-144v95h144v-95h0Z"/>
          </g>
          <path d="M1382,362.67v110h-164v-110h164m1-1h-166v112h166v-112h0Z"/>
          <path d="M1306,474.67v19h-14v-19h14m1-1h-16v21h16v-21h0Z"/>
          <line class="m" x1="1324" y1="495.17" x2="1276" y2="495.17"/>
          <polyline class="m" points="1361 503.17 1239.6 503.17 1228.6 524.17 1349.6 524.17 1349.3 524.17 1360.3 503.17"/>
        </g>
      </g>
      <g id="i" data-name="c">
        <g>
          <g>
            <rect class="l" x="1225" y="587.67" width="143" height="94"/>
            <path d="M1367,587.67v93h-142v-93h142m1-1h-144v95h144v-95h0Z"/>
          </g>
          <path d="M1378,578.67v110h-164v-110h164m1-1h-166v112h166v-112h0Z"/>
          <path d="M1302,690.67v19h-14v-19h14m1-1h-16v21h16v-21h0Z"/>
          <line class="m" x1="1320" y1="711.17" x2="1272" y2="711.17"/>
          <polyline class="m" points="1357 719.17 1235.6 719.17 1224.6 740.17 1345.6 740.17 1345.3 740.17 1356.3 719.17"/>
        </g>
      </g>
      <g id="j" data-name="c">
        <g>
          <polyline class="m" points="1127 480.17 1005.43 480.17 994.43 501.17 1115.43 501.17 1115.13 501.17 1126.13 480.17"/>
          <line class="m" x1="995.5" y1="501.67" x2="995.5" y2="527.67"/>
          <line class="m" x1="1127.5" y1="479.67" x2="1127.5" y2="505.67"/>
          <line class="m" x1="1116.5" y1="500.67" x2="1116.5" y2="526.67"/>
          <line class="m" x1="995" y1="527.17" x2="1116" y2="526.17"/>
          <line class="m" x1="1115.93" y1="526.59" x2="1126.93" y2="506.59"/>
          <g>
            <rect class="m" x="1002.5" y="510.17" width="8" height="8"/>
            <rect class="m" x="1010.5" y="510.17" width="8" height="8"/>
            <rect class="m" x="1018.5" y="510.17" width="8" height="8"/>
          </g>
          <g>
            <rect class="m" x="1030.5" y="510.17" width="8" height="8"/>
            <rect class="m" x="1038.5" y="510.17" width="8" height="8"/>
            <rect class="m" x="1046.5" y="510.17" width="8" height="8"/>
          </g>
          <g>
            <rect class="m" x="1058.5" y="510.17" width="8" height="8"/>
            <rect class="m" x="1066.5" y="510.17" width="8" height="8"/>
            <rect class="m" x="1074.5" y="510.17" width="8" height="8"/>
          </g>
          <g>
            <rect class="m" x="1087.5" y="510.17" width="8" height="8"/>
            <rect class="m" x="1095.5" y="510.17" width="8" height="8"/>
            <rect class="m" x="1103.5" y="510.17" width="8" height="8"/>
          </g>
        </g>
      </g>
      <g id="k" data-name="c">
        <g>
          <polyline class="m" points="952.5 453.67 952.5 547.58 932.5 556.11 932.5 462.17 932.5 462.4 952.5 453.86"/>
          <line class="m" x1="932" y1="557.17" x2="906" y2="557.17"/>
          <line class="m" x1="953" y1="451.17" x2="928" y2="451.17"/>
          <line class="m" x1="940.11" y1="453.15" x2="939.61" y2="444.2"/>
          <line class="m" x1="905.5" y1="557.67" x2="905.5" y2="460.67"/>
          <g>
            <rect class="m" x="914.5" y="545.17" width="8" height="8"/>
            <rect class="m" x="914.5" y="537.17" width="8" height="8"/>
            <rect class="m" x="914.5" y="529.17" width="8" height="8"/>
          </g>
          <rect class="m" x="914.5" y="512.17" width="8" height="8"/>
          <rect class="m" x="914.5" y="496.17" width="8" height="8"/>
          <line class="m" x1="927.1" y1="451.59" x2="905.1" y2="461.59"/>
          <line class="m" x1="932" y1="461.17" x2="906" y2="461.17"/>
          <line class="m" x1="939.97" y1="444.43" x2="944.1" y2="438.59"/>
          <line class="m" x1="939.47" y1="444.9" x2="935.37" y2="439.09"/>
        </g>
      </g>
    </g>
  </g>
</svg>