<?xml version="1.0" encoding="UTF-8"?>
<svg id="b" data-name="レイヤー 2" xmlns="http://www.w3.org/2000/svg" viewBox="0 0 498 146">
  <defs>
    <style>
      .d {
        fill: #fff1bf;
      }
    </style>
  </defs>
  <g id="c" data-name="レイヤー 1">
    <g>
      <rect class="d" x=".5" y=".5" width="497" height="145"/>
      <path d="M497,1V145H1V1H497m1-1H0V146H498V0h0Z"/>
    </g>
    <g>
      <path d="M134.34,60.42c-.06,.13-.26,.22-.42,.29-1.73,4.1-4.48,7.65-7.58,10.24-.48-.42-1.38-.99-1.95-1.31,2.94-2.14,5.31-5.25,6.37-7.94h-22.91v-2.18c.35-.15,24.22,.29,24.48-.16l2.02,1.06Zm-12.48,5.82c-.03,.26-.32,.48-.74,.54-.93,7.55-3.52,14.75-10.11,18.56-.45-.38-1.28-1.12-1.89-1.47,6.53-3.58,8.86-10.27,9.63-17.98l3.1,.35Z"/>
      <path d="M140.9,61.38c.19-.09,20.41,.18,20.54-.1l2.18,1.66c-.1,.13-.19,.22-.38,.29-2.59,12.03-8.16,18.3-17.95,22.01-.35-.58-.99-1.41-1.44-1.89,9.31-3.42,14.69-9.38,16.77-19.77h-19.71v-2.21Zm24.38-5.73c4.51-.07,4.54,7.07,0,7.01-4.62,.07-4.5-7.12,0-7.01Zm2.43,3.52c.05-3.21-4.93-3.19-4.9,0-.03,3.21,4.98,3.15,4.9,0Z"/>
      <path d="M176.2,75.2v-15.55l3.04,.19c-.03,.29-.26,.51-.77,.58v14.78h-2.27Zm17.82-16.8c-.03,.32-.26,.48-.77,.54-.15,10.54,2.23,21.52-11.49,26.59-.32-.48-1.12-1.31-1.66-1.73,13.75-4.87,10.44-15.46,10.85-25.6l3.07,.19Z"/>
      <path d="M230.02,65.12v2.18h-7.94c-.1,.19-.29,.35-.58,.38-.96,7.42-3.97,13.89-10.72,17.79-.51-.48-1.38-1.06-1.98-1.44,6.56-3.55,9.6-9.57,10.4-16.73h-8.9c-1.47,2.62-3.33,4.99-5.06,6.59-.48-.35-1.38-.83-2.02-1.12,3.46-2.98,7.17-9.22,8.7-15.17l3.07,.7c-.06,.22-.35,.48-.86,.48-.67,1.98-1.76,4.42-2.72,6.34h18.59Z"/>
      <path d="M235.3,69.76h26.72v2.27h-25.5c-.19,.32-.61,.54-1.02,.61l-.19-2.88Z"/>
      <path d="M268.58,66.69c2.88,.64,6.46,1.86,8.61,2.88l-.96,2.02c-2.11-1.02-5.79-2.3-8.61-2.94l.96-1.95Zm1.92,15.65c10.4-3.49,17.5-9.02,21.76-18.62,.48,.42,1.47,1.09,1.95,1.41-4.29,9.5-11.74,15.42-21.53,18.91,.06,.29-.1,.67-.38,.8l-1.79-2.5Zm1.6-23.58c2.88,.77,6.4,2.05,8.58,3.14l-1.06,1.95c-2.27-1.15-5.6-2.43-8.48-3.23l.96-1.86Z"/>
      <path d="M320.55,65.86v19.45h-1.92v-1.41h-14.37v-1.79h14.37v-6.5h-13.09v-1.79h13.09v-6.21h-13.57v-1.76h15.49Z"/>
      <path d="M333.8,60.1c3.33,1.06,7.17,2.72,9.54,4.35l-1.22,2.02c-2.3-1.63-6.08-3.33-9.34-4.45l1.02-1.92Zm-.13,22.17c11.36-3.52,18.91-9.89,22.75-18.75,.67,.54,1.41,.96,2.08,1.31-4,8.77-11.81,15.58-22.65,19.2-.03,.29-.22,.61-.45,.74l-1.73-2.5Z"/>
      <path d="M389.35,58.15v6.43h-4.19l1.02,.45c-.1,.19-.35,.26-.64,.22-.38,.45-.93,1.06-1.47,1.6h5.22v8.48h-20.13v-8.48h4.38c-.42-.67-.99-1.41-1.57-1.95l.64-.32h-5.22c0,6.76,.13,15.16-3.81,21.6-.38-.35-1.31-.9-1.86-1.12,4.81-8.1,3.23-18.29,3.52-26.91h24.09Zm-2.18,4.67v-2.88h-19.77v2.88h19.77Zm-16.41,23.52v-9.47h17.15v9.41h-2.05v-.96h-13.12v1.02h-1.98Zm.42-18.05v2.08h6.88v-2.08h-6.88Zm0,3.49v2.14h6.88v-2.14h-6.88Zm14.69,6.59h-13.12v1.95h13.12v-1.95Zm-13.12,5.41h13.12v-2.05h-13.12v2.05Zm1.25-19.2c.7,.7,1.34,1.57,1.66,2.27h6.27c.58-.67,1.25-1.54,1.73-2.27h-9.66Zm13.18,5.79v-2.08h-7.1v2.08h7.1Zm0,3.55v-2.14h-7.1v2.14h7.1Z"/>
    </g>
  </g>
</svg>