<?xml version="1.0" encoding="UTF-8"?>
<svg id="b" data-name="レイヤー 2" xmlns="http://www.w3.org/2000/svg" viewBox="0 0 498 146">
  <defs>
    <style>
      .d {
        fill: #e1ffc9;
      }
    </style>
  </defs>
  <g id="c" data-name="レイヤー 1">
    <g>
      <rect class="d" x=".5" y=".5" width="497" height="145"/>
      <path d="M497,1V145H1V1H497m1-1H0V146H498V0h0Z"/>
    </g>
    <g>
      <path d="M145.9,83.78c-3.26-1.76-7.74-3.84-11.23-5.22v16h-2.4v-27.81l3.23,.19c-.03,.35-.29,.58-.83,.67v9.34l.48-.67c3.74,1.38,8.7,3.58,12.03,5.34l-1.28,2.14Z"/>
      <path d="M180.85,77.16c-.06,.13-.22,.26-.42,.32-2.62,9.66-7.97,14.37-17.53,17.02-.29-.58-.9-1.38-1.34-1.86,8.7-2.18,14.11-6.66,16.13-14.08h-21.18v-2.18h22.14l.32-.19,1.89,.96Zm-3.01-6.85h-18.24v-2.11h18.24v2.11Z"/>
      <path d="M189.84,69.35c3.33,1.06,7.17,2.72,9.54,4.35l-1.22,2.02c-2.3-1.63-6.08-3.33-9.34-4.45l1.02-1.92Zm-.13,22.17c11.36-3.52,18.91-9.89,22.75-18.75,.67,.54,1.41,.96,2.08,1.31-4,8.77-11.81,15.58-22.65,19.2-.03,.29-.22,.61-.45,.74l-1.73-2.5Z"/>
      <path d="M241.52,70.05c-.06,.16-.22,.29-.42,.35-1.73,4.06-3.78,7.58-6.4,11.01,3.49,2.78,8.74,7.55,11.71,10.85l-1.95,1.7c-2.82-3.26-7.97-8.13-11.23-10.75-2.82,3.42-7.68,8.1-12.32,10.75-.35-.48-1.12-1.28-1.66-1.73,8.86-4.86,15.87-13.95,18.75-20.89h-15.71v-2.18h16.96l.42-.16,1.86,1.06Z"/>
      <path d="M259.19,80.93c-1.44,3.74-3.55,7.04-6.02,9.44l-1.86-1.22c2.4-2.24,4.48-5.28,5.79-9.02l2.08,.8Zm6.85-4.93v15.01c0,3.49-2.5,3.49-7.62,3.49-.13-.58-.38-1.47-.67-2.14,.93,.03,1.95,.03,2.82,.03h1.86c.9,0,1.31-.58,1.31-1.34v-15.04h-10.88v-2.18h10.88v-6.75l3.04,.16c-.03,.32-.26,.54-.74,.61v5.98h10.81v2.18h-10.81Zm5.73,3.9c2.34,2.59,5.02,6.37,6.75,9.31l-2.05,1.18c-1.57-2.91-4.38-7.04-6.53-9.47l1.82-1.02Zm4.16-14.75c1.95,0,3.55,1.6,3.55,3.58s-1.6,3.58-3.55,3.58-3.62-1.6-3.62-3.58,1.66-3.58,3.62-3.58Zm2.5,3.58c0-1.41-1.12-2.56-2.5-2.56s-2.56,1.15-2.56,2.56,1.15,2.53,2.56,2.53,2.5-1.22,2.5-2.53Z"/>
      <path d="M283.35,79.01h26.72v2.27h-25.5c-.19,.32-.61,.54-1.02,.61l-.19-2.88Z"/>
      <path d="M337.9,83.78c-3.26-1.76-7.74-3.84-11.23-5.22v16h-2.4v-27.81l3.23,.19c-.03,.35-.29,.58-.83,.67v9.34l.48-.67c3.74,1.38,8.7,3.58,12.03,5.34l-1.28,2.14Z"/>
      <path d="M373.39,67.4v6.43h-4.19l1.02,.45c-.1,.19-.35,.26-.64,.22-.38,.45-.93,1.06-1.47,1.6h5.22v8.48h-20.13v-8.48h4.38c-.42-.67-.99-1.41-1.57-1.95l.64-.32h-5.22v3.01c0,5.47-.45,13.31-3.81,18.59-.38-.35-1.31-.9-1.86-1.12,3.23-5.09,3.52-12.26,3.52-17.47v-9.44h24.09Zm-2.18,4.67v-2.88h-19.77v2.88h19.77Zm-16.41,23.52v-9.47h17.15v9.41h-2.05v-.96h-13.12v1.02h-1.98Zm.42-18.05v2.08h6.88v-2.08h-6.88Zm0,3.49v2.14h6.88v-2.14h-6.88Zm14.69,6.59h-13.12v1.95h13.12v-1.95Zm-13.12,5.41h13.12v-2.05h-13.12v2.05Zm1.25-19.2c.7,.7,1.34,1.57,1.66,2.27h6.27c.58-.67,1.25-1.54,1.73-2.27h-9.66Zm13.18,5.79v-2.08h-7.1v2.08h7.1Zm0,3.55v-2.14h-7.1v2.14h7.1Z"/>
    </g>
  </g>
</svg>