<?xml version="1.0" encoding="UTF-8"?>
<svg id="b" data-name="レイヤー 2" xmlns="http://www.w3.org/2000/svg" viewBox="0 0 498 146">
  <defs>
    <style>
      .d {
        fill: #d4eeff;
      }
    </style>
  </defs>
  <g id="c" data-name="レイヤー 1">
    <g>
      <rect class="d" x=".5" y=".5" width="497" height="145"/>
      <path d="M497,1V145H1V1H497m1-1H0V146H498V0h0Z"/>
    </g>
    <g>
      <path d="M49.57,66.25c-.1,.16-.29,.26-.58,.29-2.05,2.56-4.8,5.31-7.74,7.58l.51,.13c-.06,.16-.29,.42-.7,.45v12.19h-2.27v-11.1c-3.26,2.24-7.49,4.51-11.42,6.08-.16-.22-1.22-1.54-1.47-1.79,7.74-2.88,15.1-7.65,19.49-12.77H29.18v-2.08h18.33l.35-.22,1.7,1.25Zm-5.28-2.5c-2.78-1.47-7.14-2.91-10.53-3.87l1.06-1.86c3.42,.83,7.74,2.37,10.65,3.78l-1.18,1.95Zm.22,10.27c3.2,1.66,7.04,4.06,9.34,5.89l-1.63,1.73c-2.14-1.79-6.11-4.38-9.18-6.02l1.47-1.6Z"/>
      <path d="M63.23,67.33c.96,1.95,2.02,5.02,2.4,6.88l-1.79,.48c-.38-1.86-1.38-4.77-2.34-6.82l1.73-.54Zm19.1,.22c-.06,.29-.38,.35-.67,.32-2.5,9.34-7.2,15.07-14.94,18.21-.26-.38-.83-1.12-1.25-1.47,7.65-3.01,12.03-8.26,14.37-17.79l2.5,.74Zm-11.33-1.76c.67,2.14,1.28,5.22,1.5,7.26l-1.89,.35c-.19-2.05-.8-4.99-1.5-7.2l1.89-.42Z"/>
      <path d="M113.02,75.78c-3.26-1.76-7.74-3.84-11.23-5.21v16h-2.4v-27.81l3.23,.19c-.03,.35-.29,.58-.83,.67v9.34l.48-.67c3.74,1.38,8.7,3.58,12.03,5.34l-1.28,2.14Z"/>
      <path d="M147.9,62.31c-.1,.13-.26,.26-.42,.32-1.25,12.51-5.5,19.23-16.19,23.55-.42-.54-1.06-1.25-1.6-1.73,10.21-4.16,14.21-10.24,15.26-20.73h-18.27v8.83h-2.21v-11.01h21.21l.35-.26,1.86,1.02Z"/>
      <path d="M154.46,71.01h26.72v2.27h-25.5c-.19,.32-.61,.54-1.02,.61l-.19-2.88Z"/>
      <path d="M211.17,64.84c-.13,.16-.29,.32-.48,.45-3.36,10.37-8.61,17.02-17.44,21.5-.38-.54-.99-1.28-1.63-1.76,8.38-4.06,13.57-10.46,16.22-18.94h-11.42c-1.86,2.88-4.32,5.66-7.17,7.9-.45-.45-1.18-1.06-1.82-1.47,4.35-3.36,8.03-8.25,10.21-13.89l3.04,.86c-.13,.32-.51,.42-.93,.42-.64,1.41-1.31,2.75-2.05,4.03h11.26l.38-.19,1.82,1.09Z"/>
      <path d="M244.32,60.81c-.13,.16-.32,.26-.61,.26-.1,0-.19,0-.32-.03-2.46,2.5-6.02,5.41-9.12,7.65,.26,.1,.64,.29,.77,.35-.06,.19-.35,.38-.7,.42v17.18h-2.34v-16.45c-3.39,2.4-7.81,4.99-12.19,7.14-.32-.51-.9-1.31-1.34-1.76,8.74-4.03,18.3-10.88,23.45-16.54l2.4,1.79Z"/>
      <path d="M252.96,61.35c3.33,1.06,7.17,2.72,9.54,4.35l-1.22,2.02c-2.3-1.63-6.08-3.33-9.34-4.45l1.02-1.92Zm-.13,22.17c11.36-3.52,18.91-9.89,22.75-18.75,.67,.54,1.41,.96,2.08,1.31-4,8.77-11.81,15.58-22.65,19.2-.03,.29-.22,.61-.45,.74l-1.73-2.5Z"/>
      <path d="M306.59,64.17c-.03,.16-.19,.29-.38,.35-1.18,3.97-2.78,7.62-4.7,10.59,1.38,.8,2.94,1.79,4.13,2.66l-1.34,2.11c-1.15-.9-2.78-1.95-4.13-2.78-2.94,4.1-6.72,7.39-11.55,9.73-.35-.54-1.18-1.31-1.76-1.66,4.67-2.18,8.42-5.41,11.33-9.22-2.37-1.31-4.7-2.43-7.07-3.33l1.22-1.79c2.34,.83,4.74,1.92,7.2,3.23,1.66-2.62,2.98-5.41,3.87-8.48h-10.85c-1.95,3.26-4.58,6.5-7.39,8.8-.42-.38-1.28-1.09-1.82-1.44,4.19-3.2,8.16-8.96,10.08-14.43l3.04,.7c-.13,.35-.45,.45-.86,.42-.45,1.06-1.18,2.62-1.79,3.81h10.62l.45-.13,1.73,.86Z"/>
      <path d="M340.19,62.85c-.1,.16-.22,.29-.42,.35-2.53,12.13-8.8,19.33-19.26,23.01-.35-.54-1.06-1.41-1.47-1.86,9.92-3.23,16-10.37,17.92-20.06h-20.93v-2.14h21.76l.45-.29,1.95,.99Z"/>
      <path d="M368.7,67.75v1.86h-7.87v12.57h9.66v1.86h-21.37v-1.86h9.66v-12.57h-7.81v-1.86h17.73Z"/>
      <path d="M378.46,71.01h26.72v2.27h-25.5c-.19,.32-.61,.54-1.02,.61l-.19-2.88Z"/>
      <path d="M432.64,62.05c-.06,.16-.22,.29-.42,.35-1.73,4.06-3.78,7.58-6.4,11.01,3.49,2.78,8.74,7.55,11.71,10.85l-1.95,1.7c-2.82-3.26-7.97-8.13-11.23-10.75-2.82,3.42-7.68,8.09-12.32,10.75-.35-.48-1.12-1.28-1.66-1.73,8.86-4.86,15.87-13.95,18.75-20.89h-15.71v-2.18h16.96l.42-.16,1.86,1.06Z"/>
      <path d="M468.51,59.4v6.43h-4.19l1.02,.45c-.1,.19-.35,.26-.64,.22-.38,.45-.93,1.06-1.47,1.6h5.22v8.48h-20.13v-8.48h4.38c-.42-.67-.99-1.41-1.57-1.95l.64-.32h-5.22v3.01c0,5.47-.45,13.31-3.81,18.59-.38-.35-1.31-.9-1.86-1.12,3.23-5.09,3.52-12.25,3.52-17.47v-9.44h24.09Zm-2.18,4.67v-2.88h-19.77v2.88h19.77Zm-16.41,23.52v-9.47h17.15v9.41h-2.05v-.96h-13.12v1.02h-1.98Zm.42-18.05v2.08h6.88v-2.08h-6.88Zm0,3.49v2.14h6.88v-2.14h-6.88Zm14.69,6.59h-13.12v1.95h13.12v-1.95Zm-13.12,5.41h13.12v-2.05h-13.12v2.05Zm1.25-19.2c.7,.7,1.34,1.57,1.66,2.27h6.27c.58-.67,1.25-1.54,1.73-2.27h-9.66Zm13.18,5.79v-2.08h-7.1v2.08h7.1Zm0,3.55v-2.14h-7.1v2.14h7.1Z"/>
    </g>
  </g>
</svg>