<?xml version="1.0" encoding="UTF-8"?><svg id="b" xmlns="http://www.w3.org/2000/svg" width="1526" height="395.5" xmlns:xlink="http://www.w3.org/1999/xlink" viewBox="0 0 1526 395.5"><defs><clipPath id="d"><rect x="6.5" y="132.24" width="230.04" height="213.52" style="fill:none;"/></clipPath><clipPath id="e"><rect x="6.5" y="132.24" width="230.04" height="213.52" style="fill:none;"/></clipPath><clipPath id="f"><rect x="6.5" y="132.24" width="230.04" height="213.52" style="fill:none;"/></clipPath><clipPath id="g"><rect x="6.5" y="132.24" width="230.04" height="213.52" style="fill:none;"/></clipPath><clipPath id="h"><rect x="6.5" y="132.24" width="230.04" height="213.52" style="fill:none;"/></clipPath><clipPath id="i"><rect x="418.65" y="132.24" width="230.04" height="213.52" style="fill:none;"/></clipPath><clipPath id="j"><rect x="418.65" y="132.24" width="230.04" height="213.52" style="fill:none;"/></clipPath><clipPath id="k"><rect x="418.65" y="132.24" width="230.04" height="213.52" style="fill:none;"/></clipPath><clipPath id="l"><rect x="418.65" y="132.24" width="230.04" height="213.52" style="fill:none;"/></clipPath><clipPath id="m"><rect x="418.65" y="132.24" width="230.04" height="213.52" style="fill:none;"/></clipPath></defs><g id="c"><g><polyline points="43.52 319.2 43.52 288.1 209.78 288.1 209.78 319.2 43.52 319.2" style="fill:#007cbe;"/><polygon points="43.52 319.2 43.52 288.1 209.78 288.1 209.78 319.2 43.52 319.2 43.52 319.2" style="fill:none; stroke:#fff; stroke-width:3.17px;"/><g style="clip-path:url(#d);"><polyline points="237.91 259.75 237.91 291.16 209.78 319.51 209.78 288.1 43.39 288.1" style="fill:#007cbe;"/><polyline points="237.91 259.75 237.91 291.16 209.78 319.51 209.78 288.1 43.39 288.1" style="fill:none; stroke:#fff; stroke-width:3.17px;"/><line x1="44.71" y1="259.75" x2="237.91" y2="259.75" style="fill:none; stroke:#fff; stroke-width:3.17px;"/><line x1="209.78" y1="288.1" x2="237.91" y2="259.75" style="fill:#007cbe;"/><line x1="209.78" y1="288.1" x2="237.91" y2="259.75" style="fill:none; stroke:#fff; stroke-width:3.17px;"/></g><polyline points="209.56 287.47 209.56 162.18 43.39 162.18 43.39 287.47 209.56 287.47" style="fill:#007cbe;"/><polygon points="209.56 287.47 209.56 162.18 43.39 162.18 43.39 287.47 209.56 287.47 209.56 287.47" style="fill:none; stroke:#fff; stroke-width:3.17px;"/><g style="clip-path:url(#e);"><polyline points="209.56 287.47 237.91 259.11 237.91 133.83 71.74 133.83 43.39 162.18 209.56 162.18 209.56 287.47" style="fill:#007cbe;"/><polygon points="209.56 287.47 237.91 259.11 237.91 133.83 71.74 133.83 43.39 162.18 209.56 162.18 209.56 287.47 209.56 287.47" style="fill:none; stroke:#fff; stroke-width:3.17px;"/></g><polyline points="195.05 272.96 195.05 176.69 57.9 176.69 57.9 272.96 195.05 272.96" style="fill:#007cbe;"/><polygon points="195.05 272.96 195.05 176.69 57.9 176.69 57.9 272.96 195.05 272.96 195.05 272.96" style="fill:none; stroke:#fff; stroke-width:3.17px;"/><g style="clip-path:url(#f);"><line x1="209.56" y1="162.18" x2="237.91" y2="133.83" style="fill:#007cbe;"/><line x1="209.56" y1="162.18" x2="237.91" y2="133.83" style="fill:none; stroke:#fff; stroke-width:3.17px;"/></g><polyline points="201.56 341.93 201.56 323.5 10.33 323.5 32.09 301.74 223.32 301.74 223.32 320.17 201.56 341.93" style="fill:#007cbe;"/><g style="clip-path:url(#g);"><polygon points="201.56 341.93 201.56 323.5 10.33 323.5 32.09 301.74 223.32 301.74 223.32 320.17 201.56 341.93 201.56 341.93" style="fill:none; stroke:#fff; stroke-width:3.17px;"/></g><polyline points="201.56 323.5 201.56 341.93 10.33 341.93 10.33 323.5 201.56 323.5" style="fill:#007cbe;"/><g style="clip-path:url(#h);"><polygon points="201.56 323.5 201.56 341.93 10.33 341.93 10.33 323.5 201.56 323.5 201.56 323.5" style="fill:none; stroke:#fff; stroke-width:3.17px;"/></g><line x1="201.56" y1="323.5" x2="223.32" y2="301.74" style="fill:#007cbe;"/><line x1="201.56" y1="323.5" x2="223.32" y2="301.74" style="fill:none; stroke:#fff; stroke-width:3.17px;"/></g><text transform="translate(644.18 75.08)" style="font-family:KozGoPr6N-Regular-90ms-RKSJ-H, &apos;Kozuka Gothic Pr6N&apos;; font-size:32px;"><tspan x="0" y="0" style="letter-spacing:-.09em;">ネ</tspan><tspan x="29.12" y="0" style="letter-spacing:-.23em;">ッ</tspan><tspan x="53.76" y="0" style="letter-spacing:-.11em;">ト</tspan><tspan x="82.24" y="0" style="letter-spacing:-.05em;">ワ</tspan><tspan x="112.64" y="0" style="letter-spacing:-.08em;">ーク</tspan></text><g><polyline points="455.67 319.2 455.67 288.1 621.93 288.1 621.93 319.2 455.67 319.2" style="fill:#007cbe;"/><polygon points="455.67 319.2 455.67 288.1 621.93 288.1 621.93 319.2 455.67 319.2 455.67 319.2" style="fill:none; stroke:#fff; stroke-width:3.17px;"/><g style="clip-path:url(#i);"><polyline points="650.07 259.75 650.07 291.16 621.93 319.51 621.93 288.1 455.54 288.1" style="fill:#007cbe;"/><polyline points="650.07 259.75 650.07 291.16 621.93 319.51 621.93 288.1 455.54 288.1" style="fill:none; stroke:#fff; stroke-width:3.17px;"/><line x1="456.87" y1="259.75" x2="650.07" y2="259.75" style="fill:none; stroke:#fff; stroke-width:3.17px;"/><line x1="621.93" y1="288.1" x2="650.07" y2="259.75" style="fill:#007cbe;"/><line x1="621.93" y1="288.1" x2="650.07" y2="259.75" style="fill:none; stroke:#fff; stroke-width:3.17px;"/></g><polyline points="621.71 287.47 621.71 162.18 455.54 162.18 455.54 287.47 621.71 287.47" style="fill:#007cbe;"/><polygon points="621.71 287.47 621.71 162.18 455.54 162.18 455.54 287.47 621.71 287.47 621.71 287.47" style="fill:none; stroke:#fff; stroke-width:3.17px;"/><g style="clip-path:url(#j);"><polyline points="621.71 287.47 650.07 259.11 650.07 133.83 483.89 133.83 455.54 162.18 621.71 162.18 621.71 287.47" style="fill:#007cbe;"/><polygon points="621.71 287.47 650.07 259.11 650.07 133.83 483.89 133.83 455.54 162.18 621.71 162.18 621.71 287.47 621.71 287.47" style="fill:none; stroke:#fff; stroke-width:3.17px;"/></g><polyline points="607.2 272.96 607.2 176.69 470.05 176.69 470.05 272.96 607.2 272.96" style="fill:#007cbe;"/><polygon points="607.2 272.96 607.2 176.69 470.05 176.69 470.05 272.96 607.2 272.96 607.2 272.96" style="fill:none; stroke:#fff; stroke-width:3.17px;"/><g style="clip-path:url(#k);"><line x1="621.71" y1="162.18" x2="650.07" y2="133.83" style="fill:#007cbe;"/><line x1="621.71" y1="162.18" x2="650.07" y2="133.83" style="fill:none; stroke:#fff; stroke-width:3.17px;"/></g><polyline points="613.71 341.93 613.71 323.5 422.49 323.5 444.25 301.74 635.47 301.74 635.47 320.17 613.71 341.93" style="fill:#007cbe;"/><g style="clip-path:url(#l);"><polygon points="613.71 341.93 613.71 323.5 422.49 323.5 444.25 301.74 635.47 301.74 635.47 320.17 613.71 341.93 613.71 341.93" style="fill:none; stroke:#fff; stroke-width:3.17px;"/></g><polyline points="613.71 323.5 613.71 341.93 422.49 341.93 422.49 323.5 613.71 323.5" style="fill:#007cbe;"/><g style="clip-path:url(#m);"><polygon points="613.71 323.5 613.71 341.93 422.49 341.93 422.49 323.5 613.71 323.5 613.71 323.5" style="fill:none; stroke:#fff; stroke-width:3.17px;"/></g><line x1="613.71" y1="323.5" x2="635.47" y2="301.74" style="fill:#007cbe;"/><line x1="613.71" y1="323.5" x2="635.47" y2="301.74" style="fill:none; stroke:#fff; stroke-width:3.17px;"/></g><rect x="3" y="3" width="1520" height="389.5" style="fill:none; stroke:#8cbfe8; stroke-miterlimit:10; stroke-width:6px;"/><line x1="239.5" y1="224.21" x2="456" y2="224.21" style="fill:none; stroke:#231815; stroke-miterlimit:10; stroke-width:2px;"/></g></svg>